<?xml version="1.0" encoding="UTF-8" standalone="no"?>
<!DOCTYPE svg PUBLIC "-//W3C//DTD SVG 1.1//EN"
"http://www.w3.org/Graphics/SVG/1.1/DTD/svg11.dtd">
<svg viewBox="0 0 740 1092" version="1.1" xmlns="http://www.w3.org/2000/svg" xmlns:xlink="http://www.w3.org/1999/xlink">
<defs>
<clipPath id="c0_71"><path d="M333.2,630.3V613.1H377v17.2Z" /></clipPath>
</defs>
<g fill="#D4D4D4" fill-opacity="0.36" >
<use xlink:href="#f0_1f" transform="matrix(50.9,-50.9,50.9,50.9,129.3,814.1)" />
<use xlink:href="#f0_2a" transform="matrix(50.9,-50.9,50.9,50.9,189.9,753.6)" />
<use xlink:href="#f0_28" transform="matrix(50.9,-50.9,50.9,50.9,233.1,710.3)" />
<use xlink:href="#f0_25" transform="matrix(50.9,-50.9,50.9,50.9,250.4,693.1)" />
<use xlink:href="#f0_2a" transform="matrix(50.9,-50.9,50.9,50.9,267.6,675.8)" />
<use xlink:href="#f0_21" transform="matrix(50.9,-50.9,50.9,50.9,310.9,632.5)" />
<use xlink:href="#f0_2k" transform="matrix(50.9,-50.9,50.9,50.9,354.1,589.3)" />
<use xlink:href="#f0_1x" transform="matrix(50.9,-50.9,50.9,50.9,393,550.4)" />
<use xlink:href="#f0_29" transform="matrix(50.9,-50.9,50.9,50.9,436.3,507.2)" />
<use xlink:href="#f0_2c" transform="matrix(50.9,-50.9,50.9,50.9,501.1,442.4)" />
<use xlink:href="#f0_2b" transform="matrix(50.9,-50.9,50.9,50.9,544.3,399.1)" />
<use xlink:href="#f0_25" transform="matrix(50.9,-50.9,50.9,50.9,587.6,355.9)" />
<use xlink:href="#f0_2a" transform="matrix(50.9,-50.9,50.9,50.9,604.8,338.6)" />
<use xlink:href="#f0_2g" transform="matrix(50.9,-50.9,50.9,50.9,648.1,295.4)" />
</g>
<g fill="#000000" >
<use xlink:href="#f1_m" transform="matrix(10.4,0,0,10.4,41.9,84.5)" />
<use xlink:href="#f1_i" transform="matrix(10.4,0,0,10.4,51.3,84.5)" />
<use xlink:href="#f1_1n" transform="matrix(10.4,0,0,10.4,85.2,84.5)" />
<use xlink:href="#f1_2e" transform="matrix(10.4,0,0,10.4,101.1,84.5)" />
<use xlink:href="#f1_25" transform="matrix(10.4,0,0,10.4,106.4,84.5)" />
<use xlink:href="#f1_2g" transform="matrix(10.4,0,0,10.4,109.9,84.5)" />
<use xlink:href="#f1_21" transform="matrix(10.4,0,0,10.4,114.3,84.5)" />
<use xlink:href="#f1_2g" transform="matrix(10.4,0,0,10.4,131.2,84.5)" />
<use xlink:href="#f1_24" transform="matrix(10.4,0,0,10.4,135.6,84.5)" />
<use xlink:href="#f1_21" transform="matrix(10.4,0,0,10.4,144.4,84.5)" />
<use xlink:href="#f1_2f" transform="matrix(10.4,0,0,10.4,161.2,84.5)" />
<use xlink:href="#f1_2g" transform="matrix(10.4,0,0,10.4,169.3,84.5)" />
<use xlink:href="#f1_2e" transform="matrix(10.4,0,0,10.4,173.7,84.5)" />
<use xlink:href="#f1_2h" transform="matrix(10.4,0,0,10.4,179,84.5)" />
<use xlink:href="#f1_1z" transform="matrix(10.4,0,0,10.4,187.8,84.5)" />
<use xlink:href="#f1_2g" transform="matrix(10.4,0,0,10.4,195.9,84.5)" />
<use xlink:href="#f1_2h" transform="matrix(10.4,0,0,10.4,200.3,84.5)" />
<use xlink:href="#f1_2e" transform="matrix(10.4,0,0,10.4,209.1,84.5)" />
<use xlink:href="#f1_21" transform="matrix(10.4,0,0,10.4,214.4,84.5)" />
<use xlink:href="#f1_2b" transform="matrix(10.4,0,0,10.4,231.3,84.5)" />
<use xlink:href="#f1_22" transform="matrix(10.4,0,0,10.4,240.1,84.5)" />
<use xlink:href="#f1_22" transform="matrix(10.4,0,0,10.4,252.7,84.5)" />
<use xlink:href="#f1_2b" transform="matrix(10.4,0,0,10.4,257.3,84.5)" />
<use xlink:href="#f1_28" transform="matrix(10.4,0,0,10.4,266.1,84.5)" />
<use xlink:href="#f1_28" transform="matrix(10.4,0,0,10.4,269.6,84.5)" />
<use xlink:href="#f1_2b" transform="matrix(10.4,0,0,10.4,273.1,84.5)" />
<use xlink:href="#f1_2j" transform="matrix(10.4,0,0,10.4,281.9,84.5)" />
<use xlink:href="#f1_25" transform="matrix(10.4,0,0,10.4,293,84.5)" />
<use xlink:href="#f1_2a" transform="matrix(10.4,0,0,10.4,296.5,84.5)" />
<use xlink:href="#f1_23" transform="matrix(10.4,0,0,10.4,305.3,84.5)" />
<use xlink:href="#f1_24" transform="matrix(10.4,0,0,10.4,322.2,84.5)" />
<use xlink:href="#f1_1x" transform="matrix(10.4,0,0,10.4,331,84.5)" />
<use xlink:href="#f1_28" transform="matrix(10.4,0,0,10.4,339.8,84.5)" />
<use xlink:href="#f1_2b" transform="matrix(10.4,0,0,10.4,343.3,84.5)" />
<use xlink:href="#f1_23" transform="matrix(10.4,0,0,10.4,352.1,84.5)" />
<use xlink:href="#f1_21" transform="matrix(10.4,0,0,10.4,360.9,84.5)" />
<use xlink:href="#f1_2a" transform="matrix(10.4,0,0,10.4,369.7,84.5)" />
<use xlink:href="#f1_1z" transform="matrix(10.4,0,0,10.4,386.5,84.5)" />
<use xlink:href="#f1_2b" transform="matrix(10.4,0,0,10.4,394.6,84.5)" />
<use xlink:href="#f1_29" transform="matrix(10.4,0,0,10.4,403.4,84.5)" />
<use xlink:href="#f1_2c" transform="matrix(10.4,0,0,10.4,417,84.5)" />
<use xlink:href="#f1_2b" transform="matrix(10.4,0,0,10.4,425.8,84.5)" />
<use xlink:href="#f1_2h" transform="matrix(10.4,0,0,10.4,434.6,84.5)" />
<use xlink:href="#f1_2a" transform="matrix(10.4,0,0,10.4,443.4,84.5)" />
<use xlink:href="#f1_20" transform="matrix(10.4,0,0,10.4,452.2,84.5)" />
<use xlink:href="#f1_2f" transform="matrix(10.4,0,0,10.4,461,84.5)" />
<use xlink:href="#f1_c" transform="matrix(10.4,0,0,10.4,85.2,114.6)" />
<use xlink:href="#f1_25" transform="matrix(10.4,0,0,10.4,90.9,114.6)" />
<use xlink:href="#f1_d" transform="matrix(10.4,0,0,10.4,94.7,114.6)" />
<use xlink:href="#f1_m" transform="matrix(10.4,0,0,10.4,128.4,114.6)" />
<use xlink:href="#f1_h" transform="matrix(10.4,0,0,10.4,137.4,114.6)" />
<use xlink:href="#f1_1z" transform="matrix(10.4,0,0,10.4,143.1,114.6)" />
<use xlink:href="#f1_24" transform="matrix(10.4,0,0,10.4,151.3,114.6)" />
<use xlink:href="#f1_28" transform="matrix(10.4,0,0,10.4,160.5,114.6)" />
<use xlink:href="#f1_2b" transform="matrix(10.4,0,0,10.4,164.2,114.6)" />
<use xlink:href="#f1_2e" transform="matrix(10.4,0,0,10.4,173.3,114.6)" />
<use xlink:href="#f1_2b" transform="matrix(10.4,0,0,10.4,178.8,114.6)" />
<use xlink:href="#f1_h" transform="matrix(10.4,0,0,10.4,188,114.6)" />
<use xlink:href="#f1_n" transform="matrix(10.4,0,0,10.4,193.5,114.6)" />
<use xlink:href="#f1_h" transform="matrix(10.4,0,0,10.4,202.7,114.6)" />
<use xlink:href="#f1_29" transform="matrix(10.4,0,0,10.4,208.2,114.6)" />
<use xlink:href="#f1_21" transform="matrix(10.4,0,0,10.4,222.1,114.6)" />
<use xlink:href="#f1_2g" transform="matrix(10.4,0,0,10.4,231.1,114.6)" />
<use xlink:href="#f1_24" transform="matrix(10.4,0,0,10.4,235.8,114.6)" />
<use xlink:href="#f1_2l" transform="matrix(10.4,0,0,10.4,244.8,114.6)" />
<use xlink:href="#f1_28" transform="matrix(10.4,0,0,10.4,252.7,114.6)" />
<use xlink:href="#f1_2c" transform="matrix(10.4,0,0,10.4,256.4,114.6)" />
<use xlink:href="#f1_21" transform="matrix(10.4,0,0,10.4,265.5,114.6)" />
<use xlink:href="#f1_2a" transform="matrix(10.4,0,0,10.4,274.5,114.6)" />
<use xlink:href="#f1_2g" transform="matrix(10.4,0,0,10.4,283.7,114.6)" />
<use xlink:href="#f1_1x" transform="matrix(10.4,0,0,10.4,288.3,114.6)" />
<use xlink:href="#f1_2a" transform="matrix(10.4,0,0,10.4,297.4,114.6)" />
<use xlink:href="#f1_21" transform="matrix(10.4,0,0,10.4,306.4,114.6)" />
<use xlink:href="#f1_c" transform="matrix(10.4,0,0,10.4,85.2,144.6)" />
<use xlink:href="#f1_25" transform="matrix(10.4,0,0,10.4,90.7,144.6)" />
<use xlink:href="#f1_25" transform="matrix(10.4,0,0,10.4,94.5,144.6)" />
<use xlink:href="#f1_d" transform="matrix(10.4,0,0,10.4,98.2,144.6)" />
<use xlink:href="#f1_m" transform="matrix(10.4,0,0,10.4,128.4,144.6)" />
<use xlink:href="#f1_h" transform="matrix(10.4,0,0,10.4,137.6,144.6)" />
<use xlink:href="#f1_c" transform="matrix(10.4,0,0,10.4,143.1,144.6)" />
<use xlink:href="#f1_m" transform="matrix(10.4,0,0,10.4,148.8,144.6)" />
<use xlink:href="#f1_h" transform="matrix(10.4,0,0,10.4,157.9,144.6)" />
<use xlink:href="#f1_1z" transform="matrix(10.4,0,0,10.4,163.6,144.6)" />
<use xlink:href="#f1_24" transform="matrix(10.4,0,0,10.4,171.9,144.6)" />
<use xlink:href="#f1_28" transform="matrix(10.4,0,0,10.4,181,144.6)" />
<use xlink:href="#f1_2b" transform="matrix(10.4,0,0,10.4,184.9,144.6)" />
<use xlink:href="#f1_2e" transform="matrix(10.4,0,0,10.4,194.1,144.6)" />
<use xlink:href="#f1_2b" transform="matrix(10.4,0,0,10.4,199.6,144.6)" />
<use xlink:href="#f1_2c" transform="matrix(10.4,0,0,10.4,208.7,144.6)" />
<use xlink:href="#f1_24" transform="matrix(10.4,0,0,10.4,217.9,144.6)" />
<use xlink:href="#f1_21" transform="matrix(10.4,0,0,10.4,227,144.6)" />
<use xlink:href="#f1_2a" transform="matrix(10.4,0,0,10.4,236,144.6)" />
<use xlink:href="#f1_2l" transform="matrix(10.4,0,0,10.4,245.2,144.6)" />
<use xlink:href="#f1_28" transform="matrix(10.4,0,0,10.4,253.1,144.6)" />
<use xlink:href="#f1_d" transform="matrix(10.4,0,0,10.4,256.7,144.6)" />
<use xlink:href="#f1_h" transform="matrix(10.4,0,0,10.4,262.4,144.6)" />
<use xlink:href="#f1_l" transform="matrix(10.4,0,0,10.4,268.1,144.6)" />
<use xlink:href="#f1_h" transform="matrix(10.4,0,0,10.4,277.3,144.6)" />
<use xlink:href="#f1_25" transform="matrix(10.4,0,0,10.4,282.8,144.6)" />
<use xlink:href="#f1_2b" transform="matrix(10.4,0,0,10.4,286.6,144.6)" />
<use xlink:href="#f1_20" transform="matrix(10.4,0,0,10.4,295.8,144.6)" />
<use xlink:href="#f1_2b" transform="matrix(10.4,0,0,10.4,304.9,144.6)" />
<use xlink:href="#f1_2b" transform="matrix(10.4,0,0,10.4,313.9,144.6)" />
<use xlink:href="#f1_1z" transform="matrix(10.4,0,0,10.4,323.1,144.6)" />
<use xlink:href="#f1_2g" transform="matrix(10.4,0,0,10.4,331.5,144.6)" />
<use xlink:href="#f1_1x" transform="matrix(10.4,0,0,10.4,336.3,144.6)" />
<use xlink:href="#f1_2a" transform="matrix(10.4,0,0,10.4,345.3,144.6)" />
<use xlink:href="#f1_21" transform="matrix(10.4,0,0,10.4,354.4,144.6)" />
<use xlink:href="#f1_c" transform="matrix(10.4,0,0,10.4,85.2,174.5)" />
<use xlink:href="#f1_25" transform="matrix(10.4,0,0,10.4,90.7,174.5)" />
<use xlink:href="#f1_25" transform="matrix(10.4,0,0,10.4,94.3,174.5)" />
<use xlink:href="#f1_25" transform="matrix(10.4,0,0,10.4,98,174.5)" />
<use xlink:href="#f1_d" transform="matrix(10.4,0,0,10.4,101.7,174.5)" />
<use xlink:href="#f1_l" transform="matrix(10.4,0,0,10.4,128.4,174.5)" />
<use xlink:href="#f1_h" transform="matrix(10.4,0,0,10.4,137.4,174.5)" />
<use xlink:href="#f1_1y" transform="matrix(10.4,0,0,10.4,142.9,174.5)" />
<use xlink:href="#f1_2e" transform="matrix(10.4,0,0,10.4,152.1,174.5)" />
<use xlink:href="#f1_2b" transform="matrix(10.4,0,0,10.4,157.6,174.5)" />
<use xlink:href="#f1_29" transform="matrix(10.4,0,0,10.4,166.6,174.5)" />
<use xlink:href="#f1_2b" transform="matrix(10.4,0,0,10.4,180.3,174.5)" />
<use xlink:href="#f1_h" transform="matrix(10.4,0,0,10.4,189.5,174.5)" />
<use xlink:href="#f1_o" transform="matrix(10.4,0,0,10.4,195,174.5)" />
<use xlink:href="#f1_h" transform="matrix(10.4,0,0,10.4,204,174.5)" />
<use xlink:href="#f1_2f" transform="matrix(10.4,0,0,10.4,209.4,174.5)" />
<use xlink:href="#f1_21" transform="matrix(10.4,0,0,10.4,217.7,174.5)" />
<use xlink:href="#f1_1z" transform="matrix(10.4,0,0,10.4,226.9,174.5)" />
<use xlink:href="#f1_h" transform="matrix(10.4,0,0,10.4,235.1,174.5)" />
<use xlink:href="#f1_1y" transform="matrix(10.4,0,0,10.4,240.6,174.5)" />
<use xlink:href="#f1_2h" transform="matrix(10.4,0,0,10.4,249.6,174.5)" />
<use xlink:href="#f1_2g" transform="matrix(10.4,0,0,10.4,258.8,174.5)" />
<use xlink:href="#f1_2l" transform="matrix(10.4,0,0,10.4,263.3,174.5)" />
<use xlink:href="#f1_28" transform="matrix(10.4,0,0,10.4,271,174.5)" />
<use xlink:href="#f1_h" transform="matrix(10.4,0,0,10.4,274.7,174.5)" />
<use xlink:href="#f1_m" transform="matrix(10.4,0,0,10.4,280.2,174.5)" />
<use xlink:href="#f1_1jz" transform="matrix(10.4,0,0,10.4,289.4,174.5)" />
<use xlink:href="#f1_29" transform="matrix(10.4,0,0,10.4,298.3,174.5)" />
<use xlink:href="#f1_21" transform="matrix(10.4,0,0,10.4,312.1,174.5)" />
<use xlink:href="#f1_2g" transform="matrix(10.4,0,0,10.4,321.1,174.5)" />
<use xlink:href="#f1_24" transform="matrix(10.4,0,0,10.4,325.8,174.5)" />
<use xlink:href="#f1_2l" transform="matrix(10.4,0,0,10.4,334.8,174.5)" />
<use xlink:href="#f1_28" transform="matrix(10.4,0,0,10.4,342.5,174.5)" />
<use xlink:href="#f1_21" transform="matrix(10.4,0,0,10.4,346.2,174.5)" />
<use xlink:href="#f1_1y" transform="matrix(10.4,0,0,10.4,355.2,174.5)" />
<use xlink:href="#f1_21" transform="matrix(10.4,0,0,10.4,364.3,174.5)" />
<use xlink:href="#f1_2a" transform="matrix(10.4,0,0,10.4,373.3,174.5)" />
<use xlink:href="#f1_2m" transform="matrix(10.4,0,0,10.4,382.3,174.5)" />
<use xlink:href="#f1_21" transform="matrix(10.4,0,0,10.4,390.2,174.5)" />
<use xlink:href="#f1_2a" transform="matrix(10.4,0,0,10.4,399.3,174.5)" />
<use xlink:href="#f1_21" transform="matrix(10.4,0,0,10.4,408.3,174.5)" />
<use xlink:href="#f1_i" transform="matrix(10.4,0,0,10.4,417.3,174.5)" />
<use xlink:href="#f1_c" transform="matrix(10.4,0,0,10.4,85.2,204.6)" />
<use xlink:href="#f1_25" transform="matrix(10.4,0,0,10.4,90.9,204.6)" />
<use xlink:href="#f1_2i" transform="matrix(10.4,0,0,10.4,94.5,204.6)" />
<use xlink:href="#f1_d" transform="matrix(10.4,0,0,10.4,102.8,204.6)" />
<use xlink:href="#f1_2c" transform="matrix(10.4,0,0,10.4,128.4,204.6)" />
<use xlink:href="#f1_h" transform="matrix(10.4,0,0,10.4,137.4,204.6)" />
<use xlink:href="#f1_1y" transform="matrix(10.4,0,0,10.4,143.1,204.6)" />
<use xlink:href="#f1_2e" transform="matrix(10.4,0,0,10.4,152.1,204.6)" />
<use xlink:href="#f1_2b" transform="matrix(10.4,0,0,10.4,157.6,204.6)" />
<use xlink:href="#f1_29" transform="matrix(10.4,0,0,10.4,166.7,204.6)" />
<use xlink:href="#f1_2b" transform="matrix(10.4,0,0,10.4,180.5,204.6)" />
<use xlink:href="#f1_2g" transform="matrix(10.4,0,0,10.4,189.5,204.6)" />
<use xlink:href="#f1_2b" transform="matrix(10.4,0,0,10.4,194.2,204.6)" />
<use xlink:href="#f1_28" transform="matrix(10.4,0,0,10.4,203.2,204.6)" />
<use xlink:href="#f1_2h" transform="matrix(10.4,0,0,10.4,207.1,204.6)" />
<use xlink:href="#f1_21" transform="matrix(10.4,0,0,10.4,216,204.6)" />
<use xlink:href="#f1_2a" transform="matrix(10.4,0,0,10.4,225,204.6)" />
<use xlink:href="#f1_21" transform="matrix(10.4,0,0,10.4,234.2,204.6)" />
<use xlink:href="#f1_i" transform="matrix(10.4,0,0,10.4,243.2,204.6)" />
<use xlink:href="#f1_c" transform="matrix(10.4,0,0,10.4,85.2,234.6)" />
<use xlink:href="#f1_2i" transform="matrix(10.4,0,0,10.4,90.9,234.6)" />
<use xlink:href="#f1_d" transform="matrix(10.4,0,0,10.4,99.3,234.6)" />
<use xlink:href="#f1_1z" transform="matrix(10.4,0,0,10.4,128.4,234.6)" />
<use xlink:href="#f1_24" transform="matrix(10.4,0,0,10.4,136.7,234.6)" />
<use xlink:href="#f1_28" transform="matrix(10.4,0,0,10.4,145.8,234.6)" />
<use xlink:href="#f1_2b" transform="matrix(10.4,0,0,10.4,149.5,234.6)" />
<use xlink:href="#f1_2e" transform="matrix(10.4,0,0,10.4,158.5,234.6)" />
<use xlink:href="#f1_2b" transform="matrix(10.4,0,0,10.4,164.2,234.6)" />
<use xlink:href="#f1_2c" transform="matrix(10.4,0,0,10.4,173.2,234.6)" />
<use xlink:href="#f1_24" transform="matrix(10.4,0,0,10.4,182.1,234.6)" />
<use xlink:href="#f1_21" transform="matrix(10.4,0,0,10.4,191.3,234.6)" />
<use xlink:href="#f1_2a" transform="matrix(10.4,0,0,10.4,200.3,234.6)" />
<use xlink:href="#f1_2l" transform="matrix(10.4,0,0,10.4,209.3,234.6)" />
<use xlink:href="#f1_28" transform="matrix(10.4,0,0,10.4,217.1,234.6)" />
<use xlink:href="#f1_29" transform="matrix(10.4,0,0,10.4,220.8,234.6)" />
<use xlink:href="#f1_21" transform="matrix(10.4,0,0,10.4,234.6,234.6)" />
<use xlink:href="#f1_2g" transform="matrix(10.4,0,0,10.4,243.7,234.6)" />
<use xlink:href="#f1_24" transform="matrix(10.4,0,0,10.4,248.3,234.6)" />
<use xlink:href="#f1_1x" transform="matrix(10.4,0,0,10.4,257.3,234.6)" />
<use xlink:href="#f1_2a" transform="matrix(10.4,0,0,10.4,266.5,234.6)" />
<use xlink:href="#f1_21" transform="matrix(10.4,0,0,10.4,275.4,234.6)" />
<use xlink:href="#f1_n" transform="matrix(10.4,0,0,10.4,41.9,264.7)" />
<use xlink:href="#f1_i" transform="matrix(10.4,0,0,10.4,51.3,264.7)" />
<use xlink:href="#f1_11" transform="matrix(10.4,0,0,10.4,85.2,264.7)" />
<use xlink:href="#f1_2e" transform="matrix(10.4,0,0,10.4,95.8,264.7)" />
<use xlink:href="#f1_2e" transform="matrix(10.4,0,0,10.4,101.1,264.7)" />
<use xlink:href="#f1_1x" transform="matrix(10.4,0,0,10.4,106.4,264.7)" />
<use xlink:href="#f1_2a" transform="matrix(10.4,0,0,10.4,115.2,264.7)" />
<use xlink:href="#f1_23" transform="matrix(10.4,0,0,10.4,124,264.7)" />
<use xlink:href="#f1_21" transform="matrix(10.4,0,0,10.4,132.8,264.7)" />
<use xlink:href="#f1_2g" transform="matrix(10.4,0,0,10.4,149.9,264.7)" />
<use xlink:href="#f1_24" transform="matrix(10.4,0,0,10.4,154.3,264.7)" />
<use xlink:href="#f1_21" transform="matrix(10.4,0,0,10.4,163.1,264.7)" />
<use xlink:href="#f1_22" transform="matrix(10.4,0,0,10.4,180.1,264.7)" />
<use xlink:href="#f1_2b" transform="matrix(10.4,0,0,10.4,184.7,264.7)" />
<use xlink:href="#f1_28" transform="matrix(10.4,0,0,10.4,193.5,264.7)" />
<use xlink:href="#f1_28" transform="matrix(10.4,0,0,10.4,197,264.7)" />
<use xlink:href="#f1_2b" transform="matrix(10.4,0,0,10.4,200.5,264.7)" />
<use xlink:href="#f1_2j" transform="matrix(10.4,0,0,10.4,209.3,264.7)" />
<use xlink:href="#f1_25" transform="matrix(10.4,0,0,10.4,220.5,264.7)" />
<use xlink:href="#f1_2a" transform="matrix(10.4,0,0,10.4,223.9,264.7)" />
<use xlink:href="#f1_23" transform="matrix(10.4,0,0,10.4,232.7,264.7)" />
<use xlink:href="#f1_25" transform="matrix(10.4,0,0,10.4,249.8,264.7)" />
<use xlink:href="#f1_2a" transform="matrix(10.4,0,0,10.4,253.3,264.7)" />
<use xlink:href="#f1_2g" transform="matrix(10.4,0,0,10.4,270.3,264.7)" />
<use xlink:href="#f1_24" transform="matrix(10.4,0,0,10.4,274.7,264.7)" />
<use xlink:href="#f1_21" transform="matrix(10.4,0,0,10.4,283.5,264.7)" />
<use xlink:href="#f1_25" transform="matrix(10.4,0,0,10.4,300.6,264.7)" />
<use xlink:href="#f1_2a" transform="matrix(10.4,0,0,10.4,304.1,264.7)" />
<use xlink:href="#f1_1z" transform="matrix(10.4,0,0,10.4,312.9,264.7)" />
<use xlink:href="#f1_2e" transform="matrix(10.4,0,0,10.4,320.9,264.7)" />
<use xlink:href="#f1_21" transform="matrix(10.4,0,0,10.4,326.2,264.7)" />
<use xlink:href="#f1_1x" transform="matrix(10.4,0,0,10.4,335,264.7)" />
<use xlink:href="#f1_2f" transform="matrix(10.4,0,0,10.4,343.8,264.7)" />
<use xlink:href="#f1_25" transform="matrix(10.4,0,0,10.4,351.9,264.7)" />
<use xlink:href="#f1_2a" transform="matrix(10.4,0,0,10.4,355.4,264.7)" />
<use xlink:href="#f1_23" transform="matrix(10.4,0,0,10.4,364.2,264.7)" />
<use xlink:href="#f1_2b" transform="matrix(10.4,0,0,10.4,381.2,264.7)" />
<use xlink:href="#f1_2e" transform="matrix(10.4,0,0,10.4,390,264.7)" />
<use xlink:href="#f1_20" transform="matrix(10.4,0,0,10.4,395.3,264.7)" />
<use xlink:href="#f1_21" transform="matrix(10.4,0,0,10.4,404.1,264.7)" />
<use xlink:href="#f1_2e" transform="matrix(10.4,0,0,10.4,412.9,264.7)" />
<use xlink:href="#f1_2b" transform="matrix(10.4,0,0,10.4,426.5,264.7)" />
<use xlink:href="#f1_22" transform="matrix(10.4,0,0,10.4,435.3,264.7)" />
<use xlink:href="#f1_2c" transform="matrix(10.4,0,0,10.4,448.1,264.7)" />
<use xlink:href="#f1_2e" transform="matrix(10.4,0,0,10.4,456.9,264.7)" />
<use xlink:href="#f1_2b" transform="matrix(10.4,0,0,10.4,462.2,264.7)" />
<use xlink:href="#f1_2c" transform="matrix(10.4,0,0,10.4,471,264.7)" />
<use xlink:href="#f1_21" transform="matrix(10.4,0,0,10.4,479.8,264.7)" />
<use xlink:href="#f1_2e" transform="matrix(10.4,0,0,10.4,488.6,264.7)" />
<use xlink:href="#f1_28" transform="matrix(10.4,0,0,10.4,494,264.7)" />
<use xlink:href="#f1_2l" transform="matrix(10.4,0,0,10.4,497.4,264.7)" />
<use xlink:href="#f1_25" transform="matrix(10.4,0,0,10.4,513.2,264.7)" />
<use xlink:href="#f1_2a" transform="matrix(10.4,0,0,10.4,516.7,264.7)" />
<use xlink:href="#f1_20" transform="matrix(10.4,0,0,10.4,525.5,264.7)" />
<use xlink:href="#f1_25" transform="matrix(10.4,0,0,10.4,534.3,264.7)" />
<use xlink:href="#f1_1z" transform="matrix(10.4,0,0,10.4,537.8,264.7)" />
<use xlink:href="#f1_1x" transform="matrix(10.4,0,0,10.4,545.8,264.7)" />
<use xlink:href="#f1_2g" transform="matrix(10.4,0,0,10.4,554.6,264.7)" />
<use xlink:href="#f1_21" transform="matrix(10.4,0,0,10.4,559,264.7)" />
<use xlink:href="#f1_20" transform="matrix(10.4,0,0,10.4,567.8,264.7)" />
<use xlink:href="#f1_u" transform="matrix(10.4,0,0,10.4,584.9,264.7)" />
<use xlink:href="#f1_c" transform="matrix(10.4,0,0,10.4,85.2,294.6)" />
<use xlink:href="#f1_25" transform="matrix(10.4,0,0,10.4,90.9,294.6)" />
<use xlink:href="#f1_d" transform="matrix(10.4,0,0,10.4,94.7,294.6)" />
<use xlink:href="#f1_1y" transform="matrix(10.4,0,0,10.4,128.4,294.6)" />
<use xlink:href="#f1_2e" transform="matrix(10.4,0,0,10.4,137.2,294.6)" />
<use xlink:href="#f1_2b" transform="matrix(10.4,0,0,10.4,142.5,294.6)" />
<use xlink:href="#f1_29" transform="matrix(10.4,0,0,10.4,151.4,294.6)" />
<use xlink:href="#f1_2b" transform="matrix(10.4,0,0,10.4,164.9,294.6)" />
<use xlink:href="#f1_29" transform="matrix(10.4,0,0,10.4,173.7,294.6)" />
<use xlink:href="#f1_21" transform="matrix(10.4,0,0,10.4,187.3,294.6)" />
<use xlink:href="#f1_2g" transform="matrix(10.4,0,0,10.4,196.1,294.6)" />
<use xlink:href="#f1_24" transform="matrix(10.4,0,0,10.4,200.5,294.6)" />
<use xlink:href="#f1_1x" transform="matrix(10.4,0,0,10.4,209.3,294.6)" />
<use xlink:href="#f1_2a" transform="matrix(10.4,0,0,10.4,218.1,294.6)" />
<use xlink:href="#f1_21" transform="matrix(10.4,0,0,10.4,226.9,294.6)" />
<use xlink:href="#f1_g" transform="matrix(10.4,0,0,10.4,235.7,294.6)" />
<use xlink:href="#f1_1z" transform="matrix(10.4,0,0,10.4,248.5,294.6)" />
<use xlink:href="#f1_24" transform="matrix(10.4,0,0,10.4,256.6,294.6)" />
<use xlink:href="#f1_28" transform="matrix(10.4,0,0,10.4,265.4,294.6)" />
<use xlink:href="#f1_2b" transform="matrix(10.4,0,0,10.4,268.9,294.6)" />
<use xlink:href="#f1_2e" transform="matrix(10.4,0,0,10.4,277.7,294.6)" />
<use xlink:href="#f1_2b" transform="matrix(10.4,0,0,10.4,283,294.6)" />
<use xlink:href="#f1_29" transform="matrix(10.4,0,0,10.4,291.8,294.6)" />
<use xlink:href="#f1_21" transform="matrix(10.4,0,0,10.4,305.3,294.6)" />
<use xlink:href="#f1_2g" transform="matrix(10.4,0,0,10.4,314.1,294.6)" />
<use xlink:href="#f1_24" transform="matrix(10.4,0,0,10.4,318.5,294.6)" />
<use xlink:href="#f1_1x" transform="matrix(10.4,0,0,10.4,327.3,294.6)" />
<use xlink:href="#f1_2a" transform="matrix(10.4,0,0,10.4,336.1,294.6)" />
<use xlink:href="#f1_21" transform="matrix(10.4,0,0,10.4,344.9,294.6)" />
<use xlink:href="#f1_g" transform="matrix(10.4,0,0,10.4,353.7,294.6)" />
<use xlink:href="#f1_20" transform="matrix(10.4,0,0,10.4,366.6,294.6)" />
<use xlink:href="#f1_25" transform="matrix(10.4,0,0,10.4,375.4,294.6)" />
<use xlink:href="#f1_1z" transform="matrix(10.4,0,0,10.4,378.8,294.6)" />
<use xlink:href="#f1_24" transform="matrix(10.4,0,0,10.4,386.9,294.6)" />
<use xlink:href="#f1_28" transform="matrix(10.4,0,0,10.4,395.7,294.6)" />
<use xlink:href="#f1_2b" transform="matrix(10.4,0,0,10.4,399.2,294.6)" />
<use xlink:href="#f1_2e" transform="matrix(10.4,0,0,10.4,408,294.6)" />
<use xlink:href="#f1_2b" transform="matrix(10.4,0,0,10.4,413.3,294.6)" />
<use xlink:href="#f1_29" transform="matrix(10.4,0,0,10.4,422.1,294.6)" />
<use xlink:href="#f1_21" transform="matrix(10.4,0,0,10.4,435.7,294.6)" />
<use xlink:href="#f1_2g" transform="matrix(10.4,0,0,10.4,444.5,294.6)" />
<use xlink:href="#f1_24" transform="matrix(10.4,0,0,10.4,448.9,294.6)" />
<use xlink:href="#f1_1x" transform="matrix(10.4,0,0,10.4,457.7,294.6)" />
<use xlink:href="#f1_2a" transform="matrix(10.4,0,0,10.4,466.5,294.6)" />
<use xlink:href="#f1_21" transform="matrix(10.4,0,0,10.4,475.3,294.6)" />
<use xlink:href="#f1_i" transform="matrix(10.4,0,0,10.4,484.1,294.6)" />
<use xlink:href="#f1_c" transform="matrix(10.4,0,0,10.4,497.1,294.6)" />
<use xlink:href="#f1_19" transform="matrix(10.4,0,0,10.4,502.4,294.6)" />
<use xlink:href="#f1_2a" transform="matrix(10.4,0,0,10.4,506.8,294.6)" />
<use xlink:href="#f1_1z" transform="matrix(10.4,0,0,10.4,515.6,294.6)" />
<use xlink:href="#f1_2e" transform="matrix(10.4,0,0,10.4,523.7,294.6)" />
<use xlink:href="#f1_21" transform="matrix(10.4,0,0,10.4,529,294.6)" />
<use xlink:href="#f1_1x" transform="matrix(10.4,0,0,10.4,537.8,294.6)" />
<use xlink:href="#f1_2f" transform="matrix(10.4,0,0,10.4,546.6,294.6)" />
<use xlink:href="#f1_25" transform="matrix(10.4,0,0,10.4,554.6,294.6)" />
<use xlink:href="#f1_2a" transform="matrix(10.4,0,0,10.4,558.1,294.6)" />
<use xlink:href="#f1_23" transform="matrix(10.4,0,0,10.4,566.9,294.6)" />
<use xlink:href="#f1_2b" transform="matrix(10.4,0,0,10.4,584.2,294.6)" />
<use xlink:href="#f1_2e" transform="matrix(10.4,0,0,10.4,593,294.6)" />
<use xlink:href="#f1_20" transform="matrix(10.4,0,0,10.4,598.3,294.6)" />
<use xlink:href="#f1_21" transform="matrix(10.4,0,0,10.4,607.1,294.6)" />
<use xlink:href="#f1_2e" transform="matrix(10.4,0,0,10.4,615.9,294.6)" />
<use xlink:href="#f1_2b" transform="matrix(10.4,0,0,10.4,128.4,315.5)" />
<use xlink:href="#f1_22" transform="matrix(10.4,0,0,10.4,137.2,315.5)" />
<use xlink:href="#f1_1y" transform="matrix(10.4,0,0,10.4,150.4,315.5)" />
<use xlink:href="#f1_2b" transform="matrix(10.4,0,0,10.4,159.2,315.5)" />
<use xlink:href="#f1_25" transform="matrix(10.4,0,0,10.4,168,315.5)" />
<use xlink:href="#f1_28" transform="matrix(10.4,0,0,10.4,171.5,315.5)" />
<use xlink:href="#f1_25" transform="matrix(10.4,0,0,10.4,175,315.5)" />
<use xlink:href="#f1_2a" transform="matrix(10.4,0,0,10.4,178.5,315.5)" />
<use xlink:href="#f1_23" transform="matrix(10.4,0,0,10.4,187.3,315.5)" />
<use xlink:href="#f1_2c" transform="matrix(10.4,0,0,10.4,204.7,315.5)" />
<use xlink:href="#f1_2b" transform="matrix(10.4,0,0,10.4,213.5,315.5)" />
<use xlink:href="#f1_25" transform="matrix(10.4,0,0,10.4,222.3,315.5)" />
<use xlink:href="#f1_2a" transform="matrix(10.4,0,0,10.4,225.8,315.5)" />
<use xlink:href="#f1_2g" transform="matrix(10.4,0,0,10.4,234.6,315.5)" />
<use xlink:href="#f1_2f" transform="matrix(10.4,0,0,10.4,239,315.5)" />
<use xlink:href="#f1_d" transform="matrix(10.4,0,0,10.4,247,315.5)" />
<use xlink:href="#f1_i" transform="matrix(10.4,0,0,10.4,252.4,315.5)" />
<use xlink:href="#f1_c" transform="matrix(10.4,0,0,10.4,85.2,345.6)" />
<use xlink:href="#f1_25" transform="matrix(10.4,0,0,10.4,90.7,345.6)" />
<use xlink:href="#f1_25" transform="matrix(10.4,0,0,10.4,94.5,345.6)" />
<use xlink:href="#f1_d" transform="matrix(10.4,0,0,10.4,98.2,345.6)" />
<use xlink:href="#f1_l" transform="matrix(10.4,0,0,10.4,128.4,345.6)" />
<use xlink:href="#f1_h" transform="matrix(10.4,0,0,10.4,137.2,345.6)" />
<use xlink:href="#f1_1z" transform="matrix(10.4,0,0,10.4,142.5,345.6)" />
<use xlink:href="#f1_24" transform="matrix(10.4,0,0,10.4,150.6,345.6)" />
<use xlink:href="#f1_28" transform="matrix(10.4,0,0,10.4,159.4,345.6)" />
<use xlink:href="#f1_2b" transform="matrix(10.4,0,0,10.4,162.9,345.6)" />
<use xlink:href="#f1_2e" transform="matrix(10.4,0,0,10.4,171.7,345.6)" />
<use xlink:href="#f1_2b" transform="matrix(10.4,0,0,10.4,177,345.6)" />
<use xlink:href="#f1_2c" transform="matrix(10.4,0,0,10.4,185.8,345.6)" />
<use xlink:href="#f1_2e" transform="matrix(10.4,0,0,10.4,194.6,345.6)" />
<use xlink:href="#f1_2b" transform="matrix(10.4,0,0,10.4,199.9,345.6)" />
<use xlink:href="#f1_2c" transform="matrix(10.4,0,0,10.4,208.7,345.6)" />
<use xlink:href="#f1_1x" transform="matrix(10.4,0,0,10.4,217.5,345.6)" />
<use xlink:href="#f1_2a" transform="matrix(10.4,0,0,10.4,226.3,345.6)" />
<use xlink:href="#f1_21" transform="matrix(10.4,0,0,10.4,235.1,345.6)" />
<use xlink:href="#f1_g" transform="matrix(10.4,0,0,10.4,243.9,345.6)" />
<use xlink:href="#f1_25" transform="matrix(10.4,0,0,10.4,254,345.6)" />
<use xlink:href="#f1_2f" transform="matrix(10.4,0,0,10.4,257.5,345.6)" />
<use xlink:href="#f1_2b" transform="matrix(10.4,0,0,10.4,265.6,345.6)" />
<use xlink:href="#f1_2c" transform="matrix(10.4,0,0,10.4,274.4,345.6)" />
<use xlink:href="#f1_2e" transform="matrix(10.4,0,0,10.4,283.2,345.6)" />
<use xlink:href="#f1_2b" transform="matrix(10.4,0,0,10.4,288.5,345.6)" />
<use xlink:href="#f1_2c" transform="matrix(10.4,0,0,10.4,297.3,345.6)" />
<use xlink:href="#f1_2l" transform="matrix(10.4,0,0,10.4,306.1,345.6)" />
<use xlink:href="#f1_28" transform="matrix(10.4,0,0,10.4,313.6,345.6)" />
<use xlink:href="#f1_1z" transform="matrix(10.4,0,0,10.4,322.8,345.6)" />
<use xlink:href="#f1_24" transform="matrix(10.4,0,0,10.4,330.8,345.6)" />
<use xlink:href="#f1_28" transform="matrix(10.4,0,0,10.4,339.6,345.6)" />
<use xlink:href="#f1_2b" transform="matrix(10.4,0,0,10.4,343.1,345.6)" />
<use xlink:href="#f1_2e" transform="matrix(10.4,0,0,10.4,351.9,345.6)" />
<use xlink:href="#f1_25" transform="matrix(10.4,0,0,10.4,357.2,345.6)" />
<use xlink:href="#f1_20" transform="matrix(10.4,0,0,10.4,360.7,345.6)" />
<use xlink:href="#f1_21" transform="matrix(10.4,0,0,10.4,369.5,345.6)" />
<use xlink:href="#f1_g" transform="matrix(10.4,0,0,10.4,378.3,345.6)" />
<use xlink:href="#f1_l" transform="matrix(10.4,0,0,10.4,388.4,345.6)" />
<use xlink:href="#f1_h" transform="matrix(10.4,0,0,10.4,397.2,345.6)" />
<use xlink:href="#f1_1z" transform="matrix(10.4,0,0,10.4,402.5,345.6)" />
<use xlink:href="#f1_24" transform="matrix(10.4,0,0,10.4,410.6,345.6)" />
<use xlink:href="#f1_28" transform="matrix(10.4,0,0,10.4,419.4,345.6)" />
<use xlink:href="#f1_2b" transform="matrix(10.4,0,0,10.4,422.8,345.6)" />
<use xlink:href="#f1_2e" transform="matrix(10.4,0,0,10.4,431.6,345.6)" />
<use xlink:href="#f1_2b" transform="matrix(10.4,0,0,10.4,437,345.6)" />
<use xlink:href="#f1_1y" transform="matrix(10.4,0,0,10.4,445.8,345.6)" />
<use xlink:href="#f1_2h" transform="matrix(10.4,0,0,10.4,454.6,345.6)" />
<use xlink:href="#f1_2g" transform="matrix(10.4,0,0,10.4,463.4,345.6)" />
<use xlink:href="#f1_1x" transform="matrix(10.4,0,0,10.4,467.8,345.6)" />
<use xlink:href="#f1_2a" transform="matrix(10.4,0,0,10.4,476.6,345.6)" />
<use xlink:href="#f1_21" transform="matrix(10.4,0,0,10.4,485.4,345.6)" />
<use xlink:href="#f1_c" transform="matrix(10.4,0,0,10.4,499.8,345.6)" />
<use xlink:href="#f1_19" transform="matrix(10.4,0,0,10.4,505.1,345.6)" />
<use xlink:href="#f1_2a" transform="matrix(10.4,0,0,10.4,509.6,345.6)" />
<use xlink:href="#f1_1z" transform="matrix(10.4,0,0,10.4,518.4,345.6)" />
<use xlink:href="#f1_2e" transform="matrix(10.4,0,0,10.4,526.4,345.6)" />
<use xlink:href="#f1_21" transform="matrix(10.4,0,0,10.4,531.7,345.6)" />
<use xlink:href="#f1_1x" transform="matrix(10.4,0,0,10.4,540.5,345.6)" />
<use xlink:href="#f1_2f" transform="matrix(10.4,0,0,10.4,549.3,345.6)" />
<use xlink:href="#f1_25" transform="matrix(10.4,0,0,10.4,557.4,345.6)" />
<use xlink:href="#f1_2a" transform="matrix(10.4,0,0,10.4,560.9,345.6)" />
<use xlink:href="#f1_23" transform="matrix(10.4,0,0,10.4,569.7,345.6)" />
<use xlink:href="#f1_2b" transform="matrix(10.4,0,0,10.4,584.2,345.6)" />
<use xlink:href="#f1_2e" transform="matrix(10.4,0,0,10.4,593,345.6)" />
<use xlink:href="#f1_20" transform="matrix(10.4,0,0,10.4,598.3,345.6)" />
<use xlink:href="#f1_21" transform="matrix(10.4,0,0,10.4,607.1,345.6)" />
<use xlink:href="#f1_2e" transform="matrix(10.4,0,0,10.4,615.9,345.6)" />
<use xlink:href="#f1_2b" transform="matrix(10.4,0,0,10.4,128.4,366.5)" />
<use xlink:href="#f1_22" transform="matrix(10.4,0,0,10.4,137.2,366.5)" />
<use xlink:href="#f1_1y" transform="matrix(10.4,0,0,10.4,150.2,366.5)" />
<use xlink:href="#f1_2b" transform="matrix(10.4,0,0,10.4,159,366.5)" />
<use xlink:href="#f1_25" transform="matrix(10.4,0,0,10.4,167.8,366.5)" />
<use xlink:href="#f1_28" transform="matrix(10.4,0,0,10.4,171.3,366.5)" />
<use xlink:href="#f1_25" transform="matrix(10.4,0,0,10.4,174.8,366.5)" />
<use xlink:href="#f1_2a" transform="matrix(10.4,0,0,10.4,178.3,366.5)" />
<use xlink:href="#f1_23" transform="matrix(10.4,0,0,10.4,187.1,366.5)" />
<use xlink:href="#f1_2c" transform="matrix(10.4,0,0,10.4,204.5,366.5)" />
<use xlink:href="#f1_2b" transform="matrix(10.4,0,0,10.4,213.3,366.5)" />
<use xlink:href="#f1_25" transform="matrix(10.4,0,0,10.4,222.1,366.5)" />
<use xlink:href="#f1_2a" transform="matrix(10.4,0,0,10.4,225.6,366.5)" />
<use xlink:href="#f1_2g" transform="matrix(10.4,0,0,10.4,234.4,366.5)" />
<use xlink:href="#f1_d" transform="matrix(10.4,0,0,10.4,238.8,366.5)" />
<use xlink:href="#f1_c" transform="matrix(10.4,0,0,10.4,85.2,396.5)" />
<use xlink:href="#f1_25" transform="matrix(10.4,0,0,10.4,90.7,396.5)" />
<use xlink:href="#f1_25" transform="matrix(10.4,0,0,10.4,94.3,396.5)" />
<use xlink:href="#f1_25" transform="matrix(10.4,0,0,10.4,98,396.5)" />
<use xlink:href="#f1_d" transform="matrix(10.4,0,0,10.4,101.7,396.5)" />
<use xlink:href="#f1_20" transform="matrix(10.4,0,0,10.4,128.4,396.5)" />
<use xlink:href="#f1_25" transform="matrix(10.4,0,0,10.4,137.2,396.5)" />
<use xlink:href="#f1_1z" transform="matrix(10.4,0,0,10.4,140.7,396.5)" />
<use xlink:href="#f1_24" transform="matrix(10.4,0,0,10.4,148.8,396.5)" />
<use xlink:href="#f1_28" transform="matrix(10.4,0,0,10.4,157.6,396.5)" />
<use xlink:href="#f1_2b" transform="matrix(10.4,0,0,10.4,161.1,396.5)" />
<use xlink:href="#f1_2e" transform="matrix(10.4,0,0,10.4,169.9,396.5)" />
<use xlink:href="#f1_2b" transform="matrix(10.4,0,0,10.4,175.2,396.5)" />
<use xlink:href="#f1_29" transform="matrix(10.4,0,0,10.4,184,396.5)" />
<use xlink:href="#f1_21" transform="matrix(10.4,0,0,10.4,197.5,396.5)" />
<use xlink:href="#f1_2g" transform="matrix(10.4,0,0,10.4,206.3,396.5)" />
<use xlink:href="#f1_24" transform="matrix(10.4,0,0,10.4,210.7,396.5)" />
<use xlink:href="#f1_1x" transform="matrix(10.4,0,0,10.4,219.5,396.5)" />
<use xlink:href="#f1_2a" transform="matrix(10.4,0,0,10.4,228.3,396.5)" />
<use xlink:href="#f1_21" transform="matrix(10.4,0,0,10.4,237.1,396.5)" />
<use xlink:href="#f1_g" transform="matrix(10.4,0,0,10.4,245.9,396.5)" />
<use xlink:href="#f1_1z" transform="matrix(10.4,0,0,10.4,258.2,396.5)" />
<use xlink:href="#f1_24" transform="matrix(10.4,0,0,10.4,266.3,396.5)" />
<use xlink:href="#f1_28" transform="matrix(10.4,0,0,10.4,275.1,396.5)" />
<use xlink:href="#f1_2b" transform="matrix(10.4,0,0,10.4,278.6,396.5)" />
<use xlink:href="#f1_2e" transform="matrix(10.4,0,0,10.4,287.4,396.5)" />
<use xlink:href="#f1_2b" transform="matrix(10.4,0,0,10.4,292.7,396.5)" />
<use xlink:href="#f1_22" transform="matrix(10.4,0,0,10.4,301.5,396.5)" />
<use xlink:href="#f1_2b" transform="matrix(10.4,0,0,10.4,306.1,396.5)" />
<use xlink:href="#f1_2e" transform="matrix(10.4,0,0,10.4,314.9,396.5)" />
<use xlink:href="#f1_29" transform="matrix(10.4,0,0,10.4,320.2,396.5)" />
<use xlink:href="#f1_g" transform="matrix(10.4,0,0,10.4,333.8,396.5)" />
<use xlink:href="#f1_1z" transform="matrix(10.4,0,0,10.4,346,396.5)" />
<use xlink:href="#f1_1x" transform="matrix(10.4,0,0,10.4,354.1,396.5)" />
<use xlink:href="#f1_2e" transform="matrix(10.4,0,0,10.4,362.9,396.5)" />
<use xlink:href="#f1_1y" transform="matrix(10.4,0,0,10.4,368.2,396.5)" />
<use xlink:href="#f1_2b" transform="matrix(10.4,0,0,10.4,377,396.5)" />
<use xlink:href="#f1_2a" transform="matrix(10.4,0,0,10.4,385.8,396.5)" />
<use xlink:href="#f1_2g" transform="matrix(10.4,0,0,10.4,402.5,396.5)" />
<use xlink:href="#f1_21" transform="matrix(10.4,0,0,10.4,406.9,396.5)" />
<use xlink:href="#f1_2e" transform="matrix(10.4,0,0,10.4,415.7,396.5)" />
<use xlink:href="#f1_1x" transform="matrix(10.4,0,0,10.4,421,396.5)" />
<use xlink:href="#f1_1z" transform="matrix(10.4,0,0,10.4,429.8,396.5)" />
<use xlink:href="#f1_24" transform="matrix(10.4,0,0,10.4,437.9,396.5)" />
<use xlink:href="#f1_28" transform="matrix(10.4,0,0,10.4,446.7,396.5)" />
<use xlink:href="#f1_2b" transform="matrix(10.4,0,0,10.4,450.2,396.5)" />
<use xlink:href="#f1_2e" transform="matrix(10.4,0,0,10.4,459,396.5)" />
<use xlink:href="#f1_25" transform="matrix(10.4,0,0,10.4,464.3,396.5)" />
<use xlink:href="#f1_20" transform="matrix(10.4,0,0,10.4,467.8,396.5)" />
<use xlink:href="#f1_21" transform="matrix(10.4,0,0,10.4,476.6,396.5)" />
<use xlink:href="#f1_i" transform="matrix(10.4,0,0,10.4,485.4,396.5)" />
<use xlink:href="#f1_c" transform="matrix(10.4,0,0,10.4,497.6,396.5)" />
<use xlink:href="#f1_19" transform="matrix(10.4,0,0,10.4,502.9,396.5)" />
<use xlink:href="#f1_2a" transform="matrix(10.4,0,0,10.4,507.4,396.5)" />
<use xlink:href="#f1_1z" transform="matrix(10.4,0,0,10.4,516.2,396.5)" />
<use xlink:href="#f1_2e" transform="matrix(10.4,0,0,10.4,524.2,396.5)" />
<use xlink:href="#f1_21" transform="matrix(10.4,0,0,10.4,529.5,396.5)" />
<use xlink:href="#f1_1x" transform="matrix(10.4,0,0,10.4,538.3,396.5)" />
<use xlink:href="#f1_2f" transform="matrix(10.4,0,0,10.4,547.1,396.5)" />
<use xlink:href="#f1_25" transform="matrix(10.4,0,0,10.4,555.2,396.5)" />
<use xlink:href="#f1_2a" transform="matrix(10.4,0,0,10.4,558.7,396.5)" />
<use xlink:href="#f1_23" transform="matrix(10.4,0,0,10.4,567.5,396.5)" />
<use xlink:href="#f1_2b" transform="matrix(10.4,0,0,10.4,584.2,396.5)" />
<use xlink:href="#f1_2e" transform="matrix(10.4,0,0,10.4,593,396.5)" />
<use xlink:href="#f1_20" transform="matrix(10.4,0,0,10.4,598.3,396.5)" />
<use xlink:href="#f1_21" transform="matrix(10.4,0,0,10.4,607.1,396.5)" />
<use xlink:href="#f1_2e" transform="matrix(10.4,0,0,10.4,615.9,396.5)" />
<use xlink:href="#f1_2b" transform="matrix(10.4,0,0,10.4,128.4,417.4)" />
<use xlink:href="#f1_22" transform="matrix(10.4,0,0,10.4,137.2,417.4)" />
<use xlink:href="#f1_20" transform="matrix(10.4,0,0,10.4,149.3,417.4)" />
<use xlink:href="#f1_25" transform="matrix(10.4,0,0,10.4,158.1,417.4)" />
<use xlink:href="#f1_2c" transform="matrix(10.4,0,0,10.4,161.6,417.4)" />
<use xlink:href="#f1_2b" transform="matrix(10.4,0,0,10.4,170.4,417.4)" />
<use xlink:href="#f1_28" transform="matrix(10.4,0,0,10.4,179.2,417.4)" />
<use xlink:href="#f1_21" transform="matrix(10.4,0,0,10.4,182.7,417.4)" />
<use xlink:href="#f1_29" transform="matrix(10.4,0,0,10.4,199,417.4)" />
<use xlink:href="#f1_2b" transform="matrix(10.4,0,0,10.4,212.6,417.4)" />
<use xlink:href="#f1_29" transform="matrix(10.4,0,0,10.4,221.4,417.4)" />
<use xlink:href="#f1_21" transform="matrix(10.4,0,0,10.4,234.9,417.4)" />
<use xlink:href="#f1_2a" transform="matrix(10.4,0,0,10.4,243.7,417.4)" />
<use xlink:href="#f1_2g" transform="matrix(10.4,0,0,10.4,252.5,417.4)" />
<use xlink:href="#f1_i" transform="matrix(10.4,0,0,10.4,256.9,417.4)" />
<use xlink:href="#f1_c" transform="matrix(10.4,0,0,10.4,85.2,447.5)" />
<use xlink:href="#f1_25" transform="matrix(10.4,0,0,10.4,90.9,447.5)" />
<use xlink:href="#f1_2i" transform="matrix(10.4,0,0,10.4,94.5,447.5)" />
<use xlink:href="#f1_d" transform="matrix(10.4,0,0,10.4,102.8,447.5)" />
<use xlink:href="#f1_13" transform="matrix(10.4,0,0,10.4,128.4,447.5)" />
<use xlink:href="#f1_18" transform="matrix(10.4,0,0,10.4,140,447.5)" />
<use xlink:href="#f1_n" transform="matrix(7.4,0,0,7.4,151.5,452.8)" />
<use xlink:href="#f1_16" transform="matrix(10.4,0,0,10.4,157.8,447.5)" />
<use xlink:href="#f1_g" transform="matrix(10.4,0,0,10.4,165.7,447.5)" />
<use xlink:href="#f1_13" transform="matrix(10.4,0,0,10.4,175.9,447.5)" />
<use xlink:href="#f1_18" transform="matrix(10.4,0,0,10.4,187.5,447.5)" />
<use xlink:href="#f1_n" transform="matrix(7.4,0,0,7.4,199,452.8)" />
<use xlink:href="#f1_13" transform="matrix(10.4,0,0,10.4,205.3,447.5)" />
<use xlink:href="#f1_28" transform="matrix(10.4,0,0,10.4,216.8,447.5)" />
<use xlink:href="#f1_g" transform="matrix(10.4,0,0,10.4,220.3,447.5)" />
<use xlink:href="#f1_13" transform="matrix(10.4,0,0,10.4,230.7,447.5)" />
<use xlink:href="#f1_18" transform="matrix(10.4,0,0,10.4,242.3,447.5)" />
<use xlink:href="#f1_n" transform="matrix(7.4,0,0,7.4,253.8,452.8)" />
<use xlink:href="#f1_12" transform="matrix(10.4,0,0,10.4,260.1,447.5)" />
<use xlink:href="#f1_2e" transform="matrix(10.4,0,0,10.4,270.7,447.5)" />
<use xlink:href="#f1_g" transform="matrix(10.4,0,0,10.4,275.1,447.5)" />
<use xlink:href="#f1_13" transform="matrix(10.4,0,0,10.4,285.4,447.5)" />
<use xlink:href="#f1_18" transform="matrix(10.4,0,0,10.4,296.9,447.5)" />
<use xlink:href="#f1_n" transform="matrix(7.4,0,0,7.4,308.5,452.8)" />
<use xlink:href="#f1_28" transform="matrix(10.4,0,0,10.4,314.7,447.5)" />
<use xlink:href="#f1_c" transform="matrix(10.4,0,0,10.4,324.2,447.5)" />
<use xlink:href="#f1_19" transform="matrix(10.4,0,0,10.4,329.5,447.5)" />
<use xlink:href="#f1_2a" transform="matrix(10.4,0,0,10.4,334,447.5)" />
<use xlink:href="#f1_1z" transform="matrix(10.4,0,0,10.4,342.8,447.5)" />
<use xlink:href="#f1_2e" transform="matrix(10.4,0,0,10.4,350.8,447.5)" />
<use xlink:href="#f1_21" transform="matrix(10.4,0,0,10.4,356.1,447.5)" />
<use xlink:href="#f1_1x" transform="matrix(10.4,0,0,10.4,364.9,447.5)" />
<use xlink:href="#f1_2f" transform="matrix(10.4,0,0,10.4,373.7,447.5)" />
<use xlink:href="#f1_25" transform="matrix(10.4,0,0,10.4,381.8,447.5)" />
<use xlink:href="#f1_2a" transform="matrix(10.4,0,0,10.4,385.3,447.5)" />
<use xlink:href="#f1_23" transform="matrix(10.4,0,0,10.4,394.1,447.5)" />
<use xlink:href="#f1_2e" transform="matrix(10.4,0,0,10.4,408.7,447.5)" />
<use xlink:href="#f1_21" transform="matrix(10.4,0,0,10.4,414.1,447.5)" />
<use xlink:href="#f1_1x" transform="matrix(10.4,0,0,10.4,422.9,447.5)" />
<use xlink:href="#f1_1z" transform="matrix(10.4,0,0,10.4,431.7,447.5)" />
<use xlink:href="#f1_2g" transform="matrix(10.4,0,0,10.4,439.7,447.5)" />
<use xlink:href="#f1_25" transform="matrix(10.4,0,0,10.4,444.1,447.5)" />
<use xlink:href="#f1_2i" transform="matrix(10.4,0,0,10.4,447.6,447.5)" />
<use xlink:href="#f1_25" transform="matrix(10.4,0,0,10.4,455.5,447.5)" />
<use xlink:href="#f1_2g" transform="matrix(10.4,0,0,10.4,459,447.5)" />
<use xlink:href="#f1_2l" transform="matrix(10.4,0,0,10.4,463.4,447.5)" />
<use xlink:href="#f1_2g" transform="matrix(10.4,0,0,10.4,476.9,447.5)" />
<use xlink:href="#f1_2b" transform="matrix(10.4,0,0,10.4,481.3,447.5)" />
<use xlink:href="#f1_2j" transform="matrix(10.4,0,0,10.4,490.1,447.5)" />
<use xlink:href="#f1_1x" transform="matrix(10.4,0,0,10.4,501.3,447.5)" />
<use xlink:href="#f1_2e" transform="matrix(10.4,0,0,10.4,510.1,447.5)" />
<use xlink:href="#f1_20" transform="matrix(10.4,0,0,10.4,515.4,447.5)" />
<use xlink:href="#f1_2f" transform="matrix(10.4,0,0,10.4,524.2,447.5)" />
<use xlink:href="#f1_2a" transform="matrix(10.4,0,0,10.4,538.3,447.5)" />
<use xlink:href="#f1_2h" transform="matrix(10.4,0,0,10.4,547.1,447.5)" />
<use xlink:href="#f1_1z" transform="matrix(10.4,0,0,10.4,555.9,447.5)" />
<use xlink:href="#f1_28" transform="matrix(10.4,0,0,10.4,564,447.5)" />
<use xlink:href="#f1_21" transform="matrix(10.4,0,0,10.4,567.5,447.5)" />
<use xlink:href="#f1_2b" transform="matrix(10.4,0,0,10.4,576.3,447.5)" />
<use xlink:href="#f1_2c" transform="matrix(10.4,0,0,10.4,585.1,447.5)" />
<use xlink:href="#f1_24" transform="matrix(10.4,0,0,10.4,593.9,447.5)" />
<use xlink:href="#f1_25" transform="matrix(10.4,0,0,10.4,602.7,447.5)" />
<use xlink:href="#f1_28" transform="matrix(10.4,0,0,10.4,606.2,447.5)" />
<use xlink:href="#f1_25" transform="matrix(10.4,0,0,10.4,609.7,447.5)" />
<use xlink:href="#f1_1z" transform="matrix(10.4,0,0,10.4,613.1,447.5)" />
<use xlink:href="#f1_2f" transform="matrix(10.4,0,0,10.4,128.4,468.4)" />
<use xlink:href="#f1_2h" transform="matrix(10.4,0,0,10.4,136.5,468.4)" />
<use xlink:href="#f1_1y" transform="matrix(10.4,0,0,10.4,145.3,468.4)" />
<use xlink:href="#f1_2f" transform="matrix(10.4,0,0,10.4,154.1,468.4)" />
<use xlink:href="#f1_2g" transform="matrix(10.4,0,0,10.4,162.2,468.4)" />
<use xlink:href="#f1_25" transform="matrix(10.4,0,0,10.4,166.6,468.4)" />
<use xlink:href="#f1_2g" transform="matrix(10.4,0,0,10.4,170,468.4)" />
<use xlink:href="#f1_2h" transform="matrix(10.4,0,0,10.4,174.4,468.4)" />
<use xlink:href="#f1_2g" transform="matrix(10.4,0,0,10.4,183.2,468.4)" />
<use xlink:href="#f1_25" transform="matrix(10.4,0,0,10.4,187.6,468.4)" />
<use xlink:href="#f1_2b" transform="matrix(10.4,0,0,10.4,191.1,468.4)" />
<use xlink:href="#f1_2a" transform="matrix(10.4,0,0,10.4,199.9,468.4)" />
<use xlink:href="#f1_1x" transform="matrix(10.4,0,0,10.4,217,468.4)" />
<use xlink:href="#f1_2a" transform="matrix(10.4,0,0,10.4,225.8,468.4)" />
<use xlink:href="#f1_20" transform="matrix(10.4,0,0,10.4,234.6,468.4)" />
<use xlink:href="#f1_25" transform="matrix(10.4,0,0,10.4,251.8,468.4)" />
<use xlink:href="#f1_2a" transform="matrix(10.4,0,0,10.4,255.3,468.4)" />
<use xlink:href="#f1_1z" transform="matrix(10.4,0,0,10.4,264.1,468.4)" />
<use xlink:href="#f1_2e" transform="matrix(10.4,0,0,10.4,272.2,468.4)" />
<use xlink:href="#f1_21" transform="matrix(10.4,0,0,10.4,277.5,468.4)" />
<use xlink:href="#f1_1x" transform="matrix(10.4,0,0,10.4,286.3,468.4)" />
<use xlink:href="#f1_2f" transform="matrix(10.4,0,0,10.4,295.1,468.4)" />
<use xlink:href="#f1_25" transform="matrix(10.4,0,0,10.4,303.1,468.4)" />
<use xlink:href="#f1_2a" transform="matrix(10.4,0,0,10.4,306.6,468.4)" />
<use xlink:href="#f1_23" transform="matrix(10.4,0,0,10.4,315.4,468.4)" />
<use xlink:href="#f1_2b" transform="matrix(10.4,0,0,10.4,332.5,468.4)" />
<use xlink:href="#f1_2e" transform="matrix(10.4,0,0,10.4,341.3,468.4)" />
<use xlink:href="#f1_20" transform="matrix(10.4,0,0,10.4,346.6,468.4)" />
<use xlink:href="#f1_21" transform="matrix(10.4,0,0,10.4,355.4,468.4)" />
<use xlink:href="#f1_2e" transform="matrix(10.4,0,0,10.4,364.2,468.4)" />
<use xlink:href="#f1_2b" transform="matrix(10.4,0,0,10.4,377.9,468.4)" />
<use xlink:href="#f1_22" transform="matrix(10.4,0,0,10.4,386.7,468.4)" />
<use xlink:href="#f1_20" transform="matrix(10.4,0,0,10.4,399.6,468.4)" />
<use xlink:href="#f1_25" transform="matrix(10.4,0,0,10.4,408.4,468.4)" />
<use xlink:href="#f1_2c" transform="matrix(10.4,0,0,10.4,411.8,468.4)" />
<use xlink:href="#f1_2b" transform="matrix(10.4,0,0,10.4,420.6,468.4)" />
<use xlink:href="#f1_28" transform="matrix(10.4,0,0,10.4,429.4,468.4)" />
<use xlink:href="#f1_21" transform="matrix(10.4,0,0,10.4,432.9,468.4)" />
<use xlink:href="#f1_29" transform="matrix(10.4,0,0,10.4,450.2,468.4)" />
<use xlink:href="#f1_2b" transform="matrix(10.4,0,0,10.4,463.7,468.4)" />
<use xlink:href="#f1_29" transform="matrix(10.4,0,0,10.4,472.5,468.4)" />
<use xlink:href="#f1_21" transform="matrix(10.4,0,0,10.4,486.1,468.4)" />
<use xlink:href="#f1_2a" transform="matrix(10.4,0,0,10.4,494.9,468.4)" />
<use xlink:href="#f1_2g" transform="matrix(10.4,0,0,10.4,503.7,468.4)" />
<use xlink:href="#f1_d" transform="matrix(10.4,0,0,10.4,508.1,468.4)" />
<use xlink:href="#f1_c" transform="matrix(10.4,0,0,10.4,85.2,498.5)" />
<use xlink:href="#f1_2i" transform="matrix(10.4,0,0,10.4,90.9,498.5)" />
<use xlink:href="#f1_d" transform="matrix(10.4,0,0,10.4,99.3,498.5)" />
<use xlink:href="#f2_2b" transform="matrix(10.4,0,0,10.4,128.4,498.5)" />
<use xlink:href="#f2_g" transform="matrix(10.4,0,0,10.4,137.2,498.5)" />
<use xlink:href="#f2_29" transform="matrix(10.4,0,0,10.4,141.6,498.5)" />
<use xlink:href="#f2_i" transform="matrix(10.4,0,0,10.4,154.7,498.5)" />
<use xlink:href="#f2_2c" transform="matrix(10.4,0,0,10.4,159.1,498.5)" />
<use xlink:href="#f1_h" transform="matrix(10.4,0,0,10.4,167.9,498.5)" />
<use xlink:href="#f1_20" transform="matrix(10.4,0,0,10.4,173.2,498.5)" />
<use xlink:href="#f1_25" transform="matrix(10.4,0,0,10.4,182,498.5)" />
<use xlink:href="#f1_1z" transform="matrix(10.4,0,0,10.4,185.5,498.5)" />
<use xlink:href="#f1_24" transform="matrix(10.4,0,0,10.4,193.5,498.5)" />
<use xlink:href="#f1_28" transform="matrix(10.4,0,0,10.4,202.3,498.5)" />
<use xlink:href="#f1_2b" transform="matrix(10.4,0,0,10.4,205.8,498.5)" />
<use xlink:href="#f1_2e" transform="matrix(10.4,0,0,10.4,214.6,498.5)" />
<use xlink:href="#f1_2b" transform="matrix(10.4,0,0,10.4,219.9,498.5)" />
<use xlink:href="#f1_1y" transform="matrix(10.4,0,0,10.4,228.7,498.5)" />
<use xlink:href="#f1_21" transform="matrix(10.4,0,0,10.4,237.5,498.5)" />
<use xlink:href="#f1_2a" transform="matrix(10.4,0,0,10.4,246.3,498.5)" />
<use xlink:href="#f1_2m" transform="matrix(10.4,0,0,10.4,255.1,498.5)" />
<use xlink:href="#f1_21" transform="matrix(10.4,0,0,10.4,262.8,498.5)" />
<use xlink:href="#f1_2a" transform="matrix(10.4,0,0,10.4,271.8,498.5)" />
<use xlink:href="#f1_21" transform="matrix(10.4,0,0,10.4,280.6,498.5)" />
<use xlink:href="#f1_2f" transform="matrix(10.4,0,0,10.4,289.4,498.5)" />
<use xlink:href="#f1_c" transform="matrix(10.4,0,0,10.4,306.3,498.5)" />
<use xlink:href="#f1_19" transform="matrix(10.4,0,0,10.4,311.6,498.5)" />
<use xlink:href="#f1_2a" transform="matrix(10.4,0,0,10.4,316,498.5)" />
<use xlink:href="#f1_1z" transform="matrix(10.4,0,0,10.4,324.8,498.5)" />
<use xlink:href="#f1_2e" transform="matrix(10.4,0,0,10.4,332.8,498.5)" />
<use xlink:href="#f1_21" transform="matrix(10.4,0,0,10.4,338.1,498.5)" />
<use xlink:href="#f1_1x" transform="matrix(10.4,0,0,10.4,347,498.5)" />
<use xlink:href="#f1_2f" transform="matrix(10.4,0,0,10.4,355.8,498.5)" />
<use xlink:href="#f1_25" transform="matrix(10.4,0,0,10.4,363.8,498.5)" />
<use xlink:href="#f1_2a" transform="matrix(10.4,0,0,10.4,367.3,498.5)" />
<use xlink:href="#f1_23" transform="matrix(10.4,0,0,10.4,376.1,498.5)" />
<use xlink:href="#f1_2b" transform="matrix(10.4,0,0,10.4,393.7,498.5)" />
<use xlink:href="#f1_2e" transform="matrix(10.4,0,0,10.4,402.5,498.5)" />
<use xlink:href="#f1_20" transform="matrix(10.4,0,0,10.4,407.8,498.5)" />
<use xlink:href="#f1_21" transform="matrix(10.4,0,0,10.4,416.6,498.5)" />
<use xlink:href="#f1_2e" transform="matrix(10.4,0,0,10.4,425.4,498.5)" />
<use xlink:href="#f1_2b" transform="matrix(10.4,0,0,10.4,439.5,498.5)" />
<use xlink:href="#f1_22" transform="matrix(10.4,0,0,10.4,448.3,498.5)" />
<use xlink:href="#f1_29" transform="matrix(10.4,0,0,10.4,461.7,498.5)" />
<use xlink:href="#f1_21" transform="matrix(10.4,0,0,10.4,475.3,498.5)" />
<use xlink:href="#f1_28" transform="matrix(10.4,0,0,10.4,484.3,498.5)" />
<use xlink:href="#f1_2g" transform="matrix(10.4,0,0,10.4,487.7,498.5)" />
<use xlink:href="#f1_25" transform="matrix(10.4,0,0,10.4,492.1,498.5)" />
<use xlink:href="#f1_2a" transform="matrix(10.4,0,0,10.4,495.6,498.5)" />
<use xlink:href="#f1_23" transform="matrix(10.4,0,0,10.4,504.4,498.5)" />
<use xlink:href="#f1_2c" transform="matrix(10.4,0,0,10.4,522,498.5)" />
<use xlink:href="#f1_2b" transform="matrix(10.4,0,0,10.4,530.8,498.5)" />
<use xlink:href="#f1_25" transform="matrix(10.4,0,0,10.4,539.6,498.5)" />
<use xlink:href="#f1_2a" transform="matrix(10.4,0,0,10.4,543.1,498.5)" />
<use xlink:href="#f1_2g" transform="matrix(10.4,0,0,10.4,551.9,498.5)" />
<use xlink:href="#f1_2f" transform="matrix(10.4,0,0,10.4,556.3,498.5)" />
<use xlink:href="#f1_d" transform="matrix(10.4,0,0,10.4,564.4,498.5)" />
<use xlink:href="#f1_i" transform="matrix(10.4,0,0,10.4,569.7,498.5)" />
<use xlink:href="#f1_o" transform="matrix(10.4,0,0,10.4,41.9,528.5)" />
<use xlink:href="#f1_i" transform="matrix(10.4,0,0,10.4,51.3,528.5)" />
<use xlink:href="#f1_13" transform="matrix(10.4,0,0,10.4,85.2,528.5)" />
<use xlink:href="#f1_2b" transform="matrix(10.4,0,0,10.4,96.7,528.5)" />
<use xlink:href="#f1_29" transform="matrix(10.4,0,0,10.4,105.5,528.5)" />
<use xlink:href="#f1_2c" transform="matrix(10.4,0,0,10.4,119.1,528.5)" />
<use xlink:href="#f1_28" transform="matrix(10.4,0,0,10.4,127.9,528.5)" />
<use xlink:href="#f1_21" transform="matrix(10.4,0,0,10.4,131.4,528.5)" />
<use xlink:href="#f1_2g" transform="matrix(10.4,0,0,10.4,140.2,528.5)" />
<use xlink:href="#f1_21" transform="matrix(10.4,0,0,10.4,144.6,528.5)" />
<use xlink:href="#f1_2g" transform="matrix(10.4,0,0,10.4,161.2,528.5)" />
<use xlink:href="#f1_24" transform="matrix(10.4,0,0,10.4,165.6,528.5)" />
<use xlink:href="#f1_21" transform="matrix(10.4,0,0,10.4,174.4,528.5)" />
<use xlink:href="#f1_22" transform="matrix(10.4,0,0,10.4,191.1,528.5)" />
<use xlink:href="#f1_2b" transform="matrix(10.4,0,0,10.4,195.7,528.5)" />
<use xlink:href="#f1_28" transform="matrix(10.4,0,0,10.4,204.5,528.5)" />
<use xlink:href="#f1_28" transform="matrix(10.4,0,0,10.4,208,528.5)" />
<use xlink:href="#f1_2b" transform="matrix(10.4,0,0,10.4,211.5,528.5)" />
<use xlink:href="#f1_2j" transform="matrix(10.4,0,0,10.4,220.3,528.5)" />
<use xlink:href="#f1_25" transform="matrix(10.4,0,0,10.4,231.5,528.5)" />
<use xlink:href="#f1_2a" transform="matrix(10.4,0,0,10.4,234.9,528.5)" />
<use xlink:href="#f1_23" transform="matrix(10.4,0,0,10.4,243.7,528.5)" />
<use xlink:href="#f1_2e" transform="matrix(10.4,0,0,10.4,260.4,528.5)" />
<use xlink:href="#f1_21" transform="matrix(10.4,0,0,10.4,265.7,528.5)" />
<use xlink:href="#f1_1x" transform="matrix(10.4,0,0,10.4,274.5,528.5)" />
<use xlink:href="#f1_1z" transform="matrix(10.4,0,0,10.4,283.3,528.5)" />
<use xlink:href="#f1_2g" transform="matrix(10.4,0,0,10.4,291.4,528.5)" />
<use xlink:href="#f1_25" transform="matrix(10.4,0,0,10.4,295.8,528.5)" />
<use xlink:href="#f1_2b" transform="matrix(10.4,0,0,10.4,299.3,528.5)" />
<use xlink:href="#f1_2a" transform="matrix(10.4,0,0,10.4,308.1,528.5)" />
<use xlink:href="#f1_2f" transform="matrix(10.4,0,0,10.4,316.9,528.5)" />
<use xlink:href="#f1_u" transform="matrix(10.4,0,0,10.4,332.8,528.5)" />
<use xlink:href="#f1_c" transform="matrix(10.4,0,0,10.4,85.2,576.4)" />
<use xlink:href="#f1_25" transform="matrix(10.4,0,0,10.4,90.9,576.4)" />
<use xlink:href="#f1_d" transform="matrix(10.4,0,0,10.4,94.7,576.4)" />
</g>
<image preserveAspectRatio="none" x="128" y="543" width="244" height="25" xlink:href="img/1.png" />
<image preserveAspectRatio="none" x="128" y="568" width="244" height="25" xlink:href="img/2.png" />
<g fill="#000000" >
<use xlink:href="#f1_c" transform="matrix(10.4,0,0,10.4,85.2,627.5)" />
<use xlink:href="#f1_25" transform="matrix(10.4,0,0,10.4,90.7,627.5)" />
<use xlink:href="#f1_25" transform="matrix(10.4,0,0,10.4,94.5,627.5)" />
<use xlink:href="#f1_d" transform="matrix(10.4,0,0,10.4,98.2,627.5)" />
<use xlink:href="#f1_13" transform="matrix(10.4,0,0,10.4,128.4,627.5)" />
<use xlink:href="#f1_18" transform="matrix(10.4,0,0,10.4,140,627.5)" />
<use xlink:href="#f1_n" transform="matrix(7.4,0,0,7.4,151.5,632.9)" />
<use xlink:href="#f1_1jz" transform="matrix(10.4,0,0,10.4,164.4,627.5)" />
<use xlink:href="#f1_13" transform="matrix(10.4,0,0,10.4,179.9,627.5)" />
<use xlink:href="#f1_18" transform="matrix(10.4,0,0,10.4,191.5,627.5)" />
<use xlink:href="#f1_m" transform="matrix(7.4,0,0,7.4,203.1,632.9)" />
<use xlink:href="#f1_1jz" transform="matrix(10.4,0,0,10.4,216.1,627.5)" />
<use xlink:href="#f1_13" transform="matrix(10.4,0,0,10.4,231.6,627.5)" />
<use xlink:href="#f1_28" transform="matrix(10.4,0,0,10.4,243.2,627.5)" />
<use xlink:href="#f1_f" transform="matrix(10.4,0,0,10.4,253.5,627.5)" />
<use xlink:href="#f1_11" transform="matrix(10.4,0,0,10.4,268.7,627.5)" />
<use xlink:href="#f1_23" transform="matrix(10.4,0,0,10.4,279.3,627.5)" />
<use xlink:href="#f1_1e" transform="matrix(10.4,0,0,10.4,294.9,627.5)" />
<use xlink:href="#f1_1f" transform="matrix(10.4,0,0,10.4,306.4,627.5)" />
<use xlink:href="#f1_m" transform="matrix(7.4,0,0,7.4,318.9,632.9)" />
</g>
<g clip-path="url(#c0_71)">
<g fill="#000000" >
<use xlink:href="#f3_1mh" transform="matrix(10.7,0,0,10.7,358,625.5)" />
</g>
</g>
<image preserveAspectRatio="none" x="85" y="671" width="326" height="23" xlink:href="img/3.png" />
<image preserveAspectRatio="none" x="85" y="694" width="326" height="22" xlink:href="img/4.png" />
<image preserveAspectRatio="none" x="85" y="716" width="326" height="23" xlink:href="img/5.png" />
<image preserveAspectRatio="none" x="85" y="738" width="326" height="23" xlink:href="img/6.png" />
<image preserveAspectRatio="none" x="85" y="761" width="326" height="22" xlink:href="img/7.png" />
<image preserveAspectRatio="none" x="85" y="783" width="326" height="23" xlink:href="img/8.png" />
<image preserveAspectRatio="none" x="85" y="805" width="326" height="23" xlink:href="img/9.png" />
<image preserveAspectRatio="none" x="85" y="828" width="326" height="22" xlink:href="img/10.png" />
<image preserveAspectRatio="none" x="85" y="850" width="326" height="23" xlink:href="img/11.png" />
<image preserveAspectRatio="none" x="85" y="872" width="326" height="23" xlink:href="img/12.png" />
<g fill="#000000" >
<use xlink:href="#f4_m" transform="matrix(12,0,0,12,665.7,1032.4)" />
</g>
<g fill="#0080FF" fill-opacity="0.5" >
<use xlink:href="#f0_1c" transform="matrix(38.6,0,0,38.6,185.2,1050.5)" />
<use xlink:href="#f0_21" transform="matrix(38.6,0,0,38.6,218,1050.5)" />
<use xlink:href="#f0_1x" transform="matrix(38.6,0,0,38.6,250.8,1050.5)" />
<use xlink:href="#f0_2e" transform="matrix(38.6,0,0,38.6,283.7,1050.5)" />
<use xlink:href="#f0_2a" transform="matrix(38.6,0,0,38.6,303.3,1050.5)" />
<use xlink:href="#f0_17" transform="matrix(38.6,0,0,38.6,336.1,1050.5)" />
<use xlink:href="#f0_2h" transform="matrix(38.6,0,0,38.6,382,1050.5)" />
<use xlink:href="#f0_25" transform="matrix(38.6,0,0,38.6,414.8,1050.5)" />
<use xlink:href="#f0_20" transform="matrix(38.6,0,0,38.6,427.9,1050.5)" />
<use xlink:href="#f0_21" transform="matrix(38.6,0,0,38.6,460.7,1050.5)" />
<use xlink:href="#f0_i" transform="matrix(38.6,0,0,38.6,493.5,1050.5)" />
<use xlink:href="#f0_25" transform="matrix(38.6,0,0,38.6,509.9,1050.5)" />
<use xlink:href="#f0_2a" transform="matrix(38.6,0,0,38.6,523,1050.5)" />
</g>
<defs>
<path d="M593,101c0,0,182,0,279,112c0,0,98,113,98,318c0,0,0,196,-98,308c0,0,-98,112,-277,112c0,0,-181,0,-279,-110c0,0,-99,-111,-99,-310c0,0,0,-198,100,-314c0,0,99,-116,276,-116Zm0,-115c0,0,-162,0,-279,65c0,0,-118,66,-180,190c0,0,-62,124,-62,290c0,0,0,252,138,394c0,0,138,142,385,142c0,0,160,0,278,-64c0,0,118,-64,180,-185c0,0,62,-122,62,-287c0,0,0,-165,-63,-289c0,0,-63,-124,-181,-190c0,0,-118,-66,-278,-66Z" 
id="f0_1f"
transform="scale(0.001,-0.001)" />

<path d="M106,0V635c0,0,0,141,-5,173H228c0,0,1,-4,2,-21c0,0,1,-16,2,-37c0,0,1,-22,2,-81h2c0,0,47,84,108,119c0,0,60,34,151,34c0,0,132,0,194,-66c0,0,61,-66,61,-218V0H615V512c0,0,0,80,-15,124c0,0,-16,44,-50,63c0,0,-35,20,-101,20c0,0,-97,0,-153,-67c0,0,-56,-66,-56,-184V0Z" 
id="f0_2a"
transform="scale(0.001,-0.001)" />

<path d="M103,0V1107H237V0Z" 
id="f0_28"
transform="scale(0.001,-0.001)" />

<path d="M102,0V808H236V0Zm0,979v128H236V979Z" 
id="f0_25"
transform="scale(0.001,-0.001)" />

<path d="M643,478c0,0,-11,128,-65,187c0,0,-54,59,-154,59c0,0,-98,0,-155,-66c0,0,-57,-65,-62,-180ZM431,-14c0,0,-179,0,-272,106c0,0,-94,107,-94,317c0,0,0,200,94,307c0,0,93,106,267,106c0,0,356,0,356,-429V375H206c0,0,0,-138,57,-213c0,0,58,-75,168,-75c0,0,87,0,140,35c0,0,53,35,71,88L760,177c0,0,-72,-191,-329,-191Z" 
id="f0_21"
transform="scale(0.001,-0.001)" />

<path d="M17,0L304,415L31,808H179L380,493L580,808H730L457,417L747,0H598L380,331L162,0Z" 
id="f0_2k"
transform="scale(0.001,-0.001)" />

<path d="M339,87c0,0,74,0,132,34c0,0,57,33,90,91c0,0,34,59,34,121v66L448,396c0,0,-95,-2,-144,-19c0,0,-49,-18,-75,-55c0,0,-26,-38,-26,-98c0,0,0,-65,35,-101c0,0,36,-36,101,-36ZM309,-14c0,0,-122,0,-183,64c0,0,-61,64,-61,176c0,0,0,125,82,192c0,0,83,67,266,72l182,3v44c0,0,0,98,-42,141c0,0,-42,43,-132,43c0,0,-90,0,-131,-31c0,0,-41,-31,-49,-98L101,604c0,0,34,218,323,218c0,0,153,0,229,-70c0,0,77,-69,77,-202V202c0,0,0,-59,16,-90c0,0,16,-30,60,-30c0,0,19,0,44,5V4C850,4,799,-7,746,-7c0,0,-75,0,-109,38c0,0,-33,40,-38,124h-4C595,155,543,62,475,24c0,0,-68,-38,-166,-38Z" 
id="f0_1x"
transform="scale(0.001,-0.001)" />

<path d="M106,0V635c0,0,0,141,-5,173H228c0,0,1,-4,2,-21c0,0,1,-16,2,-37c0,0,1,-22,2,-81h2c0,0,44,86,100,120c0,0,56,33,136,33c0,0,92,0,145,-36c0,0,54,-37,75,-117h2c0,0,42,82,101,117c0,0,59,36,143,36c0,0,123,0,178,-66c0,0,56,-67,56,-218V0H1039V512c0,0,0,117,-32,162c0,0,-32,45,-116,45c0,0,-88,0,-136,-66c0,0,-49,-65,-49,-185V0H573V512c0,0,0,117,-32,162c0,0,-32,45,-116,45c0,0,-86,0,-136,-66c0,0,-50,-66,-50,-185V0Z" 
id="f0_29"
transform="scale(0.001,-0.001)" />

<path d="M453,84c0,0,100,0,146,74c0,0,46,73,46,247c0,0,0,169,-46,241c0,0,-45,73,-145,73c0,0,-80,0,-125,-34c0,0,-45,-34,-68,-105c0,0,-24,-71,-24,-186c0,0,0,-159,51,-234c0,0,51,-76,165,-76ZM103,-316V643c0,0,0,124,-5,165H228c0,0,1,-3,3,-22c0,0,1,-18,3,-56c0,0,2,-38,2,-52h3c0,0,36,75,94,110c0,0,59,34,156,34c0,0,149,0,223,-100c0,0,74,-100,74,-314c0,0,0,-422,-297,-422c0,0,-187,0,-251,140h-4c0,0,3,-6,3,-126V-316Z" 
id="f0_2c"
transform="scale(0.001,-0.001)" />

<path d="M420,84c0,0,121,0,173,78c0,0,52,77,52,243c0,0,0,167,-50,243c0,0,-50,76,-167,76c0,0,-118,0,-170,-78c0,0,-53,-77,-53,-241c0,0,0,-160,52,-241c0,0,52,-80,163,-80Zm1,-98c0,0,-176,0,-267,107c0,0,-90,108,-90,312c0,0,0,417,362,417c0,0,185,0,272,-102c0,0,88,-101,88,-315c0,0,0,-212,-94,-316C692,89,599,-14,421,-14Z" 
id="f0_2b"
transform="scale(0.001,-0.001)" />

<path d="M278,-11c0,0,-162,0,-162,182V710H23v98h99l39,181h90V808H400V710H251V200c0,0,0,-58,19,-82c0,0,19,-23,66,-23c0,0,27,0,77,10V6c0,0,-66,-17,-135,-17Z" 
id="f0_2g"
transform="scale(0.001,-0.001)" />

<path d="M77,0V95c0,0,38,87,93,154c0,0,55,67,115,121c0,0,60,54,120,100c0,0,59,46,107,93c0,0,47,46,77,97c0,0,29,50,29,114c0,0,0,87,-50,135c0,0,-51,47,-141,47c0,0,-86,0,-142,-46c0,0,-55,-47,-65,-131L83,791c0,0,15,126,107,201c0,0,92,75,237,75c0,0,159,0,244,-75c0,0,85,-75,85,-213c0,0,0,-61,-28,-122c0,0,-28,-60,-83,-120c0,0,-55,-61,-211,-188c0,0,-86,-70,-136,-126c0,0,-51,-56,-73,-109H773V0Z" 
id="f1_m"
transform="scale(0.001,-0.001)" />

<path d="M140,0V163H285V0Z" 
id="f1_i"
transform="scale(0.001,-0.001)" />

<path d="M316,0L7,1051H155L344,383c0,0,33,-125,62,-258c0,0,18,82,41,179c0,0,24,97,207,747H791L974,397c0,0,41,-160,65,-272l7,26c0,0,20,86,33,140c0,0,12,54,209,760h149L1127,0H957L775,668c0,0,-18,62,-52,224c0,0,-20,-86,-33,-145C690,747,677,689,486,0Z" 
id="f1_1n"
transform="scale(0.001,-0.001)" />

<path d="M106,0V620c0,0,0,85,-5,188H228c0,0,6,-138,6,-165h3c0,0,32,103,74,141c0,0,42,38,118,38c0,0,27,0,54,-7V692c0,0,-26,7,-71,7c0,0,-84,0,-128,-72c0,0,-44,-72,-44,-206V0Z" 
id="f1_2e"
transform="scale(0.001,-0.001)" />

<path d="M102,0V808H236V0Zm0,979v128H236V979Z" 
id="f1_25"
transform="scale(0.001,-0.001)" />

<path d="M278,-11c0,0,-162,0,-162,182V710H23v98h99l39,181h90V808H400V710H251V200c0,0,0,-58,19,-82c0,0,19,-23,66,-23c0,0,27,0,77,10V6c0,0,-66,-17,-135,-17Z" 
id="f1_2g"
transform="scale(0.001,-0.001)" />

<path d="M643,478c0,0,-11,128,-65,187c0,0,-54,59,-154,59c0,0,-98,0,-155,-66c0,0,-57,-65,-62,-180ZM431,-14c0,0,-179,0,-272,106c0,0,-94,107,-94,317c0,0,0,200,94,307c0,0,93,106,267,106c0,0,356,0,356,-429V375H206c0,0,0,-138,57,-213c0,0,58,-75,168,-75c0,0,87,0,140,35c0,0,53,35,71,88L760,177c0,0,-72,-191,-329,-191Z" 
id="f1_21"
transform="scale(0.001,-0.001)" />

<path d="M615,0V512c0,0,0,85,-15,126c0,0,-16,42,-52,61c0,0,-36,20,-99,20c0,0,-95,0,-152,-66c0,0,-57,-66,-57,-177V0H106V1107H240V819c0,0,0,-45,-2,-94c0,0,-3,-48,-4,-56h2c0,0,44,79,105,116c0,0,60,37,154,37c0,0,131,0,193,-65c0,0,62,-65,62,-219V0Z" 
id="f1_24"
transform="scale(0.001,-0.001)" />

<path d="M381,-14c0,0,-150,0,-232,49C149,35,67,85,43,190l118,23c0,0,17,-65,71,-96c0,0,54,-30,149,-30c0,0,102,0,150,31c0,0,47,32,47,95c0,0,0,47,-33,77c0,0,-33,30,-106,49l-96,26c0,0,-115,30,-164,58c0,0,-49,29,-77,70c0,0,-27,41,-27,101c0,0,0,110,78,168c0,0,79,57,230,57c0,0,133,0,212,-47c0,0,79,-47,100,-150L574,607c0,0,-12,53,-60,82c0,0,-49,29,-131,29c0,0,-91,0,-135,-28c0,0,-43,-27,-43,-83c0,0,0,-34,18,-57c0,0,18,-22,53,-38c0,0,35,-15,148,-43c0,0,106,-27,153,-50c0,0,47,-22,75,-50c0,0,27,-27,42,-64c0,0,15,-36,15,-82c0,0,0,-114,-86,-176c0,0,-87,-61,-242,-61Z" 
id="f1_2f"
transform="scale(0.001,-0.001)" />

<path d="M355,-14c0,0,-133,0,-194,65c0,0,-62,66,-62,219V808H234V296c0,0,0,-80,16,-124c0,0,16,-44,50,-64c0,0,34,-19,101,-19c0,0,97,0,153,66c0,0,55,67,55,185V808H744V172c0,0,0,-141,4,-172H621c0,0,0,4,-1,20c0,0,-1,17,-2,38c0,0,-1,21,-3,80h-2C613,138,567,55,506,20c0,0,-61,-34,-151,-34Z" 
id="f1_2h"
transform="scale(0.001,-0.001)" />

<path d="M413,-14c0,0,-170,0,-259,106c0,0,-89,107,-89,313c0,0,0,203,89,310c0,0,90,107,257,107c0,0,124,0,206,-64c0,0,81,-64,102,-177L581,571c0,0,-10,67,-53,106c0,0,-42,40,-121,40c0,0,-106,0,-154,-71c0,0,-48,-71,-48,-239c0,0,0,-161,51,-238c0,0,51,-78,153,-78c0,0,71,0,120,39c0,0,48,39,59,119l136,-9C724,240,708,124,624,55c0,0,-83,-69,-211,-69Z" 
id="f1_1z"
transform="scale(0.001,-0.001)" />

<path d="M420,84c0,0,121,0,173,78c0,0,52,77,52,243c0,0,0,167,-50,243c0,0,-50,76,-167,76c0,0,-118,0,-170,-78c0,0,-53,-77,-53,-241c0,0,0,-160,52,-241c0,0,52,-80,163,-80Zm1,-98c0,0,-176,0,-267,107c0,0,-90,108,-90,312c0,0,0,417,362,417c0,0,185,0,272,-102c0,0,88,-101,88,-315c0,0,0,-212,-94,-316C692,89,599,-14,421,-14Z" 
id="f1_2b"
transform="scale(0.001,-0.001)" />

<path d="M135,0V710H22v98H135v91c0,0,0,110,49,158c0,0,48,49,148,49c0,0,56,0,95,-9V994c0,0,-34,6,-60,6c0,0,-51,0,-75,-26c0,0,-23,-26,-23,-94V808H427V710H269V0Z" 
id="f1_22"
transform="scale(0.001,-0.001)" />

<path d="M103,0V1107H237V0Z" 
id="f1_28"
transform="scale(0.001,-0.001)" />

<path d="M224,0L-1,808H131L267,259c0,0,5,-18,32,-147l13,55L480,808H624L765,253L800,112l23,103L976,808h131L876,0H720L579,571L552,697c0,0,-7,-33,-21,-96C531,601,517,537,379,0Z" 
id="f1_2j"
transform="scale(0.001,-0.001)" />

<path d="M106,0V635c0,0,0,141,-5,173H228c0,0,1,-4,2,-21c0,0,1,-16,2,-37c0,0,1,-22,2,-81h2c0,0,47,84,108,119c0,0,60,34,151,34c0,0,132,0,194,-66c0,0,61,-66,61,-218V0H615V512c0,0,0,80,-15,124c0,0,-16,44,-50,63c0,0,-35,20,-101,20c0,0,-97,0,-153,-67c0,0,-56,-66,-56,-184V0Z" 
id="f1_2a"
transform="scale(0.001,-0.001)" />

<path d="M398,93c0,0,63,0,112,37c0,0,49,38,76,107c0,0,27,70,27,166c0,0,0,99,-27,170c0,0,-27,71,-75,109c0,0,-49,38,-111,38c0,0,-103,0,-150,-75c0,0,-47,-75,-47,-242c0,0,0,-165,44,-238c0,0,44,-72,151,-72Zm11,-409c0,0,-132,0,-211,52c0,0,-78,52,-100,147l135,20c0,0,13,-56,59,-87c0,0,46,-30,121,-30c0,0,200,0,200,234V150h-1C612,150,574,72,507,33C507,33,441,-5,352,-5c0,0,-148,0,-218,98c0,0,-70,98,-70,309c0,0,0,214,75,316c0,0,75,101,228,101c0,0,86,0,149,-39c0,0,63,-39,97,-111h2c0,0,0,22,3,78c0,0,3,55,6,61H751c0,0,-4,-41,-4,-167V23c0,0,0,-339,-338,-339Z" 
id="f1_23"
transform="scale(0.001,-0.001)" />

<path d="M339,87c0,0,74,0,132,34c0,0,57,33,90,91c0,0,34,59,34,121v66L448,396c0,0,-95,-2,-144,-19c0,0,-49,-18,-75,-55c0,0,-26,-38,-26,-98c0,0,0,-65,35,-101c0,0,36,-36,101,-36ZM309,-14c0,0,-122,0,-183,64c0,0,-61,64,-61,176c0,0,0,125,82,192c0,0,83,67,266,72l182,3v44c0,0,0,98,-42,141c0,0,-42,43,-132,43c0,0,-90,0,-131,-31c0,0,-41,-31,-49,-98L101,604c0,0,34,218,323,218c0,0,153,0,229,-70c0,0,77,-69,77,-202V202c0,0,0,-59,16,-90c0,0,16,-30,60,-30c0,0,19,0,44,5V4C850,4,799,-7,746,-7c0,0,-75,0,-109,38c0,0,-33,40,-38,124h-4C595,155,543,62,475,24c0,0,-68,-38,-166,-38Z" 
id="f1_1x"
transform="scale(0.001,-0.001)" />

<path d="M106,0V635c0,0,0,141,-5,173H228c0,0,1,-4,2,-21c0,0,1,-16,2,-37c0,0,1,-22,2,-81h2c0,0,44,86,100,120c0,0,56,33,136,33c0,0,92,0,145,-36c0,0,54,-37,75,-117h2c0,0,42,82,101,117c0,0,59,36,143,36c0,0,123,0,178,-66c0,0,56,-67,56,-218V0H1039V512c0,0,0,117,-32,162c0,0,-32,45,-116,45c0,0,-88,0,-136,-66c0,0,-49,-65,-49,-185V0H573V512c0,0,0,117,-32,162c0,0,-32,45,-116,45c0,0,-86,0,-136,-66c0,0,-50,-66,-50,-185V0Z" 
id="f1_29"
transform="scale(0.001,-0.001)" />

<path d="M453,84c0,0,100,0,146,74c0,0,46,73,46,247c0,0,0,169,-46,241c0,0,-45,73,-145,73c0,0,-80,0,-125,-34c0,0,-45,-34,-68,-105c0,0,-24,-71,-24,-186c0,0,0,-159,51,-234c0,0,51,-76,165,-76ZM103,-316V643c0,0,0,124,-5,165H228c0,0,1,-3,3,-22c0,0,1,-18,3,-56c0,0,2,-38,2,-52h3c0,0,36,75,94,110c0,0,59,34,156,34c0,0,149,0,223,-100c0,0,74,-100,74,-314c0,0,0,-422,-297,-422c0,0,-187,0,-251,140h-4c0,0,3,-6,3,-126V-316Z" 
id="f1_2c"
transform="scale(0.001,-0.001)" />

<path d="M395,89c0,0,115,0,166,79c0,0,51,79,51,246c0,0,0,160,-51,235c0,0,-51,75,-164,75c0,0,-102,0,-147,-75c0,0,-45,-75,-45,-244c0,0,0,-170,45,-243c0,0,45,-73,145,-73ZM361,-14c0,0,-153,0,-225,102c0,0,-72,103,-72,312c0,0,0,422,297,422c0,0,92,0,153,-33c0,0,61,-34,98,-107h2l-2,90v335H747V166c0,0,0,-126,4,-166H623c0,0,-2,12,-5,55c0,0,-3,44,-3,75h-3c0,0,-37,-78,-98,-111c0,0,-62,-33,-153,-33Z" 
id="f1_20"
transform="scale(0.001,-0.001)" />

<path d="M370,-316c0,0,-141,152,-208,323C162,7,95,179,95,394v3c0,0,0,215,67,387c0,0,68,171,208,323H500c0,0,-140,-155,-205,-330c0,0,-65,-175,-65,-382c0,0,0,-207,64,-381c0,0,65,-172,206,-330Z" 
id="f1_c"
transform="scale(0.001,-0.001)" />

<path d="M9,-316c0,0,140,157,205,329c0,0,65,174,65,382c0,0,0,208,-65,382c0,0,-66,174,-205,330H139c0,0,141,-152,208,-324c0,0,67,-172,67,-386v-3c0,0,0,-216,-67,-388c0,0,-68,-170,-208,-322Z" 
id="f1_d"
transform="scale(0.001,-0.001)" />

<path d="M68,346V465H441V346Z" 
id="f1_h"
transform="scale(0.001,-0.001)" />

<path d="M426,-14c0,0,-160,0,-255,71c0,0,-95,72,-113,213l139,13c0,0,27,-187,229,-187c0,0,101,0,159,50c0,0,58,50,58,149c0,0,0,86,-66,134c0,0,-66,48,-191,48H310V594h73c0,0,111,0,172,48c0,0,60,48,60,133c0,0,0,84,-49,132c0,0,-50,49,-147,49c0,0,-89,0,-144,-45c0,0,-55,-46,-64,-129L76,793c0,0,15,129,107,201c0,0,92,73,237,73c0,0,158,0,246,-74c0,0,87,-73,87,-204c0,0,0,-101,-56,-164c0,0,-56,-63,-164,-85v-3c0,0,118,-13,184,-79c0,0,66,-67,66,-167c0,0,0,-146,-93,-226c0,0,-92,-79,-264,-79Z" 
id="f1_n"
transform="scale(0.001,-0.001)" />

<path d="M142,-316c0,0,-55,0,-92,8v101c0,0,28,-4,63,-4c0,0,125,0,198,184L324,4L4,808H147L317,362c0,0,4,-11,9,-25c0,0,5,-15,34,-98c0,0,28,-83,30,-92l52,147L619,808H761L451,0c0,0,-50,-128,-94,-191c0,0,-43,-63,-96,-94c0,0,-52,-31,-119,-31Z" 
id="f1_2l"
transform="scale(0.001,-0.001)" />

<path d="M116,0V114H384V923L147,754V881l248,170H519V114H775V0Z" 
id="f1_l"
transform="scale(0.001,-0.001)" />

<path d="M453,84c0,0,101,0,146,75c0,0,46,75,46,244c0,0,0,169,-45,243c0,0,-45,73,-146,73c0,0,-113,0,-165,-78c0,0,-52,-78,-52,-246c0,0,0,-159,51,-235c0,0,51,-76,165,-76Zm36,-98c0,0,-92,0,-153,33c0,0,-61,33,-99,107h-1c0,0,0,-24,-3,-71c0,0,-3,-48,-5,-55H98c0,0,5,40,5,166v941H237V792c0,0,0,-49,-3,-114h3c0,0,38,77,99,111c0,0,62,33,153,33c0,0,153,0,225,-103c0,0,72,-103,72,-311c0,0,0,-422,-297,-422Z" 
id="f1_1y"
transform="scale(0.001,-0.001)" />

<path d="M530,344V900c0,0,-1,-5,-20,-40c0,0,-20,-35,-30,-49L211,414L171,359L159,344ZM530,0V239H35V343l481,708H657V344H805V239H657V0Z" 
id="f1_o"
transform="scale(0.001,-0.001)" />

<path d="M0,336V439H849V336Z" 
id="f1_1jz"
transform="scale(0.001,-0.001)" />

<path d="M62,0V102L513,704H87V808H672V706L220,104H688V0Z" 
id="f1_2m"
transform="scale(0.001,-0.001)" />

<path d="M298,0L5,808H148L326,282c0,0,10,-29,51,-176l27,87l29,88L616,808H759L457,0Z" 
id="f1_2i"
transform="scale(0.001,-0.001)" />

<path d="M708,418L573,765c0,0,-21,52,-42,117l-20,62l-7,-21c0,0,-18,-62,-55,-159L315,418ZM3,0L432,1051H594L1016,0H871L750,307H272L151,0Z" 
id="f1_11"
transform="scale(0.001,-0.001)" />

<path d="M140,0V154H285V0Zm0,653V808H285V653Z" 
id="f1_u"
transform="scale(0.001,-0.001)" />

<path d="M137,-195c0,0,70,102,70,195H142V163H287V38c0,0,0,-78,-14,-131c0,0,-14,-53,-44,-102Z" 
id="f1_g"
transform="scale(0.001,-0.001)" />

<path d="M141,0V1051H283V0Z" 
id="f1_19"
transform="scale(0.001,-0.001)" />

<path d="M590,-14c0,0,-159,0,-275,65c0,0,-116,66,-177,189c0,0,-60,123,-60,291c0,0,0,251,135,393c0,0,136,143,376,143c0,0,168,0,281,-66c0,0,112,-66,165,-195L900,762c0,0,-36,92,-117,141c0,0,-81,48,-192,48c0,0,-175,0,-272,-112c0,0,-97,-112,-97,-308c0,0,0,-193,101,-311c0,0,101,-117,274,-117c0,0,221,0,332,218l116,-58c0,0,-65,-136,-182,-207c0,0,-118,-70,-273,-70Z" 
id="f1_13"
transform="scale(0.001,-0.001)" />

<path d="M125,0V1051H268V606H836v445H979V0H836V487H268V0Z" 
id="f1_18"
transform="scale(0.001,-0.001)" />

<path d="M125,0V1051H872V936H268V544H854V425H268V0Z" 
id="f1_16"
transform="scale(0.001,-0.001)" />

<path d="M545,114c0,0,130,0,190,49c0,0,59,48,59,144c0,0,0,186,-261,186H268V114ZM507,604c0,0,114,0,171,43c0,0,56,43,56,132c0,0,0,85,-58,121c0,0,-58,37,-169,37H268V604ZM125,0V1051H507c0,0,370,0,370,-255c0,0,0,-93,-52,-157c0,0,-52,-63,-148,-85c0,0,126,-15,194,-84c0,0,67,-69,67,-174c0,0,0,-140,-102,-218C836,78,734,0,552,0Z" 
id="f1_12"
transform="scale(0.001,-0.001)" />

<path d="M374,84c0,0,77,0,124,26c0,0,47,26,82,81c0,0,35,54,57,140c0,0,22,85,25,179c0,0,0,214,-185,214c0,0,-100,0,-161,-52c0,0,-61,-52,-94,-158c0,0,-34,-105,-34,-204c0,0,0,-110,48,-168c0,0,47,-58,138,-58Zm-8,-98c0,0,-146,0,-231,87c0,0,-85,89,-85,240c0,0,3,152,55,270c0,0,52,118,145,179c0,0,92,60,229,60c0,0,157,0,239,-81c0,0,83,-82,83,-231c0,0,0,-97,-30,-202c0,0,-29,-105,-85,-177C686,131,630,58,550,22c0,0,-81,-36,-184,-36Z" 
id="f2_2b"
transform="scale(0.001,-0.001)" />

<path d="M28,-195c0,0,89,103,108,195H70l31,163H247L223,38c0,0,-13,-70,-38,-126c0,0,-25,-56,-66,-107Z" 
id="f2_g"
transform="scale(0.001,-0.001)" />

<path d="M25,0L149,636c0,0,15,70,29,172H305c0,0,0,-9,-8,-58c0,0,-8,-50,-13,-80h2c0,0,55,85,110,119c0,0,55,33,131,33c0,0,90,0,143,-44c0,0,53,-45,63,-129c0,0,62,97,122,135c0,0,60,38,138,38c0,0,101,0,155,-54c0,0,54,-55,54,-158c0,0,0,-48,-16,-122L1091,0H959l92,474c0,0,19,93,19,130c0,0,0,56,-29,85c0,0,-28,30,-92,30c0,0,-87,0,-151,-73c0,0,-64,-73,-85,-193L625,0H492l93,474c0,0,19,93,19,130c0,0,0,56,-29,85c0,0,-28,30,-92,30c0,0,-87,0,-151,-74c0,0,-65,-74,-85,-194L159,0Z" 
id="f2_29"
transform="scale(0.001,-0.001)" />

<path d="M60,0L92,163H237L205,0Z" 
id="f2_i"
transform="scale(0.001,-0.001)" />

<path d="M399,84c0,0,93,0,146,56c0,0,54,57,85,180c0,0,30,122,30,214c0,0,0,92,-35,138c0,0,-35,47,-111,47c0,0,-74,0,-126,-31c0,0,-53,-30,-90,-91c0,0,-36,-60,-57,-152c0,0,-21,-91,-21,-164c0,0,0,-93,47,-145c0,0,48,-52,132,-52ZM-37,-316L148,643c0,0,17,83,26,165H298c0,0,0,-21,-4,-62c0,0,-5,-42,-8,-59h3c0,0,54,71,115,103c0,0,60,32,149,32c0,0,117,0,182,-70c0,0,65,-71,65,-194c0,0,0,-151,-45,-293C755,265,709,123,626,54c0,0,-84,-68,-213,-68c0,0,-91,0,-149,38c0,0,-58,39,-82,109h-4c0,0,0,-8,-6,-48c0,0,-6,-41,-77,-401Z" 
id="f2_2c"
transform="scale(0.001,-0.001)" />

<path d="M391,134V454H75V562H391V882H501V562H817V454H501V134Z" 
id="f1_f"
transform="scale(0.001,-0.001)" />

<path d="M125,0V1051H291L859,150c0,0,-9,146,-9,212v689H979V0H807L245,895l3,-72l4,-125V0Z" 
id="f1_1e"
transform="scale(0.001,-0.001)" />

<path d="M593,101c0,0,182,0,279,112c0,0,98,113,98,318c0,0,0,196,-98,308c0,0,-98,112,-277,112c0,0,-181,0,-279,-110c0,0,-99,-111,-99,-310c0,0,0,-198,100,-314c0,0,99,-116,276,-116Zm0,-115c0,0,-162,0,-279,65c0,0,-118,66,-180,190c0,0,-62,124,-62,290c0,0,0,252,138,394c0,0,138,142,385,142c0,0,160,0,278,-64c0,0,118,-64,180,-185c0,0,62,-122,62,-287c0,0,0,-165,-63,-289c0,0,-63,-124,-181,-190c0,0,-118,-66,-278,-66Z" 
id="f1_1f"
transform="scale(0.001,-0.001)" />

<path d="M961,74c0,0,46,97,89,147H312v65h738c0,0,-43,50,-89,146h54c0,0,94,-111,201,-165V240c0,0,-107,-55,-201,-166Z" 
id="f3_1mh"
transform="scale(0.001,-0.001)" />

<path d="M46,0c0,0,-2,48,16,93c0,0,27,74,88,146c0,0,61,71,176,165c0,0,178,146,241,232c0,0,63,85,63,161c0,0,0,80,-57,135c0,0,-58,55,-149,55c0,0,-98,0,-156,-59c0,0,-58,-58,-59,-160L71,782c0,0,15,154,107,235c0,0,93,81,249,81c0,0,157,0,249,-87c0,0,92,-88,92,-217c0,0,0,-65,-27,-129c0,0,-27,-63,-89,-133c0,0,-62,-70,-207,-193C445,339,324,238,290,202c0,0,-35,-36,-57,-73H770V0Z" 
id="f4_m"
transform="scale(0.001,-0.001)" />

<path d="M125,0V1051H268V115H799V0Z" 
id="f0_1c"
transform="scale(0.001,-0.001)" />

<path d="M106,0V620c0,0,0,85,-5,188H228c0,0,6,-138,6,-165h3c0,0,32,103,74,141c0,0,42,38,118,38c0,0,27,0,54,-7V692c0,0,-26,7,-71,7c0,0,-84,0,-128,-72c0,0,-44,-72,-44,-206V0Z" 
id="f0_2e"
transform="scale(0.001,-0.001)" />

<path d="M606,-14c0,0,-164,0,-284,65c0,0,-119,66,-182,189c0,0,-63,123,-63,291c0,0,0,255,137,396c0,0,137,140,386,140c0,0,174,0,283,-59c0,0,109,-59,168,-189L915,779c0,0,-44,90,-123,131c0,0,-79,41,-196,41c0,0,-182,0,-278,-110c0,0,-96,-110,-96,-310c0,0,0,-200,102,-315c0,0,102,-115,282,-115c0,0,103,0,193,31c0,0,89,31,144,85V407H629V526h445V164c0,0,-83,-85,-205,-132c0,0,-121,-46,-263,-46Z" 
id="f0_17"
transform="scale(0.001,-0.001)" />

<path d="M355,-14c0,0,-133,0,-194,65c0,0,-62,66,-62,219V808H234V296c0,0,0,-80,16,-124c0,0,16,-44,50,-64c0,0,34,-19,101,-19c0,0,97,0,153,66c0,0,55,67,55,185V808H744V172c0,0,0,-141,4,-172H621c0,0,0,4,-1,20c0,0,-1,17,-2,38c0,0,-1,21,-3,80h-2C613,138,567,55,506,20c0,0,-61,-34,-151,-34Z" 
id="f0_2h"
transform="scale(0.001,-0.001)" />

<path d="M395,89c0,0,115,0,166,79c0,0,51,79,51,246c0,0,0,160,-51,235c0,0,-51,75,-164,75c0,0,-102,0,-147,-75c0,0,-45,-75,-45,-244c0,0,0,-170,45,-243c0,0,45,-73,145,-73ZM361,-14c0,0,-153,0,-225,102c0,0,-72,103,-72,312c0,0,0,422,297,422c0,0,92,0,153,-33c0,0,61,-34,98,-107h2l-2,90v335H747V166c0,0,0,-126,4,-166H623c0,0,-2,12,-5,55c0,0,-3,44,-3,75h-3c0,0,-37,-78,-98,-111c0,0,-62,-33,-153,-33Z" 
id="f0_20"
transform="scale(0.001,-0.001)" />

<path d="M140,0V163H285V0Z" 
id="f0_i"
transform="scale(0.001,-0.001)" />


</defs>
</svg>