<?xml version="1.0" encoding="UTF-8" standalone="no"?>
<!DOCTYPE svg PUBLIC "-//W3C//DTD SVG 1.1//EN"
"http://www.w3.org/Graphics/SVG/1.1/DTD/svg11.dtd">
<svg viewBox="0 0 731 1042" version="1.1" xmlns="http://www.w3.org/2000/svg" xmlns:xlink="http://www.w3.org/1999/xlink">
<defs>
<clipPath id="c0_38"><path d="M210.9,226.3v-28H284v28Z" /></clipPath>
<clipPath id="c1_38"><path d="M97,464.5V446.7H633.3v17.8Z" /></clipPath>
<style type="text/css"><![CDATA[
.g0_38{
}
]]></style>
</defs>
<g fill="#D4D4D4" fill-opacity="0.36" >
<use xlink:href="#f0_1f" transform="matrix(50.9,-50.9,50.9,50.9,119.9,814.1)" />
<use xlink:href="#f0_2a" transform="matrix(50.9,-50.9,50.9,50.9,180.4,753.6)" />
<use xlink:href="#f0_28" transform="matrix(50.9,-50.9,50.9,50.9,223.6,710.3)" />
<use xlink:href="#f0_25" transform="matrix(50.9,-50.9,50.9,50.9,240.9,693.1)" />
<use xlink:href="#f0_2a" transform="matrix(50.9,-50.9,50.9,50.9,258.2,675.8)" />
<use xlink:href="#f0_21" transform="matrix(50.9,-50.9,50.9,50.9,301.4,632.5)" />
<use xlink:href="#f0_2k" transform="matrix(50.9,-50.9,50.9,50.9,344.7,589.3)" />
<use xlink:href="#f0_1x" transform="matrix(50.9,-50.9,50.9,50.9,383.6,550.4)" />
<use xlink:href="#f0_29" transform="matrix(50.9,-50.9,50.9,50.9,426.8,507.2)" />
<use xlink:href="#f0_2c" transform="matrix(50.9,-50.9,50.9,50.9,491.6,442.4)" />
<use xlink:href="#f0_2b" transform="matrix(50.9,-50.9,50.9,50.9,534.8,399.1)" />
<use xlink:href="#f0_25" transform="matrix(50.9,-50.9,50.9,50.9,578.1,355.9)" />
<use xlink:href="#f0_2a" transform="matrix(50.9,-50.9,50.9,50.9,595.4,338.6)" />
<use xlink:href="#f0_2g" transform="matrix(50.9,-50.9,50.9,50.9,638.6,295.4)" />
</g>
<g fill="#000000" >
<use xlink:href="#f1_13" transform="matrix(14,0,0,14,284.2,136.7)" />
<use xlink:href="#f1_24" transform="matrix(14,0,0,14,299.7,136.7)" />
<use xlink:href="#f1_1x" transform="matrix(14,0,0,14,312.8,136.7)" />
<use xlink:href="#f1_2c" transform="matrix(14,0,0,14,324.7,136.7)" />
<use xlink:href="#f1_2g" transform="matrix(14,0,0,14,337.8,136.7)" />
<use xlink:href="#f1_21" transform="matrix(14,0,0,14,345,136.7)" />
<use xlink:href="#f1_2e" transform="matrix(14,0,0,14,356.9,136.7)" />
<use xlink:href="#f2_h" transform="matrix(14,0,0,14,374.4,136.7)" />
<use xlink:href="#f2_q" transform="matrix(14,0,0,14,390.7,136.7)" />
<use xlink:href="#f2_17" transform="matrix(16,0,0,16,78.7,189.1)" />
<use xlink:href="#f2_15" transform="matrix(16,0,0,16,97.6,189.1)" />
<use xlink:href="#f2_1e" transform="matrix(16,0,0,16,113.9,189.1)" />
<use xlink:href="#f2_15" transform="matrix(16,0,0,16,131.5,189.1)" />
<use xlink:href="#f2_1i" transform="matrix(16,0,0,16,147.8,189.1)" />
<use xlink:href="#f2_11" transform="matrix(16,0,0,16,165.4,189.1)" />
<use xlink:href="#f2_1c" transform="matrix(16,0,0,16,182.3,189.1)" />
<use xlink:href="#f2_1g" transform="matrix(16,0,0,16,203.7,189.1)" />
<use xlink:href="#f2_1i" transform="matrix(16,0,0,16,220,189.1)" />
<use xlink:href="#f2_19" transform="matrix(16,0,0,16,237.7,189.1)" />
<use xlink:href="#f2_1e" transform="matrix(16,0,0,16,244.4,189.1)" />
<use xlink:href="#f2_13" transform="matrix(16,0,0,16,262,189.1)" />
<use xlink:href="#f2_19" transform="matrix(16,0,0,16,279.6,189.1)" />
<use xlink:href="#f2_1g" transform="matrix(16,0,0,16,286.4,189.1)" />
<use xlink:href="#f2_1c" transform="matrix(16,0,0,16,302.7,189.1)" />
<use xlink:href="#f2_15" transform="matrix(16,0,0,16,317.6,189.1)" />
<use xlink:href="#f2_1j" transform="matrix(16,0,0,16,333.9,189.1)" />
<use xlink:href="#f2_11" transform="matrix(16,0,0,16,356.3,189.1)" />
<use xlink:href="#f2_1e" transform="matrix(16,0,0,16,373.1,189.1)" />
<use xlink:href="#f2_14" transform="matrix(16,0,0,16,390.7,189.1)" />
<use xlink:href="#f2_1g" transform="matrix(16,0,0,16,415.5,189.1)" />
<use xlink:href="#f2_1i" transform="matrix(16,0,0,16,431.8,189.1)" />
<use xlink:href="#f2_1f" transform="matrix(16,0,0,16,449.4,189.1)" />
<use xlink:href="#f2_13" transform="matrix(16,0,0,16,468.3,189.1)" />
<use xlink:href="#f2_15" transform="matrix(16,0,0,16,485.9,189.1)" />
<use xlink:href="#f2_1j" transform="matrix(16,0,0,16,502.2,189.1)" />
<use xlink:href="#f2_1j" transform="matrix(16,0,0,16,518.5,189.1)" />
<use xlink:href="#f2_15" transform="matrix(16,0,0,16,534.8,189.1)" />
<use xlink:href="#f2_1j" transform="matrix(16,0,0,16,551.2,189.1)" />
<use xlink:href="#f2_1f" transform="matrix(16,0,0,16,574.4,189.1)" />
<use xlink:href="#f2_16" transform="matrix(16,0,0,16,593.3,189.1)" />
</g>
<path fill-rule="evenodd" d="M53.7,228.5H633.1V230H53.7v-1.5Z" class="g0_38" />
<g clip-path="url(#c0_38)">
<g fill="#000000" >
<use xlink:href="#f2_19" transform="matrix(16,0,0,16,210.9,220.8)" />
<use xlink:href="#f2_1j" transform="matrix(16,0,0,16,217.5,220.8)" />
<use xlink:href="#f2_1f" transform="matrix(16,0,0,16,233.8,220.8)" />
<use xlink:href="#f2_1c" transform="matrix(16,0,0,16,252.5,220.8)" />
<use xlink:href="#f2_11" transform="matrix(16,0,0,16,267.3,220.8)" />
</g>
</g>
<g fill="#000000" >
<use xlink:href="#f2_1k" transform="matrix(16,0,0,16,282.2,220.8)" />
<use xlink:href="#f2_19" transform="matrix(16,0,0,16,297,220.8)" />
<use xlink:href="#f2_1f" transform="matrix(16,0,0,16,303.6,220.8)" />
<use xlink:href="#f2_1e" transform="matrix(16,0,0,16,322.5,220.8)" />
<use xlink:href="#f2_1f" transform="matrix(16,0,0,16,346.5,220.8)" />
<use xlink:href="#f2_16" transform="matrix(16,0,0,16,365.4,220.8)" />
<use xlink:href="#f2_15" transform="matrix(16,0,0,16,386.9,220.8)" />
<use xlink:href="#f2_1c" transform="matrix(16,0,0,16,403,220.8)" />
<use xlink:href="#f2_15" transform="matrix(16,0,0,16,417.8,220.8)" />
<use xlink:href="#f2_1d" transform="matrix(16,0,0,16,434,220.8)" />
<use xlink:href="#f2_15" transform="matrix(16,0,0,16,454.3,220.8)" />
<use xlink:href="#f2_1e" transform="matrix(16,0,0,16,470.5,220.8)" />
<use xlink:href="#f2_1k" transform="matrix(16,0,0,16,488.1,220.8)" />
<use xlink:href="#f2_1j" transform="matrix(16,0,0,16,502.7,220.8)" />
<use xlink:href="#f2_1m" transform="matrix(11,0,0,11,169.2,311.2)" />
<use xlink:href="#f2_1j" transform="matrix(11,0,0,11,180.4,311.2)" />
<use xlink:href="#f2_11" transform="matrix(11,0,0,11,191.6,311.2)" />
<use xlink:href="#f2_1h" transform="matrix(11,0,0,11,211.2,311.2)" />
<use xlink:href="#f2_1l" transform="matrix(11,0,0,11,224.4,311.2)" />
<use xlink:href="#f2_15" transform="matrix(11,0,0,11,236.5,311.2)" />
<use xlink:href="#f2_1j" transform="matrix(11,0,0,11,247.6,311.2)" />
<use xlink:href="#f2_1k" transform="matrix(11,0,0,11,258.8,311.2)" />
<use xlink:href="#f2_19" transform="matrix(11,0,0,11,268.9,311.2)" />
<use xlink:href="#f2_1f" transform="matrix(11,0,0,11,273.7,311.2)" />
<use xlink:href="#f2_1e" transform="matrix(11,0,0,11,286.8,311.2)" />
<use xlink:href="#f2_1j" transform="matrix(11,0,0,11,298.9,311.2)" />
<use xlink:href="#f2_c" transform="matrix(11,0,0,11,318.2,311.2)" />
<use xlink:href="#f2_l" transform="matrix(11,0,0,11,323.8,311.2)" />
<use xlink:href="#f2_h" transform="matrix(11,0,0,11,341.1,311.2)" />
<use xlink:href="#f2_1d" transform="matrix(11,0,0,11,354.8,311.2)" />
<use xlink:href="#f2_11" transform="matrix(11,0,0,11,368.9,311.2)" />
<use xlink:href="#f2_1i" transform="matrix(11,0,0,11,380.4,311.2)" />
<use xlink:href="#f2_1b" transform="matrix(11,0,0,11,392.5,311.2)" />
<use xlink:href="#f2_1h" transform="matrix(11,0,0,11,412.7,311.2)" />
<use xlink:href="#f2_1l" transform="matrix(11,0,0,11,425.9,311.2)" />
<use xlink:href="#f2_15" transform="matrix(11,0,0,11,438,311.2)" />
<use xlink:href="#f2_1j" transform="matrix(11,0,0,11,449.1,311.2)" />
<use xlink:href="#f2_1k" transform="matrix(11,0,0,11,460.3,311.2)" />
<use xlink:href="#f2_19" transform="matrix(11,0,0,11,470.4,311.2)" />
<use xlink:href="#f2_1f" transform="matrix(11,0,0,11,475.1,311.2)" />
<use xlink:href="#f2_1e" transform="matrix(11,0,0,11,488.3,311.2)" />
<use xlink:href="#f2_1j" transform="matrix(11,0,0,11,500.4,311.2)" />
<use xlink:href="#f2_d" transform="matrix(11,0,0,11,511.6,311.2)" />
<use xlink:href="#f3_l" transform="matrix(10.4,0,0,10.4,53.7,340.9)" />
<use xlink:href="#f3_i" transform="matrix(10.4,0,0,10.4,63.1,340.9)" />
<use xlink:href="#f3_1e" transform="matrix(10.4,0,0,10.4,97,340.9)" />
<use xlink:href="#f3_1x" transform="matrix(10.4,0,0,10.4,108.6,340.9)" />
<use xlink:href="#f3_29" transform="matrix(10.4,0,0,10.4,117.4,340.9)" />
<use xlink:href="#f3_21" transform="matrix(10.4,0,0,10.4,130.9,340.9)" />
<use xlink:href="#f3_2g" transform="matrix(10.4,0,0,10.4,147.2,340.9)" />
<use xlink:href="#f3_24" transform="matrix(10.4,0,0,10.4,151.6,340.9)" />
<use xlink:href="#f3_2e" transform="matrix(10.4,0,0,10.4,160.4,340.9)" />
<use xlink:href="#f3_21" transform="matrix(10.4,0,0,10.4,165.7,340.9)" />
<use xlink:href="#f3_21" transform="matrix(10.4,0,0,10.4,174.5,340.9)" />
<use xlink:href="#f3_29" transform="matrix(10.4,0,0,10.4,191,340.9)" />
<use xlink:href="#f3_21" transform="matrix(10.4,0,0,10.4,204.6,340.9)" />
<use xlink:href="#f3_2g" transform="matrix(10.4,0,0,10.4,213.4,340.9)" />
<use xlink:href="#f3_1x" transform="matrix(10.4,0,0,10.4,217.8,340.9)" />
<use xlink:href="#f3_28" transform="matrix(10.4,0,0,10.4,226.6,340.9)" />
<use xlink:href="#f3_2f" transform="matrix(10.4,0,0,10.4,230.1,340.9)" />
<use xlink:href="#f3_2j" transform="matrix(10.4,0,0,10.4,245.7,340.9)" />
<use xlink:href="#f3_24" transform="matrix(10.4,0,0,10.4,256.9,340.9)" />
<use xlink:href="#f3_25" transform="matrix(10.4,0,0,10.4,265.7,340.9)" />
<use xlink:href="#f3_1z" transform="matrix(10.4,0,0,10.4,269.1,340.9)" />
<use xlink:href="#f3_24" transform="matrix(10.4,0,0,10.4,277.2,340.9)" />
<use xlink:href="#f3_2b" transform="matrix(10.4,0,0,10.4,293.5,340.9)" />
<use xlink:href="#f3_1z" transform="matrix(10.4,0,0,10.4,302.3,340.9)" />
<use xlink:href="#f3_1z" transform="matrix(10.4,0,0,10.4,310.4,340.9)" />
<use xlink:href="#f3_2h" transform="matrix(10.4,0,0,10.4,318.4,340.9)" />
<use xlink:href="#f3_2e" transform="matrix(10.4,0,0,10.4,327.2,340.9)" />
<use xlink:href="#f3_25" transform="matrix(10.4,0,0,10.4,340.3,340.9)" />
<use xlink:href="#f3_2a" transform="matrix(10.4,0,0,10.4,343.7,340.9)" />
<use xlink:href="#f3_2a" transform="matrix(10.4,0,0,10.4,360.1,340.9)" />
<use xlink:href="#f3_1x" transform="matrix(10.4,0,0,10.4,368.9,340.9)" />
<use xlink:href="#f3_2g" transform="matrix(10.4,0,0,10.4,377.7,340.9)" />
<use xlink:href="#f3_25" transform="matrix(10.4,0,0,10.4,382.1,340.9)" />
<use xlink:href="#f3_2i" transform="matrix(10.4,0,0,10.4,385.5,340.9)" />
<use xlink:href="#f3_21" transform="matrix(10.4,0,0,10.4,393.4,340.9)" />
<use xlink:href="#f3_2f" transform="matrix(10.4,0,0,10.4,409.7,340.9)" />
<use xlink:href="#f3_2g" transform="matrix(10.4,0,0,10.4,417.8,340.9)" />
<use xlink:href="#f3_1x" transform="matrix(10.4,0,0,10.4,422.2,340.9)" />
<use xlink:href="#f3_2g" transform="matrix(10.4,0,0,10.4,431,340.9)" />
<use xlink:href="#f3_21" transform="matrix(10.4,0,0,10.4,435.4,340.9)" />
<use xlink:href="#f3_25" transform="matrix(10.4,0,0,10.4,451.9,340.9)" />
<use xlink:href="#f3_2a" transform="matrix(10.4,0,0,10.4,455.4,340.9)" />
<use xlink:href="#f3_2a" transform="matrix(10.4,0,0,10.4,471.7,340.9)" />
<use xlink:href="#f3_1x" transform="matrix(10.4,0,0,10.4,480.5,340.9)" />
<use xlink:href="#f3_2g" transform="matrix(10.4,0,0,10.4,489.3,340.9)" />
<use xlink:href="#f3_2h" transform="matrix(10.4,0,0,10.4,493.7,340.9)" />
<use xlink:href="#f3_2e" transform="matrix(10.4,0,0,10.4,502.5,340.9)" />
<use xlink:href="#f3_21" transform="matrix(10.4,0,0,10.4,507.8,340.9)" />
<use xlink:href="#f3_i" transform="matrix(10.4,0,0,10.4,516.6,340.9)" />
<use xlink:href="#f3_1r" transform="matrix(10.4,0,0,10.4,467,371)" />
<use xlink:href="#f2_11" transform="matrix(10.4,0,0,10.4,471.4,371)" />
<use xlink:href="#f2_2a" transform="matrix(10.4,0,0,10.4,482.2,371)" />
<use xlink:href="#f2_2f" transform="matrix(10.4,0,0,10.4,491.9,371)" />
<use xlink:href="#f2_i" transform="matrix(10.4,0,0,10.4,500.7,371)" />
<use xlink:href="#f2_u" transform="matrix(10.4,0,0,10.4,512.1,371)" />
<use xlink:href="#f3_11" transform="matrix(10.4,0,0,10.4,523.6,371)" />
<use xlink:href="#f3_2h" transform="matrix(10.4,0,0,10.4,534.3,371)" />
<use xlink:href="#f3_g" transform="matrix(10.4,0,0,10.4,543.1,371)" />
<use xlink:href="#f3_11" transform="matrix(10.4,0,0,10.4,553.7,371)" />
<use xlink:href="#f3_23" transform="matrix(10.4,0,0,10.4,564.3,371)" />
<use xlink:href="#f3_1x" transform="matrix(10.4,0,0,10.4,580.1,371)" />
<use xlink:href="#f3_2a" transform="matrix(10.4,0,0,10.4,588.9,371)" />
<use xlink:href="#f3_20" transform="matrix(10.4,0,0,10.4,597.7,371)" />
<use xlink:href="#f3_1g" transform="matrix(10.4,0,0,10.4,613.6,371)" />
<use xlink:href="#f3_2g" transform="matrix(10.4,0,0,10.4,624.3,371)" />
<use xlink:href="#f3_1t" transform="matrix(10.4,0,0,10.4,628.7,371)" />
<use xlink:href="#f3_m" transform="matrix(10.4,0,0,10.4,53.7,400.9)" />
<use xlink:href="#f3_i" transform="matrix(10.4,0,0,10.4,63.1,400.9)" />
<use xlink:href="#f3_1n" transform="matrix(10.4,0,0,10.4,97,400.9)" />
<use xlink:href="#f3_24" transform="matrix(10.4,0,0,10.4,113,400.9)" />
<use xlink:href="#f3_1x" transform="matrix(10.4,0,0,10.4,121.8,400.9)" />
<use xlink:href="#f3_2g" transform="matrix(10.4,0,0,10.4,130.6,400.9)" />
<use xlink:href="#f3_1x" transform="matrix(10.4,0,0,10.4,142.8,400.9)" />
<use xlink:href="#f3_2e" transform="matrix(10.4,0,0,10.4,151.6,400.9)" />
<use xlink:href="#f3_21" transform="matrix(10.4,0,0,10.4,156.9,400.9)" />
<use xlink:href="#f3_1z" transform="matrix(10.4,0,0,10.4,173.6,400.9)" />
<use xlink:href="#f3_2b" transform="matrix(10.4,0,0,10.4,181.7,400.9)" />
<use xlink:href="#f3_28" transform="matrix(10.4,0,0,10.4,190.5,400.9)" />
<use xlink:href="#f3_28" transform="matrix(10.4,0,0,10.4,194,400.9)" />
<use xlink:href="#f3_21" transform="matrix(10.4,0,0,10.4,197.5,400.9)" />
<use xlink:href="#f3_1z" transform="matrix(10.4,0,0,10.4,206.3,400.9)" />
<use xlink:href="#f3_2g" transform="matrix(10.4,0,0,10.4,214.3,400.9)" />
<use xlink:href="#f3_2b" transform="matrix(10.4,0,0,10.4,218.7,400.9)" />
<use xlink:href="#f3_2e" transform="matrix(10.4,0,0,10.4,227.5,400.9)" />
<use xlink:href="#f3_2f" transform="matrix(10.4,0,0,10.4,232.8,400.9)" />
<use xlink:href="#f3_25" transform="matrix(10.4,0,0,10.4,248.8,400.9)" />
<use xlink:href="#f3_2a" transform="matrix(10.4,0,0,10.4,252.3,400.9)" />
<use xlink:href="#f3_22" transform="matrix(10.4,0,0,10.4,269,400.9)" />
<use xlink:href="#f3_2e" transform="matrix(10.4,0,0,10.4,273.5,400.9)" />
<use xlink:href="#f3_2b" transform="matrix(10.4,0,0,10.4,278.8,400.9)" />
<use xlink:href="#f3_2g" transform="matrix(10.4,0,0,10.4,287.7,400.9)" />
<use xlink:href="#f3_24" transform="matrix(10.4,0,0,10.4,292.1,400.9)" />
<use xlink:href="#f3_22" transform="matrix(10.4,0,0,10.4,308.5,400.9)" />
<use xlink:href="#f3_28" transform="matrix(10.4,0,0,10.4,313.1,400.9)" />
<use xlink:href="#f3_2b" transform="matrix(10.4,0,0,10.4,316.6,400.9)" />
<use xlink:href="#f3_2g" transform="matrix(10.4,0,0,10.4,325.4,400.9)" />
<use xlink:href="#f3_1x" transform="matrix(10.4,0,0,10.4,329.8,400.9)" />
<use xlink:href="#f3_2g" transform="matrix(10.4,0,0,10.4,338.6,400.9)" />
<use xlink:href="#f3_25" transform="matrix(10.4,0,0,10.4,343,400.9)" />
<use xlink:href="#f3_2b" transform="matrix(10.4,0,0,10.4,346.5,400.9)" />
<use xlink:href="#f3_2a" transform="matrix(10.4,0,0,10.4,355.3,400.9)" />
<use xlink:href="#f3_2c" transform="matrix(10.4,0,0,10.4,372,400.9)" />
<use xlink:href="#f3_2e" transform="matrix(10.4,0,0,10.4,380.8,400.9)" />
<use xlink:href="#f3_2b" transform="matrix(10.4,0,0,10.4,386.1,400.9)" />
<use xlink:href="#f3_1z" transform="matrix(10.4,0,0,10.4,394.9,400.9)" />
<use xlink:href="#f3_21" transform="matrix(10.4,0,0,10.4,403,400.9)" />
<use xlink:href="#f3_2f" transform="matrix(10.4,0,0,10.4,411.8,400.9)" />
<use xlink:href="#f3_2f" transform="matrix(10.4,0,0,10.4,419.8,400.9)" />
<use xlink:href="#f3_z" transform="matrix(10.4,0,0,10.4,427.9,400.9)" />
<use xlink:href="#f3_17" transform="matrix(10.4,0,0,10.4,444.6,400.9)" />
<use xlink:href="#f3_25" transform="matrix(10.4,0,0,10.4,457,400.9)" />
<use xlink:href="#f3_2i" transform="matrix(10.4,0,0,10.4,460.5,400.9)" />
<use xlink:href="#f3_21" transform="matrix(10.4,0,0,10.4,468.4,400.9)" />
<use xlink:href="#f3_2b" transform="matrix(10.4,0,0,10.4,485.1,400.9)" />
<use xlink:href="#f3_2a" transform="matrix(10.4,0,0,10.4,493.9,400.9)" />
<use xlink:href="#f3_21" transform="matrix(10.4,0,0,10.4,502.7,400.9)" />
<use xlink:href="#f3_21" transform="matrix(10.4,0,0,10.4,519.4,400.9)" />
<use xlink:href="#f3_2k" transform="matrix(10.4,0,0,10.4,528.2,400.9)" />
<use xlink:href="#f3_1x" transform="matrix(10.4,0,0,10.4,536,400.9)" />
<use xlink:href="#f3_29" transform="matrix(10.4,0,0,10.4,544.8,400.9)" />
<use xlink:href="#f3_2c" transform="matrix(10.4,0,0,10.4,558.4,400.9)" />
<use xlink:href="#f3_28" transform="matrix(10.4,0,0,10.4,567.2,400.9)" />
<use xlink:href="#f3_21" transform="matrix(10.4,0,0,10.4,570.7,400.9)" />
<use xlink:href="#f3_i" transform="matrix(10.4,0,0,10.4,579.5,400.9)" />
<use xlink:href="#f3_1r" transform="matrix(10.4,0,0,10.4,526.6,430.9)" />
<use xlink:href="#f2_15" transform="matrix(10.4,0,0,10.4,531,430.9)" />
<use xlink:href="#f2_2k" transform="matrix(10.4,0,0,10.4,541.6,430.9)" />
<use xlink:href="#f2_i" transform="matrix(10.4,0,0,10.4,550.4,430.9)" />
<use xlink:href="#f2_u" transform="matrix(10.4,0,0,10.4,561.8,430.9)" />
<use xlink:href="#f3_1g" transform="matrix(10.4,0,0,10.4,574.2,430.9)" />
<use xlink:href="#f3_25" transform="matrix(10.4,0,0,10.4,584.9,430.9)" />
<use xlink:href="#f3_2a" transform="matrix(10.4,0,0,10.4,588.3,430.9)" />
<use xlink:href="#f3_21" transform="matrix(10.4,0,0,10.4,597.1,430.9)" />
<use xlink:href="#f3_2b" transform="matrix(10.4,0,0,10.4,612.9,430.9)" />
<use xlink:href="#f3_25" transform="matrix(10.4,0,0,10.4,621.7,430.9)" />
<use xlink:href="#f3_28" transform="matrix(10.4,0,0,10.4,625.2,430.9)" />
<use xlink:href="#f3_1t" transform="matrix(10.4,0,0,10.4,628.7,430.9)" />
<use xlink:href="#f3_e" transform="matrix(10.4,0,0,10.4,53.7,461)" />
<use xlink:href="#f3_n" transform="matrix(10.4,0,0,10.4,60,461)" />
<use xlink:href="#f3_i" transform="matrix(10.4,0,0,10.4,68.8,461)" />
</g>
<g clip-path="url(#c1_38)">
<g fill="#000000" >
<use xlink:href="#f3_17" transform="matrix(10.4,0,0,10.4,97,461)" />
<use xlink:href="#f3_25" transform="matrix(10.4,0,0,10.4,109.5,461)" />
<use xlink:href="#f3_2i" transform="matrix(10.4,0,0,10.4,113,461)" />
<use xlink:href="#f3_21" transform="matrix(10.4,0,0,10.4,120.8,461)" />
<use xlink:href="#f3_2g" transform="matrix(10.4,0,0,10.4,138.1,461)" />
<use xlink:href="#f3_24" transform="matrix(10.4,0,0,10.4,142.5,461)" />
<use xlink:href="#f3_21" transform="matrix(10.4,0,0,10.4,151.3,461)" />
<use xlink:href="#f3_2a" transform="matrix(10.4,0,0,10.4,168.5,461)" />
<use xlink:href="#f3_1x" transform="matrix(10.4,0,0,10.4,177.3,461)" />
<use xlink:href="#f3_29" transform="matrix(10.4,0,0,10.4,186.1,461)" />
<use xlink:href="#f3_21" transform="matrix(10.4,0,0,10.4,199.7,461)" />
<use xlink:href="#f3_2f" transform="matrix(10.4,0,0,10.4,208.5,461)" />
<use xlink:href="#f3_1x" transform="matrix(10.4,0,0,10.4,225.1,461)" />
<use xlink:href="#f3_2a" transform="matrix(10.4,0,0,10.4,233.9,461)" />
<use xlink:href="#f3_20" transform="matrix(10.4,0,0,10.4,242.7,461)" />
<use xlink:href="#f3_22" transform="matrix(10.4,0,0,10.4,260,461)" />
<use xlink:href="#f3_2b" transform="matrix(10.4,0,0,10.4,264.6,461)" />
<use xlink:href="#f3_2e" transform="matrix(10.4,0,0,10.4,273.4,461)" />
<use xlink:href="#f3_29" transform="matrix(10.4,0,0,10.4,278.7,461)" />
<use xlink:href="#f3_2h" transform="matrix(10.4,0,0,10.4,292.2,461)" />
<use xlink:href="#f3_28" transform="matrix(10.4,0,0,10.4,301,461)" />
<use xlink:href="#f3_1x" transform="matrix(10.4,0,0,10.4,304.5,461)" />
<use xlink:href="#f3_21" transform="matrix(10.4,0,0,10.4,313.3,461)" />
<use xlink:href="#f3_2b" transform="matrix(10.4,0,0,10.4,330.5,461)" />
<use xlink:href="#f3_22" transform="matrix(10.4,0,0,10.4,339.3,461)" />
<use xlink:href="#f3_2g" transform="matrix(10.4,0,0,10.4,352.4,461)" />
<use xlink:href="#f3_24" transform="matrix(10.4,0,0,10.4,356.8,461)" />
<use xlink:href="#f3_2e" transform="matrix(10.4,0,0,10.4,365.6,461)" />
<use xlink:href="#f3_21" transform="matrix(10.4,0,0,10.4,370.9,461)" />
<use xlink:href="#f3_21" transform="matrix(10.4,0,0,10.4,379.7,461)" />
<use xlink:href="#f3_2b" transform="matrix(10.4,0,0,10.4,396.9,461)" />
<use xlink:href="#f3_2e" transform="matrix(10.4,0,0,10.4,405.7,461)" />
<use xlink:href="#f3_21" transform="matrix(10.4,0,0,10.4,411,461)" />
<use xlink:href="#f3_2f" transform="matrix(10.4,0,0,10.4,419.8,461)" />
<use xlink:href="#f3_2j" transform="matrix(10.4,0,0,10.4,436.3,461)" />
<use xlink:href="#f3_24" transform="matrix(10.4,0,0,10.4,447.5,461)" />
<use xlink:href="#f3_25" transform="matrix(10.4,0,0,10.4,456.3,461)" />
<use xlink:href="#f3_1z" transform="matrix(10.4,0,0,10.4,459.8,461)" />
<use xlink:href="#f3_24" transform="matrix(10.4,0,0,10.4,467.9,461)" />
<use xlink:href="#f3_1x" transform="matrix(10.4,0,0,10.4,485.3,461)" />
<use xlink:href="#f3_2e" transform="matrix(10.4,0,0,10.4,494.1,461)" />
<use xlink:href="#f3_21" transform="matrix(10.4,0,0,10.4,499.4,461)" />
<use xlink:href="#f3_1z" transform="matrix(10.4,0,0,10.4,516.6,461)" />
<use xlink:href="#f3_2b" transform="matrix(10.4,0,0,10.4,524.7,461)" />
<use xlink:href="#f3_2a" transform="matrix(10.4,0,0,10.4,533.5,461)" />
<use xlink:href="#f3_1z" transform="matrix(10.4,0,0,10.4,542.3,461)" />
<use xlink:href="#f3_21" transform="matrix(10.4,0,0,10.4,550.3,461)" />
<use xlink:href="#f3_2a" transform="matrix(10.4,0,0,10.4,559.1,461)" />
<use xlink:href="#f3_2g" transform="matrix(10.4,0,0,10.4,567.9,461)" />
<use xlink:href="#f3_2e" transform="matrix(10.4,0,0,10.4,572.3,461)" />
<use xlink:href="#f3_1x" transform="matrix(10.4,0,0,10.4,577.7,461)" />
<use xlink:href="#f3_2g" transform="matrix(10.4,0,0,10.4,586.5,461)" />
<use xlink:href="#f3_21" transform="matrix(10.4,0,0,10.4,590.9,461)" />
<use xlink:href="#f3_20" transform="matrix(10.4,0,0,10.4,599.7,461)" />
<use xlink:href="#f3_1y" transform="matrix(10.4,0,0,10.4,616.9,461)" />
<use xlink:href="#f3_2l" transform="matrix(10.4,0,0,10.4,625.7,461)" />
</g>
</g>
<g fill="#000000" >
<use xlink:href="#f3_22" transform="matrix(10.4,0,0,10.4,97,481.9)" />
<use xlink:href="#f3_2e" transform="matrix(10.4,0,0,10.4,101.6,481.9)" />
<use xlink:href="#f3_2b" transform="matrix(10.4,0,0,10.4,106.9,481.9)" />
<use xlink:href="#f3_2g" transform="matrix(10.4,0,0,10.4,115.9,481.9)" />
<use xlink:href="#f3_24" transform="matrix(10.4,0,0,10.4,120.3,481.9)" />
<use xlink:href="#f3_22" transform="matrix(10.4,0,0,10.4,137.9,481.9)" />
<use xlink:href="#f3_28" transform="matrix(10.4,0,0,10.4,142.7,481.9)" />
<use xlink:href="#f3_2b" transform="matrix(10.4,0,0,10.4,146.1,481.9)" />
<use xlink:href="#f3_1x" transform="matrix(10.4,0,0,10.4,154.9,481.9)" />
<use xlink:href="#f3_2g" transform="matrix(10.4,0,0,10.4,163.7,481.9)" />
<use xlink:href="#f3_1x" transform="matrix(10.4,0,0,10.4,168.3,481.9)" />
<use xlink:href="#f3_2g" transform="matrix(10.4,0,0,10.4,177.1,481.9)" />
<use xlink:href="#f3_25" transform="matrix(10.4,0,0,10.4,181.5,481.9)" />
<use xlink:href="#f3_2b" transform="matrix(10.4,0,0,10.4,185,481.9)" />
<use xlink:href="#f3_2a" transform="matrix(10.4,0,0,10.4,194,481.9)" />
<use xlink:href="#f3_2c" transform="matrix(10.4,0,0,10.4,211.6,481.9)" />
<use xlink:href="#f3_2e" transform="matrix(10.4,0,0,10.4,220.4,481.9)" />
<use xlink:href="#f3_2b" transform="matrix(10.4,0,0,10.4,225.9,481.9)" />
<use xlink:href="#f3_1z" transform="matrix(10.4,0,0,10.4,234.7,481.9)" />
<use xlink:href="#f3_21" transform="matrix(10.4,0,0,10.4,242.7,481.9)" />
<use xlink:href="#f3_2f" transform="matrix(10.4,0,0,10.4,251.5,481.9)" />
<use xlink:href="#f3_2f" transform="matrix(10.4,0,0,10.4,259.8,481.9)" />
<use xlink:href="#f3_i" transform="matrix(10.4,0,0,10.4,267.9,481.9)" />
<use xlink:href="#f3_1r" transform="matrix(10.4,0,0,10.4,234.3,512)" />
<use xlink:href="#f2_11" transform="matrix(10.4,0,0,10.4,238.7,512)" />
<use xlink:href="#f2_2a" transform="matrix(10.4,0,0,10.4,249.5,512)" />
<use xlink:href="#f2_2f" transform="matrix(10.4,0,0,10.4,259.3,512)" />
<use xlink:href="#f2_i" transform="matrix(10.4,0,0,10.4,268.1,512)" />
<use xlink:href="#f2_u" transform="matrix(10.4,0,0,10.4,280,512)" />
<use xlink:href="#f3_17" transform="matrix(10.4,0,0,10.4,293.2,512)" />
<use xlink:href="#f3_1x" transform="matrix(10.4,0,0,10.4,305.6,512)" />
<use xlink:href="#f3_28" transform="matrix(10.4,0,0,10.4,314.4,512)" />
<use xlink:href="#f3_21" transform="matrix(10.4,0,0,10.4,317.9,512)" />
<use xlink:href="#f3_2a" transform="matrix(10.4,0,0,10.4,326.7,512)" />
<use xlink:href="#f3_1x" transform="matrix(10.4,0,0,10.4,335.5,512)" />
<use xlink:href="#f3_c" transform="matrix(9,0,0,9,352,512)" />
<use xlink:href="#f3_1g" transform="matrix(9,0,0,9,356.6,512)" />
<use xlink:href="#f3_1y" transform="matrix(9,0,0,9,365.8,512)" />
<use xlink:href="#f3_1j" transform="matrix(9,0,0,9,373.5,512)" />
<use xlink:href="#f3_d" transform="matrix(9,0,0,9,382.6,512)" />
<use xlink:href="#f3_g" transform="matrix(10.4,0,0,10.4,387.2,512)" />
<use xlink:href="#f3_2m" transform="matrix(10.4,0,0,10.4,399.3,512)" />
<use xlink:href="#f3_25" transform="matrix(10.4,0,0,10.4,407,512)" />
<use xlink:href="#f3_2a" transform="matrix(10.4,0,0,10.4,410.5,512)" />
<use xlink:href="#f3_1z" transform="matrix(10.4,0,0,10.4,419.3,512)" />
<use xlink:href="#f3_1y" transform="matrix(10.4,0,0,10.4,435.1,512)" />
<use xlink:href="#f3_28" transform="matrix(10.4,0,0,10.4,443.9,512)" />
<use xlink:href="#f3_21" transform="matrix(10.4,0,0,10.4,447.3,512)" />
<use xlink:href="#f3_2a" transform="matrix(10.4,0,0,10.4,456.1,512)" />
<use xlink:href="#f3_20" transform="matrix(10.4,0,0,10.4,464.9,512)" />
<use xlink:href="#f3_c" transform="matrix(10.4,0,0,10.4,481.3,512)" />
<use xlink:href="#f3_2m" transform="matrix(10.4,0,0,10.4,486.6,512)" />
<use xlink:href="#f3_2a" transform="matrix(10.4,0,0,10.4,494.3,512)" />
<use xlink:href="#f3_2f" transform="matrix(10.4,0,0,10.4,503.1,512)" />
<use xlink:href="#f3_d" transform="matrix(10.4,0,0,10.4,511.1,512)" />
<use xlink:href="#f3_1z" transform="matrix(10.4,0,0,10.4,524.2,512)" />
<use xlink:href="#f3_25" transform="matrix(10.4,0,0,10.4,532.2,512)" />
<use xlink:href="#f3_2a" transform="matrix(10.4,0,0,10.4,535.7,512)" />
<use xlink:href="#f3_2a" transform="matrix(10.4,0,0,10.4,544.5,512)" />
<use xlink:href="#f3_1x" transform="matrix(10.4,0,0,10.4,553.3,512)" />
<use xlink:href="#f3_1y" transform="matrix(10.4,0,0,10.4,562.1,512)" />
<use xlink:href="#f3_1x" transform="matrix(10.4,0,0,10.4,570.9,512)" />
<use xlink:href="#f3_2e" transform="matrix(10.4,0,0,10.4,579.7,512)" />
<use xlink:href="#f3_c" transform="matrix(9,0,0,9,592.7,512)" />
<use xlink:href="#f3_18" transform="matrix(9,0,0,9,597.3,512)" />
<use xlink:href="#f3_23" transform="matrix(9,0,0,9,607.2,512)" />
<use xlink:href="#f3_1j" transform="matrix(9,0,0,9,614.9,512)" />
<use xlink:href="#f3_d" transform="matrix(9,0,0,9,624.1,512)" />
<use xlink:href="#f3_1t" transform="matrix(10.4,0,0,10.4,628.7,512)" />
<use xlink:href="#f3_o" transform="matrix(10.4,0,0,10.4,53.7,542)" />
<use xlink:href="#f3_i" transform="matrix(10.4,0,0,10.4,63.1,542)" />
<use xlink:href="#f3_11" transform="matrix(10.4,0,0,10.4,97,542)" />
<use xlink:href="#f3_29" transform="matrix(10.4,0,0,10.4,107.6,542)" />
<use xlink:href="#f3_2b" transform="matrix(10.4,0,0,10.4,121.2,542)" />
<use xlink:href="#f3_2a" transform="matrix(10.4,0,0,10.4,130,542)" />
<use xlink:href="#f3_23" transform="matrix(10.4,0,0,10.4,138.8,542)" />
<use xlink:href="#f3_16" transform="matrix(10.4,0,0,10.4,152.7,542)" />
<use xlink:href="#f3_21" transform="matrix(10.4,0,0,10.4,162.4,542)" />
<use xlink:href="#f3_g" transform="matrix(10.4,0,0,10.4,171.2,542)" />
<use xlink:href="#f3_13" transform="matrix(10.4,0,0,10.4,180.6,542)" />
<use xlink:href="#f3_2h" transform="matrix(10.4,0,0,10.4,192.1,542)" />
<use xlink:href="#f3_g" transform="matrix(10.4,0,0,10.4,200.9,542)" />
<use xlink:href="#f3_11" transform="matrix(10.4,0,0,10.4,209.6,542)" />
<use xlink:href="#f3_28" transform="matrix(10.4,0,0,10.4,220.2,542)" />
<use xlink:href="#f3_1x" transform="matrix(10.4,0,0,10.4,228.6,542)" />
<use xlink:href="#f3_2a" transform="matrix(10.4,0,0,10.4,237.4,542)" />
<use xlink:href="#f3_20" transform="matrix(10.4,0,0,10.4,246.2,542)" />
<use xlink:href="#f3_1g" transform="matrix(10.4,0,0,10.4,260.2,542)" />
<use xlink:href="#f3_1y" transform="matrix(10.4,0,0,10.4,270.8,542)" />
<use xlink:href="#f3_g" transform="matrix(10.4,0,0,10.4,279.6,542)" />
<use xlink:href="#f3_2j" transform="matrix(10.4,0,0,10.4,288.9,542)" />
<use xlink:href="#f3_24" transform="matrix(10.4,0,0,10.4,300.1,542)" />
<use xlink:href="#f3_25" transform="matrix(10.4,0,0,10.4,308.9,542)" />
<use xlink:href="#f3_1z" transform="matrix(10.4,0,0,10.4,312.4,542)" />
<use xlink:href="#f3_24" transform="matrix(10.4,0,0,10.4,320.5,542)" />
<use xlink:href="#f3_29" transform="matrix(10.4,0,0,10.4,334.4,542)" />
<use xlink:href="#f3_21" transform="matrix(10.4,0,0,10.4,348,542)" />
<use xlink:href="#f3_2g" transform="matrix(10.4,0,0,10.4,356.8,542)" />
<use xlink:href="#f3_1x" transform="matrix(10.4,0,0,10.4,361,542)" />
<use xlink:href="#f3_28" transform="matrix(10.4,0,0,10.4,369.8,542)" />
<use xlink:href="#f3_c" transform="matrix(10.4,0,0,10.4,378.4,542)" />
<use xlink:href="#f3_2f" transform="matrix(10.4,0,0,10.4,383.7,542)" />
<use xlink:href="#f3_d" transform="matrix(10.4,0,0,10.4,391.8,542)" />
<use xlink:href="#f3_1z" transform="matrix(10.4,0,0,10.4,402,542)" />
<use xlink:href="#f3_1x" transform="matrix(10.4,0,0,10.4,410.1,542)" />
<use xlink:href="#f3_2a" transform="matrix(10.4,0,0,10.4,418.9,542)" />
<use xlink:href="#f3_2a" transform="matrix(10.4,0,0,10.4,432.8,542)" />
<use xlink:href="#f3_2b" transform="matrix(10.4,0,0,10.4,441.6,542)" />
<use xlink:href="#f3_2g" transform="matrix(10.4,0,0,10.4,450.4,542)" />
<use xlink:href="#f3_1y" transform="matrix(10.4,0,0,10.4,459.8,542)" />
<use xlink:href="#f3_21" transform="matrix(10.4,0,0,10.4,468.6,542)" />
<use xlink:href="#f3_2b" transform="matrix(10.4,0,0,10.4,482.5,542)" />
<use xlink:href="#f3_1y" transform="matrix(10.4,0,0,10.4,491.3,542)" />
<use xlink:href="#f3_2g" transform="matrix(10.4,0,0,10.4,500.1,542)" />
<use xlink:href="#f3_1x" transform="matrix(10.4,0,0,10.4,504.3,542)" />
<use xlink:href="#f3_25" transform="matrix(10.4,0,0,10.4,513.1,542)" />
<use xlink:href="#f3_2a" transform="matrix(10.4,0,0,10.4,516.6,542)" />
<use xlink:href="#f3_21" transform="matrix(10.4,0,0,10.4,525.4,542)" />
<use xlink:href="#f3_20" transform="matrix(10.4,0,0,10.4,534.2,542)" />
<use xlink:href="#f3_1y" transform="matrix(10.4,0,0,10.4,548,542)" />
<use xlink:href="#f3_2l" transform="matrix(10.4,0,0,10.4,556.8,542)" />
<use xlink:href="#f3_2f" transform="matrix(10.4,0,0,10.4,569.4,542)" />
<use xlink:href="#f3_29" transform="matrix(10.4,0,0,10.4,577.5,542)" />
<use xlink:href="#f3_21" transform="matrix(10.4,0,0,10.4,591,542)" />
<use xlink:href="#f3_28" transform="matrix(10.4,0,0,10.4,599.8,542)" />
<use xlink:href="#f3_2g" transform="matrix(10.4,0,0,10.4,603.3,542)" />
<use xlink:href="#f3_25" transform="matrix(10.4,0,0,10.4,607.7,542)" />
<use xlink:href="#f3_2a" transform="matrix(10.4,0,0,10.4,611.2,542)" />
<use xlink:href="#f3_23" transform="matrix(10.4,0,0,10.4,620,542)" />
<use xlink:href="#f3_i" transform="matrix(10.4,0,0,10.4,628.8,542)" />
<use xlink:href="#f3_1r" transform="matrix(10.4,0,0,10.4,558.6,571.9)" />
<use xlink:href="#f2_11" transform="matrix(10.4,0,0,10.4,563,571.9)" />
<use xlink:href="#f2_2a" transform="matrix(10.4,0,0,10.4,573.9,571.9)" />
<use xlink:href="#f2_2f" transform="matrix(10.4,0,0,10.4,583.6,571.9)" />
<use xlink:href="#f2_i" transform="matrix(10.4,0,0,10.4,592.4,571.9)" />
<use xlink:href="#f2_u" transform="matrix(10.4,0,0,10.4,603.4,571.9)" />
<use xlink:href="#f3_11" transform="matrix(10.4,0,0,10.4,614.6,571.9)" />
<use xlink:href="#f3_28" transform="matrix(10.4,0,0,10.4,625.2,571.9)" />
<use xlink:href="#f3_1t" transform="matrix(10.4,0,0,10.4,628.7,571.9)" />
<use xlink:href="#f3_p" transform="matrix(10.4,0,0,10.4,53.7,602)" />
<use xlink:href="#f3_i" transform="matrix(10.4,0,0,10.4,63.1,602)" />
<use xlink:href="#f3_1n" transform="matrix(10.4,0,0,10.4,97,602)" />
<use xlink:href="#f3_24" transform="matrix(10.4,0,0,10.4,113,602)" />
<use xlink:href="#f3_1x" transform="matrix(10.4,0,0,10.4,121.8,602)" />
<use xlink:href="#f3_2g" transform="matrix(10.4,0,0,10.4,130.6,602)" />
<use xlink:href="#f3_25" transform="matrix(10.4,0,0,10.4,142.8,602)" />
<use xlink:href="#f3_2f" transform="matrix(10.4,0,0,10.4,146.3,602)" />
<use xlink:href="#f3_2g" transform="matrix(10.4,0,0,10.4,162.3,602)" />
<use xlink:href="#f3_24" transform="matrix(10.4,0,0,10.4,166.7,602)" />
<use xlink:href="#f3_21" transform="matrix(10.4,0,0,10.4,175.5,602)" />
<use xlink:href="#f3_2g" transform="matrix(10.4,0,0,10.4,192.1,602)" />
<use xlink:href="#f3_24" transform="matrix(10.4,0,0,10.4,196.5,602)" />
<use xlink:href="#f3_21" transform="matrix(10.4,0,0,10.4,205.3,602)" />
<use xlink:href="#f3_2e" transform="matrix(10.4,0,0,10.4,214.1,602)" />
<use xlink:href="#f3_29" transform="matrix(10.4,0,0,10.4,219.5,602)" />
<use xlink:href="#f3_2b" transform="matrix(10.4,0,0,10.4,233,602)" />
<use xlink:href="#f3_20" transform="matrix(10.4,0,0,10.4,241.8,602)" />
<use xlink:href="#f3_2l" transform="matrix(10.4,0,0,10.4,250.6,602)" />
<use xlink:href="#f3_2a" transform="matrix(10.4,0,0,10.4,258.1,602)" />
<use xlink:href="#f3_1x" transform="matrix(10.4,0,0,10.4,266.9,602)" />
<use xlink:href="#f3_29" transform="matrix(10.4,0,0,10.4,275.7,602)" />
<use xlink:href="#f3_25" transform="matrix(10.4,0,0,10.4,289.3,602)" />
<use xlink:href="#f3_1z" transform="matrix(10.4,0,0,10.4,292.8,602)" />
<use xlink:href="#f3_1z" transform="matrix(10.4,0,0,10.4,308.7,602)" />
<use xlink:href="#f3_2e" transform="matrix(10.4,0,0,10.4,316.8,602)" />
<use xlink:href="#f3_25" transform="matrix(10.4,0,0,10.4,322.1,602)" />
<use xlink:href="#f3_2g" transform="matrix(10.4,0,0,10.4,325.6,602)" />
<use xlink:href="#f3_21" transform="matrix(10.4,0,0,10.4,330,602)" />
<use xlink:href="#f3_2e" transform="matrix(10.4,0,0,10.4,338.8,602)" />
<use xlink:href="#f3_25" transform="matrix(10.4,0,0,10.4,344.1,602)" />
<use xlink:href="#f3_1x" transform="matrix(10.4,0,0,10.4,347.6,602)" />
<use xlink:href="#f3_22" transform="matrix(10.4,0,0,10.4,364.1,602)" />
<use xlink:href="#f3_2b" transform="matrix(10.4,0,0,10.4,368.7,602)" />
<use xlink:href="#f3_2e" transform="matrix(10.4,0,0,10.4,377.5,602)" />
<use xlink:href="#f3_2g" transform="matrix(10.4,0,0,10.4,390.7,602)" />
<use xlink:href="#f3_24" transform="matrix(10.4,0,0,10.4,395.1,602)" />
<use xlink:href="#f3_21" transform="matrix(10.4,0,0,10.4,403.9,602)" />
<use xlink:href="#f3_22" transform="matrix(10.4,0,0,10.4,420.6,602)" />
<use xlink:href="#f3_21" transform="matrix(10.4,0,0,10.4,425.1,602)" />
<use xlink:href="#f3_1x" transform="matrix(10.4,0,0,10.4,433.9,602)" />
<use xlink:href="#f3_2f" transform="matrix(10.4,0,0,10.4,442.7,602)" />
<use xlink:href="#f3_25" transform="matrix(10.4,0,0,10.4,450.8,602)" />
<use xlink:href="#f3_1y" transform="matrix(10.4,0,0,10.4,454.3,602)" />
<use xlink:href="#f3_25" transform="matrix(10.4,0,0,10.4,463.1,602)" />
<use xlink:href="#f3_28" transform="matrix(10.4,0,0,10.4,466.6,602)" />
<use xlink:href="#f3_25" transform="matrix(10.4,0,0,10.4,470.1,602)" />
<use xlink:href="#f3_2g" transform="matrix(10.4,0,0,10.4,473.5,602)" />
<use xlink:href="#f3_2l" transform="matrix(10.4,0,0,10.4,477.9,602)" />
<use xlink:href="#f3_2b" transform="matrix(10.4,0,0,10.4,493.3,602)" />
<use xlink:href="#f3_22" transform="matrix(10.4,0,0,10.4,502.1,602)" />
<use xlink:href="#f3_1x" transform="matrix(10.4,0,0,10.4,514.6,602)" />
<use xlink:href="#f3_2e" transform="matrix(10.4,0,0,10.4,531.3,602)" />
<use xlink:href="#f3_21" transform="matrix(10.4,0,0,10.4,536.6,602)" />
<use xlink:href="#f3_1x" transform="matrix(10.4,0,0,10.4,545.4,602)" />
<use xlink:href="#f3_1z" transform="matrix(10.4,0,0,10.4,554.2,602)" />
<use xlink:href="#f3_2g" transform="matrix(10.4,0,0,10.4,562.3,602)" />
<use xlink:href="#f3_25" transform="matrix(10.4,0,0,10.4,566.7,602)" />
<use xlink:href="#f3_2b" transform="matrix(10.4,0,0,10.4,570.1,602)" />
<use xlink:href="#f3_2a" transform="matrix(10.4,0,0,10.4,578.9,602)" />
<use xlink:href="#f3_z" transform="matrix(10.4,0,0,10.4,587.7,602)" />
<use xlink:href="#f3_1r" transform="matrix(10.4,0,0,10.4,311.1,632)" />
<use xlink:href="#f2_11" transform="matrix(10.4,0,0,10.4,315.5,632)" />
<use xlink:href="#f2_2a" transform="matrix(10.4,0,0,10.4,326.4,632)" />
<use xlink:href="#f2_2f" transform="matrix(10.4,0,0,10.4,336.1,632)" />
<use xlink:href="#f2_i" transform="matrix(10.4,0,0,10.4,344.9,632)" />
<use xlink:href="#f2_u" transform="matrix(10.4,0,0,10.4,356.6,632)" />
<use xlink:href="#f4_14" transform="matrix(10.4,0,0,10.4,369.4,632)" />
<use xlink:href="#f3_17" transform="matrix(10.4,0,0,10.4,379.2,632)" />
<use xlink:href="#f3_2f" transform="matrix(10.4,0,0,10.4,399,632)" />
<use xlink:href="#f3_24" transform="matrix(10.4,0,0,10.4,407,632)" />
<use xlink:href="#f3_2b" transform="matrix(10.4,0,0,10.4,415.8,632)" />
<use xlink:href="#f3_2h" transform="matrix(10.4,0,0,10.4,424.6,632)" />
<use xlink:href="#f3_28" transform="matrix(10.4,0,0,10.4,433.4,632)" />
<use xlink:href="#f3_20" transform="matrix(10.4,0,0,10.4,436.9,632)" />
<use xlink:href="#f3_1y" transform="matrix(10.4,0,0,10.4,453,632)" />
<use xlink:href="#f3_21" transform="matrix(10.4,0,0,10.4,461.8,632)" />
<use xlink:href="#f3_1jz" transform="matrix(10.4,0,0,10.4,478,632)" />
<use xlink:href="#f3_2i" transform="matrix(10.4,0,0,10.4,486.8,632)" />
<use xlink:href="#f3_21" transform="matrix(10.4,0,0,10.4,494.6,632)" />
<use xlink:href="#f3_2b" transform="matrix(10.4,0,0,10.4,510.8,632)" />
<use xlink:href="#f3_2e" transform="matrix(10.4,0,0,10.4,519.6,632)" />
<use xlink:href="#f3_28" transform="matrix(10.4,0,0,10.4,532.2,632)" />
<use xlink:href="#f3_2b" transform="matrix(10.4,0,0,10.4,535.7,632)" />
<use xlink:href="#f3_23" transform="matrix(10.4,0,0,10.4,544.5,632)" />
<use xlink:href="#f3_1b" transform="matrix(10.4,0,0,10.4,560.6,632)" />
<use xlink:href="#f3_x" transform="matrix(10.4,0,0,10.4,578.6,632)" />
<use xlink:href="#f3_f" transform="matrix(10.4,0,0,10.4,595.3,632)" />
<use xlink:href="#f3_2i" transform="matrix(10.4,0,0,10.4,612,632)" />
<use xlink:href="#f3_21" transform="matrix(10.4,0,0,10.4,619.8,632)" />
<use xlink:href="#f3_1t" transform="matrix(10.4,0,0,10.4,628.6,632)" />
<use xlink:href="#f3_s" transform="matrix(10.4,0,0,10.4,53.7,662.1)" />
<use xlink:href="#f3_i" transform="matrix(10.4,0,0,10.4,63.1,662.1)" />
<use xlink:href="#f3_1n" transform="matrix(10.4,0,0,10.4,97,662.1)" />
<use xlink:href="#f3_24" transform="matrix(10.4,0,0,10.4,113,662.1)" />
<use xlink:href="#f3_2l" transform="matrix(10.4,0,0,10.4,121.8,662.1)" />
<use xlink:href="#f3_1z" transform="matrix(10.4,0,0,10.4,137.1,662.1)" />
<use xlink:href="#f3_1x" transform="matrix(10.4,0,0,10.4,145.2,662.1)" />
<use xlink:href="#f3_2a" transform="matrix(10.4,0,0,10.4,154,662.1)" />
<use xlink:href="#f3_1k5" transform="matrix(10.4,0,0,10.4,162.8,662.1)" />
<use xlink:href="#f3_2g" transform="matrix(10.4,0,0,10.4,166.3,662.1)" />
<use xlink:href="#f3_1x" transform="matrix(10.4,0,0,10.4,178.6,662.1)" />
<use xlink:href="#f3_28" transform="matrix(10.4,0,0,10.4,187.4,662.1)" />
<use xlink:href="#f3_2h" transform="matrix(10.4,0,0,10.4,190.9,662.1)" />
<use xlink:href="#f3_29" transform="matrix(10.4,0,0,10.4,199.7,662.1)" />
<use xlink:href="#f3_25" transform="matrix(10.4,0,0,10.4,213.2,662.1)" />
<use xlink:href="#f3_2a" transform="matrix(10.4,0,0,10.4,216.7,662.1)" />
<use xlink:href="#f3_25" transform="matrix(10.4,0,0,10.4,225.5,662.1)" />
<use xlink:href="#f3_2h" transform="matrix(10.4,0,0,10.4,229,662.1)" />
<use xlink:href="#f3_29" transform="matrix(10.4,0,0,10.4,237.8,662.1)" />
<use xlink:href="#f3_1y" transform="matrix(10.4,0,0,10.4,259.2,662.1)" />
<use xlink:href="#f3_21" transform="matrix(10.4,0,0,10.4,268,662.1)" />
<use xlink:href="#f3_2e" transform="matrix(10.4,0,0,10.4,284.7,662.1)" />
<use xlink:href="#f3_21" transform="matrix(10.4,0,0,10.4,290,662.1)" />
<use xlink:href="#f3_20" transform="matrix(10.4,0,0,10.4,298.8,662.1)" />
<use xlink:href="#f3_2h" transform="matrix(10.4,0,0,10.4,307.6,662.1)" />
<use xlink:href="#f3_1z" transform="matrix(10.4,0,0,10.4,316.4,662.1)" />
<use xlink:href="#f3_21" transform="matrix(10.4,0,0,10.4,324.5,662.1)" />
<use xlink:href="#f3_20" transform="matrix(10.4,0,0,10.4,333.3,662.1)" />
<use xlink:href="#f3_1y" transform="matrix(10.4,0,0,10.4,350,662.1)" />
<use xlink:href="#f3_2l" transform="matrix(10.4,0,0,10.4,358.8,662.1)" />
<use xlink:href="#f3_1z" transform="matrix(10.4,0,0,10.4,374.2,662.1)" />
<use xlink:href="#f3_1x" transform="matrix(10.4,0,0,10.4,382.2,662.1)" />
<use xlink:href="#f3_2e" transform="matrix(10.4,0,0,10.4,391,662.1)" />
<use xlink:href="#f3_1y" transform="matrix(10.4,0,0,10.4,396.3,662.1)" />
<use xlink:href="#f3_2b" transform="matrix(10.4,0,0,10.4,405.2,662.1)" />
<use xlink:href="#f3_2a" transform="matrix(10.4,0,0,10.4,414,662.1)" />
<use xlink:href="#f3_z" transform="matrix(10.4,0,0,10.4,422.8,662.1)" />
<use xlink:href="#f3_1r" transform="matrix(10.4,0,0,10.4,97,692)" />
<use xlink:href="#f2_18" transform="matrix(10.4,0,0,10.4,101.4,692)" />
<use xlink:href="#f2_25" transform="matrix(10.4,0,0,10.4,113,692)" />
<use xlink:href="#f2_2a" transform="matrix(10.4,0,0,10.4,117.4,692)" />
<use xlink:href="#f2_2g" transform="matrix(10.4,0,0,10.4,127.1,692)" />
<use xlink:href="#f2_u" transform="matrix(10.4,0,0,10.4,140.3,692)" />
<use xlink:href="#f3_11" transform="matrix(10.4,0,0,10.4,152.9,692)" />
<use xlink:href="#f3_28" transform="matrix(10.4,0,0,10.4,163.6,692)" />
<use xlink:href="#f3_25" transform="matrix(10.4,0,0,10.4,175.1,692)" />
<use xlink:href="#f3_2f" transform="matrix(10.4,0,0,10.4,178.6,692)" />
<use xlink:href="#f3_2f" transform="matrix(10.4,0,0,10.4,194.7,692)" />
<use xlink:href="#f3_2g" transform="matrix(10.4,0,0,10.4,202.8,692)" />
<use xlink:href="#f3_2e" transform="matrix(10.4,0,0,10.4,207.2,692)" />
<use xlink:href="#f3_2b" transform="matrix(10.4,0,0,10.4,212.5,692)" />
<use xlink:href="#f3_2a" transform="matrix(10.4,0,0,10.4,221.3,692)" />
<use xlink:href="#f3_23" transform="matrix(10.4,0,0,10.4,230.1,692)" />
<use xlink:href="#f3_21" transform="matrix(10.4,0,0,10.4,238.9,692)" />
<use xlink:href="#f3_2e" transform="matrix(10.4,0,0,10.4,247.7,692)" />
<use xlink:href="#f3_2e" transform="matrix(10.4,0,0,10.4,260.9,692)" />
<use xlink:href="#f3_21" transform="matrix(10.4,0,0,10.4,266.2,692)" />
<use xlink:href="#f3_20" transform="matrix(10.4,0,0,10.4,275,692)" />
<use xlink:href="#f3_2h" transform="matrix(10.4,0,0,10.4,283.8,692)" />
<use xlink:href="#f3_1z" transform="matrix(10.4,0,0,10.4,292.6,692)" />
<use xlink:href="#f3_25" transform="matrix(10.4,0,0,10.4,300.7,692)" />
<use xlink:href="#f3_2a" transform="matrix(10.4,0,0,10.4,304.2,692)" />
<use xlink:href="#f3_23" transform="matrix(10.4,0,0,10.4,313,692)" />
<use xlink:href="#f3_1x" transform="matrix(10.4,0,0,10.4,329.8,692)" />
<use xlink:href="#f3_23" transform="matrix(10.4,0,0,10.4,338.6,692)" />
<use xlink:href="#f3_21" transform="matrix(10.4,0,0,10.4,347.4,692)" />
<use xlink:href="#f3_2a" transform="matrix(10.4,0,0,10.4,356.2,692)" />
<use xlink:href="#f3_2g" transform="matrix(10.4,0,0,10.4,365,692)" />
<use xlink:href="#f3_2g" transform="matrix(10.4,0,0,10.4,377.5,692)" />
<use xlink:href="#f3_24" transform="matrix(10.4,0,0,10.4,381.9,692)" />
<use xlink:href="#f3_1x" transform="matrix(10.4,0,0,10.4,390.7,692)" />
<use xlink:href="#f3_2a" transform="matrix(10.4,0,0,10.4,399.5,692)" />
<use xlink:href="#f3_1z" transform="matrix(10.4,0,0,10.4,416.3,692)" />
<use xlink:href="#f3_1x" transform="matrix(10.4,0,0,10.4,424.4,692)" />
<use xlink:href="#f3_2e" transform="matrix(10.4,0,0,10.4,433.2,692)" />
<use xlink:href="#f3_1y" transform="matrix(10.4,0,0,10.4,438.5,692)" />
<use xlink:href="#f3_2b" transform="matrix(10.4,0,0,10.4,447.3,692)" />
<use xlink:href="#f3_2a" transform="matrix(10.4,0,0,10.4,456.1,692)" />
<use xlink:href="#f3_1t" transform="matrix(10.4,0,0,10.4,464.9,692)" />
<use xlink:href="#f3_t" transform="matrix(10.4,0,0,10.4,53.7,722.1)" />
<use xlink:href="#f3_i" transform="matrix(10.4,0,0,10.4,63.1,722.1)" />
<use xlink:href="#f3_1e" transform="matrix(10.4,0,0,10.4,97,722.1)" />
<use xlink:href="#f3_1x" transform="matrix(10.4,0,0,10.4,108.6,722.1)" />
<use xlink:href="#f3_29" transform="matrix(10.4,0,0,10.4,117.4,722.1)" />
<use xlink:href="#f3_21" transform="matrix(10.4,0,0,10.4,130.9,722.1)" />
<use xlink:href="#f3_2g" transform="matrix(10.4,0,0,10.4,147,722.1)" />
<use xlink:href="#f3_24" transform="matrix(10.4,0,0,10.4,151.4,722.1)" />
<use xlink:href="#f3_21" transform="matrix(10.4,0,0,10.4,160.2,722.1)" />
<use xlink:href="#f3_29" transform="matrix(10.4,0,0,10.4,176.4,722.1)" />
<use xlink:href="#f3_2b" transform="matrix(10.4,0,0,10.4,189.9,722.1)" />
<use xlink:href="#f3_2f" transform="matrix(10.4,0,0,10.4,198.7,722.1)" />
<use xlink:href="#f3_2g" transform="matrix(10.4,0,0,10.4,206.8,722.1)" />
<use xlink:href="#f3_25" transform="matrix(10.4,0,0,10.4,218.7,722.1)" />
<use xlink:href="#f3_29" transform="matrix(10.4,0,0,10.4,222.2,722.1)" />
<use xlink:href="#f3_2c" transform="matrix(10.4,0,0,10.4,235.8,722.1)" />
<use xlink:href="#f3_2b" transform="matrix(10.4,0,0,10.4,244.6,722.1)" />
<use xlink:href="#f3_2e" transform="matrix(10.4,0,0,10.4,253.4,722.1)" />
<use xlink:href="#f3_2g" transform="matrix(10.4,0,0,10.4,258.7,722.1)" />
<use xlink:href="#f3_1x" transform="matrix(10.4,0,0,10.4,263.1,722.1)" />
<use xlink:href="#f3_2a" transform="matrix(10.4,0,0,10.4,271.9,722.1)" />
<use xlink:href="#f3_2g" transform="matrix(10.4,0,0,10.4,280.7,722.1)" />
<use xlink:href="#f3_22" transform="matrix(10.4,0,0,10.4,292.4,722.1)" />
<use xlink:href="#f3_2b" transform="matrix(10.4,0,0,10.4,297,722.1)" />
<use xlink:href="#f3_2e" transform="matrix(10.4,0,0,10.4,305.8,722.1)" />
<use xlink:href="#f3_29" transform="matrix(10.4,0,0,10.4,311.1,722.1)" />
<use xlink:href="#f3_2b" transform="matrix(10.4,0,0,10.4,332,722.1)" />
<use xlink:href="#f3_22" transform="matrix(10.4,0,0,10.4,340.8,722.1)" />
<use xlink:href="#f3_25" transform="matrix(10.4,0,0,10.4,352.7,722.1)" />
<use xlink:href="#f3_2e" transform="matrix(10.4,0,0,10.4,356.2,722.1)" />
<use xlink:href="#f3_2b" transform="matrix(10.4,0,0,10.4,361.5,722.1)" />
<use xlink:href="#f3_2a" transform="matrix(10.4,0,0,10.4,370.3,722.1)" />
<use xlink:href="#f3_i" transform="matrix(10.4,0,0,10.4,379.1,722.1)" />
<use xlink:href="#f3_1d" transform="matrix(10.4,0,0,10.4,390.9,722.1)" />
<use xlink:href="#f3_21" transform="matrix(10.4,0,0,10.4,403.9,722.1)" />
<use xlink:href="#f3_2a" transform="matrix(10.4,0,0,10.4,412.7,722.1)" />
<use xlink:href="#f3_2g" transform="matrix(10.4,0,0,10.4,421.5,722.1)" />
<use xlink:href="#f3_25" transform="matrix(10.4,0,0,10.4,425.9,722.1)" />
<use xlink:href="#f3_2b" transform="matrix(10.4,0,0,10.4,429.4,722.1)" />
<use xlink:href="#f3_2a" transform="matrix(10.4,0,0,10.4,438.2,722.1)" />
<use xlink:href="#f3_25" transform="matrix(10.4,0,0,10.4,454.5,722.1)" />
<use xlink:href="#f3_2g" transform="matrix(10.4,0,0,10.4,457.9,722.1)" />
<use xlink:href="#f3_2f" transform="matrix(10.4,0,0,10.4,462.3,722.1)" />
<use xlink:href="#f3_2b" transform="matrix(10.4,0,0,10.4,477.7,722.1)" />
<use xlink:href="#f3_2a" transform="matrix(10.4,0,0,10.4,486.5,722.1)" />
<use xlink:href="#f3_21" transform="matrix(10.4,0,0,10.4,495.3,722.1)" />
<use xlink:href="#f3_2h" transform="matrix(10.4,0,0,10.4,511.5,722.1)" />
<use xlink:href="#f3_2f" transform="matrix(10.4,0,0,10.4,520.3,722.1)" />
<use xlink:href="#f3_21" transform="matrix(10.4,0,0,10.4,528.3,722.1)" />
<use xlink:href="#f3_i" transform="matrix(10.4,0,0,10.4,537.1,722.1)" />
<use xlink:href="#f3_1r" transform="matrix(10.4,0,0,10.4,97,752.1)" />
<use xlink:href="#f2_11" transform="matrix(10.4,0,0,10.4,101.4,752.1)" />
<use xlink:href="#f2_2a" transform="matrix(10.4,0,0,10.4,112.2,752.1)" />
<use xlink:href="#f2_2f" transform="matrix(10.4,0,0,10.4,121.9,752.1)" />
<use xlink:href="#f2_i" transform="matrix(10.4,0,0,10.4,130.7,752.1)" />
<use xlink:href="#f2_u" transform="matrix(10.4,0,0,10.4,139.9,752.1)" />
<use xlink:href="#f3_13" transform="matrix(10.4,0,0,10.4,150.4,752.1)" />
<use xlink:href="#f3_1x" transform="matrix(10.4,0,0,10.4,161.9,752.1)" />
<use xlink:href="#f3_2f" transform="matrix(10.4,0,0,10.4,170.7,752.1)" />
<use xlink:href="#f3_2g" transform="matrix(10.4,0,0,10.4,178.8,752.1)" />
<use xlink:href="#f3_25" transform="matrix(10.4,0,0,10.4,187.9,752.1)" />
<use xlink:href="#f3_2e" transform="matrix(10.4,0,0,10.4,191.4,752.1)" />
<use xlink:href="#f3_2b" transform="matrix(10.4,0,0,10.4,196.7,752.1)" />
<use xlink:href="#f3_2a" transform="matrix(10.4,0,0,10.4,205.5,752.1)" />
<use xlink:href="#f3_25" transform="matrix(10.4,0,0,10.4,219.3,752.1)" />
<use xlink:href="#f3_2f" transform="matrix(10.4,0,0,10.4,222.8,752.1)" />
<use xlink:href="#f3_2h" transform="matrix(10.4,0,0,10.4,235.6,752.1)" />
<use xlink:href="#f3_2f" transform="matrix(10.4,0,0,10.4,244.4,752.1)" />
<use xlink:href="#f3_21" transform="matrix(10.4,0,0,10.4,252.5,752.1)" />
<use xlink:href="#f3_20" transform="matrix(10.4,0,0,10.4,261.3,752.1)" />
<use xlink:href="#f3_22" transform="matrix(10.4,0,0,10.4,275,752.1)" />
<use xlink:href="#f3_2b" transform="matrix(10.4,0,0,10.4,279.6,752.1)" />
<use xlink:href="#f3_2e" transform="matrix(10.4,0,0,10.4,288.4,752.1)" />
<use xlink:href="#f3_29" transform="matrix(10.4,0,0,10.4,298.5,752.1)" />
<use xlink:href="#f3_1x" transform="matrix(10.4,0,0,10.4,312,752.1)" />
<use xlink:href="#f3_27" transform="matrix(10.4,0,0,10.4,320.8,752.1)" />
<use xlink:href="#f3_25" transform="matrix(10.4,0,0,10.4,328.9,752.1)" />
<use xlink:href="#f3_2a" transform="matrix(10.4,0,0,10.4,332.4,752.1)" />
<use xlink:href="#f3_23" transform="matrix(10.4,0,0,10.4,341.2,752.1)" />
<use xlink:href="#f3_23" transform="matrix(10.4,0,0,10.4,354.9,752.1)" />
<use xlink:href="#f3_2h" transform="matrix(10.4,0,0,10.4,363.7,752.1)" />
<use xlink:href="#f3_2g" transform="matrix(10.4,0,0,10.4,372.5,752.1)" />
<use xlink:href="#f3_2g" transform="matrix(10.4,0,0,10.4,376.9,752.1)" />
<use xlink:href="#f3_21" transform="matrix(10.4,0,0,10.4,381.3,752.1)" />
<use xlink:href="#f3_2e" transform="matrix(10.4,0,0,10.4,390.1,752.1)" />
<use xlink:href="#f3_2c" transform="matrix(10.4,0,0,10.4,400.2,752.1)" />
<use xlink:href="#f3_25" transform="matrix(10.4,0,0,10.4,409,752.1)" />
<use xlink:href="#f3_2c" transform="matrix(10.4,0,0,10.4,412.5,752.1)" />
<use xlink:href="#f3_21" transform="matrix(10.4,0,0,10.4,421.3,752.1)" />
<use xlink:href="#f3_2f" transform="matrix(10.4,0,0,10.4,430.1,752.1)" />
<use xlink:href="#f3_g" transform="matrix(10.4,0,0,10.4,438.2,752.1)" />
<use xlink:href="#f3_1z" transform="matrix(10.4,0,0,10.4,447.5,752.1)" />
<use xlink:href="#f3_1x" transform="matrix(10.4,0,0,10.4,455.6,752.1)" />
<use xlink:href="#f3_2f" transform="matrix(10.4,0,0,10.4,464.4,752.1)" />
<use xlink:href="#f3_2g" transform="matrix(10.4,0,0,10.4,472.4,752.1)" />
<use xlink:href="#f3_25" transform="matrix(10.4,0,0,10.4,476.8,752.1)" />
<use xlink:href="#f3_2a" transform="matrix(10.4,0,0,10.4,480.3,752.1)" />
<use xlink:href="#f3_23" transform="matrix(10.4,0,0,10.4,489.1,752.1)" />
<use xlink:href="#f3_2f" transform="matrix(10.4,0,0,10.4,497.9,752.1)" />
<use xlink:href="#f3_g" transform="matrix(10.4,0,0,10.4,506,752.1)" />
<use xlink:href="#f3_2e" transform="matrix(10.4,0,0,10.4,515.1,752.1)" />
<use xlink:href="#f3_1x" transform="matrix(10.4,0,0,10.4,520.5,752.1)" />
<use xlink:href="#f3_25" transform="matrix(10.4,0,0,10.4,529.3,752.1)" />
<use xlink:href="#f3_28" transform="matrix(10.4,0,0,10.4,532.7,752.1)" />
<use xlink:href="#f3_2j" transform="matrix(10.4,0,0,10.4,536.2,752.1)" />
<use xlink:href="#f3_1x" transform="matrix(10.4,0,0,10.4,547.4,752.1)" />
<use xlink:href="#f3_2l" transform="matrix(10.4,0,0,10.4,556.2,752.1)" />
<use xlink:href="#f3_2f" transform="matrix(10.4,0,0,10.4,568.7,752.1)" />
<use xlink:href="#f3_28" transform="matrix(10.4,0,0,10.4,576.7,752.1)" />
<use xlink:href="#f3_21" transform="matrix(10.4,0,0,10.4,580.2,752.1)" />
<use xlink:href="#f3_21" transform="matrix(10.4,0,0,10.4,589,752.1)" />
<use xlink:href="#f3_2c" transform="matrix(10.4,0,0,10.4,597.8,752.1)" />
<use xlink:href="#f3_21" transform="matrix(10.4,0,0,10.4,606.6,752.1)" />
<use xlink:href="#f3_2e" transform="matrix(10.4,0,0,10.4,615.4,752.1)" />
<use xlink:href="#f3_2f" transform="matrix(10.4,0,0,10.4,620.7,752.1)" />
<use xlink:href="#f3_g" transform="matrix(10.4,0,0,10.4,628.8,752.1)" />
<use xlink:href="#f3_2g" transform="matrix(10.4,0,0,10.4,97,773)" />
<use xlink:href="#f3_2b" transform="matrix(10.4,0,0,10.4,101.4,773)" />
<use xlink:href="#f3_2l" transform="matrix(10.4,0,0,10.4,110.2,773)" />
<use xlink:href="#f3_2f" transform="matrix(10.4,0,0,10.4,117.7,773)" />
<use xlink:href="#f3_21" transform="matrix(10.4,0,0,10.4,134.6,773)" />
<use xlink:href="#f3_2g" transform="matrix(10.4,0,0,10.4,143.4,773)" />
<use xlink:href="#f3_1z" transform="matrix(10.4,0,0,10.4,147.8,773)" />
<use xlink:href="#f3_i" transform="matrix(10.4,0,0,10.4,155.9,773)" />
<use xlink:href="#f3_1t" transform="matrix(10.4,0,0,10.4,160.3,773)" />
<use xlink:href="#f3_l" transform="matrix(10.4,0,0,10.4,53.7,803.1)" />
<use xlink:href="#f3_k" transform="matrix(10.4,0,0,10.4,62.9,803.1)" />
<use xlink:href="#f3_i" transform="matrix(10.4,0,0,10.4,72.3,803.1)" />
<use xlink:href="#f3_1e" transform="matrix(10.4,0,0,10.4,97,803.1)" />
<use xlink:href="#f3_1x" transform="matrix(10.4,0,0,10.4,108.6,803.1)" />
<use xlink:href="#f3_29" transform="matrix(10.4,0,0,10.4,117.4,803.1)" />
<use xlink:href="#f3_21" transform="matrix(10.4,0,0,10.4,130.9,803.1)" />
<use xlink:href="#f3_2g" transform="matrix(10.4,0,0,10.4,147.2,803.1)" />
<use xlink:href="#f3_24" transform="matrix(10.4,0,0,10.4,151.6,803.1)" />
<use xlink:href="#f3_21" transform="matrix(10.4,0,0,10.4,160.4,803.1)" />
<use xlink:href="#f3_25" transform="matrix(10.4,0,0,10.4,176.9,803.1)" />
<use xlink:href="#f3_29" transform="matrix(10.4,0,0,10.4,180.4,803.1)" />
<use xlink:href="#f3_2c" transform="matrix(10.4,0,0,10.4,194,803.1)" />
<use xlink:href="#f3_2h" transform="matrix(10.4,0,0,10.4,202.8,803.1)" />
<use xlink:href="#f3_2e" transform="matrix(10.4,0,0,10.4,211.6,803.1)" />
<use xlink:href="#f3_25" transform="matrix(10.4,0,0,10.4,216.9,803.1)" />
<use xlink:href="#f3_2g" transform="matrix(10.4,0,0,10.4,220.4,803.1)" />
<use xlink:href="#f3_25" transform="matrix(10.4,0,0,10.4,224.8,803.1)" />
<use xlink:href="#f3_21" transform="matrix(10.4,0,0,10.4,228.3,803.1)" />
<use xlink:href="#f3_2f" transform="matrix(10.4,0,0,10.4,237.1,803.1)" />
<use xlink:href="#f3_2c" transform="matrix(10.4,0,0,10.4,252.6,803.1)" />
<use xlink:href="#f3_2e" transform="matrix(10.4,0,0,10.4,261.4,803.1)" />
<use xlink:href="#f3_21" transform="matrix(10.4,0,0,10.4,266.7,803.1)" />
<use xlink:href="#f3_2f" transform="matrix(10.4,0,0,10.4,275.6,803.1)" />
<use xlink:href="#f3_21" transform="matrix(10.4,0,0,10.4,283.6,803.1)" />
<use xlink:href="#f3_2a" transform="matrix(10.4,0,0,10.4,292.4,803.1)" />
<use xlink:href="#f3_2g" transform="matrix(10.4,0,0,10.4,301.2,803.1)" />
<use xlink:href="#f3_25" transform="matrix(10.4,0,0,10.4,313.1,803.1)" />
<use xlink:href="#f3_2a" transform="matrix(10.4,0,0,10.4,316.6,803.1)" />
<use xlink:href="#f3_1y" transform="matrix(10.4,0,0,10.4,333.1,803.1)" />
<use xlink:href="#f3_1x" transform="matrix(10.4,0,0,10.4,341.9,803.1)" />
<use xlink:href="#f3_2h" transform="matrix(10.4,0,0,10.4,350.7,803.1)" />
<use xlink:href="#f3_2k" transform="matrix(10.4,0,0,10.4,359.5,803.1)" />
<use xlink:href="#f3_25" transform="matrix(10.4,0,0,10.4,367.4,803.1)" />
<use xlink:href="#f3_2g" transform="matrix(10.4,0,0,10.4,370.9,803.1)" />
<use xlink:href="#f3_21" transform="matrix(10.4,0,0,10.4,375.3,803.1)" />
<use xlink:href="#f3_2b" transform="matrix(10.4,0,0,10.4,391.6,803.1)" />
<use xlink:href="#f3_2e" transform="matrix(10.4,0,0,10.4,400.4,803.1)" />
<use xlink:href="#f3_21" transform="matrix(10.4,0,0,10.4,405.7,803.1)" />
<use xlink:href="#f3_i" transform="matrix(10.4,0,0,10.4,414.5,803.1)" />
<use xlink:href="#f3_1r" transform="matrix(10.4,0,0,10.4,407.4,833)" />
<use xlink:href="#f2_11" transform="matrix(10.4,0,0,10.4,411.8,833)" />
<use xlink:href="#f2_2a" transform="matrix(10.4,0,0,10.4,422.6,833)" />
<use xlink:href="#f2_2f" transform="matrix(10.4,0,0,10.4,432.3,833)" />
<use xlink:href="#f2_i" transform="matrix(10.4,0,0,10.4,441.1,833)" />
<use xlink:href="#f2_u" transform="matrix(10.4,0,0,10.4,453.4,833)" />
<use xlink:href="#f3_1j" transform="matrix(10.4,0,0,10.4,466.8,833)" />
<use xlink:href="#f3_25" transform="matrix(10.4,0,0,10.4,477.4,833)" />
<use xlink:href="#f3_1f" transform="matrix(10.4,0,0,10.4,480.9,833)" />
<use xlink:href="#f3_m" transform="matrix(7.4,0,0,7.4,493.4,838.3)" />
<use xlink:href="#f3_g" transform="matrix(10.4,0,0,10.4,499.6,833)" />
<use xlink:href="#f3_16" transform="matrix(10.4,0,0,10.4,511.9,833)" />
<use xlink:href="#f3_21" transform="matrix(10.4,0,0,10.4,521.6,833)" />
<use xlink:href="#f3_m" transform="matrix(7.4,0,0,7.4,530.4,838.3)" />
<use xlink:href="#f3_1f" transform="matrix(10.4,0,0,10.4,536.6,833)" />
<use xlink:href="#f3_n" transform="matrix(7.4,0,0,7.4,549.1,838.3)" />
<use xlink:href="#f3_1x" transform="matrix(10.4,0,0,10.4,563.2,833)" />
<use xlink:href="#f3_2a" transform="matrix(10.4,0,0,10.4,572,833)" />
<use xlink:href="#f3_20" transform="matrix(10.4,0,0,10.4,580.8,833)" />
<use xlink:href="#f3_1k" transform="matrix(10.4,0,0,10.4,597.1,833)" />
<use xlink:href="#f3_25" transform="matrix(10.4,0,0,10.4,606.5,833)" />
<use xlink:href="#f3_1f" transform="matrix(10.4,0,0,10.4,610,833)" />
<use xlink:href="#f3_m" transform="matrix(7.4,0,0,7.4,622.4,838.3)" />
<use xlink:href="#f3_1t" transform="matrix(10.4,0,0,10.4,628.7,833)" />
<use xlink:href="#f3_l" transform="matrix(10.4,0,0,10.4,53.7,863)" />
<use xlink:href="#f3_l" transform="matrix(10.4,0,0,10.4,61.8,863)" />
<use xlink:href="#f3_i" transform="matrix(10.4,0,0,10.4,71.2,863)" />
<use xlink:href="#f3_1n" transform="matrix(10.4,0,0,10.4,97,863)" />
<use xlink:href="#f3_24" transform="matrix(10.4,0,0,10.4,113,863)" />
<use xlink:href="#f3_1x" transform="matrix(10.4,0,0,10.4,121.8,863)" />
<use xlink:href="#f3_2g" transform="matrix(10.4,0,0,10.4,130.6,863)" />
<use xlink:href="#f3_25" transform="matrix(10.4,0,0,10.4,142.5,863)" />
<use xlink:href="#f3_2f" transform="matrix(10.4,0,0,10.4,146,863)" />
<use xlink:href="#f3_2g" transform="matrix(10.4,0,0,10.4,161.7,863)" />
<use xlink:href="#f3_24" transform="matrix(10.4,0,0,10.4,166.1,863)" />
<use xlink:href="#f3_21" transform="matrix(10.4,0,0,10.4,174.9,863)" />
<use xlink:href="#f3_1z" transform="matrix(10.4,0,0,10.4,191.2,863)" />
<use xlink:href="#f3_2b" transform="matrix(10.4,0,0,10.4,199.3,863)" />
<use xlink:href="#f3_29" transform="matrix(10.4,0,0,10.4,208.1,863)" />
<use xlink:href="#f3_2c" transform="matrix(10.4,0,0,10.4,221.7,863)" />
<use xlink:href="#f3_2b" transform="matrix(10.4,0,0,10.4,230.5,863)" />
<use xlink:href="#f3_2f" transform="matrix(10.4,0,0,10.4,239.3,863)" />
<use xlink:href="#f3_25" transform="matrix(10.4,0,0,10.4,247.3,863)" />
<use xlink:href="#f3_2g" transform="matrix(10.4,0,0,10.4,250.8,863)" />
<use xlink:href="#f3_25" transform="matrix(10.4,0,0,10.4,255.2,863)" />
<use xlink:href="#f3_2b" transform="matrix(10.4,0,0,10.4,258.7,863)" />
<use xlink:href="#f3_2a" transform="matrix(10.4,0,0,10.4,267.5,863)" />
<use xlink:href="#f3_2b" transform="matrix(10.4,0,0,10.4,283.8,863)" />
<use xlink:href="#f3_22" transform="matrix(10.4,0,0,10.4,292.6,863)" />
<use xlink:href="#f3_1z" transform="matrix(10.4,0,0,10.4,304.9,863)" />
<use xlink:href="#f3_2b" transform="matrix(10.4,0,0,10.4,312.9,863)" />
<use xlink:href="#f3_2c" transform="matrix(10.4,0,0,10.4,321.7,863)" />
<use xlink:href="#f3_2c" transform="matrix(10.4,0,0,10.4,330.5,863)" />
<use xlink:href="#f3_21" transform="matrix(10.4,0,0,10.4,339.3,863)" />
<use xlink:href="#f3_2e" transform="matrix(10.4,0,0,10.4,348.1,863)" />
<use xlink:href="#f3_29" transform="matrix(10.4,0,0,10.4,361,863)" />
<use xlink:href="#f3_1x" transform="matrix(10.4,0,0,10.4,374.5,863)" />
<use xlink:href="#f3_2g" transform="matrix(10.4,0,0,10.4,383.3,863)" />
<use xlink:href="#f3_2g" transform="matrix(10.4,0,0,10.4,387.7,863)" />
<use xlink:href="#f3_21" transform="matrix(10.4,0,0,10.4,392.1,863)" />
<use xlink:href="#f3_z" transform="matrix(10.4,0,0,10.4,400.9,863)" />
<use xlink:href="#f3_1r" transform="matrix(10.4,0,0,10.4,97,893.1)" />
<use xlink:href="#f2_18" transform="matrix(10.4,0,0,10.4,101.4,893.1)" />
<use xlink:href="#f2_25" transform="matrix(10.4,0,0,10.4,113,893.1)" />
<use xlink:href="#f2_2a" transform="matrix(10.4,0,0,10.4,117.4,893.1)" />
<use xlink:href="#f2_2g" transform="matrix(10.4,0,0,10.4,127.1,893.1)" />
<use xlink:href="#f2_u" transform="matrix(10.4,0,0,10.4,139.9,893.1)" />
<use xlink:href="#f3_13" transform="matrix(10.4,0,0,10.4,153.1,893.1)" />
<use xlink:href="#f3_2h" transform="matrix(10.4,0,0,10.4,164.7,893.1)" />
<use xlink:href="#f3_m" transform="matrix(7.4,0,0,7.4,173.5,898.4)" />
<use xlink:href="#f3_1j" transform="matrix(10.4,0,0,10.4,179.7,893.1)" />
<use xlink:href="#f3_1x" transform="matrix(10.4,0,0,10.4,197.8,893.1)" />
<use xlink:href="#f3_2a" transform="matrix(10.4,0,0,10.4,206.6,893.1)" />
<use xlink:href="#f3_20" transform="matrix(10.4,0,0,10.4,215.4,893.1)" />
<use xlink:href="#f3_16" transform="matrix(10.4,0,0,10.4,231.9,893.1)" />
<use xlink:href="#f3_21" transform="matrix(10.4,0,0,10.4,241.6,893.1)" />
<use xlink:href="#f3_1j" transform="matrix(10.4,0,0,10.4,250.4,893.1)" />
<use xlink:href="#f3_1t" transform="matrix(10.4,0,0,10.4,261.1,893.1)" />
<use xlink:href="#f5_l" transform="matrix(12,0,0,12,677.6,1015.9)" />
</g>
<g fill="#0080FF" fill-opacity="0.5" >
<use xlink:href="#f0_1c" transform="matrix(38.1,0,0,38.1,182.9,1025.4)" />
<use xlink:href="#f0_21" transform="matrix(38.1,0,0,38.1,215.3,1025.4)" />
<use xlink:href="#f0_1x" transform="matrix(38.1,0,0,38.1,247.6,1025.4)" />
<use xlink:href="#f0_2e" transform="matrix(38.1,0,0,38.1,280,1025.4)" />
<use xlink:href="#f0_2a" transform="matrix(38.1,0,0,38.1,299.4,1025.4)" />
<use xlink:href="#f0_17" transform="matrix(38.1,0,0,38.1,331.8,1025.4)" />
<use xlink:href="#f0_2h" transform="matrix(38.1,0,0,38.1,377.1,1025.4)" />
<use xlink:href="#f0_25" transform="matrix(38.1,0,0,38.1,409.5,1025.4)" />
<use xlink:href="#f0_20" transform="matrix(38.1,0,0,38.1,422.4,1025.4)" />
<use xlink:href="#f0_21" transform="matrix(38.1,0,0,38.1,454.8,1025.4)" />
<use xlink:href="#f0_i" transform="matrix(38.1,0,0,38.1,487.2,1025.4)" />
<use xlink:href="#f0_25" transform="matrix(38.1,0,0,38.1,503.4,1025.4)" />
<use xlink:href="#f0_2a" transform="matrix(38.1,0,0,38.1,516.3,1025.4)" />
</g>
<defs>
<path d="M593,101c0,0,182,0,279,112c0,0,98,113,98,318c0,0,0,196,-98,308c0,0,-98,112,-277,112c0,0,-181,0,-279,-110c0,0,-99,-111,-99,-310c0,0,0,-198,100,-314c0,0,99,-116,276,-116Zm0,-115c0,0,-162,0,-279,65c0,0,-118,66,-180,190c0,0,-62,124,-62,290c0,0,0,252,138,394c0,0,138,142,385,142c0,0,160,0,278,-64c0,0,118,-64,180,-185c0,0,62,-122,62,-287c0,0,0,-165,-63,-289c0,0,-63,-124,-181,-190c0,0,-118,-66,-278,-66Z" 
id="f0_1f"
transform="scale(0.001,-0.001)" />

<path d="M106,0V635c0,0,0,141,-5,173H228c0,0,1,-4,2,-21c0,0,1,-16,2,-37c0,0,1,-22,2,-81h2c0,0,47,84,108,119c0,0,60,34,151,34c0,0,132,0,194,-66c0,0,61,-66,61,-218V0H615V512c0,0,0,80,-15,124c0,0,-16,44,-50,63c0,0,-35,20,-101,20c0,0,-97,0,-153,-67c0,0,-56,-66,-56,-184V0Z" 
id="f0_2a"
transform="scale(0.001,-0.001)" />

<path d="M103,0V1107H237V0Z" 
id="f0_28"
transform="scale(0.001,-0.001)" />

<path d="M102,0V808H236V0Zm0,979v128H236V979Z" 
id="f0_25"
transform="scale(0.001,-0.001)" />

<path d="M643,478c0,0,-11,128,-65,187c0,0,-54,59,-154,59c0,0,-98,0,-155,-66c0,0,-57,-65,-62,-180ZM431,-14c0,0,-179,0,-272,106c0,0,-94,107,-94,317c0,0,0,200,94,307c0,0,93,106,267,106c0,0,356,0,356,-429V375H206c0,0,0,-138,57,-213c0,0,58,-75,168,-75c0,0,87,0,140,35c0,0,53,35,71,88L760,177c0,0,-72,-191,-329,-191Z" 
id="f0_21"
transform="scale(0.001,-0.001)" />

<path d="M17,0L304,415L31,808H179L380,493L580,808H730L457,417L747,0H598L380,331L162,0Z" 
id="f0_2k"
transform="scale(0.001,-0.001)" />

<path d="M339,87c0,0,74,0,132,34c0,0,57,33,90,91c0,0,34,59,34,121v66L448,396c0,0,-95,-2,-144,-19c0,0,-49,-18,-75,-55c0,0,-26,-38,-26,-98c0,0,0,-65,35,-101c0,0,36,-36,101,-36ZM309,-14c0,0,-122,0,-183,64c0,0,-61,64,-61,176c0,0,0,125,82,192c0,0,83,67,266,72l182,3v44c0,0,0,98,-42,141c0,0,-42,43,-132,43c0,0,-90,0,-131,-31c0,0,-41,-31,-49,-98L101,604c0,0,34,218,323,218c0,0,153,0,229,-70c0,0,77,-69,77,-202V202c0,0,0,-59,16,-90c0,0,16,-30,60,-30c0,0,19,0,44,5V4C850,4,799,-7,746,-7c0,0,-75,0,-109,38c0,0,-33,40,-38,124h-4C595,155,543,62,475,24c0,0,-68,-38,-166,-38Z" 
id="f0_1x"
transform="scale(0.001,-0.001)" />

<path d="M106,0V635c0,0,0,141,-5,173H228c0,0,1,-4,2,-21c0,0,1,-16,2,-37c0,0,1,-22,2,-81h2c0,0,44,86,100,120c0,0,56,33,136,33c0,0,92,0,145,-36c0,0,54,-37,75,-117h2c0,0,42,82,101,117c0,0,59,36,143,36c0,0,123,0,178,-66c0,0,56,-67,56,-218V0H1039V512c0,0,0,117,-32,162c0,0,-32,45,-116,45c0,0,-88,0,-136,-66c0,0,-49,-65,-49,-185V0H573V512c0,0,0,117,-32,162c0,0,-32,45,-116,45c0,0,-86,0,-136,-66c0,0,-50,-66,-50,-185V0Z" 
id="f0_29"
transform="scale(0.001,-0.001)" />

<path d="M453,84c0,0,100,0,146,74c0,0,46,73,46,247c0,0,0,169,-46,241c0,0,-45,73,-145,73c0,0,-80,0,-125,-34c0,0,-45,-34,-68,-105c0,0,-24,-71,-24,-186c0,0,0,-159,51,-234c0,0,51,-76,165,-76ZM103,-316V643c0,0,0,124,-5,165H228c0,0,1,-3,3,-22c0,0,1,-18,3,-56c0,0,2,-38,2,-52h3c0,0,36,75,94,110c0,0,59,34,156,34c0,0,149,0,223,-100c0,0,74,-100,74,-314c0,0,0,-422,-297,-422c0,0,-187,0,-251,140h-4c0,0,3,-6,3,-126V-316Z" 
id="f0_2c"
transform="scale(0.001,-0.001)" />

<path d="M420,84c0,0,121,0,173,78c0,0,52,77,52,243c0,0,0,167,-50,243c0,0,-50,76,-167,76c0,0,-118,0,-170,-78c0,0,-53,-77,-53,-241c0,0,0,-160,52,-241c0,0,52,-80,163,-80Zm1,-98c0,0,-176,0,-267,107c0,0,-90,108,-90,312c0,0,0,417,362,417c0,0,185,0,272,-102c0,0,88,-101,88,-315c0,0,0,-212,-94,-316C692,89,599,-14,421,-14Z" 
id="f0_2b"
transform="scale(0.001,-0.001)" />

<path d="M278,-11c0,0,-162,0,-162,182V710H23v98h99l39,181h90V808H400V710H251V200c0,0,0,-58,19,-82c0,0,19,-23,66,-23c0,0,27,0,77,10V6c0,0,-66,-17,-135,-17Z" 
id="f0_2g"
transform="scale(0.001,-0.001)" />

<path d="M571,-18c0,0,-218,0,-358,148C213,130,72,279,72,537c0,0,0,273,141,425c0,0,141,151,371,151c0,0,201,0,326,-119c0,0,75,-70,112,-202L803,740c0,0,-19,85,-81,135c0,0,-61,49,-149,49c0,0,-122,0,-197,-87c0,0,-76,-88,-76,-283c0,0,0,-208,75,-296c0,0,74,-88,194,-88c0,0,88,0,151,56c0,0,63,56,91,177l214,-68c0,0,-49,-179,-164,-266c0,0,-114,-87,-290,-87Z" 
id="f1_13"
transform="scale(0.001,-0.001)" />

<path d="M109,0V1093H318V691c0,0,101,120,243,120c0,0,72,0,131,-27c0,0,58,-27,87,-69c0,0,30,-42,41,-93c0,0,11,-50,11,-157V0H621V419c0,0,0,124,-12,158c0,0,-12,34,-42,53c0,0,-30,20,-76,20c0,0,-53,0,-94,-25c0,0,-41,-26,-60,-77c0,0,-19,-51,-19,-151V0Z" 
id="f1_24"
transform="scale(0.001,-0.001)" />

<path d="M380,130c0,0,57,0,108,37c0,0,38,29,50,70c0,0,9,27,9,102v42c0,0,-41,-13,-128,-32c0,0,-87,-19,-114,-36c0,0,-41,-30,-41,-74c0,0,0,-45,33,-77c0,0,33,-32,83,-32ZM318,-17c0,0,-122,0,-193,66c0,0,-70,66,-70,168c0,0,0,67,32,120c0,0,32,53,90,81c0,0,57,28,166,49c0,0,147,27,204,51v21c0,0,0,60,-30,86c0,0,-30,25,-112,25c0,0,-56,0,-87,-22c0,0,-32,-22,-51,-77L76,586c0,0,32,114,111,169c0,0,78,56,232,56c0,0,141,0,209,-34c0,0,69,-33,97,-84c0,0,28,-51,28,-188L750,260c0,0,0,-104,10,-154c0,0,10,-49,38,-106H591c0,0,-9,21,-21,62c0,0,-5,19,-7,25C563,87,509,35,448,8c0,0,-61,-25,-130,-25Z" 
id="f1_1x"
transform="scale(0.001,-0.001)" />

<path d="M493,149c0,0,73,0,122,58c0,0,48,59,48,193c0,0,0,124,-50,185c0,0,-50,60,-124,60c0,0,-77,0,-128,-59c0,0,-51,-59,-51,-176c0,0,0,-134,53,-198c0,0,53,-63,130,-63ZM104,-300V792H299V676c0,0,38,59,103,97c0,0,65,38,144,38c0,0,138,0,234,-109c0,0,97,-108,97,-301c0,0,0,-199,-98,-309C779,92,682,-17,544,-17c0,0,-65,0,-119,26c0,0,-53,26,-112,89V-300Z" 
id="f1_2c"
transform="scale(0.001,-0.001)" />

<path d="M324,-17c0,0,-57,0,-102,18c0,0,-45,19,-67,50c0,0,-21,30,-29,81c0,0,-7,37,-7,148V625H23V792h96V949l210,124V792H471V625H329V306c0,0,0,-97,4,-113c0,0,4,-16,18,-26c0,0,15,-11,36,-11c0,0,29,0,84,21L489,14c0,0,-73,-31,-165,-31Z" 
id="f1_2g"
transform="scale(0.001,-0.001)" />

<path d="M580,464c0,0,-2,91,-47,139c0,0,-45,47,-108,47c0,0,-69,0,-113,-50c0,0,-45,-50,-44,-136ZM433,-17c0,0,-207,0,-306,134c0,0,-78,109,-78,274c0,0,0,196,103,308c0,0,103,112,260,112c0,0,176,0,278,-117c0,0,103,-117,98,-358H264c0,0,2,-93,51,-145c0,0,48,-52,120,-52c0,0,49,0,83,27c0,0,33,27,50,86L777,217C777,217,737,102,650,42c0,0,-87,-59,-217,-59Z" 
id="f1_21"
transform="scale(0.001,-0.001)" />

<path d="M101,0V792H295V679c0,0,50,80,90,106c0,0,40,26,91,26c0,0,72,0,138,-40L549,589c0,0,-53,34,-99,34c0,0,-44,0,-74,-24c0,0,-31,-25,-48,-88c0,0,-18,-64,-18,-266V0Z" 
id="f1_2e"
transform="scale(0.001,-0.001)" />

<path d="M60,305V487H448V305Z" 
id="f2_h"
transform="scale(0.001,-0.001)" />

<path d="M434,149c0,0,71,0,111,50c0,0,39,50,39,139c0,0,0,89,-41,137c0,0,-42,47,-114,47c0,0,-69,0,-111,-44c0,0,-42,-45,-42,-118c0,0,0,-91,44,-151c0,0,43,-60,114,-60Zm7,-163c0,0,-186,0,-285,129C156,115,56,246,56,501c0,0,0,282,101,424c0,0,101,142,289,142c0,0,134,0,211,-59c0,0,77,-59,109,-183L568,798c0,0,-28,103,-126,103c0,0,-85,0,-133,-85c0,0,-48,-84,-48,-255c0,0,34,56,93,86c0,0,60,30,135,30c0,0,141,0,223,-90c0,0,82,-89,82,-243c0,0,0,-168,-94,-263c0,0,-94,-95,-259,-95Z" 
id="f2_q"
transform="scale(0.001,-0.001)" />

<path d="M595,-14c0,0,-256,0,-394,141C201,127,63,269,63,531c0,0,0,259,138,397c0,0,139,139,400,139c0,0,370,0,470,-274L868,731c0,0,-32,80,-103,122c0,0,-70,41,-164,41c0,0,-156,0,-236,-94c0,0,-81,-94,-81,-270c0,0,0,-178,83,-275c0,0,84,-98,234,-98c0,0,86,0,167,25c0,0,80,25,124,64V392H636V554h458V168c0,0,-84,-86,-218,-134c0,0,-134,-48,-281,-48Z" 
id="f2_17"
transform="scale(0.001,-0.001)" />

<path d="M102,0V1051H929V881H322V617H883V447H322V170H959V0Z" 
id="f2_15"
transform="scale(0.001,-0.001)" />

<path d="M102,0V1051H354L818,235c0,0,-13,113,-13,205v611h195V0H742L284,809c0,0,14,-117,14,-189V0Z" 
id="f2_1e"
transform="scale(0.001,-0.001)" />

<path d="M610,569c0,0,93,0,140,42c0,0,48,42,48,118c0,0,0,152,-194,152H322V569ZM102,0V1051H627c0,0,188,0,291,-81c0,0,102,-81,102,-232c0,0,0,-111,-63,-191c0,0,-63,-80,-169,-106L1072,0H824L580,399H322V0Z" 
id="f2_1i"
transform="scale(0.001,-0.001)" />

<path d="M703,434L599,736L567,838l-16,51l-4,-16c0,0,-8,-27,-18,-61c0,0,-11,-35,-128,-378ZM38,0L421,1051H681L1063,0H845L752,269H351L258,0Z" 
id="f2_11"
transform="scale(0.001,-0.001)" />

<path d="M102,0V1051H322V170H886V0Z" 
id="f2_1c"
transform="scale(0.001,-0.001)" />

<path d="M556,540c0,0,91,0,140,45c0,0,49,45,49,130c0,0,0,166,-195,166H322V540ZM102,0V1051H574c0,0,189,0,291,-87c0,0,102,-87,102,-246c0,0,0,-101,-46,-181c0,0,-47,-80,-133,-124c0,0,-86,-43,-205,-43H322V0Z" 
id="f2_1g"
transform="scale(0.001,-0.001)" />

<path d="M102,0V1051H322V0Z" 
id="f2_19"
transform="scale(0.001,-0.001)" />

<path d="M593,-14c0,0,-254,0,-392,143C201,129,63,272,63,531c0,0,0,258,133,397c0,0,134,139,387,139c0,0,185,0,302,-74c0,0,116,-75,163,-218L854,722c0,0,-24,79,-96,125c0,0,-72,47,-170,47c0,0,-149,0,-227,-93c0,0,-77,-92,-77,-270c0,0,0,-182,80,-277c0,0,79,-96,229,-96c0,0,199,0,277,200l192,-72c0,0,-62,-152,-182,-227c0,0,-120,-73,-287,-73Z" 
id="f2_13"
transform="scale(0.001,-0.001)" />

<path d="M509,-14c0,0,-202,0,-317,71C192,57,77,129,44,274l213,35c0,0,21,-83,84,-121c0,0,63,-37,174,-37c0,0,230,0,230,139c0,0,0,45,-26,74c0,0,-27,29,-75,49c0,0,-48,19,-184,47c0,0,-118,27,-165,44c0,0,-46,17,-83,40c0,0,-37,22,-64,54c0,0,-26,32,-40,76c0,0,-15,43,-15,99c0,0,0,142,107,218c0,0,107,76,312,76c0,0,195,0,293,-61c0,0,98,-62,127,-203L718,774c0,0,-16,68,-66,103c0,0,-51,34,-145,34c0,0,-200,0,-200,-125c0,0,0,-41,22,-68c0,0,21,-26,63,-44c0,0,41,-18,169,-46c0,0,151,-32,217,-59c0,0,65,-27,103,-63c0,0,38,-37,58,-87c0,0,20,-50,20,-116c0,0,0,-154,-114,-236c0,0,-115,-81,-336,-81Z" 
id="f2_1j"
transform="scale(0.001,-0.001)" />

<path d="M509,170c0,0,141,0,225,98c0,0,84,98,84,265c0,0,0,170,-88,259c0,0,-88,89,-252,89H322V170ZM102,0V1051H483c0,0,265,0,411,-134c0,0,145,-134,145,-384c0,0,0,-162,-64,-283C975,250,912,128,795,64C795,64,678,0,527,0Z" 
id="f2_14"
transform="scale(0.001,-0.001)" />

<path d="M592,158c0,0,147,0,227,97c0,0,81,97,81,276c0,0,0,170,-81,266c0,0,-80,97,-226,97c0,0,-148,0,-228,-96c0,0,-81,-96,-81,-267c0,0,0,-173,83,-273c0,0,82,-100,225,-100Zm0,-172c0,0,-248,0,-389,145C203,131,63,277,63,531c0,0,0,252,140,394c0,0,140,142,390,142c0,0,250,0,391,-143c0,0,140,-144,140,-393c0,0,0,-165,-65,-289c0,0,-65,-125,-185,-191c0,0,-121,-65,-282,-65Z" 
id="f2_1f"
transform="scale(0.001,-0.001)" />

<path d="M102,0V1051H877V881H322V555H860V385H322V0Z" 
id="f2_16"
transform="scale(0.001,-0.001)" />

<path d="M357,0V881H17v170H917V881H577V0Z" 
id="f2_1k"
transform="scale(0.001,-0.001)" />

<path d="M102,0V1051H397L585,463l16,-56L637,266l47,168l193,617h293V0H975V637c0,0,0,22,0,43c0,0,1,22,7,186c0,0,-52,-201,-78,-280L715,0H558L369,586L289,866c0,0,9,-173,9,-229V0Z" 
id="f2_1d"
transform="scale(0.001,-0.001)" />

<path d="M399,0L10,1051H240L457,376c0,0,20,-66,55,-198l15,64l38,134l216,675h228L622,0Z" 
id="f2_1m"
transform="scale(0.001,-0.001)" />

<path d="M592,157c0,0,147,0,227,97c0,0,81,97,81,276c0,0,0,171,-81,267c0,0,-80,97,-226,97c0,0,-148,0,-228,-96c0,0,-81,-96,-81,-268c0,0,0,-173,82,-273c0,0,82,-100,226,-100ZM840,-300c0,0,-122,0,-201,68c0,0,-80,68,-129,225c0,0,-212,19,-330,161C180,154,63,297,63,530c0,0,0,253,140,395c0,0,140,142,390,142c0,0,250,0,391,-143c0,0,140,-144,140,-394c0,0,0,-210,-103,-350C1021,180,918,40,733,3c0,0,26,-73,72,-106c0,0,45,-33,128,-33c0,0,44,0,89,8l-1,-151c0,0,-94,-21,-181,-21Z" 
id="f2_1h"
transform="scale(0.001,-0.001)" />

<path d="M539,-14c0,0,-217,0,-332,105C207,91,92,197,92,394v657H312V411c0,0,0,-125,59,-189c0,0,59,-65,174,-65c0,0,118,0,182,68c0,0,63,67,63,194v632h220V405c0,0,0,-200,-123,-310C887,95,763,-14,539,-14Z" 
id="f2_1l"
transform="scale(0.001,-0.001)" />

<path d="M298,-316c0,0,-117,169,-170,336c0,0,-52,167,-52,376c0,0,0,208,52,376c0,0,53,167,170,335H507c0,0,-118,-170,-171,-339c0,0,-53,-168,-53,-373c0,0,0,-203,53,-371c0,0,53,-166,171,-340Z" 
id="f2_c"
transform="scale(0.001,-0.001)" />

<path d="M96,0V155H357V873L104,716V881l264,170H566V155H807V0Z" 
id="f2_l"
transform="scale(0.001,-0.001)" />

<path d="M102,0V1051H322V574l474,477h257L604,606L1089,0H830L452,483L322,383V0Z" 
id="f2_1b"
transform="scale(0.001,-0.001)" />

<path d="M1,-316c0,0,120,175,172,340c0,0,53,167,53,371c0,0,0,205,-54,374c0,0,-53,169,-171,338H211c0,0,118,-169,170,-337c0,0,52,-168,52,-374c0,0,0,-207,-52,-375c0,0,-52,-167,-170,-337Z" 
id="f2_d"
transform="scale(0.001,-0.001)" />

<path d="M116,0V114H384V923L147,754V881l248,170H519V114H775V0Z" 
id="f3_l"
transform="scale(0.001,-0.001)" />

<path d="M140,0V163H285V0Z" 
id="f3_i"
transform="scale(0.001,-0.001)" />

<path d="M125,0V1051H291L859,150c0,0,-9,146,-9,212v689H979V0H807L245,895l3,-72l4,-125V0Z" 
id="f3_1e"
transform="scale(0.001,-0.001)" />

<path d="M339,87c0,0,74,0,132,34c0,0,57,33,90,91c0,0,34,59,34,121v66L448,396c0,0,-95,-2,-144,-19c0,0,-49,-18,-75,-55c0,0,-26,-38,-26,-98c0,0,0,-65,35,-101c0,0,36,-36,101,-36ZM309,-14c0,0,-122,0,-183,64c0,0,-61,64,-61,176c0,0,0,125,82,192c0,0,83,67,266,72l182,3v44c0,0,0,98,-42,141c0,0,-42,43,-132,43c0,0,-90,0,-131,-31c0,0,-41,-31,-49,-98L101,604c0,0,34,218,323,218c0,0,153,0,229,-70c0,0,77,-69,77,-202V202c0,0,0,-59,16,-90c0,0,16,-30,60,-30c0,0,19,0,44,5V4C850,4,799,-7,746,-7c0,0,-75,0,-109,38c0,0,-33,40,-38,124h-4C595,155,543,62,475,24c0,0,-68,-38,-166,-38Z" 
id="f3_1x"
transform="scale(0.001,-0.001)" />

<path d="M106,0V635c0,0,0,141,-5,173H228c0,0,1,-4,2,-21c0,0,1,-16,2,-37c0,0,1,-22,2,-81h2c0,0,44,86,100,120c0,0,56,33,136,33c0,0,92,0,145,-36c0,0,54,-37,75,-117h2c0,0,42,82,101,117c0,0,59,36,143,36c0,0,123,0,178,-66c0,0,56,-67,56,-218V0H1039V512c0,0,0,117,-32,162c0,0,-32,45,-116,45c0,0,-88,0,-136,-66c0,0,-49,-65,-49,-185V0H573V512c0,0,0,117,-32,162c0,0,-32,45,-116,45c0,0,-86,0,-136,-66c0,0,-50,-66,-50,-185V0Z" 
id="f3_29"
transform="scale(0.001,-0.001)" />

<path d="M643,478c0,0,-11,128,-65,187c0,0,-54,59,-154,59c0,0,-98,0,-155,-66c0,0,-57,-65,-62,-180ZM431,-14c0,0,-179,0,-272,106c0,0,-94,107,-94,317c0,0,0,200,94,307c0,0,93,106,267,106c0,0,356,0,356,-429V375H206c0,0,0,-138,57,-213c0,0,58,-75,168,-75c0,0,87,0,140,35c0,0,53,35,71,88L760,177c0,0,-72,-191,-329,-191Z" 
id="f3_21"
transform="scale(0.001,-0.001)" />

<path d="M278,-11c0,0,-162,0,-162,182V710H23v98h99l39,181h90V808H400V710H251V200c0,0,0,-58,19,-82c0,0,19,-23,66,-23c0,0,27,0,77,10V6c0,0,-66,-17,-135,-17Z" 
id="f3_2g"
transform="scale(0.001,-0.001)" />

<path d="M615,0V512c0,0,0,85,-15,126c0,0,-16,42,-52,61c0,0,-36,20,-99,20c0,0,-95,0,-152,-66c0,0,-57,-66,-57,-177V0H106V1107H240V819c0,0,0,-45,-2,-94c0,0,-3,-48,-4,-56h2c0,0,44,79,105,116c0,0,60,37,154,37c0,0,131,0,193,-65c0,0,62,-65,62,-219V0Z" 
id="f3_24"
transform="scale(0.001,-0.001)" />

<path d="M106,0V620c0,0,0,85,-5,188H228c0,0,6,-138,6,-165h3c0,0,32,103,74,141c0,0,42,38,118,38c0,0,27,0,54,-7V692c0,0,-26,7,-71,7c0,0,-84,0,-128,-72c0,0,-44,-72,-44,-206V0Z" 
id="f3_2e"
transform="scale(0.001,-0.001)" />

<path d="M103,0V1107H237V0Z" 
id="f3_28"
transform="scale(0.001,-0.001)" />

<path d="M381,-14c0,0,-150,0,-232,49C149,35,67,85,43,190l118,23c0,0,17,-65,71,-96c0,0,54,-30,149,-30c0,0,102,0,150,31c0,0,47,32,47,95c0,0,0,47,-33,77c0,0,-33,30,-106,49l-96,26c0,0,-115,30,-164,58c0,0,-49,29,-77,70c0,0,-27,41,-27,101c0,0,0,110,78,168c0,0,79,57,230,57c0,0,133,0,212,-47c0,0,79,-47,100,-150L574,607c0,0,-12,53,-60,82c0,0,-49,29,-131,29c0,0,-91,0,-135,-28c0,0,-43,-27,-43,-83c0,0,0,-34,18,-57c0,0,18,-22,53,-38c0,0,35,-15,148,-43c0,0,106,-27,153,-50c0,0,47,-22,75,-50c0,0,27,-27,42,-64c0,0,15,-36,15,-82c0,0,0,-114,-86,-176c0,0,-87,-61,-242,-61Z" 
id="f3_2f"
transform="scale(0.001,-0.001)" />

<path d="M224,0L-1,808H131L267,259c0,0,5,-18,32,-147l13,55L480,808H624L765,253L800,112l23,103L976,808h131L876,0H720L579,571L552,697c0,0,-7,-33,-21,-96C531,601,517,537,379,0Z" 
id="f3_2j"
transform="scale(0.001,-0.001)" />

<path d="M102,0V808H236V0Zm0,979v128H236V979Z" 
id="f3_25"
transform="scale(0.001,-0.001)" />

<path d="M413,-14c0,0,-170,0,-259,106c0,0,-89,107,-89,313c0,0,0,203,89,310c0,0,90,107,257,107c0,0,124,0,206,-64c0,0,81,-64,102,-177L581,571c0,0,-10,67,-53,106c0,0,-42,40,-121,40c0,0,-106,0,-154,-71c0,0,-48,-71,-48,-239c0,0,0,-161,51,-238c0,0,51,-78,153,-78c0,0,71,0,120,39c0,0,48,39,59,119l136,-9C724,240,708,124,624,55c0,0,-83,-69,-211,-69Z" 
id="f3_1z"
transform="scale(0.001,-0.001)" />

<path d="M420,84c0,0,121,0,173,78c0,0,52,77,52,243c0,0,0,167,-50,243c0,0,-50,76,-167,76c0,0,-118,0,-170,-78c0,0,-53,-77,-53,-241c0,0,0,-160,52,-241c0,0,52,-80,163,-80Zm1,-98c0,0,-176,0,-267,107c0,0,-90,108,-90,312c0,0,0,417,362,417c0,0,185,0,272,-102c0,0,88,-101,88,-315c0,0,0,-212,-94,-316C692,89,599,-14,421,-14Z" 
id="f3_2b"
transform="scale(0.001,-0.001)" />

<path d="M355,-14c0,0,-133,0,-194,65c0,0,-62,66,-62,219V808H234V296c0,0,0,-80,16,-124c0,0,16,-44,50,-64c0,0,34,-19,101,-19c0,0,97,0,153,66c0,0,55,67,55,185V808H744V172c0,0,0,-141,4,-172H621c0,0,0,4,-1,20c0,0,-1,17,-2,38c0,0,-1,21,-3,80h-2C613,138,567,55,506,20c0,0,-61,-34,-151,-34Z" 
id="f3_2h"
transform="scale(0.001,-0.001)" />

<path d="M106,0V635c0,0,0,141,-5,173H228c0,0,1,-4,2,-21c0,0,1,-16,2,-37c0,0,1,-22,2,-81h2c0,0,47,84,108,119c0,0,60,34,151,34c0,0,132,0,194,-66c0,0,61,-66,61,-218V0H615V512c0,0,0,80,-15,124c0,0,-16,44,-50,63c0,0,-35,20,-101,20c0,0,-97,0,-153,-67c0,0,-56,-66,-56,-184V0Z" 
id="f3_2a"
transform="scale(0.001,-0.001)" />

<path d="M298,0L5,808H148L326,282c0,0,10,-29,51,-176l27,87l29,88L616,808H759L457,0Z" 
id="f3_2i"
transform="scale(0.001,-0.001)" />

<path d="M109,-316V1107H413v-96H239V-220H413v-96Z" 
id="f3_1r"
transform="scale(0.001,-0.001)" />

<path d="M107,0V627c0,0,0,65,-2,106c0,0,-2,42,-4,75H301c0,0,2,-15,6,-77c0,0,3,-61,3,-85h3c0,0,43,93,107,135c0,0,64,41,153,41c0,0,128,0,197,-79c0,0,68,-79,68,-231V0H630V452c0,0,0,213,-144,213c0,0,-76,0,-123,-65c0,0,-47,-66,-47,-168V0Z" 
id="f2_2a"
transform="scale(0.001,-0.001)" />

<path d="M426,-14c0,0,-166,0,-255,52C171,38,83,90,54,201l184,28c0,0,16,-57,54,-81c0,0,38,-24,134,-24c0,0,88,0,128,22c0,0,41,23,41,70c0,0,0,39,-33,62c0,0,-32,23,-110,38c0,0,-177,35,-239,65c0,0,-62,31,-95,79c0,0,-32,48,-32,118c0,0,0,115,89,180c0,0,89,64,252,64c0,0,144,0,232,-56c0,0,88,-56,109,-162L583,585c0,0,-9,49,-44,74c0,0,-35,24,-112,24c0,0,-74,0,-111,-19c0,0,-38,-19,-38,-64c0,0,0,-35,29,-55c0,0,29,-21,97,-34c0,0,94,-20,168,-40c0,0,73,-21,118,-49c0,0,44,-28,71,-73c0,0,26,-44,26,-113c0,0,0,-117,-96,-184c0,0,-96,-66,-265,-66Z" 
id="f2_2f"
transform="scale(0.001,-0.001)" />

<path d="M104,0V228H319V0Z" 
id="f2_i"
transform="scale(0.001,-0.001)" />

<path d="M147,0V209H362V0Zm0,562V771H362V562Z" 
id="f2_u"
transform="scale(0.001,-0.001)" />

<path d="M708,418L573,765c0,0,-21,52,-42,117l-20,62l-7,-21c0,0,-18,-62,-55,-159L315,418ZM3,0L432,1051H594L1016,0H871L750,307H272L151,0Z" 
id="f3_11"
transform="scale(0.001,-0.001)" />

<path d="M137,-195c0,0,70,102,70,195H142V163H287V38c0,0,0,-78,-14,-131c0,0,-14,-53,-44,-102Z" 
id="f3_g"
transform="scale(0.001,-0.001)" />

<path d="M398,93c0,0,63,0,112,37c0,0,49,38,76,107c0,0,27,70,27,166c0,0,0,99,-27,170c0,0,-27,71,-75,109c0,0,-49,38,-111,38c0,0,-103,0,-150,-75c0,0,-47,-75,-47,-242c0,0,0,-165,44,-238c0,0,44,-72,151,-72Zm11,-409c0,0,-132,0,-211,52c0,0,-78,52,-100,147l135,20c0,0,13,-56,59,-87c0,0,46,-30,121,-30c0,0,200,0,200,234V150h-1C612,150,574,72,507,33C507,33,441,-5,352,-5c0,0,-148,0,-218,98c0,0,-70,98,-70,309c0,0,0,214,75,316c0,0,75,101,228,101c0,0,86,0,149,-39c0,0,63,-39,97,-111h2c0,0,0,22,3,78c0,0,3,55,6,61H751c0,0,-4,-41,-4,-167V23c0,0,0,-339,-338,-339Z" 
id="f3_23"
transform="scale(0.001,-0.001)" />

<path d="M395,89c0,0,115,0,166,79c0,0,51,79,51,246c0,0,0,160,-51,235c0,0,-51,75,-164,75c0,0,-102,0,-147,-75c0,0,-45,-75,-45,-244c0,0,0,-170,45,-243c0,0,45,-73,145,-73ZM361,-14c0,0,-153,0,-225,102c0,0,-72,103,-72,312c0,0,0,422,297,422c0,0,92,0,153,-33c0,0,61,-34,98,-107h2l-2,90v335H747V166c0,0,0,-126,4,-166H623c0,0,-2,12,-5,55c0,0,-3,44,-3,75h-3c0,0,-37,-78,-98,-111c0,0,-62,-33,-153,-33Z" 
id="f3_20"
transform="scale(0.001,-0.001)" />

<path d="M557,522c0,0,238,0,238,211c0,0,0,204,-244,204H268V522ZM125,0V1051H568c0,0,176,0,273,-83c0,0,97,-82,97,-233c0,0,0,-149,-97,-237c0,0,-97,-88,-264,-88H268V0Z" 
id="f3_1g"
transform="scale(0.001,-0.001)" />

<path d="M12,-316v96H186V1011H12v96H316V-316Z" 
id="f3_1t"
transform="scale(0.001,-0.001)" />

<path d="M77,0V95c0,0,38,87,93,154c0,0,55,67,115,121c0,0,60,54,120,100c0,0,59,46,107,93c0,0,47,46,77,97c0,0,29,50,29,114c0,0,0,87,-50,135c0,0,-51,47,-141,47c0,0,-86,0,-142,-46c0,0,-55,-47,-65,-131L83,791c0,0,15,126,107,201c0,0,92,75,237,75c0,0,159,0,244,-75c0,0,85,-75,85,-213c0,0,0,-61,-28,-122c0,0,-28,-60,-83,-120c0,0,-55,-61,-211,-188c0,0,-86,-70,-136,-126c0,0,-51,-56,-73,-109H773V0Z" 
id="f3_m"
transform="scale(0.001,-0.001)" />

<path d="M316,0L7,1051H155L344,383c0,0,33,-125,62,-258c0,0,18,82,41,179c0,0,24,97,207,747H791L974,397c0,0,41,-160,65,-272l7,26c0,0,20,86,33,140c0,0,12,54,209,760h149L1127,0H957L775,668c0,0,-18,62,-52,224c0,0,-20,-86,-33,-145C690,747,677,689,486,0Z" 
id="f3_1n"
transform="scale(0.001,-0.001)" />

<path d="M135,0V710H22v98H135v91c0,0,0,110,49,158c0,0,48,49,148,49c0,0,56,0,95,-9V994c0,0,-34,6,-60,6c0,0,-51,0,-75,-26c0,0,-23,-26,-23,-94V808H427V710H269V0Z" 
id="f3_22"
transform="scale(0.001,-0.001)" />

<path d="M453,84c0,0,100,0,146,74c0,0,46,73,46,247c0,0,0,169,-46,241c0,0,-45,73,-145,73c0,0,-80,0,-125,-34c0,0,-45,-34,-68,-105c0,0,-24,-71,-24,-186c0,0,0,-159,51,-234c0,0,51,-76,165,-76ZM103,-316V643c0,0,0,124,-5,165H228c0,0,1,-3,3,-22c0,0,1,-18,3,-56c0,0,2,-38,2,-52h3c0,0,36,75,94,110c0,0,59,34,156,34c0,0,149,0,223,-100c0,0,74,-100,74,-314c0,0,0,-422,-297,-422c0,0,-187,0,-251,140h-4c0,0,3,-6,3,-126V-316Z" 
id="f3_2c"
transform="scale(0.001,-0.001)" />

<path d="M327,0V150H472V0Zm6,281c0,0,1,51,16,90c0,0,14,39,37,69c0,0,24,30,53,53c0,0,29,24,59,45c0,0,29,21,58,42c0,0,29,22,51,48c0,0,23,26,36,59c0,0,14,33,14,77c0,0,0,85,-58,134c0,0,-57,49,-162,49c0,0,-104,0,-165,-52c0,0,-62,-52,-72,-143L63,761c0,0,19,148,116,227c0,0,97,79,257,79c0,0,166,0,261,-79c0,0,96,-79,96,-218c0,0,0,-56,-16,-100c0,0,-17,-44,-47,-82c0,0,-31,-37,-100,-88L570,456c0,0,-54,-39,-80,-82c0,0,-26,-43,-27,-93Z" 
id="f3_z"
transform="scale(0.001,-0.001)" />

<path d="M606,-14c0,0,-164,0,-284,65c0,0,-119,66,-182,189c0,0,-63,123,-63,291c0,0,0,255,137,396c0,0,137,140,386,140c0,0,174,0,283,-59c0,0,109,-59,168,-189L915,779c0,0,-44,90,-123,131c0,0,-79,41,-196,41c0,0,-182,0,-278,-110c0,0,-96,-110,-96,-310c0,0,0,-200,102,-315c0,0,102,-115,282,-115c0,0,103,0,193,31c0,0,89,31,144,85V407H629V526h445V164c0,0,-83,-85,-205,-132c0,0,-121,-46,-263,-46Z" 
id="f3_17"
transform="scale(0.001,-0.001)" />

<path d="M17,0L304,415L31,808H179L380,493L580,808H730L457,417L747,0H598L380,331L162,0Z" 
id="f3_2k"
transform="scale(0.001,-0.001)" />

<path d="M10,0L306,417L25,808H251L423,543L595,808H822L541,419L838,0H611L423,293L233,0Z" 
id="f2_2k"
transform="scale(0.001,-0.001)" />

<path d="M410,514L298,707L181,516L93,570L233,755L25,809L58,909L257,829l-9,222H350L340,831l197,77l34,-99L360,755L498,568L410,514Z" 
id="f3_e"
transform="scale(0.001,-0.001)" />

<path d="M426,-14c0,0,-160,0,-255,71c0,0,-95,72,-113,213l139,13c0,0,27,-187,229,-187c0,0,101,0,159,50c0,0,58,50,58,149c0,0,0,86,-66,134c0,0,-66,48,-191,48H310V594h73c0,0,111,0,172,48c0,0,60,48,60,133c0,0,0,84,-49,132c0,0,-50,49,-147,49c0,0,-89,0,-144,-45c0,0,-55,-46,-64,-129L76,793c0,0,15,129,107,201c0,0,92,73,237,73c0,0,158,0,246,-74c0,0,87,-73,87,-204c0,0,0,-101,-56,-164c0,0,-56,-63,-164,-85v-3c0,0,118,-13,184,-79c0,0,66,-67,66,-167c0,0,0,-146,-93,-226c0,0,-92,-79,-264,-79Z" 
id="f3_n"
transform="scale(0.001,-0.001)" />

<path d="M453,84c0,0,101,0,146,75c0,0,46,75,46,244c0,0,0,169,-45,243c0,0,-45,73,-146,73c0,0,-113,0,-165,-78c0,0,-52,-78,-52,-246c0,0,0,-159,51,-235c0,0,51,-76,165,-76Zm36,-98c0,0,-92,0,-153,33c0,0,-61,33,-99,107h-1c0,0,0,-24,-3,-71c0,0,-3,-48,-5,-55H98c0,0,5,40,5,166v941H237V792c0,0,0,-49,-3,-114h3c0,0,38,77,99,111c0,0,62,33,153,33c0,0,153,0,225,-103c0,0,72,-103,72,-311c0,0,0,-422,-297,-422Z" 
id="f3_1y"
transform="scale(0.001,-0.001)" />

<path d="M142,-316c0,0,-55,0,-92,8v101c0,0,28,-4,63,-4c0,0,125,0,198,184L324,4L4,808H147L317,362c0,0,4,-11,9,-25c0,0,5,-15,34,-98c0,0,28,-83,30,-92l52,147L619,808H761L451,0c0,0,-50,-128,-94,-191c0,0,-43,-63,-96,-94c0,0,-52,-31,-119,-31Z" 
id="f3_2l"
transform="scale(0.001,-0.001)" />

<path d="M370,-316c0,0,-141,152,-208,323C162,7,95,179,95,394v3c0,0,0,215,67,387c0,0,68,171,208,323H500c0,0,-140,-155,-205,-330c0,0,-65,-175,-65,-382c0,0,0,-207,64,-381c0,0,65,-172,206,-330Z" 
id="f3_c"
transform="scale(0.001,-0.001)" />

<path d="M515,-14c0,0,-384,0,-446,266l138,28c0,0,24,-95,102,-139c0,0,77,-44,211,-44c0,0,138,0,213,47c0,0,75,47,75,139c0,0,0,51,-24,83c0,0,-23,33,-66,53c0,0,-42,21,-101,35c0,0,-59,15,-131,31c0,0,-124,28,-189,55c0,0,-64,28,-102,62c0,0,-37,34,-57,79c0,0,-19,46,-19,105c0,0,0,135,103,208c0,0,103,73,296,73c0,0,179,0,273,-55c0,0,95,-55,133,-187L784,800c0,0,-23,84,-88,122c0,0,-65,37,-180,37c0,0,-126,0,-192,-42c0,0,-67,-41,-67,-124c0,0,0,-48,26,-80c0,0,26,-32,74,-54c0,0,49,-22,194,-54c0,0,48,-11,96,-23c0,0,48,-11,92,-27c0,0,44,-16,83,-38c0,0,38,-22,66,-53c0,0,29,-31,45,-74c0,0,16,-42,16,-100c0,0,0,-145,-114,-225c0,0,-114,-79,-320,-79Z" 
id="f3_1j"
transform="scale(0.001,-0.001)" />

<path d="M9,-316c0,0,140,157,205,329c0,0,65,174,65,382c0,0,0,208,-65,382c0,0,-66,174,-205,330H139c0,0,141,-152,208,-324c0,0,67,-172,67,-386v-3c0,0,0,-216,-67,-388c0,0,-68,-170,-208,-322Z" 
id="f3_d"
transform="scale(0.001,-0.001)" />

<path d="M62,0V102L513,704H87V808H672V706L220,104H688V0Z" 
id="f3_2m"
transform="scale(0.001,-0.001)" />

<path d="M125,0V1051H268V606H836v445H979V0H836V487H268V0Z" 
id="f3_18"
transform="scale(0.001,-0.001)" />

<path d="M530,344V900c0,0,-1,-5,-20,-40c0,0,-20,-35,-30,-49L211,414L171,359L159,344ZM530,0V239H35V343l481,708H657V344H805V239H657V0Z" 
id="f3_o"
transform="scale(0.001,-0.001)" />

<path d="M125,0V1051H872V936H268V544H854V425H268V0Z" 
id="f3_16"
transform="scale(0.001,-0.001)" />

<path d="M590,-14c0,0,-159,0,-275,65c0,0,-116,66,-177,189c0,0,-60,123,-60,291c0,0,0,251,135,393c0,0,136,143,376,143c0,0,168,0,281,-66c0,0,112,-66,165,-195L900,762c0,0,-36,92,-117,141c0,0,-81,48,-192,48c0,0,-175,0,-272,-112c0,0,-97,-112,-97,-308c0,0,0,-193,101,-311c0,0,101,-117,274,-117c0,0,221,0,332,218l116,-58c0,0,-65,-136,-182,-207c0,0,-118,-70,-273,-70Z" 
id="f3_13"
transform="scale(0.001,-0.001)" />

<path d="M413,-14c0,0,-147,0,-238,64c0,0,-90,64,-114,185l136,16c0,0,42,-155,219,-155c0,0,108,0,169,65c0,0,61,65,61,179c0,0,0,98,-62,159c0,0,-61,61,-165,61c0,0,-55,0,-102,-17c0,0,-47,-17,-94,-58H92l35,566H724V937H249L229,604c0,0,87,67,217,67c0,0,155,0,247,-91c0,0,93,-91,93,-237c0,0,0,-167,-99,-262c0,0,-99,-95,-274,-95Z" 
id="f3_p"
transform="scale(0.001,-0.001)" />

<path d="M719,62L422,783L93,62ZM0,0L469,1034L896,0Z" 
id="f4_14"
transform="scale(0.001,-0.001)" />

<path d="M0,336V439H849V336Z" 
id="f3_1jz"
transform="scale(0.001,-0.001)" />

<path d="M125,0V1051H268V524l506,527H942L495,595L1002,0H825L405,507L268,403V0Z" 
id="f3_1b"
transform="scale(0.001,-0.001)" />

<path d="M75,256V367H817V256Zm0,383V749H817V639Z" 
id="f3_x"
transform="scale(0.001,-0.001)" />

<path d="M391,134V454H75V562H391V882H501V562H817V454H501V134Z" 
id="f3_f"
transform="scale(0.001,-0.001)" />

<path d="M427,86c0,0,109,0,163,53c0,0,54,52,54,167c0,0,0,97,-58,147c0,0,-59,50,-164,50c0,0,-102,0,-159,-54c0,0,-58,-53,-58,-146c0,0,0,-217,222,-217Zm-3,517c0,0,94,0,144,44c0,0,50,43,50,141c0,0,0,178,-196,178c0,0,-95,0,-144,-45c0,0,-50,-44,-50,-133c0,0,0,-90,51,-137c0,0,51,-48,145,-48Zm1,-617c0,0,-168,0,-263,79c0,0,-96,80,-96,227c0,0,0,103,59,173c0,0,59,70,151,85v3c0,0,-86,20,-135,87c0,0,-50,67,-50,157c0,0,0,121,90,195c0,0,90,75,241,75c0,0,155,0,245,-73c0,0,90,-74,90,-198c0,0,0,-90,-50,-158c0,0,-50,-67,-136,-84v-3c0,0,100,-16,156,-85c0,0,56,-69,56,-173c0,0,0,-145,-92,-226c0,0,-93,-81,-266,-81Z" 
id="f3_s"
transform="scale(0.001,-0.001)" />

<path d="M95,710c0,0,70,102,70,194H99v147H245V943c0,0,0,-79,-14,-132c0,0,-15,-53,-45,-101Z" 
id="f3_1k5"
transform="scale(0.001,-0.001)" />

<path d="M102,0V1051H322V633H780v418h220V0H780V451H322V0Z" 
id="f2_18"
transform="scale(0.001,-0.001)" />

<path d="M107,0V808H316V0Zm0,952v155H316V952Z" 
id="f2_25"
transform="scale(0.001,-0.001)" />

<path d="M313,-13c0,0,-92,0,-142,50c0,0,-50,50,-50,152V666H19V808H131l66,189H328V808H481V666H328V245c0,0,0,-59,23,-87c0,0,22,-28,69,-28c0,0,25,0,70,10V11c0,0,-77,-24,-177,-24Z" 
id="f2_2g"
transform="scale(0.001,-0.001)" />

<path d="M416,464c0,0,58,0,108,27c0,0,50,26,78,75c0,0,29,49,29,111c0,0,0,127,-58,204c0,0,-58,77,-156,77c0,0,-97,0,-153,-66c0,0,-56,-66,-56,-179c0,0,0,-115,56,-182c0,0,56,-67,152,-67ZM397,-14c0,0,-123,0,-197,51c0,0,-75,52,-107,168l129,20c0,0,40,-131,177,-131c0,0,116,0,179,107c0,0,64,107,67,306c0,0,-30,-67,-103,-108c0,0,-72,-40,-159,-40c0,0,-141,0,-226,97c0,0,-85,97,-85,257c0,0,0,165,92,259c0,0,93,95,257,95c0,0,176,0,266,-130c0,0,90,-130,90,-390c0,0,0,-271,-99,-416c0,0,-98,-145,-281,-145Z" 
id="f3_t"
transform="scale(0.001,-0.001)" />

<path d="M125,0V1051H313L592,322c0,0,15,-44,29,-94c0,0,14,-50,18,-73c0,0,6,30,25,91c0,0,19,61,26,76l275,729h182V0H1019V701c0,0,0,117,7,224c0,0,-37,-133,-66,-209L689,0H589L313,716L272,843l-25,82l2,-83l3,-141V0Z" 
id="f3_1d"
transform="scale(0.001,-0.001)" />

<path d="M103,0V1107H237V416L592,808H749L421,461L766,0H609L336,369L237,287V0Z" 
id="f3_27"
transform="scale(0.001,-0.001)" />

<path d="M424,96c0,0,119,0,174,106c0,0,55,106,55,325c0,0,0,227,-52,329c0,0,-53,102,-174,102c0,0,-123,0,-177,-100c0,0,-55,-101,-55,-331c0,0,0,-224,55,-328c0,0,55,-103,174,-103ZM423,-14c0,0,-181,0,-272,137c0,0,-91,138,-91,403c0,0,0,271,88,406c0,0,88,135,279,135c0,0,186,0,275,-137c0,0,88,-136,88,-404c0,0,0,-263,-93,-402c0,0,-93,-138,-274,-138Z" 
id="f3_k"
transform="scale(0.001,-0.001)" />

<path d="M593,101c0,0,182,0,279,112c0,0,98,113,98,318c0,0,0,196,-98,308c0,0,-98,112,-277,112c0,0,-181,0,-279,-110c0,0,-99,-111,-99,-310c0,0,0,-198,100,-314c0,0,99,-116,276,-116Zm0,-115c0,0,-162,0,-279,65c0,0,-118,66,-180,190c0,0,-62,124,-62,290c0,0,0,252,138,394c0,0,138,142,385,142c0,0,160,0,278,-64c0,0,118,-64,180,-185c0,0,62,-122,62,-287c0,0,0,-165,-63,-289c0,0,-63,-124,-181,-190c0,0,-118,-66,-278,-66Z" 
id="f3_1f"
transform="scale(0.001,-0.001)" />

<path d="M395,0V936H34v115H898V936H537V0Z" 
id="f3_1k"
transform="scale(0.001,-0.001)" />

<path d="M435,0V856c0,0,-48,-47,-127,-93c0,0,-79,-46,-142,-69V824c0,0,113,52,197,128c0,0,85,75,120,146h86V0Z" 
id="f5_l"
transform="scale(0.001,-0.001)" />

<path d="M125,0V1051H268V115H799V0Z" 
id="f0_1c"
transform="scale(0.001,-0.001)" />

<path d="M106,0V620c0,0,0,85,-5,188H228c0,0,6,-138,6,-165h3c0,0,32,103,74,141c0,0,42,38,118,38c0,0,27,0,54,-7V692c0,0,-26,7,-71,7c0,0,-84,0,-128,-72c0,0,-44,-72,-44,-206V0Z" 
id="f0_2e"
transform="scale(0.001,-0.001)" />

<path d="M606,-14c0,0,-164,0,-284,65c0,0,-119,66,-182,189c0,0,-63,123,-63,291c0,0,0,255,137,396c0,0,137,140,386,140c0,0,174,0,283,-59c0,0,109,-59,168,-189L915,779c0,0,-44,90,-123,131c0,0,-79,41,-196,41c0,0,-182,0,-278,-110c0,0,-96,-110,-96,-310c0,0,0,-200,102,-315c0,0,102,-115,282,-115c0,0,103,0,193,31c0,0,89,31,144,85V407H629V526h445V164c0,0,-83,-85,-205,-132c0,0,-121,-46,-263,-46Z" 
id="f0_17"
transform="scale(0.001,-0.001)" />

<path d="M355,-14c0,0,-133,0,-194,65c0,0,-62,66,-62,219V808H234V296c0,0,0,-80,16,-124c0,0,16,-44,50,-64c0,0,34,-19,101,-19c0,0,97,0,153,66c0,0,55,67,55,185V808H744V172c0,0,0,-141,4,-172H621c0,0,0,4,-1,20c0,0,-1,17,-2,38c0,0,-1,21,-3,80h-2C613,138,567,55,506,20c0,0,-61,-34,-151,-34Z" 
id="f0_2h"
transform="scale(0.001,-0.001)" />

<path d="M395,89c0,0,115,0,166,79c0,0,51,79,51,246c0,0,0,160,-51,235c0,0,-51,75,-164,75c0,0,-102,0,-147,-75c0,0,-45,-75,-45,-244c0,0,0,-170,45,-243c0,0,45,-73,145,-73ZM361,-14c0,0,-153,0,-225,102c0,0,-72,103,-72,312c0,0,0,422,297,422c0,0,92,0,153,-33c0,0,61,-34,98,-107h2l-2,90v335H747V166c0,0,0,-126,4,-166H623c0,0,-2,12,-5,55c0,0,-3,44,-3,75h-3c0,0,-37,-78,-98,-111c0,0,-62,-33,-153,-33Z" 
id="f0_20"
transform="scale(0.001,-0.001)" />

<path d="M140,0V163H285V0Z" 
id="f0_i"
transform="scale(0.001,-0.001)" />


</defs>
</svg>