<?xml version="1.0" encoding="UTF-8" standalone="no"?>
<!DOCTYPE svg PUBLIC "-//W3C//DTD SVG 1.1//EN"
"http://www.w3.org/Graphics/SVG/1.1/DTD/svg11.dtd">
<svg viewBox="0 0 740 1092" version="1.1" xmlns="http://www.w3.org/2000/svg" xmlns:xlink="http://www.w3.org/1999/xlink">
<defs>
<clipPath id="c0_74"><path d="M414.8,97.2V68h99.7V97.2Z" /></clipPath>
<clipPath id="c1_74"><path d="M250.4,853.4V840.8h11.7v12.6Z" /></clipPath>
<clipPath id="c2_74"><path d="M283.7,865.3V848.1h43.8v17.2Z" /></clipPath>
<clipPath id="c3_74"><path d="M241.2,897.2V884.6h6.2v12.6Z" /></clipPath>
<clipPath id="c4_74"><path d="M257.1,902.9V885.7H301v17.2Z" /></clipPath>
</defs>
<g fill="#D4D4D4" fill-opacity="0.36" >
<use xlink:href="#f0_1f" transform="matrix(50.9,-50.9,50.9,50.9,129.3,814.1)" />
<use xlink:href="#f0_2a" transform="matrix(50.9,-50.9,50.9,50.9,189.9,753.6)" />
<use xlink:href="#f0_28" transform="matrix(50.9,-50.9,50.9,50.9,233.1,710.3)" />
<use xlink:href="#f0_25" transform="matrix(50.9,-50.9,50.9,50.9,250.4,693.1)" />
<use xlink:href="#f0_2a" transform="matrix(50.9,-50.9,50.9,50.9,267.6,675.8)" />
<use xlink:href="#f0_21" transform="matrix(50.9,-50.9,50.9,50.9,310.9,632.5)" />
<use xlink:href="#f0_2k" transform="matrix(50.9,-50.9,50.9,50.9,354.1,589.3)" />
<use xlink:href="#f0_1x" transform="matrix(50.9,-50.9,50.9,50.9,393,550.4)" />
<use xlink:href="#f0_29" transform="matrix(50.9,-50.9,50.9,50.9,436.3,507.2)" />
<use xlink:href="#f0_2c" transform="matrix(50.9,-50.9,50.9,50.9,501.1,442.4)" />
<use xlink:href="#f0_2b" transform="matrix(50.9,-50.9,50.9,50.9,544.3,399.1)" />
<use xlink:href="#f0_25" transform="matrix(50.9,-50.9,50.9,50.9,587.6,355.9)" />
<use xlink:href="#f0_2a" transform="matrix(50.9,-50.9,50.9,50.9,604.8,338.6)" />
<use xlink:href="#f0_2g" transform="matrix(50.9,-50.9,50.9,50.9,648.1,295.4)" />
</g>
<g fill="#000000" >
<use xlink:href="#f1_c" transform="matrix(10.4,0,0,10.4,85.2,90.9)" />
<use xlink:href="#f1_2i" transform="matrix(10.4,0,0,10.4,90.7,90.9)" />
<use xlink:href="#f1_25" transform="matrix(10.4,0,0,10.4,98.7,90.9)" />
<use xlink:href="#f1_25" transform="matrix(10.4,0,0,10.4,102.4,90.9)" />
<use xlink:href="#f1_25" transform="matrix(10.4,0,0,10.4,106.1,90.9)" />
<use xlink:href="#f1_d" transform="matrix(10.4,0,0,10.4,109.7,90.9)" />
<use xlink:href="#f1_13" transform="matrix(10.4,0,0,10.4,128.4,90.9)" />
<use xlink:href="#f1_18" transform="matrix(10.4,0,0,10.4,140,90.9)" />
<use xlink:href="#f1_n" transform="matrix(7.4,0,0,7.4,151.5,96.2)" />
<use xlink:href="#f1_12" transform="matrix(10.4,0,0,10.4,157.8,90.9)" />
<use xlink:href="#f1_2e" transform="matrix(10.4,0,0,10.4,168.4,90.9)" />
<use xlink:href="#f1_1b" transform="matrix(10.1,0,0,10.1,213.9,83.2)" />
<use xlink:href="#f1_13" transform="matrix(10.1,0,0,10.1,224,83.2)" />
<use xlink:href="#f1_1e" transform="matrix(10.1,0,0,10.1,234.8,83.2)" />
<use xlink:href="#f2_1mh" transform="matrix(17.6,0,0,17.6,249.4,95.7)" />
<use xlink:href="#f1_11" transform="matrix(10.4,0,0,10.4,285.6,90.9)" />
<use xlink:href="#f1_f" transform="matrix(6.5,0,0,6.5,357.6,79)" />
<use xlink:href="#f1_n" transform="matrix(6.5,0,0,6.5,341.1,88.5)" />
<use xlink:href="#f1_18" transform="matrix(8.9,0,0,8.9,331.9,85.2)" />
<use xlink:href="#f1_1f" transform="matrix(8.9,0,0,8.9,347.1,85.2)" />
<use xlink:href="#f2_1mh" transform="matrix(15.5,0,0,15.5,368.8,96.6)" />
<use xlink:href="#f1_o" transform="matrix(6.1,0,0,6.1,477,83)" />
<use xlink:href="#f1_1c" transform="matrix(8.4,0,0,8.4,439.2,79.9)" />
<use xlink:href="#f1_25" transform="matrix(8.4,0,0,8.4,446.3,79.9)" />
<use xlink:href="#f1_11" transform="matrix(8.4,0,0,8.4,452.7,79.9)" />
<use xlink:href="#f1_28" transform="matrix(8.4,0,0,8.4,461.3,79.9)" />
<use xlink:href="#f1_18" transform="matrix(8.4,0,0,8.4,467.8,79.9)" />
<use xlink:href="#f1_21" transform="matrix(8.4,0,0,8.4,446.7,97.5)" />
<use xlink:href="#f1_2g" transform="matrix(8.4,0,0,8.4,453.8,97.5)" />
<use xlink:href="#f1_24" transform="matrix(8.4,0,0,8.4,457.5,97.5)" />
<use xlink:href="#f1_21" transform="matrix(8.4,0,0,8.4,464.7,97.5)" />
<use xlink:href="#f1_2e" transform="matrix(8.4,0,0,8.4,472,97.5)" />
</g>
<g clip-path="url(#c0_74)">
<g fill="#000000" >
<use xlink:href="#f2_1mh" transform="matrix(14.6,0,0,14.6,487.6,90.5)" />
</g>
</g>
<g fill="#000000" >
<use xlink:href="#f1_r" transform="matrix(10.4,0,0,10.4,41.9,124.1)" />
<use xlink:href="#f1_i" transform="matrix(10.4,0,0,10.4,51.3,124.1)" />
<use xlink:href="#f1_15" transform="matrix(10.4,0,0,10.4,85.2,124.1)" />
<use xlink:href="#f1_2k" transform="matrix(10.4,0,0,10.4,95.8,124.1)" />
<use xlink:href="#f1_2c" transform="matrix(10.4,0,0,10.4,103.7,124.1)" />
<use xlink:href="#f1_28" transform="matrix(10.4,0,0,10.4,112.5,124.1)" />
<use xlink:href="#f1_1x" transform="matrix(10.4,0,0,10.4,116,124.1)" />
<use xlink:href="#f1_25" transform="matrix(10.4,0,0,10.4,124.8,124.1)" />
<use xlink:href="#f1_2a" transform="matrix(10.4,0,0,10.4,128.2,124.1)" />
<use xlink:href="#f1_2g" transform="matrix(10.4,0,0,10.4,144.4,124.1)" />
<use xlink:href="#f1_24" transform="matrix(10.4,0,0,10.4,148.8,124.1)" />
<use xlink:href="#f1_21" transform="matrix(10.4,0,0,10.4,157.6,124.1)" />
<use xlink:href="#f1_22" transform="matrix(10.4,0,0,10.4,173.9,124.1)" />
<use xlink:href="#f1_2b" transform="matrix(10.4,0,0,10.4,178.5,124.1)" />
<use xlink:href="#f1_28" transform="matrix(10.4,0,0,10.4,187.3,124.1)" />
<use xlink:href="#f1_28" transform="matrix(10.4,0,0,10.4,190.8,124.1)" />
<use xlink:href="#f1_2b" transform="matrix(10.4,0,0,10.4,194.2,124.1)" />
<use xlink:href="#f1_2j" transform="matrix(10.4,0,0,10.4,203,124.1)" />
<use xlink:href="#f1_25" transform="matrix(10.4,0,0,10.4,214.2,124.1)" />
<use xlink:href="#f1_2a" transform="matrix(10.4,0,0,10.4,217.7,124.1)" />
<use xlink:href="#f1_23" transform="matrix(10.4,0,0,10.4,226.5,124.1)" />
<use xlink:href="#f1_2e" transform="matrix(10.4,0,0,10.4,242.6,124.1)" />
<use xlink:href="#f1_21" transform="matrix(10.4,0,0,10.4,247.9,124.1)" />
<use xlink:href="#f1_1x" transform="matrix(10.4,0,0,10.4,256.8,124.1)" />
<use xlink:href="#f1_1z" transform="matrix(10.4,0,0,10.4,265.6,124.1)" />
<use xlink:href="#f1_2g" transform="matrix(10.4,0,0,10.4,273.6,124.1)" />
<use xlink:href="#f1_25" transform="matrix(10.4,0,0,10.4,278,124.1)" />
<use xlink:href="#f1_2b" transform="matrix(10.4,0,0,10.4,281.5,124.1)" />
<use xlink:href="#f1_2a" transform="matrix(10.4,0,0,10.4,290.3,124.1)" />
<use xlink:href="#f1_2f" transform="matrix(10.4,0,0,10.4,299.1,124.1)" />
<use xlink:href="#f1_2j" transform="matrix(10.4,0,0,10.4,314.7,124.1)" />
<use xlink:href="#f1_25" transform="matrix(10.4,0,0,10.4,325.9,124.1)" />
<use xlink:href="#f1_2g" transform="matrix(10.4,0,0,10.4,329.3,124.1)" />
<use xlink:href="#f1_24" transform="matrix(10.4,0,0,10.4,333.7,124.1)" />
<use xlink:href="#f1_2f" transform="matrix(10.4,0,0,10.4,349.9,124.1)" />
<use xlink:href="#f1_2h" transform="matrix(10.4,0,0,10.4,357.9,124.1)" />
<use xlink:href="#f1_25" transform="matrix(10.4,0,0,10.4,366.7,124.1)" />
<use xlink:href="#f1_2g" transform="matrix(10.4,0,0,10.4,370.2,124.1)" />
<use xlink:href="#f1_1x" transform="matrix(10.4,0,0,10.4,374.6,124.1)" />
<use xlink:href="#f1_1y" transform="matrix(10.4,0,0,10.4,383.4,124.1)" />
<use xlink:href="#f1_28" transform="matrix(10.4,0,0,10.4,392.2,124.1)" />
<use xlink:href="#f1_21" transform="matrix(10.4,0,0,10.4,395.7,124.1)" />
<use xlink:href="#f1_21" transform="matrix(10.4,0,0,10.4,412,124.1)" />
<use xlink:href="#f1_2k" transform="matrix(10.4,0,0,10.4,420.8,124.1)" />
<use xlink:href="#f1_1x" transform="matrix(10.4,0,0,10.4,428.7,124.1)" />
<use xlink:href="#f1_29" transform="matrix(10.4,0,0,10.4,437.5,124.1)" />
<use xlink:href="#f1_2c" transform="matrix(10.4,0,0,10.4,451.1,124.1)" />
<use xlink:href="#f1_28" transform="matrix(10.4,0,0,10.4,459.9,124.1)" />
<use xlink:href="#f1_21" transform="matrix(10.4,0,0,10.4,463.4,124.1)" />
<use xlink:href="#f1_u" transform="matrix(10.4,0,0,10.4,479.5,124.1)" />
<use xlink:href="#f1_c" transform="matrix(10.4,0,0,10.4,85.2,154.2)" />
<use xlink:href="#f1_25" transform="matrix(10.4,0,0,10.4,90.9,154.2)" />
<use xlink:href="#f1_d" transform="matrix(10.4,0,0,10.4,94.7,154.2)" />
<use xlink:href="#f1_16" transform="matrix(10.4,0,0,10.4,128.4,154.2)" />
<use xlink:href="#f1_25" transform="matrix(10.4,0,0,10.4,138.3,154.2)" />
<use xlink:href="#f1_2a" transform="matrix(10.4,0,0,10.4,141.8,154.2)" />
<use xlink:href="#f1_27" transform="matrix(10.4,0,0,10.4,150.8,154.2)" />
<use xlink:href="#f1_21" transform="matrix(10.4,0,0,10.4,158.9,154.2)" />
<use xlink:href="#f1_28" transform="matrix(10.4,0,0,10.4,167.8,154.2)" />
<use xlink:href="#f1_2f" transform="matrix(10.4,0,0,10.4,171.5,154.2)" />
<use xlink:href="#f1_2g" transform="matrix(10.4,0,0,10.4,179.6,154.2)" />
<use xlink:href="#f1_21" transform="matrix(10.4,0,0,10.4,184.2,154.2)" />
<use xlink:href="#f1_25" transform="matrix(10.4,0,0,10.4,193,154.2)" />
<use xlink:href="#f1_2a" transform="matrix(10.4,0,0,10.4,196.6,154.2)" />
<use xlink:href="#f1_2e" transform="matrix(10.4,0,0,10.4,214.4,154.2)" />
<use xlink:href="#f1_21" transform="matrix(10.4,0,0,10.4,219.9,154.2)" />
<use xlink:href="#f1_1x" transform="matrix(10.4,0,0,10.4,228.7,154.2)" />
<use xlink:href="#f1_1z" transform="matrix(10.4,0,0,10.4,237.7,154.2)" />
<use xlink:href="#f1_2g" transform="matrix(10.4,0,0,10.4,245.9,154.2)" />
<use xlink:href="#f1_25" transform="matrix(10.4,0,0,10.4,250.3,154.2)" />
<use xlink:href="#f1_2b" transform="matrix(10.4,0,0,10.4,254,154.2)" />
<use xlink:href="#f1_2a" transform="matrix(10.4,0,0,10.4,262.8,154.2)" />
<use xlink:href="#f1_i" transform="matrix(10.4,0,0,10.4,271.8,154.2)" />
<use xlink:href="#f1_c" transform="matrix(10.4,0,0,10.4,85.2,184.2)" />
<use xlink:href="#f1_25" transform="matrix(10.4,0,0,10.4,90.7,184.2)" />
<use xlink:href="#f1_25" transform="matrix(10.4,0,0,10.4,94.5,184.2)" />
<use xlink:href="#f1_d" transform="matrix(10.4,0,0,10.4,98.2,184.2)" />
<use xlink:href="#f1_1j" transform="matrix(10.4,0,0,10.4,128.4,184.2)" />
<use xlink:href="#f1_2j" transform="matrix(10.4,0,0,10.4,139.1,184.2)" />
<use xlink:href="#f1_1x" transform="matrix(10.4,0,0,10.4,150.3,184.2)" />
<use xlink:href="#f1_2e" transform="matrix(10.4,0,0,10.4,159.1,184.2)" />
<use xlink:href="#f1_2g" transform="matrix(10.4,0,0,10.4,164.4,184.2)" />
<use xlink:href="#f1_2f" transform="matrix(10.4,0,0,10.4,168.8,184.2)" />
<use xlink:href="#f1_2e" transform="matrix(10.4,0,0,10.4,185.6,184.2)" />
<use xlink:href="#f1_21" transform="matrix(10.4,0,0,10.4,190.9,184.2)" />
<use xlink:href="#f1_1x" transform="matrix(10.4,0,0,10.4,199.7,184.2)" />
<use xlink:href="#f1_1z" transform="matrix(10.4,0,0,10.4,208.5,184.2)" />
<use xlink:href="#f1_2g" transform="matrix(10.4,0,0,10.4,216.6,184.2)" />
<use xlink:href="#f1_25" transform="matrix(10.4,0,0,10.4,221,184.2)" />
<use xlink:href="#f1_2b" transform="matrix(10.4,0,0,10.4,224.5,184.2)" />
<use xlink:href="#f1_2a" transform="matrix(10.4,0,0,10.4,233.3,184.2)" />
<use xlink:href="#f1_i" transform="matrix(10.4,0,0,10.4,242.1,184.2)" />
<use xlink:href="#f1_c" transform="matrix(10.4,0,0,10.4,85.2,214.3)" />
<use xlink:href="#f1_25" transform="matrix(10.4,0,0,10.4,90.7,214.3)" />
<use xlink:href="#f1_25" transform="matrix(10.4,0,0,10.4,94.3,214.3)" />
<use xlink:href="#f1_25" transform="matrix(10.4,0,0,10.4,98,214.3)" />
<use xlink:href="#f1_d" transform="matrix(10.4,0,0,10.4,101.7,214.3)" />
<use xlink:href="#f1_1n" transform="matrix(10.4,0,0,10.4,128.4,214.3)" />
<use xlink:href="#f1_2h" transform="matrix(10.4,0,0,10.4,144.4,214.3)" />
<use xlink:href="#f1_2e" transform="matrix(10.4,0,0,10.4,153.2,214.3)" />
<use xlink:href="#f1_2g" transform="matrix(10.4,0,0,10.4,158.5,214.3)" />
<use xlink:href="#f1_2m" transform="matrix(10.4,0,0,10.4,162.9,214.3)" />
<use xlink:href="#f1_2e" transform="matrix(10.4,0,0,10.4,178.7,214.3)" />
<use xlink:href="#f1_21" transform="matrix(10.4,0,0,10.4,184,214.3)" />
<use xlink:href="#f1_1x" transform="matrix(10.4,0,0,10.4,192.8,214.3)" />
<use xlink:href="#f1_1z" transform="matrix(10.4,0,0,10.4,201.6,214.3)" />
<use xlink:href="#f1_2g" transform="matrix(10.4,0,0,10.4,209.6,214.3)" />
<use xlink:href="#f1_25" transform="matrix(10.4,0,0,10.4,214,214.3)" />
<use xlink:href="#f1_2b" transform="matrix(10.4,0,0,10.4,217.5,214.3)" />
<use xlink:href="#f1_2a" transform="matrix(10.4,0,0,10.4,226.3,214.3)" />
<use xlink:href="#f1_i" transform="matrix(10.4,0,0,10.4,235.1,214.3)" />
<use xlink:href="#f1_c" transform="matrix(10.4,0,0,10.4,85.2,244.2)" />
<use xlink:href="#f1_25" transform="matrix(10.4,0,0,10.4,90.9,244.2)" />
<use xlink:href="#f1_2i" transform="matrix(10.4,0,0,10.4,94.5,244.2)" />
<use xlink:href="#f1_d" transform="matrix(10.4,0,0,10.4,102.8,244.2)" />
<use xlink:href="#f1_1n" transform="matrix(10.4,0,0,10.4,128.4,244.2)" />
<use xlink:href="#f1_2h" transform="matrix(10.4,0,0,10.4,144.4,244.2)" />
<use xlink:href="#f1_2e" transform="matrix(10.4,0,0,10.4,153.4,244.2)" />
<use xlink:href="#f1_2g" transform="matrix(10.4,0,0,10.4,158.7,244.2)" />
<use xlink:href="#f1_2m" transform="matrix(10.4,0,0,10.4,163.1,244.2)" />
<use xlink:href="#f1_h" transform="matrix(10.4,0,0,10.4,170.8,244.2)" />
<use xlink:href="#f1_16" transform="matrix(10.4,0,0,10.4,176.3,244.2)" />
<use xlink:href="#f1_25" transform="matrix(10.4,0,0,10.4,186,244.2)" />
<use xlink:href="#f1_2g" transform="matrix(10.4,0,0,10.4,189.5,244.2)" />
<use xlink:href="#f1_2g" transform="matrix(10.4,0,0,10.4,194.1,244.2)" />
<use xlink:href="#f1_25" transform="matrix(10.4,0,0,10.4,198.5,244.2)" />
<use xlink:href="#f1_2a" transform="matrix(10.4,0,0,10.4,201.9,244.2)" />
<use xlink:href="#f1_23" transform="matrix(10.4,0,0,10.4,210.7,244.2)" />
<use xlink:href="#f1_2e" transform="matrix(10.4,0,0,10.4,228.5,244.2)" />
<use xlink:href="#f1_21" transform="matrix(10.4,0,0,10.4,233.8,244.2)" />
<use xlink:href="#f1_1x" transform="matrix(10.4,0,0,10.4,242.8,244.2)" />
<use xlink:href="#f1_1z" transform="matrix(10.4,0,0,10.4,251.6,244.2)" />
<use xlink:href="#f1_2g" transform="matrix(10.4,0,0,10.4,259.7,244.2)" />
<use xlink:href="#f1_25" transform="matrix(10.4,0,0,10.4,264.1,244.2)" />
<use xlink:href="#f1_2b" transform="matrix(10.4,0,0,10.4,267.8,244.2)" />
<use xlink:href="#f1_2a" transform="matrix(10.4,0,0,10.4,276.6,244.2)" />
<use xlink:href="#f1_c" transform="matrix(10.4,0,0,10.4,85.2,274.2)" />
<use xlink:href="#f1_2i" transform="matrix(10.4,0,0,10.4,90.9,274.2)" />
<use xlink:href="#f1_d" transform="matrix(10.4,0,0,10.4,99.3,274.2)" />
<use xlink:href="#f1_16" transform="matrix(10.4,0,0,10.4,128.4,274.2)" />
<use xlink:href="#f1_2e" transform="matrix(10.4,0,0,10.4,138.3,274.2)" />
<use xlink:href="#f1_25" transform="matrix(10.4,0,0,10.4,143.6,274.2)" />
<use xlink:href="#f1_21" transform="matrix(10.4,0,0,10.4,147.3,274.2)" />
<use xlink:href="#f1_20" transform="matrix(10.4,0,0,10.4,156.1,274.2)" />
<use xlink:href="#f1_21" transform="matrix(10.4,0,0,10.4,165.1,274.2)" />
<use xlink:href="#f1_28" transform="matrix(10.4,0,0,10.4,173.9,274.2)" />
<use xlink:href="#f1_h" transform="matrix(10.4,0,0,10.4,177.6,274.2)" />
<use xlink:href="#f1_13" transform="matrix(10.4,0,0,10.4,182.9,274.2)" />
<use xlink:href="#f1_2e" transform="matrix(10.4,0,0,10.4,194.6,274.2)" />
<use xlink:href="#f1_1x" transform="matrix(10.4,0,0,10.4,199.9,274.2)" />
<use xlink:href="#f1_22" transform="matrix(10.4,0,0,10.4,208.9,274.2)" />
<use xlink:href="#f1_2g" transform="matrix(10.4,0,0,10.4,213.7,274.2)" />
<use xlink:href="#f1_1k5" transform="matrix(10.4,0,0,10.4,218.1,274.2)" />
<use xlink:href="#f1_2f" transform="matrix(10.4,0,0,10.4,221.7,274.2)" />
<use xlink:href="#f1_1x" transform="matrix(10.4,0,0,10.4,238.8,274.2)" />
<use xlink:href="#f1_28" transform="matrix(10.4,0,0,10.4,247.6,274.2)" />
<use xlink:href="#f1_27" transform="matrix(10.4,0,0,10.4,251.3,274.2)" />
<use xlink:href="#f1_2l" transform="matrix(10.4,0,0,10.4,259.3,274.2)" />
<use xlink:href="#f1_28" transform="matrix(10.4,0,0,10.4,267,274.2)" />
<use xlink:href="#f1_1x" transform="matrix(10.4,0,0,10.4,270.5,274.2)" />
<use xlink:href="#f1_2g" transform="matrix(10.4,0,0,10.4,279.5,274.2)" />
<use xlink:href="#f1_25" transform="matrix(10.4,0,0,10.4,283.9,274.2)" />
<use xlink:href="#f1_2b" transform="matrix(10.4,0,0,10.4,287.5,274.2)" />
<use xlink:href="#f1_2a" transform="matrix(10.4,0,0,10.4,296.5,274.2)" />
<use xlink:href="#f1_2e" transform="matrix(10.4,0,0,10.4,314.3,274.2)" />
<use xlink:href="#f1_21" transform="matrix(10.4,0,0,10.4,319.6,274.2)" />
<use xlink:href="#f1_1x" transform="matrix(10.4,0,0,10.4,328.6,274.2)" />
<use xlink:href="#f1_1z" transform="matrix(10.4,0,0,10.4,337.4,274.2)" />
<use xlink:href="#f1_2g" transform="matrix(10.4,0,0,10.4,345.7,274.2)" />
<use xlink:href="#f1_25" transform="matrix(10.4,0,0,10.4,350.1,274.2)" />
<use xlink:href="#f1_2b" transform="matrix(10.4,0,0,10.4,353.7,274.2)" />
<use xlink:href="#f1_2a" transform="matrix(10.4,0,0,10.4,362.5,274.2)" />
<use xlink:href="#f1_i" transform="matrix(10.4,0,0,10.4,371.5,274.2)" />
<use xlink:href="#f1_c" transform="matrix(10.4,0,0,10.4,85.2,304.3)" />
<use xlink:href="#f1_2i" transform="matrix(10.4,0,0,10.4,90.9,304.3)" />
<use xlink:href="#f1_25" transform="matrix(10.4,0,0,10.4,98.9,304.3)" />
<use xlink:href="#f1_d" transform="matrix(10.4,0,0,10.4,102.8,304.3)" />
<use xlink:href="#f1_16" transform="matrix(10.4,0,0,10.4,128.4,304.3)" />
<use xlink:href="#f1_2e" transform="matrix(10.4,0,0,10.4,138.3,304.3)" />
<use xlink:href="#f1_25" transform="matrix(10.4,0,0,10.4,143.6,304.3)" />
<use xlink:href="#f1_21" transform="matrix(10.4,0,0,10.4,147.3,304.3)" />
<use xlink:href="#f1_20" transform="matrix(10.4,0,0,10.4,156.1,304.3)" />
<use xlink:href="#f1_21" transform="matrix(10.4,0,0,10.4,165.1,304.3)" />
<use xlink:href="#f1_28" transform="matrix(10.4,0,0,10.4,173.9,304.3)" />
<use xlink:href="#f1_h" transform="matrix(10.4,0,0,10.4,177.6,304.3)" />
<use xlink:href="#f1_13" transform="matrix(10.4,0,0,10.4,182.9,304.3)" />
<use xlink:href="#f1_2e" transform="matrix(10.4,0,0,10.4,194.6,304.3)" />
<use xlink:href="#f1_1x" transform="matrix(10.4,0,0,10.4,199.9,304.3)" />
<use xlink:href="#f1_22" transform="matrix(10.4,0,0,10.4,208.9,304.3)" />
<use xlink:href="#f1_2g" transform="matrix(10.4,0,0,10.4,213.7,304.3)" />
<use xlink:href="#f1_1k5" transform="matrix(10.4,0,0,10.4,218.1,304.3)" />
<use xlink:href="#f1_2f" transform="matrix(10.4,0,0,10.4,221.7,304.3)" />
<use xlink:href="#f1_1x" transform="matrix(10.4,0,0,10.4,238.8,304.3)" />
<use xlink:href="#f1_1z" transform="matrix(10.4,0,0,10.4,247.6,304.3)" />
<use xlink:href="#f1_2l" transform="matrix(10.4,0,0,10.4,255.8,304.3)" />
<use xlink:href="#f1_28" transform="matrix(10.4,0,0,10.4,263.4,304.3)" />
<use xlink:href="#f1_1x" transform="matrix(10.4,0,0,10.4,267,304.3)" />
<use xlink:href="#f1_2g" transform="matrix(10.4,0,0,10.4,275.8,304.3)" />
<use xlink:href="#f1_25" transform="matrix(10.4,0,0,10.4,280.4,304.3)" />
<use xlink:href="#f1_2b" transform="matrix(10.4,0,0,10.4,284.1,304.3)" />
<use xlink:href="#f1_2a" transform="matrix(10.4,0,0,10.4,292.9,304.3)" />
<use xlink:href="#f1_2e" transform="matrix(10.4,0,0,10.4,310.6,304.3)" />
<use xlink:href="#f1_21" transform="matrix(10.4,0,0,10.4,316.1,304.3)" />
<use xlink:href="#f1_1x" transform="matrix(10.4,0,0,10.4,324.9,304.3)" />
<use xlink:href="#f1_1z" transform="matrix(10.4,0,0,10.4,333.9,304.3)" />
<use xlink:href="#f1_2g" transform="matrix(10.4,0,0,10.4,342,304.3)" />
<use xlink:href="#f1_25" transform="matrix(10.4,0,0,10.4,346.6,304.3)" />
<use xlink:href="#f1_2b" transform="matrix(10.4,0,0,10.4,350.1,304.3)" />
<use xlink:href="#f1_2a" transform="matrix(10.4,0,0,10.4,359,304.3)" />
<use xlink:href="#f1_c" transform="matrix(10.4,0,0,10.4,85.2,334.4)" />
<use xlink:href="#f1_2i" transform="matrix(10.4,0,0,10.4,90.7,334.4)" />
<use xlink:href="#f1_25" transform="matrix(10.4,0,0,10.4,98.7,334.4)" />
<use xlink:href="#f1_25" transform="matrix(10.4,0,0,10.4,102.6,334.4)" />
<use xlink:href="#f1_d" transform="matrix(10.4,0,0,10.4,106.2,334.4)" />
<use xlink:href="#f1_1j" transform="matrix(10.4,0,0,10.4,128.4,334.4)" />
<use xlink:href="#f1_1x" transform="matrix(10.4,0,0,10.4,139.1,334.4)" />
<use xlink:href="#f1_2a" transform="matrix(10.4,0,0,10.4,148,334.4)" />
<use xlink:href="#f1_20" transform="matrix(10.4,0,0,10.4,156.8,334.4)" />
<use xlink:href="#f1_29" transform="matrix(10.4,0,0,10.4,165.8,334.4)" />
<use xlink:href="#f1_21" transform="matrix(10.4,0,0,10.4,179.4,334.4)" />
<use xlink:href="#f1_2l" transform="matrix(10.4,0,0,10.4,188.4,334.4)" />
<use xlink:href="#f1_21" transform="matrix(10.4,0,0,10.4,195.9,334.4)" />
<use xlink:href="#f1_2e" transform="matrix(10.4,0,0,10.4,204.9,334.4)" />
<use xlink:href="#f1_2e" transform="matrix(10.4,0,0,10.4,219.2,334.4)" />
<use xlink:href="#f1_21" transform="matrix(10.4,0,0,10.4,224.5,334.4)" />
<use xlink:href="#f1_1x" transform="matrix(10.4,0,0,10.4,233.5,334.4)" />
<use xlink:href="#f1_1z" transform="matrix(10.4,0,0,10.4,242.3,334.4)" />
<use xlink:href="#f1_2g" transform="matrix(10.4,0,0,10.4,250.5,334.4)" />
<use xlink:href="#f1_25" transform="matrix(10.4,0,0,10.4,254.9,334.4)" />
<use xlink:href="#f1_2b" transform="matrix(10.4,0,0,10.4,258.6,334.4)" />
<use xlink:href="#f1_2a" transform="matrix(10.4,0,0,10.4,267.4,334.4)" />
<use xlink:href="#f1_i" transform="matrix(10.4,0,0,10.4,276.4,334.4)" />
<use xlink:href="#f1_s" transform="matrix(10.4,0,0,10.4,41.9,364.3)" />
<use xlink:href="#f1_i" transform="matrix(10.4,0,0,10.4,51.3,364.3)" />
<use xlink:href="#f1_1n" transform="matrix(10.4,0,0,10.4,85.2,364.3)" />
<use xlink:href="#f1_2e" transform="matrix(10.4,0,0,10.4,101.1,364.3)" />
<use xlink:href="#f1_25" transform="matrix(10.4,0,0,10.4,106.4,364.3)" />
<use xlink:href="#f1_2g" transform="matrix(10.4,0,0,10.4,109.9,364.3)" />
<use xlink:href="#f1_21" transform="matrix(10.4,0,0,10.4,114.3,364.3)" />
<use xlink:href="#f1_2g" transform="matrix(10.4,0,0,10.4,129.7,364.3)" />
<use xlink:href="#f1_24" transform="matrix(10.4,0,0,10.4,134.1,364.3)" />
<use xlink:href="#f1_21" transform="matrix(10.4,0,0,10.4,142.9,364.3)" />
<use xlink:href="#f1_29" transform="matrix(10.4,0,0,10.4,158.1,364.3)" />
<use xlink:href="#f1_1x" transform="matrix(10.4,0,0,10.4,171.7,364.3)" />
<use xlink:href="#f1_26" transform="matrix(10.4,0,0,10.4,180.5,364.3)" />
<use xlink:href="#f1_2b" transform="matrix(10.4,0,0,10.4,184.2,364.3)" />
<use xlink:href="#f1_2e" transform="matrix(10.4,0,0,10.4,193,364.3)" />
<use xlink:href="#f1_2c" transform="matrix(10.4,0,0,10.4,204.9,364.3)" />
<use xlink:href="#f1_2e" transform="matrix(10.4,0,0,10.4,213.7,364.3)" />
<use xlink:href="#f1_2b" transform="matrix(10.4,0,0,10.4,219,364.3)" />
<use xlink:href="#f1_20" transform="matrix(10.4,0,0,10.4,227.8,364.3)" />
<use xlink:href="#f1_2h" transform="matrix(10.4,0,0,10.4,236.6,364.3)" />
<use xlink:href="#f1_1z" transform="matrix(10.4,0,0,10.4,245.4,364.3)" />
<use xlink:href="#f1_2g" transform="matrix(10.4,0,0,10.4,253.4,364.3)" />
<use xlink:href="#f1_2f" transform="matrix(10.4,0,0,10.4,257.8,364.3)" />
<use xlink:href="#f1_1x" transform="matrix(10.4,0,0,10.4,272.5,364.3)" />
<use xlink:href="#f1_2a" transform="matrix(10.4,0,0,10.4,281.3,364.3)" />
<use xlink:href="#f1_20" transform="matrix(10.4,0,0,10.4,290.1,364.3)" />
<use xlink:href="#f1_2a" transform="matrix(10.4,0,0,10.4,305.3,364.3)" />
<use xlink:href="#f1_1x" transform="matrix(10.4,0,0,10.4,314.1,364.3)" />
<use xlink:href="#f1_29" transform="matrix(10.4,0,0,10.4,322.9,364.3)" />
<use xlink:href="#f1_21" transform="matrix(10.4,0,0,10.4,336.5,364.3)" />
<use xlink:href="#f1_2g" transform="matrix(10.4,0,0,10.4,351.9,364.3)" />
<use xlink:href="#f1_24" transform="matrix(10.4,0,0,10.4,356.3,364.3)" />
<use xlink:href="#f1_21" transform="matrix(10.4,0,0,10.4,365.1,364.3)" />
<use xlink:href="#f1_2e" transform="matrix(10.4,0,0,10.4,380.3,364.3)" />
<use xlink:href="#f1_2h" transform="matrix(10.4,0,0,10.4,385.6,364.3)" />
<use xlink:href="#f1_28" transform="matrix(10.4,0,0,10.4,394.4,364.3)" />
<use xlink:href="#f1_21" transform="matrix(10.4,0,0,10.4,397.9,364.3)" />
<use xlink:href="#f1_2e" transform="matrix(10.4,0,0,10.4,413.3,364.3)" />
<use xlink:href="#f1_21" transform="matrix(10.4,0,0,10.4,418.6,364.3)" />
<use xlink:href="#f1_2f" transform="matrix(10.4,0,0,10.4,427.4,364.3)" />
<use xlink:href="#f1_2c" transform="matrix(10.4,0,0,10.4,435.5,364.3)" />
<use xlink:href="#f1_2b" transform="matrix(10.4,0,0,10.4,444.3,364.3)" />
<use xlink:href="#f1_2a" transform="matrix(10.4,0,0,10.4,453.1,364.3)" />
<use xlink:href="#f1_2f" transform="matrix(10.4,0,0,10.4,461.9,364.3)" />
<use xlink:href="#f1_25" transform="matrix(10.4,0,0,10.4,469.9,364.3)" />
<use xlink:href="#f1_1y" transform="matrix(10.4,0,0,10.4,473.4,364.3)" />
<use xlink:href="#f1_28" transform="matrix(10.4,0,0,10.4,482.2,364.3)" />
<use xlink:href="#f1_21" transform="matrix(10.4,0,0,10.4,485.7,364.3)" />
<use xlink:href="#f1_22" transform="matrix(10.4,0,0,10.4,501.1,364.3)" />
<use xlink:href="#f1_2b" transform="matrix(10.4,0,0,10.4,505.7,364.3)" />
<use xlink:href="#f1_2e" transform="matrix(10.4,0,0,10.4,514.5,364.3)" />
<use xlink:href="#f1_2g" transform="matrix(10.4,0,0,10.4,526.2,364.3)" />
<use xlink:href="#f1_24" transform="matrix(10.4,0,0,10.4,530.6,364.3)" />
<use xlink:href="#f1_21" transform="matrix(10.4,0,0,10.4,539.4,364.3)" />
<use xlink:href="#f1_22" transform="matrix(10.4,0,0,10.4,554.8,364.3)" />
<use xlink:href="#f1_2b" transform="matrix(10.4,0,0,10.4,559.4,364.3)" />
<use xlink:href="#f1_2e" transform="matrix(10.4,0,0,10.4,568.2,364.3)" />
<use xlink:href="#f1_29" transform="matrix(10.4,0,0,10.4,573.5,364.3)" />
<use xlink:href="#f1_1x" transform="matrix(10.4,0,0,10.4,587.1,364.3)" />
<use xlink:href="#f1_2g" transform="matrix(10.4,0,0,10.4,595.9,364.3)" />
<use xlink:href="#f1_25" transform="matrix(10.4,0,0,10.4,600.3,364.3)" />
<use xlink:href="#f1_2b" transform="matrix(10.4,0,0,10.4,603.8,364.3)" />
<use xlink:href="#f1_2a" transform="matrix(10.4,0,0,10.4,612.6,364.3)" />
<use xlink:href="#f1_2b" transform="matrix(10.4,0,0,10.4,85.2,385.2)" />
<use xlink:href="#f1_22" transform="matrix(10.4,0,0,10.4,94,385.2)" />
<use xlink:href="#f1_2g" transform="matrix(10.4,0,0,10.4,107.2,385.2)" />
<use xlink:href="#f1_24" transform="matrix(10.4,0,0,10.4,111.6,385.2)" />
<use xlink:href="#f1_21" transform="matrix(10.4,0,0,10.4,120.4,385.2)" />
<use xlink:href="#f1_2c" transform="matrix(10.4,0,0,10.4,137.8,385.2)" />
<use xlink:href="#f1_2e" transform="matrix(10.4,0,0,10.4,146.6,385.2)" />
<use xlink:href="#f1_2b" transform="matrix(10.4,0,0,10.4,151.9,385.2)" />
<use xlink:href="#f1_20" transform="matrix(10.4,0,0,10.4,160.7,385.2)" />
<use xlink:href="#f1_2h" transform="matrix(10.4,0,0,10.4,169.5,385.2)" />
<use xlink:href="#f1_1z" transform="matrix(10.4,0,0,10.4,178.3,385.2)" />
<use xlink:href="#f1_2g" transform="matrix(10.4,0,0,10.4,186.4,385.2)" />
<use xlink:href="#f1_i" transform="matrix(10.4,0,0,10.4,190.8,385.2)" />
</g>
<image preserveAspectRatio="none" x="85" y="410" width="334" height="20" xlink:href="img/1.png" />
<image preserveAspectRatio="none" x="85" y="430" width="334" height="20" xlink:href="img/2.png" />
<image preserveAspectRatio="none" x="85" y="450" width="334" height="20" xlink:href="img/3.png" />
<image preserveAspectRatio="none" x="85" y="470" width="334" height="20" xlink:href="img/4.png" />
<image preserveAspectRatio="none" x="85" y="489" width="334" height="20" xlink:href="img/5.png" />
<image preserveAspectRatio="none" x="85" y="509" width="334" height="18" xlink:href="img/6.png" />
<g fill="#000000" >
<use xlink:href="#f1_t" transform="matrix(10.4,0,0,10.4,41.9,567.4)" />
<use xlink:href="#f1_i" transform="matrix(10.4,0,0,10.4,51.3,567.4)" />
<use xlink:href="#f1_1n" transform="matrix(10.4,0,0,10.4,85.2,567.4)" />
<use xlink:href="#f1_2e" transform="matrix(10.4,0,0,10.4,101.1,567.4)" />
<use xlink:href="#f1_25" transform="matrix(10.4,0,0,10.4,106.4,567.4)" />
<use xlink:href="#f1_2g" transform="matrix(10.4,0,0,10.4,109.9,567.4)" />
<use xlink:href="#f1_21" transform="matrix(10.4,0,0,10.4,114.3,567.4)" />
<use xlink:href="#f1_2g" transform="matrix(10.4,0,0,10.4,131.4,567.4)" />
<use xlink:href="#f1_24" transform="matrix(10.4,0,0,10.4,135.8,567.4)" />
<use xlink:href="#f1_21" transform="matrix(10.4,0,0,10.4,144.6,567.4)" />
<use xlink:href="#f1_20" transform="matrix(10.4,0,0,10.4,161.6,567.4)" />
<use xlink:href="#f1_25" transform="matrix(10.4,0,0,10.4,170.4,567.4)" />
<use xlink:href="#f1_22" transform="matrix(10.4,0,0,10.4,173.9,567.4)" />
<use xlink:href="#f1_22" transform="matrix(10.4,0,0,10.4,178.5,567.4)" />
<use xlink:href="#f1_21" transform="matrix(10.4,0,0,10.4,183.1,567.4)" />
<use xlink:href="#f1_2e" transform="matrix(10.4,0,0,10.4,191.9,567.4)" />
<use xlink:href="#f1_21" transform="matrix(10.4,0,0,10.4,197.2,567.4)" />
<use xlink:href="#f1_2a" transform="matrix(10.4,0,0,10.4,206,567.4)" />
<use xlink:href="#f1_1z" transform="matrix(10.4,0,0,10.4,214.8,567.4)" />
<use xlink:href="#f1_21" transform="matrix(10.4,0,0,10.4,222.8,567.4)" />
<use xlink:href="#f1_1y" transform="matrix(10.4,0,0,10.4,239.9,567.4)" />
<use xlink:href="#f1_21" transform="matrix(10.4,0,0,10.4,248.7,567.4)" />
<use xlink:href="#f1_2g" transform="matrix(10.4,0,0,10.4,257.5,567.4)" />
<use xlink:href="#f1_2j" transform="matrix(10.4,0,0,10.4,261.9,567.4)" />
<use xlink:href="#f1_21" transform="matrix(10.4,0,0,10.4,273.1,567.4)" />
<use xlink:href="#f1_21" transform="matrix(10.4,0,0,10.4,281.9,567.4)" />
<use xlink:href="#f1_2a" transform="matrix(10.4,0,0,10.4,290.7,567.4)" />
<use xlink:href="#f1_c" transform="matrix(10.4,0,0,10.4,85.2,597.5)" />
<use xlink:href="#f1_25" transform="matrix(10.4,0,0,10.4,90.9,597.5)" />
<use xlink:href="#f1_d" transform="matrix(10.4,0,0,10.4,94.7,597.5)" />
<use xlink:href="#f1_21" transform="matrix(10.4,0,0,10.4,128.4,597.5)" />
<use xlink:href="#f1_2a" transform="matrix(10.4,0,0,10.4,137.2,597.5)" />
<use xlink:href="#f1_1x" transform="matrix(10.4,0,0,10.4,146,597.5)" />
<use xlink:href="#f1_2a" transform="matrix(10.4,0,0,10.4,155,597.5)" />
<use xlink:href="#f1_2g" transform="matrix(10.4,0,0,10.4,163.8,597.5)" />
<use xlink:href="#f1_25" transform="matrix(10.4,0,0,10.4,168.2,597.5)" />
<use xlink:href="#f1_2b" transform="matrix(10.4,0,0,10.4,171.7,597.5)" />
<use xlink:href="#f1_29" transform="matrix(10.4,0,0,10.4,180.5,597.5)" />
<use xlink:href="#f1_21" transform="matrix(10.4,0,0,10.4,194.2,597.5)" />
<use xlink:href="#f1_2e" transform="matrix(10.4,0,0,10.4,203,597.5)" />
<use xlink:href="#f1_2f" transform="matrix(10.4,0,0,10.4,208.4,597.5)" />
<use xlink:href="#f1_1x" transform="matrix(10.4,0,0,10.4,225.4,597.5)" />
<use xlink:href="#f1_2a" transform="matrix(10.4,0,0,10.4,234.2,597.5)" />
<use xlink:href="#f1_20" transform="matrix(10.4,0,0,10.4,243,597.5)" />
<use xlink:href="#f1_20" transform="matrix(10.4,0,0,10.4,260.6,597.5)" />
<use xlink:href="#f1_25" transform="matrix(10.4,0,0,10.4,269.6,597.5)" />
<use xlink:href="#f1_1x" transform="matrix(10.4,0,0,10.4,273.1,597.5)" />
<use xlink:href="#f1_2f" transform="matrix(10.4,0,0,10.4,281.9,597.5)" />
<use xlink:href="#f1_2g" transform="matrix(10.4,0,0,10.4,289.9,597.5)" />
<use xlink:href="#f1_21" transform="matrix(10.4,0,0,10.4,294.3,597.5)" />
<use xlink:href="#f1_2e" transform="matrix(10.4,0,0,10.4,303.3,597.5)" />
<use xlink:href="#f1_21" transform="matrix(10.4,0,0,10.4,308.6,597.5)" />
<use xlink:href="#f1_2b" transform="matrix(10.4,0,0,10.4,317.4,597.5)" />
<use xlink:href="#f1_29" transform="matrix(10.4,0,0,10.4,326.2,597.5)" />
<use xlink:href="#f1_21" transform="matrix(10.4,0,0,10.4,340,597.5)" />
<use xlink:href="#f1_2e" transform="matrix(10.4,0,0,10.4,348.8,597.5)" />
<use xlink:href="#f1_2f" transform="matrix(10.4,0,0,10.4,354.1,597.5)" />
<use xlink:href="#f1_c" transform="matrix(10.4,0,0,10.4,85.2,627.5)" />
<use xlink:href="#f1_25" transform="matrix(10.4,0,0,10.4,90.7,627.5)" />
<use xlink:href="#f1_25" transform="matrix(10.4,0,0,10.4,94.5,627.5)" />
<use xlink:href="#f1_d" transform="matrix(10.4,0,0,10.4,98.2,627.5)" />
<use xlink:href="#f1_2e" transform="matrix(10.4,0,0,10.4,128.4,627.5)" />
<use xlink:href="#f1_21" transform="matrix(10.4,0,0,10.4,133.7,627.5)" />
<use xlink:href="#f1_2g" transform="matrix(10.4,0,0,10.4,142.6,627.5)" />
<use xlink:href="#f1_21" transform="matrix(10.4,0,0,10.4,147.1,627.5)" />
<use xlink:href="#f1_2a" transform="matrix(10.4,0,0,10.4,155.9,627.5)" />
<use xlink:href="#f1_2g" transform="matrix(10.4,0,0,10.4,164.7,627.5)" />
<use xlink:href="#f1_25" transform="matrix(10.4,0,0,10.4,169.1,627.5)" />
<use xlink:href="#f1_2b" transform="matrix(10.4,0,0,10.4,172.6,627.5)" />
<use xlink:href="#f1_2a" transform="matrix(10.4,0,0,10.4,181.6,627.5)" />
<use xlink:href="#f1_1x" transform="matrix(10.4,0,0,10.4,199.2,627.5)" />
<use xlink:href="#f1_2a" transform="matrix(10.4,0,0,10.4,208,627.5)" />
<use xlink:href="#f1_20" transform="matrix(10.4,0,0,10.4,216.8,627.5)" />
<use xlink:href="#f1_25" transform="matrix(10.4,0,0,10.4,234.6,627.5)" />
<use xlink:href="#f1_2a" transform="matrix(10.4,0,0,10.4,238.1,627.5)" />
<use xlink:href="#f1_2i" transform="matrix(10.4,0,0,10.4,246.9,627.5)" />
<use xlink:href="#f1_21" transform="matrix(10.4,0,0,10.4,254.7,627.5)" />
<use xlink:href="#f1_2e" transform="matrix(10.4,0,0,10.4,263.7,627.5)" />
<use xlink:href="#f1_2f" transform="matrix(10.4,0,0,10.4,269,627.5)" />
<use xlink:href="#f1_25" transform="matrix(10.4,0,0,10.4,277.1,627.5)" />
<use xlink:href="#f1_2b" transform="matrix(10.4,0,0,10.4,280.6,627.5)" />
<use xlink:href="#f1_2a" transform="matrix(10.4,0,0,10.4,289.4,627.5)" />
<use xlink:href="#f1_2b" transform="matrix(10.4,0,0,10.4,307.2,627.5)" />
<use xlink:href="#f1_22" transform="matrix(10.4,0,0,10.4,316,627.5)" />
<use xlink:href="#f1_1z" transform="matrix(10.4,0,0,10.4,329.3,627.5)" />
<use xlink:href="#f1_2b" transform="matrix(10.4,0,0,10.4,337.6,627.5)" />
<use xlink:href="#f1_2a" transform="matrix(10.4,0,0,10.4,346.4,627.5)" />
<use xlink:href="#f1_22" transform="matrix(10.4,0,0,10.4,355.2,627.5)" />
<use xlink:href="#f1_25" transform="matrix(10.4,0,0,10.4,359.8,627.5)" />
<use xlink:href="#f1_23" transform="matrix(10.4,0,0,10.4,363.3,627.5)" />
<use xlink:href="#f1_2h" transform="matrix(10.4,0,0,10.4,372.2,627.5)" />
<use xlink:href="#f1_2e" transform="matrix(10.4,0,0,10.4,381,627.5)" />
<use xlink:href="#f1_1x" transform="matrix(10.4,0,0,10.4,386.4,627.5)" />
<use xlink:href="#f1_2g" transform="matrix(10.4,0,0,10.4,395.2,627.5)" />
<use xlink:href="#f1_25" transform="matrix(10.4,0,0,10.4,399.6,627.5)" />
<use xlink:href="#f1_2b" transform="matrix(10.4,0,0,10.4,403.2,627.5)" />
<use xlink:href="#f1_2a" transform="matrix(10.4,0,0,10.4,412,627.5)" />
<use xlink:href="#f1_i" transform="matrix(10.4,0,0,10.4,420.8,627.5)" />
<use xlink:href="#f1_c" transform="matrix(10.4,0,0,10.4,85.2,657.6)" />
<use xlink:href="#f1_25" transform="matrix(10.4,0,0,10.4,90.7,657.6)" />
<use xlink:href="#f1_25" transform="matrix(10.4,0,0,10.4,94.3,657.6)" />
<use xlink:href="#f1_25" transform="matrix(10.4,0,0,10.4,98,657.6)" />
<use xlink:href="#f1_d" transform="matrix(10.4,0,0,10.4,101.7,657.6)" />
<use xlink:href="#f1_21" transform="matrix(10.4,0,0,10.4,128.4,657.6)" />
<use xlink:href="#f1_28" transform="matrix(10.4,0,0,10.4,137.2,657.6)" />
<use xlink:href="#f1_21" transform="matrix(10.4,0,0,10.4,140.7,657.6)" />
<use xlink:href="#f1_1z" transform="matrix(10.4,0,0,10.4,149.7,657.6)" />
<use xlink:href="#f1_2g" transform="matrix(10.4,0,0,10.4,157.8,657.6)" />
<use xlink:href="#f1_2e" transform="matrix(10.4,0,0,10.4,162.2,657.6)" />
<use xlink:href="#f1_2b" transform="matrix(10.4,0,0,10.4,167.5,657.6)" />
<use xlink:href="#f1_2c" transform="matrix(10.4,0,0,10.4,176.3,657.6)" />
<use xlink:href="#f1_24" transform="matrix(10.4,0,0,10.4,185.3,657.6)" />
<use xlink:href="#f1_25" transform="matrix(10.4,0,0,10.4,194.1,657.6)" />
<use xlink:href="#f1_28" transform="matrix(10.4,0,0,10.4,197.5,657.6)" />
<use xlink:href="#f1_25" transform="matrix(10.4,0,0,10.4,201,657.6)" />
<use xlink:href="#f1_1z" transform="matrix(10.4,0,0,10.4,204.5,657.6)" />
<use xlink:href="#f1_1x" transform="matrix(10.4,0,0,10.4,221.6,657.6)" />
<use xlink:href="#f1_2a" transform="matrix(10.4,0,0,10.4,230.4,657.6)" />
<use xlink:href="#f1_20" transform="matrix(10.4,0,0,10.4,239.2,657.6)" />
<use xlink:href="#f1_2a" transform="matrix(10.4,0,0,10.4,256.8,657.6)" />
<use xlink:href="#f1_2h" transform="matrix(10.4,0,0,10.4,265.7,657.6)" />
<use xlink:href="#f1_1z" transform="matrix(10.4,0,0,10.4,274.5,657.6)" />
<use xlink:href="#f1_28" transform="matrix(10.4,0,0,10.4,282.6,657.6)" />
<use xlink:href="#f1_21" transform="matrix(10.4,0,0,10.4,286.1,657.6)" />
<use xlink:href="#f1_2b" transform="matrix(10.4,0,0,10.4,294.9,657.6)" />
<use xlink:href="#f1_2c" transform="matrix(10.4,0,0,10.4,303.9,657.6)" />
<use xlink:href="#f1_24" transform="matrix(10.4,0,0,10.4,312.7,657.6)" />
<use xlink:href="#f1_25" transform="matrix(10.4,0,0,10.4,321.5,657.6)" />
<use xlink:href="#f1_28" transform="matrix(10.4,0,0,10.4,324.9,657.6)" />
<use xlink:href="#f1_25" transform="matrix(10.4,0,0,10.4,328.4,657.6)" />
<use xlink:href="#f1_1z" transform="matrix(10.4,0,0,10.4,331.9,657.6)" />
<use xlink:href="#f1_2f" transform="matrix(10.4,0,0,10.4,349,657.6)" />
<use xlink:href="#f1_2h" transform="matrix(10.4,0,0,10.4,357,657.6)" />
<use xlink:href="#f1_1y" transform="matrix(10.4,0,0,10.4,365.8,657.6)" />
<use xlink:href="#f1_2f" transform="matrix(10.4,0,0,10.4,374.6,657.6)" />
<use xlink:href="#f1_2g" transform="matrix(10.4,0,0,10.4,382.9,657.6)" />
<use xlink:href="#f1_25" transform="matrix(10.4,0,0,10.4,387.3,657.6)" />
<use xlink:href="#f1_2g" transform="matrix(10.4,0,0,10.4,390.8,657.6)" />
<use xlink:href="#f1_2h" transform="matrix(10.4,0,0,10.4,395.2,657.6)" />
<use xlink:href="#f1_2g" transform="matrix(10.4,0,0,10.4,404,657.6)" />
<use xlink:href="#f1_25" transform="matrix(10.4,0,0,10.4,408.5,657.6)" />
<use xlink:href="#f1_2b" transform="matrix(10.4,0,0,10.4,412,657.6)" />
<use xlink:href="#f1_2a" transform="matrix(10.4,0,0,10.4,420.8,657.6)" />
<use xlink:href="#f1_2e" transform="matrix(10.4,0,0,10.4,438.4,657.6)" />
<use xlink:href="#f1_21" transform="matrix(10.4,0,0,10.4,443.7,657.6)" />
<use xlink:href="#f1_1x" transform="matrix(10.4,0,0,10.4,452.7,657.6)" />
<use xlink:href="#f1_1z" transform="matrix(10.4,0,0,10.4,461.5,657.6)" />
<use xlink:href="#f1_2g" transform="matrix(10.4,0,0,10.4,469.6,657.6)" />
<use xlink:href="#f1_25" transform="matrix(10.4,0,0,10.4,474,657.6)" />
<use xlink:href="#f1_2b" transform="matrix(10.4,0,0,10.4,477.5,657.6)" />
<use xlink:href="#f1_2a" transform="matrix(10.4,0,0,10.4,486.4,657.6)" />
<use xlink:href="#f1_2f" transform="matrix(10.4,0,0,10.4,495.2,657.6)" />
<use xlink:href="#f1_i" transform="matrix(10.4,0,0,10.4,503.3,657.6)" />
<use xlink:href="#f1_l" transform="matrix(10.4,0,0,10.4,41.9,687.5)" />
<use xlink:href="#f1_k" transform="matrix(10.4,0,0,10.4,51.1,687.5)" />
<use xlink:href="#f1_i" transform="matrix(10.4,0,0,10.4,60.4,687.5)" />
<use xlink:href="#f1_17" transform="matrix(10.4,0,0,10.4,85.2,687.5)" />
<use xlink:href="#f1_25" transform="matrix(10.4,0,0,10.4,98.2,687.5)" />
<use xlink:href="#f1_2i" transform="matrix(10.4,0,0,10.4,102.4,687.5)" />
<use xlink:href="#f1_21" transform="matrix(10.4,0,0,10.4,110.8,687.5)" />
<use xlink:href="#f1_1x" transform="matrix(10.4,0,0,10.4,129.5,687.5)" />
<use xlink:href="#f1_1z" transform="matrix(10.4,0,0,10.4,148.4,687.5)" />
<use xlink:href="#f1_24" transform="matrix(10.4,0,0,10.4,157,687.5)" />
<use xlink:href="#f1_21" transform="matrix(10.4,0,0,10.4,166.4,687.5)" />
<use xlink:href="#f1_29" transform="matrix(10.4,0,0,10.4,175.9,687.5)" />
<use xlink:href="#f1_25" transform="matrix(10.4,0,0,10.4,190,687.5)" />
<use xlink:href="#f1_1z" transform="matrix(10.4,0,0,10.4,194,687.5)" />
<use xlink:href="#f1_1x" transform="matrix(10.4,0,0,10.4,202.8,687.5)" />
<use xlink:href="#f1_28" transform="matrix(10.4,0,0,10.4,212.2,687.5)" />
<use xlink:href="#f1_2g" transform="matrix(10.4,0,0,10.4,225.6,687.5)" />
<use xlink:href="#f1_21" transform="matrix(10.4,0,0,10.4,230.7,687.5)" />
<use xlink:href="#f1_2f" transform="matrix(10.4,0,0,10.4,240.1,687.5)" />
<use xlink:href="#f1_2g" transform="matrix(10.4,0,0,10.4,248.7,687.5)" />
<use xlink:href="#f1_2g" transform="matrix(10.4,0,0,10.4,263.1,687.5)" />
<use xlink:href="#f1_2b" transform="matrix(10.4,0,0,10.4,268.1,687.5)" />
<use xlink:href="#f1_20" transform="matrix(10.4,0,0,10.4,287,687.5)" />
<use xlink:href="#f1_25" transform="matrix(10.4,0,0,10.4,296.3,687.5)" />
<use xlink:href="#f1_2f" transform="matrix(10.4,0,0,10.4,300.4,687.5)" />
<use xlink:href="#f1_2g" transform="matrix(10.4,0,0,10.4,309,687.5)" />
<use xlink:href="#f1_25" transform="matrix(10.4,0,0,10.4,314.1,687.5)" />
<use xlink:href="#f1_2a" transform="matrix(10.4,0,0,10.4,318.1,687.5)" />
<use xlink:href="#f1_23" transform="matrix(10.4,0,0,10.4,327.5,687.5)" />
<use xlink:href="#f1_2h" transform="matrix(10.4,0,0,10.4,337,687.5)" />
<use xlink:href="#f1_25" transform="matrix(10.4,0,0,10.4,346.4,687.5)" />
<use xlink:href="#f1_2f" transform="matrix(10.4,0,0,10.4,350.4,687.5)" />
<use xlink:href="#f1_24" transform="matrix(10.4,0,0,10.4,359,687.5)" />
<use xlink:href="#f1_1y" transform="matrix(10.4,0,0,10.4,377.9,687.5)" />
<use xlink:href="#f1_21" transform="matrix(10.4,0,0,10.4,387.2,687.5)" />
<use xlink:href="#f1_2g" transform="matrix(10.4,0,0,10.4,396.8,687.5)" />
<use xlink:href="#f1_2j" transform="matrix(10.4,0,0,10.4,401.7,687.5)" />
<use xlink:href="#f1_21" transform="matrix(10.4,0,0,10.4,413.5,687.5)" />
<use xlink:href="#f1_21" transform="matrix(10.4,0,0,10.4,422.8,687.5)" />
<use xlink:href="#f1_2a" transform="matrix(10.4,0,0,10.4,432.3,687.5)" />
<use xlink:href="#f1_2g" transform="matrix(10.4,0,0,10.4,451,687.5)" />
<use xlink:href="#f1_24" transform="matrix(10.4,0,0,10.4,456,687.5)" />
<use xlink:href="#f1_21" transform="matrix(10.4,0,0,10.4,465.5,687.5)" />
<use xlink:href="#f1_22" transform="matrix(10.4,0,0,10.4,484.2,687.5)" />
<use xlink:href="#f1_2b" transform="matrix(10.4,0,0,10.4,489.5,687.5)" />
<use xlink:href="#f1_28" transform="matrix(10.4,0,0,10.4,498.9,687.5)" />
<use xlink:href="#f1_28" transform="matrix(10.4,0,0,10.4,502.9,687.5)" />
<use xlink:href="#f1_2b" transform="matrix(10.4,0,0,10.4,506.9,687.5)" />
<use xlink:href="#f1_2j" transform="matrix(10.4,0,0,10.4,516.5,687.5)" />
<use xlink:href="#f1_25" transform="matrix(10.4,0,0,10.4,528.2,687.5)" />
<use xlink:href="#f1_2a" transform="matrix(10.4,0,0,10.4,532.2,687.5)" />
<use xlink:href="#f1_23" transform="matrix(10.4,0,0,10.4,541.8,687.5)" />
<use xlink:href="#f1_2c" transform="matrix(10.4,0,0,10.4,560.5,687.5)" />
<use xlink:href="#f1_1x" transform="matrix(10.4,0,0,10.4,569.8,687.5)" />
<use xlink:href="#f1_25" transform="matrix(10.4,0,0,10.4,579.3,687.5)" />
<use xlink:href="#f1_2e" transform="matrix(10.4,0,0,10.4,583.4,687.5)" />
<use xlink:href="#f1_2f" transform="matrix(10.4,0,0,10.4,589.2,687.5)" />
<use xlink:href="#f1_2b" transform="matrix(10.4,0,0,10.4,607.4,687.5)" />
<use xlink:href="#f1_22" transform="matrix(10.4,0,0,10.4,616.7,687.5)" />
<use xlink:href="#f1_1z" transform="matrix(10.4,0,0,10.4,85.2,708.4)" />
<use xlink:href="#f1_2b" transform="matrix(10.4,0,0,10.4,93.4,708.4)" />
<use xlink:href="#f1_29" transform="matrix(10.4,0,0,10.4,102.4,708.4)" />
<use xlink:href="#f1_2c" transform="matrix(10.4,0,0,10.4,116,708.4)" />
<use xlink:href="#f1_2b" transform="matrix(10.4,0,0,10.4,124.9,708.4)" />
<use xlink:href="#f1_2h" transform="matrix(10.4,0,0,10.4,133.9,708.4)" />
<use xlink:href="#f1_2a" transform="matrix(10.4,0,0,10.4,142.9,708.4)" />
<use xlink:href="#f1_20" transform="matrix(10.4,0,0,10.4,151.7,708.4)" />
<use xlink:href="#f1_2f" transform="matrix(10.4,0,0,10.4,160.7,708.4)" />
<use xlink:href="#f1_u" transform="matrix(10.4,0,0,10.4,168.9,708.4)" />
<use xlink:href="#f1_c" transform="matrix(10.4,0,0,10.4,85.2,738.4)" />
<use xlink:href="#f1_25" transform="matrix(10.4,0,0,10.4,90.9,738.4)" />
<use xlink:href="#f1_d" transform="matrix(10.4,0,0,10.4,94.7,738.4)" />
<use xlink:href="#f1_1z" transform="matrix(10.4,0,0,10.4,128.4,738.4)" />
<use xlink:href="#f1_24" transform="matrix(10.4,0,0,10.4,136.5,738.4)" />
<use xlink:href="#f1_28" transform="matrix(10.4,0,0,10.4,145.5,738.4)" />
<use xlink:href="#f1_2b" transform="matrix(10.4,0,0,10.4,149,738.4)" />
<use xlink:href="#f1_2e" transform="matrix(10.4,0,0,10.4,157.9,738.4)" />
<use xlink:href="#f1_2b" transform="matrix(10.4,0,0,10.4,163.3,738.4)" />
<use xlink:href="#f1_1y" transform="matrix(10.4,0,0,10.4,172.2,738.4)" />
<use xlink:href="#f1_21" transform="matrix(10.4,0,0,10.4,181,738.4)" />
<use xlink:href="#f1_2a" transform="matrix(10.4,0,0,10.4,190,738.4)" />
<use xlink:href="#f1_2m" transform="matrix(10.4,0,0,10.4,198.8,738.4)" />
<use xlink:href="#f1_21" transform="matrix(10.4,0,0,10.4,206.5,738.4)" />
<use xlink:href="#f1_2a" transform="matrix(10.4,0,0,10.4,215.5,738.4)" />
<use xlink:href="#f1_21" transform="matrix(10.4,0,0,10.4,224.3,738.4)" />
<use xlink:href="#f1_1x" transform="matrix(10.4,0,0,10.4,242.1,738.4)" />
<use xlink:href="#f1_2a" transform="matrix(10.4,0,0,10.4,251.1,738.4)" />
<use xlink:href="#f1_20" transform="matrix(10.4,0,0,10.4,259.9,738.4)" />
<use xlink:href="#f1_1z" transform="matrix(10.4,0,0,10.4,277.6,738.4)" />
<use xlink:href="#f1_2l" transform="matrix(10.4,0,0,10.4,285.7,738.4)" />
<use xlink:href="#f1_1z" transform="matrix(10.4,0,0,10.4,293.4,738.4)" />
<use xlink:href="#f1_28" transform="matrix(10.4,0,0,10.4,301.5,738.4)" />
<use xlink:href="#f1_2b" transform="matrix(10.4,0,0,10.4,305.1,738.4)" />
<use xlink:href="#f1_24" transform="matrix(10.4,0,0,10.4,313.9,738.4)" />
<use xlink:href="#f1_21" transform="matrix(10.4,0,0,10.4,322.9,738.4)" />
<use xlink:href="#f1_2k" transform="matrix(10.4,0,0,10.4,331.7,738.4)" />
<use xlink:href="#f1_2l" transform="matrix(10.4,0,0,10.4,339.8,738.4)" />
<use xlink:href="#f1_28" transform="matrix(10.4,0,0,10.4,347.3,738.4)" />
<use xlink:href="#f1_1z" transform="matrix(10.4,0,0,10.4,350.8,738.4)" />
<use xlink:href="#f1_24" transform="matrix(10.4,0,0,10.4,359,738.4)" />
<use xlink:href="#f1_28" transform="matrix(10.4,0,0,10.4,367.8,738.4)" />
<use xlink:href="#f1_2b" transform="matrix(10.4,0,0,10.4,371.5,738.4)" />
<use xlink:href="#f1_2e" transform="matrix(10.4,0,0,10.4,380.3,738.4)" />
<use xlink:href="#f1_25" transform="matrix(10.4,0,0,10.4,385.8,738.4)" />
<use xlink:href="#f1_20" transform="matrix(10.4,0,0,10.4,389.3,738.4)" />
<use xlink:href="#f1_21" transform="matrix(10.4,0,0,10.4,398.3,738.4)" />
<use xlink:href="#f1_i" transform="matrix(10.4,0,0,10.4,407.1,738.4)" />
<use xlink:href="#f1_c" transform="matrix(10.4,0,0,10.4,85.2,768.5)" />
<use xlink:href="#f1_25" transform="matrix(10.4,0,0,10.4,90.7,768.5)" />
<use xlink:href="#f1_25" transform="matrix(10.4,0,0,10.4,94.5,768.5)" />
<use xlink:href="#f1_d" transform="matrix(10.4,0,0,10.4,98.2,768.5)" />
<use xlink:href="#f1_2i" transform="matrix(10.4,0,0,10.4,128.4,768.5)" />
<use xlink:href="#f1_25" transform="matrix(10.4,0,0,10.4,136.3,768.5)" />
<use xlink:href="#f1_2a" transform="matrix(10.4,0,0,10.4,139.8,768.5)" />
<use xlink:href="#f1_2l" transform="matrix(10.4,0,0,10.4,148.6,768.5)" />
<use xlink:href="#f1_28" transform="matrix(10.4,0,0,10.4,156.1,768.5)" />
<use xlink:href="#f1_1z" transform="matrix(10.4,0,0,10.4,168.2,768.5)" />
<use xlink:href="#f1_24" transform="matrix(10.4,0,0,10.4,176.3,768.5)" />
<use xlink:href="#f1_28" transform="matrix(10.4,0,0,10.4,185.1,768.5)" />
<use xlink:href="#f1_2b" transform="matrix(10.4,0,0,10.4,188.6,768.5)" />
<use xlink:href="#f1_2e" transform="matrix(10.4,0,0,10.4,197.4,768.5)" />
<use xlink:href="#f1_25" transform="matrix(10.4,0,0,10.4,202.7,768.5)" />
<use xlink:href="#f1_20" transform="matrix(10.4,0,0,10.4,206.2,768.5)" />
<use xlink:href="#f1_21" transform="matrix(10.4,0,0,10.4,215,768.5)" />
<use xlink:href="#f1_1x" transform="matrix(10.4,0,0,10.4,232.4,768.5)" />
<use xlink:href="#f1_2a" transform="matrix(10.4,0,0,10.4,241.2,768.5)" />
<use xlink:href="#f1_20" transform="matrix(10.4,0,0,10.4,250,768.5)" />
<use xlink:href="#f1_21" transform="matrix(10.4,0,0,10.4,267.6,768.5)" />
<use xlink:href="#f1_2g" transform="matrix(10.4,0,0,10.4,276.4,768.5)" />
<use xlink:href="#f1_24" transform="matrix(10.4,0,0,10.4,280.8,768.5)" />
<use xlink:href="#f1_2l" transform="matrix(10.4,0,0,10.4,289.6,768.5)" />
<use xlink:href="#f1_28" transform="matrix(10.4,0,0,10.4,297.1,768.5)" />
<use xlink:href="#f1_1z" transform="matrix(10.4,0,0,10.4,309.2,768.5)" />
<use xlink:href="#f1_24" transform="matrix(10.4,0,0,10.4,317.3,768.5)" />
<use xlink:href="#f1_28" transform="matrix(10.4,0,0,10.4,326.1,768.5)" />
<use xlink:href="#f1_2b" transform="matrix(10.4,0,0,10.4,329.5,768.5)" />
<use xlink:href="#f1_2e" transform="matrix(10.4,0,0,10.4,338.3,768.5)" />
<use xlink:href="#f1_25" transform="matrix(10.4,0,0,10.4,343.6,768.5)" />
<use xlink:href="#f1_20" transform="matrix(10.4,0,0,10.4,347.1,768.5)" />
<use xlink:href="#f1_21" transform="matrix(10.4,0,0,10.4,355.9,768.5)" />
<use xlink:href="#f1_i" transform="matrix(10.4,0,0,10.4,364.7,768.5)" />
<use xlink:href="#f1_c" transform="matrix(10.4,0,0,10.4,85.2,798.6)" />
<use xlink:href="#f1_25" transform="matrix(10.4,0,0,10.4,90.7,798.6)" />
<use xlink:href="#f1_25" transform="matrix(10.4,0,0,10.4,94.3,798.6)" />
<use xlink:href="#f1_25" transform="matrix(10.4,0,0,10.4,98,798.6)" />
<use xlink:href="#f1_d" transform="matrix(10.4,0,0,10.4,101.7,798.6)" />
<use xlink:href="#f1_2a" transform="matrix(10.4,0,0,10.4,128.4,798.6)" />
<use xlink:href="#f1_h" transform="matrix(10.4,0,0,10.4,137.2,798.6)" />
<use xlink:href="#f1_2c" transform="matrix(10.4,0,0,10.4,142.5,798.6)" />
<use xlink:href="#f1_2e" transform="matrix(10.4,0,0,10.4,151.4,798.6)" />
<use xlink:href="#f1_2b" transform="matrix(10.4,0,0,10.4,156.7,798.6)" />
<use xlink:href="#f1_2c" transform="matrix(10.4,0,0,10.4,165.5,798.6)" />
<use xlink:href="#f1_2l" transform="matrix(10.4,0,0,10.4,174.3,798.6)" />
<use xlink:href="#f1_28" transform="matrix(10.4,0,0,10.4,181.8,798.6)" />
<use xlink:href="#f1_1y" transform="matrix(10.4,0,0,10.4,194.1,798.6)" />
<use xlink:href="#f1_2e" transform="matrix(10.4,0,0,10.4,203,798.6)" />
<use xlink:href="#f1_2b" transform="matrix(10.4,0,0,10.4,208.4,798.6)" />
<use xlink:href="#f1_29" transform="matrix(10.4,0,0,10.4,217.2,798.6)" />
<use xlink:href="#f1_25" transform="matrix(10.4,0,0,10.4,230.7,798.6)" />
<use xlink:href="#f1_20" transform="matrix(10.4,0,0,10.4,234.2,798.6)" />
<use xlink:href="#f1_21" transform="matrix(10.4,0,0,10.4,243,798.6)" />
<use xlink:href="#f1_1x" transform="matrix(10.4,0,0,10.4,260.6,798.6)" />
<use xlink:href="#f1_2a" transform="matrix(10.4,0,0,10.4,269.4,798.6)" />
<use xlink:href="#f1_20" transform="matrix(10.4,0,0,10.4,278.2,798.6)" />
<use xlink:href="#f1_25" transform="matrix(10.4,0,0,10.4,295.8,798.6)" />
<use xlink:href="#f1_2f" transform="matrix(10.4,0,0,10.4,299.3,798.6)" />
<use xlink:href="#f1_2b" transform="matrix(10.4,0,0,10.4,307.4,798.6)" />
<use xlink:href="#f1_2c" transform="matrix(10.4,0,0,10.4,316.2,798.6)" />
<use xlink:href="#f1_2e" transform="matrix(10.4,0,0,10.4,325,798.6)" />
<use xlink:href="#f1_2b" transform="matrix(10.4,0,0,10.4,330.3,798.6)" />
<use xlink:href="#f1_2c" transform="matrix(10.4,0,0,10.4,339.1,798.6)" />
<use xlink:href="#f1_2l" transform="matrix(10.4,0,0,10.4,347.9,798.6)" />
<use xlink:href="#f1_28" transform="matrix(10.4,0,0,10.4,355.6,798.6)" />
<use xlink:href="#f1_1y" transform="matrix(10.4,0,0,10.4,367.8,798.6)" />
<use xlink:href="#f1_2e" transform="matrix(10.4,0,0,10.4,376.6,798.6)" />
<use xlink:href="#f1_2b" transform="matrix(10.4,0,0,10.4,382,798.6)" />
<use xlink:href="#f1_29" transform="matrix(10.4,0,0,10.4,390.8,798.6)" />
<use xlink:href="#f1_25" transform="matrix(10.4,0,0,10.4,404.3,798.6)" />
<use xlink:href="#f1_20" transform="matrix(10.4,0,0,10.4,407.8,798.6)" />
<use xlink:href="#f1_21" transform="matrix(10.4,0,0,10.4,416.6,798.6)" />
<use xlink:href="#f1_i" transform="matrix(10.4,0,0,10.4,425.4,798.6)" />
<use xlink:href="#f1_l" transform="matrix(10.4,0,0,10.4,41.9,828.5)" />
<use xlink:href="#f1_l" transform="matrix(10.4,0,0,10.4,50,828.5)" />
<use xlink:href="#f1_i" transform="matrix(10.4,0,0,10.4,59.3,828.5)" />
<use xlink:href="#f1_17" transform="matrix(10.4,0,0,10.4,85.2,828.5)" />
<use xlink:href="#f1_25" transform="matrix(10.4,0,0,10.4,97.6,828.5)" />
<use xlink:href="#f1_2i" transform="matrix(10.4,0,0,10.4,101.1,828.5)" />
<use xlink:href="#f1_21" transform="matrix(10.4,0,0,10.4,109,828.5)" />
<use xlink:href="#f1_29" transform="matrix(10.4,0,0,10.4,125.3,828.5)" />
<use xlink:href="#f1_21" transform="matrix(10.4,0,0,10.4,138.9,828.5)" />
<use xlink:href="#f1_1z" transform="matrix(10.4,0,0,10.4,147.7,828.5)" />
<use xlink:href="#f1_24" transform="matrix(10.4,0,0,10.4,155.7,828.5)" />
<use xlink:href="#f1_1x" transform="matrix(10.4,0,0,10.4,164.5,828.5)" />
<use xlink:href="#f1_2a" transform="matrix(10.4,0,0,10.4,173.3,828.5)" />
<use xlink:href="#f1_25" transform="matrix(10.4,0,0,10.4,182.1,828.5)" />
<use xlink:href="#f1_2f" transform="matrix(10.4,0,0,10.4,185.6,828.5)" />
<use xlink:href="#f1_29" transform="matrix(10.4,0,0,10.4,193.7,828.5)" />
<use xlink:href="#f1_2b" transform="matrix(10.4,0,0,10.4,214.8,828.5)" />
<use xlink:href="#f1_22" transform="matrix(10.4,0,0,10.4,223.6,828.5)" />
<use xlink:href="#f1_2g" transform="matrix(10.4,0,0,10.4,235.7,828.5)" />
<use xlink:href="#f1_24" transform="matrix(10.4,0,0,10.4,240.1,828.5)" />
<use xlink:href="#f1_21" transform="matrix(10.4,0,0,10.4,248.9,828.5)" />
<use xlink:href="#f1_22" transform="matrix(10.4,0,0,10.4,265.2,828.5)" />
<use xlink:href="#f1_2b" transform="matrix(10.4,0,0,10.4,269.8,828.5)" />
<use xlink:href="#f1_28" transform="matrix(10.4,0,0,10.4,278.6,828.5)" />
<use xlink:href="#f1_28" transform="matrix(10.4,0,0,10.4,282,828.5)" />
<use xlink:href="#f1_2b" transform="matrix(10.4,0,0,10.4,285.5,828.5)" />
<use xlink:href="#f1_2j" transform="matrix(10.4,0,0,10.4,294.3,828.5)" />
<use xlink:href="#f1_25" transform="matrix(10.4,0,0,10.4,305.5,828.5)" />
<use xlink:href="#f1_2a" transform="matrix(10.4,0,0,10.4,309,828.5)" />
<use xlink:href="#f1_23" transform="matrix(10.4,0,0,10.4,317.8,828.5)" />
<use xlink:href="#f1_2e" transform="matrix(10.4,0,0,10.4,334.1,828.5)" />
<use xlink:href="#f1_21" transform="matrix(10.4,0,0,10.4,339.4,828.5)" />
<use xlink:href="#f1_1x" transform="matrix(10.4,0,0,10.4,348.2,828.5)" />
<use xlink:href="#f1_1z" transform="matrix(10.4,0,0,10.4,357,828.5)" />
<use xlink:href="#f1_2g" transform="matrix(10.4,0,0,10.4,365.1,828.5)" />
<use xlink:href="#f1_25" transform="matrix(10.4,0,0,10.4,369.5,828.5)" />
<use xlink:href="#f1_2b" transform="matrix(10.4,0,0,10.4,373,828.5)" />
<use xlink:href="#f1_2a" transform="matrix(10.4,0,0,10.4,381.8,828.5)" />
<use xlink:href="#f1_2f" transform="matrix(10.4,0,0,10.4,390.6,828.5)" />
<use xlink:href="#f1_u" transform="matrix(10.4,0,0,10.4,406.2,828.5)" />
<use xlink:href="#f1_c" transform="matrix(10.4,0,0,10.4,85.2,862.6)" />
<use xlink:href="#f1_25" transform="matrix(10.4,0,0,10.4,90.9,862.6)" />
<use xlink:href="#f1_d" transform="matrix(10.4,0,0,10.4,94.7,862.6)" />
<use xlink:href="#f1_c" transform="matrix(10.4,0,0,10.4,128.4,862.6)" />
<use xlink:href="#f1_13" transform="matrix(10.4,0,0,10.4,133.7,862.6)" />
<use xlink:href="#f1_18" transform="matrix(10.4,0,0,10.4,145.3,862.6)" />
<use xlink:href="#f1_n" transform="matrix(7.4,0,0,7.4,156.9,867.9)" />
<use xlink:href="#f1_d" transform="matrix(10.4,0,0,10.4,163.1,862.6)" />
<use xlink:href="#f1_n" transform="matrix(7.4,0,0,7.4,168.4,867.9)" />
<use xlink:href="#f1_13" transform="matrix(10.4,0,0,10.4,174.6,862.6)" />
<use xlink:href="#f1_1jz" transform="matrix(10.4,0,0,10.4,193,862.6)" />
<use xlink:href="#f1_13" transform="matrix(10.4,0,0,10.4,208.7,862.6)" />
<use xlink:href="#f1_28" transform="matrix(10.4,0,0,10.4,220.3,862.6)" />
<use xlink:href="#f1_f" transform="matrix(10.4,0,0,10.4,230.5,862.6)" />
<use xlink:href="#f1_1f" transform="matrix(10.4,0,0,10.4,246.9,862.6)" />
</g>
<g clip-path="url(#c1_74)">
<g fill="#000000" >
<use xlink:href="#f1_1jz" transform="matrix(7.4,0,0,7.4,250.4,851)" />
</g>
</g>
<g fill="#000000" >
<use xlink:href="#f1_18" transform="matrix(10.4,0,0,10.4,262.1,862.6)" />
</g>
<g clip-path="url(#c2_74)">
<g fill="#000000" >
<use xlink:href="#f2_1mh" transform="matrix(10.7,0,0,10.7,308.5,860.5)" />
</g>
</g>
<g fill="#000000" >
<use xlink:href="#f1_c" transform="matrix(10.4,0,0,10.4,334.5,862.6)" />
<use xlink:href="#f1_13" transform="matrix(10.4,0,0,10.4,339.8,862.6)" />
<use xlink:href="#f1_18" transform="matrix(10.4,0,0,10.4,351.4,862.6)" />
<use xlink:href="#f1_n" transform="matrix(7.4,0,0,7.4,362.9,867.9)" />
<use xlink:href="#f1_d" transform="matrix(10.4,0,0,10.4,369.2,862.6)" />
<use xlink:href="#f1_n" transform="matrix(7.4,0,0,7.4,374.5,867.9)" />
<use xlink:href="#f1_13" transform="matrix(10.4,0,0,10.4,387.7,862.6)" />
<use xlink:href="#f1_1jz" transform="matrix(10.4,0,0,10.4,406,862.6)" />
<use xlink:href="#f1_1f" transform="matrix(10.4,0,0,10.4,421.8,862.6)" />
<use xlink:href="#f1_18" transform="matrix(10.4,0,0,10.4,434.2,862.6)" />
<use xlink:href="#f1_c" transform="matrix(10.4,0,0,10.4,85.2,900.2)" />
<use xlink:href="#f1_25" transform="matrix(10.4,0,0,10.4,90.7,900.2)" />
<use xlink:href="#f1_25" transform="matrix(10.4,0,0,10.4,94.5,900.2)" />
<use xlink:href="#f1_d" transform="matrix(10.4,0,0,10.4,98.2,900.2)" />
<use xlink:href="#f1_13" transform="matrix(10.4,0,0,10.4,128.4,900.2)" />
<use xlink:href="#f1_18" transform="matrix(10.4,0,0,10.4,140,900.2)" />
<use xlink:href="#f1_n" transform="matrix(7.4,0,0,7.4,151.5,905.5)" />
<use xlink:href="#f1_1jz" transform="matrix(10.4,0,0,10.4,164.4,900.2)" />
<use xlink:href="#f1_13" transform="matrix(10.4,0,0,10.4,179.6,900.2)" />
<use xlink:href="#f1_28" transform="matrix(10.4,0,0,10.4,191.1,900.2)" />
<use xlink:href="#f1_f" transform="matrix(10.4,0,0,10.4,201.2,900.2)" />
<use xlink:href="#f1_1f" transform="matrix(10.4,0,0,10.4,217.2,900.2)" />
<use xlink:href="#f1_18" transform="matrix(10.4,0,0,10.4,229.6,900.2)" />
</g>
<g clip-path="url(#c3_74)">
<g fill="#000000" >
<use xlink:href="#f1_1jz" transform="matrix(7.4,0,0,7.4,241.2,894.8)" />
</g>
</g>
<g clip-path="url(#c4_74)">
<g fill="#000000" >
<use xlink:href="#f2_1mh" transform="matrix(10.7,0,0,10.7,281.9,898.1)" />
</g>
</g>
<g fill="#000000" >
<use xlink:href="#f1_13" transform="matrix(10.4,0,0,10.4,307.6,900.2)" />
<use xlink:href="#f1_18" transform="matrix(10.4,0,0,10.4,319.1,900.2)" />
<use xlink:href="#f1_n" transform="matrix(7.4,0,0,7.4,330.7,905.5)" />
<use xlink:href="#f1_1jz" transform="matrix(10.4,0,0,10.4,343.5,900.2)" />
<use xlink:href="#f1_1f" transform="matrix(10.4,0,0,10.4,358.9,900.2)" />
<use xlink:href="#f1_18" transform="matrix(10.4,0,0,10.4,371.3,900.2)" />
<use xlink:href="#f3_p" transform="matrix(12,0,0,12,665.7,1032.4)" />
</g>
<g fill="#0080FF" fill-opacity="0.5" >
<use xlink:href="#f0_1c" transform="matrix(38.6,0,0,38.6,185.2,1050.5)" />
<use xlink:href="#f0_21" transform="matrix(38.6,0,0,38.6,218,1050.5)" />
<use xlink:href="#f0_1x" transform="matrix(38.6,0,0,38.6,250.8,1050.5)" />
<use xlink:href="#f0_2e" transform="matrix(38.6,0,0,38.6,283.7,1050.5)" />
<use xlink:href="#f0_2a" transform="matrix(38.6,0,0,38.6,303.3,1050.5)" />
<use xlink:href="#f0_17" transform="matrix(38.6,0,0,38.6,336.1,1050.5)" />
<use xlink:href="#f0_2h" transform="matrix(38.6,0,0,38.6,382,1050.5)" />
<use xlink:href="#f0_25" transform="matrix(38.6,0,0,38.6,414.8,1050.5)" />
<use xlink:href="#f0_20" transform="matrix(38.6,0,0,38.6,427.9,1050.5)" />
<use xlink:href="#f0_21" transform="matrix(38.6,0,0,38.6,460.7,1050.5)" />
<use xlink:href="#f0_i" transform="matrix(38.6,0,0,38.6,493.5,1050.5)" />
<use xlink:href="#f0_25" transform="matrix(38.6,0,0,38.6,509.9,1050.5)" />
<use xlink:href="#f0_2a" transform="matrix(38.6,0,0,38.6,523,1050.5)" />
</g>
<defs>
<path d="M593,101c0,0,182,0,279,112c0,0,98,113,98,318c0,0,0,196,-98,308c0,0,-98,112,-277,112c0,0,-181,0,-279,-110c0,0,-99,-111,-99,-310c0,0,0,-198,100,-314c0,0,99,-116,276,-116Zm0,-115c0,0,-162,0,-279,65c0,0,-118,66,-180,190c0,0,-62,124,-62,290c0,0,0,252,138,394c0,0,138,142,385,142c0,0,160,0,278,-64c0,0,118,-64,180,-185c0,0,62,-122,62,-287c0,0,0,-165,-63,-289c0,0,-63,-124,-181,-190c0,0,-118,-66,-278,-66Z" 
id="f0_1f"
transform="scale(0.001,-0.001)" />

<path d="M106,0V635c0,0,0,141,-5,173H228c0,0,1,-4,2,-21c0,0,1,-16,2,-37c0,0,1,-22,2,-81h2c0,0,47,84,108,119c0,0,60,34,151,34c0,0,132,0,194,-66c0,0,61,-66,61,-218V0H615V512c0,0,0,80,-15,124c0,0,-16,44,-50,63c0,0,-35,20,-101,20c0,0,-97,0,-153,-67c0,0,-56,-66,-56,-184V0Z" 
id="f0_2a"
transform="scale(0.001,-0.001)" />

<path d="M103,0V1107H237V0Z" 
id="f0_28"
transform="scale(0.001,-0.001)" />

<path d="M102,0V808H236V0Zm0,979v128H236V979Z" 
id="f0_25"
transform="scale(0.001,-0.001)" />

<path d="M643,478c0,0,-11,128,-65,187c0,0,-54,59,-154,59c0,0,-98,0,-155,-66c0,0,-57,-65,-62,-180ZM431,-14c0,0,-179,0,-272,106c0,0,-94,107,-94,317c0,0,0,200,94,307c0,0,93,106,267,106c0,0,356,0,356,-429V375H206c0,0,0,-138,57,-213c0,0,58,-75,168,-75c0,0,87,0,140,35c0,0,53,35,71,88L760,177c0,0,-72,-191,-329,-191Z" 
id="f0_21"
transform="scale(0.001,-0.001)" />

<path d="M17,0L304,415L31,808H179L380,493L580,808H730L457,417L747,0H598L380,331L162,0Z" 
id="f0_2k"
transform="scale(0.001,-0.001)" />

<path d="M339,87c0,0,74,0,132,34c0,0,57,33,90,91c0,0,34,59,34,121v66L448,396c0,0,-95,-2,-144,-19c0,0,-49,-18,-75,-55c0,0,-26,-38,-26,-98c0,0,0,-65,35,-101c0,0,36,-36,101,-36ZM309,-14c0,0,-122,0,-183,64c0,0,-61,64,-61,176c0,0,0,125,82,192c0,0,83,67,266,72l182,3v44c0,0,0,98,-42,141c0,0,-42,43,-132,43c0,0,-90,0,-131,-31c0,0,-41,-31,-49,-98L101,604c0,0,34,218,323,218c0,0,153,0,229,-70c0,0,77,-69,77,-202V202c0,0,0,-59,16,-90c0,0,16,-30,60,-30c0,0,19,0,44,5V4C850,4,799,-7,746,-7c0,0,-75,0,-109,38c0,0,-33,40,-38,124h-4C595,155,543,62,475,24c0,0,-68,-38,-166,-38Z" 
id="f0_1x"
transform="scale(0.001,-0.001)" />

<path d="M106,0V635c0,0,0,141,-5,173H228c0,0,1,-4,2,-21c0,0,1,-16,2,-37c0,0,1,-22,2,-81h2c0,0,44,86,100,120c0,0,56,33,136,33c0,0,92,0,145,-36c0,0,54,-37,75,-117h2c0,0,42,82,101,117c0,0,59,36,143,36c0,0,123,0,178,-66c0,0,56,-67,56,-218V0H1039V512c0,0,0,117,-32,162c0,0,-32,45,-116,45c0,0,-88,0,-136,-66c0,0,-49,-65,-49,-185V0H573V512c0,0,0,117,-32,162c0,0,-32,45,-116,45c0,0,-86,0,-136,-66c0,0,-50,-66,-50,-185V0Z" 
id="f0_29"
transform="scale(0.001,-0.001)" />

<path d="M453,84c0,0,100,0,146,74c0,0,46,73,46,247c0,0,0,169,-46,241c0,0,-45,73,-145,73c0,0,-80,0,-125,-34c0,0,-45,-34,-68,-105c0,0,-24,-71,-24,-186c0,0,0,-159,51,-234c0,0,51,-76,165,-76ZM103,-316V643c0,0,0,124,-5,165H228c0,0,1,-3,3,-22c0,0,1,-18,3,-56c0,0,2,-38,2,-52h3c0,0,36,75,94,110c0,0,59,34,156,34c0,0,149,0,223,-100c0,0,74,-100,74,-314c0,0,0,-422,-297,-422c0,0,-187,0,-251,140h-4c0,0,3,-6,3,-126V-316Z" 
id="f0_2c"
transform="scale(0.001,-0.001)" />

<path d="M420,84c0,0,121,0,173,78c0,0,52,77,52,243c0,0,0,167,-50,243c0,0,-50,76,-167,76c0,0,-118,0,-170,-78c0,0,-53,-77,-53,-241c0,0,0,-160,52,-241c0,0,52,-80,163,-80Zm1,-98c0,0,-176,0,-267,107c0,0,-90,108,-90,312c0,0,0,417,362,417c0,0,185,0,272,-102c0,0,88,-101,88,-315c0,0,0,-212,-94,-316C692,89,599,-14,421,-14Z" 
id="f0_2b"
transform="scale(0.001,-0.001)" />

<path d="M278,-11c0,0,-162,0,-162,182V710H23v98h99l39,181h90V808H400V710H251V200c0,0,0,-58,19,-82c0,0,19,-23,66,-23c0,0,27,0,77,10V6c0,0,-66,-17,-135,-17Z" 
id="f0_2g"
transform="scale(0.001,-0.001)" />

<path d="M370,-316c0,0,-141,152,-208,323C162,7,95,179,95,394v3c0,0,0,215,67,387c0,0,68,171,208,323H500c0,0,-140,-155,-205,-330c0,0,-65,-175,-65,-382c0,0,0,-207,64,-381c0,0,65,-172,206,-330Z" 
id="f1_c"
transform="scale(0.001,-0.001)" />

<path d="M298,0L5,808H148L326,282c0,0,10,-29,51,-176l27,87l29,88L616,808H759L457,0Z" 
id="f1_2i"
transform="scale(0.001,-0.001)" />

<path d="M102,0V808H236V0Zm0,979v128H236V979Z" 
id="f1_25"
transform="scale(0.001,-0.001)" />

<path d="M9,-316c0,0,140,157,205,329c0,0,65,174,65,382c0,0,0,208,-65,382c0,0,-66,174,-205,330H139c0,0,141,-152,208,-324c0,0,67,-172,67,-386v-3c0,0,0,-216,-67,-388c0,0,-68,-170,-208,-322Z" 
id="f1_d"
transform="scale(0.001,-0.001)" />

<path d="M590,-14c0,0,-159,0,-275,65c0,0,-116,66,-177,189c0,0,-60,123,-60,291c0,0,0,251,135,393c0,0,136,143,376,143c0,0,168,0,281,-66c0,0,112,-66,165,-195L900,762c0,0,-36,92,-117,141c0,0,-81,48,-192,48c0,0,-175,0,-272,-112c0,0,-97,-112,-97,-308c0,0,0,-193,101,-311c0,0,101,-117,274,-117c0,0,221,0,332,218l116,-58c0,0,-65,-136,-182,-207c0,0,-118,-70,-273,-70Z" 
id="f1_13"
transform="scale(0.001,-0.001)" />

<path d="M125,0V1051H268V606H836v445H979V0H836V487H268V0Z" 
id="f1_18"
transform="scale(0.001,-0.001)" />

<path d="M426,-14c0,0,-160,0,-255,71c0,0,-95,72,-113,213l139,13c0,0,27,-187,229,-187c0,0,101,0,159,50c0,0,58,50,58,149c0,0,0,86,-66,134c0,0,-66,48,-191,48H310V594h73c0,0,111,0,172,48c0,0,60,48,60,133c0,0,0,84,-49,132c0,0,-50,49,-147,49c0,0,-89,0,-144,-45c0,0,-55,-46,-64,-129L76,793c0,0,15,129,107,201c0,0,92,73,237,73c0,0,158,0,246,-74c0,0,87,-73,87,-204c0,0,0,-101,-56,-164c0,0,-56,-63,-164,-85v-3c0,0,118,-13,184,-79c0,0,66,-67,66,-167c0,0,0,-146,-93,-226c0,0,-92,-79,-264,-79Z" 
id="f1_n"
transform="scale(0.001,-0.001)" />

<path d="M545,114c0,0,130,0,190,49c0,0,59,48,59,144c0,0,0,186,-261,186H268V114ZM507,604c0,0,114,0,171,43c0,0,56,43,56,132c0,0,0,85,-58,121c0,0,-58,37,-169,37H268V604ZM125,0V1051H507c0,0,370,0,370,-255c0,0,0,-93,-52,-157c0,0,-52,-63,-148,-85c0,0,126,-15,194,-84c0,0,67,-69,67,-174c0,0,0,-140,-102,-218C836,78,734,0,552,0Z" 
id="f1_12"
transform="scale(0.001,-0.001)" />

<path d="M106,0V620c0,0,0,85,-5,188H228c0,0,6,-138,6,-165h3c0,0,32,103,74,141c0,0,42,38,118,38c0,0,27,0,54,-7V692c0,0,-26,7,-71,7c0,0,-84,0,-128,-72c0,0,-44,-72,-44,-206V0Z" 
id="f1_2e"
transform="scale(0.001,-0.001)" />

<path d="M125,0V1051H268V524l506,527H942L495,595L1002,0H825L405,507L268,403V0Z" 
id="f1_1b"
transform="scale(0.001,-0.001)" />

<path d="M125,0V1051H291L859,150c0,0,-9,146,-9,212v689H979V0H807L245,895l3,-72l4,-125V0Z" 
id="f1_1e"
transform="scale(0.001,-0.001)" />

<path d="M961,74c0,0,46,97,89,147H312v65h738c0,0,-43,50,-89,146h54c0,0,94,-111,201,-165V240c0,0,-107,-55,-201,-166Z" 
id="f2_1mh"
transform="scale(0.001,-0.001)" />

<path d="M708,418L573,765c0,0,-21,52,-42,117l-20,62l-7,-21c0,0,-18,-62,-55,-159L315,418ZM3,0L432,1051H594L1016,0H871L750,307H272L151,0Z" 
id="f1_11"
transform="scale(0.001,-0.001)" />

<path d="M391,134V454H75V562H391V882H501V562H817V454H501V134Z" 
id="f1_f"
transform="scale(0.001,-0.001)" />

<path d="M593,101c0,0,182,0,279,112c0,0,98,113,98,318c0,0,0,196,-98,308c0,0,-98,112,-277,112c0,0,-181,0,-279,-110c0,0,-99,-111,-99,-310c0,0,0,-198,100,-314c0,0,99,-116,276,-116Zm0,-115c0,0,-162,0,-279,65c0,0,-118,66,-180,190c0,0,-62,124,-62,290c0,0,0,252,138,394c0,0,138,142,385,142c0,0,160,0,278,-64c0,0,118,-64,180,-185c0,0,62,-122,62,-287c0,0,0,-165,-63,-289c0,0,-63,-124,-181,-190c0,0,-118,-66,-278,-66Z" 
id="f1_1f"
transform="scale(0.001,-0.001)" />

<path d="M530,344V900c0,0,-1,-5,-20,-40c0,0,-20,-35,-30,-49L211,414L171,359L159,344ZM530,0V239H35V343l481,708H657V344H805V239H657V0Z" 
id="f1_o"
transform="scale(0.001,-0.001)" />

<path d="M125,0V1051H268V115H799V0Z" 
id="f1_1c"
transform="scale(0.001,-0.001)" />

<path d="M103,0V1107H237V0Z" 
id="f1_28"
transform="scale(0.001,-0.001)" />

<path d="M643,478c0,0,-11,128,-65,187c0,0,-54,59,-154,59c0,0,-98,0,-155,-66c0,0,-57,-65,-62,-180ZM431,-14c0,0,-179,0,-272,106c0,0,-94,107,-94,317c0,0,0,200,94,307c0,0,93,106,267,106c0,0,356,0,356,-429V375H206c0,0,0,-138,57,-213c0,0,58,-75,168,-75c0,0,87,0,140,35c0,0,53,35,71,88L760,177c0,0,-72,-191,-329,-191Z" 
id="f1_21"
transform="scale(0.001,-0.001)" />

<path d="M278,-11c0,0,-162,0,-162,182V710H23v98h99l39,181h90V808H400V710H251V200c0,0,0,-58,19,-82c0,0,19,-23,66,-23c0,0,27,0,77,10V6c0,0,-66,-17,-135,-17Z" 
id="f1_2g"
transform="scale(0.001,-0.001)" />

<path d="M615,0V512c0,0,0,85,-15,126c0,0,-16,42,-52,61c0,0,-36,20,-99,20c0,0,-95,0,-152,-66c0,0,-57,-66,-57,-177V0H106V1107H240V819c0,0,0,-45,-2,-94c0,0,-3,-48,-4,-56h2c0,0,44,79,105,116c0,0,60,37,154,37c0,0,131,0,193,-65c0,0,62,-65,62,-219V0Z" 
id="f1_24"
transform="scale(0.001,-0.001)" />

<path d="M272,0c0,0,0,201,86,424c0,0,85,223,285,513H78v114H773V942C773,942,612,696,545,556c0,0,-66,-139,-99,-275C446,281,413,145,413,0Z" 
id="f1_r"
transform="scale(0.001,-0.001)" />

<path d="M140,0V163H285V0Z" 
id="f1_i"
transform="scale(0.001,-0.001)" />

<path d="M125,0V1051H923V936H268V597H878V482H268V115H953V0Z" 
id="f1_15"
transform="scale(0.001,-0.001)" />

<path d="M17,0L304,415L31,808H179L380,493L580,808H730L457,417L747,0H598L380,331L162,0Z" 
id="f1_2k"
transform="scale(0.001,-0.001)" />

<path d="M453,84c0,0,100,0,146,74c0,0,46,73,46,247c0,0,0,169,-46,241c0,0,-45,73,-145,73c0,0,-80,0,-125,-34c0,0,-45,-34,-68,-105c0,0,-24,-71,-24,-186c0,0,0,-159,51,-234c0,0,51,-76,165,-76ZM103,-316V643c0,0,0,124,-5,165H228c0,0,1,-3,3,-22c0,0,1,-18,3,-56c0,0,2,-38,2,-52h3c0,0,36,75,94,110c0,0,59,34,156,34c0,0,149,0,223,-100c0,0,74,-100,74,-314c0,0,0,-422,-297,-422c0,0,-187,0,-251,140h-4c0,0,3,-6,3,-126V-316Z" 
id="f1_2c"
transform="scale(0.001,-0.001)" />

<path d="M339,87c0,0,74,0,132,34c0,0,57,33,90,91c0,0,34,59,34,121v66L448,396c0,0,-95,-2,-144,-19c0,0,-49,-18,-75,-55c0,0,-26,-38,-26,-98c0,0,0,-65,35,-101c0,0,36,-36,101,-36ZM309,-14c0,0,-122,0,-183,64c0,0,-61,64,-61,176c0,0,0,125,82,192c0,0,83,67,266,72l182,3v44c0,0,0,98,-42,141c0,0,-42,43,-132,43c0,0,-90,0,-131,-31c0,0,-41,-31,-49,-98L101,604c0,0,34,218,323,218c0,0,153,0,229,-70c0,0,77,-69,77,-202V202c0,0,0,-59,16,-90c0,0,16,-30,60,-30c0,0,19,0,44,5V4C850,4,799,-7,746,-7c0,0,-75,0,-109,38c0,0,-33,40,-38,124h-4C595,155,543,62,475,24c0,0,-68,-38,-166,-38Z" 
id="f1_1x"
transform="scale(0.001,-0.001)" />

<path d="M106,0V635c0,0,0,141,-5,173H228c0,0,1,-4,2,-21c0,0,1,-16,2,-37c0,0,1,-22,2,-81h2c0,0,47,84,108,119c0,0,60,34,151,34c0,0,132,0,194,-66c0,0,61,-66,61,-218V0H615V512c0,0,0,80,-15,124c0,0,-16,44,-50,63c0,0,-35,20,-101,20c0,0,-97,0,-153,-67c0,0,-56,-66,-56,-184V0Z" 
id="f1_2a"
transform="scale(0.001,-0.001)" />

<path d="M135,0V710H22v98H135v91c0,0,0,110,49,158c0,0,48,49,148,49c0,0,56,0,95,-9V994c0,0,-34,6,-60,6c0,0,-51,0,-75,-26c0,0,-23,-26,-23,-94V808H427V710H269V0Z" 
id="f1_22"
transform="scale(0.001,-0.001)" />

<path d="M420,84c0,0,121,0,173,78c0,0,52,77,52,243c0,0,0,167,-50,243c0,0,-50,76,-167,76c0,0,-118,0,-170,-78c0,0,-53,-77,-53,-241c0,0,0,-160,52,-241c0,0,52,-80,163,-80Zm1,-98c0,0,-176,0,-267,107c0,0,-90,108,-90,312c0,0,0,417,362,417c0,0,185,0,272,-102c0,0,88,-101,88,-315c0,0,0,-212,-94,-316C692,89,599,-14,421,-14Z" 
id="f1_2b"
transform="scale(0.001,-0.001)" />

<path d="M224,0L-1,808H131L267,259c0,0,5,-18,32,-147l13,55L480,808H624L765,253L800,112l23,103L976,808h131L876,0H720L579,571L552,697c0,0,-7,-33,-21,-96C531,601,517,537,379,0Z" 
id="f1_2j"
transform="scale(0.001,-0.001)" />

<path d="M398,93c0,0,63,0,112,37c0,0,49,38,76,107c0,0,27,70,27,166c0,0,0,99,-27,170c0,0,-27,71,-75,109c0,0,-49,38,-111,38c0,0,-103,0,-150,-75c0,0,-47,-75,-47,-242c0,0,0,-165,44,-238c0,0,44,-72,151,-72Zm11,-409c0,0,-132,0,-211,52c0,0,-78,52,-100,147l135,20c0,0,13,-56,59,-87c0,0,46,-30,121,-30c0,0,200,0,200,234V150h-1C612,150,574,72,507,33C507,33,441,-5,352,-5c0,0,-148,0,-218,98c0,0,-70,98,-70,309c0,0,0,214,75,316c0,0,75,101,228,101c0,0,86,0,149,-39c0,0,63,-39,97,-111h2c0,0,0,22,3,78c0,0,3,55,6,61H751c0,0,-4,-41,-4,-167V23c0,0,0,-339,-338,-339Z" 
id="f1_23"
transform="scale(0.001,-0.001)" />

<path d="M413,-14c0,0,-170,0,-259,106c0,0,-89,107,-89,313c0,0,0,203,89,310c0,0,90,107,257,107c0,0,124,0,206,-64c0,0,81,-64,102,-177L581,571c0,0,-10,67,-53,106c0,0,-42,40,-121,40c0,0,-106,0,-154,-71c0,0,-48,-71,-48,-239c0,0,0,-161,51,-238c0,0,51,-78,153,-78c0,0,71,0,120,39c0,0,48,39,59,119l136,-9C724,240,708,124,624,55c0,0,-83,-69,-211,-69Z" 
id="f1_1z"
transform="scale(0.001,-0.001)" />

<path d="M381,-14c0,0,-150,0,-232,49C149,35,67,85,43,190l118,23c0,0,17,-65,71,-96c0,0,54,-30,149,-30c0,0,102,0,150,31c0,0,47,32,47,95c0,0,0,47,-33,77c0,0,-33,30,-106,49l-96,26c0,0,-115,30,-164,58c0,0,-49,29,-77,70c0,0,-27,41,-27,101c0,0,0,110,78,168c0,0,79,57,230,57c0,0,133,0,212,-47c0,0,79,-47,100,-150L574,607c0,0,-12,53,-60,82c0,0,-49,29,-131,29c0,0,-91,0,-135,-28c0,0,-43,-27,-43,-83c0,0,0,-34,18,-57c0,0,18,-22,53,-38c0,0,35,-15,148,-43c0,0,106,-27,153,-50c0,0,47,-22,75,-50c0,0,27,-27,42,-64c0,0,15,-36,15,-82c0,0,0,-114,-86,-176c0,0,-87,-61,-242,-61Z" 
id="f1_2f"
transform="scale(0.001,-0.001)" />

<path d="M355,-14c0,0,-133,0,-194,65c0,0,-62,66,-62,219V808H234V296c0,0,0,-80,16,-124c0,0,16,-44,50,-64c0,0,34,-19,101,-19c0,0,97,0,153,66c0,0,55,67,55,185V808H744V172c0,0,0,-141,4,-172H621c0,0,0,4,-1,20c0,0,-1,17,-2,38c0,0,-1,21,-3,80h-2C613,138,567,55,506,20c0,0,-61,-34,-151,-34Z" 
id="f1_2h"
transform="scale(0.001,-0.001)" />

<path d="M453,84c0,0,101,0,146,75c0,0,46,75,46,244c0,0,0,169,-45,243c0,0,-45,73,-146,73c0,0,-113,0,-165,-78c0,0,-52,-78,-52,-246c0,0,0,-159,51,-235c0,0,51,-76,165,-76Zm36,-98c0,0,-92,0,-153,33c0,0,-61,33,-99,107h-1c0,0,0,-24,-3,-71c0,0,-3,-48,-5,-55H98c0,0,5,40,5,166v941H237V792c0,0,0,-49,-3,-114h3c0,0,38,77,99,111c0,0,62,33,153,33c0,0,153,0,225,-103c0,0,72,-103,72,-311c0,0,0,-422,-297,-422Z" 
id="f1_1y"
transform="scale(0.001,-0.001)" />

<path d="M106,0V635c0,0,0,141,-5,173H228c0,0,1,-4,2,-21c0,0,1,-16,2,-37c0,0,1,-22,2,-81h2c0,0,44,86,100,120c0,0,56,33,136,33c0,0,92,0,145,-36c0,0,54,-37,75,-117h2c0,0,42,82,101,117c0,0,59,36,143,36c0,0,123,0,178,-66c0,0,56,-67,56,-218V0H1039V512c0,0,0,117,-32,162c0,0,-32,45,-116,45c0,0,-88,0,-136,-66c0,0,-49,-65,-49,-185V0H573V512c0,0,0,117,-32,162c0,0,-32,45,-116,45c0,0,-86,0,-136,-66c0,0,-50,-66,-50,-185V0Z" 
id="f1_29"
transform="scale(0.001,-0.001)" />

<path d="M140,0V154H285V0Zm0,653V808H285V653Z" 
id="f1_u"
transform="scale(0.001,-0.001)" />

<path d="M125,0V1051H872V936H268V544H854V425H268V0Z" 
id="f1_16"
transform="scale(0.001,-0.001)" />

<path d="M103,0V1107H237V416L592,808H749L421,461L766,0H609L336,369L237,287V0Z" 
id="f1_27"
transform="scale(0.001,-0.001)" />

<path d="M515,-14c0,0,-384,0,-446,266l138,28c0,0,24,-95,102,-139c0,0,77,-44,211,-44c0,0,138,0,213,47c0,0,75,47,75,139c0,0,0,51,-24,83c0,0,-23,33,-66,53c0,0,-42,21,-101,35c0,0,-59,15,-131,31c0,0,-124,28,-189,55c0,0,-64,28,-102,62c0,0,-37,34,-57,79c0,0,-19,46,-19,105c0,0,0,135,103,208c0,0,103,73,296,73c0,0,179,0,273,-55c0,0,95,-55,133,-187L784,800c0,0,-23,84,-88,122c0,0,-65,37,-180,37c0,0,-126,0,-192,-42c0,0,-67,-41,-67,-124c0,0,0,-48,26,-80c0,0,26,-32,74,-54c0,0,49,-22,194,-54c0,0,48,-11,96,-23c0,0,48,-11,92,-27c0,0,44,-16,83,-38c0,0,38,-22,66,-53c0,0,29,-31,45,-74c0,0,16,-42,16,-100c0,0,0,-145,-114,-225c0,0,-114,-79,-320,-79Z" 
id="f1_1j"
transform="scale(0.001,-0.001)" />

<path d="M316,0L7,1051H155L344,383c0,0,33,-125,62,-258c0,0,18,82,41,179c0,0,24,97,207,747H791L974,397c0,0,41,-160,65,-272l7,26c0,0,20,86,33,140c0,0,12,54,209,760h149L1127,0H957L775,668c0,0,-18,62,-52,224c0,0,-20,-86,-33,-145C690,747,677,689,486,0Z" 
id="f1_1n"
transform="scale(0.001,-0.001)" />

<path d="M62,0V102L513,704H87V808H672V706L220,104H688V0Z" 
id="f1_2m"
transform="scale(0.001,-0.001)" />

<path d="M68,346V465H441V346Z" 
id="f1_h"
transform="scale(0.001,-0.001)" />

<path d="M395,89c0,0,115,0,166,79c0,0,51,79,51,246c0,0,0,160,-51,235c0,0,-51,75,-164,75c0,0,-102,0,-147,-75c0,0,-45,-75,-45,-244c0,0,0,-170,45,-243c0,0,45,-73,145,-73ZM361,-14c0,0,-153,0,-225,102c0,0,-72,103,-72,312c0,0,0,422,297,422c0,0,92,0,153,-33c0,0,61,-34,98,-107h2l-2,90v335H747V166c0,0,0,-126,4,-166H623c0,0,-2,12,-5,55c0,0,-3,44,-3,75h-3c0,0,-37,-78,-98,-111c0,0,-62,-33,-153,-33Z" 
id="f1_20"
transform="scale(0.001,-0.001)" />

<path d="M95,710c0,0,70,102,70,194H99v147H245V943c0,0,0,-79,-14,-132c0,0,-15,-53,-45,-101Z" 
id="f1_1k5"
transform="scale(0.001,-0.001)" />

<path d="M142,-316c0,0,-55,0,-92,8v101c0,0,28,-4,63,-4c0,0,125,0,198,184L324,4L4,808H147L317,362c0,0,4,-11,9,-25c0,0,5,-15,34,-98c0,0,28,-83,30,-92l52,147L619,808H761L451,0c0,0,-50,-128,-94,-191c0,0,-43,-63,-96,-94c0,0,-52,-31,-119,-31Z" 
id="f1_2l"
transform="scale(0.001,-0.001)" />

<path d="M427,86c0,0,109,0,163,53c0,0,54,52,54,167c0,0,0,97,-58,147c0,0,-59,50,-164,50c0,0,-102,0,-159,-54c0,0,-58,-53,-58,-146c0,0,0,-217,222,-217Zm-3,517c0,0,94,0,144,44c0,0,50,43,50,141c0,0,0,178,-196,178c0,0,-95,0,-144,-45c0,0,-50,-44,-50,-133c0,0,0,-90,51,-137c0,0,51,-48,145,-48Zm1,-617c0,0,-168,0,-263,79c0,0,-96,80,-96,227c0,0,0,103,59,173c0,0,59,70,151,85v3c0,0,-86,20,-135,87c0,0,-50,67,-50,157c0,0,0,121,90,195c0,0,90,75,241,75c0,0,155,0,245,-73c0,0,90,-74,90,-198c0,0,0,-90,-50,-158c0,0,-50,-67,-136,-84v-3c0,0,100,-16,156,-85c0,0,56,-69,56,-173c0,0,0,-145,-92,-226c0,0,-93,-81,-266,-81Z" 
id="f1_s"
transform="scale(0.001,-0.001)" />

<path d="M57,-316c0,0,-57,0,-93,7v103l45,-4c0,0,51,0,72,27c0,0,21,27,21,104V808H236V-99c0,0,0,-114,-44,-165c0,0,-45,-52,-135,-52ZM102,979v128H236V979Z" 
id="f1_26"
transform="scale(0.001,-0.001)" />

<path d="M416,464c0,0,58,0,108,27c0,0,50,26,78,75c0,0,29,49,29,111c0,0,0,127,-58,204c0,0,-58,77,-156,77c0,0,-97,0,-153,-66c0,0,-56,-66,-56,-179c0,0,0,-115,56,-182c0,0,56,-67,152,-67ZM397,-14c0,0,-123,0,-197,51c0,0,-75,52,-107,168l129,20c0,0,40,-131,177,-131c0,0,116,0,179,107c0,0,64,107,67,306c0,0,-30,-67,-103,-108c0,0,-72,-40,-159,-40c0,0,-141,0,-226,97c0,0,-85,97,-85,257c0,0,0,165,92,259c0,0,93,95,257,95c0,0,176,0,266,-130c0,0,90,-130,90,-390c0,0,0,-271,-99,-416c0,0,-98,-145,-281,-145Z" 
id="f1_t"
transform="scale(0.001,-0.001)" />

<path d="M116,0V114H384V923L147,754V881l248,170H519V114H775V0Z" 
id="f1_l"
transform="scale(0.001,-0.001)" />

<path d="M424,96c0,0,119,0,174,106c0,0,55,106,55,325c0,0,0,227,-52,329c0,0,-53,102,-174,102c0,0,-123,0,-177,-100c0,0,-55,-101,-55,-331c0,0,0,-224,55,-328c0,0,55,-103,174,-103ZM423,-14c0,0,-181,0,-272,137c0,0,-91,138,-91,403c0,0,0,271,88,406c0,0,88,135,279,135c0,0,186,0,275,-137c0,0,88,-136,88,-404c0,0,0,-263,-93,-402c0,0,-93,-138,-274,-138Z" 
id="f1_k"
transform="scale(0.001,-0.001)" />

<path d="M606,-14c0,0,-164,0,-284,65c0,0,-119,66,-182,189c0,0,-63,123,-63,291c0,0,0,255,137,396c0,0,137,140,386,140c0,0,174,0,283,-59c0,0,109,-59,168,-189L915,779c0,0,-44,90,-123,131c0,0,-79,41,-196,41c0,0,-182,0,-278,-110c0,0,-96,-110,-96,-310c0,0,0,-200,102,-315c0,0,102,-115,282,-115c0,0,103,0,193,31c0,0,89,31,144,85V407H629V526h445V164c0,0,-83,-85,-205,-132c0,0,-121,-46,-263,-46Z" 
id="f1_17"
transform="scale(0.001,-0.001)" />

<path d="M0,336V439H849V336Z" 
id="f1_1jz"
transform="scale(0.001,-0.001)" />

<path d="M415,-18c0,0,-149,0,-244,83c0,0,-94,84,-107,222l140,11c0,0,16,-103,73,-154c0,0,56,-52,137,-52c0,0,98,0,165,73c0,0,66,73,66,194c0,0,0,115,-64,182c0,0,-64,66,-169,66c0,0,-65,0,-117,-29c0,0,-52,-30,-82,-77L87,517l106,562H736V951H300L241,657c0,0,99,69,207,69c0,0,143,0,242,-100c0,0,98,-99,98,-255c0,0,0,-149,-86,-257C702,114,597,-18,415,-18Z" 
id="f3_p"
transform="scale(0.001,-0.001)" />

<path d="M125,0V1051H268V115H799V0Z" 
id="f0_1c"
transform="scale(0.001,-0.001)" />

<path d="M106,0V620c0,0,0,85,-5,188H228c0,0,6,-138,6,-165h3c0,0,32,103,74,141c0,0,42,38,118,38c0,0,27,0,54,-7V692c0,0,-26,7,-71,7c0,0,-84,0,-128,-72c0,0,-44,-72,-44,-206V0Z" 
id="f0_2e"
transform="scale(0.001,-0.001)" />

<path d="M606,-14c0,0,-164,0,-284,65c0,0,-119,66,-182,189c0,0,-63,123,-63,291c0,0,0,255,137,396c0,0,137,140,386,140c0,0,174,0,283,-59c0,0,109,-59,168,-189L915,779c0,0,-44,90,-123,131c0,0,-79,41,-196,41c0,0,-182,0,-278,-110c0,0,-96,-110,-96,-310c0,0,0,-200,102,-315c0,0,102,-115,282,-115c0,0,103,0,193,31c0,0,89,31,144,85V407H629V526h445V164c0,0,-83,-85,-205,-132c0,0,-121,-46,-263,-46Z" 
id="f0_17"
transform="scale(0.001,-0.001)" />

<path d="M355,-14c0,0,-133,0,-194,65c0,0,-62,66,-62,219V808H234V296c0,0,0,-80,16,-124c0,0,16,-44,50,-64c0,0,34,-19,101,-19c0,0,97,0,153,66c0,0,55,67,55,185V808H744V172c0,0,0,-141,4,-172H621c0,0,0,4,-1,20c0,0,-1,17,-2,38c0,0,-1,21,-3,80h-2C613,138,567,55,506,20c0,0,-61,-34,-151,-34Z" 
id="f0_2h"
transform="scale(0.001,-0.001)" />

<path d="M395,89c0,0,115,0,166,79c0,0,51,79,51,246c0,0,0,160,-51,235c0,0,-51,75,-164,75c0,0,-102,0,-147,-75c0,0,-45,-75,-45,-244c0,0,0,-170,45,-243c0,0,45,-73,145,-73ZM361,-14c0,0,-153,0,-225,102c0,0,-72,103,-72,312c0,0,0,422,297,422c0,0,92,0,153,-33c0,0,61,-34,98,-107h2l-2,90v335H747V166c0,0,0,-126,4,-166H623c0,0,-2,12,-5,55c0,0,-3,44,-3,75h-3c0,0,-37,-78,-98,-111c0,0,-62,-33,-153,-33Z" 
id="f0_20"
transform="scale(0.001,-0.001)" />

<path d="M140,0V163H285V0Z" 
id="f0_i"
transform="scale(0.001,-0.001)" />


</defs>
</svg>