<?xml version="1.0" encoding="UTF-8" standalone="no"?>
<!DOCTYPE svg PUBLIC "-//W3C//DTD SVG 1.1//EN"
"http://www.w3.org/Graphics/SVG/1.1/DTD/svg11.dtd">
<svg viewBox="0 0 739 1084" version="1.1" xmlns="http://www.w3.org/2000/svg" xmlns:xlink="http://www.w3.org/1999/xlink">
<defs>
<clipPath id="c0_97"><path d="M397.9,402.7V390.8h20.7v11.9Z" /></clipPath>
<clipPath id="c1_97"><path d="M442.6,402.5V384.7h15.9v17.8Z" /></clipPath>
<clipPath id="c2_97"><path d="M447.9,402.5V384.7h10.6v17.8Z" /></clipPath>
<clipPath id="c3_97"><path d="M328.9,451.6V439.7h20.7v11.9Z" /></clipPath>
<clipPath id="c4_97"><path d="M327.1,881.7V867.1h25.8v14.6Z" /></clipPath>
</defs>
<g fill="#D4D4D4" fill-opacity="0.36" >
<use xlink:href="#f0_1f" transform="matrix(50.9,-50.9,50.9,50.9,127.9,814.1)" />
<use xlink:href="#f0_2a" transform="matrix(50.9,-50.9,50.9,50.9,188.4,753.6)" />
<use xlink:href="#f0_28" transform="matrix(50.9,-50.9,50.9,50.9,231.7,710.3)" />
<use xlink:href="#f0_25" transform="matrix(50.9,-50.9,50.9,50.9,248.9,693.1)" />
<use xlink:href="#f0_2a" transform="matrix(50.9,-50.9,50.9,50.9,266.2,675.8)" />
<use xlink:href="#f0_21" transform="matrix(50.9,-50.9,50.9,50.9,309.4,632.5)" />
<use xlink:href="#f0_2k" transform="matrix(50.9,-50.9,50.9,50.9,352.7,589.3)" />
<use xlink:href="#f0_1x" transform="matrix(50.9,-50.9,50.9,50.9,391.6,550.4)" />
<use xlink:href="#f0_29" transform="matrix(50.9,-50.9,50.9,50.9,434.8,507.2)" />
<use xlink:href="#f0_2c" transform="matrix(50.9,-50.9,50.9,50.9,499.6,442.4)" />
<use xlink:href="#f0_2b" transform="matrix(50.9,-50.9,50.9,50.9,542.9,399.1)" />
<use xlink:href="#f0_25" transform="matrix(50.9,-50.9,50.9,50.9,586.1,355.9)" />
<use xlink:href="#f0_2a" transform="matrix(50.9,-50.9,50.9,50.9,603.4,338.6)" />
<use xlink:href="#f0_2g" transform="matrix(50.9,-50.9,50.9,50.9,646.6,295.4)" />
</g>
<g fill="#000000" >
<use xlink:href="#f1_n" transform="matrix(10.4,0,0,10.4,56.9,102.2)" />
<use xlink:href="#f1_i" transform="matrix(10.4,0,0,10.4,66.2,102.2)" />
<use xlink:href="#f1_14" transform="matrix(10.4,0,0,10.4,100.1,102.2)" />
<use xlink:href="#f1_21" transform="matrix(10.4,0,0,10.4,111.7,102.2)" />
<use xlink:href="#f1_2f" transform="matrix(10.4,0,0,10.4,120.5,102.2)" />
<use xlink:href="#f1_1z" transform="matrix(10.4,0,0,10.4,128.5,102.2)" />
<use xlink:href="#f1_2e" transform="matrix(10.4,0,0,10.4,136.6,102.2)" />
<use xlink:href="#f1_25" transform="matrix(10.4,0,0,10.4,141.9,102.2)" />
<use xlink:href="#f1_1y" transform="matrix(10.4,0,0,10.4,145.4,102.2)" />
<use xlink:href="#f1_21" transform="matrix(10.4,0,0,10.4,154.2,102.2)" />
<use xlink:href="#f1_2g" transform="matrix(10.4,0,0,10.4,171.4,102.2)" />
<use xlink:href="#f1_24" transform="matrix(10.4,0,0,10.4,175.8,102.2)" />
<use xlink:href="#f1_21" transform="matrix(10.4,0,0,10.4,184.6,102.2)" />
<use xlink:href="#f1_18" transform="matrix(10.4,0,0,10.4,201.7,102.2)" />
<use xlink:href="#f1_25" transform="matrix(10.4,0,0,10.4,213.2,102.2)" />
<use xlink:href="#f1_2a" transform="matrix(10.4,0,0,10.4,216.7,102.2)" />
<use xlink:href="#f1_2f" transform="matrix(10.4,0,0,10.4,225.5,102.2)" />
<use xlink:href="#f1_1y" transform="matrix(10.4,0,0,10.4,233.6,102.2)" />
<use xlink:href="#f1_21" transform="matrix(10.4,0,0,10.4,242.4,102.2)" />
<use xlink:href="#f1_2e" transform="matrix(10.4,0,0,10.4,251.2,102.2)" />
<use xlink:href="#f1_23" transform="matrix(10.4,0,0,10.4,256.5,102.2)" />
<use xlink:href="#f1_1k5" transform="matrix(10.4,0,0,10.4,265.3,102.2)" />
<use xlink:href="#f1_2f" transform="matrix(10.4,0,0,10.4,268.4,102.2)" />
<use xlink:href="#f1_2g" transform="matrix(10.4,0,0,10.4,284.9,102.2)" />
<use xlink:href="#f1_21" transform="matrix(10.4,0,0,10.4,289.3,102.2)" />
<use xlink:href="#f1_2f" transform="matrix(10.4,0,0,10.4,298.1,102.2)" />
<use xlink:href="#f1_2g" transform="matrix(10.4,0,0,10.4,306.2,102.2)" />
<use xlink:href="#f1_22" transform="matrix(10.4,0,0,10.4,318.8,102.2)" />
<use xlink:href="#f1_2b" transform="matrix(10.4,0,0,10.4,323.4,102.2)" />
<use xlink:href="#f1_2e" transform="matrix(10.4,0,0,10.4,332.2,102.2)" />
<use xlink:href="#f1_25" transform="matrix(10.4,0,0,10.4,345.9,102.2)" />
<use xlink:href="#f1_20" transform="matrix(10.4,0,0,10.4,349.4,102.2)" />
<use xlink:href="#f1_21" transform="matrix(10.4,0,0,10.4,358.2,102.2)" />
<use xlink:href="#f1_2a" transform="matrix(10.4,0,0,10.4,367,102.2)" />
<use xlink:href="#f1_2g" transform="matrix(10.4,0,0,10.4,375.8,102.2)" />
<use xlink:href="#f1_25" transform="matrix(10.4,0,0,10.4,380.2,102.2)" />
<use xlink:href="#f1_22" transform="matrix(10.4,0,0,10.4,383.7,102.2)" />
<use xlink:href="#f1_25" transform="matrix(10.4,0,0,10.4,388.3,102.2)" />
<use xlink:href="#f1_1z" transform="matrix(10.4,0,0,10.4,391.8,102.2)" />
<use xlink:href="#f1_1x" transform="matrix(10.4,0,0,10.4,399.8,102.2)" />
<use xlink:href="#f1_2g" transform="matrix(10.4,0,0,10.4,408.6,102.2)" />
<use xlink:href="#f1_25" transform="matrix(10.4,0,0,10.4,413,102.2)" />
<use xlink:href="#f1_2b" transform="matrix(10.4,0,0,10.4,416.5,102.2)" />
<use xlink:href="#f1_2a" transform="matrix(10.4,0,0,10.4,425.3,102.2)" />
<use xlink:href="#f1_2b" transform="matrix(10.4,0,0,10.4,442.4,102.2)" />
<use xlink:href="#f1_22" transform="matrix(10.4,0,0,10.4,451.2,102.2)" />
<use xlink:href="#f1_2c" transform="matrix(10.4,0,0,10.4,464.2,102.2)" />
<use xlink:href="#f1_2e" transform="matrix(10.4,0,0,10.4,473,102.2)" />
<use xlink:href="#f1_25" transform="matrix(10.4,0,0,10.4,478.3,102.2)" />
<use xlink:href="#f1_29" transform="matrix(10.4,0,0,10.4,481.8,102.2)" />
<use xlink:href="#f1_1x" transform="matrix(10.4,0,0,10.4,495.3,102.2)" />
<use xlink:href="#f1_2e" transform="matrix(10.4,0,0,10.4,504.1,102.2)" />
<use xlink:href="#f1_2l" transform="matrix(10.4,0,0,10.4,509.5,102.2)" />
<use xlink:href="#f1_g" transform="matrix(10.4,0,0,10.4,515.9,102.2)" />
<use xlink:href="#f1_2f" transform="matrix(10.4,0,0,10.4,528.5,102.2)" />
<use xlink:href="#f1_21" transform="matrix(10.4,0,0,10.4,536.6,102.2)" />
<use xlink:href="#f1_1z" transform="matrix(10.4,0,0,10.4,545.4,102.2)" />
<use xlink:href="#f1_2b" transform="matrix(10.4,0,0,10.4,553.4,102.2)" />
<use xlink:href="#f1_2a" transform="matrix(10.4,0,0,10.4,562.2,102.2)" />
<use xlink:href="#f1_20" transform="matrix(10.4,0,0,10.4,571,102.2)" />
<use xlink:href="#f1_1x" transform="matrix(10.4,0,0,10.4,579.8,102.2)" />
<use xlink:href="#f1_2e" transform="matrix(10.4,0,0,10.4,588.6,102.2)" />
<use xlink:href="#f1_2l" transform="matrix(10.4,0,0,10.4,594,102.2)" />
<use xlink:href="#f1_1x" transform="matrix(10.4,0,0,10.4,609.9,102.2)" />
<use xlink:href="#f1_2a" transform="matrix(10.4,0,0,10.4,618.7,102.2)" />
<use xlink:href="#f1_20" transform="matrix(10.4,0,0,10.4,627.5,102.2)" />
<use xlink:href="#f1_2g" transform="matrix(10.4,0,0,10.4,100.1,123.1)" />
<use xlink:href="#f1_21" transform="matrix(10.4,0,0,10.4,104.5,123.1)" />
<use xlink:href="#f1_2e" transform="matrix(10.4,0,0,10.4,113.3,123.1)" />
<use xlink:href="#f1_2g" transform="matrix(10.4,0,0,10.4,118.6,123.1)" />
<use xlink:href="#f1_25" transform="matrix(10.4,0,0,10.4,123,123.1)" />
<use xlink:href="#f1_1x" transform="matrix(10.4,0,0,10.4,126.5,123.1)" />
<use xlink:href="#f1_2e" transform="matrix(10.4,0,0,10.4,135.3,123.1)" />
<use xlink:href="#f1_2l" transform="matrix(10.4,0,0,10.4,140.6,123.1)" />
<use xlink:href="#f1_1x" transform="matrix(10.4,0,0,10.4,153.5,123.1)" />
<use xlink:href="#f1_29" transform="matrix(10.4,0,0,10.4,162.3,123.1)" />
<use xlink:href="#f1_25" transform="matrix(10.4,0,0,10.4,175.8,123.1)" />
<use xlink:href="#f1_2a" transform="matrix(10.4,0,0,10.4,179.3,123.1)" />
<use xlink:href="#f1_21" transform="matrix(10.4,0,0,10.4,188.1,123.1)" />
<use xlink:href="#f1_2f" transform="matrix(10.4,0,0,10.4,196.9,123.1)" />
<use xlink:href="#f1_i" transform="matrix(10.4,0,0,10.4,205,123.1)" />
<use xlink:href="#f1_11" transform="matrix(10.4,0,0,10.4,213.8,123.1)" />
<use xlink:href="#f1_28" transform="matrix(10.4,0,0,10.4,224.4,123.1)" />
<use xlink:href="#f1_2f" transform="matrix(10.4,0,0,10.4,227.9,123.1)" />
<use xlink:href="#f1_2b" transform="matrix(10.4,0,0,10.4,236,123.1)" />
<use xlink:href="#f1_2j" transform="matrix(10.4,0,0,10.4,250.1,123.1)" />
<use xlink:href="#f1_2e" transform="matrix(10.4,0,0,10.4,261.3,123.1)" />
<use xlink:href="#f1_25" transform="matrix(10.4,0,0,10.4,266.6,123.1)" />
<use xlink:href="#f1_2g" transform="matrix(10.4,0,0,10.4,270,123.1)" />
<use xlink:href="#f1_21" transform="matrix(10.4,0,0,10.4,274.5,123.1)" />
<use xlink:href="#f1_2g" transform="matrix(10.4,0,0,10.4,288.6,123.1)" />
<use xlink:href="#f1_24" transform="matrix(10.4,0,0,10.4,293,123.1)" />
<use xlink:href="#f1_21" transform="matrix(10.4,0,0,10.4,301.8,123.1)" />
<use xlink:href="#f1_1z" transform="matrix(10.4,0,0,10.4,315.7,123.1)" />
<use xlink:href="#f1_24" transform="matrix(10.4,0,0,10.4,323.8,123.1)" />
<use xlink:href="#f1_21" transform="matrix(10.4,0,0,10.4,332.6,123.1)" />
<use xlink:href="#f1_29" transform="matrix(10.4,0,0,10.4,341.4,123.1)" />
<use xlink:href="#f1_25" transform="matrix(10.4,0,0,10.4,354.9,123.1)" />
<use xlink:href="#f1_1z" transform="matrix(10.4,0,0,10.4,358.4,123.1)" />
<use xlink:href="#f1_1x" transform="matrix(10.4,0,0,10.4,366.5,123.1)" />
<use xlink:href="#f1_28" transform="matrix(10.4,0,0,10.4,375.3,123.1)" />
<use xlink:href="#f1_21" transform="matrix(10.4,0,0,10.4,384.1,123.1)" />
<use xlink:href="#f1_2d" transform="matrix(10.4,0,0,10.4,392.9,123.1)" />
<use xlink:href="#f1_2h" transform="matrix(10.4,0,0,10.4,401.7,123.1)" />
<use xlink:href="#f1_1x" transform="matrix(10.4,0,0,10.4,410.5,123.1)" />
<use xlink:href="#f1_2g" transform="matrix(10.4,0,0,10.4,419.3,123.1)" />
<use xlink:href="#f1_25" transform="matrix(10.4,0,0,10.4,423.7,123.1)" />
<use xlink:href="#f1_2b" transform="matrix(10.4,0,0,10.4,427.2,123.1)" />
<use xlink:href="#f1_2a" transform="matrix(10.4,0,0,10.4,435.9,123.1)" />
<use xlink:href="#f1_2f" transform="matrix(10.4,0,0,10.4,444.7,123.1)" />
<use xlink:href="#f1_2b" transform="matrix(10.4,0,0,10.4,458.1,123.1)" />
<use xlink:href="#f1_22" transform="matrix(10.4,0,0,10.4,466.9,123.1)" />
<use xlink:href="#f1_2g" transform="matrix(10.4,0,0,10.4,476.8,123.1)" />
<use xlink:href="#f1_24" transform="matrix(10.4,0,0,10.4,481.2,123.1)" />
<use xlink:href="#f1_21" transform="matrix(10.4,0,0,10.4,490,123.1)" />
<use xlink:href="#f1_2e" transform="matrix(10.4,0,0,10.4,504.1,123.1)" />
<use xlink:href="#f1_21" transform="matrix(10.4,0,0,10.4,509.5,123.1)" />
<use xlink:href="#f1_1x" transform="matrix(10.4,0,0,10.4,518.3,123.1)" />
<use xlink:href="#f1_1z" transform="matrix(10.4,0,0,10.4,527.1,123.1)" />
<use xlink:href="#f1_2g" transform="matrix(10.4,0,0,10.4,535.1,123.1)" />
<use xlink:href="#f1_25" transform="matrix(10.4,0,0,10.4,539.5,123.1)" />
<use xlink:href="#f1_2b" transform="matrix(10.4,0,0,10.4,543,123.1)" />
<use xlink:href="#f1_2a" transform="matrix(10.4,0,0,10.4,551.8,123.1)" />
<use xlink:href="#f1_2f" transform="matrix(10.4,0,0,10.4,560.6,123.1)" />
<use xlink:href="#f1_25" transform="matrix(10.4,0,0,10.4,574,123.1)" />
<use xlink:href="#f1_2a" transform="matrix(10.4,0,0,10.4,577.5,123.1)" />
<use xlink:href="#f1_2i" transform="matrix(10.4,0,0,10.4,586.3,123.1)" />
<use xlink:href="#f1_2b" transform="matrix(10.4,0,0,10.4,594.2,123.1)" />
<use xlink:href="#f1_28" transform="matrix(10.4,0,0,10.4,603,123.1)" />
<use xlink:href="#f1_2i" transform="matrix(10.4,0,0,10.4,606.4,123.1)" />
<use xlink:href="#f1_21" transform="matrix(10.4,0,0,10.4,614.3,123.1)" />
<use xlink:href="#f1_20" transform="matrix(10.4,0,0,10.4,623.1,123.1)" />
<use xlink:href="#f1_i" transform="matrix(10.4,0,0,10.4,631.9,123.1)" />
<use xlink:href="#f1_o" transform="matrix(10.4,0,0,10.4,56.9,155)" />
<use xlink:href="#f1_i" transform="matrix(10.4,0,0,10.4,66.2,155)" />
<use xlink:href="#f1_11" transform="matrix(10.4,0,0,10.4,100.1,155)" />
<use xlink:href="#f1_2e" transform="matrix(10.4,0,0,10.4,110.8,155)" />
<use xlink:href="#f1_2e" transform="matrix(10.4,0,0,10.4,116.1,155)" />
<use xlink:href="#f1_1x" transform="matrix(10.4,0,0,10.4,121.4,155)" />
<use xlink:href="#f1_2a" transform="matrix(10.4,0,0,10.4,130.2,155)" />
<use xlink:href="#f1_23" transform="matrix(10.4,0,0,10.4,139,155)" />
<use xlink:href="#f1_21" transform="matrix(10.4,0,0,10.4,147.8,155)" />
<use xlink:href="#f1_2g" transform="matrix(10.4,0,0,10.4,164.1,155)" />
<use xlink:href="#f1_24" transform="matrix(10.4,0,0,10.4,168.5,155)" />
<use xlink:href="#f1_21" transform="matrix(10.4,0,0,10.4,177.3,155)" />
<use xlink:href="#f1_22" transform="matrix(10.4,0,0,10.4,193.8,155)" />
<use xlink:href="#f1_2b" transform="matrix(10.4,0,0,10.4,198.4,155)" />
<use xlink:href="#f1_28" transform="matrix(10.4,0,0,10.4,207.2,155)" />
<use xlink:href="#f1_28" transform="matrix(10.4,0,0,10.4,210.7,155)" />
<use xlink:href="#f1_2b" transform="matrix(10.4,0,0,10.4,214.1,155)" />
<use xlink:href="#f1_2j" transform="matrix(10.4,0,0,10.4,222.9,155)" />
<use xlink:href="#f1_25" transform="matrix(10.4,0,0,10.4,234.1,155)" />
<use xlink:href="#f1_2a" transform="matrix(10.4,0,0,10.4,237.6,155)" />
<use xlink:href="#f1_23" transform="matrix(10.4,0,0,10.4,246.4,155)" />
<use xlink:href="#f1_25" transform="matrix(10.4,0,0,10.4,262.7,155)" />
<use xlink:href="#f1_2a" transform="matrix(10.4,0,0,10.4,266.2,155)" />
<use xlink:href="#f1_2g" transform="matrix(10.4,0,0,10.4,282.7,155)" />
<use xlink:href="#f1_24" transform="matrix(10.4,0,0,10.4,287.1,155)" />
<use xlink:href="#f1_21" transform="matrix(10.4,0,0,10.4,295.9,155)" />
<use xlink:href="#f1_25" transform="matrix(10.4,0,0,10.4,312.2,155)" />
<use xlink:href="#f1_2a" transform="matrix(10.4,0,0,10.4,315.7,155)" />
<use xlink:href="#f1_1z" transform="matrix(10.4,0,0,10.4,324.5,155)" />
<use xlink:href="#f1_2e" transform="matrix(10.4,0,0,10.4,332.6,155)" />
<use xlink:href="#f1_21" transform="matrix(10.4,0,0,10.4,337.9,155)" />
<use xlink:href="#f1_1x" transform="matrix(10.4,0,0,10.4,346.7,155)" />
<use xlink:href="#f1_2f" transform="matrix(10.4,0,0,10.4,355.5,155)" />
<use xlink:href="#f1_25" transform="matrix(10.4,0,0,10.4,363.5,155)" />
<use xlink:href="#f1_2a" transform="matrix(10.4,0,0,10.4,367,155)" />
<use xlink:href="#f1_23" transform="matrix(10.4,0,0,10.4,375.8,155)" />
<use xlink:href="#f1_2b" transform="matrix(10.4,0,0,10.4,392.1,155)" />
<use xlink:href="#f1_2e" transform="matrix(10.4,0,0,10.4,400.9,155)" />
<use xlink:href="#f1_20" transform="matrix(10.4,0,0,10.4,406.2,155)" />
<use xlink:href="#f1_21" transform="matrix(10.4,0,0,10.4,415.1,155)" />
<use xlink:href="#f1_2e" transform="matrix(10.4,0,0,10.4,423.9,155)" />
<use xlink:href="#f1_2b" transform="matrix(10.4,0,0,10.4,436.9,155)" />
<use xlink:href="#f1_22" transform="matrix(10.4,0,0,10.4,445.7,155)" />
<use xlink:href="#f1_23" transform="matrix(10.4,0,0,10.4,457.8,155)" />
<use xlink:href="#f1_25" transform="matrix(10.4,0,0,10.4,466.6,155)" />
<use xlink:href="#f1_2i" transform="matrix(10.4,0,0,10.4,470,155)" />
<use xlink:href="#f1_21" transform="matrix(10.4,0,0,10.4,477.9,155)" />
<use xlink:href="#f1_2a" transform="matrix(10.4,0,0,10.4,486.7,155)" />
<use xlink:href="#f1_2c" transform="matrix(10.4,0,0,10.4,503.2,155)" />
<use xlink:href="#f1_2e" transform="matrix(10.4,0,0,10.4,512,155)" />
<use xlink:href="#f1_2b" transform="matrix(10.4,0,0,10.4,517.3,155)" />
<use xlink:href="#f1_2c" transform="matrix(10.4,0,0,10.4,526.1,155)" />
<use xlink:href="#f1_21" transform="matrix(10.4,0,0,10.4,534.9,155)" />
<use xlink:href="#f1_2e" transform="matrix(10.4,0,0,10.4,543.7,155)" />
<use xlink:href="#f1_2g" transform="matrix(10.4,0,0,10.4,549.1,155)" />
<use xlink:href="#f1_2l" transform="matrix(10.4,0,0,10.4,553.5,155)" />
<use xlink:href="#f1_25" transform="matrix(10.4,0,0,10.4,568.5,155)" />
<use xlink:href="#f1_2a" transform="matrix(10.4,0,0,10.4,572,155)" />
<use xlink:href="#f1_20" transform="matrix(10.4,0,0,10.4,580.8,155)" />
<use xlink:href="#f1_25" transform="matrix(10.4,0,0,10.4,589.6,155)" />
<use xlink:href="#f1_1z" transform="matrix(10.4,0,0,10.4,593.1,155)" />
<use xlink:href="#f1_1x" transform="matrix(10.4,0,0,10.4,601.1,155)" />
<use xlink:href="#f1_2g" transform="matrix(10.4,0,0,10.4,609.9,155)" />
<use xlink:href="#f1_21" transform="matrix(10.4,0,0,10.4,614.3,155)" />
<use xlink:href="#f1_20" transform="matrix(10.4,0,0,10.4,623.1,155)" />
<use xlink:href="#f1_i" transform="matrix(10.4,0,0,10.4,631.9,155)" />
<use xlink:href="#f1_c" transform="matrix(10.4,0,0,10.4,100.1,186.7)" />
<use xlink:href="#f1_25" transform="matrix(10.4,0,0,10.4,105.8,186.7)" />
<use xlink:href="#f1_d" transform="matrix(10.4,0,0,10.4,109.6,186.7)" />
<use xlink:href="#f1_13" transform="matrix(10.4,0,0,10.4,143.4,186.7)" />
<use xlink:href="#f1_m" transform="matrix(7.4,0,0,7.4,154.9,192)" />
<use xlink:href="#f1_18" transform="matrix(10.4,0,0,10.4,161.2,186.7)" />
<use xlink:href="#f1_p" transform="matrix(7.4,0,0,7.4,172.7,192)" />
<use xlink:href="#f1_1e" transform="matrix(10.4,0,0,10.4,179,186.7)" />
<use xlink:href="#f1_18" transform="matrix(10.4,0,0,10.4,190.5,186.7)" />
<use xlink:href="#f1_m" transform="matrix(7.4,0,0,7.4,202.1,192)" />
<use xlink:href="#f1_g" transform="matrix(10.4,0,0,10.4,208.3,186.7)" />
<use xlink:href="#f1_c" transform="matrix(10.4,0,0,10.4,218.2,186.7)" />
<use xlink:href="#f1_13" transform="matrix(10.4,0,0,10.4,223.5,186.7)" />
<use xlink:href="#f1_m" transform="matrix(7.4,0,0,7.4,235.1,192)" />
<use xlink:href="#f1_18" transform="matrix(10.4,0,0,10.4,241.3,186.7)" />
<use xlink:href="#f1_p" transform="matrix(7.4,0,0,7.4,252.8,192)" />
<use xlink:href="#f1_d" transform="matrix(10.4,0,0,10.4,259.1,186.7)" />
<use xlink:href="#f1_m" transform="matrix(7.4,0,0,7.4,264.4,192)" />
<use xlink:href="#f1_1e" transform="matrix(10.4,0,0,10.4,270.6,186.7)" />
<use xlink:href="#f1_18" transform="matrix(10.4,0,0,10.4,282.2,186.7)" />
<use xlink:href="#f1_g" transform="matrix(10.4,0,0,10.4,293.7,186.7)" />
<use xlink:href="#f1_c" transform="matrix(10.4,0,0,10.4,303.6,186.7)" />
<use xlink:href="#f1_13" transform="matrix(10.4,0,0,10.4,308.9,186.7)" />
<use xlink:href="#f1_m" transform="matrix(7.4,0,0,7.4,320.5,192)" />
<use xlink:href="#f1_18" transform="matrix(10.4,0,0,10.4,326.7,186.7)" />
<use xlink:href="#f1_p" transform="matrix(7.4,0,0,7.4,338.3,192)" />
<use xlink:href="#f1_d" transform="matrix(10.4,0,0,10.4,344.5,186.7)" />
<use xlink:href="#f1_n" transform="matrix(7.4,0,0,7.4,349.8,192)" />
<use xlink:href="#f1_1e" transform="matrix(10.4,0,0,10.4,356.1,186.7)" />
<use xlink:href="#f1_1x" transform="matrix(10.4,0,0,10.4,373.1,186.7)" />
<use xlink:href="#f1_2a" transform="matrix(10.4,0,0,10.4,381.9,186.7)" />
<use xlink:href="#f1_20" transform="matrix(10.4,0,0,10.4,390.7,186.7)" />
<use xlink:href="#f1_1e" transform="matrix(10.4,0,0,10.4,405.2,186.7)" />
<use xlink:href="#f1_18" transform="matrix(10.4,0,0,10.4,416.7,186.7)" />
<use xlink:href="#f1_n" transform="matrix(7.4,0,0,7.4,428.3,192)" />
<use xlink:href="#f1_g" transform="matrix(10.4,0,0,10.4,434.5,186.7)" />
<use xlink:href="#f1_c" transform="matrix(10.4,0,0,10.4,444.4,186.7)" />
<use xlink:href="#f1_12" transform="matrix(10.4,0,0,10.4,449.7,186.7)" />
<use xlink:href="#f1_1x" transform="matrix(10.4,0,0,10.4,460.4,186.7)" />
<use xlink:href="#f1_2f" transform="matrix(10.4,0,0,10.4,469.2,186.7)" />
<use xlink:href="#f1_25" transform="matrix(10.4,0,0,10.4,477.2,186.7)" />
<use xlink:href="#f1_1z" transform="matrix(10.4,0,0,10.4,480.7,186.7)" />
<use xlink:href="#f1_2f" transform="matrix(10.4,0,0,10.4,494.5,186.7)" />
<use xlink:href="#f1_2g" transform="matrix(10.4,0,0,10.4,502.5,186.7)" />
<use xlink:href="#f1_2e" transform="matrix(10.4,0,0,10.4,506.9,186.7)" />
<use xlink:href="#f1_21" transform="matrix(10.4,0,0,10.4,512.2,186.7)" />
<use xlink:href="#f1_2a" transform="matrix(10.4,0,0,10.4,521,186.7)" />
<use xlink:href="#f1_23" transform="matrix(10.4,0,0,10.4,529.8,186.7)" />
<use xlink:href="#f1_2g" transform="matrix(10.4,0,0,10.4,538.6,186.7)" />
<use xlink:href="#f1_24" transform="matrix(10.4,0,0,10.4,543,186.7)" />
<use xlink:href="#f1_25" transform="matrix(10.4,0,0,10.4,557.3,186.7)" />
<use xlink:href="#f1_2a" transform="matrix(10.4,0,0,10.4,560.8,186.7)" />
<use xlink:href="#f1_1x" transform="matrix(10.4,0,0,10.4,575.3,186.7)" />
<use xlink:href="#f1_2d" transform="matrix(10.4,0,0,10.4,584.1,186.7)" />
<use xlink:href="#f1_2h" transform="matrix(10.4,0,0,10.4,592.9,186.7)" />
<use xlink:href="#f1_21" transform="matrix(10.4,0,0,10.4,601.7,186.7)" />
<use xlink:href="#f1_2b" transform="matrix(10.4,0,0,10.4,610.5,186.7)" />
<use xlink:href="#f1_2h" transform="matrix(10.4,0,0,10.4,619.3,186.7)" />
<use xlink:href="#f1_2f" transform="matrix(10.4,0,0,10.4,628.1,186.7)" />
<use xlink:href="#f1_2f" transform="matrix(10.4,0,0,10.4,143.4,207.6)" />
<use xlink:href="#f1_2b" transform="matrix(10.4,0,0,10.4,151.6,207.6)" />
<use xlink:href="#f1_28" transform="matrix(10.4,0,0,10.4,160.8,207.6)" />
<use xlink:href="#f1_2h" transform="matrix(10.4,0,0,10.4,164.5,207.6)" />
<use xlink:href="#f1_2g" transform="matrix(10.4,0,0,10.4,173.4,207.6)" />
<use xlink:href="#f1_25" transform="matrix(10.4,0,0,10.4,178.2,207.6)" />
<use xlink:href="#f1_2b" transform="matrix(10.4,0,0,10.4,181.9,207.6)" />
<use xlink:href="#f1_2a" transform="matrix(10.4,0,0,10.4,190.9,207.6)" />
<use xlink:href="#f1_d" transform="matrix(10.4,0,0,10.4,200,207.6)" />
<use xlink:href="#f1_i" transform="matrix(10.4,0,0,10.4,205.5,207.6)" />
<use xlink:href="#f1_c" transform="matrix(10.4,0,0,10.4,100.1,239.3)" />
<use xlink:href="#f1_25" transform="matrix(10.4,0,0,10.4,105.6,239.3)" />
<use xlink:href="#f1_25" transform="matrix(10.4,0,0,10.4,109.5,239.3)" />
<use xlink:href="#f1_d" transform="matrix(10.4,0,0,10.4,113.1,239.3)" />
<use xlink:href="#f1_13" transform="matrix(10.4,0,0,10.4,143.4,239.3)" />
<use xlink:href="#f1_m" transform="matrix(7.4,0,0,7.4,155.1,244.6)" />
<use xlink:href="#f1_18" transform="matrix(10.4,0,0,10.4,161.5,239.3)" />
<use xlink:href="#f1_p" transform="matrix(7.4,0,0,7.4,173.3,244.6)" />
<use xlink:href="#f1_1e" transform="matrix(10.4,0,0,10.4,179.7,239.3)" />
<use xlink:href="#f1_18" transform="matrix(10.4,0,0,10.4,191.4,239.3)" />
<use xlink:href="#f1_m" transform="matrix(7.4,0,0,7.4,203.3,244.6)" />
<use xlink:href="#f1_g" transform="matrix(10.4,0,0,10.4,209.8,239.3)" />
<use xlink:href="#f1_c" transform="matrix(10.4,0,0,10.4,223.5,239.3)" />
<use xlink:href="#f1_13" transform="matrix(10.4,0,0,10.4,229,239.3)" />
<use xlink:href="#f1_m" transform="matrix(7.4,0,0,7.4,240.9,244.6)" />
<use xlink:href="#f1_18" transform="matrix(10.4,0,0,10.4,247.3,239.3)" />
<use xlink:href="#f1_p" transform="matrix(7.4,0,0,7.4,259.3,244.6)" />
<use xlink:href="#f1_d" transform="matrix(10.4,0,0,10.4,265.7,239.3)" />
<use xlink:href="#f1_m" transform="matrix(7.4,0,0,7.4,271.2,244.6)" />
<use xlink:href="#f1_1e" transform="matrix(10.4,0,0,10.4,277.6,239.3)" />
<use xlink:href="#f1_18" transform="matrix(10.4,0,0,10.4,289.3,239.3)" />
<use xlink:href="#f1_g" transform="matrix(10.4,0,0,10.4,301.2,239.3)" />
<use xlink:href="#f1_c" transform="matrix(10.4,0,0,10.4,315,239.3)" />
<use xlink:href="#f1_13" transform="matrix(10.4,0,0,10.4,320.5,239.3)" />
<use xlink:href="#f1_m" transform="matrix(7.4,0,0,7.4,332.4,244.6)" />
<use xlink:href="#f1_18" transform="matrix(10.4,0,0,10.4,338.8,239.3)" />
<use xlink:href="#f1_p" transform="matrix(7.4,0,0,7.4,350.6,244.6)" />
<use xlink:href="#f1_d" transform="matrix(10.4,0,0,10.4,357,239.3)" />
<use xlink:href="#f1_n" transform="matrix(7.4,0,0,7.4,362.7,244.6)" />
<use xlink:href="#f1_1e" transform="matrix(10.4,0,0,10.4,369.1,239.3)" />
<use xlink:href="#f1_1x" transform="matrix(10.4,0,0,10.4,390,239.3)" />
<use xlink:href="#f1_2a" transform="matrix(10.4,0,0,10.4,398.9,239.3)" />
<use xlink:href="#f1_20" transform="matrix(10.4,0,0,10.4,407.9,239.3)" />
<use xlink:href="#f1_13" transform="matrix(10.4,0,0,10.4,426.1,239.3)" />
<use xlink:href="#f1_18" transform="matrix(10.4,0,0,10.4,438,239.3)" />
<use xlink:href="#f1_n" transform="matrix(7.4,0,0,7.4,449.7,244.6)" />
<use xlink:href="#f1_1e" transform="matrix(10.4,0,0,10.4,456.2,239.3)" />
<use xlink:href="#f1_18" transform="matrix(10.4,0,0,10.4,467.9,239.3)" />
<use xlink:href="#f1_m" transform="matrix(7.4,0,0,7.4,479.8,244.6)" />
<use xlink:href="#f1_i" transform="matrix(10.4,0,0,10.4,486.2,239.3)" />
<use xlink:href="#f1_c" transform="matrix(10.4,0,0,10.4,500,239.3)" />
<use xlink:href="#f1_12" transform="matrix(10.4,0,0,10.4,505.5,239.3)" />
<use xlink:href="#f1_1x" transform="matrix(10.4,0,0,10.4,516.5,239.3)" />
<use xlink:href="#f1_2f" transform="matrix(10.4,0,0,10.4,525.4,239.3)" />
<use xlink:href="#f1_25" transform="matrix(10.4,0,0,10.4,533.9,239.3)" />
<use xlink:href="#f1_1z" transform="matrix(10.4,0,0,10.4,537.5,239.3)" />
<use xlink:href="#f1_2f" transform="matrix(10.4,0,0,10.4,555,239.3)" />
<use xlink:href="#f1_2g" transform="matrix(10.4,0,0,10.4,563.4,239.3)" />
<use xlink:href="#f1_2e" transform="matrix(10.4,0,0,10.4,568,239.3)" />
<use xlink:href="#f1_21" transform="matrix(10.4,0,0,10.4,573.6,239.3)" />
<use xlink:href="#f1_2a" transform="matrix(10.4,0,0,10.4,582.6,239.3)" />
<use xlink:href="#f1_23" transform="matrix(10.4,0,0,10.4,591.8,239.3)" />
<use xlink:href="#f1_2g" transform="matrix(10.4,0,0,10.4,600.8,239.3)" />
<use xlink:href="#f1_24" transform="matrix(10.4,0,0,10.4,605.5,239.3)" />
<use xlink:href="#f1_25" transform="matrix(10.4,0,0,10.4,623.7,239.3)" />
<use xlink:href="#f1_2a" transform="matrix(10.4,0,0,10.4,627.4,239.3)" />
<use xlink:href="#f1_23" transform="matrix(10.4,0,0,10.4,143.4,260.4)" />
<use xlink:href="#f1_1x" transform="matrix(10.4,0,0,10.4,152.4,260.4)" />
<use xlink:href="#f1_2f" transform="matrix(10.4,0,0,10.4,161.2,260.4)" />
<use xlink:href="#f1_21" transform="matrix(10.4,0,0,10.4,169.4,260.4)" />
<use xlink:href="#f1_2b" transform="matrix(10.4,0,0,10.4,178.4,260.4)" />
<use xlink:href="#f1_2h" transform="matrix(10.4,0,0,10.4,187.4,260.4)" />
<use xlink:href="#f1_2f" transform="matrix(10.4,0,0,10.4,196.2,260.4)" />
<use xlink:href="#f1_2c" transform="matrix(10.4,0,0,10.4,213.4,260.4)" />
<use xlink:href="#f1_24" transform="matrix(10.4,0,0,10.4,222.2,260.4)" />
<use xlink:href="#f1_1x" transform="matrix(10.4,0,0,10.4,231.2,260.4)" />
<use xlink:href="#f1_2f" transform="matrix(10.4,0,0,10.4,240.2,260.4)" />
<use xlink:href="#f1_21" transform="matrix(10.4,0,0,10.4,248.4,260.4)" />
<use xlink:href="#f1_d" transform="matrix(10.4,0,0,10.4,257.2,260.4)" />
<use xlink:href="#f1_i" transform="matrix(10.4,0,0,10.4,262.7,260.4)" />
<use xlink:href="#f1_c" transform="matrix(10.4,0,0,10.4,100.1,292.1)" />
<use xlink:href="#f1_25" transform="matrix(10.4,0,0,10.4,105.6,292.1)" />
<use xlink:href="#f1_25" transform="matrix(10.4,0,0,10.4,109.3,292.1)" />
<use xlink:href="#f1_25" transform="matrix(10.4,0,0,10.4,112.9,292.1)" />
<use xlink:href="#f1_d" transform="matrix(10.4,0,0,10.4,116.6,292.1)" />
<use xlink:href="#f1_11" transform="matrix(10.4,0,0,10.4,143.4,292.1)" />
<use xlink:href="#f1_2a" transform="matrix(10.4,0,0,10.4,154,292.1)" />
<use xlink:href="#f1_25" transform="matrix(10.4,0,0,10.4,163,292.1)" />
<use xlink:href="#f1_28" transform="matrix(10.4,0,0,10.4,166.5,292.1)" />
<use xlink:href="#f1_25" transform="matrix(10.4,0,0,10.4,170,292.1)" />
<use xlink:href="#f1_2a" transform="matrix(10.4,0,0,10.4,173.4,292.1)" />
<use xlink:href="#f1_21" transform="matrix(10.4,0,0,10.4,182.4,292.1)" />
<use xlink:href="#f1_g" transform="matrix(10.4,0,0,10.4,191.2,292.1)" />
<use xlink:href="#f1_2c" transform="matrix(10.4,0,0,10.4,204.4,292.1)" />
<use xlink:href="#f1_h" transform="matrix(10.4,0,0,10.4,213.4,292.1)" />
<use xlink:href="#f1_2g" transform="matrix(10.4,0,0,10.4,218.7,292.1)" />
<use xlink:href="#f1_2b" transform="matrix(10.4,0,0,10.4,223.1,292.1)" />
<use xlink:href="#f1_28" transform="matrix(10.4,0,0,10.4,232.1,292.1)" />
<use xlink:href="#f1_2h" transform="matrix(10.4,0,0,10.4,235.6,292.1)" />
<use xlink:href="#f1_25" transform="matrix(10.4,0,0,10.4,244.4,292.1)" />
<use xlink:href="#f1_20" transform="matrix(10.4,0,0,10.4,247.9,292.1)" />
<use xlink:href="#f1_25" transform="matrix(10.4,0,0,10.4,256.9,292.1)" />
<use xlink:href="#f1_2a" transform="matrix(10.4,0,0,10.4,260.3,292.1)" />
<use xlink:href="#f1_21" transform="matrix(10.4,0,0,10.4,269.1,292.1)" />
<use xlink:href="#f1_g" transform="matrix(10.4,0,0,10.4,278.1,292.1)" />
<use xlink:href="#f1_2c" transform="matrix(10.4,0,0,10.4,291.3,292.1)" />
<use xlink:href="#f1_h" transform="matrix(10.4,0,0,10.4,300.1,292.1)" />
<use xlink:href="#f1_2a" transform="matrix(10.4,0,0,10.4,305.6,292.1)" />
<use xlink:href="#f1_25" transform="matrix(10.4,0,0,10.4,314.4,292.1)" />
<use xlink:href="#f1_2g" transform="matrix(10.4,0,0,10.4,317.9,292.1)" />
<use xlink:href="#f1_2e" transform="matrix(10.4,0,0,10.4,322.3,292.1)" />
<use xlink:href="#f1_2b" transform="matrix(10.4,0,0,10.4,327.8,292.1)" />
<use xlink:href="#f1_1x" transform="matrix(10.4,0,0,10.4,336.6,292.1)" />
<use xlink:href="#f1_2a" transform="matrix(10.4,0,0,10.4,345.4,292.1)" />
<use xlink:href="#f1_25" transform="matrix(10.4,0,0,10.4,354.4,292.1)" />
<use xlink:href="#f1_28" transform="matrix(10.4,0,0,10.4,357.9,292.1)" />
<use xlink:href="#f1_25" transform="matrix(10.4,0,0,10.4,361.3,292.1)" />
<use xlink:href="#f1_2a" transform="matrix(10.4,0,0,10.4,364.8,292.1)" />
<use xlink:href="#f1_21" transform="matrix(10.4,0,0,10.4,373.8,292.1)" />
<use xlink:href="#f1_i" transform="matrix(10.4,0,0,10.4,382.6,292.1)" />
<use xlink:href="#f1_c" transform="matrix(10.4,0,0,10.4,396,292.1)" />
<use xlink:href="#f1_12" transform="matrix(10.4,0,0,10.4,401.3,292.1)" />
<use xlink:href="#f1_1x" transform="matrix(10.4,0,0,10.4,411.9,292.1)" />
<use xlink:href="#f1_2f" transform="matrix(10.4,0,0,10.4,420.7,292.1)" />
<use xlink:href="#f1_25" transform="matrix(10.4,0,0,10.4,429,292.1)" />
<use xlink:href="#f1_1z" transform="matrix(10.4,0,0,10.4,432.5,292.1)" />
<use xlink:href="#f1_2f" transform="matrix(10.4,0,0,10.4,449.3,292.1)" />
<use xlink:href="#f1_2g" transform="matrix(10.4,0,0,10.4,457.6,292.1)" />
<use xlink:href="#f1_2e" transform="matrix(10.4,0,0,10.4,462,292.1)" />
<use xlink:href="#f1_21" transform="matrix(10.4,0,0,10.4,467.3,292.1)" />
<use xlink:href="#f1_2a" transform="matrix(10.4,0,0,10.4,476.3,292.1)" />
<use xlink:href="#f1_23" transform="matrix(10.4,0,0,10.4,485.1,292.1)" />
<use xlink:href="#f1_2g" transform="matrix(10.4,0,0,10.4,493.9,292.1)" />
<use xlink:href="#f1_24" transform="matrix(10.4,0,0,10.4,498.3,292.1)" />
<use xlink:href="#f1_d" transform="matrix(10.4,0,0,10.4,507.3,292.1)" />
<use xlink:href="#f1_i" transform="matrix(10.4,0,0,10.4,512.6,292.1)" />
<use xlink:href="#f1_c" transform="matrix(10.4,0,0,10.4,100.1,323.8)" />
<use xlink:href="#f1_25" transform="matrix(10.4,0,0,10.4,105.8,323.8)" />
<use xlink:href="#f1_2i" transform="matrix(10.4,0,0,10.4,109.5,323.8)" />
<use xlink:href="#f1_d" transform="matrix(10.4,0,0,10.4,117.7,323.8)" />
<use xlink:href="#f1_13" transform="matrix(10.4,0,0,10.4,143.4,323.8)" />
<use xlink:href="#f1_m" transform="matrix(7.4,0,0,7.4,154.9,329.2)" />
<use xlink:href="#f1_18" transform="matrix(10.4,0,0,10.4,161.2,323.8)" />
<use xlink:href="#f1_p" transform="matrix(7.4,0,0,7.4,172.7,329.2)" />
<use xlink:href="#f1_1f" transform="matrix(10.4,0,0,10.4,179,323.8)" />
<use xlink:href="#f1_18" transform="matrix(10.4,0,0,10.4,191.4,323.8)" />
<use xlink:href="#f1_g" transform="matrix(10.4,0,0,10.4,203,323.8)" />
<use xlink:href="#f1_c" transform="matrix(10.4,0,0,10.4,214,323.8)" />
<use xlink:href="#f1_13" transform="matrix(10.4,0,0,10.4,219.3,323.8)" />
<use xlink:href="#f1_18" transform="matrix(10.4,0,0,10.4,230.8,323.8)" />
<use xlink:href="#f1_n" transform="matrix(7.4,0,0,7.4,242.4,329.2)" />
<use xlink:href="#f1_d" transform="matrix(10.4,0,0,10.4,248.6,323.8)" />
<use xlink:href="#f1_m" transform="matrix(7.4,0,0,7.4,253.9,329.2)" />
<use xlink:href="#f1_18" transform="matrix(10.4,0,0,10.4,266.8,323.8)" />
<use xlink:href="#f1_1e" transform="matrix(10.4,0,0,10.4,278.3,323.8)" />
<use xlink:href="#f1_g" transform="matrix(10.4,0,0,10.4,289.9,323.8)" />
<use xlink:href="#f1_13" transform="matrix(10.4,0,0,10.4,300.9,323.8)" />
<use xlink:href="#f1_m" transform="matrix(7.4,0,0,7.4,312.4,329.2)" />
<use xlink:href="#f1_18" transform="matrix(10.4,0,0,10.4,318.7,323.8)" />
<use xlink:href="#f1_p" transform="matrix(7.4,0,0,7.4,330.2,329.2)" />
<use xlink:href="#f1_1e" transform="matrix(10.4,0,0,10.4,336.4,323.8)" />
<use xlink:href="#f1_18" transform="matrix(10.4,0,0,10.4,348,323.8)" />
<use xlink:href="#f1_m" transform="matrix(7.4,0,0,7.4,359.5,329.2)" />
<use xlink:href="#f1_c" transform="matrix(10.4,0,0,10.4,379,323.8)" />
<use xlink:href="#f1_12" transform="matrix(10.4,0,0,10.4,384.3,323.8)" />
<use xlink:href="#f1_2b" transform="matrix(10.4,0,0,10.4,394.9,323.8)" />
<use xlink:href="#f1_25" transform="matrix(10.4,0,0,10.4,403.7,323.8)" />
<use xlink:href="#f1_28" transform="matrix(10.4,0,0,10.4,407.2,323.8)" />
<use xlink:href="#f1_25" transform="matrix(10.4,0,0,10.4,410.7,323.8)" />
<use xlink:href="#f1_2a" transform="matrix(10.4,0,0,10.4,414.2,323.8)" />
<use xlink:href="#f1_23" transform="matrix(10.4,0,0,10.4,423,323.8)" />
<use xlink:href="#f1_2c" transform="matrix(10.4,0,0,10.4,438.4,323.8)" />
<use xlink:href="#f1_2b" transform="matrix(10.4,0,0,10.4,447.2,323.8)" />
<use xlink:href="#f1_25" transform="matrix(10.4,0,0,10.4,456,323.8)" />
<use xlink:href="#f1_2a" transform="matrix(10.4,0,0,10.4,459.4,323.8)" />
<use xlink:href="#f1_2g" transform="matrix(10.4,0,0,10.4,468.2,323.8)" />
<use xlink:href="#f1_d" transform="matrix(10.4,0,0,10.4,472.6,323.8)" />
<use xlink:href="#f1_p" transform="matrix(10.4,0,0,10.4,56.9,355.7)" />
<use xlink:href="#f1_i" transform="matrix(10.4,0,0,10.4,66.2,355.7)" />
<use xlink:href="#f1_19" transform="matrix(10.4,0,0,10.4,100.1,355.7)" />
<use xlink:href="#f1_20" transform="matrix(10.4,0,0,10.4,104.5,355.7)" />
<use xlink:href="#f1_21" transform="matrix(10.4,0,0,10.4,113.3,355.7)" />
<use xlink:href="#f1_2a" transform="matrix(10.4,0,0,10.4,122.1,355.7)" />
<use xlink:href="#f1_2g" transform="matrix(10.4,0,0,10.4,130.9,355.7)" />
<use xlink:href="#f1_25" transform="matrix(10.4,0,0,10.4,135.3,355.7)" />
<use xlink:href="#f1_22" transform="matrix(10.4,0,0,10.4,138.8,355.7)" />
<use xlink:href="#f1_2l" transform="matrix(10.4,0,0,10.4,143.4,355.7)" />
<use xlink:href="#f1_11" transform="matrix(10.4,0,0,10.4,157.5,355.7)" />
<use xlink:href="#f1_1x" transform="matrix(10.4,0,0,10.4,174.5,355.7)" />
<use xlink:href="#f1_2a" transform="matrix(10.4,0,0,10.4,183.3,355.7)" />
<use xlink:href="#f1_20" transform="matrix(10.4,0,0,10.4,192.1,355.7)" />
<use xlink:href="#f1_12" transform="matrix(10.4,0,0,10.4,208.5,355.7)" />
<use xlink:href="#f1_25" transform="matrix(10.4,0,0,10.4,226.4,355.7)" />
<use xlink:href="#f1_2a" transform="matrix(10.4,0,0,10.4,229.9,355.7)" />
<use xlink:href="#f1_2g" transform="matrix(10.4,0,0,10.4,246.2,355.7)" />
<use xlink:href="#f1_24" transform="matrix(10.4,0,0,10.4,250.6,355.7)" />
<use xlink:href="#f1_21" transform="matrix(10.4,0,0,10.4,259.4,355.7)" />
<use xlink:href="#f1_22" transform="matrix(10.4,0,0,10.4,275.7,355.7)" />
<use xlink:href="#f1_2b" transform="matrix(10.4,0,0,10.4,280.3,355.7)" />
<use xlink:href="#f1_28" transform="matrix(10.4,0,0,10.4,289.1,355.7)" />
<use xlink:href="#f1_28" transform="matrix(10.4,0,0,10.4,292.6,355.7)" />
<use xlink:href="#f1_2b" transform="matrix(10.4,0,0,10.4,296.1,355.7)" />
<use xlink:href="#f1_2j" transform="matrix(10.4,0,0,10.4,304.9,355.7)" />
<use xlink:href="#f1_25" transform="matrix(10.4,0,0,10.4,316.1,355.7)" />
<use xlink:href="#f1_2a" transform="matrix(10.4,0,0,10.4,319.5,355.7)" />
<use xlink:href="#f1_23" transform="matrix(10.4,0,0,10.4,328.3,355.7)" />
<use xlink:href="#f1_2e" transform="matrix(10.4,0,0,10.4,344.5,355.7)" />
<use xlink:href="#f1_21" transform="matrix(10.4,0,0,10.4,349.8,355.7)" />
<use xlink:href="#f1_1x" transform="matrix(10.4,0,0,10.4,358.6,355.7)" />
<use xlink:href="#f1_1z" transform="matrix(10.4,0,0,10.4,367.4,355.7)" />
<use xlink:href="#f1_2g" transform="matrix(10.4,0,0,10.4,375.5,355.7)" />
<use xlink:href="#f1_25" transform="matrix(10.4,0,0,10.4,379.9,355.7)" />
<use xlink:href="#f1_2b" transform="matrix(10.4,0,0,10.4,383.3,355.7)" />
<use xlink:href="#f1_2a" transform="matrix(10.4,0,0,10.4,392.1,355.7)" />
<use xlink:href="#f1_2f" transform="matrix(10.4,0,0,10.4,400.9,355.7)" />
<use xlink:href="#f1_u" transform="matrix(10.4,0,0,10.4,416.5,355.7)" />
<use xlink:href="#f1_c" transform="matrix(10.4,0,0,10.4,100.1,399)" />
<use xlink:href="#f1_25" transform="matrix(10.4,0,0,10.4,105.8,399)" />
<use xlink:href="#f1_d" transform="matrix(10.4,0,0,10.4,109.6,399)" />
<use xlink:href="#f1_13" transform="matrix(10.4,0,0,10.4,143.4,399)" />
<use xlink:href="#f1_18" transform="matrix(10.4,0,0,10.4,154.9,399)" />
<use xlink:href="#f1_n" transform="matrix(7.4,0,0,7.4,166.5,404.3)" />
<use xlink:href="#f1_13" transform="matrix(10.4,0,0,10.4,172.7,399)" />
<use xlink:href="#f1_18" transform="matrix(10.4,0,0,10.4,184.3,399)" />
<use xlink:href="#f1_m" transform="matrix(7.4,0,0,7.4,195.8,404.3)" />
<use xlink:href="#f1_13" transform="matrix(10.4,0,0,10.4,202.1,399)" />
<use xlink:href="#f1_28" transform="matrix(10.4,0,0,10.4,213.6,399)" />
<use xlink:href="#f1_f" transform="matrix(10.4,0,0,10.4,223.1,399)" />
<use xlink:href="#f1_1e" transform="matrix(10.4,0,0,10.4,238.5,399)" />
<use xlink:href="#f1_18" transform="matrix(10.4,0,0,10.4,250.1,399)" />
<use xlink:href="#f1_n" transform="matrix(7.4,0,0,7.4,261.6,404.3)" />
<use xlink:href="#f1_c" transform="matrix(10.4,0,0,10.4,273.9,399)" />
<use xlink:href="#f1_15" transform="matrix(10.4,0,0,10.4,279.2,399)" />
<use xlink:href="#f1_2k" transform="matrix(10.4,0,0,10.4,289.9,399)" />
<use xlink:href="#f1_1z" transform="matrix(10.4,0,0,10.4,297.7,399)" />
<use xlink:href="#f1_21" transform="matrix(10.4,0,0,10.4,305.8,399)" />
<use xlink:href="#f1_2f" transform="matrix(10.4,0,0,10.4,314.6,399)" />
<use xlink:href="#f1_2f" transform="matrix(10.4,0,0,10.4,322.7,399)" />
<use xlink:href="#f1_d" transform="matrix(10.4,0,0,10.4,330.7,399)" />
</g>
<g clip-path="url(#c0_97)">
<g fill="#000000" >
<use xlink:href="#f1_1jz" transform="matrix(6.7,0,0,6.7,397.9,400.3)" />
</g>
</g>
<g fill="#000000" >
<use xlink:href="#f1_n" transform="matrix(9.2,0,0,9.2,374.2,385.8)" />
<use xlink:href="#f1_r" transform="matrix(9.2,0,0,9.2,382.1,385.8)" />
<use xlink:href="#f1_n" transform="matrix(9.2,0,0,9.2,390.1,385.8)" />
<use xlink:href="#f1_1b" transform="matrix(9.2,0,0,9.2,398.2,385.8)" />
<use xlink:href="#f1_1f" transform="matrix(9.2,0,0,9.2,376.6,406.5)" />
<use xlink:href="#f1_18" transform="matrix(9.2,0,0,9.2,387.6,406.5)" />
<use xlink:href="#f2_1mh" transform="matrix(15.9,0,0,15.9,412.3,397.2)" />
</g>
<g clip-path="url(#c1_97)">
<g fill="#000000" >
<use xlink:href="#f1_11" transform="matrix(10.4,0,0,10.4,447.9,399)" />
</g>
</g>
<g clip-path="url(#c2_97)">
<g fill="#000000" >
<use xlink:href="#f1_11" transform="matrix(10.4,0,0,10.4,447.9,399)" />
</g>
</g>
<g fill="#000000" >
<use xlink:href="#f1_c" transform="matrix(10.4,0,0,10.4,100.1,448)" />
<use xlink:href="#f1_25" transform="matrix(10.4,0,0,10.4,105.6,448)" />
<use xlink:href="#f1_25" transform="matrix(10.4,0,0,10.4,109.5,448)" />
<use xlink:href="#f1_d" transform="matrix(10.4,0,0,10.4,113.1,448)" />
<use xlink:href="#f1_13" transform="matrix(10.4,0,0,10.4,143.4,448)" />
<use xlink:href="#f1_18" transform="matrix(10.4,0,0,10.4,154.9,448)" />
<use xlink:href="#f1_n" transform="matrix(7.4,0,0,7.4,166.5,453.3)" />
<use xlink:href="#f1_13" transform="matrix(10.4,0,0,10.4,172.7,448)" />
<use xlink:href="#f1_18" transform="matrix(10.4,0,0,10.4,184.3,448)" />
<use xlink:href="#f1_m" transform="matrix(7.4,0,0,7.4,195.8,453.3)" />
<use xlink:href="#f1_13" transform="matrix(10.4,0,0,10.4,202.1,448)" />
<use xlink:href="#f1_28" transform="matrix(10.4,0,0,10.4,213.6,448)" />
<use xlink:href="#f1_f" transform="matrix(10.4,0,0,10.4,222.8,448)" />
<use xlink:href="#f1_1e" transform="matrix(10.4,0,0,10.4,238,448)" />
<use xlink:href="#f1_18" transform="matrix(10.4,0,0,10.4,249.5,448)" />
<use xlink:href="#f1_n" transform="matrix(7.4,0,0,7.4,261.1,453.3)" />
</g>
<g clip-path="url(#c3_97)">
<g fill="#000000" >
<use xlink:href="#f1_1jz" transform="matrix(6.7,0,0,6.7,328.9,449.2)" />
</g>
</g>
<g fill="#000000" >
<use xlink:href="#f1_n" transform="matrix(9.2,0,0,9.2,305.3,434.8)" />
<use xlink:href="#f1_r" transform="matrix(9.2,0,0,9.2,313.1,434.8)" />
<use xlink:href="#f1_n" transform="matrix(9.2,0,0,9.2,321.2,434.8)" />
<use xlink:href="#f1_1b" transform="matrix(9.2,0,0,9.2,329.3,434.8)" />
<use xlink:href="#f1_1f" transform="matrix(9.2,0,0,9.2,307.7,455.5)" />
<use xlink:href="#f1_18" transform="matrix(9.2,0,0,9.2,318.6,455.5)" />
<use xlink:href="#f2_1mh" transform="matrix(15.9,0,0,15.9,343.4,446.1)" />
<use xlink:href="#f1_c" transform="matrix(7.4,0,0,7.4,186.7,482.6)" />
<use xlink:href="#f1_21" transform="matrix(7.4,0,0,7.4,190.3,482.6)" />
<use xlink:href="#f1_2k" transform="matrix(7.4,0,0,7.4,196.4,482.6)" />
<use xlink:href="#f1_1z" transform="matrix(7.4,0,0,7.4,201.7,482.6)" />
<use xlink:href="#f1_21" transform="matrix(7.4,0,0,7.4,207,482.6)" />
<use xlink:href="#f1_2f" transform="matrix(7.4,0,0,7.4,213,482.6)" />
<use xlink:href="#f1_2f" transform="matrix(7.4,0,0,7.4,218.5,482.6)" />
<use xlink:href="#f1_d" transform="matrix(7.4,0,0,7.4,224,482.6)" />
<use xlink:href="#f1_q" transform="matrix(10.4,0,0,10.4,56.9,534.5)" />
<use xlink:href="#f1_i" transform="matrix(10.4,0,0,10.4,66.2,534.5)" />
<use xlink:href="#f1_18" transform="matrix(10.4,0,0,10.4,100.1,534.5)" />
<use xlink:href="#f1_2b" transform="matrix(10.4,0,0,10.4,111.7,534.5)" />
<use xlink:href="#f1_2j" transform="matrix(10.4,0,0,10.4,120.5,534.5)" />
<use xlink:href="#f1_2j" transform="matrix(10.4,0,0,10.4,139.3,534.5)" />
<use xlink:href="#f1_25" transform="matrix(10.4,0,0,10.4,150.5,534.5)" />
<use xlink:href="#f1_28" transform="matrix(10.4,0,0,10.4,154,534.5)" />
<use xlink:href="#f1_28" transform="matrix(10.4,0,0,10.4,157.5,534.5)" />
<use xlink:href="#f1_2l" transform="matrix(10.4,0,0,10.4,168.7,534.5)" />
<use xlink:href="#f1_2b" transform="matrix(10.4,0,0,10.4,176.2,534.5)" />
<use xlink:href="#f1_2h" transform="matrix(10.4,0,0,10.4,185,534.5)" />
<use xlink:href="#f1_1y" transform="matrix(10.4,0,0,10.4,201.5,534.5)" />
<use xlink:href="#f1_2e" transform="matrix(10.4,0,0,10.4,210.3,534.5)" />
<use xlink:href="#f1_25" transform="matrix(10.4,0,0,10.4,215.6,534.5)" />
<use xlink:href="#f1_2a" transform="matrix(10.4,0,0,10.4,219.1,534.5)" />
<use xlink:href="#f1_23" transform="matrix(10.4,0,0,10.4,227.9,534.5)" />
<use xlink:href="#f1_1x" transform="matrix(10.4,0,0,10.4,244.2,534.5)" />
<use xlink:href="#f1_1y" transform="matrix(10.4,0,0,10.4,253,534.5)" />
<use xlink:href="#f1_2b" transform="matrix(10.4,0,0,10.4,261.8,534.5)" />
<use xlink:href="#f1_2h" transform="matrix(10.4,0,0,10.4,270.6,534.5)" />
<use xlink:href="#f1_2g" transform="matrix(10.4,0,0,10.4,279.4,534.5)" />
<use xlink:href="#f1_2g" transform="matrix(10.4,0,0,10.4,291.5,534.5)" />
<use xlink:href="#f1_24" transform="matrix(10.4,0,0,10.4,295.9,534.5)" />
<use xlink:href="#f1_21" transform="matrix(10.4,0,0,10.4,304.7,534.5)" />
<use xlink:href="#f1_22" transform="matrix(10.4,0,0,10.4,321.2,534.5)" />
<use xlink:href="#f1_2b" transform="matrix(10.4,0,0,10.4,325.8,534.5)" />
<use xlink:href="#f1_28" transform="matrix(10.4,0,0,10.4,334.6,534.5)" />
<use xlink:href="#f1_28" transform="matrix(10.4,0,0,10.4,338.1,534.5)" />
<use xlink:href="#f1_2b" transform="matrix(10.4,0,0,10.4,341.5,534.5)" />
<use xlink:href="#f1_2j" transform="matrix(10.4,0,0,10.4,350.3,534.5)" />
<use xlink:href="#f1_25" transform="matrix(10.4,0,0,10.4,361.5,534.5)" />
<use xlink:href="#f1_2a" transform="matrix(10.4,0,0,10.4,365,534.5)" />
<use xlink:href="#f1_23" transform="matrix(10.4,0,0,10.4,373.8,534.5)" />
<use xlink:href="#f1_1z" transform="matrix(10.4,0,0,10.4,390.3,534.5)" />
<use xlink:href="#f1_2b" transform="matrix(10.4,0,0,10.4,398.4,534.5)" />
<use xlink:href="#f1_2a" transform="matrix(10.4,0,0,10.4,407.2,534.5)" />
<use xlink:href="#f1_2i" transform="matrix(10.4,0,0,10.4,416,534.5)" />
<use xlink:href="#f1_21" transform="matrix(10.4,0,0,10.4,423.9,534.5)" />
<use xlink:href="#f1_2e" transform="matrix(10.4,0,0,10.4,432.7,534.5)" />
<use xlink:href="#f1_2f" transform="matrix(10.4,0,0,10.4,438,534.5)" />
<use xlink:href="#f1_25" transform="matrix(10.4,0,0,10.4,446,534.5)" />
<use xlink:href="#f1_2b" transform="matrix(10.4,0,0,10.4,449.5,534.5)" />
<use xlink:href="#f1_2a" transform="matrix(10.4,0,0,10.4,458.3,534.5)" />
<use xlink:href="#f1_2f" transform="matrix(10.4,0,0,10.4,467.1,534.5)" />
<use xlink:href="#f1_z" transform="matrix(10.4,0,0,10.4,475.2,534.5)" />
<use xlink:href="#f1_c" transform="matrix(10.4,0,0,10.4,100.1,566.4)" />
<use xlink:href="#f1_25" transform="matrix(10.4,0,0,10.4,105.8,566.4)" />
<use xlink:href="#f1_d" transform="matrix(10.4,0,0,10.4,109.6,566.4)" />
<use xlink:href="#f1_1y" transform="matrix(10.4,0,0,10.4,143.4,566.4)" />
<use xlink:href="#f1_21" transform="matrix(10.4,0,0,10.4,152.2,566.4)" />
<use xlink:href="#f1_2a" transform="matrix(10.4,0,0,10.4,161,566.4)" />
<use xlink:href="#f1_2m" transform="matrix(10.4,0,0,10.4,169.8,566.4)" />
<use xlink:href="#f1_21" transform="matrix(10.4,0,0,10.4,177.5,566.4)" />
<use xlink:href="#f1_2a" transform="matrix(10.4,0,0,10.4,186.3,566.4)" />
<use xlink:href="#f1_21" transform="matrix(10.4,0,0,10.4,195.1,566.4)" />
<use xlink:href="#f1_2g" transform="matrix(10.4,0,0,10.4,211.9,566.4)" />
<use xlink:href="#f1_2b" transform="matrix(10.4,0,0,10.4,216.3,566.4)" />
<use xlink:href="#f1_11" transform="matrix(10.4,0,0,10.4,232.3,566.4)" />
<use xlink:href="#f1_2a" transform="matrix(10.4,0,0,10.4,242.9,566.4)" />
<use xlink:href="#f1_25" transform="matrix(10.4,0,0,10.4,251.7,566.4)" />
<use xlink:href="#f1_28" transform="matrix(10.4,0,0,10.4,255.2,566.4)" />
<use xlink:href="#f1_25" transform="matrix(10.4,0,0,10.4,258.7,566.4)" />
<use xlink:href="#f1_2a" transform="matrix(10.4,0,0,10.4,262.2,566.4)" />
<use xlink:href="#f1_21" transform="matrix(10.4,0,0,10.4,271,566.4)" />
<use xlink:href="#f1_c" transform="matrix(10.4,0,0,10.4,100.1,598.1)" />
<use xlink:href="#f1_25" transform="matrix(10.4,0,0,10.4,105.6,598.1)" />
<use xlink:href="#f1_25" transform="matrix(10.4,0,0,10.4,109.5,598.1)" />
<use xlink:href="#f1_d" transform="matrix(10.4,0,0,10.4,113.1,598.1)" />
<use xlink:href="#f1_1x" transform="matrix(10.4,0,0,10.4,143.4,598.1)" />
<use xlink:href="#f1_2a" transform="matrix(10.4,0,0,10.4,152.2,598.1)" />
<use xlink:href="#f1_25" transform="matrix(10.4,0,0,10.4,161,598.1)" />
<use xlink:href="#f1_28" transform="matrix(10.4,0,0,10.4,164.5,598.1)" />
<use xlink:href="#f1_25" transform="matrix(10.4,0,0,10.4,168,598.1)" />
<use xlink:href="#f1_2a" transform="matrix(10.4,0,0,10.4,171.4,598.1)" />
<use xlink:href="#f1_21" transform="matrix(10.4,0,0,10.4,180.2,598.1)" />
<use xlink:href="#f1_2g" transform="matrix(10.4,0,0,10.4,197.5,598.1)" />
<use xlink:href="#f1_2b" transform="matrix(10.4,0,0,10.4,201.9,598.1)" />
<use xlink:href="#f1_1y" transform="matrix(10.4,0,0,10.4,219.3,598.1)" />
<use xlink:href="#f1_21" transform="matrix(10.4,0,0,10.4,228.1,598.1)" />
<use xlink:href="#f1_2a" transform="matrix(10.4,0,0,10.4,236.9,598.1)" />
<use xlink:href="#f1_2m" transform="matrix(10.4,0,0,10.4,245.7,598.1)" />
<use xlink:href="#f1_21" transform="matrix(10.4,0,0,10.4,253.4,598.1)" />
<use xlink:href="#f1_2a" transform="matrix(10.4,0,0,10.4,262.2,598.1)" />
<use xlink:href="#f1_21" transform="matrix(10.4,0,0,10.4,271,598.1)" />
<use xlink:href="#f1_c" transform="matrix(10.4,0,0,10.4,100.1,629.8)" />
<use xlink:href="#f1_25" transform="matrix(10.4,0,0,10.4,105.6,629.8)" />
<use xlink:href="#f1_25" transform="matrix(10.4,0,0,10.4,109.3,629.8)" />
<use xlink:href="#f1_25" transform="matrix(10.4,0,0,10.4,112.9,629.8)" />
<use xlink:href="#f1_d" transform="matrix(10.4,0,0,10.4,116.6,629.8)" />
<use xlink:href="#f1_21" transform="matrix(10.4,0,0,10.4,143.4,629.8)" />
<use xlink:href="#f1_2g" transform="matrix(10.4,0,0,10.4,152.2,629.8)" />
<use xlink:href="#f1_24" transform="matrix(10.4,0,0,10.4,156.6,629.8)" />
<use xlink:href="#f1_1x" transform="matrix(10.4,0,0,10.4,165.4,629.8)" />
<use xlink:href="#f1_2a" transform="matrix(10.4,0,0,10.4,174.2,629.8)" />
<use xlink:href="#f1_2b" transform="matrix(10.4,0,0,10.4,183,629.8)" />
<use xlink:href="#f1_25" transform="matrix(10.4,0,0,10.4,191.8,629.8)" />
<use xlink:href="#f1_1z" transform="matrix(10.4,0,0,10.4,195.3,629.8)" />
<use xlink:href="#f1_1x" transform="matrix(10.4,0,0,10.4,211.8,629.8)" />
<use xlink:href="#f1_1z" transform="matrix(10.4,0,0,10.4,220.6,629.8)" />
<use xlink:href="#f1_25" transform="matrix(10.4,0,0,10.4,228.6,629.8)" />
<use xlink:href="#f1_20" transform="matrix(10.4,0,0,10.4,232.1,629.8)" />
<use xlink:href="#f1_2g" transform="matrix(10.4,0,0,10.4,249.5,629.8)" />
<use xlink:href="#f1_2b" transform="matrix(10.4,0,0,10.4,253.9,629.8)" />
<use xlink:href="#f1_21" transform="matrix(10.4,0,0,10.4,271.2,629.8)" />
<use xlink:href="#f1_2g" transform="matrix(10.4,0,0,10.4,280,629.8)" />
<use xlink:href="#f1_24" transform="matrix(10.4,0,0,10.4,284.4,629.8)" />
<use xlink:href="#f1_1x" transform="matrix(10.4,0,0,10.4,293.2,629.8)" />
<use xlink:href="#f1_2a" transform="matrix(10.4,0,0,10.4,302,629.8)" />
<use xlink:href="#f1_1x" transform="matrix(10.4,0,0,10.4,310.8,629.8)" />
<use xlink:href="#f1_29" transform="matrix(10.4,0,0,10.4,319.6,629.8)" />
<use xlink:href="#f1_25" transform="matrix(10.4,0,0,10.4,333.1,629.8)" />
<use xlink:href="#f1_2a" transform="matrix(10.4,0,0,10.4,336.6,629.8)" />
<use xlink:href="#f1_21" transform="matrix(10.4,0,0,10.4,345.4,629.8)" />
<use xlink:href="#f1_c" transform="matrix(10.4,0,0,10.4,100.1,661.7)" />
<use xlink:href="#f1_25" transform="matrix(10.4,0,0,10.4,105.8,661.7)" />
<use xlink:href="#f1_2i" transform="matrix(10.4,0,0,10.4,109.5,661.7)" />
<use xlink:href="#f1_d" transform="matrix(10.4,0,0,10.4,117.7,661.7)" />
<use xlink:href="#f1_2c" transform="matrix(10.4,0,0,10.4,143.4,661.7)" />
<use xlink:href="#f1_h" transform="matrix(10.4,0,0,10.4,152.4,661.7)" />
<use xlink:href="#f1_2g" transform="matrix(10.4,0,0,10.4,157.7,661.7)" />
<use xlink:href="#f1_2b" transform="matrix(10.4,0,0,10.4,162.3,661.7)" />
<use xlink:href="#f1_28" transform="matrix(10.4,0,0,10.4,171.1,661.7)" />
<use xlink:href="#f1_2h" transform="matrix(10.4,0,0,10.4,174.7,661.7)" />
<use xlink:href="#f1_25" transform="matrix(10.4,0,0,10.4,183.5,661.7)" />
<use xlink:href="#f1_20" transform="matrix(10.4,0,0,10.4,187.2,661.7)" />
<use xlink:href="#f1_25" transform="matrix(10.4,0,0,10.4,196,661.7)" />
<use xlink:href="#f1_2a" transform="matrix(10.4,0,0,10.4,199.7,661.7)" />
<use xlink:href="#f1_21" transform="matrix(10.4,0,0,10.4,208.6,661.7)" />
<use xlink:href="#f1_2g" transform="matrix(10.4,0,0,10.4,226.4,661.7)" />
<use xlink:href="#f1_2b" transform="matrix(10.4,0,0,10.4,230.8,661.7)" />
<use xlink:href="#f1_m" transform="matrix(10.4,0,0,10.4,248.6,661.7)" />
<use xlink:href="#f1_h" transform="matrix(10.4,0,0,10.4,257.6,661.7)" />
<use xlink:href="#f1_1y" transform="matrix(10.4,0,0,10.4,262.9,661.7)" />
<use xlink:href="#f1_2e" transform="matrix(10.4,0,0,10.4,271.9,661.7)" />
<use xlink:href="#f1_2b" transform="matrix(10.4,0,0,10.4,277.2,661.7)" />
<use xlink:href="#f1_29" transform="matrix(10.4,0,0,10.4,286.2,661.7)" />
<use xlink:href="#f1_2b" transform="matrix(10.4,0,0,10.4,299.9,661.7)" />
<use xlink:href="#f1_h" transform="matrix(10.4,0,0,10.4,308.7,661.7)" />
<use xlink:href="#f1_o" transform="matrix(10.4,0,0,10.4,314.2,661.7)" />
<use xlink:href="#f1_h" transform="matrix(10.4,0,0,10.4,323,661.7)" />
<use xlink:href="#f1_29" transform="matrix(10.4,0,0,10.4,328.5,661.7)" />
<use xlink:href="#f1_21" transform="matrix(10.4,0,0,10.4,342.1,661.7)" />
<use xlink:href="#f1_2g" transform="matrix(10.4,0,0,10.4,351.1,661.7)" />
<use xlink:href="#f1_24" transform="matrix(10.4,0,0,10.4,355.5,661.7)" />
<use xlink:href="#f1_2l" transform="matrix(10.4,0,0,10.4,364.4,661.7)" />
<use xlink:href="#f1_28" transform="matrix(10.4,0,0,10.4,372.1,661.7)" />
<use xlink:href="#f1_1x" transform="matrix(10.4,0,0,10.4,375.6,661.7)" />
<use xlink:href="#f1_2a" transform="matrix(10.4,0,0,10.4,384.6,661.7)" />
<use xlink:href="#f1_25" transform="matrix(10.4,0,0,10.4,393.4,661.7)" />
<use xlink:href="#f1_28" transform="matrix(10.4,0,0,10.4,397.1,661.7)" />
<use xlink:href="#f1_25" transform="matrix(10.4,0,0,10.4,400.6,661.7)" />
<use xlink:href="#f1_2a" transform="matrix(10.4,0,0,10.4,404.2,661.7)" />
<use xlink:href="#f1_21" transform="matrix(10.4,0,0,10.4,413,661.7)" />
<use xlink:href="#f1_i" transform="matrix(10.4,0,0,10.4,422,661.7)" />
<use xlink:href="#f1_c" transform="matrix(10.4,0,0,10.4,100.1,693.4)" />
<use xlink:href="#f1_2i" transform="matrix(10.4,0,0,10.4,105.8,693.4)" />
<use xlink:href="#f1_d" transform="matrix(10.4,0,0,10.4,114.2,693.4)" />
<use xlink:href="#f1_29" transform="matrix(10.4,0,0,10.4,143.4,693.4)" />
<use xlink:href="#f1_21" transform="matrix(10.4,0,0,10.4,156.9,693.4)" />
<use xlink:href="#f1_2g" transform="matrix(10.4,0,0,10.4,165.7,693.4)" />
<use xlink:href="#f1_24" transform="matrix(10.4,0,0,10.4,170.1,693.4)" />
<use xlink:href="#f1_2l" transform="matrix(10.4,0,0,10.4,178.9,693.4)" />
<use xlink:href="#f1_28" transform="matrix(10.4,0,0,10.4,186.5,693.4)" />
<use xlink:href="#f1_1y" transform="matrix(10.4,0,0,10.4,189.9,693.4)" />
<use xlink:href="#f1_2e" transform="matrix(10.4,0,0,10.4,198.7,693.4)" />
<use xlink:href="#f1_2b" transform="matrix(10.4,0,0,10.4,204.1,693.4)" />
<use xlink:href="#f1_29" transform="matrix(10.4,0,0,10.4,212.9,693.4)" />
<use xlink:href="#f1_25" transform="matrix(10.4,0,0,10.4,226.4,693.4)" />
<use xlink:href="#f1_20" transform="matrix(10.4,0,0,10.4,229.9,693.4)" />
<use xlink:href="#f1_21" transform="matrix(10.4,0,0,10.4,238.7,693.4)" />
<use xlink:href="#f1_2g" transform="matrix(10.4,0,0,10.4,256.1,693.4)" />
<use xlink:href="#f1_2b" transform="matrix(10.4,0,0,10.4,260.5,693.4)" />
<use xlink:href="#f1_21" transform="matrix(10.4,0,0,10.4,278.1,693.4)" />
<use xlink:href="#f1_2g" transform="matrix(10.4,0,0,10.4,286.9,693.4)" />
<use xlink:href="#f1_24" transform="matrix(10.4,0,0,10.4,291.3,693.4)" />
<use xlink:href="#f1_1x" transform="matrix(10.4,0,0,10.4,300.1,693.4)" />
<use xlink:href="#f1_2a" transform="matrix(10.4,0,0,10.4,308.9,693.4)" />
<use xlink:href="#f1_1x" transform="matrix(10.4,0,0,10.4,317.7,693.4)" />
<use xlink:href="#f1_29" transform="matrix(10.4,0,0,10.4,326.5,693.4)" />
<use xlink:href="#f1_25" transform="matrix(10.4,0,0,10.4,340.1,693.4)" />
<use xlink:href="#f1_2a" transform="matrix(10.4,0,0,10.4,343.6,693.4)" />
<use xlink:href="#f1_21" transform="matrix(10.4,0,0,10.4,352.4,693.4)" />
<use xlink:href="#f1_c" transform="matrix(10.4,0,0,10.4,100.1,725.2)" />
<use xlink:href="#f1_2i" transform="matrix(10.4,0,0,10.4,105.8,725.2)" />
<use xlink:href="#f1_25" transform="matrix(10.4,0,0,10.4,113.9,725.2)" />
<use xlink:href="#f1_d" transform="matrix(10.4,0,0,10.4,117.7,725.2)" />
<use xlink:href="#f1_1y" transform="matrix(10.4,0,0,10.4,143.4,725.2)" />
<use xlink:href="#f1_21" transform="matrix(10.4,0,0,10.4,152.2,725.2)" />
<use xlink:href="#f1_2a" transform="matrix(10.4,0,0,10.4,161,725.2)" />
<use xlink:href="#f1_2m" transform="matrix(10.4,0,0,10.4,169.8,725.2)" />
<use xlink:href="#f1_21" transform="matrix(10.4,0,0,10.4,177.5,725.2)" />
<use xlink:href="#f1_2a" transform="matrix(10.4,0,0,10.4,186.3,725.2)" />
<use xlink:href="#f1_21" transform="matrix(10.4,0,0,10.4,195.1,725.2)" />
<use xlink:href="#f1_20" transform="matrix(10.4,0,0,10.4,204.1,725.2)" />
<use xlink:href="#f1_25" transform="matrix(10.4,0,0,10.4,212.9,725.2)" />
<use xlink:href="#f1_1x" transform="matrix(10.4,0,0,10.4,216.3,725.2)" />
<use xlink:href="#f1_2m" transform="matrix(10.4,0,0,10.4,225.1,725.2)" />
<use xlink:href="#f1_2b" transform="matrix(10.4,0,0,10.4,232.8,725.2)" />
<use xlink:href="#f1_2a" transform="matrix(10.4,0,0,10.4,241.6,725.2)" />
<use xlink:href="#f1_25" transform="matrix(10.4,0,0,10.4,250.4,725.2)" />
<use xlink:href="#f1_2h" transform="matrix(10.4,0,0,10.4,253.9,725.2)" />
<use xlink:href="#f1_29" transform="matrix(10.4,0,0,10.4,262.7,725.2)" />
<use xlink:href="#f1_1z" transform="matrix(10.4,0,0,10.4,285.1,725.2)" />
<use xlink:href="#f1_24" transform="matrix(10.4,0,0,10.4,293.2,725.2)" />
<use xlink:href="#f1_28" transform="matrix(10.4,0,0,10.4,302,725.2)" />
<use xlink:href="#f1_2b" transform="matrix(10.4,0,0,10.4,305.4,725.2)" />
<use xlink:href="#f1_2e" transform="matrix(10.4,0,0,10.4,314.4,725.2)" />
<use xlink:href="#f1_25" transform="matrix(10.4,0,0,10.4,319.7,725.2)" />
<use xlink:href="#f1_20" transform="matrix(10.4,0,0,10.4,323.2,725.2)" />
<use xlink:href="#f1_21" transform="matrix(10.4,0,0,10.4,332,725.2)" />
<use xlink:href="#f1_2g" transform="matrix(10.4,0,0,10.4,349.6,725.2)" />
<use xlink:href="#f1_2b" transform="matrix(10.4,0,0,10.4,354,725.2)" />
<use xlink:href="#f1_2a" transform="matrix(10.4,0,0,10.4,371.6,725.2)" />
<use xlink:href="#f1_25" transform="matrix(10.4,0,0,10.4,380.4,725.2)" />
<use xlink:href="#f1_2g" transform="matrix(10.4,0,0,10.4,383.9,725.2)" />
<use xlink:href="#f1_2e" transform="matrix(10.4,0,0,10.4,388.3,725.2)" />
<use xlink:href="#f1_2b" transform="matrix(10.4,0,0,10.4,393.6,725.2)" />
<use xlink:href="#f1_1y" transform="matrix(10.4,0,0,10.4,402.6,725.2)" />
<use xlink:href="#f1_21" transform="matrix(10.4,0,0,10.4,411.4,725.2)" />
<use xlink:href="#f1_2a" transform="matrix(10.4,0,0,10.4,420.2,725.2)" />
<use xlink:href="#f1_2m" transform="matrix(10.4,0,0,10.4,429,725.2)" />
<use xlink:href="#f1_21" transform="matrix(10.4,0,0,10.4,436.7,725.2)" />
<use xlink:href="#f1_2a" transform="matrix(10.4,0,0,10.4,445.5,725.2)" />
<use xlink:href="#f1_21" transform="matrix(10.4,0,0,10.4,454.3,725.2)" />
<use xlink:href="#f1_c" transform="matrix(10.4,0,0,10.4,100.1,757.1)" />
<use xlink:href="#f1_2i" transform="matrix(10.4,0,0,10.4,105.6,757.1)" />
<use xlink:href="#f1_25" transform="matrix(10.4,0,0,10.4,113.7,757.1)" />
<use xlink:href="#f1_25" transform="matrix(10.4,0,0,10.4,117.5,757.1)" />
<use xlink:href="#f1_d" transform="matrix(10.4,0,0,10.4,121.2,757.1)" />
<use xlink:href="#f1_21" transform="matrix(10.4,0,0,10.4,143.4,757.1)" />
<use xlink:href="#f1_2g" transform="matrix(10.4,0,0,10.4,152.2,757.1)" />
<use xlink:href="#f1_24" transform="matrix(10.4,0,0,10.4,156.6,757.1)" />
<use xlink:href="#f1_2l" transform="matrix(10.4,0,0,10.4,165.4,757.1)" />
<use xlink:href="#f1_28" transform="matrix(10.4,0,0,10.4,172.9,757.1)" />
<use xlink:href="#f1_1x" transform="matrix(10.4,0,0,10.4,176.4,757.1)" />
<use xlink:href="#f1_29" transform="matrix(10.4,0,0,10.4,185.2,757.1)" />
<use xlink:href="#f1_25" transform="matrix(10.4,0,0,10.4,198.7,757.1)" />
<use xlink:href="#f1_2a" transform="matrix(10.4,0,0,10.4,202.2,757.1)" />
<use xlink:href="#f1_21" transform="matrix(10.4,0,0,10.4,211,757.1)" />
<use xlink:href="#f1_2g" transform="matrix(10.4,0,0,10.4,227.9,757.1)" />
<use xlink:href="#f1_2b" transform="matrix(10.4,0,0,10.4,232.3,757.1)" />
<use xlink:href="#f1_29" transform="matrix(10.4,0,0,10.4,249.3,757.1)" />
<use xlink:href="#f1_21" transform="matrix(10.4,0,0,10.4,262.9,757.1)" />
<use xlink:href="#f1_2g" transform="matrix(10.4,0,0,10.4,271.7,757.1)" />
<use xlink:href="#f1_24" transform="matrix(10.4,0,0,10.4,276.1,757.1)" />
<use xlink:href="#f1_2l" transform="matrix(10.4,0,0,10.4,284.9,757.1)" />
<use xlink:href="#f1_28" transform="matrix(10.4,0,0,10.4,292.4,757.1)" />
<use xlink:href="#f1_1x" transform="matrix(10.4,0,0,10.4,295.9,757.1)" />
<use xlink:href="#f1_29" transform="matrix(10.4,0,0,10.4,304.7,757.1)" />
<use xlink:href="#f1_25" transform="matrix(10.4,0,0,10.4,318.3,757.1)" />
<use xlink:href="#f1_2a" transform="matrix(10.4,0,0,10.4,321.8,757.1)" />
<use xlink:href="#f1_21" transform="matrix(10.4,0,0,10.4,330.6,757.1)" />
<use xlink:href="#f1_c" transform="matrix(10.4,0,0,10.4,100.1,788.8)" />
<use xlink:href="#f1_25" transform="matrix(10.4,0,0,10.4,105.4,788.8)" />
<use xlink:href="#f1_2k" transform="matrix(10.4,0,0,10.4,108.7,788.8)" />
<use xlink:href="#f1_d" transform="matrix(10.4,0,0,10.4,116.6,788.8)" />
<use xlink:href="#f1_1y" transform="matrix(10.4,0,0,10.4,143.4,788.8)" />
<use xlink:href="#f1_21" transform="matrix(10.4,0,0,10.4,152.2,788.8)" />
<use xlink:href="#f1_2a" transform="matrix(10.4,0,0,10.4,161,788.8)" />
<use xlink:href="#f1_2m" transform="matrix(10.4,0,0,10.4,169.8,788.8)" />
<use xlink:href="#f1_21" transform="matrix(10.4,0,0,10.4,177.5,788.8)" />
<use xlink:href="#f1_2a" transform="matrix(10.4,0,0,10.4,186.3,788.8)" />
<use xlink:href="#f1_21" transform="matrix(10.4,0,0,10.4,195.1,788.8)" />
<use xlink:href="#f1_2g" transform="matrix(10.4,0,0,10.4,212.1,788.8)" />
<use xlink:href="#f1_2b" transform="matrix(10.4,0,0,10.4,216.5,788.8)" />
<use xlink:href="#f1_2f" transform="matrix(10.4,0,0,10.4,233.6,788.8)" />
<use xlink:href="#f1_2h" transform="matrix(10.4,0,0,10.4,241.6,788.8)" />
<use xlink:href="#f1_28" transform="matrix(10.4,0,0,10.4,250.4,788.8)" />
<use xlink:href="#f1_2c" transform="matrix(10.4,0,0,10.4,253.9,788.8)" />
<use xlink:href="#f1_24" transform="matrix(10.4,0,0,10.4,262.7,788.8)" />
<use xlink:href="#f1_1x" transform="matrix(10.4,0,0,10.4,271.5,788.8)" />
<use xlink:href="#f1_2a" transform="matrix(10.4,0,0,10.4,280.3,788.8)" />
<use xlink:href="#f1_25" transform="matrix(10.4,0,0,10.4,289.1,788.8)" />
<use xlink:href="#f1_28" transform="matrix(10.4,0,0,10.4,292.6,788.8)" />
<use xlink:href="#f1_25" transform="matrix(10.4,0,0,10.4,296.1,788.8)" />
<use xlink:href="#f1_1z" transform="matrix(10.4,0,0,10.4,299.6,788.8)" />
<use xlink:href="#f1_1x" transform="matrix(10.4,0,0,10.4,315.9,788.8)" />
<use xlink:href="#f1_1z" transform="matrix(10.4,0,0,10.4,324.7,788.8)" />
<use xlink:href="#f1_25" transform="matrix(10.4,0,0,10.4,332.8,788.8)" />
<use xlink:href="#f1_20" transform="matrix(10.4,0,0,10.4,336.2,788.8)" />
<use xlink:href="#f1_c" transform="matrix(10.4,0,0,10.4,100.1,820.5)" />
<use xlink:href="#f1_2k" transform="matrix(10.4,0,0,10.4,105.3,820.5)" />
<use xlink:href="#f1_d" transform="matrix(10.4,0,0,10.4,113.1,820.5)" />
<use xlink:href="#f1_24" transform="matrix(10.4,0,0,10.4,143.4,820.5)" />
<use xlink:href="#f1_21" transform="matrix(10.4,0,0,10.4,152.2,820.5)" />
<use xlink:href="#f1_2k" transform="matrix(10.4,0,0,10.4,161.2,820.5)" />
<use xlink:href="#f1_1x" transform="matrix(10.4,0,0,10.4,169,820.5)" />
<use xlink:href="#f1_2a" transform="matrix(10.4,0,0,10.4,178,820.5)" />
<use xlink:href="#f1_21" transform="matrix(10.4,0,0,10.4,186.8,820.5)" />
<use xlink:href="#f1_2a" transform="matrix(10.4,0,0,10.4,195.6,820.5)" />
<use xlink:href="#f1_25" transform="matrix(10.4,0,0,10.4,204.6,820.5)" />
<use xlink:href="#f1_2g" transform="matrix(10.4,0,0,10.4,208.1,820.5)" />
<use xlink:href="#f1_2e" transform="matrix(10.4,0,0,10.4,212.5,820.5)" />
<use xlink:href="#f1_25" transform="matrix(10.4,0,0,10.4,218,820.5)" />
<use xlink:href="#f1_28" transform="matrix(10.4,0,0,10.4,221.5,820.5)" />
<use xlink:href="#f1_21" transform="matrix(10.4,0,0,10.4,225.1,820.5)" />
<use xlink:href="#f1_2g" transform="matrix(10.4,0,0,10.4,242.7,820.5)" />
<use xlink:href="#f1_2b" transform="matrix(10.4,0,0,10.4,247.3,820.5)" />
<use xlink:href="#f1_l" transform="matrix(10.4,0,0,10.4,265.1,820.5)" />
<use xlink:href="#f1_h" transform="matrix(10.4,0,0,10.4,273.9,820.5)" />
<use xlink:href="#f1_1x" transform="matrix(10.4,0,0,10.4,279.2,820.5)" />
<use xlink:href="#f1_29" transform="matrix(10.4,0,0,10.4,288.2,820.5)" />
<use xlink:href="#f1_25" transform="matrix(10.4,0,0,10.4,301.8,820.5)" />
<use xlink:href="#f1_2a" transform="matrix(10.4,0,0,10.4,305.4,820.5)" />
<use xlink:href="#f1_2b" transform="matrix(10.4,0,0,10.4,314.2,820.5)" />
<use xlink:href="#f1_2c" transform="matrix(10.4,0,0,10.4,323,820.5)" />
<use xlink:href="#f1_21" transform="matrix(10.4,0,0,10.4,332,820.5)" />
<use xlink:href="#f1_2a" transform="matrix(10.4,0,0,10.4,340.8,820.5)" />
<use xlink:href="#f1_2g" transform="matrix(10.4,0,0,10.4,349.6,820.5)" />
<use xlink:href="#f1_1x" transform="matrix(10.4,0,0,10.4,354.2,820.5)" />
<use xlink:href="#f1_2a" transform="matrix(10.4,0,0,10.4,363,820.5)" />
<use xlink:href="#f1_21" transform="matrix(10.4,0,0,10.4,372,820.5)" />
<use xlink:href="#f1_i" transform="matrix(10.4,0,0,10.4,380.8,820.5)" />
<use xlink:href="#f1_r" transform="matrix(10.4,0,0,10.4,56.9,852.4)" />
<use xlink:href="#f1_i" transform="matrix(10.4,0,0,10.4,66.2,852.4)" />
<use xlink:href="#f1_1n" transform="matrix(10.4,0,0,10.4,100.1,852.4)" />
<use xlink:href="#f1_2e" transform="matrix(10.4,0,0,10.4,116.1,852.4)" />
<use xlink:href="#f1_25" transform="matrix(10.4,0,0,10.4,121.4,852.4)" />
<use xlink:href="#f1_2g" transform="matrix(10.4,0,0,10.4,124.9,852.4)" />
<use xlink:href="#f1_21" transform="matrix(10.4,0,0,10.4,129.3,852.4)" />
<use xlink:href="#f1_2g" transform="matrix(10.4,0,0,10.4,145.9,852.4)" />
<use xlink:href="#f1_24" transform="matrix(10.4,0,0,10.4,150.3,852.4)" />
<use xlink:href="#f1_21" transform="matrix(10.4,0,0,10.4,159.1,852.4)" />
<use xlink:href="#f1_2c" transform="matrix(10.4,0,0,10.4,175.8,852.4)" />
<use xlink:href="#f1_2e" transform="matrix(10.4,0,0,10.4,184.6,852.4)" />
<use xlink:href="#f1_2b" transform="matrix(10.4,0,0,10.4,189.9,852.4)" />
<use xlink:href="#f1_20" transform="matrix(10.4,0,0,10.4,198.7,852.4)" />
<use xlink:href="#f1_2h" transform="matrix(10.4,0,0,10.4,207.5,852.4)" />
<use xlink:href="#f1_1z" transform="matrix(10.4,0,0,10.4,216.3,852.4)" />
<use xlink:href="#f1_2g" transform="matrix(10.4,0,0,10.4,224.4,852.4)" />
<use xlink:href="#f1_2f" transform="matrix(10.4,0,0,10.4,228.8,852.4)" />
<use xlink:href="#f1_22" transform="matrix(10.4,0,0,10.4,244.8,852.4)" />
<use xlink:href="#f1_2b" transform="matrix(10.4,0,0,10.4,249.3,852.4)" />
<use xlink:href="#f1_2e" transform="matrix(10.4,0,0,10.4,258.1,852.4)" />
<use xlink:href="#f1_29" transform="matrix(10.4,0,0,10.4,263.4,852.4)" />
<use xlink:href="#f1_21" transform="matrix(10.4,0,0,10.4,277,852.4)" />
<use xlink:href="#f1_20" transform="matrix(10.4,0,0,10.4,285.8,852.4)" />
<use xlink:href="#f1_25" transform="matrix(10.4,0,0,10.4,302.5,852.4)" />
<use xlink:href="#f1_2a" transform="matrix(10.4,0,0,10.4,306,852.4)" />
<use xlink:href="#f1_2g" transform="matrix(10.4,0,0,10.4,322.5,852.4)" />
<use xlink:href="#f1_24" transform="matrix(10.4,0,0,10.4,326.9,852.4)" />
<use xlink:href="#f1_21" transform="matrix(10.4,0,0,10.4,335.7,852.4)" />
<use xlink:href="#f1_22" transform="matrix(10.4,0,0,10.4,352.4,852.4)" />
<use xlink:href="#f1_2b" transform="matrix(10.4,0,0,10.4,356.9,852.4)" />
<use xlink:href="#f1_28" transform="matrix(10.4,0,0,10.4,365.7,852.4)" />
<use xlink:href="#f1_28" transform="matrix(10.4,0,0,10.4,369.2,852.4)" />
<use xlink:href="#f1_2b" transform="matrix(10.4,0,0,10.4,372.7,852.4)" />
<use xlink:href="#f1_2j" transform="matrix(10.4,0,0,10.4,381.5,852.4)" />
<use xlink:href="#f1_25" transform="matrix(10.4,0,0,10.4,392.7,852.4)" />
<use xlink:href="#f1_2a" transform="matrix(10.4,0,0,10.4,396.2,852.4)" />
<use xlink:href="#f1_23" transform="matrix(10.4,0,0,10.4,405,852.4)" />
<use xlink:href="#f1_2f" transform="matrix(10.4,0,0,10.4,421.7,852.4)" />
<use xlink:href="#f1_21" transform="matrix(10.4,0,0,10.4,429.7,852.4)" />
<use xlink:href="#f1_2d" transform="matrix(10.4,0,0,10.4,438.5,852.4)" />
<use xlink:href="#f1_2h" transform="matrix(10.4,0,0,10.4,447.3,852.4)" />
<use xlink:href="#f1_21" transform="matrix(10.4,0,0,10.4,456.1,852.4)" />
<use xlink:href="#f1_2a" transform="matrix(10.4,0,0,10.4,464.9,852.4)" />
<use xlink:href="#f1_1z" transform="matrix(10.4,0,0,10.4,473.7,852.4)" />
<use xlink:href="#f1_21" transform="matrix(10.4,0,0,10.4,481.8,852.4)" />
<use xlink:href="#f1_2b" transform="matrix(10.4,0,0,10.4,498.5,852.4)" />
<use xlink:href="#f1_22" transform="matrix(10.4,0,0,10.4,507.3,852.4)" />
<use xlink:href="#f1_2e" transform="matrix(10.4,0,0,10.4,519.7,852.4)" />
<use xlink:href="#f1_21" transform="matrix(10.4,0,0,10.4,525,852.4)" />
<use xlink:href="#f1_1x" transform="matrix(10.4,0,0,10.4,533.8,852.4)" />
<use xlink:href="#f1_1z" transform="matrix(10.4,0,0,10.4,542.6,852.4)" />
<use xlink:href="#f1_2g" transform="matrix(10.4,0,0,10.4,550.7,852.4)" />
<use xlink:href="#f1_25" transform="matrix(10.4,0,0,10.4,555.1,852.4)" />
<use xlink:href="#f1_2b" transform="matrix(10.4,0,0,10.4,558.6,852.4)" />
<use xlink:href="#f1_2a" transform="matrix(10.4,0,0,10.4,567.4,852.4)" />
<use xlink:href="#f1_2f" transform="matrix(10.4,0,0,10.4,576.2,852.4)" />
<use xlink:href="#f1_u" transform="matrix(10.4,0,0,10.4,592.1,852.4)" />
<use xlink:href="#f1_1jz" transform="matrix(10.4,0,0,10.4,596.5,852.4)" />
</g>
<g clip-path="url(#c4_97)">
<g fill="#000000" >
<use xlink:href="#f1_1jz" transform="matrix(8.5,0,0,8.5,327.1,878.8)" />
</g>
</g>
<g fill="#000000" >
<use xlink:href="#f1_12" transform="matrix(8.5,0,0,8.5,424.1,879.2)" />
<use xlink:href="#f1_2e" transform="matrix(8.5,0,0,8.5,432.7,879.2)" />
<use xlink:href="#f1_j" transform="matrix(8.5,0,0,8.5,445.7,879.2)" />
<use xlink:href="#f1_1e" transform="matrix(8.5,0,0,8.5,450.3,879.2)" />
<use xlink:href="#f1_1x" transform="matrix(8.5,0,0,8.5,459.4,879.2)" />
<use xlink:href="#f1_1f" transform="matrix(8.5,0,0,8.5,466.8,879.2)" />
<use xlink:href="#f1_18" transform="matrix(8.5,0,0,8.5,476.8,879.2)" />
<use xlink:href="#f1_1e" transform="matrix(8.5,0,0,8.5,185.2,883.2)" />
<use xlink:href="#f1_1x" transform="matrix(8.5,0,0,8.5,194.3,883.2)" />
<use xlink:href="#f1_13" transform="matrix(8.5,0,0,8.5,201.7,883.2)" />
<use xlink:href="#f1_1e" transform="matrix(8.5,0,0,8.5,211,883.2)" />
<use xlink:href="#f1_1f" transform="matrix(8.5,0,0,8.5,308,883.2)" />
<use xlink:href="#f1_18" transform="matrix(8.5,0,0,8.5,318,883.2)" />
<use xlink:href="#f1_m" transform="matrix(8.5,0,0,8.5,436.4,885.4)" />
<use xlink:href="#f1_1g" transform="matrix(8.5,0,0,8.5,273.2,897.1)" />
<use xlink:href="#f1_1x" transform="matrix(8.5,0,0,8.5,282,897.1)" />
<use xlink:href="#f1_2e" transform="matrix(8.5,0,0,8.5,289.1,897.1)" />
<use xlink:href="#f1_2g" transform="matrix(8.5,0,0,8.5,293.3,897.1)" />
<use xlink:href="#f1_25" transform="matrix(8.5,0,0,8.5,297,897.1)" />
<use xlink:href="#f1_1x" transform="matrix(8.5,0,0,8.5,299.8,897.1)" />
<use xlink:href="#f1_28" transform="matrix(8.5,0,0,8.5,307.1,897.1)" />
<use xlink:href="#f1_24" transform="matrix(8.5,0,0,8.5,313.5,897.1)" />
<use xlink:href="#f1_2l" transform="matrix(8.5,0,0,8.5,320.8,897.1)" />
<use xlink:href="#f1_20" transform="matrix(8.5,0,0,8.5,327.1,897.1)" />
<use xlink:href="#f1_2e" transform="matrix(8.5,0,0,8.5,334.4,897.1)" />
<use xlink:href="#f1_2b" transform="matrix(8.5,0,0,8.5,338.6,897.1)" />
<use xlink:href="#f1_28" transform="matrix(8.5,0,0,8.5,345.7,897.1)" />
<use xlink:href="#f1_2l" transform="matrix(8.5,0,0,8.5,348.7,897.1)" />
<use xlink:href="#f1_2f" transform="matrix(8.5,0,0,8.5,354.9,897.1)" />
<use xlink:href="#f1_25" transform="matrix(8.5,0,0,8.5,361.3,897.1)" />
<use xlink:href="#f1_2f" transform="matrix(8.5,0,0,8.5,364.1,897.1)" />
<use xlink:href="#f1_13" transform="matrix(10.6,0,0,10.6,102.7,891.1)" />
<use xlink:href="#f1_18" transform="matrix(10.6,0,0,10.6,114.2,891.1)" />
<use xlink:href="#f1_13" transform="matrix(10.6,0,0,10.6,134.4,891.1)" />
<use xlink:href="#f1_18" transform="matrix(10.6,0,0,10.6,146.1,891.1)" />
<use xlink:href="#f1_28" transform="matrix(10.6,0,0,10.6,166.1,891.1)" />
<use xlink:href="#f1_11" transform="matrix(10.6,0,0,10.6,241.2,891.1)" />
<use xlink:href="#f1_12" transform="matrix(10.6,0,0,10.6,392,891.1)" />
<use xlink:href="#f1_13" transform="matrix(10.6,0,0,10.6,506.8,891.1)" />
<use xlink:href="#f1_n" transform="matrix(10.6,0,0,10.6,125.1,899.3)" />
<use xlink:href="#f1_m" transform="matrix(10.6,0,0,10.6,157.1,899.3)" />
<use xlink:href="#f2_1mh" transform="matrix(11.1,0,0,11.1,217.6,891.1)" />
<use xlink:href="#f2_1mh" transform="matrix(11.1,0,0,11.1,368.3,891.1)" />
<use xlink:href="#f2_1mh" transform="matrix(11.1,0,0,11.1,483.5,891.1)" />
<use xlink:href="#f3_m" transform="matrix(12,0,0,12,680.7,1050.1)" />
</g>
<g fill="#0080FF" fill-opacity="0.5" >
<use xlink:href="#f0_1c" transform="matrix(38.5,0,0,38.5,184.9,1046.8)" />
<use xlink:href="#f0_21" transform="matrix(38.5,0,0,38.5,217.6,1046.8)" />
<use xlink:href="#f0_1x" transform="matrix(38.5,0,0,38.5,250.4,1046.8)" />
<use xlink:href="#f0_2e" transform="matrix(38.5,0,0,38.5,283.1,1046.8)" />
<use xlink:href="#f0_2a" transform="matrix(38.5,0,0,38.5,302.7,1046.8)" />
<use xlink:href="#f0_17" transform="matrix(38.5,0,0,38.5,335.4,1046.8)" />
<use xlink:href="#f0_2h" transform="matrix(38.5,0,0,38.5,381.3,1046.8)" />
<use xlink:href="#f0_25" transform="matrix(38.5,0,0,38.5,414,1046.8)" />
<use xlink:href="#f0_20" transform="matrix(38.5,0,0,38.5,427.1,1046.8)" />
<use xlink:href="#f0_21" transform="matrix(38.5,0,0,38.5,459.8,1046.8)" />
<use xlink:href="#f0_i" transform="matrix(38.5,0,0,38.5,492.6,1046.8)" />
<use xlink:href="#f0_25" transform="matrix(38.5,0,0,38.5,508.9,1046.8)" />
<use xlink:href="#f0_2a" transform="matrix(38.5,0,0,38.5,522,1046.8)" />
</g>
<defs>
<path d="M593,101c0,0,182,0,279,112c0,0,98,113,98,318c0,0,0,196,-98,308c0,0,-98,112,-277,112c0,0,-181,0,-279,-110c0,0,-99,-111,-99,-310c0,0,0,-198,100,-314c0,0,99,-116,276,-116Zm0,-115c0,0,-162,0,-279,65c0,0,-118,66,-180,190c0,0,-62,124,-62,290c0,0,0,252,138,394c0,0,138,142,385,142c0,0,160,0,278,-64c0,0,118,-64,180,-185c0,0,62,-122,62,-287c0,0,0,-165,-63,-289c0,0,-63,-124,-181,-190c0,0,-118,-66,-278,-66Z" 
id="f0_1f"
transform="scale(0.001,-0.001)" />

<path d="M106,0V635c0,0,0,141,-5,173H228c0,0,1,-4,2,-21c0,0,1,-16,2,-37c0,0,1,-22,2,-81h2c0,0,47,84,108,119c0,0,60,34,151,34c0,0,132,0,194,-66c0,0,61,-66,61,-218V0H615V512c0,0,0,80,-15,124c0,0,-16,44,-50,63c0,0,-35,20,-101,20c0,0,-97,0,-153,-67c0,0,-56,-66,-56,-184V0Z" 
id="f0_2a"
transform="scale(0.001,-0.001)" />

<path d="M103,0V1107H237V0Z" 
id="f0_28"
transform="scale(0.001,-0.001)" />

<path d="M102,0V808H236V0Zm0,979v128H236V979Z" 
id="f0_25"
transform="scale(0.001,-0.001)" />

<path d="M643,478c0,0,-11,128,-65,187c0,0,-54,59,-154,59c0,0,-98,0,-155,-66c0,0,-57,-65,-62,-180ZM431,-14c0,0,-179,0,-272,106c0,0,-94,107,-94,317c0,0,0,200,94,307c0,0,93,106,267,106c0,0,356,0,356,-429V375H206c0,0,0,-138,57,-213c0,0,58,-75,168,-75c0,0,87,0,140,35c0,0,53,35,71,88L760,177c0,0,-72,-191,-329,-191Z" 
id="f0_21"
transform="scale(0.001,-0.001)" />

<path d="M17,0L304,415L31,808H179L380,493L580,808H730L457,417L747,0H598L380,331L162,0Z" 
id="f0_2k"
transform="scale(0.001,-0.001)" />

<path d="M339,87c0,0,74,0,132,34c0,0,57,33,90,91c0,0,34,59,34,121v66L448,396c0,0,-95,-2,-144,-19c0,0,-49,-18,-75,-55c0,0,-26,-38,-26,-98c0,0,0,-65,35,-101c0,0,36,-36,101,-36ZM309,-14c0,0,-122,0,-183,64c0,0,-61,64,-61,176c0,0,0,125,82,192c0,0,83,67,266,72l182,3v44c0,0,0,98,-42,141c0,0,-42,43,-132,43c0,0,-90,0,-131,-31c0,0,-41,-31,-49,-98L101,604c0,0,34,218,323,218c0,0,153,0,229,-70c0,0,77,-69,77,-202V202c0,0,0,-59,16,-90c0,0,16,-30,60,-30c0,0,19,0,44,5V4C850,4,799,-7,746,-7c0,0,-75,0,-109,38c0,0,-33,40,-38,124h-4C595,155,543,62,475,24c0,0,-68,-38,-166,-38Z" 
id="f0_1x"
transform="scale(0.001,-0.001)" />

<path d="M106,0V635c0,0,0,141,-5,173H228c0,0,1,-4,2,-21c0,0,1,-16,2,-37c0,0,1,-22,2,-81h2c0,0,44,86,100,120c0,0,56,33,136,33c0,0,92,0,145,-36c0,0,54,-37,75,-117h2c0,0,42,82,101,117c0,0,59,36,143,36c0,0,123,0,178,-66c0,0,56,-67,56,-218V0H1039V512c0,0,0,117,-32,162c0,0,-32,45,-116,45c0,0,-88,0,-136,-66c0,0,-49,-65,-49,-185V0H573V512c0,0,0,117,-32,162c0,0,-32,45,-116,45c0,0,-86,0,-136,-66c0,0,-50,-66,-50,-185V0Z" 
id="f0_29"
transform="scale(0.001,-0.001)" />

<path d="M453,84c0,0,100,0,146,74c0,0,46,73,46,247c0,0,0,169,-46,241c0,0,-45,73,-145,73c0,0,-80,0,-125,-34c0,0,-45,-34,-68,-105c0,0,-24,-71,-24,-186c0,0,0,-159,51,-234c0,0,51,-76,165,-76ZM103,-316V643c0,0,0,124,-5,165H228c0,0,1,-3,3,-22c0,0,1,-18,3,-56c0,0,2,-38,2,-52h3c0,0,36,75,94,110c0,0,59,34,156,34c0,0,149,0,223,-100c0,0,74,-100,74,-314c0,0,0,-422,-297,-422c0,0,-187,0,-251,140h-4c0,0,3,-6,3,-126V-316Z" 
id="f0_2c"
transform="scale(0.001,-0.001)" />

<path d="M420,84c0,0,121,0,173,78c0,0,52,77,52,243c0,0,0,167,-50,243c0,0,-50,76,-167,76c0,0,-118,0,-170,-78c0,0,-53,-77,-53,-241c0,0,0,-160,52,-241c0,0,52,-80,163,-80Zm1,-98c0,0,-176,0,-267,107c0,0,-90,108,-90,312c0,0,0,417,362,417c0,0,185,0,272,-102c0,0,88,-101,88,-315c0,0,0,-212,-94,-316C692,89,599,-14,421,-14Z" 
id="f0_2b"
transform="scale(0.001,-0.001)" />

<path d="M278,-11c0,0,-162,0,-162,182V710H23v98h99l39,181h90V808H400V710H251V200c0,0,0,-58,19,-82c0,0,19,-23,66,-23c0,0,27,0,77,10V6c0,0,-66,-17,-135,-17Z" 
id="f0_2g"
transform="scale(0.001,-0.001)" />

<path d="M426,-14c0,0,-160,0,-255,71c0,0,-95,72,-113,213l139,13c0,0,27,-187,229,-187c0,0,101,0,159,50c0,0,58,50,58,149c0,0,0,86,-66,134c0,0,-66,48,-191,48H310V594h73c0,0,111,0,172,48c0,0,60,48,60,133c0,0,0,84,-49,132c0,0,-50,49,-147,49c0,0,-89,0,-144,-45c0,0,-55,-46,-64,-129L76,793c0,0,15,129,107,201c0,0,92,73,237,73c0,0,158,0,246,-74c0,0,87,-73,87,-204c0,0,0,-101,-56,-164c0,0,-56,-63,-164,-85v-3c0,0,118,-13,184,-79c0,0,66,-67,66,-167c0,0,0,-146,-93,-226c0,0,-92,-79,-264,-79Z" 
id="f1_n"
transform="scale(0.001,-0.001)" />

<path d="M140,0V163H285V0Z" 
id="f1_i"
transform="scale(0.001,-0.001)" />

<path d="M502,114c0,0,116,0,203,51c0,0,88,51,135,146c0,0,47,96,47,225c0,0,0,196,-107,298c0,0,-107,103,-310,103H268V114ZM125,0V1051H473c0,0,267,0,412,-134c0,0,145,-134,145,-381c0,0,0,-162,-63,-284C967,252,903,130,787,65C787,65,671,0,518,0Z" 
id="f1_14"
transform="scale(0.001,-0.001)" />

<path d="M643,478c0,0,-11,128,-65,187c0,0,-54,59,-154,59c0,0,-98,0,-155,-66c0,0,-57,-65,-62,-180ZM431,-14c0,0,-179,0,-272,106c0,0,-94,107,-94,317c0,0,0,200,94,307c0,0,93,106,267,106c0,0,356,0,356,-429V375H206c0,0,0,-138,57,-213c0,0,58,-75,168,-75c0,0,87,0,140,35c0,0,53,35,71,88L760,177c0,0,-72,-191,-329,-191Z" 
id="f1_21"
transform="scale(0.001,-0.001)" />

<path d="M381,-14c0,0,-150,0,-232,49C149,35,67,85,43,190l118,23c0,0,17,-65,71,-96c0,0,54,-30,149,-30c0,0,102,0,150,31c0,0,47,32,47,95c0,0,0,47,-33,77c0,0,-33,30,-106,49l-96,26c0,0,-115,30,-164,58c0,0,-49,29,-77,70c0,0,-27,41,-27,101c0,0,0,110,78,168c0,0,79,57,230,57c0,0,133,0,212,-47c0,0,79,-47,100,-150L574,607c0,0,-12,53,-60,82c0,0,-49,29,-131,29c0,0,-91,0,-135,-28c0,0,-43,-27,-43,-83c0,0,0,-34,18,-57c0,0,18,-22,53,-38c0,0,35,-15,148,-43c0,0,106,-27,153,-50c0,0,47,-22,75,-50c0,0,27,-27,42,-64c0,0,15,-36,15,-82c0,0,0,-114,-86,-176c0,0,-87,-61,-242,-61Z" 
id="f1_2f"
transform="scale(0.001,-0.001)" />

<path d="M413,-14c0,0,-170,0,-259,106c0,0,-89,107,-89,313c0,0,0,203,89,310c0,0,90,107,257,107c0,0,124,0,206,-64c0,0,81,-64,102,-177L581,571c0,0,-10,67,-53,106c0,0,-42,40,-121,40c0,0,-106,0,-154,-71c0,0,-48,-71,-48,-239c0,0,0,-161,51,-238c0,0,51,-78,153,-78c0,0,71,0,120,39c0,0,48,39,59,119l136,-9C724,240,708,124,624,55c0,0,-83,-69,-211,-69Z" 
id="f1_1z"
transform="scale(0.001,-0.001)" />

<path d="M106,0V620c0,0,0,85,-5,188H228c0,0,6,-138,6,-165h3c0,0,32,103,74,141c0,0,42,38,118,38c0,0,27,0,54,-7V692c0,0,-26,7,-71,7c0,0,-84,0,-128,-72c0,0,-44,-72,-44,-206V0Z" 
id="f1_2e"
transform="scale(0.001,-0.001)" />

<path d="M102,0V808H236V0Zm0,979v128H236V979Z" 
id="f1_25"
transform="scale(0.001,-0.001)" />

<path d="M453,84c0,0,101,0,146,75c0,0,46,75,46,244c0,0,0,169,-45,243c0,0,-45,73,-146,73c0,0,-113,0,-165,-78c0,0,-52,-78,-52,-246c0,0,0,-159,51,-235c0,0,51,-76,165,-76Zm36,-98c0,0,-92,0,-153,33c0,0,-61,33,-99,107h-1c0,0,0,-24,-3,-71c0,0,-3,-48,-5,-55H98c0,0,5,40,5,166v941H237V792c0,0,0,-49,-3,-114h3c0,0,38,77,99,111c0,0,62,33,153,33c0,0,153,0,225,-103c0,0,72,-103,72,-311c0,0,0,-422,-297,-422Z" 
id="f1_1y"
transform="scale(0.001,-0.001)" />

<path d="M278,-11c0,0,-162,0,-162,182V710H23v98h99l39,181h90V808H400V710H251V200c0,0,0,-58,19,-82c0,0,19,-23,66,-23c0,0,27,0,77,10V6c0,0,-66,-17,-135,-17Z" 
id="f1_2g"
transform="scale(0.001,-0.001)" />

<path d="M615,0V512c0,0,0,85,-15,126c0,0,-16,42,-52,61c0,0,-36,20,-99,20c0,0,-95,0,-152,-66c0,0,-57,-66,-57,-177V0H106V1107H240V819c0,0,0,-45,-2,-94c0,0,-3,-48,-4,-56h2c0,0,44,79,105,116c0,0,60,37,154,37c0,0,131,0,193,-65c0,0,62,-65,62,-219V0Z" 
id="f1_24"
transform="scale(0.001,-0.001)" />

<path d="M125,0V1051H268V606H836v445H979V0H836V487H268V0Z" 
id="f1_18"
transform="scale(0.001,-0.001)" />

<path d="M106,0V635c0,0,0,141,-5,173H228c0,0,1,-4,2,-21c0,0,1,-16,2,-37c0,0,1,-22,2,-81h2c0,0,47,84,108,119c0,0,60,34,151,34c0,0,132,0,194,-66c0,0,61,-66,61,-218V0H615V512c0,0,0,80,-15,124c0,0,-16,44,-50,63c0,0,-35,20,-101,20c0,0,-97,0,-153,-67c0,0,-56,-66,-56,-184V0Z" 
id="f1_2a"
transform="scale(0.001,-0.001)" />

<path d="M398,93c0,0,63,0,112,37c0,0,49,38,76,107c0,0,27,70,27,166c0,0,0,99,-27,170c0,0,-27,71,-75,109c0,0,-49,38,-111,38c0,0,-103,0,-150,-75c0,0,-47,-75,-47,-242c0,0,0,-165,44,-238c0,0,44,-72,151,-72Zm11,-409c0,0,-132,0,-211,52c0,0,-78,52,-100,147l135,20c0,0,13,-56,59,-87c0,0,46,-30,121,-30c0,0,200,0,200,234V150h-1C612,150,574,72,507,33C507,33,441,-5,352,-5c0,0,-148,0,-218,98c0,0,-70,98,-70,309c0,0,0,214,75,316c0,0,75,101,228,101c0,0,86,0,149,-39c0,0,63,-39,97,-111h2c0,0,0,22,3,78c0,0,3,55,6,61H751c0,0,-4,-41,-4,-167V23c0,0,0,-339,-338,-339Z" 
id="f1_23"
transform="scale(0.001,-0.001)" />

<path d="M95,710c0,0,70,102,70,194H99v147H245V943c0,0,0,-79,-14,-132c0,0,-15,-53,-45,-101Z" 
id="f1_1k5"
transform="scale(0.001,-0.001)" />

<path d="M135,0V710H22v98H135v91c0,0,0,110,49,158c0,0,48,49,148,49c0,0,56,0,95,-9V994c0,0,-34,6,-60,6c0,0,-51,0,-75,-26c0,0,-23,-26,-23,-94V808H427V710H269V0Z" 
id="f1_22"
transform="scale(0.001,-0.001)" />

<path d="M420,84c0,0,121,0,173,78c0,0,52,77,52,243c0,0,0,167,-50,243c0,0,-50,76,-167,76c0,0,-118,0,-170,-78c0,0,-53,-77,-53,-241c0,0,0,-160,52,-241c0,0,52,-80,163,-80Zm1,-98c0,0,-176,0,-267,107c0,0,-90,108,-90,312c0,0,0,417,362,417c0,0,185,0,272,-102c0,0,88,-101,88,-315c0,0,0,-212,-94,-316C692,89,599,-14,421,-14Z" 
id="f1_2b"
transform="scale(0.001,-0.001)" />

<path d="M395,89c0,0,115,0,166,79c0,0,51,79,51,246c0,0,0,160,-51,235c0,0,-51,75,-164,75c0,0,-102,0,-147,-75c0,0,-45,-75,-45,-244c0,0,0,-170,45,-243c0,0,45,-73,145,-73ZM361,-14c0,0,-153,0,-225,102c0,0,-72,103,-72,312c0,0,0,422,297,422c0,0,92,0,153,-33c0,0,61,-34,98,-107h2l-2,90v335H747V166c0,0,0,-126,4,-166H623c0,0,-2,12,-5,55c0,0,-3,44,-3,75h-3c0,0,-37,-78,-98,-111c0,0,-62,-33,-153,-33Z" 
id="f1_20"
transform="scale(0.001,-0.001)" />

<path d="M339,87c0,0,74,0,132,34c0,0,57,33,90,91c0,0,34,59,34,121v66L448,396c0,0,-95,-2,-144,-19c0,0,-49,-18,-75,-55c0,0,-26,-38,-26,-98c0,0,0,-65,35,-101c0,0,36,-36,101,-36ZM309,-14c0,0,-122,0,-183,64c0,0,-61,64,-61,176c0,0,0,125,82,192c0,0,83,67,266,72l182,3v44c0,0,0,98,-42,141c0,0,-42,43,-132,43c0,0,-90,0,-131,-31c0,0,-41,-31,-49,-98L101,604c0,0,34,218,323,218c0,0,153,0,229,-70c0,0,77,-69,77,-202V202c0,0,0,-59,16,-90c0,0,16,-30,60,-30c0,0,19,0,44,5V4C850,4,799,-7,746,-7c0,0,-75,0,-109,38c0,0,-33,40,-38,124h-4C595,155,543,62,475,24c0,0,-68,-38,-166,-38Z" 
id="f1_1x"
transform="scale(0.001,-0.001)" />

<path d="M453,84c0,0,100,0,146,74c0,0,46,73,46,247c0,0,0,169,-46,241c0,0,-45,73,-145,73c0,0,-80,0,-125,-34c0,0,-45,-34,-68,-105c0,0,-24,-71,-24,-186c0,0,0,-159,51,-234c0,0,51,-76,165,-76ZM103,-316V643c0,0,0,124,-5,165H228c0,0,1,-3,3,-22c0,0,1,-18,3,-56c0,0,2,-38,2,-52h3c0,0,36,75,94,110c0,0,59,34,156,34c0,0,149,0,223,-100c0,0,74,-100,74,-314c0,0,0,-422,-297,-422c0,0,-187,0,-251,140h-4c0,0,3,-6,3,-126V-316Z" 
id="f1_2c"
transform="scale(0.001,-0.001)" />

<path d="M106,0V635c0,0,0,141,-5,173H228c0,0,1,-4,2,-21c0,0,1,-16,2,-37c0,0,1,-22,2,-81h2c0,0,44,86,100,120c0,0,56,33,136,33c0,0,92,0,145,-36c0,0,54,-37,75,-117h2c0,0,42,82,101,117c0,0,59,36,143,36c0,0,123,0,178,-66c0,0,56,-67,56,-218V0H1039V512c0,0,0,117,-32,162c0,0,-32,45,-116,45c0,0,-88,0,-136,-66c0,0,-49,-65,-49,-185V0H573V512c0,0,0,117,-32,162c0,0,-32,45,-116,45c0,0,-86,0,-136,-66c0,0,-50,-66,-50,-185V0Z" 
id="f1_29"
transform="scale(0.001,-0.001)" />

<path d="M142,-316c0,0,-55,0,-92,8v101c0,0,28,-4,63,-4c0,0,125,0,198,184L324,4L4,808H147L317,362c0,0,4,-11,9,-25c0,0,5,-15,34,-98c0,0,28,-83,30,-92l52,147L619,808H761L451,0c0,0,-50,-128,-94,-191c0,0,-43,-63,-96,-94c0,0,-52,-31,-119,-31Z" 
id="f1_2l"
transform="scale(0.001,-0.001)" />

<path d="M137,-195c0,0,70,102,70,195H142V163H287V38c0,0,0,-78,-14,-131c0,0,-14,-53,-44,-102Z" 
id="f1_g"
transform="scale(0.001,-0.001)" />

<path d="M708,418L573,765c0,0,-21,52,-42,117l-20,62l-7,-21c0,0,-18,-62,-55,-159L315,418ZM3,0L432,1051H594L1016,0H871L750,307H272L151,0Z" 
id="f1_11"
transform="scale(0.001,-0.001)" />

<path d="M103,0V1107H237V0Z" 
id="f1_28"
transform="scale(0.001,-0.001)" />

<path d="M224,0L-1,808H131L267,259c0,0,5,-18,32,-147l13,55L480,808H624L765,253L800,112l23,103L976,808h131L876,0H720L579,571L552,697c0,0,-7,-33,-21,-96C531,601,517,537,379,0Z" 
id="f1_2j"
transform="scale(0.001,-0.001)" />

<path d="M395,89c0,0,115,0,166,81c0,0,51,82,51,244c0,0,0,157,-51,233c0,0,-51,77,-164,77c0,0,-102,0,-147,-77c0,0,-45,-76,-45,-242c0,0,0,-170,45,-243c0,0,45,-73,145,-73ZM612,-316V11l3,122h-1c0,0,-40,-80,-99,-114c0,0,-59,-33,-154,-33c0,0,-154,0,-225,103c0,0,-72,104,-72,311c0,0,0,422,297,422c0,0,92,0,151,-32c0,0,60,-33,100,-108h2c0,0,0,22,3,77c0,0,3,55,6,58H752c0,0,-5,-44,-5,-220V-316Z" 
id="f1_2d"
transform="scale(0.001,-0.001)" />

<path d="M355,-14c0,0,-133,0,-194,65c0,0,-62,66,-62,219V808H234V296c0,0,0,-80,16,-124c0,0,16,-44,50,-64c0,0,34,-19,101,-19c0,0,97,0,153,66c0,0,55,67,55,185V808H744V172c0,0,0,-141,4,-172H621c0,0,0,4,-1,20c0,0,-1,17,-2,38c0,0,-1,21,-3,80h-2C613,138,567,55,506,20c0,0,-61,-34,-151,-34Z" 
id="f1_2h"
transform="scale(0.001,-0.001)" />

<path d="M298,0L5,808H148L326,282c0,0,10,-29,51,-176l27,87l29,88L616,808H759L457,0Z" 
id="f1_2i"
transform="scale(0.001,-0.001)" />

<path d="M530,344V900c0,0,-1,-5,-20,-40c0,0,-20,-35,-30,-49L211,414L171,359L159,344ZM530,0V239H35V343l481,708H657V344H805V239H657V0Z" 
id="f1_o"
transform="scale(0.001,-0.001)" />

<path d="M370,-316c0,0,-141,152,-208,323C162,7,95,179,95,394v3c0,0,0,215,67,387c0,0,68,171,208,323H500c0,0,-140,-155,-205,-330c0,0,-65,-175,-65,-382c0,0,0,-207,64,-381c0,0,65,-172,206,-330Z" 
id="f1_c"
transform="scale(0.001,-0.001)" />

<path d="M9,-316c0,0,140,157,205,329c0,0,65,174,65,382c0,0,0,208,-65,382c0,0,-66,174,-205,330H139c0,0,141,-152,208,-324c0,0,67,-172,67,-386v-3c0,0,0,-216,-67,-388c0,0,-68,-170,-208,-322Z" 
id="f1_d"
transform="scale(0.001,-0.001)" />

<path d="M590,-14c0,0,-159,0,-275,65c0,0,-116,66,-177,189c0,0,-60,123,-60,291c0,0,0,251,135,393c0,0,136,143,376,143c0,0,168,0,281,-66c0,0,112,-66,165,-195L900,762c0,0,-36,92,-117,141c0,0,-81,48,-192,48c0,0,-175,0,-272,-112c0,0,-97,-112,-97,-308c0,0,0,-193,101,-311c0,0,101,-117,274,-117c0,0,221,0,332,218l116,-58c0,0,-65,-136,-182,-207c0,0,-118,-70,-273,-70Z" 
id="f1_13"
transform="scale(0.001,-0.001)" />

<path d="M77,0V95c0,0,38,87,93,154c0,0,55,67,115,121c0,0,60,54,120,100c0,0,59,46,107,93c0,0,47,46,77,97c0,0,29,50,29,114c0,0,0,87,-50,135c0,0,-51,47,-141,47c0,0,-86,0,-142,-46c0,0,-55,-47,-65,-131L83,791c0,0,15,126,107,201c0,0,92,75,237,75c0,0,159,0,244,-75c0,0,85,-75,85,-213c0,0,0,-61,-28,-122c0,0,-28,-60,-83,-120c0,0,-55,-61,-211,-188c0,0,-86,-70,-136,-126c0,0,-51,-56,-73,-109H773V0Z" 
id="f1_m"
transform="scale(0.001,-0.001)" />

<path d="M413,-14c0,0,-147,0,-238,64c0,0,-90,64,-114,185l136,16c0,0,42,-155,219,-155c0,0,108,0,169,65c0,0,61,65,61,179c0,0,0,98,-62,159c0,0,-61,61,-165,61c0,0,-55,0,-102,-17c0,0,-47,-17,-94,-58H92l35,566H724V937H249L229,604c0,0,87,67,217,67c0,0,155,0,247,-91c0,0,93,-91,93,-237c0,0,0,-167,-99,-262c0,0,-99,-95,-274,-95Z" 
id="f1_p"
transform="scale(0.001,-0.001)" />

<path d="M125,0V1051H291L859,150c0,0,-9,146,-9,212v689H979V0H807L245,895l3,-72l4,-125V0Z" 
id="f1_1e"
transform="scale(0.001,-0.001)" />

<path d="M545,114c0,0,130,0,190,49c0,0,59,48,59,144c0,0,0,186,-261,186H268V114ZM507,604c0,0,114,0,171,43c0,0,56,43,56,132c0,0,0,85,-58,121c0,0,-58,37,-169,37H268V604ZM125,0V1051H507c0,0,370,0,370,-255c0,0,0,-93,-52,-157c0,0,-52,-63,-148,-85c0,0,126,-15,194,-84c0,0,67,-69,67,-174c0,0,0,-140,-102,-218C836,78,734,0,552,0Z" 
id="f1_12"
transform="scale(0.001,-0.001)" />

<path d="M68,346V465H441V346Z" 
id="f1_h"
transform="scale(0.001,-0.001)" />

<path d="M593,101c0,0,182,0,279,112c0,0,98,113,98,318c0,0,0,196,-98,308c0,0,-98,112,-277,112c0,0,-181,0,-279,-110c0,0,-99,-111,-99,-310c0,0,0,-198,100,-314c0,0,99,-116,276,-116Zm0,-115c0,0,-162,0,-279,65c0,0,-118,66,-180,190c0,0,-62,124,-62,290c0,0,0,252,138,394c0,0,138,142,385,142c0,0,160,0,278,-64c0,0,118,-64,180,-185c0,0,62,-122,62,-287c0,0,0,-165,-63,-289c0,0,-63,-124,-181,-190c0,0,-118,-66,-278,-66Z" 
id="f1_1f"
transform="scale(0.001,-0.001)" />

<path d="M141,0V1051H283V0Z" 
id="f1_19"
transform="scale(0.001,-0.001)" />

<path d="M140,0V154H285V0Zm0,653V808H285V653Z" 
id="f1_u"
transform="scale(0.001,-0.001)" />

<path d="M391,134V454H75V562H391V882H501V562H817V454H501V134Z" 
id="f1_f"
transform="scale(0.001,-0.001)" />

<path d="M125,0V1051H923V936H268V597H878V482H268V115H953V0Z" 
id="f1_15"
transform="scale(0.001,-0.001)" />

<path d="M17,0L304,415L31,808H179L380,493L580,808H730L457,417L747,0H598L380,331L162,0Z" 
id="f1_2k"
transform="scale(0.001,-0.001)" />

<path d="M0,336V439H849V336Z" 
id="f1_1jz"
transform="scale(0.001,-0.001)" />

<path d="M272,0c0,0,0,201,86,424c0,0,85,223,285,513H78v114H773V942C773,942,612,696,545,556c0,0,-66,-139,-99,-275C446,281,413,145,413,0Z" 
id="f1_r"
transform="scale(0.001,-0.001)" />

<path d="M125,0V1051H268V524l506,527H942L495,595L1002,0H825L405,507L268,403V0Z" 
id="f1_1b"
transform="scale(0.001,-0.001)" />

<path d="M961,74c0,0,46,97,89,147H312v65h738c0,0,-43,50,-89,146h54c0,0,94,-111,201,-165V240c0,0,-107,-55,-201,-166Z" 
id="f2_1mh"
transform="scale(0.001,-0.001)" />

<path d="M439,94c0,0,97,0,152,65c0,0,55,65,55,179c0,0,0,114,-56,176c0,0,-56,62,-156,62c0,0,-94,0,-152,-55c0,0,-57,-55,-57,-151c0,0,0,-121,60,-199c0,0,60,-77,154,-77Zm4,-108c0,0,-177,0,-271,131c0,0,-94,132,-94,384c0,0,0,273,97,420c0,0,98,146,279,146c0,0,238,0,299,-214L625,830c0,0,-39,128,-173,128c0,0,-115,0,-178,-107c0,0,-63,-107,-63,-310c0,0,37,68,103,103c0,0,66,36,152,36c0,0,146,0,231,-91c0,0,86,-91,86,-245c0,0,0,-166,-91,-262c0,0,-90,-96,-249,-96Z" 
id="f1_q"
transform="scale(0.001,-0.001)" />

<path d="M327,0V150H472V0Zm6,281c0,0,1,51,16,90c0,0,14,39,37,69c0,0,24,30,53,53c0,0,29,24,59,45c0,0,29,21,58,42c0,0,29,22,51,48c0,0,23,26,36,59c0,0,14,33,14,77c0,0,0,85,-58,134c0,0,-57,49,-162,49c0,0,-104,0,-165,-52c0,0,-62,-52,-72,-143L63,761c0,0,19,148,116,227c0,0,97,79,257,79c0,0,166,0,261,-79c0,0,96,-79,96,-218c0,0,0,-56,-16,-100c0,0,-17,-44,-47,-82c0,0,-31,-37,-100,-88L570,456c0,0,-54,-39,-80,-82c0,0,-26,-43,-27,-93Z" 
id="f1_z"
transform="scale(0.001,-0.001)" />

<path d="M62,0V102L513,704H87V808H672V706L220,104H688V0Z" 
id="f1_2m"
transform="scale(0.001,-0.001)" />

<path d="M116,0V114H384V923L147,754V881l248,170H519V114H775V0Z" 
id="f1_l"
transform="scale(0.001,-0.001)" />

<path d="M316,0L7,1051H155L344,383c0,0,33,-125,62,-258c0,0,18,82,41,179c0,0,24,97,207,747H791L974,397c0,0,41,-160,65,-272l7,26c0,0,20,86,33,140c0,0,12,54,209,760h149L1127,0H957L775,668c0,0,-18,62,-52,224c0,0,-20,-86,-33,-145C690,747,677,689,486,0Z" 
id="f1_1n"
transform="scale(0.001,-0.001)" />

<path d="M0,-14L307,1107H424L121,-14Z" 
id="f1_j"
transform="scale(0.001,-0.001)" />

<path d="M557,522c0,0,238,0,238,211c0,0,0,204,-244,204H268V522ZM125,0V1051H568c0,0,176,0,273,-83c0,0,97,-82,97,-233c0,0,0,-149,-97,-237c0,0,-97,-88,-264,-88H268V0Z" 
id="f1_1g"
transform="scale(0.001,-0.001)" />

<path d="M46,0c0,0,-2,48,16,93c0,0,27,74,88,146c0,0,61,71,176,165c0,0,178,146,241,232c0,0,63,85,63,161c0,0,0,80,-57,135c0,0,-58,55,-149,55c0,0,-98,0,-156,-59c0,0,-58,-58,-59,-160L71,782c0,0,15,154,107,235c0,0,93,81,249,81c0,0,157,0,249,-87c0,0,92,-88,92,-217c0,0,0,-65,-27,-129c0,0,-27,-63,-89,-133c0,0,-62,-70,-207,-193C445,339,324,238,290,202c0,0,-35,-36,-57,-73H770V0Z" 
id="f3_m"
transform="scale(0.001,-0.001)" />

<path d="M125,0V1051H268V115H799V0Z" 
id="f0_1c"
transform="scale(0.001,-0.001)" />

<path d="M106,0V620c0,0,0,85,-5,188H228c0,0,6,-138,6,-165h3c0,0,32,103,74,141c0,0,42,38,118,38c0,0,27,0,54,-7V692c0,0,-26,7,-71,7c0,0,-84,0,-128,-72c0,0,-44,-72,-44,-206V0Z" 
id="f0_2e"
transform="scale(0.001,-0.001)" />

<path d="M606,-14c0,0,-164,0,-284,65c0,0,-119,66,-182,189c0,0,-63,123,-63,291c0,0,0,255,137,396c0,0,137,140,386,140c0,0,174,0,283,-59c0,0,109,-59,168,-189L915,779c0,0,-44,90,-123,131c0,0,-79,41,-196,41c0,0,-182,0,-278,-110c0,0,-96,-110,-96,-310c0,0,0,-200,102,-315c0,0,102,-115,282,-115c0,0,103,0,193,31c0,0,89,31,144,85V407H629V526h445V164c0,0,-83,-85,-205,-132c0,0,-121,-46,-263,-46Z" 
id="f0_17"
transform="scale(0.001,-0.001)" />

<path d="M355,-14c0,0,-133,0,-194,65c0,0,-62,66,-62,219V808H234V296c0,0,0,-80,16,-124c0,0,16,-44,50,-64c0,0,34,-19,101,-19c0,0,97,0,153,66c0,0,55,67,55,185V808H744V172c0,0,0,-141,4,-172H621c0,0,0,4,-1,20c0,0,-1,17,-2,38c0,0,-1,21,-3,80h-2C613,138,567,55,506,20c0,0,-61,-34,-151,-34Z" 
id="f0_2h"
transform="scale(0.001,-0.001)" />

<path d="M395,89c0,0,115,0,166,79c0,0,51,79,51,246c0,0,0,160,-51,235c0,0,-51,75,-164,75c0,0,-102,0,-147,-75c0,0,-45,-75,-45,-244c0,0,0,-170,45,-243c0,0,45,-73,145,-73ZM361,-14c0,0,-153,0,-225,102c0,0,-72,103,-72,312c0,0,0,422,297,422c0,0,92,0,153,-33c0,0,61,-34,98,-107h2l-2,90v335H747V166c0,0,0,-126,4,-166H623c0,0,-2,12,-5,55c0,0,-3,44,-3,75h-3c0,0,-37,-78,-98,-111c0,0,-62,-33,-153,-33Z" 
id="f0_20"
transform="scale(0.001,-0.001)" />

<path d="M140,0V163H285V0Z" 
id="f0_i"
transform="scale(0.001,-0.001)" />


</defs>
</svg>