<?xml version="1.0" encoding="UTF-8" standalone="no"?>
<!DOCTYPE svg PUBLIC "-//W3C//DTD SVG 1.1//EN"
"http://www.w3.org/Graphics/SVG/1.1/DTD/svg11.dtd">
<svg viewBox="0 0 739 1084" version="1.1" xmlns="http://www.w3.org/2000/svg" xmlns:xlink="http://www.w3.org/1999/xlink">
<defs>
</defs>
<g fill="#D4D4D4" fill-opacity="0.36" >
<use xlink:href="#f0_1f" transform="matrix(50.9,-50.9,50.9,50.9,127.9,814.1)" />
<use xlink:href="#f0_2a" transform="matrix(50.9,-50.9,50.9,50.9,188.4,753.6)" />
<use xlink:href="#f0_28" transform="matrix(50.9,-50.9,50.9,50.9,231.7,710.3)" />
<use xlink:href="#f0_25" transform="matrix(50.9,-50.9,50.9,50.9,248.9,693.1)" />
<use xlink:href="#f0_2a" transform="matrix(50.9,-50.9,50.9,50.9,266.2,675.8)" />
<use xlink:href="#f0_21" transform="matrix(50.9,-50.9,50.9,50.9,309.4,632.5)" />
<use xlink:href="#f0_2k" transform="matrix(50.9,-50.9,50.9,50.9,352.7,589.3)" />
<use xlink:href="#f0_1x" transform="matrix(50.9,-50.9,50.9,50.9,391.6,550.4)" />
<use xlink:href="#f0_29" transform="matrix(50.9,-50.9,50.9,50.9,434.8,507.2)" />
<use xlink:href="#f0_2c" transform="matrix(50.9,-50.9,50.9,50.9,499.6,442.4)" />
<use xlink:href="#f0_2b" transform="matrix(50.9,-50.9,50.9,50.9,542.9,399.1)" />
<use xlink:href="#f0_25" transform="matrix(50.9,-50.9,50.9,50.9,586.1,355.9)" />
<use xlink:href="#f0_2a" transform="matrix(50.9,-50.9,50.9,50.9,603.4,338.6)" />
<use xlink:href="#f0_2g" transform="matrix(50.9,-50.9,50.9,50.9,646.6,295.4)" />
</g>
<g fill="#000000" >
<use xlink:href="#f1_s" transform="matrix(10.4,0,0,10.4,56.9,102.2)" />
<use xlink:href="#f1_i" transform="matrix(10.4,0,0,10.4,66.2,102.2)" />
<use xlink:href="#f1_19" transform="matrix(10.4,0,0,10.4,100.1,102.2)" />
<use xlink:href="#f1_20" transform="matrix(10.4,0,0,10.4,104.5,102.2)" />
<use xlink:href="#f1_21" transform="matrix(10.4,0,0,10.4,113.3,102.2)" />
<use xlink:href="#f1_2a" transform="matrix(10.4,0,0,10.4,122.1,102.2)" />
<use xlink:href="#f1_2g" transform="matrix(10.4,0,0,10.4,130.9,102.2)" />
<use xlink:href="#f1_25" transform="matrix(10.4,0,0,10.4,135.3,102.2)" />
<use xlink:href="#f1_22" transform="matrix(10.4,0,0,10.4,138.8,102.2)" />
<use xlink:href="#f1_2l" transform="matrix(10.4,0,0,10.4,143.4,102.2)" />
<use xlink:href="#f1_2g" transform="matrix(10.4,0,0,10.4,159,102.2)" />
<use xlink:href="#f1_24" transform="matrix(10.4,0,0,10.4,163.4,102.2)" />
<use xlink:href="#f1_21" transform="matrix(10.4,0,0,10.4,172.2,102.2)" />
<use xlink:href="#f1_29" transform="matrix(10.4,0,0,10.4,189,102.2)" />
<use xlink:href="#f1_25" transform="matrix(10.4,0,0,10.4,202.6,102.2)" />
<use xlink:href="#f1_2f" transform="matrix(10.4,0,0,10.4,206.1,102.2)" />
<use xlink:href="#f1_2f" transform="matrix(10.4,0,0,10.4,214.1,102.2)" />
<use xlink:href="#f1_25" transform="matrix(10.4,0,0,10.4,222.2,102.2)" />
<use xlink:href="#f1_2a" transform="matrix(10.4,0,0,10.4,225.7,102.2)" />
<use xlink:href="#f1_23" transform="matrix(10.4,0,0,10.4,234.5,102.2)" />
<use xlink:href="#f1_2e" transform="matrix(10.4,0,0,10.4,251.4,102.2)" />
<use xlink:href="#f1_21" transform="matrix(10.4,0,0,10.4,256.7,102.2)" />
<use xlink:href="#f1_1x" transform="matrix(10.4,0,0,10.4,265.5,102.2)" />
<use xlink:href="#f1_23" transform="matrix(10.4,0,0,10.4,274.3,102.2)" />
<use xlink:href="#f1_21" transform="matrix(10.4,0,0,10.4,283.1,102.2)" />
<use xlink:href="#f1_2a" transform="matrix(10.4,0,0,10.4,291.9,102.2)" />
<use xlink:href="#f1_2g" transform="matrix(10.4,0,0,10.4,300.7,102.2)" />
<use xlink:href="#f1_j" transform="matrix(10.4,0,0,10.4,305.1,102.2)" />
<use xlink:href="#f1_2c" transform="matrix(10.4,0,0,10.4,309.5,102.2)" />
<use xlink:href="#f1_2e" transform="matrix(10.4,0,0,10.4,318.3,102.2)" />
<use xlink:href="#f1_2b" transform="matrix(10.4,0,0,10.4,323.6,102.2)" />
<use xlink:href="#f1_20" transform="matrix(10.4,0,0,10.4,332.4,102.2)" />
<use xlink:href="#f1_2h" transform="matrix(10.4,0,0,10.4,341.2,102.2)" />
<use xlink:href="#f1_1z" transform="matrix(10.4,0,0,10.4,350,102.2)" />
<use xlink:href="#f1_2g" transform="matrix(10.4,0,0,10.4,358,102.2)" />
<use xlink:href="#f1_25" transform="matrix(10.4,0,0,10.4,370.5,102.2)" />
<use xlink:href="#f1_2a" transform="matrix(10.4,0,0,10.4,374,102.2)" />
<use xlink:href="#f1_2g" transform="matrix(10.4,0,0,10.4,391,102.2)" />
<use xlink:href="#f1_24" transform="matrix(10.4,0,0,10.4,395.4,102.2)" />
<use xlink:href="#f1_21" transform="matrix(10.4,0,0,10.4,404.2,102.2)" />
<use xlink:href="#f1_22" transform="matrix(10.4,0,0,10.4,421.1,102.2)" />
<use xlink:href="#f1_2b" transform="matrix(10.4,0,0,10.4,425.7,102.2)" />
<use xlink:href="#f1_28" transform="matrix(10.4,0,0,10.4,434.5,102.2)" />
<use xlink:href="#f1_28" transform="matrix(10.4,0,0,10.4,438,102.2)" />
<use xlink:href="#f1_2b" transform="matrix(10.4,0,0,10.4,441.5,102.2)" />
<use xlink:href="#f1_2j" transform="matrix(10.4,0,0,10.4,450.3,102.2)" />
<use xlink:href="#f1_25" transform="matrix(10.4,0,0,10.4,461.4,102.2)" />
<use xlink:href="#f1_2a" transform="matrix(10.4,0,0,10.4,464.9,102.2)" />
<use xlink:href="#f1_23" transform="matrix(10.4,0,0,10.4,473.7,102.2)" />
<use xlink:href="#f1_2e" transform="matrix(10.4,0,0,10.4,490.6,102.2)" />
<use xlink:href="#f1_21" transform="matrix(10.4,0,0,10.4,495.9,102.2)" />
<use xlink:href="#f1_1x" transform="matrix(10.4,0,0,10.4,504.7,102.2)" />
<use xlink:href="#f1_1z" transform="matrix(10.4,0,0,10.4,513.5,102.2)" />
<use xlink:href="#f1_2g" transform="matrix(10.4,0,0,10.4,521.6,102.2)" />
<use xlink:href="#f1_25" transform="matrix(10.4,0,0,10.4,526,102.2)" />
<use xlink:href="#f1_2b" transform="matrix(10.4,0,0,10.4,529.4,102.2)" />
<use xlink:href="#f1_2a" transform="matrix(10.4,0,0,10.4,538.2,102.2)" />
<use xlink:href="#f1_2f" transform="matrix(10.4,0,0,10.4,547,102.2)" />
<use xlink:href="#f1_u" transform="matrix(10.4,0,0,10.4,563.2,102.2)" />
</g>
<image preserveAspectRatio="none" x="100" y="165" width="501" height="15" xlink:href="img/1.png" />
<image preserveAspectRatio="none" x="100" y="180" width="501" height="15" xlink:href="img/2.png" />
<image preserveAspectRatio="none" x="100" y="195" width="501" height="15" xlink:href="img/3.png" />
<image preserveAspectRatio="none" x="100" y="210" width="501" height="15" xlink:href="img/4.png" />
<image preserveAspectRatio="none" x="100" y="225" width="501" height="15" xlink:href="img/5.png" />
<image preserveAspectRatio="none" x="100" y="240" width="501" height="15" xlink:href="img/6.png" />
<image preserveAspectRatio="none" x="100" y="255" width="501" height="15" xlink:href="img/7.png" />
<image preserveAspectRatio="none" x="100" y="270" width="501" height="15" xlink:href="img/8.png" />
<image preserveAspectRatio="none" x="100" y="285" width="501" height="15" xlink:href="img/9.png" />
<image preserveAspectRatio="none" x="100" y="300" width="501" height="15" xlink:href="img/10.png" />
<image preserveAspectRatio="none" x="100" y="315" width="501" height="15" xlink:href="img/11.png" />
<image preserveAspectRatio="none" x="100" y="330" width="501" height="15" xlink:href="img/12.png" />
<image preserveAspectRatio="none" x="100" y="345" width="501" height="15" xlink:href="img/13.png" />
<image preserveAspectRatio="none" x="100" y="360" width="501" height="15" xlink:href="img/14.png" />
<image preserveAspectRatio="none" x="100" y="375" width="501" height="15" xlink:href="img/15.png" />
<image preserveAspectRatio="none" x="100" y="390" width="501" height="15" xlink:href="img/16.png" />
<image preserveAspectRatio="none" x="100" y="405" width="501" height="15" xlink:href="img/17.png" />
<image preserveAspectRatio="none" x="100" y="420" width="501" height="16" xlink:href="img/18.png" />
<image preserveAspectRatio="none" x="100" y="435" width="501" height="16" xlink:href="img/19.png" />
<image preserveAspectRatio="none" x="100" y="450" width="501" height="16" xlink:href="img/20.png" />
<image preserveAspectRatio="none" x="100" y="465" width="501" height="16" xlink:href="img/21.png" />
<image preserveAspectRatio="none" x="100" y="480" width="501" height="16" xlink:href="img/22.png" />
<image preserveAspectRatio="none" x="100" y="495" width="501" height="16" xlink:href="img/23.png" />
<image preserveAspectRatio="none" x="100" y="510" width="501" height="16" xlink:href="img/24.png" />
<image preserveAspectRatio="none" x="100" y="525" width="501" height="16" xlink:href="img/25.png" />
<image preserveAspectRatio="none" x="100" y="540" width="501" height="16" xlink:href="img/26.png" />
<image preserveAspectRatio="none" x="100" y="555" width="501" height="16" xlink:href="img/27.png" />
<image preserveAspectRatio="none" x="100" y="570" width="501" height="16" xlink:href="img/28.png" />
<image preserveAspectRatio="none" x="100" y="585" width="501" height="16" xlink:href="img/29.png" />
<image preserveAspectRatio="none" x="100" y="601" width="501" height="15" xlink:href="img/30.png" />
<image preserveAspectRatio="none" x="100" y="616" width="501" height="15" xlink:href="img/31.png" />
<image preserveAspectRatio="none" x="100" y="631" width="501" height="7" xlink:href="img/32.png" />
<g fill="#000000" >
<use xlink:href="#f1_t" transform="matrix(10.4,0,0,10.4,56.9,683.7)" />
<use xlink:href="#f1_i" transform="matrix(10.4,0,0,10.4,66.2,683.7)" />
<use xlink:href="#f1_17" transform="matrix(10.4,0,0,10.4,100.1,683.7)" />
<use xlink:href="#f1_25" transform="matrix(10.4,0,0,10.4,112.9,683.7)" />
<use xlink:href="#f1_2i" transform="matrix(10.4,0,0,10.4,116.6,683.7)" />
<use xlink:href="#f1_21" transform="matrix(10.4,0,0,10.4,124.9,683.7)" />
<use xlink:href="#f1_2b" transform="matrix(10.4,0,0,10.4,143.2,683.7)" />
<use xlink:href="#f1_2a" transform="matrix(10.4,0,0,10.4,152.2,683.7)" />
<use xlink:href="#f1_21" transform="matrix(10.4,0,0,10.4,161.3,683.7)" />
<use xlink:href="#f1_1z" transform="matrix(10.4,0,0,10.4,179.7,683.7)" />
<use xlink:href="#f1_24" transform="matrix(10.4,0,0,10.4,187.9,683.7)" />
<use xlink:href="#f1_21" transform="matrix(10.4,0,0,10.4,197.1,683.7)" />
<use xlink:href="#f1_29" transform="matrix(10.4,0,0,10.4,206.2,683.7)" />
<use xlink:href="#f1_25" transform="matrix(10.4,0,0,10.4,220.2,683.7)" />
<use xlink:href="#f1_1z" transform="matrix(10.4,0,0,10.4,223.8,683.7)" />
<use xlink:href="#f1_1x" transform="matrix(10.4,0,0,10.4,232.3,683.7)" />
<use xlink:href="#f1_28" transform="matrix(10.4,0,0,10.4,241.4,683.7)" />
<use xlink:href="#f1_2g" transform="matrix(10.4,0,0,10.4,254.3,683.7)" />
<use xlink:href="#f1_21" transform="matrix(10.4,0,0,10.4,259,683.7)" />
<use xlink:href="#f1_2f" transform="matrix(10.4,0,0,10.4,268.2,683.7)" />
<use xlink:href="#f1_2g" transform="matrix(10.4,0,0,10.4,276.6,683.7)" />
<use xlink:href="#f1_2g" transform="matrix(10.4,0,0,10.4,290.4,683.7)" />
<use xlink:href="#f1_2b" transform="matrix(10.4,0,0,10.4,295.1,683.7)" />
<use xlink:href="#f1_20" transform="matrix(10.4,0,0,10.4,313.3,683.7)" />
<use xlink:href="#f1_25" transform="matrix(10.4,0,0,10.4,322.5,683.7)" />
<use xlink:href="#f1_2f" transform="matrix(10.4,0,0,10.4,326.3,683.7)" />
<use xlink:href="#f1_2g" transform="matrix(10.4,0,0,10.4,334.7,683.7)" />
<use xlink:href="#f1_25" transform="matrix(10.4,0,0,10.4,339.3,683.7)" />
<use xlink:href="#f1_2a" transform="matrix(10.4,0,0,10.4,343.2,683.7)" />
<use xlink:href="#f1_23" transform="matrix(10.4,0,0,10.4,352.3,683.7)" />
<use xlink:href="#f1_2h" transform="matrix(10.4,0,0,10.4,361.5,683.7)" />
<use xlink:href="#f1_25" transform="matrix(10.4,0,0,10.4,370.5,683.7)" />
<use xlink:href="#f1_2f" transform="matrix(10.4,0,0,10.4,374.3,683.7)" />
<use xlink:href="#f1_24" transform="matrix(10.4,0,0,10.4,382.8,683.7)" />
<use xlink:href="#f1_1y" transform="matrix(10.4,0,0,10.4,400.9,683.7)" />
<use xlink:href="#f1_21" transform="matrix(10.4,0,0,10.4,410.1,683.7)" />
<use xlink:href="#f1_2g" transform="matrix(10.4,0,0,10.4,419.2,683.7)" />
<use xlink:href="#f1_2j" transform="matrix(10.4,0,0,10.4,424,683.7)" />
<use xlink:href="#f1_21" transform="matrix(10.4,0,0,10.4,435.4,683.7)" />
<use xlink:href="#f1_21" transform="matrix(10.4,0,0,10.4,444.5,683.7)" />
<use xlink:href="#f1_2a" transform="matrix(10.4,0,0,10.4,453.7,683.7)" />
<use xlink:href="#f1_2g" transform="matrix(10.4,0,0,10.4,471.8,683.7)" />
<use xlink:href="#f1_24" transform="matrix(10.4,0,0,10.4,476.6,683.7)" />
<use xlink:href="#f1_21" transform="matrix(10.4,0,0,10.4,485.8,683.7)" />
<use xlink:href="#f1_22" transform="matrix(10.4,0,0,10.4,503.9,683.7)" />
<use xlink:href="#f1_2b" transform="matrix(10.4,0,0,10.4,508.9,683.7)" />
<use xlink:href="#f1_28" transform="matrix(10.4,0,0,10.4,518,683.7)" />
<use xlink:href="#f1_28" transform="matrix(10.4,0,0,10.4,521.9,683.7)" />
<use xlink:href="#f1_2b" transform="matrix(10.4,0,0,10.4,525.5,683.7)" />
<use xlink:href="#f1_2j" transform="matrix(10.4,0,0,10.4,534.7,683.7)" />
<use xlink:href="#f1_25" transform="matrix(10.4,0,0,10.4,546.3,683.7)" />
<use xlink:href="#f1_2a" transform="matrix(10.4,0,0,10.4,550.1,683.7)" />
<use xlink:href="#f1_23" transform="matrix(10.4,0,0,10.4,559.1,683.7)" />
<use xlink:href="#f1_2c" transform="matrix(10.4,0,0,10.4,577.4,683.7)" />
<use xlink:href="#f1_1x" transform="matrix(10.4,0,0,10.4,586.6,683.7)" />
<use xlink:href="#f1_25" transform="matrix(10.4,0,0,10.4,595.6,683.7)" />
<use xlink:href="#f1_2e" transform="matrix(10.4,0,0,10.4,599.4,683.7)" />
<use xlink:href="#f1_2f" transform="matrix(10.4,0,0,10.4,605.1,683.7)" />
<use xlink:href="#f1_2b" transform="matrix(10.4,0,0,10.4,622.5,683.7)" />
<use xlink:href="#f1_22" transform="matrix(10.4,0,0,10.4,631.7,683.7)" />
<use xlink:href="#f1_1z" transform="matrix(10.4,0,0,10.4,100.1,704.6)" />
<use xlink:href="#f1_2b" transform="matrix(10.4,0,0,10.4,108.2,704.6)" />
<use xlink:href="#f1_29" transform="matrix(10.4,0,0,10.4,117,704.6)" />
<use xlink:href="#f1_2c" transform="matrix(10.4,0,0,10.4,130.5,704.6)" />
<use xlink:href="#f1_2b" transform="matrix(10.4,0,0,10.4,139.3,704.6)" />
<use xlink:href="#f1_2h" transform="matrix(10.4,0,0,10.4,148.1,704.6)" />
<use xlink:href="#f1_2a" transform="matrix(10.4,0,0,10.4,156.9,704.6)" />
<use xlink:href="#f1_20" transform="matrix(10.4,0,0,10.4,165.7,704.6)" />
<use xlink:href="#f1_2f" transform="matrix(10.4,0,0,10.4,174.5,704.6)" />
<use xlink:href="#f1_u" transform="matrix(10.4,0,0,10.4,190.9,704.6)" />
<use xlink:href="#f1_c" transform="matrix(10.4,0,0,10.4,100.1,734.7)" />
<use xlink:href="#f1_25" transform="matrix(10.4,0,0,10.4,105.8,734.7)" />
<use xlink:href="#f1_d" transform="matrix(10.4,0,0,10.4,109.6,734.7)" />
<use xlink:href="#f1_29" transform="matrix(10.4,0,0,10.4,143.4,734.7)" />
<use xlink:href="#f1_21" transform="matrix(10.4,0,0,10.4,156.9,734.7)" />
<use xlink:href="#f1_2g" transform="matrix(10.4,0,0,10.4,165.7,734.7)" />
<use xlink:href="#f1_24" transform="matrix(10.4,0,0,10.4,170.1,734.7)" />
<use xlink:href="#f1_2l" transform="matrix(10.4,0,0,10.4,178.9,734.7)" />
<use xlink:href="#f1_28" transform="matrix(10.4,0,0,10.4,186.5,734.7)" />
<use xlink:href="#f1_1x" transform="matrix(10.4,0,0,10.4,189.9,734.7)" />
<use xlink:href="#f1_29" transform="matrix(10.4,0,0,10.4,198.7,734.7)" />
<use xlink:href="#f1_25" transform="matrix(10.4,0,0,10.4,212.3,734.7)" />
<use xlink:href="#f1_2a" transform="matrix(10.4,0,0,10.4,215.8,734.7)" />
<use xlink:href="#f1_21" transform="matrix(10.4,0,0,10.4,224.6,734.7)" />
<use xlink:href="#f1_1x" transform="matrix(10.4,0,0,10.4,241.5,734.7)" />
<use xlink:href="#f1_2a" transform="matrix(10.4,0,0,10.4,250.3,734.7)" />
<use xlink:href="#f1_20" transform="matrix(10.4,0,0,10.4,259.1,734.7)" />
<use xlink:href="#f1_20" transform="matrix(10.4,0,0,10.4,275.9,734.7)" />
<use xlink:href="#f1_25" transform="matrix(10.4,0,0,10.4,284.7,734.7)" />
<use xlink:href="#f1_29" transform="matrix(10.4,0,0,10.4,288.2,734.7)" />
<use xlink:href="#f1_21" transform="matrix(10.4,0,0,10.4,301.8,734.7)" />
<use xlink:href="#f1_2g" transform="matrix(10.4,0,0,10.4,310.6,734.7)" />
<use xlink:href="#f1_24" transform="matrix(10.4,0,0,10.4,315,734.7)" />
<use xlink:href="#f1_2l" transform="matrix(10.4,0,0,10.4,323.8,734.7)" />
<use xlink:href="#f1_28" transform="matrix(10.4,0,0,10.4,331.3,734.7)" />
<use xlink:href="#f1_1x" transform="matrix(10.4,0,0,10.4,334.8,734.7)" />
<use xlink:href="#f1_29" transform="matrix(10.4,0,0,10.4,343.6,734.7)" />
<use xlink:href="#f1_25" transform="matrix(10.4,0,0,10.4,357.1,734.7)" />
<use xlink:href="#f1_2a" transform="matrix(10.4,0,0,10.4,360.6,734.7)" />
<use xlink:href="#f1_21" transform="matrix(10.4,0,0,10.4,369.4,734.7)" />
<use xlink:href="#f1_c" transform="matrix(10.4,0,0,10.4,100.1,764.6)" />
<use xlink:href="#f1_25" transform="matrix(10.4,0,0,10.4,105.6,764.6)" />
<use xlink:href="#f1_25" transform="matrix(10.4,0,0,10.4,109.5,764.6)" />
<use xlink:href="#f1_d" transform="matrix(10.4,0,0,10.4,113.1,764.6)" />
<use xlink:href="#f1_2f" transform="matrix(10.4,0,0,10.4,143.4,764.6)" />
<use xlink:href="#f1_21" transform="matrix(10.4,0,0,10.4,151.4,764.6)" />
<use xlink:href="#f1_1z" transform="matrix(10.4,0,0,10.4,160.2,764.6)" />
<use xlink:href="#f1_2b" transform="matrix(10.4,0,0,10.4,168.3,764.6)" />
<use xlink:href="#f1_2a" transform="matrix(10.4,0,0,10.4,177.1,764.6)" />
<use xlink:href="#f1_20" transform="matrix(10.4,0,0,10.4,185.9,764.6)" />
<use xlink:href="#f1_1x" transform="matrix(10.4,0,0,10.4,194.7,764.6)" />
<use xlink:href="#f1_2e" transform="matrix(10.4,0,0,10.4,203.5,764.6)" />
<use xlink:href="#f1_2l" transform="matrix(10.4,0,0,10.4,209,764.6)" />
<use xlink:href="#f1_1x" transform="matrix(10.4,0,0,10.4,225.3,764.6)" />
<use xlink:href="#f1_2a" transform="matrix(10.4,0,0,10.4,234.1,764.6)" />
<use xlink:href="#f1_20" transform="matrix(10.4,0,0,10.4,242.9,764.6)" />
<use xlink:href="#f1_2g" transform="matrix(10.4,0,0,10.4,260.5,764.6)" />
<use xlink:href="#f1_21" transform="matrix(10.4,0,0,10.4,264.9,764.6)" />
<use xlink:href="#f1_2e" transform="matrix(10.4,0,0,10.4,273.7,764.6)" />
<use xlink:href="#f1_2g" transform="matrix(10.4,0,0,10.4,279,764.6)" />
<use xlink:href="#f1_25" transform="matrix(10.4,0,0,10.4,283.4,764.6)" />
<use xlink:href="#f1_1x" transform="matrix(10.4,0,0,10.4,286.9,764.6)" />
<use xlink:href="#f1_2e" transform="matrix(10.4,0,0,10.4,295.7,764.6)" />
<use xlink:href="#f1_2l" transform="matrix(10.4,0,0,10.4,301,764.6)" />
<use xlink:href="#f1_1x" transform="matrix(10.4,0,0,10.4,317.5,764.6)" />
<use xlink:href="#f1_29" transform="matrix(10.4,0,0,10.4,326.3,764.6)" />
<use xlink:href="#f1_25" transform="matrix(10.4,0,0,10.4,339.9,764.6)" />
<use xlink:href="#f1_2a" transform="matrix(10.4,0,0,10.4,343.4,764.6)" />
<use xlink:href="#f1_21" transform="matrix(10.4,0,0,10.4,352.2,764.6)" />
<use xlink:href="#f1_2f" transform="matrix(10.4,0,0,10.4,361,764.6)" />
<use xlink:href="#f1_c" transform="matrix(10.4,0,0,10.4,100.1,794.6)" />
<use xlink:href="#f1_25" transform="matrix(10.4,0,0,10.4,105.6,794.6)" />
<use xlink:href="#f1_25" transform="matrix(10.4,0,0,10.4,109.3,794.6)" />
<use xlink:href="#f1_25" transform="matrix(10.4,0,0,10.4,112.9,794.6)" />
<use xlink:href="#f1_d" transform="matrix(10.4,0,0,10.4,116.6,794.6)" />
<use xlink:href="#f1_21" transform="matrix(10.4,0,0,10.4,143.4,794.6)" />
<use xlink:href="#f1_2g" transform="matrix(10.4,0,0,10.4,152.2,794.6)" />
<use xlink:href="#f1_24" transform="matrix(10.4,0,0,10.4,156.6,794.6)" />
<use xlink:href="#f1_2l" transform="matrix(10.4,0,0,10.4,165.4,794.6)" />
<use xlink:href="#f1_28" transform="matrix(10.4,0,0,10.4,172.9,794.6)" />
<use xlink:href="#f1_1x" transform="matrix(10.4,0,0,10.4,176.4,794.6)" />
<use xlink:href="#f1_29" transform="matrix(10.4,0,0,10.4,185.2,794.6)" />
<use xlink:href="#f1_25" transform="matrix(10.4,0,0,10.4,198.7,794.6)" />
<use xlink:href="#f1_2a" transform="matrix(10.4,0,0,10.4,202.2,794.6)" />
<use xlink:href="#f1_21" transform="matrix(10.4,0,0,10.4,211,794.6)" />
<use xlink:href="#f1_1x" transform="matrix(10.4,0,0,10.4,228.6,794.6)" />
<use xlink:href="#f1_2a" transform="matrix(10.4,0,0,10.4,237.4,794.6)" />
<use xlink:href="#f1_20" transform="matrix(10.4,0,0,10.4,246.2,794.6)" />
<use xlink:href="#f1_1x" transform="matrix(10.4,0,0,10.4,263.8,794.6)" />
<use xlink:href="#f1_2a" transform="matrix(10.4,0,0,10.4,272.6,794.6)" />
<use xlink:href="#f1_25" transform="matrix(10.4,0,0,10.4,281.4,794.6)" />
<use xlink:href="#f1_28" transform="matrix(10.4,0,0,10.4,284.9,794.6)" />
<use xlink:href="#f1_25" transform="matrix(10.4,0,0,10.4,288.4,794.6)" />
<use xlink:href="#f1_2a" transform="matrix(10.4,0,0,10.4,291.9,794.6)" />
<use xlink:href="#f1_21" transform="matrix(10.4,0,0,10.4,300.7,794.6)" />
<use xlink:href="#f1_c" transform="matrix(10.4,0,0,10.4,100.1,824.7)" />
<use xlink:href="#f1_25" transform="matrix(10.4,0,0,10.4,105.8,824.7)" />
<use xlink:href="#f1_2i" transform="matrix(10.4,0,0,10.4,109.5,824.7)" />
<use xlink:href="#f1_d" transform="matrix(10.4,0,0,10.4,117.7,824.7)" />
<use xlink:href="#f1_1x" transform="matrix(10.4,0,0,10.4,143.4,824.7)" />
<use xlink:href="#f1_2a" transform="matrix(10.4,0,0,10.4,152.2,824.7)" />
<use xlink:href="#f1_25" transform="matrix(10.4,0,0,10.4,161,824.7)" />
<use xlink:href="#f1_28" transform="matrix(10.4,0,0,10.4,164.5,824.7)" />
<use xlink:href="#f1_25" transform="matrix(10.4,0,0,10.4,168,824.7)" />
<use xlink:href="#f1_2a" transform="matrix(10.4,0,0,10.4,171.4,824.7)" />
<use xlink:href="#f1_21" transform="matrix(10.4,0,0,10.4,180.2,824.7)" />
<use xlink:href="#f1_1x" transform="matrix(10.4,0,0,10.4,197.5,824.7)" />
<use xlink:href="#f1_2a" transform="matrix(10.4,0,0,10.4,206.3,824.7)" />
<use xlink:href="#f1_20" transform="matrix(10.4,0,0,10.4,215.1,824.7)" />
<use xlink:href="#f1_1y" transform="matrix(10.4,0,0,10.4,232.5,824.7)" />
<use xlink:href="#f1_21" transform="matrix(10.4,0,0,10.4,241.3,824.7)" />
<use xlink:href="#f1_2a" transform="matrix(10.4,0,0,10.4,250.1,824.7)" />
<use xlink:href="#f1_2m" transform="matrix(10.4,0,0,10.4,258.9,824.7)" />
<use xlink:href="#f1_2l" transform="matrix(10.4,0,0,10.4,266.6,824.7)" />
<use xlink:href="#f1_28" transform="matrix(10.4,0,0,10.4,274.1,824.7)" />
<use xlink:href="#f1_1x" transform="matrix(10.4,0,0,10.4,277.6,824.7)" />
<use xlink:href="#f1_29" transform="matrix(10.4,0,0,10.4,286.4,824.7)" />
<use xlink:href="#f1_25" transform="matrix(10.4,0,0,10.4,299.9,824.7)" />
<use xlink:href="#f1_2a" transform="matrix(10.4,0,0,10.4,303.4,824.7)" />
<use xlink:href="#f1_21" transform="matrix(10.4,0,0,10.4,312.2,824.7)" />
<use xlink:href="#f1_c" transform="matrix(10.4,0,0,10.4,100.1,854.8)" />
<use xlink:href="#f1_2i" transform="matrix(10.4,0,0,10.4,105.8,854.8)" />
<use xlink:href="#f1_d" transform="matrix(10.4,0,0,10.4,114.2,854.8)" />
<use xlink:href="#f1_29" transform="matrix(10.4,0,0,10.4,143.4,854.8)" />
<use xlink:href="#f1_21" transform="matrix(10.4,0,0,10.4,156.9,854.8)" />
<use xlink:href="#f1_2g" transform="matrix(10.4,0,0,10.4,165.7,854.8)" />
<use xlink:href="#f1_24" transform="matrix(10.4,0,0,10.4,170.1,854.8)" />
<use xlink:href="#f1_2l" transform="matrix(10.4,0,0,10.4,178.9,854.8)" />
<use xlink:href="#f1_28" transform="matrix(10.4,0,0,10.4,186.5,854.8)" />
<use xlink:href="#f1_1x" transform="matrix(10.4,0,0,10.4,189.9,854.8)" />
<use xlink:href="#f1_29" transform="matrix(10.4,0,0,10.4,198.7,854.8)" />
<use xlink:href="#f1_25" transform="matrix(10.4,0,0,10.4,212.3,854.8)" />
<use xlink:href="#f1_2a" transform="matrix(10.4,0,0,10.4,215.8,854.8)" />
<use xlink:href="#f1_21" transform="matrix(10.4,0,0,10.4,224.6,854.8)" />
<use xlink:href="#f1_1x" transform="matrix(10.4,0,0,10.4,241.5,854.8)" />
<use xlink:href="#f1_2a" transform="matrix(10.4,0,0,10.4,250.3,854.8)" />
<use xlink:href="#f1_20" transform="matrix(10.4,0,0,10.4,259.1,854.8)" />
<use xlink:href="#f1_29" transform="matrix(10.4,0,0,10.4,276.1,854.8)" />
<use xlink:href="#f1_21" transform="matrix(10.4,0,0,10.4,289.7,854.8)" />
<use xlink:href="#f1_2g" transform="matrix(10.4,0,0,10.4,298.5,854.8)" />
<use xlink:href="#f1_24" transform="matrix(10.4,0,0,10.4,302.9,854.8)" />
<use xlink:href="#f1_1x" transform="matrix(10.4,0,0,10.4,311.7,854.8)" />
<use xlink:href="#f1_2a" transform="matrix(10.4,0,0,10.4,320.5,854.8)" />
<use xlink:href="#f1_2b" transform="matrix(10.4,0,0,10.4,329.3,854.8)" />
<use xlink:href="#f1_28" transform="matrix(10.4,0,0,10.4,338.1,854.8)" />
<use xlink:href="#f1_c" transform="matrix(10.4,0,0,10.4,100.1,884.7)" />
<use xlink:href="#f1_2i" transform="matrix(10.4,0,0,10.4,105.8,884.7)" />
<use xlink:href="#f1_25" transform="matrix(10.4,0,0,10.4,113.9,884.7)" />
<use xlink:href="#f1_d" transform="matrix(10.4,0,0,10.4,117.7,884.7)" />
<use xlink:href="#f1_29" transform="matrix(10.4,0,0,10.4,143.4,884.7)" />
<use xlink:href="#f1_21" transform="matrix(10.4,0,0,10.4,156.9,884.7)" />
<use xlink:href="#f1_2g" transform="matrix(10.4,0,0,10.4,165.7,884.7)" />
<use xlink:href="#f1_24" transform="matrix(10.4,0,0,10.4,170.1,884.7)" />
<use xlink:href="#f1_2l" transform="matrix(10.4,0,0,10.4,178.9,884.7)" />
<use xlink:href="#f1_28" transform="matrix(10.4,0,0,10.4,186.5,884.7)" />
<use xlink:href="#f1_1x" transform="matrix(10.4,0,0,10.4,189.9,884.7)" />
<use xlink:href="#f1_29" transform="matrix(10.4,0,0,10.4,198.7,884.7)" />
<use xlink:href="#f1_25" transform="matrix(10.4,0,0,10.4,212.3,884.7)" />
<use xlink:href="#f1_2a" transform="matrix(10.4,0,0,10.4,215.8,884.7)" />
<use xlink:href="#f1_21" transform="matrix(10.4,0,0,10.4,224.6,884.7)" />
<use xlink:href="#f1_1x" transform="matrix(10.4,0,0,10.4,240.5,884.7)" />
<use xlink:href="#f1_2a" transform="matrix(10.4,0,0,10.4,249.3,884.7)" />
<use xlink:href="#f1_20" transform="matrix(10.4,0,0,10.4,258.1,884.7)" />
<use xlink:href="#f1_1e" transform="matrix(10.4,0,0,10.4,273.9,884.7)" />
<use xlink:href="#f1_g" transform="matrix(10.4,0,0,10.4,285.5,884.7)" />
<use xlink:href="#f1_1e" transform="matrix(10.4,0,0,10.4,297,884.7)" />
<use xlink:href="#f1_h" transform="matrix(10.4,0,0,10.4,308.5,884.7)" />
<use xlink:href="#f1_20" transform="matrix(10.4,0,0,10.4,313.9,884.7)" />
<use xlink:href="#f1_25" transform="matrix(10.4,0,0,10.4,322.7,884.7)" />
<use xlink:href="#f1_29" transform="matrix(10.4,0,0,10.4,326.1,884.7)" />
<use xlink:href="#f1_21" transform="matrix(10.4,0,0,10.4,339.7,884.7)" />
<use xlink:href="#f1_2g" transform="matrix(10.4,0,0,10.4,348.5,884.7)" />
<use xlink:href="#f1_24" transform="matrix(10.4,0,0,10.4,352.9,884.7)" />
<use xlink:href="#f1_2l" transform="matrix(10.4,0,0,10.4,361.7,884.7)" />
<use xlink:href="#f1_28" transform="matrix(10.4,0,0,10.4,369.2,884.7)" />
<use xlink:href="#f1_1x" transform="matrix(10.4,0,0,10.4,372.7,884.7)" />
<use xlink:href="#f1_29" transform="matrix(10.4,0,0,10.4,381.5,884.7)" />
<use xlink:href="#f1_25" transform="matrix(10.4,0,0,10.4,395.1,884.7)" />
<use xlink:href="#f1_2a" transform="matrix(10.4,0,0,10.4,398.6,884.7)" />
<use xlink:href="#f1_21" transform="matrix(10.4,0,0,10.4,407.4,884.7)" />
<use xlink:href="#f1_c" transform="matrix(10.4,0,0,10.4,100.1,914.7)" />
<use xlink:href="#f1_2i" transform="matrix(10.4,0,0,10.4,105.6,914.7)" />
<use xlink:href="#f1_25" transform="matrix(10.4,0,0,10.4,113.7,914.7)" />
<use xlink:href="#f1_25" transform="matrix(10.4,0,0,10.4,117.5,914.7)" />
<use xlink:href="#f1_d" transform="matrix(10.4,0,0,10.4,121.2,914.7)" />
<use xlink:href="#f1_21" transform="matrix(10.4,0,0,10.4,143.4,914.7)" />
<use xlink:href="#f1_2g" transform="matrix(10.4,0,0,10.4,152.2,914.7)" />
<use xlink:href="#f1_24" transform="matrix(10.4,0,0,10.4,156.6,914.7)" />
<use xlink:href="#f1_1x" transform="matrix(10.4,0,0,10.4,165.6,914.7)" />
<use xlink:href="#f1_2a" transform="matrix(10.4,0,0,10.4,174.4,914.7)" />
<use xlink:href="#f1_2b" transform="matrix(10.4,0,0,10.4,183.2,914.7)" />
<use xlink:href="#f1_28" transform="matrix(10.4,0,0,10.4,192,914.7)" />
<use xlink:href="#f1_1x" transform="matrix(10.4,0,0,10.4,204.4,914.7)" />
<use xlink:href="#f1_2a" transform="matrix(10.4,0,0,10.4,213.2,914.7)" />
<use xlink:href="#f1_20" transform="matrix(10.4,0,0,10.4,222,914.7)" />
<use xlink:href="#f1_21" transform="matrix(10.4,0,0,10.4,239.8,914.7)" />
<use xlink:href="#f1_2g" transform="matrix(10.4,0,0,10.4,248.6,914.7)" />
<use xlink:href="#f1_24" transform="matrix(10.4,0,0,10.4,253,914.7)" />
<use xlink:href="#f1_1x" transform="matrix(10.4,0,0,10.4,262,914.7)" />
<use xlink:href="#f1_2a" transform="matrix(10.4,0,0,10.4,270.8,914.7)" />
<use xlink:href="#f1_1x" transform="matrix(10.4,0,0,10.4,279.6,914.7)" />
<use xlink:href="#f1_29" transform="matrix(10.4,0,0,10.4,288.4,914.7)" />
<use xlink:href="#f1_25" transform="matrix(10.4,0,0,10.4,302.1,914.7)" />
<use xlink:href="#f1_2a" transform="matrix(10.4,0,0,10.4,305.6,914.7)" />
<use xlink:href="#f1_21" transform="matrix(10.4,0,0,10.4,314.4,914.7)" />
<use xlink:href="#f2_n" transform="matrix(12,0,0,12,680.7,1050.1)" />
</g>
<g fill="#0080FF" fill-opacity="0.5" >
<use xlink:href="#f0_1c" transform="matrix(38.5,0,0,38.5,184.9,1046.8)" />
<use xlink:href="#f0_21" transform="matrix(38.5,0,0,38.5,217.6,1046.8)" />
<use xlink:href="#f0_1x" transform="matrix(38.5,0,0,38.5,250.4,1046.8)" />
<use xlink:href="#f0_2e" transform="matrix(38.5,0,0,38.5,283.1,1046.8)" />
<use xlink:href="#f0_2a" transform="matrix(38.5,0,0,38.5,302.7,1046.8)" />
<use xlink:href="#f0_17" transform="matrix(38.5,0,0,38.5,335.4,1046.8)" />
<use xlink:href="#f0_2h" transform="matrix(38.5,0,0,38.5,381.3,1046.8)" />
<use xlink:href="#f0_25" transform="matrix(38.5,0,0,38.5,414,1046.8)" />
<use xlink:href="#f0_20" transform="matrix(38.5,0,0,38.5,427.1,1046.8)" />
<use xlink:href="#f0_21" transform="matrix(38.5,0,0,38.5,459.8,1046.8)" />
<use xlink:href="#f0_i" transform="matrix(38.5,0,0,38.5,492.6,1046.8)" />
<use xlink:href="#f0_25" transform="matrix(38.5,0,0,38.5,508.9,1046.8)" />
<use xlink:href="#f0_2a" transform="matrix(38.5,0,0,38.5,522,1046.8)" />
</g>
<defs>
<path d="M593,101c0,0,182,0,279,112c0,0,98,113,98,318c0,0,0,196,-98,308c0,0,-98,112,-277,112c0,0,-181,0,-279,-110c0,0,-99,-111,-99,-310c0,0,0,-198,100,-314c0,0,99,-116,276,-116Zm0,-115c0,0,-162,0,-279,65c0,0,-118,66,-180,190c0,0,-62,124,-62,290c0,0,0,252,138,394c0,0,138,142,385,142c0,0,160,0,278,-64c0,0,118,-64,180,-185c0,0,62,-122,62,-287c0,0,0,-165,-63,-289c0,0,-63,-124,-181,-190c0,0,-118,-66,-278,-66Z" 
id="f0_1f"
transform="scale(0.001,-0.001)" />

<path d="M106,0V635c0,0,0,141,-5,173H228c0,0,1,-4,2,-21c0,0,1,-16,2,-37c0,0,1,-22,2,-81h2c0,0,47,84,108,119c0,0,60,34,151,34c0,0,132,0,194,-66c0,0,61,-66,61,-218V0H615V512c0,0,0,80,-15,124c0,0,-16,44,-50,63c0,0,-35,20,-101,20c0,0,-97,0,-153,-67c0,0,-56,-66,-56,-184V0Z" 
id="f0_2a"
transform="scale(0.001,-0.001)" />

<path d="M103,0V1107H237V0Z" 
id="f0_28"
transform="scale(0.001,-0.001)" />

<path d="M102,0V808H236V0Zm0,979v128H236V979Z" 
id="f0_25"
transform="scale(0.001,-0.001)" />

<path d="M643,478c0,0,-11,128,-65,187c0,0,-54,59,-154,59c0,0,-98,0,-155,-66c0,0,-57,-65,-62,-180ZM431,-14c0,0,-179,0,-272,106c0,0,-94,107,-94,317c0,0,0,200,94,307c0,0,93,106,267,106c0,0,356,0,356,-429V375H206c0,0,0,-138,57,-213c0,0,58,-75,168,-75c0,0,87,0,140,35c0,0,53,35,71,88L760,177c0,0,-72,-191,-329,-191Z" 
id="f0_21"
transform="scale(0.001,-0.001)" />

<path d="M17,0L304,415L31,808H179L380,493L580,808H730L457,417L747,0H598L380,331L162,0Z" 
id="f0_2k"
transform="scale(0.001,-0.001)" />

<path d="M339,87c0,0,74,0,132,34c0,0,57,33,90,91c0,0,34,59,34,121v66L448,396c0,0,-95,-2,-144,-19c0,0,-49,-18,-75,-55c0,0,-26,-38,-26,-98c0,0,0,-65,35,-101c0,0,36,-36,101,-36ZM309,-14c0,0,-122,0,-183,64c0,0,-61,64,-61,176c0,0,0,125,82,192c0,0,83,67,266,72l182,3v44c0,0,0,98,-42,141c0,0,-42,43,-132,43c0,0,-90,0,-131,-31c0,0,-41,-31,-49,-98L101,604c0,0,34,218,323,218c0,0,153,0,229,-70c0,0,77,-69,77,-202V202c0,0,0,-59,16,-90c0,0,16,-30,60,-30c0,0,19,0,44,5V4C850,4,799,-7,746,-7c0,0,-75,0,-109,38c0,0,-33,40,-38,124h-4C595,155,543,62,475,24c0,0,-68,-38,-166,-38Z" 
id="f0_1x"
transform="scale(0.001,-0.001)" />

<path d="M106,0V635c0,0,0,141,-5,173H228c0,0,1,-4,2,-21c0,0,1,-16,2,-37c0,0,1,-22,2,-81h2c0,0,44,86,100,120c0,0,56,33,136,33c0,0,92,0,145,-36c0,0,54,-37,75,-117h2c0,0,42,82,101,117c0,0,59,36,143,36c0,0,123,0,178,-66c0,0,56,-67,56,-218V0H1039V512c0,0,0,117,-32,162c0,0,-32,45,-116,45c0,0,-88,0,-136,-66c0,0,-49,-65,-49,-185V0H573V512c0,0,0,117,-32,162c0,0,-32,45,-116,45c0,0,-86,0,-136,-66c0,0,-50,-66,-50,-185V0Z" 
id="f0_29"
transform="scale(0.001,-0.001)" />

<path d="M453,84c0,0,100,0,146,74c0,0,46,73,46,247c0,0,0,169,-46,241c0,0,-45,73,-145,73c0,0,-80,0,-125,-34c0,0,-45,-34,-68,-105c0,0,-24,-71,-24,-186c0,0,0,-159,51,-234c0,0,51,-76,165,-76ZM103,-316V643c0,0,0,124,-5,165H228c0,0,1,-3,3,-22c0,0,1,-18,3,-56c0,0,2,-38,2,-52h3c0,0,36,75,94,110c0,0,59,34,156,34c0,0,149,0,223,-100c0,0,74,-100,74,-314c0,0,0,-422,-297,-422c0,0,-187,0,-251,140h-4c0,0,3,-6,3,-126V-316Z" 
id="f0_2c"
transform="scale(0.001,-0.001)" />

<path d="M420,84c0,0,121,0,173,78c0,0,52,77,52,243c0,0,0,167,-50,243c0,0,-50,76,-167,76c0,0,-118,0,-170,-78c0,0,-53,-77,-53,-241c0,0,0,-160,52,-241c0,0,52,-80,163,-80Zm1,-98c0,0,-176,0,-267,107c0,0,-90,108,-90,312c0,0,0,417,362,417c0,0,185,0,272,-102c0,0,88,-101,88,-315c0,0,0,-212,-94,-316C692,89,599,-14,421,-14Z" 
id="f0_2b"
transform="scale(0.001,-0.001)" />

<path d="M278,-11c0,0,-162,0,-162,182V710H23v98h99l39,181h90V808H400V710H251V200c0,0,0,-58,19,-82c0,0,19,-23,66,-23c0,0,27,0,77,10V6c0,0,-66,-17,-135,-17Z" 
id="f0_2g"
transform="scale(0.001,-0.001)" />

<path d="M427,86c0,0,109,0,163,53c0,0,54,52,54,167c0,0,0,97,-58,147c0,0,-59,50,-164,50c0,0,-102,0,-159,-54c0,0,-58,-53,-58,-146c0,0,0,-217,222,-217Zm-3,517c0,0,94,0,144,44c0,0,50,43,50,141c0,0,0,178,-196,178c0,0,-95,0,-144,-45c0,0,-50,-44,-50,-133c0,0,0,-90,51,-137c0,0,51,-48,145,-48Zm1,-617c0,0,-168,0,-263,79c0,0,-96,80,-96,227c0,0,0,103,59,173c0,0,59,70,151,85v3c0,0,-86,20,-135,87c0,0,-50,67,-50,157c0,0,0,121,90,195c0,0,90,75,241,75c0,0,155,0,245,-73c0,0,90,-74,90,-198c0,0,0,-90,-50,-158c0,0,-50,-67,-136,-84v-3c0,0,100,-16,156,-85c0,0,56,-69,56,-173c0,0,0,-145,-92,-226c0,0,-93,-81,-266,-81Z" 
id="f1_s"
transform="scale(0.001,-0.001)" />

<path d="M140,0V163H285V0Z" 
id="f1_i"
transform="scale(0.001,-0.001)" />

<path d="M141,0V1051H283V0Z" 
id="f1_19"
transform="scale(0.001,-0.001)" />

<path d="M395,89c0,0,115,0,166,79c0,0,51,79,51,246c0,0,0,160,-51,235c0,0,-51,75,-164,75c0,0,-102,0,-147,-75c0,0,-45,-75,-45,-244c0,0,0,-170,45,-243c0,0,45,-73,145,-73ZM361,-14c0,0,-153,0,-225,102c0,0,-72,103,-72,312c0,0,0,422,297,422c0,0,92,0,153,-33c0,0,61,-34,98,-107h2l-2,90v335H747V166c0,0,0,-126,4,-166H623c0,0,-2,12,-5,55c0,0,-3,44,-3,75h-3c0,0,-37,-78,-98,-111c0,0,-62,-33,-153,-33Z" 
id="f1_20"
transform="scale(0.001,-0.001)" />

<path d="M643,478c0,0,-11,128,-65,187c0,0,-54,59,-154,59c0,0,-98,0,-155,-66c0,0,-57,-65,-62,-180ZM431,-14c0,0,-179,0,-272,106c0,0,-94,107,-94,317c0,0,0,200,94,307c0,0,93,106,267,106c0,0,356,0,356,-429V375H206c0,0,0,-138,57,-213c0,0,58,-75,168,-75c0,0,87,0,140,35c0,0,53,35,71,88L760,177c0,0,-72,-191,-329,-191Z" 
id="f1_21"
transform="scale(0.001,-0.001)" />

<path d="M106,0V635c0,0,0,141,-5,173H228c0,0,1,-4,2,-21c0,0,1,-16,2,-37c0,0,1,-22,2,-81h2c0,0,47,84,108,119c0,0,60,34,151,34c0,0,132,0,194,-66c0,0,61,-66,61,-218V0H615V512c0,0,0,80,-15,124c0,0,-16,44,-50,63c0,0,-35,20,-101,20c0,0,-97,0,-153,-67c0,0,-56,-66,-56,-184V0Z" 
id="f1_2a"
transform="scale(0.001,-0.001)" />

<path d="M278,-11c0,0,-162,0,-162,182V710H23v98h99l39,181h90V808H400V710H251V200c0,0,0,-58,19,-82c0,0,19,-23,66,-23c0,0,27,0,77,10V6c0,0,-66,-17,-135,-17Z" 
id="f1_2g"
transform="scale(0.001,-0.001)" />

<path d="M102,0V808H236V0Zm0,979v128H236V979Z" 
id="f1_25"
transform="scale(0.001,-0.001)" />

<path d="M135,0V710H22v98H135v91c0,0,0,110,49,158c0,0,48,49,148,49c0,0,56,0,95,-9V994c0,0,-34,6,-60,6c0,0,-51,0,-75,-26c0,0,-23,-26,-23,-94V808H427V710H269V0Z" 
id="f1_22"
transform="scale(0.001,-0.001)" />

<path d="M142,-316c0,0,-55,0,-92,8v101c0,0,28,-4,63,-4c0,0,125,0,198,184L324,4L4,808H147L317,362c0,0,4,-11,9,-25c0,0,5,-15,34,-98c0,0,28,-83,30,-92l52,147L619,808H761L451,0c0,0,-50,-128,-94,-191c0,0,-43,-63,-96,-94c0,0,-52,-31,-119,-31Z" 
id="f1_2l"
transform="scale(0.001,-0.001)" />

<path d="M615,0V512c0,0,0,85,-15,126c0,0,-16,42,-52,61c0,0,-36,20,-99,20c0,0,-95,0,-152,-66c0,0,-57,-66,-57,-177V0H106V1107H240V819c0,0,0,-45,-2,-94c0,0,-3,-48,-4,-56h2c0,0,44,79,105,116c0,0,60,37,154,37c0,0,131,0,193,-65c0,0,62,-65,62,-219V0Z" 
id="f1_24"
transform="scale(0.001,-0.001)" />

<path d="M106,0V635c0,0,0,141,-5,173H228c0,0,1,-4,2,-21c0,0,1,-16,2,-37c0,0,1,-22,2,-81h2c0,0,44,86,100,120c0,0,56,33,136,33c0,0,92,0,145,-36c0,0,54,-37,75,-117h2c0,0,42,82,101,117c0,0,59,36,143,36c0,0,123,0,178,-66c0,0,56,-67,56,-218V0H1039V512c0,0,0,117,-32,162c0,0,-32,45,-116,45c0,0,-88,0,-136,-66c0,0,-49,-65,-49,-185V0H573V512c0,0,0,117,-32,162c0,0,-32,45,-116,45c0,0,-86,0,-136,-66c0,0,-50,-66,-50,-185V0Z" 
id="f1_29"
transform="scale(0.001,-0.001)" />

<path d="M381,-14c0,0,-150,0,-232,49C149,35,67,85,43,190l118,23c0,0,17,-65,71,-96c0,0,54,-30,149,-30c0,0,102,0,150,31c0,0,47,32,47,95c0,0,0,47,-33,77c0,0,-33,30,-106,49l-96,26c0,0,-115,30,-164,58c0,0,-49,29,-77,70c0,0,-27,41,-27,101c0,0,0,110,78,168c0,0,79,57,230,57c0,0,133,0,212,-47c0,0,79,-47,100,-150L574,607c0,0,-12,53,-60,82c0,0,-49,29,-131,29c0,0,-91,0,-135,-28c0,0,-43,-27,-43,-83c0,0,0,-34,18,-57c0,0,18,-22,53,-38c0,0,35,-15,148,-43c0,0,106,-27,153,-50c0,0,47,-22,75,-50c0,0,27,-27,42,-64c0,0,15,-36,15,-82c0,0,0,-114,-86,-176c0,0,-87,-61,-242,-61Z" 
id="f1_2f"
transform="scale(0.001,-0.001)" />

<path d="M398,93c0,0,63,0,112,37c0,0,49,38,76,107c0,0,27,70,27,166c0,0,0,99,-27,170c0,0,-27,71,-75,109c0,0,-49,38,-111,38c0,0,-103,0,-150,-75c0,0,-47,-75,-47,-242c0,0,0,-165,44,-238c0,0,44,-72,151,-72Zm11,-409c0,0,-132,0,-211,52c0,0,-78,52,-100,147l135,20c0,0,13,-56,59,-87c0,0,46,-30,121,-30c0,0,200,0,200,234V150h-1C612,150,574,72,507,33C507,33,441,-5,352,-5c0,0,-148,0,-218,98c0,0,-70,98,-70,309c0,0,0,214,75,316c0,0,75,101,228,101c0,0,86,0,149,-39c0,0,63,-39,97,-111h2c0,0,0,22,3,78c0,0,3,55,6,61H751c0,0,-4,-41,-4,-167V23c0,0,0,-339,-338,-339Z" 
id="f1_23"
transform="scale(0.001,-0.001)" />

<path d="M106,0V620c0,0,0,85,-5,188H228c0,0,6,-138,6,-165h3c0,0,32,103,74,141c0,0,42,38,118,38c0,0,27,0,54,-7V692c0,0,-26,7,-71,7c0,0,-84,0,-128,-72c0,0,-44,-72,-44,-206V0Z" 
id="f1_2e"
transform="scale(0.001,-0.001)" />

<path d="M339,87c0,0,74,0,132,34c0,0,57,33,90,91c0,0,34,59,34,121v66L448,396c0,0,-95,-2,-144,-19c0,0,-49,-18,-75,-55c0,0,-26,-38,-26,-98c0,0,0,-65,35,-101c0,0,36,-36,101,-36ZM309,-14c0,0,-122,0,-183,64c0,0,-61,64,-61,176c0,0,0,125,82,192c0,0,83,67,266,72l182,3v44c0,0,0,98,-42,141c0,0,-42,43,-132,43c0,0,-90,0,-131,-31c0,0,-41,-31,-49,-98L101,604c0,0,34,218,323,218c0,0,153,0,229,-70c0,0,77,-69,77,-202V202c0,0,0,-59,16,-90c0,0,16,-30,60,-30c0,0,19,0,44,5V4C850,4,799,-7,746,-7c0,0,-75,0,-109,38c0,0,-33,40,-38,124h-4C595,155,543,62,475,24c0,0,-68,-38,-166,-38Z" 
id="f1_1x"
transform="scale(0.001,-0.001)" />

<path d="M0,-14L307,1107H424L121,-14Z" 
id="f1_j"
transform="scale(0.001,-0.001)" />

<path d="M453,84c0,0,100,0,146,74c0,0,46,73,46,247c0,0,0,169,-46,241c0,0,-45,73,-145,73c0,0,-80,0,-125,-34c0,0,-45,-34,-68,-105c0,0,-24,-71,-24,-186c0,0,0,-159,51,-234c0,0,51,-76,165,-76ZM103,-316V643c0,0,0,124,-5,165H228c0,0,1,-3,3,-22c0,0,1,-18,3,-56c0,0,2,-38,2,-52h3c0,0,36,75,94,110c0,0,59,34,156,34c0,0,149,0,223,-100c0,0,74,-100,74,-314c0,0,0,-422,-297,-422c0,0,-187,0,-251,140h-4c0,0,3,-6,3,-126V-316Z" 
id="f1_2c"
transform="scale(0.001,-0.001)" />

<path d="M420,84c0,0,121,0,173,78c0,0,52,77,52,243c0,0,0,167,-50,243c0,0,-50,76,-167,76c0,0,-118,0,-170,-78c0,0,-53,-77,-53,-241c0,0,0,-160,52,-241c0,0,52,-80,163,-80Zm1,-98c0,0,-176,0,-267,107c0,0,-90,108,-90,312c0,0,0,417,362,417c0,0,185,0,272,-102c0,0,88,-101,88,-315c0,0,0,-212,-94,-316C692,89,599,-14,421,-14Z" 
id="f1_2b"
transform="scale(0.001,-0.001)" />

<path d="M355,-14c0,0,-133,0,-194,65c0,0,-62,66,-62,219V808H234V296c0,0,0,-80,16,-124c0,0,16,-44,50,-64c0,0,34,-19,101,-19c0,0,97,0,153,66c0,0,55,67,55,185V808H744V172c0,0,0,-141,4,-172H621c0,0,0,4,-1,20c0,0,-1,17,-2,38c0,0,-1,21,-3,80h-2C613,138,567,55,506,20c0,0,-61,-34,-151,-34Z" 
id="f1_2h"
transform="scale(0.001,-0.001)" />

<path d="M413,-14c0,0,-170,0,-259,106c0,0,-89,107,-89,313c0,0,0,203,89,310c0,0,90,107,257,107c0,0,124,0,206,-64c0,0,81,-64,102,-177L581,571c0,0,-10,67,-53,106c0,0,-42,40,-121,40c0,0,-106,0,-154,-71c0,0,-48,-71,-48,-239c0,0,0,-161,51,-238c0,0,51,-78,153,-78c0,0,71,0,120,39c0,0,48,39,59,119l136,-9C724,240,708,124,624,55c0,0,-83,-69,-211,-69Z" 
id="f1_1z"
transform="scale(0.001,-0.001)" />

<path d="M103,0V1107H237V0Z" 
id="f1_28"
transform="scale(0.001,-0.001)" />

<path d="M224,0L-1,808H131L267,259c0,0,5,-18,32,-147l13,55L480,808H624L765,253L800,112l23,103L976,808h131L876,0H720L579,571L552,697c0,0,-7,-33,-21,-96C531,601,517,537,379,0Z" 
id="f1_2j"
transform="scale(0.001,-0.001)" />

<path d="M140,0V154H285V0Zm0,653V808H285V653Z" 
id="f1_u"
transform="scale(0.001,-0.001)" />

<path d="M416,464c0,0,58,0,108,27c0,0,50,26,78,75c0,0,29,49,29,111c0,0,0,127,-58,204c0,0,-58,77,-156,77c0,0,-97,0,-153,-66c0,0,-56,-66,-56,-179c0,0,0,-115,56,-182c0,0,56,-67,152,-67ZM397,-14c0,0,-123,0,-197,51c0,0,-75,52,-107,168l129,20c0,0,40,-131,177,-131c0,0,116,0,179,107c0,0,64,107,67,306c0,0,-30,-67,-103,-108c0,0,-72,-40,-159,-40c0,0,-141,0,-226,97c0,0,-85,97,-85,257c0,0,0,165,92,259c0,0,93,95,257,95c0,0,176,0,266,-130c0,0,90,-130,90,-390c0,0,0,-271,-99,-416c0,0,-98,-145,-281,-145Z" 
id="f1_t"
transform="scale(0.001,-0.001)" />

<path d="M606,-14c0,0,-164,0,-284,65c0,0,-119,66,-182,189c0,0,-63,123,-63,291c0,0,0,255,137,396c0,0,137,140,386,140c0,0,174,0,283,-59c0,0,109,-59,168,-189L915,779c0,0,-44,90,-123,131c0,0,-79,41,-196,41c0,0,-182,0,-278,-110c0,0,-96,-110,-96,-310c0,0,0,-200,102,-315c0,0,102,-115,282,-115c0,0,103,0,193,31c0,0,89,31,144,85V407H629V526h445V164c0,0,-83,-85,-205,-132c0,0,-121,-46,-263,-46Z" 
id="f1_17"
transform="scale(0.001,-0.001)" />

<path d="M298,0L5,808H148L326,282c0,0,10,-29,51,-176l27,87l29,88L616,808H759L457,0Z" 
id="f1_2i"
transform="scale(0.001,-0.001)" />

<path d="M453,84c0,0,101,0,146,75c0,0,46,75,46,244c0,0,0,169,-45,243c0,0,-45,73,-146,73c0,0,-113,0,-165,-78c0,0,-52,-78,-52,-246c0,0,0,-159,51,-235c0,0,51,-76,165,-76Zm36,-98c0,0,-92,0,-153,33c0,0,-61,33,-99,107h-1c0,0,0,-24,-3,-71c0,0,-3,-48,-5,-55H98c0,0,5,40,5,166v941H237V792c0,0,0,-49,-3,-114h3c0,0,38,77,99,111c0,0,62,33,153,33c0,0,153,0,225,-103c0,0,72,-103,72,-311c0,0,0,-422,-297,-422Z" 
id="f1_1y"
transform="scale(0.001,-0.001)" />

<path d="M370,-316c0,0,-141,152,-208,323C162,7,95,179,95,394v3c0,0,0,215,67,387c0,0,68,171,208,323H500c0,0,-140,-155,-205,-330c0,0,-65,-175,-65,-382c0,0,0,-207,64,-381c0,0,65,-172,206,-330Z" 
id="f1_c"
transform="scale(0.001,-0.001)" />

<path d="M9,-316c0,0,140,157,205,329c0,0,65,174,65,382c0,0,0,208,-65,382c0,0,-66,174,-205,330H139c0,0,141,-152,208,-324c0,0,67,-172,67,-386v-3c0,0,0,-216,-67,-388c0,0,-68,-170,-208,-322Z" 
id="f1_d"
transform="scale(0.001,-0.001)" />

<path d="M62,0V102L513,704H87V808H672V706L220,104H688V0Z" 
id="f1_2m"
transform="scale(0.001,-0.001)" />

<path d="M125,0V1051H291L859,150c0,0,-9,146,-9,212v689H979V0H807L245,895l3,-72l4,-125V0Z" 
id="f1_1e"
transform="scale(0.001,-0.001)" />

<path d="M137,-195c0,0,70,102,70,195H142V163H287V38c0,0,0,-78,-14,-131c0,0,-14,-53,-44,-102Z" 
id="f1_g"
transform="scale(0.001,-0.001)" />

<path d="M68,346V465H441V346Z" 
id="f1_h"
transform="scale(0.001,-0.001)" />

<path d="M412,-18c0,0,-144,0,-239,85c0,0,-95,86,-108,222l133,18c0,0,24,-114,79,-164c0,0,55,-50,135,-50c0,0,96,0,161,65c0,0,65,66,65,163c0,0,0,92,-61,152c0,0,-60,60,-153,60c0,0,-38,0,-95,-15l15,119c0,0,13,-2,21,-2c0,0,86,0,155,45c0,0,69,44,69,137c0,0,0,74,-50,122c0,0,-50,49,-129,49c0,0,-79,0,-131,-50c0,0,-52,-49,-67,-147L78,815c0,0,25,135,112,209c0,0,87,74,217,74c0,0,89,0,164,-38c0,0,76,-39,116,-105c0,0,40,-66,40,-141c0,0,0,-70,-39,-129c0,0,-38,-58,-112,-92c0,0,97,-22,151,-93c0,0,53,-70,53,-176c0,0,0,-143,-104,-243c0,0,-105,-99,-264,-99Z" 
id="f2_n"
transform="scale(0.001,-0.001)" />

<path d="M125,0V1051H268V115H799V0Z" 
id="f0_1c"
transform="scale(0.001,-0.001)" />

<path d="M106,0V620c0,0,0,85,-5,188H228c0,0,6,-138,6,-165h3c0,0,32,103,74,141c0,0,42,38,118,38c0,0,27,0,54,-7V692c0,0,-26,7,-71,7c0,0,-84,0,-128,-72c0,0,-44,-72,-44,-206V0Z" 
id="f0_2e"
transform="scale(0.001,-0.001)" />

<path d="M606,-14c0,0,-164,0,-284,65c0,0,-119,66,-182,189c0,0,-63,123,-63,291c0,0,0,255,137,396c0,0,137,140,386,140c0,0,174,0,283,-59c0,0,109,-59,168,-189L915,779c0,0,-44,90,-123,131c0,0,-79,41,-196,41c0,0,-182,0,-278,-110c0,0,-96,-110,-96,-310c0,0,0,-200,102,-315c0,0,102,-115,282,-115c0,0,103,0,193,31c0,0,89,31,144,85V407H629V526h445V164c0,0,-83,-85,-205,-132c0,0,-121,-46,-263,-46Z" 
id="f0_17"
transform="scale(0.001,-0.001)" />

<path d="M355,-14c0,0,-133,0,-194,65c0,0,-62,66,-62,219V808H234V296c0,0,0,-80,16,-124c0,0,16,-44,50,-64c0,0,34,-19,101,-19c0,0,97,0,153,66c0,0,55,67,55,185V808H744V172c0,0,0,-141,4,-172H621c0,0,0,4,-1,20c0,0,-1,17,-2,38c0,0,-1,21,-3,80h-2C613,138,567,55,506,20c0,0,-61,-34,-151,-34Z" 
id="f0_2h"
transform="scale(0.001,-0.001)" />

<path d="M395,89c0,0,115,0,166,79c0,0,51,79,51,246c0,0,0,160,-51,235c0,0,-51,75,-164,75c0,0,-102,0,-147,-75c0,0,-45,-75,-45,-244c0,0,0,-170,45,-243c0,0,45,-73,145,-73ZM361,-14c0,0,-153,0,-225,102c0,0,-72,103,-72,312c0,0,0,422,297,422c0,0,92,0,153,-33c0,0,61,-34,98,-107h2l-2,90v335H747V166c0,0,0,-126,4,-166H623c0,0,-2,12,-5,55c0,0,-3,44,-3,75h-3c0,0,-37,-78,-98,-111c0,0,-62,-33,-153,-33Z" 
id="f0_20"
transform="scale(0.001,-0.001)" />

<path d="M140,0V163H285V0Z" 
id="f0_i"
transform="scale(0.001,-0.001)" />


</defs>
</svg>