<?xml version="1.0" encoding="UTF-8" standalone="no"?>
<!DOCTYPE svg PUBLIC "-//W3C//DTD SVG 1.1//EN"
"http://www.w3.org/Graphics/SVG/1.1/DTD/svg11.dtd">
<svg viewBox="0 0 740 1092" version="1.1" xmlns="http://www.w3.org/2000/svg" xmlns:xlink="http://www.w3.org/1999/xlink">
<defs>
<clipPath id="c0_78"><path d="M284.3,464.9V447.1H621.4v17.8Z" /></clipPath>
<clipPath id="c1_78"><path d="M85.2,737.2V719.4H621.4v17.8Z" /></clipPath>
</defs>
<g fill="#D4D4D4" fill-opacity="0.36" >
<use xlink:href="#f0_1f" transform="matrix(50.9,-50.9,50.9,50.9,129.3,814.1)" />
<use xlink:href="#f0_2a" transform="matrix(50.9,-50.9,50.9,50.9,189.9,753.6)" />
<use xlink:href="#f0_28" transform="matrix(50.9,-50.9,50.9,50.9,233.1,710.3)" />
<use xlink:href="#f0_25" transform="matrix(50.9,-50.9,50.9,50.9,250.4,693.1)" />
<use xlink:href="#f0_2a" transform="matrix(50.9,-50.9,50.9,50.9,267.6,675.8)" />
<use xlink:href="#f0_21" transform="matrix(50.9,-50.9,50.9,50.9,310.9,632.5)" />
<use xlink:href="#f0_2k" transform="matrix(50.9,-50.9,50.9,50.9,354.1,589.3)" />
<use xlink:href="#f0_1x" transform="matrix(50.9,-50.9,50.9,50.9,393,550.4)" />
<use xlink:href="#f0_29" transform="matrix(50.9,-50.9,50.9,50.9,436.3,507.2)" />
<use xlink:href="#f0_2c" transform="matrix(50.9,-50.9,50.9,50.9,501.1,442.4)" />
<use xlink:href="#f0_2b" transform="matrix(50.9,-50.9,50.9,50.9,544.3,399.1)" />
<use xlink:href="#f0_25" transform="matrix(50.9,-50.9,50.9,50.9,587.6,355.9)" />
<use xlink:href="#f0_2a" transform="matrix(50.9,-50.9,50.9,50.9,604.8,338.6)" />
<use xlink:href="#f0_2g" transform="matrix(50.9,-50.9,50.9,50.9,648.1,295.4)" />
</g>
<g fill="#000000" >
<use xlink:href="#f1_l" transform="matrix(10.4,0,0,10.4,41.9,84.5)" />
<use xlink:href="#f1_s" transform="matrix(10.4,0,0,10.4,51.1,84.5)" />
<use xlink:href="#f1_i" transform="matrix(10.4,0,0,10.4,60.4,84.5)" />
<use xlink:href="#f1_11" transform="matrix(10.4,0,0,10.4,85.2,84.5)" />
<use xlink:href="#f1_2a" transform="matrix(10.4,0,0,10.4,95.8,84.5)" />
<use xlink:href="#f1_2b" transform="matrix(10.4,0,0,10.4,113.6,84.5)" />
<use xlink:href="#f1_2c" transform="matrix(10.4,0,0,10.4,122.4,84.5)" />
<use xlink:href="#f1_2g" transform="matrix(10.4,0,0,10.4,131.2,84.5)" />
<use xlink:href="#f1_25" transform="matrix(10.4,0,0,10.4,135.8,84.5)" />
<use xlink:href="#f1_1z" transform="matrix(10.4,0,0,10.4,139.2,84.5)" />
<use xlink:href="#f1_1x" transform="matrix(10.4,0,0,10.4,147.3,84.5)" />
<use xlink:href="#f1_28" transform="matrix(10.4,0,0,10.4,156.1,84.5)" />
<use xlink:href="#f1_28" transform="matrix(10.4,0,0,10.4,159.8,84.5)" />
<use xlink:href="#f1_2l" transform="matrix(10.4,0,0,10.4,163.3,84.5)" />
<use xlink:href="#f1_1x" transform="matrix(10.4,0,0,10.4,179.8,84.5)" />
<use xlink:href="#f1_1z" transform="matrix(10.4,0,0,10.4,188.6,84.5)" />
<use xlink:href="#f1_2g" transform="matrix(10.4,0,0,10.4,196.6,84.5)" />
<use xlink:href="#f1_25" transform="matrix(10.4,0,0,10.4,201,84.5)" />
<use xlink:href="#f1_2i" transform="matrix(10.4,0,0,10.4,204.7,84.5)" />
<use xlink:href="#f1_21" transform="matrix(10.4,0,0,10.4,212.6,84.5)" />
<use xlink:href="#f1_1z" transform="matrix(10.4,0,0,10.4,230.2,84.5)" />
<use xlink:href="#f1_2b" transform="matrix(10.4,0,0,10.4,238.4,84.5)" />
<use xlink:href="#f1_29" transform="matrix(10.4,0,0,10.4,247.2,84.5)" />
<use xlink:href="#f1_2c" transform="matrix(10.4,0,0,10.4,260.8,84.5)" />
<use xlink:href="#f1_2b" transform="matrix(10.4,0,0,10.4,269.8,84.5)" />
<use xlink:href="#f1_2h" transform="matrix(10.4,0,0,10.4,278.6,84.5)" />
<use xlink:href="#f1_2a" transform="matrix(10.4,0,0,10.4,287.4,84.5)" />
<use xlink:href="#f1_20" transform="matrix(10.4,0,0,10.4,296.2,84.5)" />
<use xlink:href="#f1_24" transform="matrix(10.4,0,0,10.4,313.9,84.5)" />
<use xlink:href="#f1_1x" transform="matrix(10.4,0,0,10.4,322.7,84.5)" />
<use xlink:href="#f1_2i" transform="matrix(10.4,0,0,10.4,331.5,84.5)" />
<use xlink:href="#f1_25" transform="matrix(10.4,0,0,10.4,339.6,84.5)" />
<use xlink:href="#f1_2a" transform="matrix(10.4,0,0,10.4,343.1,84.5)" />
<use xlink:href="#f1_23" transform="matrix(10.4,0,0,10.4,351.9,84.5)" />
<use xlink:href="#f1_29" transform="matrix(10.4,0,0,10.4,369.7,84.5)" />
<use xlink:href="#f1_2b" transform="matrix(10.4,0,0,10.4,383.2,84.5)" />
<use xlink:href="#f1_28" transform="matrix(10.4,0,0,10.4,392,84.5)" />
<use xlink:href="#f1_21" transform="matrix(10.4,0,0,10.4,395.7,84.5)" />
<use xlink:href="#f1_1z" transform="matrix(10.4,0,0,10.4,404.5,84.5)" />
<use xlink:href="#f1_2h" transform="matrix(10.4,0,0,10.4,412.6,84.5)" />
<use xlink:href="#f1_28" transform="matrix(10.4,0,0,10.4,421.4,84.5)" />
<use xlink:href="#f1_1x" transform="matrix(10.4,0,0,10.4,425,84.5)" />
<use xlink:href="#f1_2e" transform="matrix(10.4,0,0,10.4,433.8,84.5)" />
<use xlink:href="#f1_22" transform="matrix(10.4,0,0,10.4,448.1,84.5)" />
<use xlink:href="#f1_2b" transform="matrix(10.4,0,0,10.4,452.7,84.5)" />
<use xlink:href="#f1_2e" transform="matrix(10.4,0,0,10.4,461.5,84.5)" />
<use xlink:href="#f1_29" transform="matrix(10.4,0,0,10.4,466.8,84.5)" />
<use xlink:href="#f1_2h" transform="matrix(10.4,0,0,10.4,480.6,84.5)" />
<use xlink:href="#f1_28" transform="matrix(10.4,0,0,10.4,489.4,84.5)" />
<use xlink:href="#f1_1x" transform="matrix(10.4,0,0,10.4,492.8,84.5)" />
<use xlink:href="#f1_13" transform="matrix(10.4,0,0,10.4,510.6,84.5)" />
<use xlink:href="#f1_r" transform="matrix(7.4,0,0,7.4,522.2,89.8)" />
<use xlink:href="#f1_18" transform="matrix(10.4,0,0,10.4,528.7,84.5)" />
<use xlink:href="#f1_l" transform="matrix(7.4,0,0,7.4,540.2,89.8)" />
<use xlink:href="#f1_p" transform="matrix(7.4,0,0,7.4,546.4,89.8)" />
<use xlink:href="#f1_12" transform="matrix(10.4,0,0,10.4,552.7,84.5)" />
<use xlink:href="#f1_2e" transform="matrix(10.4,0,0,10.4,563.3,84.5)" />
<use xlink:href="#f1_2e" transform="matrix(10.4,0,0,10.4,577.6,84.5)" />
<use xlink:href="#f1_21" transform="matrix(10.4,0,0,10.4,582.9,84.5)" />
<use xlink:href="#f1_1x" transform="matrix(10.4,0,0,10.4,591.9,84.5)" />
<use xlink:href="#f1_1z" transform="matrix(10.4,0,0,10.4,600.7,84.5)" />
<use xlink:href="#f1_2g" transform="matrix(10.4,0,0,10.4,608.9,84.5)" />
<use xlink:href="#f1_2f" transform="matrix(10.4,0,0,10.4,613.3,84.5)" />
<use xlink:href="#f1_2j" transform="matrix(10.4,0,0,10.4,85.2,105.4)" />
<use xlink:href="#f1_25" transform="matrix(10.4,0,0,10.4,96.5,105.4)" />
<use xlink:href="#f1_2g" transform="matrix(10.4,0,0,10.4,100.2,105.4)" />
<use xlink:href="#f1_24" transform="matrix(10.4,0,0,10.4,104.8,105.4)" />
<use xlink:href="#f1_1x" transform="matrix(10.4,0,0,10.4,122.7,105.4)" />
<use xlink:href="#f1_2d" transform="matrix(10.4,0,0,10.4,131.7,105.4)" />
<use xlink:href="#f1_2h" transform="matrix(10.4,0,0,10.4,140.9,105.4)" />
<use xlink:href="#f1_21" transform="matrix(10.4,0,0,10.4,149.9,105.4)" />
<use xlink:href="#f1_2b" transform="matrix(10.4,0,0,10.4,158.9,105.4)" />
<use xlink:href="#f1_2h" transform="matrix(10.4,0,0,10.4,167.8,105.4)" />
<use xlink:href="#f1_2f" transform="matrix(10.4,0,0,10.4,176.8,105.4)" />
<use xlink:href="#f1_1b" transform="matrix(10.4,0,0,10.4,194,105.4)" />
<use xlink:href="#f1_1f" transform="matrix(10.4,0,0,10.4,204.9,105.4)" />
<use xlink:href="#f1_18" transform="matrix(10.4,0,0,10.4,217.5,105.4)" />
<use xlink:href="#f1_2g" transform="matrix(10.4,0,0,10.4,238.2,105.4)" />
<use xlink:href="#f1_2b" transform="matrix(10.4,0,0,10.4,242.8,105.4)" />
<use xlink:href="#f1_23" transform="matrix(10.4,0,0,10.4,261,105.4)" />
<use xlink:href="#f1_25" transform="matrix(10.4,0,0,10.4,269.9,105.4)" />
<use xlink:href="#f1_2i" transform="matrix(10.4,0,0,10.4,273.6,105.4)" />
<use xlink:href="#f1_21" transform="matrix(10.4,0,0,10.4,281.7,105.4)" />
<use xlink:href="#f1_13" transform="matrix(10.4,0,0,10.4,299.6,105.4)" />
<use xlink:href="#f1_r" transform="matrix(7.4,0,0,7.4,311.4,110.7)" />
<use xlink:href="#f1_18" transform="matrix(10.4,0,0,10.4,317.8,105.4)" />
<use xlink:href="#f1_l" transform="matrix(7.4,0,0,7.4,329.6,110.7)" />
<use xlink:href="#f1_p" transform="matrix(7.4,0,0,7.4,335.8,110.7)" />
<use xlink:href="#f1_1f" transform="matrix(10.4,0,0,10.4,342.2,105.4)" />
<use xlink:href="#f1_18" transform="matrix(10.4,0,0,10.4,354.8,105.4)" />
<use xlink:href="#f1_g" transform="matrix(10.4,0,0,10.4,366.6,105.4)" />
<use xlink:href="#f1_2j" transform="matrix(10.4,0,0,10.4,380.1,105.4)" />
<use xlink:href="#f1_24" transform="matrix(10.4,0,0,10.4,391.7,105.4)" />
<use xlink:href="#f1_25" transform="matrix(10.4,0,0,10.4,400.7,105.4)" />
<use xlink:href="#f1_1z" transform="matrix(10.4,0,0,10.4,404.3,105.4)" />
<use xlink:href="#f1_24" transform="matrix(10.4,0,0,10.4,412.6,105.4)" />
<use xlink:href="#f1_25" transform="matrix(10.4,0,0,10.4,430.5,105.4)" />
<use xlink:href="#f1_2f" transform="matrix(10.4,0,0,10.4,434.2,105.4)" />
<use xlink:href="#f1_2b" transform="matrix(10.4,0,0,10.4,451.4,105.4)" />
<use xlink:href="#f1_2c" transform="matrix(10.4,0,0,10.4,460.6,105.4)" />
<use xlink:href="#f1_2g" transform="matrix(10.4,0,0,10.4,469.6,105.4)" />
<use xlink:href="#f1_25" transform="matrix(10.4,0,0,10.4,474.2,105.4)" />
<use xlink:href="#f1_1z" transform="matrix(10.4,0,0,10.4,477.8,105.4)" />
<use xlink:href="#f1_1x" transform="matrix(10.4,0,0,10.4,486.1,105.4)" />
<use xlink:href="#f1_28" transform="matrix(10.4,0,0,10.4,495.1,105.4)" />
<use xlink:href="#f1_28" transform="matrix(10.4,0,0,10.4,498.7,105.4)" />
<use xlink:href="#f1_2l" transform="matrix(10.4,0,0,10.4,502.4,105.4)" />
<use xlink:href="#f1_25" transform="matrix(10.4,0,0,10.4,519.3,105.4)" />
<use xlink:href="#f1_2a" transform="matrix(10.4,0,0,10.4,522.9,105.4)" />
<use xlink:href="#f1_1x" transform="matrix(10.4,0,0,10.4,531.9,105.4)" />
<use xlink:href="#f1_1z" transform="matrix(10.4,0,0,10.4,540.9,105.4)" />
<use xlink:href="#f1_2g" transform="matrix(10.4,0,0,10.4,549.1,105.4)" />
<use xlink:href="#f1_25" transform="matrix(10.4,0,0,10.4,553.7,105.4)" />
<use xlink:href="#f1_2i" transform="matrix(10.4,0,0,10.4,557.4,105.4)" />
<use xlink:href="#f1_21" transform="matrix(10.4,0,0,10.4,565.5,105.4)" />
<use xlink:href="#f1_i" transform="matrix(10.4,0,0,10.4,574.4,105.4)" />
<use xlink:href="#f1_17" transform="matrix(10.4,0,0,10.4,588.2,105.4)" />
<use xlink:href="#f1_25" transform="matrix(10.4,0,0,10.4,600.8,105.4)" />
<use xlink:href="#f1_2i" transform="matrix(10.4,0,0,10.4,604.5,105.4)" />
<use xlink:href="#f1_21" transform="matrix(10.4,0,0,10.4,612.6,105.4)" />
<use xlink:href="#f1_29" transform="matrix(10.4,0,0,10.4,85.2,126.3)" />
<use xlink:href="#f1_21" transform="matrix(10.4,0,0,10.4,98.7,126.3)" />
<use xlink:href="#f1_1z" transform="matrix(10.4,0,0,10.4,107.5,126.3)" />
<use xlink:href="#f1_24" transform="matrix(10.4,0,0,10.4,115.6,126.3)" />
<use xlink:href="#f1_1x" transform="matrix(10.4,0,0,10.4,124.4,126.3)" />
<use xlink:href="#f1_2a" transform="matrix(10.4,0,0,10.4,133.2,126.3)" />
<use xlink:href="#f1_25" transform="matrix(10.4,0,0,10.4,142,126.3)" />
<use xlink:href="#f1_2f" transform="matrix(10.4,0,0,10.4,145.5,126.3)" />
<use xlink:href="#f1_29" transform="matrix(10.4,0,0,10.4,153.5,126.3)" />
<use xlink:href="#f1_22" transform="matrix(10.4,0,0,10.4,175,126.3)" />
<use xlink:href="#f1_2b" transform="matrix(10.4,0,0,10.4,179.6,126.3)" />
<use xlink:href="#f1_2e" transform="matrix(10.4,0,0,10.4,188.4,126.3)" />
<use xlink:href="#f1_2g" transform="matrix(10.4,0,0,10.4,201.8,126.3)" />
<use xlink:href="#f1_24" transform="matrix(10.4,0,0,10.4,206.2,126.3)" />
<use xlink:href="#f1_21" transform="matrix(10.4,0,0,10.4,215,126.3)" />
<use xlink:href="#f1_2e" transform="matrix(10.4,0,0,10.4,231.6,126.3)" />
<use xlink:href="#f1_21" transform="matrix(10.4,0,0,10.4,236.9,126.3)" />
<use xlink:href="#f1_1x" transform="matrix(10.4,0,0,10.4,245.7,126.3)" />
<use xlink:href="#f1_1z" transform="matrix(10.4,0,0,10.4,254.5,126.3)" />
<use xlink:href="#f1_2g" transform="matrix(10.4,0,0,10.4,262.6,126.3)" />
<use xlink:href="#f1_25" transform="matrix(10.4,0,0,10.4,267,126.3)" />
<use xlink:href="#f1_2b" transform="matrix(10.4,0,0,10.4,270.5,126.3)" />
<use xlink:href="#f1_2a" transform="matrix(10.4,0,0,10.4,279.3,126.3)" />
<use xlink:href="#f1_i" transform="matrix(10.4,0,0,10.4,288.1,126.3)" />
</g>
<image preserveAspectRatio="none" x="68" y="143" width="528" height="14" xlink:href="img/1.png" />
<image preserveAspectRatio="none" x="68" y="157" width="528" height="14" xlink:href="img/2.png" />
<image preserveAspectRatio="none" x="68" y="170" width="528" height="15" xlink:href="img/3.png" />
<image preserveAspectRatio="none" x="68" y="184" width="528" height="15" xlink:href="img/4.png" />
<image preserveAspectRatio="none" x="68" y="198" width="528" height="15" xlink:href="img/5.png" />
<image preserveAspectRatio="none" x="68" y="212" width="528" height="15" xlink:href="img/6.png" />
<image preserveAspectRatio="none" x="68" y="226" width="528" height="15" xlink:href="img/7.png" />
<image preserveAspectRatio="none" x="68" y="240" width="528" height="14" xlink:href="img/8.png" />
<image preserveAspectRatio="none" x="68" y="254" width="528" height="14" xlink:href="img/9.png" />
<image preserveAspectRatio="none" x="68" y="268" width="528" height="14" xlink:href="img/10.png" />
<image preserveAspectRatio="none" x="68" y="282" width="528" height="14" xlink:href="img/11.png" />
<image preserveAspectRatio="none" x="68" y="296" width="528" height="14" xlink:href="img/12.png" />
<image preserveAspectRatio="none" x="68" y="310" width="528" height="14" xlink:href="img/13.png" />
<image preserveAspectRatio="none" x="68" y="324" width="528" height="14" xlink:href="img/14.png" />
<image preserveAspectRatio="none" x="68" y="338" width="528" height="14" xlink:href="img/15.png" />
<image preserveAspectRatio="none" x="68" y="352" width="528" height="14" xlink:href="img/16.png" />
<image preserveAspectRatio="none" x="68" y="366" width="528" height="14" xlink:href="img/17.png" />
<image preserveAspectRatio="none" x="68" y="379" width="528" height="15" xlink:href="img/18.png" />
<image preserveAspectRatio="none" x="68" y="393" width="528" height="11" xlink:href="img/19.png" />
<g fill="#000000" >
<use xlink:href="#f1_11" transform="matrix(10.4,0,0,10.4,85.2,431.4)" />
<use xlink:href="#f1_2e" transform="matrix(10.4,0,0,10.4,103.1,431.4)" />
<use xlink:href="#f1_1x" transform="matrix(10.4,0,0,10.4,108.4,431.4)" />
<use xlink:href="#f1_1z" transform="matrix(10.4,0,0,10.4,117.2,431.4)" />
<use xlink:href="#f1_21" transform="matrix(10.4,0,0,10.4,125.3,431.4)" />
<use xlink:href="#f1_29" transform="matrix(10.4,0,0,10.4,134.1,431.4)" />
<use xlink:href="#f1_25" transform="matrix(10.4,0,0,10.4,147.7,431.4)" />
<use xlink:href="#f1_1z" transform="matrix(10.4,0,0,10.4,151.2,431.4)" />
<use xlink:href="#f1_29" transform="matrix(10.4,0,0,10.4,166.4,431.4)" />
<use xlink:href="#f1_25" transform="matrix(10.4,0,0,10.4,179.9,431.4)" />
<use xlink:href="#f1_2k" transform="matrix(10.4,0,0,10.4,183.4,431.4)" />
<use xlink:href="#f1_2g" transform="matrix(10.4,0,0,10.4,191.3,431.4)" />
<use xlink:href="#f1_2h" transform="matrix(10.4,0,0,10.4,195.7,431.4)" />
<use xlink:href="#f1_2e" transform="matrix(10.4,0,0,10.4,204.5,431.4)" />
<use xlink:href="#f1_21" transform="matrix(10.4,0,0,10.4,209.8,431.4)" />
<use xlink:href="#f1_25" transform="matrix(10.4,0,0,10.4,225.9,431.4)" />
<use xlink:href="#f1_2f" transform="matrix(10.4,0,0,10.4,229.4,431.4)" />
<use xlink:href="#f1_2b" transform="matrix(10.4,0,0,10.4,244.6,431.4)" />
<use xlink:href="#f1_1y" transform="matrix(10.4,0,0,10.4,253.4,431.4)" />
<use xlink:href="#f1_2g" transform="matrix(10.4,0,0,10.4,262.2,431.4)" />
<use xlink:href="#f1_1x" transform="matrix(10.4,0,0,10.4,266.6,431.4)" />
<use xlink:href="#f1_25" transform="matrix(10.4,0,0,10.4,275.4,431.4)" />
<use xlink:href="#f1_2a" transform="matrix(10.4,0,0,10.4,278.9,431.4)" />
<use xlink:href="#f1_21" transform="matrix(10.4,0,0,10.4,287.7,431.4)" />
<use xlink:href="#f1_20" transform="matrix(10.4,0,0,10.4,296.5,431.4)" />
<use xlink:href="#f1_2j" transform="matrix(10.4,0,0,10.4,312.7,431.4)" />
<use xlink:href="#f1_24" transform="matrix(10.4,0,0,10.4,323.8,431.4)" />
<use xlink:href="#f1_25" transform="matrix(10.4,0,0,10.4,332.6,431.4)" />
<use xlink:href="#f1_1z" transform="matrix(10.4,0,0,10.4,336.1,431.4)" />
<use xlink:href="#f1_24" transform="matrix(10.4,0,0,10.4,344.2,431.4)" />
<use xlink:href="#f1_25" transform="matrix(10.4,0,0,10.4,360.3,431.4)" />
<use xlink:href="#f1_2f" transform="matrix(10.4,0,0,10.4,363.8,431.4)" />
<use xlink:href="#f1_2b" transform="matrix(10.4,0,0,10.4,379,431.4)" />
<use xlink:href="#f1_2c" transform="matrix(10.4,0,0,10.4,387.8,431.4)" />
<use xlink:href="#f1_2g" transform="matrix(10.4,0,0,10.4,396.6,431.4)" />
<use xlink:href="#f1_25" transform="matrix(10.4,0,0,10.4,401,431.4)" />
<use xlink:href="#f1_1z" transform="matrix(10.4,0,0,10.4,404.5,431.4)" />
<use xlink:href="#f1_1x" transform="matrix(10.4,0,0,10.4,412.6,431.4)" />
<use xlink:href="#f1_28" transform="matrix(10.4,0,0,10.4,421.4,431.4)" />
<use xlink:href="#f1_28" transform="matrix(10.4,0,0,10.4,424.8,431.4)" />
<use xlink:href="#f1_2l" transform="matrix(10.4,0,0,10.4,428.3,431.4)" />
<use xlink:href="#f1_25" transform="matrix(10.4,0,0,10.4,443.2,431.4)" />
<use xlink:href="#f1_2a" transform="matrix(10.4,0,0,10.4,446.7,431.4)" />
<use xlink:href="#f1_1x" transform="matrix(10.4,0,0,10.4,455.5,431.4)" />
<use xlink:href="#f1_1z" transform="matrix(10.4,0,0,10.4,464.3,431.4)" />
<use xlink:href="#f1_2g" transform="matrix(10.4,0,0,10.4,472.3,431.4)" />
<use xlink:href="#f1_25" transform="matrix(10.4,0,0,10.4,476.7,431.4)" />
<use xlink:href="#f1_2i" transform="matrix(10.4,0,0,10.4,480.2,431.4)" />
<use xlink:href="#f1_21" transform="matrix(10.4,0,0,10.4,488.1,431.4)" />
<use xlink:href="#f1_i" transform="matrix(10.4,0,0,10.4,496.9,431.4)" />
<use xlink:href="#f1_1t" transform="matrix(10.4,0,0,10.4,501.3,431.4)" />
<use xlink:href="#f1_l" transform="matrix(10.4,0,0,10.4,41.9,461.4)" />
<use xlink:href="#f1_t" transform="matrix(10.4,0,0,10.4,51.1,461.4)" />
<use xlink:href="#f1_i" transform="matrix(10.4,0,0,10.4,60.4,461.4)" />
<use xlink:href="#f1_11" transform="matrix(10.4,0,0,10.4,85.2,461.4)" />
<use xlink:href="#f1_2a" transform="matrix(10.4,0,0,10.4,95.8,461.4)" />
<use xlink:href="#f1_2b" transform="matrix(10.4,0,0,10.4,110.5,461.4)" />
<use xlink:href="#f1_2e" transform="matrix(10.4,0,0,10.4,119.3,461.4)" />
<use xlink:href="#f1_23" transform="matrix(10.4,0,0,10.4,124.6,461.4)" />
<use xlink:href="#f1_1x" transform="matrix(10.4,0,0,10.4,133.4,461.4)" />
<use xlink:href="#f1_2a" transform="matrix(10.4,0,0,10.4,142.2,461.4)" />
<use xlink:href="#f1_25" transform="matrix(10.4,0,0,10.4,151,461.4)" />
<use xlink:href="#f1_1z" transform="matrix(10.4,0,0,10.4,154.5,461.4)" />
<use xlink:href="#f1_1z" transform="matrix(10.4,0,0,10.4,168.4,461.4)" />
<use xlink:href="#f1_2b" transform="matrix(10.4,0,0,10.4,176.5,461.4)" />
<use xlink:href="#f1_29" transform="matrix(10.4,0,0,10.4,185.3,461.4)" />
<use xlink:href="#f1_2c" transform="matrix(10.4,0,0,10.4,198.8,461.4)" />
<use xlink:href="#f1_2b" transform="matrix(10.4,0,0,10.4,207.6,461.4)" />
<use xlink:href="#f1_2h" transform="matrix(10.4,0,0,10.4,216.4,461.4)" />
<use xlink:href="#f1_2a" transform="matrix(10.4,0,0,10.4,225.2,461.4)" />
<use xlink:href="#f1_20" transform="matrix(10.4,0,0,10.4,234,461.4)" />
<use xlink:href="#f1_13" transform="matrix(10.4,0,0,10.4,248.7,461.4)" />
<use xlink:href="#f1_s" transform="matrix(7.4,0,0,7.4,260.3,466.7)" />
<use xlink:href="#f1_18" transform="matrix(10.4,0,0,10.4,266.5,461.4)" />
<use xlink:href="#f1_t" transform="matrix(7.4,0,0,7.4,278,466.7)" />
</g>
<g clip-path="url(#c0_78)">
<g fill="#000000" >
<use xlink:href="#f1_12" transform="matrix(10.4,0,0,10.4,284.3,461.4)" />
<use xlink:href="#f1_2e" transform="matrix(10.4,0,0,10.4,294.9,461.4)" />
<use xlink:href="#f1_24" transform="matrix(10.4,0,0,10.4,306.1,461.4)" />
<use xlink:href="#f1_1x" transform="matrix(10.4,0,0,10.4,314.9,461.4)" />
<use xlink:href="#f1_2f" transform="matrix(10.4,0,0,10.4,323.7,461.4)" />
<use xlink:href="#f1_2g" transform="matrix(10.4,0,0,10.4,337.6,461.4)" />
<use xlink:href="#f1_24" transform="matrix(10.4,0,0,10.4,342,461.4)" />
<use xlink:href="#f1_2e" transform="matrix(10.4,0,0,10.4,350.8,461.4)" />
<use xlink:href="#f1_21" transform="matrix(10.4,0,0,10.4,356.1,461.4)" />
<use xlink:href="#f1_21" transform="matrix(10.4,0,0,10.4,364.9,461.4)" />
<use xlink:href="#f1_25" transform="matrix(10.4,0,0,10.4,379.8,461.4)" />
<use xlink:href="#f1_2f" transform="matrix(10.4,0,0,10.4,383.3,461.4)" />
<use xlink:href="#f1_2b" transform="matrix(10.4,0,0,10.4,391.3,461.4)" />
<use xlink:href="#f1_29" transform="matrix(10.4,0,0,10.4,400.1,461.4)" />
<use xlink:href="#f1_21" transform="matrix(10.4,0,0,10.4,413.7,461.4)" />
<use xlink:href="#f1_2e" transform="matrix(10.4,0,0,10.4,422.5,461.4)" />
<use xlink:href="#f1_2f" transform="matrix(10.4,0,0,10.4,427.8,461.4)" />
<use xlink:href="#f1_11" transform="matrix(10.4,0,0,10.4,440.8,461.4)" />
<use xlink:href="#f1_g" transform="matrix(10.4,0,0,10.4,451.5,461.4)" />
<use xlink:href="#f1_12" transform="matrix(10.4,0,0,10.4,461.7,461.4)" />
<use xlink:href="#f1_1x" transform="matrix(10.4,0,0,10.4,478.2,461.4)" />
<use xlink:href="#f1_2a" transform="matrix(10.4,0,0,10.4,487,461.4)" />
<use xlink:href="#f1_20" transform="matrix(10.4,0,0,10.4,495.8,461.4)" />
<use xlink:href="#f1_13" transform="matrix(10.4,0,0,10.4,510.5,461.4)" />
<use xlink:href="#f1_i" transform="matrix(10.4,0,0,10.4,522,461.4)" />
<use xlink:href="#f1_11" transform="matrix(10.4,0,0,10.4,531.6,461.4)" />
<use xlink:href="#f1_25" transform="matrix(10.4,0,0,10.4,547.1,461.4)" />
<use xlink:href="#f1_2f" transform="matrix(10.4,0,0,10.4,550.6,461.4)" />
<use xlink:href="#f1_2b" transform="matrix(10.4,0,0,10.4,564.5,461.4)" />
<use xlink:href="#f1_2c" transform="matrix(10.4,0,0,10.4,573.3,461.4)" />
<use xlink:href="#f1_2g" transform="matrix(10.4,0,0,10.4,582.1,461.4)" />
<use xlink:href="#f1_25" transform="matrix(10.4,0,0,10.4,586.5,461.4)" />
<use xlink:href="#f1_1z" transform="matrix(10.4,0,0,10.4,590,461.4)" />
<use xlink:href="#f1_1x" transform="matrix(10.4,0,0,10.4,598.1,461.4)" />
<use xlink:href="#f1_28" transform="matrix(10.4,0,0,10.4,606.9,461.4)" />
<use xlink:href="#f1_28" transform="matrix(10.4,0,0,10.4,610.4,461.4)" />
<use xlink:href="#f1_2l" transform="matrix(10.4,0,0,10.4,613.9,461.4)" />
</g>
</g>
<g fill="#000000" >
<use xlink:href="#f1_1x" transform="matrix(10.4,0,0,10.4,85.2,482.3)" />
<use xlink:href="#f1_1z" transform="matrix(10.4,0,0,10.4,94,482.3)" />
<use xlink:href="#f1_2g" transform="matrix(10.4,0,0,10.4,102,482.3)" />
<use xlink:href="#f1_25" transform="matrix(10.4,0,0,10.4,106.4,482.3)" />
<use xlink:href="#f1_2i" transform="matrix(10.4,0,0,10.4,109.9,482.3)" />
<use xlink:href="#f1_21" transform="matrix(10.4,0,0,10.4,117.8,482.3)" />
<use xlink:href="#f1_i" transform="matrix(10.4,0,0,10.4,126.6,482.3)" />
<use xlink:href="#f1_12" transform="matrix(10.4,0,0,10.4,136.1,482.3)" />
<use xlink:href="#f1_2b" transform="matrix(10.4,0,0,10.4,146.8,482.3)" />
<use xlink:href="#f1_2g" transform="matrix(10.4,0,0,10.4,155.6,482.3)" />
<use xlink:href="#f1_24" transform="matrix(10.4,0,0,10.4,160,482.3)" />
<use xlink:href="#f1_11" transform="matrix(10.4,0,0,10.4,173.2,482.3)" />
<use xlink:href="#f1_1x" transform="matrix(10.4,0,0,10.4,188,482.3)" />
<use xlink:href="#f1_2a" transform="matrix(10.4,0,0,10.4,196.8,482.3)" />
<use xlink:href="#f1_20" transform="matrix(10.4,0,0,10.4,205.6,482.3)" />
<use xlink:href="#f1_12" transform="matrix(10.4,0,0,10.4,219.5,482.3)" />
<use xlink:href="#f1_23" transform="matrix(10.4,0,0,10.4,235.5,482.3)" />
<use xlink:href="#f1_1x" transform="matrix(10.4,0,0,10.4,244.3,482.3)" />
<use xlink:href="#f1_2i" transform="matrix(10.4,0,0,10.4,253.1,482.3)" />
<use xlink:href="#f1_21" transform="matrix(10.4,0,0,10.4,261,482.3)" />
<use xlink:href="#f1_2g" transform="matrix(10.4,0,0,10.4,274.9,482.3)" />
<use xlink:href="#f1_24" transform="matrix(10.4,0,0,10.4,279.3,482.3)" />
<use xlink:href="#f1_21" transform="matrix(10.4,0,0,10.4,288.1,482.3)" />
<use xlink:href="#f1_2j" transform="matrix(10.4,0,0,10.4,302,482.3)" />
<use xlink:href="#f1_24" transform="matrix(10.4,0,0,10.4,313.2,482.3)" />
<use xlink:href="#f1_25" transform="matrix(10.4,0,0,10.4,322,482.3)" />
<use xlink:href="#f1_2g" transform="matrix(10.4,0,0,10.4,325.5,482.3)" />
<use xlink:href="#f1_21" transform="matrix(10.4,0,0,10.4,329.9,482.3)" />
<use xlink:href="#f1_2c" transform="matrix(10.4,0,0,10.4,344,482.3)" />
<use xlink:href="#f1_2e" transform="matrix(10.4,0,0,10.4,352.8,482.3)" />
<use xlink:href="#f1_21" transform="matrix(10.4,0,0,10.4,358.1,482.3)" />
<use xlink:href="#f1_1z" transform="matrix(10.4,0,0,10.4,366.9,482.3)" />
<use xlink:href="#f1_25" transform="matrix(10.4,0,0,10.4,375,482.3)" />
<use xlink:href="#f1_2c" transform="matrix(10.4,0,0,10.4,378.5,482.3)" />
<use xlink:href="#f1_25" transform="matrix(10.4,0,0,10.4,387.3,482.3)" />
<use xlink:href="#f1_2g" transform="matrix(10.4,0,0,10.4,390.8,482.3)" />
<use xlink:href="#f1_1x" transform="matrix(10.4,0,0,10.4,395,482.3)" />
<use xlink:href="#f1_2g" transform="matrix(10.4,0,0,10.4,403.8,482.3)" />
<use xlink:href="#f1_21" transform="matrix(10.4,0,0,10.4,408.2,482.3)" />
<use xlink:href="#f1_2j" transform="matrix(10.4,0,0,10.4,422.1,482.3)" />
<use xlink:href="#f1_24" transform="matrix(10.4,0,0,10.4,433.3,482.3)" />
<use xlink:href="#f1_21" transform="matrix(10.4,0,0,10.4,442.1,482.3)" />
<use xlink:href="#f1_2a" transform="matrix(10.4,0,0,10.4,450.9,482.3)" />
<use xlink:href="#f1_2j" transform="matrix(10.4,0,0,10.4,464.8,482.3)" />
<use xlink:href="#f1_1x" transform="matrix(10.4,0,0,10.4,476,482.3)" />
<use xlink:href="#f1_2e" transform="matrix(10.4,0,0,10.4,484.8,482.3)" />
<use xlink:href="#f1_29" transform="matrix(10.4,0,0,10.4,490.1,482.3)" />
<use xlink:href="#f1_21" transform="matrix(10.4,0,0,10.4,503.7,482.3)" />
<use xlink:href="#f1_20" transform="matrix(10.4,0,0,10.4,512.5,482.3)" />
<use xlink:href="#f1_2j" transform="matrix(10.4,0,0,10.4,526.6,482.3)" />
<use xlink:href="#f1_25" transform="matrix(10.4,0,0,10.4,537.8,482.3)" />
<use xlink:href="#f1_2g" transform="matrix(10.4,0,0,10.4,541.3,482.3)" />
<use xlink:href="#f1_24" transform="matrix(10.4,0,0,10.4,545.7,482.3)" />
<use xlink:href="#f1_1x" transform="matrix(10.4,0,0,10.4,559.6,482.3)" />
<use xlink:href="#f1_28" transform="matrix(10.4,0,0,10.4,568.4,482.3)" />
<use xlink:href="#f1_1z" transform="matrix(10.4,0,0,10.4,571.9,482.3)" />
<use xlink:href="#f1_2b" transform="matrix(10.4,0,0,10.4,579.9,482.3)" />
<use xlink:href="#f1_24" transform="matrix(10.4,0,0,10.4,588.7,482.3)" />
<use xlink:href="#f1_2b" transform="matrix(10.4,0,0,10.4,597.5,482.3)" />
<use xlink:href="#f1_28" transform="matrix(10.4,0,0,10.4,606.3,482.3)" />
<use xlink:href="#f1_25" transform="matrix(10.4,0,0,10.4,609.8,482.3)" />
<use xlink:href="#f1_1z" transform="matrix(10.4,0,0,10.4,613.3,482.3)" />
<use xlink:href="#f1_11" transform="matrix(10.4,0,0,10.4,85.2,503.2)" />
<use xlink:href="#f1_23" transform="matrix(10.4,0,0,10.4,96,503.2)" />
<use xlink:href="#f1_1e" transform="matrix(10.4,0,0,10.4,105,503.2)" />
<use xlink:href="#f1_1f" transform="matrix(10.4,0,0,10.4,116.7,503.2)" />
<use xlink:href="#f1_n" transform="matrix(7.4,0,0,7.4,129.4,508.5)" />
<use xlink:href="#f1_2f" transform="matrix(10.4,0,0,10.4,144.8,503.2)" />
<use xlink:href="#f1_2b" transform="matrix(10.4,0,0,10.4,153,503.2)" />
<use xlink:href="#f1_28" transform="matrix(10.4,0,0,10.4,162,503.2)" />
<use xlink:href="#f1_2h" transform="matrix(10.4,0,0,10.4,165.6,503.2)" />
<use xlink:href="#f1_2g" transform="matrix(10.4,0,0,10.4,174.6,503.2)" />
<use xlink:href="#f1_25" transform="matrix(10.4,0,0,10.4,179.2,503.2)" />
<use xlink:href="#f1_2b" transform="matrix(10.4,0,0,10.4,182.9,503.2)" />
<use xlink:href="#f1_2a" transform="matrix(10.4,0,0,10.4,192,503.2)" />
<use xlink:href="#f1_25" transform="matrix(10.4,0,0,10.4,210,503.2)" />
<use xlink:href="#f1_2a" transform="matrix(10.4,0,0,10.4,213.7,503.2)" />
<use xlink:href="#f1_1x" transform="matrix(10.4,0,0,10.4,231.6,503.2)" />
<use xlink:href="#f1_28" transform="matrix(10.4,0,0,10.4,240.6,503.2)" />
<use xlink:href="#f1_27" transform="matrix(10.4,0,0,10.4,244.3,503.2)" />
<use xlink:href="#f1_1x" transform="matrix(10.4,0,0,10.4,252.5,503.2)" />
<use xlink:href="#f1_28" transform="matrix(10.4,0,0,10.4,261.5,503.2)" />
<use xlink:href="#f1_25" transform="matrix(10.4,0,0,10.4,265.2,503.2)" />
<use xlink:href="#f1_2a" transform="matrix(10.4,0,0,10.4,268.8,503.2)" />
<use xlink:href="#f1_21" transform="matrix(10.4,0,0,10.4,277.8,503.2)" />
<use xlink:href="#f1_29" transform="matrix(10.4,0,0,10.4,295.8,503.2)" />
<use xlink:href="#f1_21" transform="matrix(10.4,0,0,10.4,309.5,503.2)" />
<use xlink:href="#f1_20" transform="matrix(10.4,0,0,10.4,318.7,503.2)" />
<use xlink:href="#f1_25" transform="matrix(10.4,0,0,10.4,327.7,503.2)" />
<use xlink:href="#f1_2h" transform="matrix(10.4,0,0,10.4,331.3,503.2)" />
<use xlink:href="#f1_29" transform="matrix(10.4,0,0,10.4,340.3,503.2)" />
<use xlink:href="#f1_i" transform="matrix(10.4,0,0,10.4,354.1,503.2)" />
<use xlink:href="#f1_12" transform="matrix(10.4,0,0,10.4,367.6,503.2)" />
<use xlink:href="#f1_21" transform="matrix(10.4,0,0,10.4,378.4,503.2)" />
<use xlink:href="#f1_2a" transform="matrix(10.4,0,0,10.4,387.4,503.2)" />
<use xlink:href="#f1_2m" transform="matrix(10.4,0,0,10.4,396.4,503.2)" />
<use xlink:href="#f1_2b" transform="matrix(10.4,0,0,10.4,404.3,503.2)" />
<use xlink:href="#f1_25" transform="matrix(10.4,0,0,10.4,413.3,503.2)" />
<use xlink:href="#f1_1z" transform="matrix(10.4,0,0,10.4,416.9,503.2)" />
<use xlink:href="#f1_1x" transform="matrix(10.4,0,0,10.4,434.2,503.2)" />
<use xlink:href="#f1_1z" transform="matrix(10.4,0,0,10.4,443.3,503.2)" />
<use xlink:href="#f1_25" transform="matrix(10.4,0,0,10.4,451.6,503.2)" />
<use xlink:href="#f1_20" transform="matrix(10.4,0,0,10.4,455.3,503.2)" />
<use xlink:href="#f1_g" transform="matrix(10.4,0,0,10.4,464.2,503.2)" />
<use xlink:href="#f1_2g" transform="matrix(10.4,0,0,10.4,477.8,503.2)" />
<use xlink:href="#f1_21" transform="matrix(10.4,0,0,10.4,482.4,503.2)" />
<use xlink:href="#f1_2e" transform="matrix(10.4,0,0,10.4,491.4,503.2)" />
<use xlink:href="#f1_21" transform="matrix(10.4,0,0,10.4,496.9,503.2)" />
<use xlink:href="#f1_2c" transform="matrix(10.4,0,0,10.4,505.8,503.2)" />
<use xlink:href="#f1_24" transform="matrix(10.4,0,0,10.4,514.8,503.2)" />
<use xlink:href="#f1_2g" transform="matrix(10.4,0,0,10.4,523.8,503.2)" />
<use xlink:href="#f1_24" transform="matrix(10.4,0,0,10.4,528.4,503.2)" />
<use xlink:href="#f1_1x" transform="matrix(10.4,0,0,10.4,537.4,503.2)" />
<use xlink:href="#f1_28" transform="matrix(10.4,0,0,10.4,546.3,503.2)" />
<use xlink:href="#f1_25" transform="matrix(10.4,0,0,10.4,550,503.2)" />
<use xlink:href="#f1_1z" transform="matrix(10.4,0,0,10.4,553.9,503.2)" />
<use xlink:href="#f1_1x" transform="matrix(10.4,0,0,10.4,571.1,503.2)" />
<use xlink:href="#f1_2a" transform="matrix(10.4,0,0,10.4,580.1,503.2)" />
<use xlink:href="#f1_20" transform="matrix(10.4,0,0,10.4,589.1,503.2)" />
<use xlink:href="#f1_2c" transform="matrix(10.4,0,0,10.4,607,503.2)" />
<use xlink:href="#f1_h" transform="matrix(10.4,0,0,10.4,616,503.2)" />
<use xlink:href="#f1_1y" transform="matrix(10.4,0,0,10.4,85.2,524.1)" />
<use xlink:href="#f1_2e" transform="matrix(10.4,0,0,10.4,94,524.1)" />
<use xlink:href="#f1_2b" transform="matrix(10.4,0,0,10.4,99.3,524.1)" />
<use xlink:href="#f1_29" transform="matrix(10.4,0,0,10.4,108.1,524.1)" />
<use xlink:href="#f1_2b" transform="matrix(10.4,0,0,10.4,121.6,524.1)" />
<use xlink:href="#f1_1y" transform="matrix(10.4,0,0,10.4,130.4,524.1)" />
<use xlink:href="#f1_21" transform="matrix(10.4,0,0,10.4,139.2,524.1)" />
<use xlink:href="#f1_2a" transform="matrix(10.4,0,0,10.4,148,524.1)" />
<use xlink:href="#f1_2m" transform="matrix(10.4,0,0,10.4,156.8,524.1)" />
<use xlink:href="#f1_2b" transform="matrix(10.4,0,0,10.4,164.5,524.1)" />
<use xlink:href="#f1_25" transform="matrix(10.4,0,0,10.4,173.3,524.1)" />
<use xlink:href="#f1_1z" transform="matrix(10.4,0,0,10.4,176.8,524.1)" />
<use xlink:href="#f1_1x" transform="matrix(10.4,0,0,10.4,191.1,524.1)" />
<use xlink:href="#f1_1z" transform="matrix(10.4,0,0,10.4,199.9,524.1)" />
<use xlink:href="#f1_25" transform="matrix(10.4,0,0,10.4,208,524.1)" />
<use xlink:href="#f1_20" transform="matrix(10.4,0,0,10.4,211.5,524.1)" />
<use xlink:href="#f1_2j" transform="matrix(10.4,0,0,10.4,226.7,524.1)" />
<use xlink:href="#f1_21" transform="matrix(10.4,0,0,10.4,237.9,524.1)" />
<use xlink:href="#f1_2e" transform="matrix(10.4,0,0,10.4,246.7,524.1)" />
<use xlink:href="#f1_21" transform="matrix(10.4,0,0,10.4,252,524.1)" />
<use xlink:href="#f1_2b" transform="matrix(10.4,0,0,10.4,267,524.1)" />
<use xlink:href="#f1_1y" transform="matrix(10.4,0,0,10.4,275.8,524.1)" />
<use xlink:href="#f1_2g" transform="matrix(10.4,0,0,10.4,284.6,524.1)" />
<use xlink:href="#f1_1x" transform="matrix(10.4,0,0,10.4,288.8,524.1)" />
<use xlink:href="#f1_25" transform="matrix(10.4,0,0,10.4,297.6,524.1)" />
<use xlink:href="#f1_2a" transform="matrix(10.4,0,0,10.4,301.1,524.1)" />
<use xlink:href="#f1_21" transform="matrix(10.4,0,0,10.4,309.9,524.1)" />
<use xlink:href="#f1_20" transform="matrix(10.4,0,0,10.4,318.7,524.1)" />
<use xlink:href="#f1_2b" transform="matrix(10.4,0,0,10.4,333.7,524.1)" />
<use xlink:href="#f1_2a" transform="matrix(10.4,0,0,10.4,342.5,524.1)" />
<use xlink:href="#f1_2b" transform="matrix(10.4,0,0,10.4,357.6,524.1)" />
<use xlink:href="#f1_2k" transform="matrix(10.4,0,0,10.4,366.4,524.1)" />
<use xlink:href="#f1_25" transform="matrix(10.4,0,0,10.4,374.3,524.1)" />
<use xlink:href="#f1_20" transform="matrix(10.4,0,0,10.4,377.7,524.1)" />
<use xlink:href="#f1_1x" transform="matrix(10.4,0,0,10.4,386.5,524.1)" />
<use xlink:href="#f1_2g" transform="matrix(10.4,0,0,10.4,395.3,524.1)" />
<use xlink:href="#f1_25" transform="matrix(10.4,0,0,10.4,399.7,524.1)" />
<use xlink:href="#f1_2b" transform="matrix(10.4,0,0,10.4,403.2,524.1)" />
<use xlink:href="#f1_2a" transform="matrix(10.4,0,0,10.4,412,524.1)" />
<use xlink:href="#f1_2b" transform="matrix(10.4,0,0,10.4,427.2,524.1)" />
<use xlink:href="#f1_22" transform="matrix(10.4,0,0,10.4,436,524.1)" />
<use xlink:href="#f1_11" transform="matrix(10.4,0,0,10.4,445.9,524.1)" />
<use xlink:href="#f1_g" transform="matrix(10.4,0,0,10.4,456.6,524.1)" />
<use xlink:href="#f1_12" transform="matrix(10.4,0,0,10.4,467.2,524.1)" />
<use xlink:href="#f1_1x" transform="matrix(10.4,0,0,10.4,484.1,524.1)" />
<use xlink:href="#f1_2a" transform="matrix(10.4,0,0,10.4,492.9,524.1)" />
<use xlink:href="#f1_20" transform="matrix(10.4,0,0,10.4,501.7,524.1)" />
<use xlink:href="#f1_13" transform="matrix(10.4,0,0,10.4,516.9,524.1)" />
<use xlink:href="#f1_2e" transform="matrix(10.4,0,0,10.4,534.7,524.1)" />
<use xlink:href="#f1_21" transform="matrix(10.4,0,0,10.4,540,524.1)" />
<use xlink:href="#f1_2f" transform="matrix(10.4,0,0,10.4,548.8,524.1)" />
<use xlink:href="#f1_2c" transform="matrix(10.4,0,0,10.4,556.8,524.1)" />
<use xlink:href="#f1_21" transform="matrix(10.4,0,0,10.4,565.6,524.1)" />
<use xlink:href="#f1_1z" transform="matrix(10.4,0,0,10.4,574.4,524.1)" />
<use xlink:href="#f1_2g" transform="matrix(10.4,0,0,10.4,582.5,524.1)" />
<use xlink:href="#f1_25" transform="matrix(10.4,0,0,10.4,586.9,524.1)" />
<use xlink:href="#f1_2i" transform="matrix(10.4,0,0,10.4,590.4,524.1)" />
<use xlink:href="#f1_21" transform="matrix(10.4,0,0,10.4,598.3,524.1)" />
<use xlink:href="#f1_28" transform="matrix(10.4,0,0,10.4,607.1,524.1)" />
<use xlink:href="#f1_2l" transform="matrix(10.4,0,0,10.4,610.5,524.1)" />
<use xlink:href="#f1_i" transform="matrix(10.4,0,0,10.4,617,524.1)" />
<use xlink:href="#f1_19" transform="matrix(10.4,0,0,10.4,85.2,545.2)" />
<use xlink:href="#f1_20" transform="matrix(10.4,0,0,10.4,89.6,545.2)" />
<use xlink:href="#f1_21" transform="matrix(10.4,0,0,10.4,98.4,545.2)" />
<use xlink:href="#f1_2a" transform="matrix(10.4,0,0,10.4,107.2,545.2)" />
<use xlink:href="#f1_2g" transform="matrix(10.4,0,0,10.4,116,545.2)" />
<use xlink:href="#f1_25" transform="matrix(10.4,0,0,10.4,120.4,545.2)" />
<use xlink:href="#f1_22" transform="matrix(10.4,0,0,10.4,123.9,545.2)" />
<use xlink:href="#f1_2l" transform="matrix(10.4,0,0,10.4,128.4,545.2)" />
<use xlink:href="#f1_11" transform="matrix(10.4,0,0,10.4,142.2,545.2)" />
<use xlink:href="#f1_g" transform="matrix(10.4,0,0,10.4,152.8,545.2)" />
<use xlink:href="#f1_12" transform="matrix(10.4,0,0,10.4,164.4,545.2)" />
<use xlink:href="#f1_1x" transform="matrix(10.4,0,0,10.4,182.3,545.2)" />
<use xlink:href="#f1_2a" transform="matrix(10.4,0,0,10.4,191.1,545.2)" />
<use xlink:href="#f1_20" transform="matrix(10.4,0,0,10.4,199.9,545.2)" />
<use xlink:href="#f1_13" transform="matrix(10.4,0,0,10.4,215.9,545.2)" />
<use xlink:href="#f1_i" transform="matrix(10.4,0,0,10.4,227.4,545.2)" />
</g>
<image preserveAspectRatio="none" x="73" y="563" width="517" height="14" xlink:href="img/20.png" />
<image preserveAspectRatio="none" x="73" y="576" width="517" height="14" xlink:href="img/21.png" />
<image preserveAspectRatio="none" x="73" y="590" width="517" height="14" xlink:href="img/22.png" />
<image preserveAspectRatio="none" x="73" y="603" width="517" height="14" xlink:href="img/23.png" />
<image preserveAspectRatio="none" x="73" y="617" width="517" height="14" xlink:href="img/24.png" />
<image preserveAspectRatio="none" x="73" y="630" width="517" height="14" xlink:href="img/25.png" />
<image preserveAspectRatio="none" x="73" y="644" width="517" height="14" xlink:href="img/26.png" />
<image preserveAspectRatio="none" x="73" y="658" width="517" height="14" xlink:href="img/27.png" />
<image preserveAspectRatio="none" x="73" y="671" width="517" height="13" xlink:href="img/28.png" />
<g fill="#000000" >
<use xlink:href="#f1_e" transform="matrix(10.4,0,0,10.4,41.9,712.6)" />
<use xlink:href="#f1_m" transform="matrix(10.4,0,0,10.4,48.3,712.6)" />
<use xlink:href="#f1_k" transform="matrix(10.4,0,0,10.4,57.1,712.6)" />
<use xlink:href="#f1_i" transform="matrix(10.4,0,0,10.4,66.1,712.6)" />
<use xlink:href="#f1_11" transform="matrix(10.4,0,0,10.4,85.2,712.6)" />
<use xlink:href="#f1_2a" transform="matrix(10.4,0,0,10.4,95.8,712.6)" />
<use xlink:href="#f1_1x" transform="matrix(10.4,0,0,10.4,113.6,712.6)" />
<use xlink:href="#f1_28" transform="matrix(10.4,0,0,10.4,122.6,712.6)" />
<use xlink:href="#f1_27" transform="matrix(10.4,0,0,10.4,126,712.6)" />
<use xlink:href="#f1_2l" transform="matrix(10.4,0,0,10.4,134.3,712.6)" />
<use xlink:href="#f1_28" transform="matrix(10.4,0,0,10.4,141.8,712.6)" />
<use xlink:href="#f1_24" transform="matrix(10.4,0,0,10.4,154.3,712.6)" />
<use xlink:href="#f1_1x" transform="matrix(10.4,0,0,10.4,163.3,712.6)" />
<use xlink:href="#f1_28" transform="matrix(10.4,0,0,10.4,172.1,712.6)" />
<use xlink:href="#f1_25" transform="matrix(10.4,0,0,10.4,175.7,712.6)" />
<use xlink:href="#f1_20" transform="matrix(10.4,0,0,10.4,179.2,712.6)" />
<use xlink:href="#f1_21" transform="matrix(10.4,0,0,10.4,188.2,712.6)" />
<use xlink:href="#f1_1o" transform="matrix(10.4,0,0,10.4,206,712.6)" />
<use xlink:href="#f1_24" transform="matrix(10.4,0,0,10.4,225.6,712.6)" />
<use xlink:href="#f1_1x" transform="matrix(10.4,0,0,10.4,234.4,712.6)" />
<use xlink:href="#f1_2i" transform="matrix(10.4,0,0,10.4,243.4,712.6)" />
<use xlink:href="#f1_25" transform="matrix(10.4,0,0,10.4,251.2,712.6)" />
<use xlink:href="#f1_2a" transform="matrix(10.4,0,0,10.4,254.7,712.6)" />
<use xlink:href="#f1_23" transform="matrix(10.4,0,0,10.4,263.7,712.6)" />
<use xlink:href="#f1_29" transform="matrix(10.4,0,0,10.4,281.5,712.6)" />
<use xlink:href="#f1_2b" transform="matrix(10.4,0,0,10.4,295.1,712.6)" />
<use xlink:href="#f1_28" transform="matrix(10.4,0,0,10.4,304,712.6)" />
<use xlink:href="#f1_21" transform="matrix(10.4,0,0,10.4,307.5,712.6)" />
<use xlink:href="#f1_1z" transform="matrix(10.4,0,0,10.4,316.5,712.6)" />
<use xlink:href="#f1_2h" transform="matrix(10.4,0,0,10.4,324.6,712.6)" />
<use xlink:href="#f1_28" transform="matrix(10.4,0,0,10.4,333.5,712.6)" />
<use xlink:href="#f1_1x" transform="matrix(10.4,0,0,10.4,337,712.6)" />
<use xlink:href="#f1_2e" transform="matrix(10.4,0,0,10.4,346,712.6)" />
<use xlink:href="#f1_22" transform="matrix(10.4,0,0,10.4,360.3,712.6)" />
<use xlink:href="#f1_2b" transform="matrix(10.4,0,0,10.4,364.9,712.6)" />
<use xlink:href="#f1_2e" transform="matrix(10.4,0,0,10.4,373.9,712.6)" />
<use xlink:href="#f1_29" transform="matrix(10.4,0,0,10.4,379.2,712.6)" />
<use xlink:href="#f1_2h" transform="matrix(10.4,0,0,10.4,392.9,712.6)" />
<use xlink:href="#f1_28" transform="matrix(10.4,0,0,10.4,401.7,712.6)" />
<use xlink:href="#f1_1x" transform="matrix(10.4,0,0,10.4,405.4,712.6)" />
<use xlink:href="#f1_13" transform="matrix(10.4,0,0,10.4,423.2,712.6)" />
<use xlink:href="#f1_q" transform="matrix(7.4,0,0,7.4,434.8,717.9)" />
<use xlink:href="#f1_18" transform="matrix(10.4,0,0,10.4,441.2,712.6)" />
<use xlink:href="#f1_l" transform="matrix(7.4,0,0,7.4,452.8,717.9)" />
<use xlink:href="#f1_n" transform="matrix(7.4,0,0,7.4,459,717.9)" />
<use xlink:href="#f1_13" transform="matrix(10.4,0,0,10.4,465.4,712.6)" />
<use xlink:href="#f1_28" transform="matrix(10.4,0,0,10.4,477.1,712.6)" />
<use xlink:href="#f1_2b" transform="matrix(10.4,0,0,10.4,489.6,712.6)" />
<use xlink:href="#f1_2a" transform="matrix(10.4,0,0,10.4,498.4,712.6)" />
<use xlink:href="#f1_2g" transform="matrix(10.4,0,0,10.4,516.2,712.6)" />
<use xlink:href="#f1_2e" transform="matrix(10.4,0,0,10.4,520.8,712.6)" />
<use xlink:href="#f1_21" transform="matrix(10.4,0,0,10.4,526.1,712.6)" />
<use xlink:href="#f1_1x" transform="matrix(10.4,0,0,10.4,535.1,712.6)" />
<use xlink:href="#f1_2g" transform="matrix(10.4,0,0,10.4,543.9,712.6)" />
<use xlink:href="#f1_29" transform="matrix(10.4,0,0,10.4,548.4,712.6)" />
<use xlink:href="#f1_21" transform="matrix(10.4,0,0,10.4,562,712.6)" />
<use xlink:href="#f1_2a" transform="matrix(10.4,0,0,10.4,571,712.6)" />
<use xlink:href="#f1_2g" transform="matrix(10.4,0,0,10.4,579.8,712.6)" />
<use xlink:href="#f1_2j" transform="matrix(10.4,0,0,10.4,593.2,712.6)" />
<use xlink:href="#f1_25" transform="matrix(10.4,0,0,10.4,604.5,712.6)" />
<use xlink:href="#f1_2g" transform="matrix(10.4,0,0,10.4,608,712.6)" />
<use xlink:href="#f1_24" transform="matrix(10.4,0,0,10.4,612.6,712.6)" />
</g>
<g clip-path="url(#c1_78)">
<g fill="#000000" >
<use xlink:href="#f1_2c" transform="matrix(10.4,0,0,10.4,85.2,733.7)" />
<use xlink:href="#f1_2b" transform="matrix(10.4,0,0,10.4,94,733.7)" />
<use xlink:href="#f1_2g" transform="matrix(10.4,0,0,10.4,102.8,733.7)" />
<use xlink:href="#f1_1x" transform="matrix(10.4,0,0,10.4,107.2,733.7)" />
<use xlink:href="#f1_2f" transform="matrix(10.4,0,0,10.4,116,733.7)" />
<use xlink:href="#f1_2f" transform="matrix(10.4,0,0,10.4,124,733.7)" />
<use xlink:href="#f1_25" transform="matrix(10.4,0,0,10.4,132.1,733.7)" />
<use xlink:href="#f1_2h" transform="matrix(10.4,0,0,10.4,135.6,733.7)" />
<use xlink:href="#f1_29" transform="matrix(10.4,0,0,10.4,144.4,733.7)" />
<use xlink:href="#f1_2g" transform="matrix(10.4,0,0,10.4,164.9,733.7)" />
<use xlink:href="#f1_21" transform="matrix(10.4,0,0,10.4,169.3,733.7)" />
<use xlink:href="#f1_2e" transform="matrix(10.4,0,0,10.4,178.1,733.7)" />
<use xlink:href="#f1_2g" transform="matrix(10.4,0,0,10.4,183.4,733.7)" />
<use xlink:href="#f1_h" transform="matrix(10.4,0,0,10.4,187.8,733.7)" />
<use xlink:href="#f1_1y" transform="matrix(10.4,0,0,10.4,193.1,733.7)" />
<use xlink:href="#f1_2h" transform="matrix(10.4,0,0,10.4,201.9,733.7)" />
<use xlink:href="#f1_2g" transform="matrix(10.4,0,0,10.4,210.7,733.7)" />
<use xlink:href="#f1_2b" transform="matrix(10.4,0,0,10.4,215.1,733.7)" />
<use xlink:href="#f1_2k" transform="matrix(10.4,0,0,10.4,223.9,733.7)" />
<use xlink:href="#f1_25" transform="matrix(10.4,0,0,10.4,231.8,733.7)" />
<use xlink:href="#f1_20" transform="matrix(10.4,0,0,10.4,235.3,733.7)" />
<use xlink:href="#f1_21" transform="matrix(10.4,0,0,10.4,244.1,733.7)" />
<use xlink:href="#f1_23" transform="matrix(10.4,0,0,10.4,259.9,733.7)" />
<use xlink:href="#f1_25" transform="matrix(10.4,0,0,10.4,268.7,733.7)" />
<use xlink:href="#f1_2i" transform="matrix(10.4,0,0,10.4,272.2,733.7)" />
<use xlink:href="#f1_21" transform="matrix(10.4,0,0,10.4,280,733.7)" />
<use xlink:href="#f1_2f" transform="matrix(10.4,0,0,10.4,288.8,733.7)" />
<use xlink:href="#f1_2g" transform="matrix(10.4,0,0,10.4,304,733.7)" />
<use xlink:href="#f1_2j" transform="matrix(10.4,0,0,10.4,308.4,733.7)" />
<use xlink:href="#f1_2b" transform="matrix(10.4,0,0,10.4,319.6,733.7)" />
<use xlink:href="#f1_25" transform="matrix(10.4,0,0,10.4,335.4,733.7)" />
<use xlink:href="#f1_2f" transform="matrix(10.4,0,0,10.4,338.9,733.7)" />
<use xlink:href="#f1_2b" transform="matrix(10.4,0,0,10.4,346.9,733.7)" />
<use xlink:href="#f1_29" transform="matrix(10.4,0,0,10.4,355.7,733.7)" />
<use xlink:href="#f1_21" transform="matrix(10.4,0,0,10.4,369.3,733.7)" />
<use xlink:href="#f1_2e" transform="matrix(10.4,0,0,10.4,378.1,733.7)" />
<use xlink:href="#f1_25" transform="matrix(10.4,0,0,10.4,383.4,733.7)" />
<use xlink:href="#f1_1z" transform="matrix(10.4,0,0,10.4,386.9,733.7)" />
<use xlink:href="#f1_1x" transform="matrix(10.4,0,0,10.4,401.9,733.7)" />
<use xlink:href="#f1_28" transform="matrix(10.4,0,0,10.4,410.7,733.7)" />
<use xlink:href="#f1_27" transform="matrix(10.4,0,0,10.4,414.2,733.7)" />
<use xlink:href="#f1_21" transform="matrix(10.4,0,0,10.4,422.3,733.7)" />
<use xlink:href="#f1_2a" transform="matrix(10.4,0,0,10.4,431.1,733.7)" />
<use xlink:href="#f1_21" transform="matrix(10.4,0,0,10.4,439.9,733.7)" />
<use xlink:href="#f1_2f" transform="matrix(10.4,0,0,10.4,448.7,733.7)" />
<use xlink:href="#f1_1p" transform="matrix(10.4,0,0,10.4,463.7,733.7)" />
<use xlink:href="#f1_1x" transform="matrix(10.4,0,0,10.4,480.9,733.7)" />
<use xlink:href="#f1_2a" transform="matrix(10.4,0,0,10.4,489.7,733.7)" />
<use xlink:href="#f1_20" transform="matrix(10.4,0,0,10.4,498.5,733.7)" />
<use xlink:href="#f1_1q" transform="matrix(10.4,0,0,10.4,514.3,733.7)" />
<use xlink:href="#f1_1y" transform="matrix(10.4,0,0,10.4,531.2,733.7)" />
<use xlink:href="#f1_2h" transform="matrix(10.4,0,0,10.4,540,733.7)" />
<use xlink:href="#f1_2g" transform="matrix(10.4,0,0,10.4,548.8,733.7)" />
<use xlink:href="#f1_1x" transform="matrix(10.4,0,0,10.4,560.1,733.7)" />
<use xlink:href="#f1_28" transform="matrix(10.4,0,0,10.4,568.9,733.7)" />
<use xlink:href="#f1_27" transform="matrix(10.4,0,0,10.4,572.4,733.7)" />
<use xlink:href="#f1_21" transform="matrix(10.4,0,0,10.4,580.5,733.7)" />
<use xlink:href="#f1_2a" transform="matrix(10.4,0,0,10.4,589.3,733.7)" />
<use xlink:href="#f1_21" transform="matrix(10.4,0,0,10.4,598.1,733.7)" />
<use xlink:href="#f1_2l" transform="matrix(10.4,0,0,10.4,613.8,733.7)" />
</g>
</g>
<g fill="#000000" >
<use xlink:href="#f1_25" transform="matrix(10.4,0,0,10.4,85.2,754.6)" />
<use xlink:href="#f1_2f" transform="matrix(10.4,0,0,10.4,88.7,754.6)" />
<use xlink:href="#f1_2f" transform="matrix(10.4,0,0,10.4,105.7,754.6)" />
<use xlink:href="#f1_2l" transform="matrix(10.4,0,0,10.4,113.9,754.6)" />
<use xlink:href="#f1_29" transform="matrix(10.4,0,0,10.4,121.5,754.6)" />
<use xlink:href="#f1_21" transform="matrix(10.4,0,0,10.4,135.2,754.6)" />
<use xlink:href="#f1_2g" transform="matrix(10.4,0,0,10.4,144,754.6)" />
<use xlink:href="#f1_2e" transform="matrix(10.4,0,0,10.4,148.4,754.6)" />
<use xlink:href="#f1_25" transform="matrix(10.4,0,0,10.4,153.9,754.6)" />
<use xlink:href="#f1_1z" transform="matrix(10.4,0,0,10.4,157.4,754.6)" />
<use xlink:href="#f1_1x" transform="matrix(10.4,0,0,10.4,165.6,754.6)" />
<use xlink:href="#f1_28" transform="matrix(10.4,0,0,10.4,174.4,754.6)" />
<use xlink:href="#f1_i" transform="matrix(10.4,0,0,10.4,178.1,754.6)" />
<use xlink:href="#f1_12" transform="matrix(10.4,0,0,10.4,191.5,754.6)" />
<use xlink:href="#f1_2b" transform="matrix(10.4,0,0,10.4,202.1,754.6)" />
<use xlink:href="#f1_2g" transform="matrix(10.4,0,0,10.4,210.9,754.6)" />
<use xlink:href="#f1_24" transform="matrix(10.4,0,0,10.4,215.5,754.6)" />
<use xlink:href="#f1_1x" transform="matrix(10.4,0,0,10.4,233.3,754.6)" />
<use xlink:href="#f1_28" transform="matrix(10.4,0,0,10.4,242.1,754.6)" />
<use xlink:href="#f1_27" transform="matrix(10.4,0,0,10.4,245.7,754.6)" />
<use xlink:href="#f1_21" transform="matrix(10.4,0,0,10.4,253.8,754.6)" />
<use xlink:href="#f1_2a" transform="matrix(10.4,0,0,10.4,262.6,754.6)" />
<use xlink:href="#f1_21" transform="matrix(10.4,0,0,10.4,271.6,754.6)" />
<use xlink:href="#f1_2f" transform="matrix(10.4,0,0,10.4,280.4,754.6)" />
<use xlink:href="#f1_2b" transform="matrix(10.4,0,0,10.4,297.4,754.6)" />
<use xlink:href="#f1_2a" transform="matrix(10.4,0,0,10.4,306.4,754.6)" />
<use xlink:href="#f1_24" transform="matrix(10.4,0,0,10.4,324,754.6)" />
<use xlink:href="#f1_2l" transform="matrix(10.4,0,0,10.4,333,754.6)" />
<use xlink:href="#f1_20" transform="matrix(10.4,0,0,10.4,340.5,754.6)" />
<use xlink:href="#f1_2e" transform="matrix(10.4,0,0,10.4,349.5,754.6)" />
<use xlink:href="#f1_2b" transform="matrix(10.4,0,0,10.4,354.8,754.6)" />
<use xlink:href="#f1_23" transform="matrix(10.4,0,0,10.4,363.8,754.6)" />
<use xlink:href="#f1_21" transform="matrix(10.4,0,0,10.4,372.6,754.6)" />
<use xlink:href="#f1_2a" transform="matrix(10.4,0,0,10.4,381.6,754.6)" />
<use xlink:href="#f1_1x" transform="matrix(10.4,0,0,10.4,390.4,754.6)" />
<use xlink:href="#f1_2g" transform="matrix(10.4,0,0,10.4,399.2,754.6)" />
<use xlink:href="#f1_25" transform="matrix(10.4,0,0,10.4,403.8,754.6)" />
<use xlink:href="#f1_2b" transform="matrix(10.4,0,0,10.4,407.2,754.6)" />
<use xlink:href="#f1_2a" transform="matrix(10.4,0,0,10.4,416.2,754.6)" />
<use xlink:href="#f1_23" transform="matrix(10.4,0,0,10.4,434,754.6)" />
<use xlink:href="#f1_25" transform="matrix(10.4,0,0,10.4,442.8,754.6)" />
<use xlink:href="#f1_2i" transform="matrix(10.4,0,0,10.4,446.3,754.6)" />
<use xlink:href="#f1_21" transform="matrix(10.4,0,0,10.4,454.3,754.6)" />
<use xlink:href="#f1_m" transform="matrix(10.4,0,0,10.4,472.1,754.6)" />
<use xlink:href="#f1_g" transform="matrix(10.4,0,0,10.4,480.9,754.6)" />
<use xlink:href="#f1_n" transform="matrix(10.4,0,0,10.4,494.3,754.6)" />
<use xlink:href="#f1_h" transform="matrix(10.4,0,0,10.4,503.1,754.6)" />
<use xlink:href="#f1_20" transform="matrix(10.4,0,0,10.4,508.6,754.6)" />
<use xlink:href="#f1_25" transform="matrix(10.4,0,0,10.4,517.4,754.6)" />
<use xlink:href="#f1_29" transform="matrix(10.4,0,0,10.4,521.1,754.6)" />
<use xlink:href="#f1_21" transform="matrix(10.4,0,0,10.4,534.6,754.6)" />
<use xlink:href="#f1_2g" transform="matrix(10.4,0,0,10.4,543.6,754.6)" />
<use xlink:href="#f1_24" transform="matrix(10.4,0,0,10.4,548,754.6)" />
<use xlink:href="#f1_2l" transform="matrix(10.4,0,0,10.4,557,754.6)" />
<use xlink:href="#f1_28" transform="matrix(10.4,0,0,10.4,564.5,754.6)" />
<use xlink:href="#f1_1y" transform="matrix(10.4,0,0,10.4,568,754.6)" />
<use xlink:href="#f1_2h" transform="matrix(10.4,0,0,10.4,577,754.6)" />
<use xlink:href="#f1_2g" transform="matrix(10.4,0,0,10.4,585.8,754.6)" />
<use xlink:href="#f1_1x" transform="matrix(10.4,0,0,10.4,590.4,754.6)" />
<use xlink:href="#f1_2a" transform="matrix(10.4,0,0,10.4,599.2,754.6)" />
<use xlink:href="#f1_21" transform="matrix(10.4,0,0,10.4,608.1,754.6)" />
<use xlink:href="#f1_i" transform="matrix(10.4,0,0,10.4,616.9,754.6)" />
<use xlink:href="#f1_19" transform="matrix(10.4,0,0,10.4,85.2,775.5)" />
<use xlink:href="#f1_20" transform="matrix(10.4,0,0,10.4,89.6,775.5)" />
<use xlink:href="#f1_21" transform="matrix(10.4,0,0,10.4,98.4,775.5)" />
<use xlink:href="#f1_2a" transform="matrix(10.4,0,0,10.4,107.2,775.5)" />
<use xlink:href="#f1_2g" transform="matrix(10.4,0,0,10.4,116,775.5)" />
<use xlink:href="#f1_25" transform="matrix(10.4,0,0,10.4,120.4,775.5)" />
<use xlink:href="#f1_22" transform="matrix(10.4,0,0,10.4,123.9,775.5)" />
<use xlink:href="#f1_2l" transform="matrix(10.4,0,0,10.4,128.4,775.5)" />
<use xlink:href="#f1_1o" transform="matrix(10.4,0,0,10.4,142.9,775.5)" />
<use xlink:href="#f1_g" transform="matrix(10.4,0,0,10.4,153.6,775.5)" />
<use xlink:href="#f1_1p" transform="matrix(10.4,0,0,10.4,164.9,775.5)" />
<use xlink:href="#f1_1x" transform="matrix(10.4,0,0,10.4,182.1,775.5)" />
<use xlink:href="#f1_2a" transform="matrix(10.4,0,0,10.4,190.9,775.5)" />
<use xlink:href="#f1_20" transform="matrix(10.4,0,0,10.4,199.7,775.5)" />
<use xlink:href="#f1_1q" transform="matrix(10.4,0,0,10.4,215.5,775.5)" />
<use xlink:href="#f1_i" transform="matrix(10.4,0,0,10.4,225.2,775.5)" />
</g>
<image preserveAspectRatio="none" x="50" y="801" width="563" height="14" xlink:href="img/29.png" />
<image preserveAspectRatio="none" x="50" y="814" width="563" height="14" xlink:href="img/30.png" />
<image preserveAspectRatio="none" x="50" y="828" width="563" height="14" xlink:href="img/31.png" />
<image preserveAspectRatio="none" x="50" y="841" width="563" height="14" xlink:href="img/32.png" />
<image preserveAspectRatio="none" x="50" y="855" width="563" height="14" xlink:href="img/33.png" />
<image preserveAspectRatio="none" x="50" y="868" width="563" height="14" xlink:href="img/34.png" />
<image preserveAspectRatio="none" x="50" y="882" width="563" height="14" xlink:href="img/35.png" />
<image preserveAspectRatio="none" x="50" y="896" width="563" height="13" xlink:href="img/36.png" />
<image preserveAspectRatio="none" x="50" y="909" width="563" height="12" xlink:href="img/37.png" />
<g fill="#000000" >
<use xlink:href="#f2_t" transform="matrix(12,0,0,12,665.7,1032.4)" />
</g>
<g fill="#0080FF" fill-opacity="0.5" >
<use xlink:href="#f0_1c" transform="matrix(38.6,0,0,38.6,185.2,1050.5)" />
<use xlink:href="#f0_21" transform="matrix(38.6,0,0,38.6,218,1050.5)" />
<use xlink:href="#f0_1x" transform="matrix(38.6,0,0,38.6,250.8,1050.5)" />
<use xlink:href="#f0_2e" transform="matrix(38.6,0,0,38.6,283.7,1050.5)" />
<use xlink:href="#f0_2a" transform="matrix(38.6,0,0,38.6,303.3,1050.5)" />
<use xlink:href="#f0_17" transform="matrix(38.6,0,0,38.6,336.1,1050.5)" />
<use xlink:href="#f0_2h" transform="matrix(38.6,0,0,38.6,382,1050.5)" />
<use xlink:href="#f0_25" transform="matrix(38.6,0,0,38.6,414.8,1050.5)" />
<use xlink:href="#f0_20" transform="matrix(38.6,0,0,38.6,427.9,1050.5)" />
<use xlink:href="#f0_21" transform="matrix(38.6,0,0,38.6,460.7,1050.5)" />
<use xlink:href="#f0_i" transform="matrix(38.6,0,0,38.6,493.5,1050.5)" />
<use xlink:href="#f0_25" transform="matrix(38.6,0,0,38.6,509.9,1050.5)" />
<use xlink:href="#f0_2a" transform="matrix(38.6,0,0,38.6,523,1050.5)" />
</g>
<defs>
<path d="M593,101c0,0,182,0,279,112c0,0,98,113,98,318c0,0,0,196,-98,308c0,0,-98,112,-277,112c0,0,-181,0,-279,-110c0,0,-99,-111,-99,-310c0,0,0,-198,100,-314c0,0,99,-116,276,-116Zm0,-115c0,0,-162,0,-279,65c0,0,-118,66,-180,190c0,0,-62,124,-62,290c0,0,0,252,138,394c0,0,138,142,385,142c0,0,160,0,278,-64c0,0,118,-64,180,-185c0,0,62,-122,62,-287c0,0,0,-165,-63,-289c0,0,-63,-124,-181,-190c0,0,-118,-66,-278,-66Z" 
id="f0_1f"
transform="scale(0.001,-0.001)" />

<path d="M106,0V635c0,0,0,141,-5,173H228c0,0,1,-4,2,-21c0,0,1,-16,2,-37c0,0,1,-22,2,-81h2c0,0,47,84,108,119c0,0,60,34,151,34c0,0,132,0,194,-66c0,0,61,-66,61,-218V0H615V512c0,0,0,80,-15,124c0,0,-16,44,-50,63c0,0,-35,20,-101,20c0,0,-97,0,-153,-67c0,0,-56,-66,-56,-184V0Z" 
id="f0_2a"
transform="scale(0.001,-0.001)" />

<path d="M103,0V1107H237V0Z" 
id="f0_28"
transform="scale(0.001,-0.001)" />

<path d="M102,0V808H236V0Zm0,979v128H236V979Z" 
id="f0_25"
transform="scale(0.001,-0.001)" />

<path d="M643,478c0,0,-11,128,-65,187c0,0,-54,59,-154,59c0,0,-98,0,-155,-66c0,0,-57,-65,-62,-180ZM431,-14c0,0,-179,0,-272,106c0,0,-94,107,-94,317c0,0,0,200,94,307c0,0,93,106,267,106c0,0,356,0,356,-429V375H206c0,0,0,-138,57,-213c0,0,58,-75,168,-75c0,0,87,0,140,35c0,0,53,35,71,88L760,177c0,0,-72,-191,-329,-191Z" 
id="f0_21"
transform="scale(0.001,-0.001)" />

<path d="M17,0L304,415L31,808H179L380,493L580,808H730L457,417L747,0H598L380,331L162,0Z" 
id="f0_2k"
transform="scale(0.001,-0.001)" />

<path d="M339,87c0,0,74,0,132,34c0,0,57,33,90,91c0,0,34,59,34,121v66L448,396c0,0,-95,-2,-144,-19c0,0,-49,-18,-75,-55c0,0,-26,-38,-26,-98c0,0,0,-65,35,-101c0,0,36,-36,101,-36ZM309,-14c0,0,-122,0,-183,64c0,0,-61,64,-61,176c0,0,0,125,82,192c0,0,83,67,266,72l182,3v44c0,0,0,98,-42,141c0,0,-42,43,-132,43c0,0,-90,0,-131,-31c0,0,-41,-31,-49,-98L101,604c0,0,34,218,323,218c0,0,153,0,229,-70c0,0,77,-69,77,-202V202c0,0,0,-59,16,-90c0,0,16,-30,60,-30c0,0,19,0,44,5V4C850,4,799,-7,746,-7c0,0,-75,0,-109,38c0,0,-33,40,-38,124h-4C595,155,543,62,475,24c0,0,-68,-38,-166,-38Z" 
id="f0_1x"
transform="scale(0.001,-0.001)" />

<path d="M106,0V635c0,0,0,141,-5,173H228c0,0,1,-4,2,-21c0,0,1,-16,2,-37c0,0,1,-22,2,-81h2c0,0,44,86,100,120c0,0,56,33,136,33c0,0,92,0,145,-36c0,0,54,-37,75,-117h2c0,0,42,82,101,117c0,0,59,36,143,36c0,0,123,0,178,-66c0,0,56,-67,56,-218V0H1039V512c0,0,0,117,-32,162c0,0,-32,45,-116,45c0,0,-88,0,-136,-66c0,0,-49,-65,-49,-185V0H573V512c0,0,0,117,-32,162c0,0,-32,45,-116,45c0,0,-86,0,-136,-66c0,0,-50,-66,-50,-185V0Z" 
id="f0_29"
transform="scale(0.001,-0.001)" />

<path d="M453,84c0,0,100,0,146,74c0,0,46,73,46,247c0,0,0,169,-46,241c0,0,-45,73,-145,73c0,0,-80,0,-125,-34c0,0,-45,-34,-68,-105c0,0,-24,-71,-24,-186c0,0,0,-159,51,-234c0,0,51,-76,165,-76ZM103,-316V643c0,0,0,124,-5,165H228c0,0,1,-3,3,-22c0,0,1,-18,3,-56c0,0,2,-38,2,-52h3c0,0,36,75,94,110c0,0,59,34,156,34c0,0,149,0,223,-100c0,0,74,-100,74,-314c0,0,0,-422,-297,-422c0,0,-187,0,-251,140h-4c0,0,3,-6,3,-126V-316Z" 
id="f0_2c"
transform="scale(0.001,-0.001)" />

<path d="M420,84c0,0,121,0,173,78c0,0,52,77,52,243c0,0,0,167,-50,243c0,0,-50,76,-167,76c0,0,-118,0,-170,-78c0,0,-53,-77,-53,-241c0,0,0,-160,52,-241c0,0,52,-80,163,-80Zm1,-98c0,0,-176,0,-267,107c0,0,-90,108,-90,312c0,0,0,417,362,417c0,0,185,0,272,-102c0,0,88,-101,88,-315c0,0,0,-212,-94,-316C692,89,599,-14,421,-14Z" 
id="f0_2b"
transform="scale(0.001,-0.001)" />

<path d="M278,-11c0,0,-162,0,-162,182V710H23v98h99l39,181h90V808H400V710H251V200c0,0,0,-58,19,-82c0,0,19,-23,66,-23c0,0,27,0,77,10V6c0,0,-66,-17,-135,-17Z" 
id="f0_2g"
transform="scale(0.001,-0.001)" />

<path d="M116,0V114H384V923L147,754V881l248,170H519V114H775V0Z" 
id="f1_l"
transform="scale(0.001,-0.001)" />

<path d="M427,86c0,0,109,0,163,53c0,0,54,52,54,167c0,0,0,97,-58,147c0,0,-59,50,-164,50c0,0,-102,0,-159,-54c0,0,-58,-53,-58,-146c0,0,0,-217,222,-217Zm-3,517c0,0,94,0,144,44c0,0,50,43,50,141c0,0,0,178,-196,178c0,0,-95,0,-144,-45c0,0,-50,-44,-50,-133c0,0,0,-90,51,-137c0,0,51,-48,145,-48Zm1,-617c0,0,-168,0,-263,79c0,0,-96,80,-96,227c0,0,0,103,59,173c0,0,59,70,151,85v3c0,0,-86,20,-135,87c0,0,-50,67,-50,157c0,0,0,121,90,195c0,0,90,75,241,75c0,0,155,0,245,-73c0,0,90,-74,90,-198c0,0,0,-90,-50,-158c0,0,-50,-67,-136,-84v-3c0,0,100,-16,156,-85c0,0,56,-69,56,-173c0,0,0,-145,-92,-226c0,0,-93,-81,-266,-81Z" 
id="f1_s"
transform="scale(0.001,-0.001)" />

<path d="M140,0V163H285V0Z" 
id="f1_i"
transform="scale(0.001,-0.001)" />

<path d="M708,418L573,765c0,0,-21,52,-42,117l-20,62l-7,-21c0,0,-18,-62,-55,-159L315,418ZM3,0L432,1051H594L1016,0H871L750,307H272L151,0Z" 
id="f1_11"
transform="scale(0.001,-0.001)" />

<path d="M106,0V635c0,0,0,141,-5,173H228c0,0,1,-4,2,-21c0,0,1,-16,2,-37c0,0,1,-22,2,-81h2c0,0,47,84,108,119c0,0,60,34,151,34c0,0,132,0,194,-66c0,0,61,-66,61,-218V0H615V512c0,0,0,80,-15,124c0,0,-16,44,-50,63c0,0,-35,20,-101,20c0,0,-97,0,-153,-67c0,0,-56,-66,-56,-184V0Z" 
id="f1_2a"
transform="scale(0.001,-0.001)" />

<path d="M420,84c0,0,121,0,173,78c0,0,52,77,52,243c0,0,0,167,-50,243c0,0,-50,76,-167,76c0,0,-118,0,-170,-78c0,0,-53,-77,-53,-241c0,0,0,-160,52,-241c0,0,52,-80,163,-80Zm1,-98c0,0,-176,0,-267,107c0,0,-90,108,-90,312c0,0,0,417,362,417c0,0,185,0,272,-102c0,0,88,-101,88,-315c0,0,0,-212,-94,-316C692,89,599,-14,421,-14Z" 
id="f1_2b"
transform="scale(0.001,-0.001)" />

<path d="M453,84c0,0,100,0,146,74c0,0,46,73,46,247c0,0,0,169,-46,241c0,0,-45,73,-145,73c0,0,-80,0,-125,-34c0,0,-45,-34,-68,-105c0,0,-24,-71,-24,-186c0,0,0,-159,51,-234c0,0,51,-76,165,-76ZM103,-316V643c0,0,0,124,-5,165H228c0,0,1,-3,3,-22c0,0,1,-18,3,-56c0,0,2,-38,2,-52h3c0,0,36,75,94,110c0,0,59,34,156,34c0,0,149,0,223,-100c0,0,74,-100,74,-314c0,0,0,-422,-297,-422c0,0,-187,0,-251,140h-4c0,0,3,-6,3,-126V-316Z" 
id="f1_2c"
transform="scale(0.001,-0.001)" />

<path d="M278,-11c0,0,-162,0,-162,182V710H23v98h99l39,181h90V808H400V710H251V200c0,0,0,-58,19,-82c0,0,19,-23,66,-23c0,0,27,0,77,10V6c0,0,-66,-17,-135,-17Z" 
id="f1_2g"
transform="scale(0.001,-0.001)" />

<path d="M102,0V808H236V0Zm0,979v128H236V979Z" 
id="f1_25"
transform="scale(0.001,-0.001)" />

<path d="M413,-14c0,0,-170,0,-259,106c0,0,-89,107,-89,313c0,0,0,203,89,310c0,0,90,107,257,107c0,0,124,0,206,-64c0,0,81,-64,102,-177L581,571c0,0,-10,67,-53,106c0,0,-42,40,-121,40c0,0,-106,0,-154,-71c0,0,-48,-71,-48,-239c0,0,0,-161,51,-238c0,0,51,-78,153,-78c0,0,71,0,120,39c0,0,48,39,59,119l136,-9C724,240,708,124,624,55c0,0,-83,-69,-211,-69Z" 
id="f1_1z"
transform="scale(0.001,-0.001)" />

<path d="M339,87c0,0,74,0,132,34c0,0,57,33,90,91c0,0,34,59,34,121v66L448,396c0,0,-95,-2,-144,-19c0,0,-49,-18,-75,-55c0,0,-26,-38,-26,-98c0,0,0,-65,35,-101c0,0,36,-36,101,-36ZM309,-14c0,0,-122,0,-183,64c0,0,-61,64,-61,176c0,0,0,125,82,192c0,0,83,67,266,72l182,3v44c0,0,0,98,-42,141c0,0,-42,43,-132,43c0,0,-90,0,-131,-31c0,0,-41,-31,-49,-98L101,604c0,0,34,218,323,218c0,0,153,0,229,-70c0,0,77,-69,77,-202V202c0,0,0,-59,16,-90c0,0,16,-30,60,-30c0,0,19,0,44,5V4C850,4,799,-7,746,-7c0,0,-75,0,-109,38c0,0,-33,40,-38,124h-4C595,155,543,62,475,24c0,0,-68,-38,-166,-38Z" 
id="f1_1x"
transform="scale(0.001,-0.001)" />

<path d="M103,0V1107H237V0Z" 
id="f1_28"
transform="scale(0.001,-0.001)" />

<path d="M142,-316c0,0,-55,0,-92,8v101c0,0,28,-4,63,-4c0,0,125,0,198,184L324,4L4,808H147L317,362c0,0,4,-11,9,-25c0,0,5,-15,34,-98c0,0,28,-83,30,-92l52,147L619,808H761L451,0c0,0,-50,-128,-94,-191c0,0,-43,-63,-96,-94c0,0,-52,-31,-119,-31Z" 
id="f1_2l"
transform="scale(0.001,-0.001)" />

<path d="M298,0L5,808H148L326,282c0,0,10,-29,51,-176l27,87l29,88L616,808H759L457,0Z" 
id="f1_2i"
transform="scale(0.001,-0.001)" />

<path d="M643,478c0,0,-11,128,-65,187c0,0,-54,59,-154,59c0,0,-98,0,-155,-66c0,0,-57,-65,-62,-180ZM431,-14c0,0,-179,0,-272,106c0,0,-94,107,-94,317c0,0,0,200,94,307c0,0,93,106,267,106c0,0,356,0,356,-429V375H206c0,0,0,-138,57,-213c0,0,58,-75,168,-75c0,0,87,0,140,35c0,0,53,35,71,88L760,177c0,0,-72,-191,-329,-191Z" 
id="f1_21"
transform="scale(0.001,-0.001)" />

<path d="M106,0V635c0,0,0,141,-5,173H228c0,0,1,-4,2,-21c0,0,1,-16,2,-37c0,0,1,-22,2,-81h2c0,0,44,86,100,120c0,0,56,33,136,33c0,0,92,0,145,-36c0,0,54,-37,75,-117h2c0,0,42,82,101,117c0,0,59,36,143,36c0,0,123,0,178,-66c0,0,56,-67,56,-218V0H1039V512c0,0,0,117,-32,162c0,0,-32,45,-116,45c0,0,-88,0,-136,-66c0,0,-49,-65,-49,-185V0H573V512c0,0,0,117,-32,162c0,0,-32,45,-116,45c0,0,-86,0,-136,-66c0,0,-50,-66,-50,-185V0Z" 
id="f1_29"
transform="scale(0.001,-0.001)" />

<path d="M355,-14c0,0,-133,0,-194,65c0,0,-62,66,-62,219V808H234V296c0,0,0,-80,16,-124c0,0,16,-44,50,-64c0,0,34,-19,101,-19c0,0,97,0,153,66c0,0,55,67,55,185V808H744V172c0,0,0,-141,4,-172H621c0,0,0,4,-1,20c0,0,-1,17,-2,38c0,0,-1,21,-3,80h-2C613,138,567,55,506,20c0,0,-61,-34,-151,-34Z" 
id="f1_2h"
transform="scale(0.001,-0.001)" />

<path d="M395,89c0,0,115,0,166,79c0,0,51,79,51,246c0,0,0,160,-51,235c0,0,-51,75,-164,75c0,0,-102,0,-147,-75c0,0,-45,-75,-45,-244c0,0,0,-170,45,-243c0,0,45,-73,145,-73ZM361,-14c0,0,-153,0,-225,102c0,0,-72,103,-72,312c0,0,0,422,297,422c0,0,92,0,153,-33c0,0,61,-34,98,-107h2l-2,90v335H747V166c0,0,0,-126,4,-166H623c0,0,-2,12,-5,55c0,0,-3,44,-3,75h-3c0,0,-37,-78,-98,-111c0,0,-62,-33,-153,-33Z" 
id="f1_20"
transform="scale(0.001,-0.001)" />

<path d="M615,0V512c0,0,0,85,-15,126c0,0,-16,42,-52,61c0,0,-36,20,-99,20c0,0,-95,0,-152,-66c0,0,-57,-66,-57,-177V0H106V1107H240V819c0,0,0,-45,-2,-94c0,0,-3,-48,-4,-56h2c0,0,44,79,105,116c0,0,60,37,154,37c0,0,131,0,193,-65c0,0,62,-65,62,-219V0Z" 
id="f1_24"
transform="scale(0.001,-0.001)" />

<path d="M398,93c0,0,63,0,112,37c0,0,49,38,76,107c0,0,27,70,27,166c0,0,0,99,-27,170c0,0,-27,71,-75,109c0,0,-49,38,-111,38c0,0,-103,0,-150,-75c0,0,-47,-75,-47,-242c0,0,0,-165,44,-238c0,0,44,-72,151,-72Zm11,-409c0,0,-132,0,-211,52c0,0,-78,52,-100,147l135,20c0,0,13,-56,59,-87c0,0,46,-30,121,-30c0,0,200,0,200,234V150h-1C612,150,574,72,507,33C507,33,441,-5,352,-5c0,0,-148,0,-218,98c0,0,-70,98,-70,309c0,0,0,214,75,316c0,0,75,101,228,101c0,0,86,0,149,-39c0,0,63,-39,97,-111h2c0,0,0,22,3,78c0,0,3,55,6,61H751c0,0,-4,-41,-4,-167V23c0,0,0,-339,-338,-339Z" 
id="f1_23"
transform="scale(0.001,-0.001)" />

<path d="M106,0V620c0,0,0,85,-5,188H228c0,0,6,-138,6,-165h3c0,0,32,103,74,141c0,0,42,38,118,38c0,0,27,0,54,-7V692c0,0,-26,7,-71,7c0,0,-84,0,-128,-72c0,0,-44,-72,-44,-206V0Z" 
id="f1_2e"
transform="scale(0.001,-0.001)" />

<path d="M135,0V710H22v98H135v91c0,0,0,110,49,158c0,0,48,49,148,49c0,0,56,0,95,-9V994c0,0,-34,6,-60,6c0,0,-51,0,-75,-26c0,0,-23,-26,-23,-94V808H427V710H269V0Z" 
id="f1_22"
transform="scale(0.001,-0.001)" />

<path d="M590,-14c0,0,-159,0,-275,65c0,0,-116,66,-177,189c0,0,-60,123,-60,291c0,0,0,251,135,393c0,0,136,143,376,143c0,0,168,0,281,-66c0,0,112,-66,165,-195L900,762c0,0,-36,92,-117,141c0,0,-81,48,-192,48c0,0,-175,0,-272,-112c0,0,-97,-112,-97,-308c0,0,0,-193,101,-311c0,0,101,-117,274,-117c0,0,221,0,332,218l116,-58c0,0,-65,-136,-182,-207c0,0,-118,-70,-273,-70Z" 
id="f1_13"
transform="scale(0.001,-0.001)" />

<path d="M272,0c0,0,0,201,86,424c0,0,85,223,285,513H78v114H773V942C773,942,612,696,545,556c0,0,-66,-139,-99,-275C446,281,413,145,413,0Z" 
id="f1_r"
transform="scale(0.001,-0.001)" />

<path d="M125,0V1051H268V606H836v445H979V0H836V487H268V0Z" 
id="f1_18"
transform="scale(0.001,-0.001)" />

<path d="M413,-14c0,0,-147,0,-238,64c0,0,-90,64,-114,185l136,16c0,0,42,-155,219,-155c0,0,108,0,169,65c0,0,61,65,61,179c0,0,0,98,-62,159c0,0,-61,61,-165,61c0,0,-55,0,-102,-17c0,0,-47,-17,-94,-58H92l35,566H724V937H249L229,604c0,0,87,67,217,67c0,0,155,0,247,-91c0,0,93,-91,93,-237c0,0,0,-167,-99,-262c0,0,-99,-95,-274,-95Z" 
id="f1_p"
transform="scale(0.001,-0.001)" />

<path d="M545,114c0,0,130,0,190,49c0,0,59,48,59,144c0,0,0,186,-261,186H268V114ZM507,604c0,0,114,0,171,43c0,0,56,43,56,132c0,0,0,85,-58,121c0,0,-58,37,-169,37H268V604ZM125,0V1051H507c0,0,370,0,370,-255c0,0,0,-93,-52,-157c0,0,-52,-63,-148,-85c0,0,126,-15,194,-84c0,0,67,-69,67,-174c0,0,0,-140,-102,-218C836,78,734,0,552,0Z" 
id="f1_12"
transform="scale(0.001,-0.001)" />

<path d="M381,-14c0,0,-150,0,-232,49C149,35,67,85,43,190l118,23c0,0,17,-65,71,-96c0,0,54,-30,149,-30c0,0,102,0,150,31c0,0,47,32,47,95c0,0,0,47,-33,77c0,0,-33,30,-106,49l-96,26c0,0,-115,30,-164,58c0,0,-49,29,-77,70c0,0,-27,41,-27,101c0,0,0,110,78,168c0,0,79,57,230,57c0,0,133,0,212,-47c0,0,79,-47,100,-150L574,607c0,0,-12,53,-60,82c0,0,-49,29,-131,29c0,0,-91,0,-135,-28c0,0,-43,-27,-43,-83c0,0,0,-34,18,-57c0,0,18,-22,53,-38c0,0,35,-15,148,-43c0,0,106,-27,153,-50c0,0,47,-22,75,-50c0,0,27,-27,42,-64c0,0,15,-36,15,-82c0,0,0,-114,-86,-176c0,0,-87,-61,-242,-61Z" 
id="f1_2f"
transform="scale(0.001,-0.001)" />

<path d="M224,0L-1,808H131L267,259c0,0,5,-18,32,-147l13,55L480,808H624L765,253L800,112l23,103L976,808h131L876,0H720L579,571L552,697c0,0,-7,-33,-21,-96C531,601,517,537,379,0Z" 
id="f1_2j"
transform="scale(0.001,-0.001)" />

<path d="M395,89c0,0,115,0,166,81c0,0,51,82,51,244c0,0,0,157,-51,233c0,0,-51,77,-164,77c0,0,-102,0,-147,-77c0,0,-45,-76,-45,-242c0,0,0,-170,45,-243c0,0,45,-73,145,-73ZM612,-316V11l3,122h-1c0,0,-40,-80,-99,-114c0,0,-59,-33,-154,-33c0,0,-154,0,-225,103c0,0,-72,104,-72,311c0,0,0,422,297,422c0,0,92,0,151,-32c0,0,60,-33,100,-108h2c0,0,0,22,3,77c0,0,3,55,6,58H752c0,0,-5,-44,-5,-220V-316Z" 
id="f1_2d"
transform="scale(0.001,-0.001)" />

<path d="M125,0V1051H268V524l506,527H942L495,595L1002,0H825L405,507L268,403V0Z" 
id="f1_1b"
transform="scale(0.001,-0.001)" />

<path d="M593,101c0,0,182,0,279,112c0,0,98,113,98,318c0,0,0,196,-98,308c0,0,-98,112,-277,112c0,0,-181,0,-279,-110c0,0,-99,-111,-99,-310c0,0,0,-198,100,-314c0,0,99,-116,276,-116Zm0,-115c0,0,-162,0,-279,65c0,0,-118,66,-180,190c0,0,-62,124,-62,290c0,0,0,252,138,394c0,0,138,142,385,142c0,0,160,0,278,-64c0,0,118,-64,180,-185c0,0,62,-122,62,-287c0,0,0,-165,-63,-289c0,0,-63,-124,-181,-190c0,0,-118,-66,-278,-66Z" 
id="f1_1f"
transform="scale(0.001,-0.001)" />

<path d="M137,-195c0,0,70,102,70,195H142V163H287V38c0,0,0,-78,-14,-131c0,0,-14,-53,-44,-102Z" 
id="f1_g"
transform="scale(0.001,-0.001)" />

<path d="M606,-14c0,0,-164,0,-284,65c0,0,-119,66,-182,189c0,0,-63,123,-63,291c0,0,0,255,137,396c0,0,137,140,386,140c0,0,174,0,283,-59c0,0,109,-59,168,-189L915,779c0,0,-44,90,-123,131c0,0,-79,41,-196,41c0,0,-182,0,-278,-110c0,0,-96,-110,-96,-310c0,0,0,-200,102,-315c0,0,102,-115,282,-115c0,0,103,0,193,31c0,0,89,31,144,85V407H629V526h445V164c0,0,-83,-85,-205,-132c0,0,-121,-46,-263,-46Z" 
id="f1_17"
transform="scale(0.001,-0.001)" />

<path d="M17,0L304,415L31,808H179L380,493L580,808H730L457,417L747,0H598L380,331L162,0Z" 
id="f1_2k"
transform="scale(0.001,-0.001)" />

<path d="M453,84c0,0,101,0,146,75c0,0,46,75,46,244c0,0,0,169,-45,243c0,0,-45,73,-146,73c0,0,-113,0,-165,-78c0,0,-52,-78,-52,-246c0,0,0,-159,51,-235c0,0,51,-76,165,-76Zm36,-98c0,0,-92,0,-153,33c0,0,-61,33,-99,107h-1c0,0,0,-24,-3,-71c0,0,-3,-48,-5,-55H98c0,0,5,40,5,166v941H237V792c0,0,0,-49,-3,-114h3c0,0,38,77,99,111c0,0,62,33,153,33c0,0,153,0,225,-103c0,0,72,-103,72,-311c0,0,0,-422,-297,-422Z" 
id="f1_1y"
transform="scale(0.001,-0.001)" />

<path d="M12,-316v96H186V1011H12v96H316V-316Z" 
id="f1_1t"
transform="scale(0.001,-0.001)" />

<path d="M416,464c0,0,58,0,108,27c0,0,50,26,78,75c0,0,29,49,29,111c0,0,0,127,-58,204c0,0,-58,77,-156,77c0,0,-97,0,-153,-66c0,0,-56,-66,-56,-179c0,0,0,-115,56,-182c0,0,56,-67,152,-67ZM397,-14c0,0,-123,0,-197,51c0,0,-75,52,-107,168l129,20c0,0,40,-131,177,-131c0,0,116,0,179,107c0,0,64,107,67,306c0,0,-30,-67,-103,-108c0,0,-72,-40,-159,-40c0,0,-141,0,-226,97c0,0,-85,97,-85,257c0,0,0,165,92,259c0,0,93,95,257,95c0,0,176,0,266,-130c0,0,90,-130,90,-390c0,0,0,-271,-99,-416c0,0,-98,-145,-281,-145Z" 
id="f1_t"
transform="scale(0.001,-0.001)" />

<path d="M125,0V1051H291L859,150c0,0,-9,146,-9,212v689H979V0H807L245,895l3,-72l4,-125V0Z" 
id="f1_1e"
transform="scale(0.001,-0.001)" />

<path d="M426,-14c0,0,-160,0,-255,71c0,0,-95,72,-113,213l139,13c0,0,27,-187,229,-187c0,0,101,0,159,50c0,0,58,50,58,149c0,0,0,86,-66,134c0,0,-66,48,-191,48H310V594h73c0,0,111,0,172,48c0,0,60,48,60,133c0,0,0,84,-49,132c0,0,-50,49,-147,49c0,0,-89,0,-144,-45c0,0,-55,-46,-64,-129L76,793c0,0,15,129,107,201c0,0,92,73,237,73c0,0,158,0,246,-74c0,0,87,-73,87,-204c0,0,0,-101,-56,-164c0,0,-56,-63,-164,-85v-3c0,0,118,-13,184,-79c0,0,66,-67,66,-167c0,0,0,-146,-93,-226c0,0,-92,-79,-264,-79Z" 
id="f1_n"
transform="scale(0.001,-0.001)" />

<path d="M103,0V1107H237V416L592,808H749L421,461L766,0H609L336,369L237,287V0Z" 
id="f1_27"
transform="scale(0.001,-0.001)" />

<path d="M62,0V102L513,704H87V808H672V706L220,104H688V0Z" 
id="f1_2m"
transform="scale(0.001,-0.001)" />

<path d="M68,346V465H441V346Z" 
id="f1_h"
transform="scale(0.001,-0.001)" />

<path d="M141,0V1051H283V0Z" 
id="f1_19"
transform="scale(0.001,-0.001)" />

<path d="M410,514L298,707L181,516L93,570L233,755L25,809L58,909L257,829l-9,222H350L340,831l197,77l34,-99L360,755L498,568L410,514Z" 
id="f1_e"
transform="scale(0.001,-0.001)" />

<path d="M77,0V95c0,0,38,87,93,154c0,0,55,67,115,121c0,0,60,54,120,100c0,0,59,46,107,93c0,0,47,46,77,97c0,0,29,50,29,114c0,0,0,87,-50,135c0,0,-51,47,-141,47c0,0,-86,0,-142,-46c0,0,-55,-47,-65,-131L83,791c0,0,15,126,107,201c0,0,92,75,237,75c0,0,159,0,244,-75c0,0,85,-75,85,-213c0,0,0,-61,-28,-122c0,0,-28,-60,-83,-120c0,0,-55,-61,-211,-188c0,0,-86,-70,-136,-126c0,0,-51,-56,-73,-109H773V0Z" 
id="f1_m"
transform="scale(0.001,-0.001)" />

<path d="M424,96c0,0,119,0,174,106c0,0,55,106,55,325c0,0,0,227,-52,329c0,0,-53,102,-174,102c0,0,-123,0,-177,-100c0,0,-55,-101,-55,-331c0,0,0,-224,55,-328c0,0,55,-103,174,-103ZM423,-14c0,0,-181,0,-272,137c0,0,-91,138,-91,403c0,0,0,271,88,406c0,0,88,135,279,135c0,0,186,0,275,-137c0,0,88,-136,88,-404c0,0,0,-263,-93,-402c0,0,-93,-138,-274,-138Z" 
id="f1_k"
transform="scale(0.001,-0.001)" />

<path d="M34,0L434,546L65,1051H222L515,639l284,412H956L597,551L987,0H830L514,460L192,0Z" 
id="f1_1o"
transform="scale(0.001,-0.001)" />

<path d="M439,94c0,0,97,0,152,65c0,0,55,65,55,179c0,0,0,114,-56,176c0,0,-56,62,-156,62c0,0,-94,0,-152,-55c0,0,-57,-55,-57,-151c0,0,0,-121,60,-199c0,0,60,-77,154,-77Zm4,-108c0,0,-177,0,-271,131c0,0,-94,132,-94,384c0,0,0,273,97,420c0,0,98,146,279,146c0,0,238,0,299,-214L625,830c0,0,-39,128,-173,128c0,0,-115,0,-178,-107c0,0,-63,-107,-63,-310c0,0,37,68,103,103c0,0,66,36,152,36c0,0,146,0,231,-91c0,0,86,-91,86,-245c0,0,0,-166,-91,-262c0,0,-90,-96,-249,-96Z" 
id="f1_q"
transform="scale(0.001,-0.001)" />

<path d="M438,0V436L34,1051H190L510,551l319,500H985L580,436V0Z" 
id="f1_1p"
transform="scale(0.001,-0.001)" />

<path d="M48,0V106L689,936H103v115H850V948L210,115H885V0Z" 
id="f1_1q"
transform="scale(0.001,-0.001)" />

<path d="M420,489c0,0,93,0,153,65c0,0,60,65,60,181c0,0,0,116,-62,184c0,0,-61,68,-148,68c0,0,-90,0,-156,-74c0,0,-66,-73,-66,-189c0,0,0,-105,63,-170c0,0,63,-65,156,-65ZM391,-18c0,0,-128,0,-209,71c0,0,-82,71,-98,200l129,12c0,0,17,-91,63,-132c0,0,46,-41,118,-41c0,0,62,0,109,28c0,0,47,29,76,76c0,0,30,47,50,128c0,0,20,80,20,164c0,0,0,9,-1,27c0,0,-40,-65,-110,-105c0,0,-69,-39,-151,-39c0,0,-135,0,-229,98c0,0,-94,99,-94,260c0,0,0,166,98,268c0,0,98,101,245,101c0,0,107,0,195,-57c0,0,89,-58,134,-164c0,0,46,-106,46,-308c0,0,0,-209,-45,-334C737,235,691,111,602,46c0,0,-90,-64,-211,-64Z" 
id="f2_t"
transform="scale(0.001,-0.001)" />

<path d="M125,0V1051H268V115H799V0Z" 
id="f0_1c"
transform="scale(0.001,-0.001)" />

<path d="M106,0V620c0,0,0,85,-5,188H228c0,0,6,-138,6,-165h3c0,0,32,103,74,141c0,0,42,38,118,38c0,0,27,0,54,-7V692c0,0,-26,7,-71,7c0,0,-84,0,-128,-72c0,0,-44,-72,-44,-206V0Z" 
id="f0_2e"
transform="scale(0.001,-0.001)" />

<path d="M606,-14c0,0,-164,0,-284,65c0,0,-119,66,-182,189c0,0,-63,123,-63,291c0,0,0,255,137,396c0,0,137,140,386,140c0,0,174,0,283,-59c0,0,109,-59,168,-189L915,779c0,0,-44,90,-123,131c0,0,-79,41,-196,41c0,0,-182,0,-278,-110c0,0,-96,-110,-96,-310c0,0,0,-200,102,-315c0,0,102,-115,282,-115c0,0,103,0,193,31c0,0,89,31,144,85V407H629V526h445V164c0,0,-83,-85,-205,-132c0,0,-121,-46,-263,-46Z" 
id="f0_17"
transform="scale(0.001,-0.001)" />

<path d="M355,-14c0,0,-133,0,-194,65c0,0,-62,66,-62,219V808H234V296c0,0,0,-80,16,-124c0,0,16,-44,50,-64c0,0,34,-19,101,-19c0,0,97,0,153,66c0,0,55,67,55,185V808H744V172c0,0,0,-141,4,-172H621c0,0,0,4,-1,20c0,0,-1,17,-2,38c0,0,-1,21,-3,80h-2C613,138,567,55,506,20c0,0,-61,-34,-151,-34Z" 
id="f0_2h"
transform="scale(0.001,-0.001)" />

<path d="M395,89c0,0,115,0,166,79c0,0,51,79,51,246c0,0,0,160,-51,235c0,0,-51,75,-164,75c0,0,-102,0,-147,-75c0,0,-45,-75,-45,-244c0,0,0,-170,45,-243c0,0,45,-73,145,-73ZM361,-14c0,0,-153,0,-225,102c0,0,-72,103,-72,312c0,0,0,422,297,422c0,0,92,0,153,-33c0,0,61,-34,98,-107h2l-2,90v335H747V166c0,0,0,-126,4,-166H623c0,0,-2,12,-5,55c0,0,-3,44,-3,75h-3c0,0,-37,-78,-98,-111c0,0,-62,-33,-153,-33Z" 
id="f0_20"
transform="scale(0.001,-0.001)" />

<path d="M140,0V163H285V0Z" 
id="f0_i"
transform="scale(0.001,-0.001)" />


</defs>
</svg>