<?xml version="1.0" encoding="UTF-8" standalone="no"?>
<!DOCTYPE svg PUBLIC "-//W3C//DTD SVG 1.1//EN"
"http://www.w3.org/Graphics/SVG/1.1/DTD/svg11.dtd">
<svg viewBox="0 0 768 1128" version="1.1" xmlns="http://www.w3.org/2000/svg" xmlns:xlink="http://www.w3.org/1999/xlink">
<defs>
<style type="text/css"><![CDATA[
.g0_32{
fill: none;
stroke: #010101;
stroke-width: 1.1458334;
stroke-linecap: round;
stroke-linejoin: round;
}
.g1_32{
fill: #010101;
}
]]></style>
</defs>
<g fill="#D4D4D4" fill-opacity="0.36" >
<use xlink:href="#f0_1f" transform="matrix(50.9,-50.9,50.9,50.9,157.1,814.1)" />
<use xlink:href="#f0_2a" transform="matrix(50.9,-50.9,50.9,50.9,217.6,753.6)" />
<use xlink:href="#f0_28" transform="matrix(50.9,-50.9,50.9,50.9,260.9,710.3)" />
<use xlink:href="#f0_25" transform="matrix(50.9,-50.9,50.9,50.9,278.1,693.1)" />
<use xlink:href="#f0_2a" transform="matrix(50.9,-50.9,50.9,50.9,295.4,675.8)" />
<use xlink:href="#f0_21" transform="matrix(50.9,-50.9,50.9,50.9,338.7,632.5)" />
<use xlink:href="#f0_2k" transform="matrix(50.9,-50.9,50.9,50.9,381.9,589.3)" />
<use xlink:href="#f0_1x" transform="matrix(50.9,-50.9,50.9,50.9,420.8,550.4)" />
<use xlink:href="#f0_29" transform="matrix(50.9,-50.9,50.9,50.9,464,507.2)" />
<use xlink:href="#f0_2c" transform="matrix(50.9,-50.9,50.9,50.9,528.8,442.4)" />
<use xlink:href="#f0_2b" transform="matrix(50.9,-50.9,50.9,50.9,572.1,399.1)" />
<use xlink:href="#f0_25" transform="matrix(50.9,-50.9,50.9,50.9,615.3,355.9)" />
<use xlink:href="#f0_2a" transform="matrix(50.9,-50.9,50.9,50.9,632.6,338.6)" />
<use xlink:href="#f0_2g" transform="matrix(50.9,-50.9,50.9,50.9,675.8,295.4)" />
</g>
<g fill="#000000" >
<use xlink:href="#f1_m" transform="matrix(12,0,0,12,45.9,242.8)" />
<use xlink:href="#f1_d" transform="matrix(12,0,0,12,56.1,242.8)" />
<use xlink:href="#f1_2j" transform="matrix(12,0,0,12,67.3,242.8)" />
<use xlink:href="#f1_24" transform="matrix(12,0,0,12,80.6,242.8)" />
<use xlink:href="#f1_1x" transform="matrix(12,0,0,12,90.8,242.8)" />
<use xlink:href="#f1_2g" transform="matrix(12,0,0,12,100.9,242.8)" />
<use xlink:href="#f1_25" transform="matrix(12,0,0,12,111.2,242.8)" />
<use xlink:href="#f1_2f" transform="matrix(12,0,0,12,115.2,242.8)" />
<use xlink:href="#f1_2g" transform="matrix(12,0,0,12,129.5,242.8)" />
<use xlink:href="#f1_24" transform="matrix(12,0,0,12,134.6,242.8)" />
<use xlink:href="#f1_21" transform="matrix(12,0,0,12,144.8,242.8)" />
<use xlink:href="#f1_2i" transform="matrix(12,0,0,12,160.1,242.8)" />
<use xlink:href="#f1_1x" transform="matrix(12,0,0,12,169.3,242.8)" />
<use xlink:href="#f1_28" transform="matrix(12,0,0,12,179.5,242.8)" />
<use xlink:href="#f1_2h" transform="matrix(12,0,0,12,183.5,242.8)" />
<use xlink:href="#f1_21" transform="matrix(12,0,0,12,193.7,242.8)" />
<use xlink:href="#f1_2b" transform="matrix(12,0,0,12,209,242.8)" />
<use xlink:href="#f1_22" transform="matrix(12,0,0,12,219.2,242.8)" />
<use xlink:href="#f1_1x" transform="matrix(12,0,0,12,229.4,242.8)" />
<use xlink:href="#f1_1x" transform="matrix(12,0,0,12,244.8,242.8)" />
<use xlink:href="#f1_2a" transform="matrix(12,0,0,12,254.9,242.8)" />
<use xlink:href="#f1_20" transform="matrix(12,0,0,12,265.1,242.8)" />
<use xlink:href="#f1_1y" transform="matrix(12,0,0,12,280.4,242.8)" />
<use xlink:href="#f1_z" transform="matrix(12,0,0,12,120.5,285)" />
<use xlink:href="#f1_c" transform="matrix(12,0,0,12,136,285)" />
<use xlink:href="#f1_1x" transform="matrix(12,0,0,12,142.1,285)" />
<use xlink:href="#f1_d" transform="matrix(12,0,0,12,152.3,285)" />
<use xlink:href="#f1_1c" transform="matrix(12,0,0,12,45.9,348.2)" />
<use xlink:href="#f1_2b" transform="matrix(12,0,0,12,56.1,348.2)" />
<use xlink:href="#f1_23" transform="matrix(12,0,0,12,66.3,348.2)" />
<use xlink:href="#f1_1r" transform="matrix(12,0,0,12,81.6,348.2)" />
<use xlink:href="#f1_1i" transform="matrix(12,0,0,12,86.7,348.2)" />
<use xlink:href="#f1_1t" transform="matrix(12,0,0,12,100,348.2)" />
<use xlink:href="#f1_1j" transform="matrix(12,0,0,12,234.5,390.4)" />
<use xlink:href="#f1_28" transform="matrix(12,0,0,12,246.7,390.4)" />
<use xlink:href="#f1_2b" transform="matrix(12,0,0,12,250.8,390.4)" />
<use xlink:href="#f1_2c" transform="matrix(12,0,0,12,260.9,390.4)" />
<use xlink:href="#f1_21" transform="matrix(12,0,0,12,271.1,390.4)" />
<use xlink:href="#f1_x" transform="matrix(12,0,0,12,281.3,390.4)" />
<use xlink:href="#f1_z" transform="matrix(12,0,0,12,297.1,390.4)" />
<use xlink:href="#f1_c" transform="matrix(12,0,0,12,307.3,390.4)" />
<use xlink:href="#f1_1y" transform="matrix(12,0,0,12,313.4,390.4)" />
<use xlink:href="#f1_d" transform="matrix(12,0,0,12,323.6,390.4)" />
</g>
<path d="M112.4,261.3l1.1,144.4m-1.1,0H288.8M112.4,291.1L247.6,405.7" class="g0_32" />
<path d="M69.4,322.1V298.7c0,-.3,.3,-.5,.5,-.5c.4,0,.7,.2,.7,.5v23.4c0,.3,-.3,.5,-.7,.5c-.2,0,-.5,-.2,-.5,-.5Zm-4,-21.8l4.5,-9.2l4.6,9.2Z" class="g1_32" />
<g fill="#000000" >
<use xlink:href="#f1_2g" transform="matrix(12,0,0,12,176.3,432.6)" />
</g>
<path d="M190.3,430.4l29,-1c.3,0,.6,.3,.6,.6c0,.4,-.3,.6,-.5,.6l-29.1,.9c-.3,0,-.5,-.2,-.5,-.5c0,-.4,.1,-.6,.5,-.6Zm27.3,-4.9l9.4,4.3l-9,4.9Z" class="g1_32" />
<g fill="#000000" >
<use xlink:href="#f1_2d" transform="matrix(12,0,0,12,45.9,495.8)" />
<use xlink:href="#f1_s" transform="matrix(12,0,0,12,61.2,495.8)" />
<use xlink:href="#f1_i" transform="matrix(12,0,0,12,71.4,495.8)" />
<use xlink:href="#f1_l" transform="matrix(12,0,0,12,81.7,495.8)" />
<use xlink:href="#f1_d" transform="matrix(12,0,0,12,91.8,495.8)" />
<use xlink:href="#f1_2j" transform="matrix(12,0,0,12,103.1,495.8)" />
<use xlink:href="#f1_24" transform="matrix(12,0,0,12,116.3,495.8)" />
<use xlink:href="#f1_1x" transform="matrix(12,0,0,12,126.5,495.8)" />
<use xlink:href="#f1_2g" transform="matrix(12,0,0,12,136.7,495.8)" />
<use xlink:href="#f1_25" transform="matrix(12,0,0,12,146.9,495.8)" />
<use xlink:href="#f1_2f" transform="matrix(12,0,0,12,151,495.8)" />
<use xlink:href="#f1_2g" transform="matrix(12,0,0,12,165.3,495.8)" />
<use xlink:href="#f1_24" transform="matrix(12,0,0,12,170.3,495.8)" />
<use xlink:href="#f1_21" transform="matrix(12,0,0,12,180.5,495.8)" />
<use xlink:href="#f1_2b" transform="matrix(12,0,0,12,195.9,495.8)" />
<use xlink:href="#f1_2e" transform="matrix(12,0,0,12,206,495.8)" />
<use xlink:href="#f1_20" transform="matrix(12,0,0,12,212.1,495.8)" />
<use xlink:href="#f1_21" transform="matrix(12,0,0,12,222.3,495.8)" />
<use xlink:href="#f1_2e" transform="matrix(12,0,0,12,232.5,495.8)" />
<use xlink:href="#f1_2b" transform="matrix(12,0,0,12,243.8,495.8)" />
<use xlink:href="#f1_22" transform="matrix(12,0,0,12,253.9,495.8)" />
<use xlink:href="#f1_2e" transform="matrix(12,0,0,12,269.3,495.8)" />
<use xlink:href="#f1_2a" transform="matrix(8,0,0,8,275.3,487.4)" />
<use xlink:href="#f1_m" transform="matrix(12,0,0,12,45.9,516.9)" />
<use xlink:href="#f1_d" transform="matrix(12,0,0,12,56.1,516.9)" />
<use xlink:href="#f1_2j" transform="matrix(12,0,0,12,67.3,516.9)" />
<use xlink:href="#f1_24" transform="matrix(12,0,0,12,80.6,516.9)" />
<use xlink:href="#f1_1x" transform="matrix(12,0,0,12,90.8,516.9)" />
<use xlink:href="#f1_2g" transform="matrix(12,0,0,12,101,516.9)" />
<use xlink:href="#f1_25" transform="matrix(12,0,0,12,111.2,516.9)" />
<use xlink:href="#f1_2f" transform="matrix(12,0,0,12,115.2,516.9)" />
<use xlink:href="#f1_2g" transform="matrix(12,0,0,12,129.5,516.9)" />
<use xlink:href="#f1_24" transform="matrix(12,0,0,12,134.6,516.9)" />
<use xlink:href="#f1_21" transform="matrix(12,0,0,12,144.8,516.9)" />
<use xlink:href="#f1_2i" transform="matrix(12,0,0,12,160.1,516.9)" />
<use xlink:href="#f1_1x" transform="matrix(12,0,0,12,169.3,516.9)" />
<use xlink:href="#f1_28" transform="matrix(12,0,0,12,179.5,516.9)" />
<use xlink:href="#f1_2h" transform="matrix(12,0,0,12,183.5,516.9)" />
<use xlink:href="#f1_21" transform="matrix(12,0,0,12,193.7,516.9)" />
<use xlink:href="#f1_2b" transform="matrix(12,0,0,12,214.2,516.9)" />
<use xlink:href="#f1_22" transform="matrix(12,0,0,12,224.4,516.9)" />
<use xlink:href="#f1_2f" transform="matrix(12,0,0,12,234.6,516.9)" />
<use xlink:href="#f1_28" transform="matrix(12,0,0,12,243.8,516.9)" />
<use xlink:href="#f1_2b" transform="matrix(12,0,0,12,247.8,516.9)" />
<use xlink:href="#f1_2c" transform="matrix(12,0,0,12,258,516.9)" />
<use xlink:href="#f1_21" transform="matrix(12,0,0,12,268.2,516.9)" />
<use xlink:href="#f1_1x" transform="matrix(12,0,0,12,283.5,516.9)" />
<use xlink:href="#f1_2a" transform="matrix(12,0,0,12,293.7,516.9)" />
<use xlink:href="#f1_20" transform="matrix(12,0,0,12,303.9,516.9)" />
<use xlink:href="#f1_25" transform="matrix(12,0,0,12,319.2,516.9)" />
<use xlink:href="#f1_2a" transform="matrix(12,0,0,12,323.3,516.9)" />
<use xlink:href="#f1_2g" transform="matrix(12,0,0,12,333.5,516.9)" />
<use xlink:href="#f1_21" transform="matrix(12,0,0,12,338.6,516.9)" />
<use xlink:href="#f1_2e" transform="matrix(12,0,0,12,348.7,516.9)" />
<use xlink:href="#f1_1z" transform="matrix(12,0,0,12,354.8,516.9)" />
<use xlink:href="#f1_21" transform="matrix(12,0,0,12,364,516.9)" />
<use xlink:href="#f1_2c" transform="matrix(12,0,0,12,374.2,516.9)" />
<use xlink:href="#f1_2g" transform="matrix(12,0,0,12,384.4,516.9)" />
<use xlink:href="#f1_z" transform="matrix(12,0,0,12,122.4,622.3)" />
<use xlink:href="#f1_1r" transform="matrix(12,0,0,12,66.4,685.6)" />
<use xlink:href="#f1_1i" transform="matrix(12,0,0,12,71.5,685.6)" />
<use xlink:href="#f1_1t" transform="matrix(12,0,0,12,84.8,685.6)" />
<use xlink:href="#f1_1j" transform="matrix(12,0,0,12,234.5,727.7)" />
<use xlink:href="#f1_28" transform="matrix(12,0,0,12,246.7,727.7)" />
<use xlink:href="#f1_2b" transform="matrix(12,0,0,12,250.7,727.7)" />
<use xlink:href="#f1_2c" transform="matrix(12,0,0,12,260.9,727.7)" />
<use xlink:href="#f1_21" transform="matrix(12,0,0,12,271.1,727.7)" />
<use xlink:href="#f1_x" transform="matrix(12,0,0,12,281.3,727.7)" />
<use xlink:href="#f1_z" transform="matrix(12,0,0,12,297.1,727.7)" />
</g>
<path d="M112.4,743H288.8M112.4,628.4L247.6,743M111.2,598.6L112.4,743" class="g0_32" />
<path d="M69.4,659.4V636.1c0,-.3,.3,-.6,.5,-.6c.4,0,.7,.3,.7,.6v23.3c0,.3,-.3,.6,-.7,.6c-.2,0,-.5,-.3,-.5,-.6Zm-4,-21.8l4.5,-9.2l4.6,9.2Z" class="g1_32" />
<g fill="#000000" >
<use xlink:href="#f1_2g" transform="matrix(12,0,0,12,176.3,769.9)" />
</g>
<path d="M190.3,766.5l29,-.9c.3,0,.6,.3,.6,.5c0,.3,-.3,.6,-.5,.6l-29.1,.9c-.3,0,-.5,-.2,-.5,-.6c0,-.2,.1,-.5,.5,-.5Zm27.3,-4.9l9.4,4.3l-9,4.9Z" class="g1_32" />
<g fill="#000000" >
<use xlink:href="#f1_2d" transform="matrix(12,0,0,12,45.9,833)" />
<use xlink:href="#f1_t" transform="matrix(12,0,0,12,61.3,833)" />
<use xlink:href="#f1_i" transform="matrix(12,0,0,12,71.4,833)" />
<use xlink:href="#f1_l" transform="matrix(12,0,0,12,76.5,833)" />
<use xlink:href="#f1_d" transform="matrix(12,0,0,12,86.7,833)" />
<use xlink:href="#f1_i" transform="matrix(12,0,0,12,92.8,833)" />
<use xlink:href="#f1_2j" transform="matrix(12,0,0,12,103,833)" />
<use xlink:href="#f1_24" transform="matrix(12,0,0,12,116.3,833)" />
<use xlink:href="#f1_1x" transform="matrix(12,0,0,12,126.5,833)" />
<use xlink:href="#f1_2g" transform="matrix(12,0,0,12,136.7,833)" />
<use xlink:href="#f1_25" transform="matrix(12,0,0,12,146.9,833)" />
<use xlink:href="#f1_2f" transform="matrix(12,0,0,12,150.9,833)" />
<use xlink:href="#f1_2g" transform="matrix(12,0,0,12,165.2,833)" />
<use xlink:href="#f1_24" transform="matrix(12,0,0,12,170.3,833)" />
<use xlink:href="#f1_21" transform="matrix(12,0,0,12,180.5,833)" />
<use xlink:href="#f1_2i" transform="matrix(12,0,0,12,195.8,833)" />
<use xlink:href="#f1_1x" transform="matrix(12,0,0,12,205,833)" />
<use xlink:href="#f1_28" transform="matrix(12,0,0,12,215.2,833)" />
<use xlink:href="#f1_2h" transform="matrix(12,0,0,12,219.3,833)" />
<use xlink:href="#f1_21" transform="matrix(12,0,0,12,229.5,833)" />
<use xlink:href="#f1_2b" transform="matrix(12,0,0,12,249.9,833)" />
<use xlink:href="#f1_22" transform="matrix(12,0,0,12,260.1,833)" />
<use xlink:href="#f1_2f" transform="matrix(12,0,0,12,270.3,833)" />
<use xlink:href="#f1_28" transform="matrix(12,0,0,12,279.5,833)" />
<use xlink:href="#f1_2b" transform="matrix(12,0,0,12,283.6,833)" />
<use xlink:href="#f1_2c" transform="matrix(12,0,0,12,293.7,833)" />
<use xlink:href="#f1_21" transform="matrix(12,0,0,12,303.9,833)" />
<use xlink:href="#f1_28" transform="matrix(12,0,0,12,134.2,896.3)" />
<use xlink:href="#f1_2b" transform="matrix(12,0,0,12,138.3,896.3)" />
<use xlink:href="#f1_23" transform="matrix(12,0,0,12,148.4,896.3)" />
<use xlink:href="#f1_11" transform="matrix(12,0,0,12,163.8,896.3)" />
<use xlink:href="#f1_1r" transform="matrix(12,0,0,12,66.4,959.5)" />
<use xlink:href="#f1_1i" transform="matrix(12,0,0,12,71.5,959.5)" />
<use xlink:href="#f1_1t" transform="matrix(12,0,0,12,84.8,959.5)" />
<use xlink:href="#f1_1j" transform="matrix(12,0,0,12,234.5,1001.7)" />
<use xlink:href="#f1_28" transform="matrix(12,0,0,12,246.7,1001.7)" />
<use xlink:href="#f1_2b" transform="matrix(12,0,0,12,250.7,1001.7)" />
<use xlink:href="#f1_2c" transform="matrix(12,0,0,12,260.9,1001.7)" />
<use xlink:href="#f1_21" transform="matrix(12,0,0,12,271.1,1001.7)" />
<use xlink:href="#f1_x" transform="matrix(12,0,0,12,281.3,1001.7)" />
<use xlink:href="#f1_z" transform="matrix(12,0,0,12,297.1,1001.7)" />
</g>
<path d="M112.4,1017.1H288.8M112.4,902.4l135.2,114.7M111.2,872.6l1.2,144.4" class="g0_32" />
<path d="M69.4,933.4V910c0,-.2,.3,-.5,.5,-.5c.4,0,.7,.3,.7,.5v23.4c0,.4,-.3,.6,-.7,.6c-.2,0,-.5,-.2,-.5,-.6Zm-4,-21.8l4.5,-9.2l4.6,9.2Z" class="g1_32" />
<g fill="#000000" >
<use xlink:href="#f1_2g" transform="matrix(12,0,0,12,176.3,1043.9)" />
</g>
<path d="M190.3,1040.6l29,-.9c.3,0,.6,.2,.6,.5c0,.3,-.3,.6,-.5,.6l-29.1,.9c-.3,0,-.5,-.2,-.5,-.6c0,-.2,.1,-.5,.5,-.5Zm27.3,-4.9l9.4,4.3l-9,4.9Z" class="g1_32" />
<g fill="#000000" >
<use xlink:href="#f1_l" transform="matrix(12,0,0,12,49,163.3)" />
<use xlink:href="#f1_d" transform="matrix(12,0,0,12,59.2,163.3)" />
<use xlink:href="#f1_i" transform="matrix(12,0,0,12,65.3,163.3)" />
<use xlink:href="#f1_1n" transform="matrix(12,0,0,12,75.5,163.3)" />
<use xlink:href="#f1_24" transform="matrix(12,0,0,12,92.8,163.3)" />
<use xlink:href="#f1_1x" transform="matrix(12,0,0,12,103,163.3)" />
<use xlink:href="#f1_2g" transform="matrix(12,0,0,12,113.2,163.3)" />
<use xlink:href="#f1_25" transform="matrix(12,0,0,12,123.5,163.3)" />
<use xlink:href="#f1_2f" transform="matrix(12,0,0,12,127.5,163.3)" />
<use xlink:href="#f1_2g" transform="matrix(12,0,0,12,146.9,163.3)" />
<use xlink:href="#f1_24" transform="matrix(12,0,0,12,152,163.3)" />
<use xlink:href="#f1_21" transform="matrix(12,0,0,12,162.2,163.3)" />
<use xlink:href="#f1_2b" transform="matrix(12,0,0,12,177.5,163.3)" />
<use xlink:href="#f1_2e" transform="matrix(12,0,0,12,187.7,163.3)" />
<use xlink:href="#f1_20" transform="matrix(12,0,0,12,193.8,163.3)" />
<use xlink:href="#f1_21" transform="matrix(12,0,0,12,204,163.3)" />
<use xlink:href="#f1_2e" transform="matrix(12,0,0,12,214.2,163.3)" />
<use xlink:href="#f1_2b" transform="matrix(12,0,0,12,225.5,163.3)" />
<use xlink:href="#f1_22" transform="matrix(12,0,0,12,235.6,163.3)" />
<use xlink:href="#f1_2e" transform="matrix(12,0,0,12,245.9,163.3)" />
<use xlink:href="#f1_2a" transform="matrix(8,0,0,8,251.9,154.9)" />
<use xlink:href="#f2_r" transform="matrix(8,0,0,8,726.6,1103.9)" />
</g>
<g fill="#0080FF" fill-opacity="0.5" >
<use xlink:href="#f0_1c" transform="matrix(40.1,0,0,40.1,192.2,1069.3)" />
<use xlink:href="#f0_21" transform="matrix(40.1,0,0,40.1,226.2,1069.3)" />
<use xlink:href="#f0_1x" transform="matrix(40.1,0,0,40.1,260.3,1069.3)" />
<use xlink:href="#f0_2e" transform="matrix(40.1,0,0,40.1,294.3,1069.3)" />
<use xlink:href="#f0_2a" transform="matrix(40.1,0,0,40.1,314.7,1069.3)" />
<use xlink:href="#f0_17" transform="matrix(40.1,0,0,40.1,348.7,1069.3)" />
<use xlink:href="#f0_2h" transform="matrix(40.1,0,0,40.1,396.3,1069.3)" />
<use xlink:href="#f0_25" transform="matrix(40.1,0,0,40.1,430.4,1069.3)" />
<use xlink:href="#f0_20" transform="matrix(40.1,0,0,40.1,444,1069.3)" />
<use xlink:href="#f0_21" transform="matrix(40.1,0,0,40.1,478,1069.3)" />
<use xlink:href="#f0_i" transform="matrix(40.1,0,0,40.1,512,1069.3)" />
<use xlink:href="#f0_25" transform="matrix(40.1,0,0,40.1,529,1069.3)" />
<use xlink:href="#f0_2a" transform="matrix(40.1,0,0,40.1,542.6,1069.3)" />
</g>
<defs>
<path d="M593,101c0,0,182,0,279,112c0,0,98,113,98,318c0,0,0,196,-98,308c0,0,-98,112,-277,112c0,0,-181,0,-279,-110c0,0,-99,-111,-99,-310c0,0,0,-198,100,-314c0,0,99,-116,276,-116Zm0,-115c0,0,-162,0,-279,65c0,0,-118,66,-180,190c0,0,-62,124,-62,290c0,0,0,252,138,394c0,0,138,142,385,142c0,0,160,0,278,-64c0,0,118,-64,180,-185c0,0,62,-122,62,-287c0,0,0,-165,-63,-289c0,0,-63,-124,-181,-190c0,0,-118,-66,-278,-66Z" 
id="f0_1f"
transform="scale(0.001,-0.001)" />

<path d="M106,0V635c0,0,0,141,-5,173H228c0,0,1,-4,2,-21c0,0,1,-16,2,-37c0,0,1,-22,2,-81h2c0,0,47,84,108,119c0,0,60,34,151,34c0,0,132,0,194,-66c0,0,61,-66,61,-218V0H615V512c0,0,0,80,-15,124c0,0,-16,44,-50,63c0,0,-35,20,-101,20c0,0,-97,0,-153,-67c0,0,-56,-66,-56,-184V0Z" 
id="f0_2a"
transform="scale(0.001,-0.001)" />

<path d="M103,0V1107H237V0Z" 
id="f0_28"
transform="scale(0.001,-0.001)" />

<path d="M102,0V808H236V0Zm0,979v128H236V979Z" 
id="f0_25"
transform="scale(0.001,-0.001)" />

<path d="M643,478c0,0,-11,128,-65,187c0,0,-54,59,-154,59c0,0,-98,0,-155,-66c0,0,-57,-65,-62,-180ZM431,-14c0,0,-179,0,-272,106c0,0,-94,107,-94,317c0,0,0,200,94,307c0,0,93,106,267,106c0,0,356,0,356,-429V375H206c0,0,0,-138,57,-213c0,0,58,-75,168,-75c0,0,87,0,140,35c0,0,53,35,71,88L760,177c0,0,-72,-191,-329,-191Z" 
id="f0_21"
transform="scale(0.001,-0.001)" />

<path d="M17,0L304,415L31,808H179L380,493L580,808H730L457,417L747,0H598L380,331L162,0Z" 
id="f0_2k"
transform="scale(0.001,-0.001)" />

<path d="M339,87c0,0,74,0,132,34c0,0,57,33,90,91c0,0,34,59,34,121v66L448,396c0,0,-95,-2,-144,-19c0,0,-49,-18,-75,-55c0,0,-26,-38,-26,-98c0,0,0,-65,35,-101c0,0,36,-36,101,-36ZM309,-14c0,0,-122,0,-183,64c0,0,-61,64,-61,176c0,0,0,125,82,192c0,0,83,67,266,72l182,3v44c0,0,0,98,-42,141c0,0,-42,43,-132,43c0,0,-90,0,-131,-31c0,0,-41,-31,-49,-98L101,604c0,0,34,218,323,218c0,0,153,0,229,-70c0,0,77,-69,77,-202V202c0,0,0,-59,16,-90c0,0,16,-30,60,-30c0,0,19,0,44,5V4C850,4,799,-7,746,-7c0,0,-75,0,-109,38c0,0,-33,40,-38,124h-4C595,155,543,62,475,24c0,0,-68,-38,-166,-38Z" 
id="f0_1x"
transform="scale(0.001,-0.001)" />

<path d="M106,0V635c0,0,0,141,-5,173H228c0,0,1,-4,2,-21c0,0,1,-16,2,-37c0,0,1,-22,2,-81h2c0,0,44,86,100,120c0,0,56,33,136,33c0,0,92,0,145,-36c0,0,54,-37,75,-117h2c0,0,42,82,101,117c0,0,59,36,143,36c0,0,123,0,178,-66c0,0,56,-67,56,-218V0H1039V512c0,0,0,117,-32,162c0,0,-32,45,-116,45c0,0,-88,0,-136,-66c0,0,-49,-65,-49,-185V0H573V512c0,0,0,117,-32,162c0,0,-32,45,-116,45c0,0,-86,0,-136,-66c0,0,-50,-66,-50,-185V0Z" 
id="f0_29"
transform="scale(0.001,-0.001)" />

<path d="M453,84c0,0,100,0,146,74c0,0,46,73,46,247c0,0,0,169,-46,241c0,0,-45,73,-145,73c0,0,-80,0,-125,-34c0,0,-45,-34,-68,-105c0,0,-24,-71,-24,-186c0,0,0,-159,51,-234c0,0,51,-76,165,-76ZM103,-316V643c0,0,0,124,-5,165H228c0,0,1,-3,3,-22c0,0,1,-18,3,-56c0,0,2,-38,2,-52h3c0,0,36,75,94,110c0,0,59,34,156,34c0,0,149,0,223,-100c0,0,74,-100,74,-314c0,0,0,-422,-297,-422c0,0,-187,0,-251,140h-4c0,0,3,-6,3,-126V-316Z" 
id="f0_2c"
transform="scale(0.001,-0.001)" />

<path d="M420,84c0,0,121,0,173,78c0,0,52,77,52,243c0,0,0,167,-50,243c0,0,-50,76,-167,76c0,0,-118,0,-170,-78c0,0,-53,-77,-53,-241c0,0,0,-160,52,-241c0,0,52,-80,163,-80Zm1,-98c0,0,-176,0,-267,107c0,0,-90,108,-90,312c0,0,0,417,362,417c0,0,185,0,272,-102c0,0,88,-101,88,-315c0,0,0,-212,-94,-316C692,89,599,-14,421,-14Z" 
id="f0_2b"
transform="scale(0.001,-0.001)" />

<path d="M278,-11c0,0,-162,0,-162,182V710H23v98h99l39,181h90V808H400V710H251V200c0,0,0,-58,19,-82c0,0,19,-23,66,-23c0,0,27,0,77,10V6c0,0,-66,-17,-135,-17Z" 
id="f0_2g"
transform="scale(0.001,-0.001)" />

<path d="M46,0c0,0,-2,48,16,93c0,0,27,74,88,146c0,0,61,71,176,165c0,0,178,146,241,232c0,0,63,85,63,161c0,0,0,80,-57,135c0,0,-58,55,-149,55c0,0,-98,0,-156,-59c0,0,-58,-58,-59,-160L71,782c0,0,15,154,107,235c0,0,93,81,249,81c0,0,157,0,249,-87c0,0,92,-88,92,-217c0,0,0,-65,-27,-129c0,0,-27,-63,-89,-133c0,0,-62,-70,-207,-193C445,339,324,238,290,202c0,0,-35,-36,-57,-73H770V0Z" 
id="f1_m"
transform="scale(0.001,-0.001)" />

<path d="M93,-321c0,0,223,358,223,716c0,0,0,141,-32,279c0,0,-25,112,-71,215c0,0,-29,67,-120,224h96c0,0,140,-188,208,-376c0,0,57,-163,57,-341c0,0,0,-201,-77,-389c0,0,-77,-187,-188,-328Z" 
id="f1_d"
transform="scale(0.001,-0.001)" />

<path d="M247,0L4,792H143L270,335L316,165c0,0,3,12,41,163L484,792H620L740,333L779,181l45,153L960,792h131L843,0H704L578,474L547,609L386,0Z" 
id="f1_2j"
transform="scale(0.001,-0.001)" />

<path d="M101,0V1093H235V701c0,0,94,109,237,109c0,0,88,0,153,-35c0,0,65,-35,93,-96c0,0,28,-61,28,-177V0H612V502c0,0,0,101,-44,146c0,0,-43,46,-123,46c0,0,-60,0,-113,-31c0,0,-52,-31,-75,-84c0,0,-22,-53,-22,-146V0Z" 
id="f1_24"
transform="scale(0.001,-0.001)" />

<path d="M358,88c0,0,78,0,139,34c0,0,60,34,89,92c0,0,21,46,21,134l1,49c0,0,-73,-30,-221,-51c0,0,-83,-11,-117,-26c0,0,-35,-15,-54,-44c0,0,-18,-28,-18,-63c0,0,0,-54,40,-89c0,0,41,-36,120,-36ZM326,-17c0,0,-131,0,-201,63c0,0,-70,64,-70,163c0,0,0,58,26,106c0,0,27,48,70,77c0,0,43,29,97,44c0,0,39,11,119,20c0,0,163,20,240,47c0,0,1,27,1,35c0,0,0,81,-38,115c0,0,-52,45,-153,45c0,0,-95,0,-141,-33c0,0,-45,-33,-67,-116L78,566c0,0,18,84,59,136c0,0,41,52,119,80c0,0,78,28,180,28c0,0,102,0,165,-24c0,0,64,-24,94,-60c0,0,29,-36,41,-91c0,0,7,-35,7,-124V332c0,0,0,-187,9,-236c0,0,8,-50,33,-96H645c0,0,-20,42,-26,98C619,98,544,34,475,8c0,0,-70,-25,-149,-25Z" 
id="f1_1x"
transform="scale(0.001,-0.001)" />

<path d="M312,-10c0,0,-73,0,-114,22c0,0,-40,23,-56,61c0,0,-17,38,-17,159V687H26V792h99V988l134,81V792H394V687H259V224c0,0,0,-57,7,-74c0,0,7,-16,23,-26c0,0,16,-10,46,-10c0,0,23,0,59,6L414,1c0,0,-57,-11,-102,-11Z" 
id="f1_2g"
transform="scale(0.001,-0.001)" />

<path d="M102,0V792H236V0Zm0,939v154H236V939Z" 
id="f1_25"
transform="scale(0.001,-0.001)" />

<path d="M386,-17c0,0,-155,0,-236,64c0,0,-81,64,-103,190l133,20c0,0,11,-79,62,-122c0,0,51,-42,143,-42c0,0,93,0,138,37c0,0,44,38,44,89c0,0,0,45,-39,71c0,0,-28,18,-138,46c0,0,-147,37,-204,64c0,0,-58,27,-87,75c0,0,-30,48,-30,107c0,0,0,52,25,98c0,0,24,45,66,74c0,0,31,24,85,40c0,0,54,16,116,16c0,0,93,0,164,-27c0,0,70,-27,104,-73c0,0,33,-46,46,-122L544,570c0,0,-9,61,-52,95c0,0,-43,34,-121,34c0,0,-93,0,-132,-30c0,0,-40,-31,-40,-72c0,0,0,-26,17,-47c0,0,16,-21,51,-35c0,0,20,-8,119,-35c0,0,142,-38,199,-62c0,0,56,-24,88,-70c0,0,32,-47,32,-115c0,0,0,-67,-39,-126c0,0,-39,-60,-113,-92c0,0,-74,-32,-167,-32Z" 
id="f1_2f"
transform="scale(0.001,-0.001)" />

<path d="M644,472c0,0,-9,100,-50,150c0,0,-65,77,-167,77c0,0,-93,0,-156,-62c0,0,-63,-61,-70,-165ZM433,-17c0,0,-174,0,-275,106C158,89,56,196,56,389c0,0,0,200,103,310c0,0,103,111,267,111c0,0,159,0,259,-108c0,0,101,-109,101,-304c0,0,0,-12,-1,-36H194c0,0,7,-131,74,-200c0,0,66,-69,166,-69c0,0,74,0,126,39c0,0,52,39,83,124L782,239C782,239,749,117,660,50c0,0,-89,-67,-227,-67Z" 
id="f1_21"
transform="scale(0.001,-0.001)" />

<path d="M320,0L20,792H161L331,318c0,0,28,-77,51,-160c0,0,18,63,50,151L608,792H746L447,0Z" 
id="f1_2i"
transform="scale(0.001,-0.001)" />

<path d="M98,0V1093H232V0Z" 
id="f1_28"
transform="scale(0.001,-0.001)" />

<path d="M369,-17c0,0,-70,0,-131,26c0,0,-61,27,-91,68c0,0,-29,40,-41,99c0,0,-8,40,-8,125V792H232V353c0,0,0,-105,8,-142c0,0,13,-53,54,-83c0,0,41,-30,101,-30c0,0,61,0,114,31c0,0,53,31,75,84c0,0,22,53,22,155V792H740V0H621V116c0,0,-93,-133,-252,-133Z" 
id="f1_2h"
transform="scale(0.001,-0.001)" />

<path d="M422,93c0,0,100,0,167,76c0,0,66,76,66,231c0,0,0,147,-67,223c0,0,-66,75,-166,75c0,0,-100,0,-167,-75c0,0,-66,-75,-66,-227c0,0,0,-152,66,-228c0,0,67,-75,167,-75Zm0,-110c0,0,-166,0,-269,106C153,89,51,196,51,396c0,0,0,220,122,326c0,0,102,88,249,88c0,0,164,0,267,-107c0,0,104,-107,104,-296c0,0,0,-153,-46,-240C747,167,701,79,614,31c0,0,-88,-48,-192,-48Z" 
id="f1_2b"
transform="scale(0.001,-0.001)" />

<path d="M133,0V687H14V792H133v84c0,0,0,80,14,119c0,0,19,52,68,84c0,0,49,33,138,33c0,0,56,0,125,-14L458,981c0,0,-42,8,-79,8c0,0,-62,0,-87,-27c0,0,-25,-26,-25,-97V792H421V687H267V0Z" 
id="f1_22"
transform="scale(0.001,-0.001)" />

<path d="M101,0V792H221V679c0,0,87,131,252,131c0,0,72,0,132,-26c0,0,60,-26,90,-68c0,0,30,-41,42,-99c0,0,7,-37,7,-130V0H610V482c0,0,0,82,-16,122c0,0,-15,41,-55,65c0,0,-40,24,-94,24c0,0,-86,0,-148,-54c0,0,-62,-55,-62,-207V0Z" 
id="f1_2a"
transform="scale(0.001,-0.001)" />

<path d="M406,93c0,0,88,0,149,72c0,0,62,72,62,219c0,0,0,162,-63,238c0,0,-63,76,-154,76c0,0,-90,0,-150,-73c0,0,-60,-73,-60,-230c0,0,0,-152,64,-227c0,0,64,-75,152,-75ZM393,-17c0,0,-95,0,-174,52c0,0,-80,52,-123,145c0,0,-44,94,-44,215c0,0,0,119,39,215c0,0,40,97,119,148c0,0,79,52,177,52c0,0,71,0,127,-31c0,0,56,-30,91,-79v393H739V0H615V100c0,0,-75,-117,-222,-117Z" 
id="f1_20"
transform="scale(0.001,-0.001)" />

<path d="M433,93c0,0,88,0,152,76c0,0,64,77,64,228c0,0,0,155,-61,228c0,0,-62,74,-149,74c0,0,-89,0,-153,-76c0,0,-64,-77,-64,-221c0,0,0,-142,39,-206c0,0,63,-103,172,-103ZM444,-17c0,0,-140,0,-220,117V0H100V1093H234V703c0,0,85,107,217,107c0,0,73,0,139,-30c0,0,65,-29,107,-83c0,0,42,-53,66,-128c0,0,24,-75,24,-161c0,0,0,-204,-101,-315C686,93,585,-17,444,-17Z" 
id="f1_1y"
transform="scale(0.001,-0.001)" />

<path d="M329,0V153H481V0Zm23,269c0,0,-1,27,-1,40c0,0,0,79,23,136c0,0,16,43,53,87c0,0,26,32,96,93c0,0,70,62,91,99c0,0,21,36,21,80c0,0,0,78,-62,138c0,0,-61,59,-149,59c0,0,-86,0,-143,-54c0,0,-58,-54,-76,-169L67,796c0,0,19,153,111,234c0,0,92,82,243,82c0,0,161,0,256,-88c0,0,95,-87,95,-211c0,0,0,-72,-33,-133c0,0,-34,-60,-131,-146c0,0,-66,-58,-86,-86c0,0,-20,-27,-30,-63c0,0,-9,-36,-11,-116Z" 
id="f1_z"
transform="scale(0.001,-0.001)" />

<path d="M358,-321c0,0,-111,141,-188,328C170,7,93,195,93,396c0,0,0,178,57,341c0,0,68,188,208,376h96c0,0,-91,-156,-120,-222c0,0,-45,-103,-71,-215c0,0,-32,-139,-32,-281c0,0,0,-358,223,-716Z" 
id="f1_c"
transform="scale(0.001,-0.001)" />

<path d="M111,0V1093H256V129H795V0Z" 
id="f1_1c"
transform="scale(0.001,-0.001)" />

<path d="M404,111c0,0,93,0,155,72c0,0,63,71,63,223c0,0,0,145,-65,218c0,0,-64,74,-155,74c0,0,-89,0,-152,-72c0,0,-62,-73,-62,-216c0,0,0,-156,61,-227c0,0,62,-72,155,-72ZM390,-321c0,0,-142,0,-230,64c0,0,-87,64,-84,193L207,-84c0,0,8,-60,46,-88c0,0,49,-37,136,-37c0,0,93,0,144,37c0,0,50,37,68,104c0,0,11,41,10,172C611,104,523,0,392,0C392,0,229,0,139,118c0,0,-89,118,-89,282c0,0,0,114,41,209c0,0,41,96,119,148c0,0,77,53,183,53c0,0,140,0,231,-114v96H748V107c0,0,0,-184,-38,-261c0,0,-38,-77,-119,-122c0,0,-82,-45,-201,-45Z" 
id="f1_23"
transform="scale(0.001,-0.001)" />

<path d="M104,-303V1093H400V983H238V-193H400V-303Z" 
id="f1_1r"
transform="scale(0.001,-0.001)" />

<path d="M576,610c0,0,99,0,155,21c0,0,56,20,85,65c0,0,29,45,29,98c0,0,0,78,-56,128c0,0,-56,50,-178,50H265V610ZM120,0V1093H605c0,0,147,0,223,-29c0,0,76,-30,121,-104c0,0,46,-75,46,-165c0,0,0,-117,-76,-197c0,0,-75,-80,-232,-101c0,0,57,-28,87,-55c0,0,63,-58,120,-145L1084,0H902L757,227c0,0,-63,98,-104,151c0,0,-41,52,-73,73c0,0,-33,21,-67,29c0,0,-24,5,-80,5H265V0Z" 
id="f1_1i"
transform="scale(0.001,-0.001)" />

<path d="M29,-303v110H192V983H29v110H326V-303Z" 
id="f1_1t"
transform="scale(0.001,-0.001)" />

<path d="M535,-18c0,0,-149,0,-249,43c0,0,-100,43,-158,130c0,0,-57,87,-60,197l137,12c0,0,10,-83,45,-135c0,0,36,-53,110,-86c0,0,75,-32,168,-32c0,0,83,0,146,24c0,0,63,25,94,68c0,0,31,43,31,94c0,0,0,51,-30,90c0,0,-30,38,-98,64c0,0,-44,17,-195,54c0,0,-151,36,-211,68c0,0,-79,41,-117,102c0,0,-38,61,-38,136c0,0,0,83,47,155c0,0,47,72,137,109c0,0,90,38,200,38c0,0,122,0,215,-39c0,0,93,-40,143,-116c0,0,50,-76,54,-172L767,775c0,0,-11,104,-76,158c0,0,-64,53,-190,53c0,0,-132,0,-192,-49c0,0,-60,-48,-60,-116c0,0,0,-59,43,-97c0,0,42,-38,218,-78c0,0,176,-40,242,-70c0,0,96,-44,141,-111c0,0,46,-68,46,-156c0,0,0,-87,-50,-165C889,144,839,67,745,24c0,0,-93,-42,-210,-42Z" 
id="f1_1j"
transform="scale(0.001,-0.001)" />

<path d="M433,93c0,0,90,0,154,75c0,0,63,76,63,235c0,0,0,151,-62,226c0,0,-62,75,-149,75c0,0,-85,0,-151,-80c0,0,-66,-80,-66,-233c0,0,0,-152,62,-225c0,0,62,-73,149,-73ZM101,-303V792H223V688c0,0,43,61,98,91c0,0,54,31,132,31c0,0,101,0,179,-53c0,0,77,-52,117,-147c0,0,39,-95,39,-208c0,0,0,-122,-44,-219C744,183,701,86,618,34c0,0,-84,-51,-175,-51c0,0,-67,0,-121,28c0,0,-53,28,-87,71V-303Z" 
id="f1_2c"
transform="scale(0.001,-0.001)" />

<path d="M85,311V436H807V311Zm0,332V769H807V643Z" 
id="f1_x"
transform="scale(0.001,-0.001)" />

<path d="M409,93c0,0,86,0,148,73c0,0,62,72,62,221c0,0,0,158,-65,237c0,0,-65,80,-154,80c0,0,-87,0,-148,-74c0,0,-61,-74,-61,-232c0,0,0,-152,64,-229c0,0,65,-76,154,-76ZM606,-303V85c0,0,-32,-44,-88,-73c0,0,-56,-29,-120,-29c0,0,-141,0,-243,112C155,95,53,207,53,403c0,0,0,120,42,214c0,0,41,95,120,144c0,0,79,49,173,49c0,0,147,0,231,-124V792H740V-303Z" 
id="f1_2d"
transform="scale(0.001,-0.001)" />

<path d="M423,92c0,0,97,0,159,62c0,0,62,62,62,157c0,0,0,97,-64,160c0,0,-64,64,-161,64c0,0,-96,0,-158,-63c0,0,-62,-62,-62,-156c0,0,0,-58,27,-111c0,0,27,-54,81,-84c0,0,54,-29,116,-29Zm0,552c0,0,78,0,127,49c0,0,49,49,49,120c0,0,0,74,-50,124c0,0,-51,51,-128,51c0,0,-77,0,-127,-50c0,0,-51,-49,-51,-118c0,0,0,-77,50,-126c0,0,50,-50,130,-50ZM422,-18c0,0,-162,0,-261,95c0,0,-99,96,-99,239c0,0,0,107,54,179c0,0,54,72,154,98c0,0,-84,31,-124,87c0,0,-40,57,-40,136c0,0,0,119,85,201c0,0,86,81,229,81c0,0,143,0,230,-83c0,0,87,-83,87,-203c0,0,0,-76,-40,-132c0,0,-39,-56,-121,-87c0,0,101,-33,154,-106c0,0,52,-73,52,-174c0,0,0,-141,-99,-236c0,0,-99,-95,-261,-95Z" 
id="f1_s"
transform="scale(0.001,-0.001)" />

<path d="M139,0V153H291V0Z" 
id="f1_i"
transform="scale(0.001,-0.001)" />

<path d="M435,0V856c0,0,-48,-47,-127,-93c0,0,-79,-46,-142,-69V824c0,0,113,52,197,128c0,0,85,75,120,146h86V0Z" 
id="f1_l"
transform="scale(0.001,-0.001)" />

<path d="M99,0V792H219V672c0,0,46,84,86,111c0,0,39,27,86,27c0,0,68,0,138,-43L482,642c0,0,-49,29,-98,29c0,0,-44,0,-79,-27c0,0,-35,-26,-50,-73c0,0,-22,-72,-22,-157V0Z" 
id="f1_2e"
transform="scale(0.001,-0.001)" />

<path d="M420,-17c0,0,-163,0,-262,106c0,0,-98,106,-98,304c0,0,0,128,42,224c0,0,43,96,129,145c0,0,87,48,189,48c0,0,129,0,211,-66c0,0,82,-65,106,-185L606,539c0,0,-19,80,-66,120c0,0,-48,40,-115,40c0,0,-101,0,-164,-72c0,0,-63,-73,-63,-230c0,0,0,-160,61,-232c0,0,61,-72,159,-72c0,0,79,0,132,48c0,0,53,49,67,149L749,273C749,273,728,137,639,59c0,0,-90,-76,-219,-76Z" 
id="f1_1z"
transform="scale(0.001,-0.001)" />

<path d="M420,489c0,0,93,0,153,65c0,0,60,65,60,181c0,0,0,116,-62,184c0,0,-61,68,-148,68c0,0,-90,0,-156,-74c0,0,-66,-73,-66,-189c0,0,0,-105,63,-170c0,0,63,-65,156,-65ZM391,-18c0,0,-128,0,-209,71c0,0,-82,71,-98,200l129,12c0,0,17,-91,63,-132c0,0,46,-41,118,-41c0,0,62,0,109,28c0,0,47,29,76,76c0,0,30,47,50,128c0,0,20,80,20,164c0,0,0,9,-1,27c0,0,-40,-65,-110,-105c0,0,-69,-39,-151,-39c0,0,-135,0,-229,98c0,0,-94,99,-94,260c0,0,0,166,98,268c0,0,98,101,245,101c0,0,107,0,195,-57c0,0,89,-58,134,-164c0,0,46,-106,46,-308c0,0,0,-209,-45,-334C737,235,691,111,602,46c0,0,-90,-64,-211,-64Z" 
id="f1_t"
transform="scale(0.001,-0.001)" />

<path d="M684,450L570,752c0,0,-52,138,-78,227c0,0,-21,-105,-59,-209L313,450ZM-1,0L417,1093H574L1021,0H857L729,331H271L152,0Z" 
id="f1_11"
transform="scale(0.001,-0.001)" />

<path d="M308,0L19,1093H167L333,377c0,0,27,-113,47,-224c0,0,42,175,49,202l209,738H812L968,540c0,0,59,-206,86,-387c0,0,21,103,55,238l170,702h146L1126,0H985L756,834c0,0,-29,104,-35,127c0,0,-18,-75,-32,-128L457,0Z" 
id="f1_1n"
transform="scale(0.001,-0.001)" />

<path d="M225,0c0,0,2,129,51,312c0,0,48,183,139,352c0,0,91,170,193,286H72v129H780V975C780,975,676,864,573,680C573,680,470,495,414,301C414,301,374,163,363,0Z" 
id="f2_r"
transform="scale(0.001,-0.001)" />

<path d="M125,0V1051H268V115H799V0Z" 
id="f0_1c"
transform="scale(0.001,-0.001)" />

<path d="M106,0V620c0,0,0,85,-5,188H228c0,0,6,-138,6,-165h3c0,0,32,103,74,141c0,0,42,38,118,38c0,0,27,0,54,-7V692c0,0,-26,7,-71,7c0,0,-84,0,-128,-72c0,0,-44,-72,-44,-206V0Z" 
id="f0_2e"
transform="scale(0.001,-0.001)" />

<path d="M606,-14c0,0,-164,0,-284,65c0,0,-119,66,-182,189c0,0,-63,123,-63,291c0,0,0,255,137,396c0,0,137,140,386,140c0,0,174,0,283,-59c0,0,109,-59,168,-189L915,779c0,0,-44,90,-123,131c0,0,-79,41,-196,41c0,0,-182,0,-278,-110c0,0,-96,-110,-96,-310c0,0,0,-200,102,-315c0,0,102,-115,282,-115c0,0,103,0,193,31c0,0,89,31,144,85V407H629V526h445V164c0,0,-83,-85,-205,-132c0,0,-121,-46,-263,-46Z" 
id="f0_17"
transform="scale(0.001,-0.001)" />

<path d="M355,-14c0,0,-133,0,-194,65c0,0,-62,66,-62,219V808H234V296c0,0,0,-80,16,-124c0,0,16,-44,50,-64c0,0,34,-19,101,-19c0,0,97,0,153,66c0,0,55,67,55,185V808H744V172c0,0,0,-141,4,-172H621c0,0,0,4,-1,20c0,0,-1,17,-2,38c0,0,-1,21,-3,80h-2C613,138,567,55,506,20c0,0,-61,-34,-151,-34Z" 
id="f0_2h"
transform="scale(0.001,-0.001)" />

<path d="M395,89c0,0,115,0,166,79c0,0,51,79,51,246c0,0,0,160,-51,235c0,0,-51,75,-164,75c0,0,-102,0,-147,-75c0,0,-45,-75,-45,-244c0,0,0,-170,45,-243c0,0,45,-73,145,-73ZM361,-14c0,0,-153,0,-225,102c0,0,-72,103,-72,312c0,0,0,422,297,422c0,0,92,0,153,-33c0,0,61,-34,98,-107h2l-2,90v335H747V166c0,0,0,-126,4,-166H623c0,0,-2,12,-5,55c0,0,-3,44,-3,75h-3c0,0,-37,-78,-98,-111c0,0,-62,-33,-153,-33Z" 
id="f0_20"
transform="scale(0.001,-0.001)" />

<path d="M140,0V163H285V0Z" 
id="f0_i"
transform="scale(0.001,-0.001)" />


</defs>
</svg>