<?xml version="1.0" encoding="UTF-8" standalone="no"?>
<!DOCTYPE svg PUBLIC "-//W3C//DTD SVG 1.1//EN"
"http://www.w3.org/Graphics/SVG/1.1/DTD/svg11.dtd">
<svg viewBox="0 0 768 1128" version="1.1" xmlns="http://www.w3.org/2000/svg" xmlns:xlink="http://www.w3.org/1999/xlink">
<defs>
<style type="text/css"><![CDATA[
.g0_29{
}
]]></style>
</defs>
<g fill="#D4D4D4" fill-opacity="0.36" >
<use xlink:href="#f0_1f" transform="matrix(50.9,-50.9,50.9,50.9,157.1,814.1)" />
<use xlink:href="#f0_2a" transform="matrix(50.9,-50.9,50.9,50.9,217.6,753.6)" />
<use xlink:href="#f0_28" transform="matrix(50.9,-50.9,50.9,50.9,260.9,710.3)" />
<use xlink:href="#f0_25" transform="matrix(50.9,-50.9,50.9,50.9,278.1,693.1)" />
<use xlink:href="#f0_2a" transform="matrix(50.9,-50.9,50.9,50.9,295.4,675.8)" />
<use xlink:href="#f0_21" transform="matrix(50.9,-50.9,50.9,50.9,338.7,632.5)" />
<use xlink:href="#f0_2k" transform="matrix(50.9,-50.9,50.9,50.9,381.9,589.3)" />
<use xlink:href="#f0_1x" transform="matrix(50.9,-50.9,50.9,50.9,420.8,550.4)" />
<use xlink:href="#f0_29" transform="matrix(50.9,-50.9,50.9,50.9,464,507.2)" />
<use xlink:href="#f0_2c" transform="matrix(50.9,-50.9,50.9,50.9,528.8,442.4)" />
<use xlink:href="#f0_2b" transform="matrix(50.9,-50.9,50.9,50.9,572.1,399.1)" />
<use xlink:href="#f0_25" transform="matrix(50.9,-50.9,50.9,50.9,615.3,355.9)" />
<use xlink:href="#f0_2a" transform="matrix(50.9,-50.9,50.9,50.9,632.6,338.6)" />
<use xlink:href="#f0_2g" transform="matrix(50.9,-50.9,50.9,50.9,675.8,295.4)" />
</g>
<g fill="#000000" >
<use xlink:href="#f1_s" transform="matrix(12,0,0,12,45.9,59.5)" />
<use xlink:href="#f1_i" transform="matrix(12,0,0,12,56.1,59.5)" />
<use xlink:href="#f2_14" transform="matrix(12,0,0,12,66.4,59.5)" />
<use xlink:href="#f2_21" transform="matrix(12,0,0,12,79.6,59.5)" />
<use xlink:href="#f2_22" transform="matrix(12,0,0,12,89.8,59.5)" />
<use xlink:href="#f2_25" transform="matrix(12,0,0,12,94.9,59.5)" />
<use xlink:href="#f2_2a" transform="matrix(12,0,0,12,98.9,59.5)" />
<use xlink:href="#f2_21" transform="matrix(12,0,0,12,109.1,59.5)" />
<use xlink:href="#f2_2g" transform="matrix(12,0,0,12,124.4,59.5)" />
<use xlink:href="#f2_24" transform="matrix(12,0,0,12,129.5,59.5)" />
<use xlink:href="#f2_21" transform="matrix(12,0,0,12,139.7,59.5)" />
<use xlink:href="#f2_2g" transform="matrix(12,0,0,12,155,59.5)" />
<use xlink:href="#f2_21" transform="matrix(12,0,0,12,160.1,59.5)" />
<use xlink:href="#f2_2e" transform="matrix(12,0,0,12,170.3,59.5)" />
<use xlink:href="#f2_29" transform="matrix(12,0,0,12,176.4,59.5)" />
<use xlink:href="#f2_52" transform="matrix(12,0,0,12,196.7,59.5)" />
<use xlink:href="#f2_2e" transform="matrix(12,0,0,12,200.8,59.5)" />
<use xlink:href="#f2_1x" transform="matrix(12,0,0,12,206.9,59.5)" />
<use xlink:href="#f2_2g" transform="matrix(12,0,0,12,217.1,59.5)" />
<use xlink:href="#f2_21" transform="matrix(12,0,0,12,222.2,59.5)" />
<use xlink:href="#f2_1z" transform="matrix(12,0,0,12,237.5,59.5)" />
<use xlink:href="#f2_2b" transform="matrix(12,0,0,12,246.6,59.5)" />
<use xlink:href="#f2_2a" transform="matrix(12,0,0,12,256.8,59.5)" />
<use xlink:href="#f2_2f" transform="matrix(12,0,0,12,267,59.5)" />
<use xlink:href="#f2_2g" transform="matrix(12,0,0,12,276.1,59.5)" />
<use xlink:href="#f2_1x" transform="matrix(12,0,0,12,281.2,59.5)" />
<use xlink:href="#f2_2a" transform="matrix(12,0,0,12,291.4,59.5)" />
<use xlink:href="#f2_2g" transform="matrix(12,0,0,12,301.6,59.5)" />
<use xlink:href="#f2_53" transform="matrix(12,0,0,12,306.7,59.5)" />
<use xlink:href="#f2_2b" transform="matrix(12,0,0,12,316,59.5)" />
<use xlink:href="#f2_22" transform="matrix(12,0,0,12,326.2,59.5)" />
<use xlink:href="#f2_52" transform="matrix(12,0,0,12,336.4,59.5)" />
<use xlink:href="#f2_2f" transform="matrix(12,0,0,12,340.5,59.5)" />
<use xlink:href="#f2_2c" transform="matrix(12,0,0,12,349.6,59.5)" />
<use xlink:href="#f2_21" transform="matrix(12,0,0,12,359.8,59.5)" />
<use xlink:href="#f2_1z" transform="matrix(12,0,0,12,370,59.5)" />
<use xlink:href="#f2_25" transform="matrix(12,0,0,12,379.2,59.5)" />
<use xlink:href="#f2_22" transform="matrix(12,0,0,12,383.3,59.5)" />
<use xlink:href="#f2_25" transform="matrix(12,0,0,12,388.3,59.5)" />
<use xlink:href="#f2_1z" transform="matrix(12,0,0,12,392.4,59.5)" />
<use xlink:href="#f2_2e" transform="matrix(12,0,0,12,406.7,59.5)" />
<use xlink:href="#f2_21" transform="matrix(12,0,0,12,412.8,59.5)" />
<use xlink:href="#f2_1x" transform="matrix(12,0,0,12,423,59.5)" />
<use xlink:href="#f2_1z" transform="matrix(12,0,0,12,433.2,59.5)" />
<use xlink:href="#f2_2g" transform="matrix(12,0,0,12,442.4,59.5)" />
<use xlink:href="#f2_25" transform="matrix(12,0,0,12,447.5,59.5)" />
<use xlink:href="#f2_2b" transform="matrix(12,0,0,12,451.5,59.5)" />
<use xlink:href="#f2_2a" transform="matrix(12,0,0,12,461.7,59.5)" />
<use xlink:href="#f2_2e" transform="matrix(12,0,0,12,477,59.5)" />
<use xlink:href="#f2_1x" transform="matrix(12,0,0,12,483.2,59.5)" />
<use xlink:href="#f2_2g" transform="matrix(12,0,0,12,493.3,59.5)" />
<use xlink:href="#f2_21" transform="matrix(12,0,0,12,498.4,59.5)" />
<use xlink:href="#f2_53" transform="matrix(12,0,0,12,508.6,59.5)" />
<use xlink:href="#f2_i" transform="matrix(12,0,0,12,512.7,59.5)" />
<use xlink:href="#f1_t" transform="matrix(12,0,0,12,45.9,80.6)" />
<use xlink:href="#f1_i" transform="matrix(12,0,0,12,56.1,80.6)" />
<use xlink:href="#f2_1n" transform="matrix(12,0,0,12,66.4,80.6)" />
<use xlink:href="#f2_24" transform="matrix(12,0,0,12,83.7,80.6)" />
<use xlink:href="#f2_1x" transform="matrix(12,0,0,12,93.9,80.6)" />
<use xlink:href="#f2_2g" transform="matrix(12,0,0,12,104,80.6)" />
<use xlink:href="#f2_1x" transform="matrix(12,0,0,12,114.3,80.6)" />
<use xlink:href="#f2_2e" transform="matrix(12,0,0,12,124.5,80.6)" />
<use xlink:href="#f2_21" transform="matrix(12,0,0,12,130.6,80.6)" />
<use xlink:href="#f2_1g" transform="matrix(12,0,0,12,145.9,80.6)" />
<use xlink:href="#f2_2f" transform="matrix(12,0,0,12,158.1,80.6)" />
<use xlink:href="#f2_21" transform="matrix(12,0,0,12,167.3,80.6)" />
<use xlink:href="#f2_2h" transform="matrix(12,0,0,12,177.4,80.6)" />
<use xlink:href="#f2_20" transform="matrix(12,0,0,12,187.6,80.6)" />
<use xlink:href="#f2_2b" transform="matrix(12,0,0,12,197.8,80.6)" />
<use xlink:href="#f2_2h" transform="matrix(12,0,0,12,213.1,80.6)" />
<use xlink:href="#f2_2a" transform="matrix(12,0,0,12,223.3,80.6)" />
<use xlink:href="#f2_25" transform="matrix(12,0,0,12,233.5,80.6)" />
<use xlink:href="#f2_29" transform="matrix(12,0,0,12,237.6,80.6)" />
<use xlink:href="#f2_2b" transform="matrix(12,0,0,12,252.8,80.6)" />
<use xlink:href="#f2_28" transform="matrix(12,0,0,12,263,80.6)" />
<use xlink:href="#f2_21" transform="matrix(12,0,0,12,267.1,80.6)" />
<use xlink:href="#f2_1z" transform="matrix(12,0,0,12,277.3,80.6)" />
<use xlink:href="#f2_2h" transform="matrix(12,0,0,12,286.4,80.6)" />
<use xlink:href="#f2_28" transform="matrix(12,0,0,12,296.6,80.6)" />
<use xlink:href="#f2_1x" transform="matrix(12,0,0,12,300.7,80.6)" />
<use xlink:href="#f2_2e" transform="matrix(12,0,0,12,310.9,80.6)" />
<use xlink:href="#f2_2e" transform="matrix(12,0,0,12,322.2,80.6)" />
<use xlink:href="#f2_21" transform="matrix(12,0,0,12,328.3,80.6)" />
<use xlink:href="#f2_1x" transform="matrix(12,0,0,12,338.5,80.6)" />
<use xlink:href="#f2_1z" transform="matrix(12,0,0,12,348.7,80.6)" />
<use xlink:href="#f2_2g" transform="matrix(12,0,0,12,357.9,80.6)" />
<use xlink:href="#f2_25" transform="matrix(12,0,0,12,363,80.6)" />
<use xlink:href="#f2_2b" transform="matrix(12,0,0,12,367,80.6)" />
<use xlink:href="#f2_2a" transform="matrix(12,0,0,12,377.2,80.6)" />
<use xlink:href="#f2_2f" transform="matrix(12,0,0,12,387.4,80.6)" />
<use xlink:href="#f2_z" transform="matrix(12,0,0,12,396.6,80.6)" />
<use xlink:href="#f2_15" transform="matrix(12,0,0,12,411.9,80.6)" />
<use xlink:href="#f2_2k" transform="matrix(12,0,0,12,424.1,80.6)" />
<use xlink:href="#f2_2c" transform="matrix(12,0,0,12,433.2,80.6)" />
<use xlink:href="#f2_28" transform="matrix(12,0,0,12,443.4,80.6)" />
<use xlink:href="#f2_1x" transform="matrix(12,0,0,12,447.5,80.6)" />
<use xlink:href="#f2_25" transform="matrix(12,0,0,12,457.7,80.6)" />
<use xlink:href="#f2_2a" transform="matrix(12,0,0,12,461.7,80.6)" />
<use xlink:href="#f2_2j" transform="matrix(12,0,0,12,477,80.6)" />
<use xlink:href="#f2_25" transform="matrix(12,0,0,12,490.3,80.6)" />
<use xlink:href="#f2_2g" transform="matrix(12,0,0,12,494.3,80.6)" />
<use xlink:href="#f2_24" transform="matrix(12,0,0,12,499.4,80.6)" />
<use xlink:href="#f2_2g" transform="matrix(12,0,0,12,514.7,80.6)" />
<use xlink:href="#f2_24" transform="matrix(12,0,0,12,519.8,80.6)" />
<use xlink:href="#f2_21" transform="matrix(12,0,0,12,530,80.6)" />
<use xlink:href="#f2_24" transform="matrix(12,0,0,12,545.3,80.6)" />
<use xlink:href="#f2_21" transform="matrix(12,0,0,12,555.5,80.6)" />
<use xlink:href="#f2_28" transform="matrix(12,0,0,12,565.7,80.6)" />
<use xlink:href="#f2_2c" transform="matrix(12,0,0,12,569.7,80.6)" />
<use xlink:href="#f2_2b" transform="matrix(12,0,0,12,585,80.6)" />
<use xlink:href="#f2_22" transform="matrix(12,0,0,12,595.2,80.6)" />
<use xlink:href="#f2_1x" transform="matrix(12,0,0,12,605.4,80.6)" />
<use xlink:href="#f2_2f" transform="matrix(12,0,0,12,620.8,80.6)" />
<use xlink:href="#f2_2h" transform="matrix(12,0,0,12,629.9,80.6)" />
<use xlink:href="#f2_25" transform="matrix(12,0,0,12,640.1,80.6)" />
<use xlink:href="#f2_2g" transform="matrix(12,0,0,12,644.1,80.6)" />
<use xlink:href="#f2_1x" transform="matrix(12,0,0,12,649.2,80.6)" />
<use xlink:href="#f2_1y" transform="matrix(12,0,0,12,659.4,80.6)" />
<use xlink:href="#f2_28" transform="matrix(12,0,0,12,669.6,80.6)" />
<use xlink:href="#f2_21" transform="matrix(12,0,0,12,673.6,80.6)" />
<use xlink:href="#f2_21" transform="matrix(12,0,0,12,45.9,101.6)" />
<use xlink:href="#f2_2k" transform="matrix(12,0,0,12,56.1,101.6)" />
<use xlink:href="#f2_1x" transform="matrix(12,0,0,12,65.3,101.6)" />
<use xlink:href="#f2_29" transform="matrix(12,0,0,12,75.5,101.6)" />
<use xlink:href="#f2_2c" transform="matrix(12,0,0,12,90.7,101.6)" />
<use xlink:href="#f2_28" transform="matrix(12,0,0,12,100.9,101.6)" />
<use xlink:href="#f2_21" transform="matrix(12,0,0,12,105,101.6)" />
<use xlink:href="#f2_i" transform="matrix(12,0,0,12,115.2,101.6)" />
<use xlink:href="#f1_l" transform="matrix(12,0,0,12,45.9,122.7)" />
<use xlink:href="#f1_k" transform="matrix(12,0,0,12,56.1,122.7)" />
<use xlink:href="#f1_i" transform="matrix(12,0,0,12,66.3,122.7)" />
<use xlink:href="#f2_1n" transform="matrix(12,0,0,12,76.5,122.7)" />
<use xlink:href="#f2_24" transform="matrix(12,0,0,12,93.8,122.7)" />
<use xlink:href="#f2_1x" transform="matrix(12,0,0,12,104,122.7)" />
<use xlink:href="#f2_2g" transform="matrix(12,0,0,12,114.2,122.7)" />
<use xlink:href="#f2_25" transform="matrix(12,0,0,12,124.4,122.7)" />
<use xlink:href="#f2_2f" transform="matrix(12,0,0,12,128.5,122.7)" />
<use xlink:href="#f2_24" transform="matrix(12,0,0,12,142.8,122.7)" />
<use xlink:href="#f2_1x" transform="matrix(12,0,0,12,152.9,122.7)" />
<use xlink:href="#f2_28" transform="matrix(12,0,0,12,163.1,122.7)" />
<use xlink:href="#f2_22" transform="matrix(12,0,0,12,167.2,122.7)" />
<use xlink:href="#f2_28" transform="matrix(12,0,0,12,177.4,122.7)" />
<use xlink:href="#f2_25" transform="matrix(12,0,0,12,181.4,122.7)" />
<use xlink:href="#f2_22" transform="matrix(12,0,0,12,185.5,122.7)" />
<use xlink:href="#f2_21" transform="matrix(12,0,0,12,190.6,122.7)" />
<use xlink:href="#f2_2c" transform="matrix(12,0,0,12,205.9,122.7)" />
<use xlink:href="#f2_21" transform="matrix(12,0,0,12,216.1,122.7)" />
<use xlink:href="#f2_2e" transform="matrix(12,0,0,12,226.3,122.7)" />
<use xlink:href="#f2_25" transform="matrix(12,0,0,12,232.3,122.7)" />
<use xlink:href="#f2_2b" transform="matrix(12,0,0,12,236.4,122.7)" />
<use xlink:href="#f2_20" transform="matrix(12,0,0,12,246.6,122.7)" />
<use xlink:href="#f2_z" transform="matrix(12,0,0,12,256.8,122.7)" />
<use xlink:href="#f2_14" transform="matrix(12,0,0,12,272.1,122.7)" />
<use xlink:href="#f2_21" transform="matrix(12,0,0,12,285.3,122.7)" />
<use xlink:href="#f2_2e" transform="matrix(12,0,0,12,295.5,122.7)" />
<use xlink:href="#f2_25" transform="matrix(12,0,0,12,301.6,122.7)" />
<use xlink:href="#f2_2i" transform="matrix(12,0,0,12,305.6,122.7)" />
<use xlink:href="#f2_21" transform="matrix(12,0,0,12,314.9,122.7)" />
<use xlink:href="#f2_1x" transform="matrix(12,0,0,12,330.2,122.7)" />
<use xlink:href="#f2_2a" transform="matrix(12,0,0,12,340.4,122.7)" />
<use xlink:href="#f2_20" transform="matrix(12,0,0,12,350.6,122.7)" />
<use xlink:href="#f2_21" transform="matrix(12,0,0,12,365.9,122.7)" />
<use xlink:href="#f2_2k" transform="matrix(12,0,0,12,376,122.7)" />
<use xlink:href="#f2_2c" transform="matrix(12,0,0,12,385.2,122.7)" />
<use xlink:href="#f2_2e" transform="matrix(12,0,0,12,395.4,122.7)" />
<use xlink:href="#f2_21" transform="matrix(12,0,0,12,401.6,122.7)" />
<use xlink:href="#f2_2f" transform="matrix(12,0,0,12,411.7,122.7)" />
<use xlink:href="#f2_2f" transform="matrix(12,0,0,12,420.8,122.7)" />
<use xlink:href="#f2_25" transform="matrix(12,0,0,12,430,122.7)" />
<use xlink:href="#f2_2b" transform="matrix(12,0,0,12,434.1,122.7)" />
<use xlink:href="#f2_2a" transform="matrix(12,0,0,12,444.2,122.7)" />
<use xlink:href="#f2_22" transform="matrix(12,0,0,12,459.6,122.7)" />
<use xlink:href="#f2_2b" transform="matrix(12,0,0,12,464.7,122.7)" />
<use xlink:href="#f2_2e" transform="matrix(12,0,0,12,474.9,122.7)" />
<use xlink:href="#f2_24" transform="matrix(12,0,0,12,486.1,122.7)" />
<use xlink:href="#f2_1x" transform="matrix(12,0,0,12,496.3,122.7)" />
<use xlink:href="#f2_28" transform="matrix(12,0,0,12,506.5,122.7)" />
<use xlink:href="#f2_22" transform="matrix(12,0,0,12,510.5,122.7)" />
<use xlink:href="#f2_h" transform="matrix(12,0,0,12,515.6,122.7)" />
<use xlink:href="#f2_28" transform="matrix(12,0,0,12,521.7,122.7)" />
<use xlink:href="#f2_25" transform="matrix(12,0,0,12,525.8,122.7)" />
<use xlink:href="#f2_22" transform="matrix(12,0,0,12,529.9,122.7)" />
<use xlink:href="#f2_21" transform="matrix(12,0,0,12,534.9,122.7)" />
<use xlink:href="#f2_2c" transform="matrix(12,0,0,12,550.3,122.7)" />
<use xlink:href="#f2_21" transform="matrix(12,0,0,12,560.5,122.7)" />
<use xlink:href="#f2_2e" transform="matrix(12,0,0,12,570.6,122.7)" />
<use xlink:href="#f2_25" transform="matrix(12,0,0,12,576.7,122.7)" />
<use xlink:href="#f2_2b" transform="matrix(12,0,0,12,580.8,122.7)" />
<use xlink:href="#f2_20" transform="matrix(12,0,0,12,591,122.7)" />
<use xlink:href="#f2_25" transform="matrix(12,0,0,12,606.3,122.7)" />
<use xlink:href="#f2_2a" transform="matrix(12,0,0,12,610.4,122.7)" />
<use xlink:href="#f2_1z" transform="matrix(12,0,0,12,625.7,122.7)" />
<use xlink:href="#f2_1x" transform="matrix(12,0,0,12,634.9,122.7)" />
<use xlink:href="#f2_2f" transform="matrix(12,0,0,12,645.1,122.7)" />
<use xlink:href="#f2_21" transform="matrix(12,0,0,12,654.2,122.7)" />
<use xlink:href="#f2_2b" transform="matrix(12,0,0,12,669.6,122.7)" />
<use xlink:href="#f2_22" transform="matrix(12,0,0,12,679.8,122.7)" />
<use xlink:href="#f2_1x" transform="matrix(12,0,0,12,690,122.7)" />
<use xlink:href="#f2_22" transform="matrix(12,0,0,12,45.9,143.8)" />
<use xlink:href="#f2_25" transform="matrix(12,0,0,12,51,143.8)" />
<use xlink:href="#f2_2e" transform="matrix(12,0,0,12,55.1,143.8)" />
<use xlink:href="#f2_2f" transform="matrix(12,0,0,12,61.2,143.8)" />
<use xlink:href="#f2_2g" transform="matrix(12,0,0,12,70.4,143.8)" />
<use xlink:href="#f2_2b" transform="matrix(12,0,0,12,80.6,143.8)" />
<use xlink:href="#f2_2e" transform="matrix(12,0,0,12,90.8,143.8)" />
<use xlink:href="#f2_20" transform="matrix(12,0,0,12,96.9,143.8)" />
<use xlink:href="#f2_21" transform="matrix(12,0,0,12,107.1,143.8)" />
<use xlink:href="#f2_2e" transform="matrix(12,0,0,12,117.3,143.8)" />
<use xlink:href="#f2_2e" transform="matrix(12,0,0,12,128.5,143.8)" />
<use xlink:href="#f2_21" transform="matrix(12,0,0,12,134.6,143.8)" />
<use xlink:href="#f2_1x" transform="matrix(12,0,0,12,144.8,143.8)" />
<use xlink:href="#f2_1z" transform="matrix(12,0,0,12,155,143.8)" />
<use xlink:href="#f2_2g" transform="matrix(12,0,0,12,164.2,143.8)" />
<use xlink:href="#f2_25" transform="matrix(12,0,0,12,169.3,143.8)" />
<use xlink:href="#f2_2b" transform="matrix(12,0,0,12,173.3,143.8)" />
<use xlink:href="#f2_2a" transform="matrix(12,0,0,12,183.5,143.8)" />
<use xlink:href="#f2_i" transform="matrix(12,0,0,12,193.7,143.8)" />
<use xlink:href="#f1_n" transform="matrix(12,0,0,12,265.1,186.1)" />
<use xlink:href="#f1_29" transform="matrix(12,0,0,12,280.4,186.1)" />
<use xlink:href="#f1_1x" transform="matrix(12,0,0,12,296.7,186.1)" />
<use xlink:href="#f1_2e" transform="matrix(12,0,0,12,306.9,186.1)" />
<use xlink:href="#f1_27" transform="matrix(12,0,0,12,314,186.1)" />
<use xlink:href="#f1_2f" transform="matrix(12,0,0,12,324.2,186.1)" />
<use xlink:href="#f1_2d" transform="matrix(12,0,0,12,339.5,186.1)" />
<use xlink:href="#f1_2h" transform="matrix(12,0,0,12,350.6,186.1)" />
<use xlink:href="#f1_21" transform="matrix(12,0,0,12,361.8,186.1)" />
<use xlink:href="#f1_2f" transform="matrix(12,0,0,12,372,186.1)" />
<use xlink:href="#f1_2g" transform="matrix(12,0,0,12,382.2,186.1)" />
<use xlink:href="#f1_25" transform="matrix(12,0,0,12,388.3,186.1)" />
<use xlink:href="#f1_2b" transform="matrix(12,0,0,12,393.4,186.1)" />
<use xlink:href="#f1_2a" transform="matrix(12,0,0,12,404.6,186.1)" />
<use xlink:href="#f1_1h" transform="matrix(12,0,0,12,45.9,228.1)" />
<use xlink:href="#f1_l" transform="matrix(12,0,0,12,60.2,228.1)" />
<use xlink:href="#f1_i" transform="matrix(12,0,0,12,70.4,228.1)" />
<use xlink:href="#f2_1k" transform="matrix(12,0,0,12,80.7,228.1)" />
<use xlink:href="#f2_24" transform="matrix(12,0,0,12,91.9,228.1)" />
<use xlink:href="#f2_21" transform="matrix(12,0,0,12,102.1,228.1)" />
<use xlink:href="#f2_2e" transform="matrix(12,0,0,12,117.4,228.1)" />
<use xlink:href="#f2_1x" transform="matrix(12,0,0,12,123.5,228.1)" />
<use xlink:href="#f2_2g" transform="matrix(12,0,0,12,133.6,228.1)" />
<use xlink:href="#f2_21" transform="matrix(12,0,0,12,138.7,228.1)" />
<use xlink:href="#f2_1z" transform="matrix(12,0,0,12,154,228.1)" />
<use xlink:href="#f2_2b" transform="matrix(12,0,0,12,163.2,228.1)" />
<use xlink:href="#f2_2a" transform="matrix(12,0,0,12,173.4,228.1)" />
<use xlink:href="#f2_2f" transform="matrix(12,0,0,12,183.6,228.1)" />
<use xlink:href="#f2_2g" transform="matrix(12,0,0,12,192.7,228.1)" />
<use xlink:href="#f2_1x" transform="matrix(12,0,0,12,197.8,228.1)" />
<use xlink:href="#f2_2a" transform="matrix(12,0,0,12,208,228.1)" />
<use xlink:href="#f2_2g" transform="matrix(12,0,0,12,218.2,228.1)" />
<use xlink:href="#f2_22" transform="matrix(12,0,0,12,228.4,228.1)" />
<use xlink:href="#f2_2b" transform="matrix(12,0,0,12,233.5,228.1)" />
<use xlink:href="#f2_2e" transform="matrix(12,0,0,12,243.7,228.1)" />
<use xlink:href="#f2_22" transform="matrix(12,0,0,12,254.9,228.1)" />
<use xlink:href="#f2_25" transform="matrix(12,0,0,12,260,228.1)" />
<use xlink:href="#f2_2e" transform="matrix(12,0,0,12,264.1,228.1)" />
<use xlink:href="#f2_2f" transform="matrix(12,0,0,12,270.2,228.1)" />
<use xlink:href="#f2_2g" transform="matrix(12,0,0,12,279.3,228.1)" />
<use xlink:href="#f2_2b" transform="matrix(12,0,0,12,289.5,228.1)" />
<use xlink:href="#f2_2e" transform="matrix(12,0,0,12,299.6,228.1)" />
<use xlink:href="#f2_20" transform="matrix(12,0,0,12,305.7,228.1)" />
<use xlink:href="#f2_21" transform="matrix(12,0,0,12,315.9,228.1)" />
<use xlink:href="#f2_2e" transform="matrix(12,0,0,12,326.1,228.1)" />
<use xlink:href="#f2_2e" transform="matrix(12,0,0,12,337.3,228.1)" />
<use xlink:href="#f2_21" transform="matrix(12,0,0,12,343.4,228.1)" />
<use xlink:href="#f2_1x" transform="matrix(12,0,0,12,353.6,228.1)" />
<use xlink:href="#f2_1z" transform="matrix(12,0,0,12,363.8,228.1)" />
<use xlink:href="#f2_2g" transform="matrix(12,0,0,12,373,228.1)" />
<use xlink:href="#f2_25" transform="matrix(12,0,0,12,378.1,228.1)" />
<use xlink:href="#f2_2b" transform="matrix(12,0,0,12,382.2,228.1)" />
<use xlink:href="#f2_2a" transform="matrix(12,0,0,12,392.3,228.1)" />
<use xlink:href="#f2_25" transform="matrix(12,0,0,12,407.7,228.1)" />
<use xlink:href="#f2_2f" transform="matrix(12,0,0,12,411.7,228.1)" />
<use xlink:href="#f2_q" transform="matrix(12,0,0,12,426,228.1)" />
<use xlink:href="#f2_k" transform="matrix(12,0,0,12,436.2,228.1)" />
<use xlink:href="#f2_j" transform="matrix(12,0,0,12,446.4,228.1)" />
<use xlink:href="#f2_2f" transform="matrix(12,0,0,12,451.5,228.1)" />
<use xlink:href="#f2_i" transform="matrix(12,0,0,12,460.7,228.1)" />
<use xlink:href="#f2_18" transform="matrix(12,0,0,12,470.9,228.1)" />
<use xlink:href="#f2_2b" transform="matrix(12,0,0,12,484.1,228.1)" />
<use xlink:href="#f2_2j" transform="matrix(12,0,0,12,494.3,228.1)" />
<use xlink:href="#f2_29" transform="matrix(12,0,0,12,512.7,228.1)" />
<use xlink:href="#f2_2h" transform="matrix(12,0,0,12,528,228.1)" />
<use xlink:href="#f2_1z" transform="matrix(12,0,0,12,538.2,228.1)" />
<use xlink:href="#f2_24" transform="matrix(12,0,0,12,547.3,228.1)" />
<use xlink:href="#f2_2g" transform="matrix(12,0,0,12,562.7,228.1)" />
<use xlink:href="#f2_25" transform="matrix(12,0,0,12,567.8,228.1)" />
<use xlink:href="#f2_29" transform="matrix(12,0,0,12,571.8,228.1)" />
<use xlink:href="#f2_21" transform="matrix(12,0,0,12,587,228.1)" />
<use xlink:href="#f2_2j" transform="matrix(12,0,0,12,602.3,228.1)" />
<use xlink:href="#f2_25" transform="matrix(12,0,0,12,615.6,228.1)" />
<use xlink:href="#f2_28" transform="matrix(12,0,0,12,619.6,228.1)" />
<use xlink:href="#f2_28" transform="matrix(12,0,0,12,623.7,228.1)" />
<use xlink:href="#f2_25" transform="matrix(12,0,0,12,632.9,228.1)" />
<use xlink:href="#f2_2g" transform="matrix(12,0,0,12,637,228.1)" />
<use xlink:href="#f2_2g" transform="matrix(12,0,0,12,647.2,228.1)" />
<use xlink:href="#f2_1x" transform="matrix(12,0,0,12,652.3,228.1)" />
<use xlink:href="#f2_27" transform="matrix(12,0,0,12,662.5,228.1)" />
<use xlink:href="#f2_21" transform="matrix(12,0,0,12,671.6,228.1)" />
<use xlink:href="#f2_2g" transform="matrix(12,0,0,12,686.9,228.1)" />
<use xlink:href="#f2_2b" transform="matrix(12,0,0,12,692,228.1)" />
<use xlink:href="#f2_2e" transform="matrix(12,0,0,12,45.9,249.2)" />
<use xlink:href="#f2_21" transform="matrix(12,0,0,12,52,249.2)" />
<use xlink:href="#f2_20" transform="matrix(12,0,0,12,62.2,249.2)" />
<use xlink:href="#f2_2h" transform="matrix(12,0,0,12,72.4,249.2)" />
<use xlink:href="#f2_1z" transform="matrix(12,0,0,12,82.6,249.2)" />
<use xlink:href="#f2_21" transform="matrix(12,0,0,12,91.7,249.2)" />
<use xlink:href="#f2_2g" transform="matrix(12,0,0,12,107.1,249.2)" />
<use xlink:href="#f2_24" transform="matrix(12,0,0,12,112.2,249.2)" />
<use xlink:href="#f2_21" transform="matrix(12,0,0,12,122.3,249.2)" />
<use xlink:href="#f2_1z" transform="matrix(12,0,0,12,137.7,249.2)" />
<use xlink:href="#f2_2b" transform="matrix(12,0,0,12,146.8,249.2)" />
<use xlink:href="#f2_2a" transform="matrix(12,0,0,12,157,249.2)" />
<use xlink:href="#f2_1z" transform="matrix(12,0,0,12,167.2,249.2)" />
<use xlink:href="#f2_21" transform="matrix(12,0,0,12,176.4,249.2)" />
<use xlink:href="#f2_2a" transform="matrix(12,0,0,12,186.5,249.2)" />
<use xlink:href="#f2_2g" transform="matrix(12,0,0,12,196.7,249.2)" />
<use xlink:href="#f2_2e" transform="matrix(12,0,0,12,201.8,249.2)" />
<use xlink:href="#f2_1x" transform="matrix(12,0,0,12,207.9,249.2)" />
<use xlink:href="#f2_2g" transform="matrix(12,0,0,12,218.1,249.2)" />
<use xlink:href="#f2_25" transform="matrix(12,0,0,12,223.2,249.2)" />
<use xlink:href="#f2_2b" transform="matrix(12,0,0,12,227.3,249.2)" />
<use xlink:href="#f2_2a" transform="matrix(12,0,0,12,237.4,249.2)" />
<use xlink:href="#f2_2b" transform="matrix(12,0,0,12,252.8,249.2)" />
<use xlink:href="#f2_22" transform="matrix(12,0,0,12,262.9,249.2)" />
<use xlink:href="#f2_2g" transform="matrix(12,0,0,12,273.2,249.2)" />
<use xlink:href="#f2_24" transform="matrix(12,0,0,12,278.3,249.2)" />
<use xlink:href="#f2_21" transform="matrix(12,0,0,12,288.4,249.2)" />
<use xlink:href="#f2_2e" transform="matrix(12,0,0,12,303.8,249.2)" />
<use xlink:href="#f2_21" transform="matrix(12,0,0,12,309.9,249.2)" />
<use xlink:href="#f2_1x" transform="matrix(12,0,0,12,320.1,249.2)" />
<use xlink:href="#f2_1z" transform="matrix(12,0,0,12,330.2,249.2)" />
<use xlink:href="#f2_2g" transform="matrix(12,0,0,12,339.4,249.2)" />
<use xlink:href="#f2_25" transform="matrix(12,0,0,12,344.5,249.2)" />
<use xlink:href="#f2_2b" transform="matrix(12,0,0,12,348.6,249.2)" />
<use xlink:href="#f2_2a" transform="matrix(12,0,0,12,358.8,249.2)" />
<use xlink:href="#f2_2g" transform="matrix(12,0,0,12,374.1,249.2)" />
<use xlink:href="#f2_2b" transform="matrix(12,0,0,12,379.2,249.2)" />
<use xlink:href="#f2_l" transform="matrix(12,0,0,12,394.5,249.2)" />
<use xlink:href="#f2_j" transform="matrix(12,0,0,12,404.7,249.2)" />
<use xlink:href="#f2_l" transform="matrix(12,0,0,12,409.8,249.2)" />
<use xlink:href="#f2_k" transform="matrix(12,0,0,12,420,249.2)" />
<use xlink:href="#f2_2b" transform="matrix(12,0,0,12,435.3,249.2)" />
<use xlink:href="#f2_22" transform="matrix(12,0,0,12,445.5,249.2)" />
<use xlink:href="#f2_25" transform="matrix(12,0,0,12,455.7,249.2)" />
<use xlink:href="#f2_2g" transform="matrix(12,0,0,12,459.8,249.2)" />
<use xlink:href="#f2_2f" transform="matrix(12,0,0,12,464.8,249.2)" />
<use xlink:href="#f2_25" transform="matrix(12,0,0,12,479.1,249.2)" />
<use xlink:href="#f2_2a" transform="matrix(12,0,0,12,483.2,249.2)" />
<use xlink:href="#f2_25" transform="matrix(12,0,0,12,493.4,249.2)" />
<use xlink:href="#f2_2g" transform="matrix(12,0,0,12,497.4,249.2)" />
<use xlink:href="#f2_25" transform="matrix(12,0,0,12,502.5,249.2)" />
<use xlink:href="#f2_1x" transform="matrix(12,0,0,12,506.6,249.2)" />
<use xlink:href="#f2_28" transform="matrix(12,0,0,12,516.8,249.2)" />
<use xlink:href="#f2_2i" transform="matrix(12,0,0,12,526,249.2)" />
<use xlink:href="#f2_1x" transform="matrix(12,0,0,12,535.1,249.2)" />
<use xlink:href="#f2_28" transform="matrix(12,0,0,12,545.3,249.2)" />
<use xlink:href="#f2_2h" transform="matrix(12,0,0,12,549.4,249.2)" />
<use xlink:href="#f2_21" transform="matrix(12,0,0,12,559.6,249.2)" />
<use xlink:href="#f2_i" transform="matrix(12,0,0,12,569.7,249.2)" />
<use xlink:href="#f1_11" transform="matrix(12,0,0,12,45.9,270.4)" />
<use xlink:href="#f1_2a" transform="matrix(12,0,0,12,59.2,270.4)" />
<use xlink:href="#f1_2f" transform="matrix(12,0,0,12,70.3,270.4)" />
<use xlink:href="#f1_u" transform="matrix(12,0,0,12,80.5,270.4)" />
<use xlink:href="#f1_h" transform="matrix(12,0,0,12,86.6,270.4)" />
<use xlink:href="#f2_2g" transform="matrix(12,0,0,12,107.1,291.4)" />
<use xlink:href="#f2_x" transform="matrix(12,0,0,12,117.3,291.4)" />
<use xlink:href="#f2_m" transform="matrix(12,0,0,12,133,291.4)" />
<use xlink:href="#f2_i" transform="matrix(12,0,0,12,143.2,291.4)" />
<use xlink:href="#f2_n" transform="matrix(12,0,0,12,148.3,291.4)" />
<use xlink:href="#f2_k" transform="matrix(12,0,0,12,158.5,291.4)" />
<use xlink:href="#f2_n" transform="matrix(12,0,0,12,168.6,291.4)" />
</g>
<path d="M133,294.7h51v-1.4H133v1.4Z" class="g0_29" />
<g fill="#000000" >
<use xlink:href="#f2_28" transform="matrix(12,0,0,12,184,291.4)" />
<use xlink:href="#f2_2b" transform="matrix(12,0,0,12,188,291.4)" />
<use xlink:href="#f2_23" transform="matrix(12,0,0,12,198.2,291.4)" />
<use xlink:href="#f2_1r" transform="matrix(12,0,0,12,213.5,291.4)" />
<use xlink:href="#f2_1i" transform="matrix(12,0,0,12,218.6,291.4)" />
</g>
<path d="M208.4,294.7h23.4v-1.4H208.4v1.4Z" class="g0_29" />
<g fill="#000000" >
<use xlink:href="#f2_k" transform="matrix(8,0,0,8,231.8,293.7)" />
</g>
<path d="M231.8,295.9h6.8V295h-6.8v.9Z" class="g0_29" />
<g fill="#000000" >
<use xlink:href="#f2_1t" transform="matrix(12,0,0,12,238.6,291.4)" />
</g>
<path d="M238.6,294.7h5.1v-1.4h-5.1v1.4Z" class="g0_29" />
<g fill="#000000" >
<use xlink:href="#f2_1b" transform="matrix(12,0,0,12,151.9,312.5)" />
<use xlink:href="#f2_1r" transform="matrix(12,0,0,12,220.1,312.5)" />
<use xlink:href="#f2_1i" transform="matrix(12,0,0,12,225.2,312.5)" />
<use xlink:href="#f2_1t" transform="matrix(12,0,0,12,238.5,312.5)" />
<use xlink:href="#f2_2g" transform="matrix(12,0,0,12,100.9,354.6)" />
<use xlink:href="#f2_x" transform="matrix(12,0,0,12,106.1,354.6)" />
<use xlink:href="#f2_m" transform="matrix(12,0,0,12,121.8,354.6)" />
<use xlink:href="#f2_i" transform="matrix(12,0,0,12,132,354.6)" />
<use xlink:href="#f2_n" transform="matrix(12,0,0,12,137.1,354.6)" />
<use xlink:href="#f2_k" transform="matrix(12,0,0,12,147.3,354.6)" />
<use xlink:href="#f2_n" transform="matrix(12,0,0,12,157.5,354.6)" />
</g>
<path d="M121.8,357.9h45.9v-1.3H121.8v1.3Z" class="g0_29" />
<g fill="#000000" >
<use xlink:href="#f2_28" transform="matrix(12,0,0,12,172.8,354.6)" />
<use xlink:href="#f2_2b" transform="matrix(12,0,0,12,176.9,354.6)" />
<use xlink:href="#f2_23" transform="matrix(12,0,0,12,187.1,354.6)" />
<use xlink:href="#f2_1r" transform="matrix(12,0,0,12,202.4,354.6)" />
<use xlink:href="#f2_1i" transform="matrix(12,0,0,12,207.5,354.6)" />
<use xlink:href="#f2_k" transform="matrix(12,0,0,12,220.7,354.6)" />
<use xlink:href="#f2_1t" transform="matrix(12,0,0,12,230.9,354.6)" />
</g>
<path d="M202.4,357.9H236v-1.3H202.4v1.3Z" class="g0_29" />
<g fill="#000000" >
<use xlink:href="#f2_l" transform="matrix(8,0,0,8,182.3,378)" />
</g>
<path d="M178.9,380.2h23.9v-.9H178.9v.9Z" class="g0_29" />
<g fill="#000000" >
<use xlink:href="#f2_1r" transform="matrix(12,0,0,12,206.2,375.7)" />
<use xlink:href="#f2_1i" transform="matrix(12,0,0,12,211.3,375.7)" />
<use xlink:href="#f2_1t" transform="matrix(12,0,0,12,224.5,375.7)" />
<use xlink:href="#f2_l" transform="matrix(8,0,0,8,182.4,399.1)" />
<use xlink:href="#f2_k" transform="matrix(8,0,0,8,189.3,399.1)" />
<use xlink:href="#f2_2g" transform="matrix(12,0,0,12,100.9,417.9)" />
<use xlink:href="#f2_x" transform="matrix(12,0,0,12,111.2,417.9)" />
<use xlink:href="#f2_m" transform="matrix(12,0,0,12,126.9,417.9)" />
<use xlink:href="#f2_i" transform="matrix(12,0,0,12,137.1,417.9)" />
<use xlink:href="#f2_n" transform="matrix(12,0,0,12,142.1,417.9)" />
<use xlink:href="#f2_k" transform="matrix(12,0,0,12,152.3,417.9)" />
<use xlink:href="#f2_n" transform="matrix(12,0,0,12,162.5,417.9)" />
</g>
<path d="M126.9,421.2h45.8v-1.4H126.9v1.4Z" class="g0_29" />
<g fill="#000000" >
<use xlink:href="#f2_28" transform="matrix(12,0,0,12,177.8,417.9)" />
<use xlink:href="#f2_2b" transform="matrix(12,0,0,12,181.9,417.9)" />
<use xlink:href="#f2_23" transform="matrix(12,0,0,12,192.1,417.9)" />
<use xlink:href="#f2_l" transform="matrix(12,0,0,12,202.3,417.9)" />
<use xlink:href="#f2_k" transform="matrix(12,0,0,12,212.5,417.9)" />
<use xlink:href="#f2_q" transform="matrix(12,0,0,12,141.8,439)" />
<use xlink:href="#f2_k" transform="matrix(12,0,0,12,152,439)" />
<use xlink:href="#f2_2g" transform="matrix(12,0,0,12,100.9,460.1)" />
<use xlink:href="#f2_x" transform="matrix(12,0,0,12,111.2,460.1)" />
<use xlink:href="#f2_m" transform="matrix(12,0,0,12,126.9,460.1)" />
<use xlink:href="#f2_i" transform="matrix(12,0,0,12,137.1,460.1)" />
<use xlink:href="#f2_n" transform="matrix(12,0,0,12,142.1,460.1)" />
<use xlink:href="#f2_k" transform="matrix(12,0,0,12,152.3,460.1)" />
<use xlink:href="#f2_n" transform="matrix(12,0,0,12,162.5,460.1)" />
</g>
<path d="M126.9,463.4h50.9V462H126.9v1.4Z" class="g0_29" />
<g fill="#000000" >
<use xlink:href="#f2_x" transform="matrix(12,0,0,12,177.8,460.1)" />
<use xlink:href="#f2_n" transform="matrix(12,0,0,12,193.7,460.1)" />
<use xlink:href="#f2_i" transform="matrix(12,0,0,12,203.9,460.1)" />
<use xlink:href="#f2_n" transform="matrix(12,0,0,12,209,460.1)" />
<use xlink:href="#f2_s" transform="matrix(12,0,0,12,219.1,460.1)" />
<use xlink:href="#f2_1o" transform="matrix(12,0,0,12,229.3,460.1)" />
<use xlink:href="#f2_l" transform="matrix(12,0,0,12,246.7,460.1)" />
<use xlink:href="#f2_k" transform="matrix(12,0,0,12,256.9,460.1)" />
<use xlink:href="#f2_h" transform="matrix(8,0,0,8,267,451.6)" />
<use xlink:href="#f2_m" transform="matrix(8,0,0,8,271.1,451.6)" />
<use xlink:href="#f2_2f" transform="matrix(12,0,0,12,277.8,460.1)" />
<use xlink:href="#f2_h" transform="matrix(8,0,0,8,287.1,451.6)" />
<use xlink:href="#f2_l" transform="matrix(8,0,0,8,291.1,451.6)" />
<use xlink:href="#f2_q" transform="matrix(12,0,0,12,141.8,481.1)" />
<use xlink:href="#f2_k" transform="matrix(12,0,0,12,152,481.1)" />
<use xlink:href="#f1_m" transform="matrix(12,0,0,12,51.1,502.2)" />
<use xlink:href="#f1_i" transform="matrix(12,0,0,12,61.3,502.2)" />
<use xlink:href="#f2_1k" transform="matrix(12,0,0,12,71.5,502.2)" />
<use xlink:href="#f2_24" transform="matrix(12,0,0,12,82.7,502.2)" />
<use xlink:href="#f2_21" transform="matrix(12,0,0,12,92.9,502.2)" />
<use xlink:href="#f2_2e" transform="matrix(12,0,0,12,108.2,502.2)" />
<use xlink:href="#f2_1x" transform="matrix(12,0,0,12,114.3,502.2)" />
<use xlink:href="#f2_2g" transform="matrix(12,0,0,12,124.5,502.2)" />
<use xlink:href="#f2_21" transform="matrix(12,0,0,12,129.5,502.2)" />
<use xlink:href="#f2_2b" transform="matrix(12,0,0,12,144.8,502.2)" />
<use xlink:href="#f2_22" transform="matrix(12,0,0,12,155,502.2)" />
<use xlink:href="#f2_29" transform="matrix(12,0,0,12,165.2,502.2)" />
<use xlink:href="#f2_2b" transform="matrix(12,0,0,12,180.5,502.2)" />
<use xlink:href="#f2_2f" transform="matrix(12,0,0,12,190.7,502.2)" />
<use xlink:href="#f2_2g" transform="matrix(12,0,0,12,199.8,502.2)" />
<use xlink:href="#f2_2b" transform="matrix(12,0,0,12,210,502.2)" />
<use xlink:href="#f2_22" transform="matrix(12,0,0,12,220.2,502.2)" />
<use xlink:href="#f2_2e" transform="matrix(12,0,0,12,230.4,502.2)" />
<use xlink:href="#f2_21" transform="matrix(12,0,0,12,236.5,502.2)" />
<use xlink:href="#f2_1x" transform="matrix(12,0,0,12,246.7,502.2)" />
<use xlink:href="#f2_1z" transform="matrix(12,0,0,12,256.9,502.2)" />
<use xlink:href="#f2_2g" transform="matrix(12,0,0,12,266,502.2)" />
<use xlink:href="#f2_25" transform="matrix(12,0,0,12,271.1,502.2)" />
<use xlink:href="#f2_2b" transform="matrix(12,0,0,12,275.2,502.2)" />
<use xlink:href="#f2_2a" transform="matrix(12,0,0,12,285.4,502.2)" />
<use xlink:href="#f2_20" transform="matrix(12,0,0,12,300.7,502.2)" />
<use xlink:href="#f2_2b" transform="matrix(12,0,0,12,310.9,502.2)" />
<use xlink:href="#f2_2h" transform="matrix(12,0,0,12,321,502.2)" />
<use xlink:href="#f2_1y" transform="matrix(12,0,0,12,331.2,502.2)" />
<use xlink:href="#f2_28" transform="matrix(12,0,0,12,341.4,502.2)" />
<use xlink:href="#f2_21" transform="matrix(12,0,0,12,345.5,502.2)" />
<use xlink:href="#f2_2j" transform="matrix(12,0,0,12,360.8,502.2)" />
<use xlink:href="#f2_24" transform="matrix(12,0,0,12,374,502.2)" />
<use xlink:href="#f2_21" transform="matrix(12,0,0,12,384.3,502.2)" />
<use xlink:href="#f2_2a" transform="matrix(12,0,0,12,394.5,502.2)" />
<use xlink:href="#f2_2g" transform="matrix(12,0,0,12,409.8,502.2)" />
<use xlink:href="#f2_24" transform="matrix(12,0,0,12,414.9,502.2)" />
<use xlink:href="#f2_21" transform="matrix(12,0,0,12,425.1,502.2)" />
<use xlink:href="#f2_25" transform="matrix(12,0,0,12,435.3,502.2)" />
<use xlink:href="#f2_2e" transform="matrix(12,0,0,12,439.3,502.2)" />
<use xlink:href="#f2_2g" transform="matrix(12,0,0,12,450.6,502.2)" />
<use xlink:href="#f2_21" transform="matrix(12,0,0,12,455.7,502.2)" />
<use xlink:href="#f2_29" transform="matrix(12,0,0,12,465.9,502.2)" />
<use xlink:href="#f2_2c" transform="matrix(12,0,0,12,481.2,502.2)" />
<use xlink:href="#f2_21" transform="matrix(12,0,0,12,491.3,502.2)" />
<use xlink:href="#f2_2e" transform="matrix(12,0,0,12,501.5,502.2)" />
<use xlink:href="#f2_1x" transform="matrix(12,0,0,12,507.6,502.2)" />
<use xlink:href="#f2_2g" transform="matrix(12,0,0,12,517.8,502.2)" />
<use xlink:href="#f2_2h" transform="matrix(12,0,0,12,522.9,502.2)" />
<use xlink:href="#f2_2e" transform="matrix(12,0,0,12,533.1,502.2)" />
<use xlink:href="#f2_21" transform="matrix(12,0,0,12,539.2,502.2)" />
<use xlink:href="#f2_25" transform="matrix(12,0,0,12,554.6,502.2)" />
<use xlink:href="#f2_2f" transform="matrix(12,0,0,12,558.6,502.2)" />
<use xlink:href="#f2_2e" transform="matrix(12,0,0,12,572.9,502.2)" />
<use xlink:href="#f2_1x" transform="matrix(12,0,0,12,579,502.2)" />
<use xlink:href="#f2_25" transform="matrix(12,0,0,12,589.2,502.2)" />
<use xlink:href="#f2_2f" transform="matrix(12,0,0,12,593.3,502.2)" />
<use xlink:href="#f2_21" transform="matrix(12,0,0,12,602.5,502.2)" />
<use xlink:href="#f2_20" transform="matrix(12,0,0,12,612.7,502.2)" />
<use xlink:href="#f2_22" transform="matrix(12,0,0,12,628,502.2)" />
<use xlink:href="#f2_2e" transform="matrix(12,0,0,12,633.1,502.2)" />
<use xlink:href="#f2_2b" transform="matrix(12,0,0,12,639.2,502.2)" />
<use xlink:href="#f2_29" transform="matrix(12,0,0,12,649.4,502.2)" />
<use xlink:href="#f2_m" transform="matrix(12,0,0,12,45.9,523.3)" />
<use xlink:href="#f2_t" transform="matrix(12,0,0,12,56.1,523.3)" />
<use xlink:href="#f2_s" transform="matrix(12,0,0,12,66.3,523.3)" />
<use xlink:href="#f2_27" transform="matrix(12,0,0,12,76.5,523.3)" />
<use xlink:href="#f2_2g" transform="matrix(12,0,0,12,90.8,523.3)" />
<use xlink:href="#f2_2b" transform="matrix(12,0,0,12,95.9,523.3)" />
<use xlink:href="#f2_n" transform="matrix(12,0,0,12,111.2,523.3)" />
<use xlink:href="#f2_k" transform="matrix(12,0,0,12,121.4,523.3)" />
<use xlink:href="#f2_s" transform="matrix(12,0,0,12,131.6,523.3)" />
<use xlink:href="#f2_27" transform="matrix(12,0,0,12,141.8,523.3)" />
<use xlink:href="#f2_i" transform="matrix(12,0,0,12,150.9,523.3)" />
<use xlink:href="#f2_13" transform="matrix(12,0,0,12,161.2,523.3)" />
<use xlink:href="#f2_1x" transform="matrix(12,0,0,12,174.4,523.3)" />
<use xlink:href="#f2_28" transform="matrix(12,0,0,12,184.6,523.3)" />
<use xlink:href="#f2_1z" transform="matrix(12,0,0,12,188.6,523.3)" />
<use xlink:href="#f2_2h" transform="matrix(12,0,0,12,197.8,523.3)" />
<use xlink:href="#f2_28" transform="matrix(12,0,0,12,208,523.3)" />
<use xlink:href="#f2_1x" transform="matrix(12,0,0,12,212.1,523.3)" />
<use xlink:href="#f2_2g" transform="matrix(12,0,0,12,222.2,523.3)" />
<use xlink:href="#f2_21" transform="matrix(12,0,0,12,227.3,523.3)" />
<use xlink:href="#f2_2g" transform="matrix(12,0,0,12,242.7,523.3)" />
<use xlink:href="#f2_24" transform="matrix(12,0,0,12,247.8,523.3)" />
<use xlink:href="#f2_21" transform="matrix(12,0,0,12,257.9,523.3)" />
<use xlink:href="#f2_1x" transform="matrix(12,0,0,12,273.3,523.3)" />
<use xlink:href="#f2_1z" transform="matrix(12,0,0,12,283.4,523.3)" />
<use xlink:href="#f2_2g" transform="matrix(12,0,0,12,292.6,523.3)" />
<use xlink:href="#f2_25" transform="matrix(12,0,0,12,297.7,523.3)" />
<use xlink:href="#f2_2i" transform="matrix(12,0,0,12,301.8,523.3)" />
<use xlink:href="#f2_1x" transform="matrix(12,0,0,12,310.9,523.3)" />
<use xlink:href="#f2_2g" transform="matrix(12,0,0,12,321.1,523.3)" />
<use xlink:href="#f2_25" transform="matrix(12,0,0,12,326.2,523.3)" />
<use xlink:href="#f2_2b" transform="matrix(12,0,0,12,330.3,523.3)" />
<use xlink:href="#f2_2a" transform="matrix(12,0,0,12,340.5,523.3)" />
<use xlink:href="#f2_21" transform="matrix(12,0,0,12,355.8,523.3)" />
<use xlink:href="#f2_2a" transform="matrix(12,0,0,12,366,523.3)" />
<use xlink:href="#f2_21" transform="matrix(12,0,0,12,376.2,523.3)" />
<use xlink:href="#f2_2e" transform="matrix(12,0,0,12,386.4,523.3)" />
<use xlink:href="#f2_23" transform="matrix(12,0,0,12,392.5,523.3)" />
<use xlink:href="#f2_2l" transform="matrix(12,0,0,12,402.7,523.3)" />
<use xlink:href="#f2_2b" transform="matrix(12,0,0,12,416.9,523.3)" />
<use xlink:href="#f2_22" transform="matrix(12,0,0,12,427.1,523.3)" />
<use xlink:href="#f2_2f" transform="matrix(12,0,0,12,437.4,523.3)" />
<use xlink:href="#f2_2h" transform="matrix(12,0,0,12,446.5,523.3)" />
<use xlink:href="#f2_1z" transform="matrix(12,0,0,12,456.7,523.3)" />
<use xlink:href="#f2_24" transform="matrix(12,0,0,12,465.9,523.3)" />
<use xlink:href="#f2_1x" transform="matrix(12,0,0,12,481.2,523.3)" />
<use xlink:href="#f2_2e" transform="matrix(12,0,0,12,496.5,523.3)" />
<use xlink:href="#f2_21" transform="matrix(12,0,0,12,502.6,523.3)" />
<use xlink:href="#f2_1x" transform="matrix(12,0,0,12,512.8,523.3)" />
<use xlink:href="#f2_1z" transform="matrix(12,0,0,12,523,523.3)" />
<use xlink:href="#f2_2g" transform="matrix(12,0,0,12,532.1,523.3)" />
<use xlink:href="#f2_25" transform="matrix(12,0,0,12,537.2,523.3)" />
<use xlink:href="#f2_2b" transform="matrix(12,0,0,12,541.3,523.3)" />
<use xlink:href="#f2_2a" transform="matrix(12,0,0,12,551.5,523.3)" />
<use xlink:href="#f2_i" transform="matrix(12,0,0,12,561.7,523.3)" />
<use xlink:href="#f1_11" transform="matrix(12,0,0,12,45.9,544.5)" />
<use xlink:href="#f1_2a" transform="matrix(12,0,0,12,59.2,544.5)" />
<use xlink:href="#f1_2f" transform="matrix(12,0,0,12,70.4,544.5)" />
<use xlink:href="#f1_u" transform="matrix(12,0,0,12,80.6,544.5)" />
<use xlink:href="#f1_h" transform="matrix(12,0,0,12,86.7,544.5)" />
<use xlink:href="#f2_1c" transform="matrix(12,0,0,12,122.4,565.5)" />
<use xlink:href="#f2_2b" transform="matrix(12,0,0,12,132.6,565.5)" />
<use xlink:href="#f2_23" transform="matrix(12,0,0,12,142.8,565.5)" />
<use xlink:href="#f2_1b" transform="matrix(12,0,0,12,158,565.5)" />
</g>
<path d="M158,568.8h12.2v-1.4H158v1.4Z" class="g0_29" />
<g fill="#000000" >
<use xlink:href="#f2_m" transform="matrix(8,0,0,8,170.2,567.8)" />
</g>
<path d="M170.2,570h13.6v-1H170.2v1Z" class="g0_29" />
<g fill="#000000" >
<use xlink:href="#f2_x" transform="matrix(8,0,0,8,187.2,567.8)" />
<use xlink:href="#f2_15" transform="matrix(12,0,0,12,207.9,565.5)" />
</g>
<path d="M207.9,568.8h12.3v-1.4H207.9v1.4Z" class="g0_29" />
<g fill="#000000" >
<use xlink:href="#f2_1x" transform="matrix(8,0,0,8,220.2,567.8)" />
</g>
<path d="M220.2,570H227v-1h-6.8v1Z" class="g0_29" />
<g fill="#000000" >
<use xlink:href="#f2_l" transform="matrix(12,0,0,12,277.9,565.5)" />
<use xlink:href="#f2_h" transform="matrix(12,0,0,12,293.2,565.5)" />
<use xlink:href="#f2_l" transform="matrix(12,0,0,12,314.6,565.5)" />
</g>
<path d="M227,568.8h97.8v-1.4H227v1.4Z" class="g0_29" />
<g fill="#000000" >
<use xlink:href="#f2_1b" transform="matrix(12,0,0,12,157.9,586.6)" />
<use xlink:href="#f2_l" transform="matrix(8,0,0,8,170.1,588.8)" />
<use xlink:href="#f2_m" transform="matrix(12,0,0,12,197.3,586.6)" />
<use xlink:href="#f2_i" transform="matrix(12,0,0,12,207.5,586.6)" />
<use xlink:href="#f2_n" transform="matrix(12,0,0,12,212.6,586.6)" />
<use xlink:href="#f2_k" transform="matrix(12,0,0,12,222.8,586.6)" />
<use xlink:href="#f2_n" transform="matrix(12,0,0,12,233,586.6)" />
<use xlink:href="#f2_1i" transform="matrix(12,0,0,12,248.3,586.6)" />
<use xlink:href="#f2_1k" transform="matrix(12,0,0,12,276.9,586.6)" />
<use xlink:href="#f2_l" transform="matrix(8,0,0,8,288.1,588.8)" />
<use xlink:href="#f2_1k" transform="matrix(12,0,0,12,300,586.6)" />
<use xlink:href="#f2_m" transform="matrix(8,0,0,8,311.1,588.8)" />
<use xlink:href="#f2_15" transform="matrix(12,0,0,12,45.9,607.5)" />
<use xlink:href="#f2_1x" transform="matrix(12,0,0,12,58.2,607.5)" />
<use xlink:href="#f2_x" transform="matrix(12,0,0,12,73.5,607.5)" />
<use xlink:href="#f2_m" transform="matrix(12,0,0,12,89.3,607.5)" />
<use xlink:href="#f2_i" transform="matrix(12,0,0,12,99.5,607.5)" />
<use xlink:href="#f2_n" transform="matrix(12,0,0,12,104.5,607.5)" />
<use xlink:href="#f2_k" transform="matrix(12,0,0,12,114.7,607.5)" />
<use xlink:href="#f2_n" transform="matrix(12,0,0,12,124.9,607.5)" />
<use xlink:href="#f2_1o" transform="matrix(12,0,0,12,140.2,607.5)" />
<use xlink:href="#f2_s" transform="matrix(12,0,0,12,157.5,607.5)" />
<use xlink:href="#f2_i" transform="matrix(12,0,0,12,167.7,607.5)" />
<use xlink:href="#f2_n" transform="matrix(12,0,0,12,172.8,607.5)" />
<use xlink:href="#f2_l" transform="matrix(12,0,0,12,183,607.5)" />
<use xlink:href="#f2_o" transform="matrix(12,0,0,12,193.1,607.5)" />
<use xlink:href="#f2_1o" transform="matrix(12,0,0,12,208.4,607.5)" />
<use xlink:href="#f2_m" transform="matrix(12,0,0,12,225.8,607.5)" />
<use xlink:href="#f2_t" transform="matrix(12,0,0,12,236,607.5)" />
<use xlink:href="#f2_s" transform="matrix(12,0,0,12,246.1,607.5)" />
<use xlink:href="#f2_1o" transform="matrix(12,0,0,12,261.4,607.5)" />
<use xlink:href="#f2_n" transform="matrix(12,0,0,12,278.8,607.5)" />
<use xlink:href="#f2_k" transform="matrix(12,0,0,12,289,607.5)" />
<use xlink:href="#f2_s" transform="matrix(12,0,0,12,299.1,607.5)" />
<use xlink:href="#f2_1o" transform="matrix(12,0,0,12,314.4,607.5)" />
<use xlink:href="#f2_k" transform="matrix(12,0,0,12,331.8,607.5)" />
<use xlink:href="#f2_i" transform="matrix(12,0,0,12,342,607.5)" />
<use xlink:href="#f2_n" transform="matrix(12,0,0,12,347,607.5)" />
<use xlink:href="#f2_k" transform="matrix(12,0,0,12,357.2,607.5)" />
<use xlink:href="#f2_l" transform="matrix(12,0,0,12,367.4,607.5)" />
<use xlink:href="#f2_k" transform="matrix(12,0,0,12,377.6,607.5)" />
</g>
<path d="M89.3,610.8H387.8v-1.3H89.3v1.3Z" class="g0_29" />
<g fill="#000000" >
<use xlink:href="#f2_l" transform="matrix(12,0,0,12,178.5,628.6)" />
<use xlink:href="#f2_k" transform="matrix(12,0,0,12,188.7,628.6)" />
<use xlink:href="#f2_k" transform="matrix(12,0,0,12,198.9,628.6)" />
<use xlink:href="#f2_k" transform="matrix(12,0,0,12,209.1,628.6)" />
<use xlink:href="#f2_15" transform="matrix(12,0,0,12,45.9,649.7)" />
<use xlink:href="#f2_1x" transform="matrix(12,0,0,12,58.2,649.7)" />
<use xlink:href="#f2_x" transform="matrix(12,0,0,12,73.5,649.7)" />
<use xlink:href="#f2_p" transform="matrix(12,0,0,12,89.3,649.7)" />
<use xlink:href="#f2_m" transform="matrix(12,0,0,12,99.5,649.7)" />
<use xlink:href="#f2_i" transform="matrix(12,0,0,12,109.7,649.7)" />
<use xlink:href="#f2_s" transform="matrix(12,0,0,12,114.8,649.7)" />
<use xlink:href="#f2_t" transform="matrix(12,0,0,12,125,649.7)" />
<use xlink:href="#f2_1b" transform="matrix(12,0,0,12,135.2,649.7)" />
<use xlink:href="#f2_1a" transform="matrix(12,0,0,12,147.4,649.7)" />
<use xlink:href="#f2_j" transform="matrix(12,0,0,12,156.5,649.7)" />
<use xlink:href="#f2_29" transform="matrix(12,0,0,12,161.6,649.7)" />
<use xlink:href="#f2_2b" transform="matrix(12,0,0,12,176.9,649.7)" />
<use xlink:href="#f2_28" transform="matrix(12,0,0,12,187.1,649.7)" />
<use xlink:href="#f1_n" transform="matrix(12,0,0,12,45.9,691.9)" />
<use xlink:href="#f2_i" transform="matrix(12,0,0,12,56.1,691.9)" />
<use xlink:href="#f2_11" transform="matrix(12,0,0,12,66.3,691.9)" />
<use xlink:href="#f2_22" transform="matrix(12,0,0,12,83.7,691.9)" />
<use xlink:href="#f2_25" transform="matrix(12,0,0,12,88.8,691.9)" />
<use xlink:href="#f2_2e" transform="matrix(12,0,0,12,92.8,691.9)" />
<use xlink:href="#f2_2f" transform="matrix(12,0,0,12,98.9,691.9)" />
<use xlink:href="#f2_2g" transform="matrix(12,0,0,12,108.1,691.9)" />
<use xlink:href="#f2_2b" transform="matrix(12,0,0,12,118.3,691.9)" />
<use xlink:href="#f2_2e" transform="matrix(12,0,0,12,128.5,691.9)" />
<use xlink:href="#f2_20" transform="matrix(12,0,0,12,134.6,691.9)" />
<use xlink:href="#f2_21" transform="matrix(12,0,0,12,144.8,691.9)" />
<use xlink:href="#f2_2e" transform="matrix(12,0,0,12,155,691.9)" />
<use xlink:href="#f2_2e" transform="matrix(12,0,0,12,166.2,691.9)" />
<use xlink:href="#f2_21" transform="matrix(12,0,0,12,172.3,691.9)" />
<use xlink:href="#f2_1x" transform="matrix(12,0,0,12,182.5,691.9)" />
<use xlink:href="#f2_1z" transform="matrix(12,0,0,12,192.7,691.9)" />
<use xlink:href="#f2_2g" transform="matrix(12,0,0,12,201.9,691.9)" />
<use xlink:href="#f2_25" transform="matrix(12,0,0,12,207,691.9)" />
<use xlink:href="#f2_2b" transform="matrix(12,0,0,12,211,691.9)" />
<use xlink:href="#f2_2a" transform="matrix(12,0,0,12,221.2,691.9)" />
<use xlink:href="#f2_2g" transform="matrix(12,0,0,12,236.5,691.9)" />
<use xlink:href="#f2_1x" transform="matrix(12,0,0,12,241.6,691.9)" />
<use xlink:href="#f2_27" transform="matrix(12,0,0,12,251.8,691.9)" />
<use xlink:href="#f2_21" transform="matrix(12,0,0,12,261,691.9)" />
<use xlink:href="#f2_2f" transform="matrix(12,0,0,12,271.2,691.9)" />
<use xlink:href="#f2_q" transform="matrix(12,0,0,12,285.5,691.9)" />
<use xlink:href="#f2_t" transform="matrix(12,0,0,12,295.7,691.9)" />
<use xlink:href="#f2_i" transform="matrix(12,0,0,12,305.8,691.9)" />
<use xlink:href="#f2_n" transform="matrix(12,0,0,12,310.9,691.9)" />
<use xlink:href="#f2_29" transform="matrix(12,0,0,12,326.3,691.9)" />
<use xlink:href="#f2_25" transform="matrix(12,0,0,12,341.5,691.9)" />
<use xlink:href="#f2_2a" transform="matrix(12,0,0,12,345.6,691.9)" />
<use xlink:href="#f2_22" transform="matrix(12,0,0,12,360.9,691.9)" />
<use xlink:href="#f2_2b" transform="matrix(12,0,0,12,366,691.9)" />
<use xlink:href="#f2_2e" transform="matrix(12,0,0,12,376.1,691.9)" />
<use xlink:href="#f2_p" transform="matrix(12,0,0,12,387.4,691.9)" />
<use xlink:href="#f2_k" transform="matrix(12,0,0,12,397.5,691.9)" />
<use xlink:href="#f2_9" transform="matrix(12,0,0,12,407.7,691.9)" />
<use xlink:href="#f2_1z" transform="matrix(12,0,0,12,429.2,691.9)" />
<use xlink:href="#f2_2b" transform="matrix(12,0,0,12,438.3,691.9)" />
<use xlink:href="#f2_29" transform="matrix(12,0,0,12,448.5,691.9)" />
<use xlink:href="#f2_2c" transform="matrix(12,0,0,12,463.8,691.9)" />
<use xlink:href="#f2_28" transform="matrix(12,0,0,12,474,691.9)" />
<use xlink:href="#f2_21" transform="matrix(12,0,0,12,478,691.9)" />
<use xlink:href="#f2_2g" transform="matrix(12,0,0,12,488.2,691.9)" />
<use xlink:href="#f2_25" transform="matrix(12,0,0,12,493.3,691.9)" />
<use xlink:href="#f2_2b" transform="matrix(12,0,0,12,497.4,691.9)" />
<use xlink:href="#f2_2a" transform="matrix(12,0,0,12,507.6,691.9)" />
<use xlink:href="#f2_i" transform="matrix(12,0,0,12,517.8,691.9)" />
<use xlink:href="#f2_1j" transform="matrix(12,0,0,12,528,691.9)" />
<use xlink:href="#f2_21" transform="matrix(12,0,0,12,540.2,691.9)" />
<use xlink:href="#f2_2g" transform="matrix(12,0,0,12,550.4,691.9)" />
<use xlink:href="#f2_2h" transform="matrix(12,0,0,12,560.6,691.9)" />
<use xlink:href="#f2_2c" transform="matrix(12,0,0,12,570.8,691.9)" />
<use xlink:href="#f2_2b" transform="matrix(12,0,0,12,586.2,691.9)" />
<use xlink:href="#f2_2a" transform="matrix(12,0,0,12,596.4,691.9)" />
<use xlink:href="#f2_21" transform="matrix(12,0,0,12,611.7,691.9)" />
<use xlink:href="#f2_2d" transform="matrix(12,0,0,12,621.9,691.9)" />
<use xlink:href="#f2_2h" transform="matrix(12,0,0,12,632.1,691.9)" />
<use xlink:href="#f2_1x" transform="matrix(12,0,0,12,642.3,691.9)" />
<use xlink:href="#f2_2g" transform="matrix(12,0,0,12,652.4,691.9)" />
<use xlink:href="#f2_25" transform="matrix(12,0,0,12,657.5,691.9)" />
<use xlink:href="#f2_2b" transform="matrix(12,0,0,12,661.6,691.9)" />
<use xlink:href="#f2_2a" transform="matrix(12,0,0,12,671.8,691.9)" />
<use xlink:href="#f2_22" transform="matrix(12,0,0,12,45.9,713)" />
<use xlink:href="#f2_2b" transform="matrix(12,0,0,12,51,713)" />
<use xlink:href="#f2_2e" transform="matrix(12,0,0,12,61.2,713)" />
<use xlink:href="#f2_20" transform="matrix(12,0,0,12,72.5,713)" />
<use xlink:href="#f2_21" transform="matrix(12,0,0,12,82.6,713)" />
<use xlink:href="#f2_2g" transform="matrix(12,0,0,12,92.8,713)" />
<use xlink:href="#f2_21" transform="matrix(12,0,0,12,97.9,713)" />
<use xlink:href="#f2_2e" transform="matrix(12,0,0,12,108.1,713)" />
<use xlink:href="#f2_29" transform="matrix(12,0,0,12,114.2,713)" />
<use xlink:href="#f2_25" transform="matrix(12,0,0,12,129.5,713)" />
<use xlink:href="#f2_2a" transform="matrix(12,0,0,12,133.5,713)" />
<use xlink:href="#f2_25" transform="matrix(12,0,0,12,143.7,713)" />
<use xlink:href="#f2_2a" transform="matrix(12,0,0,12,147.8,713)" />
<use xlink:href="#f2_23" transform="matrix(12,0,0,12,158,713)" />
<use xlink:href="#f2_2g" transform="matrix(12,0,0,12,173.3,713)" />
<use xlink:href="#f2_24" transform="matrix(12,0,0,12,178.4,713)" />
<use xlink:href="#f2_21" transform="matrix(12,0,0,12,188.6,713)" />
<use xlink:href="#f2_2g" transform="matrix(12,0,0,12,203.9,713)" />
<use xlink:href="#f2_25" transform="matrix(12,0,0,12,209,713)" />
<use xlink:href="#f2_29" transform="matrix(12,0,0,12,213.1,713)" />
<use xlink:href="#f2_21" transform="matrix(12,0,0,12,228.4,713)" />
<use xlink:href="#f2_2a" transform="matrix(12,0,0,12,243.7,713)" />
<use xlink:href="#f2_21" transform="matrix(12,0,0,12,253.8,713)" />
<use xlink:href="#f2_21" transform="matrix(12,0,0,12,264,713)" />
<use xlink:href="#f2_20" transform="matrix(12,0,0,12,274.2,713)" />
<use xlink:href="#f2_21" transform="matrix(12,0,0,12,284.4,713)" />
<use xlink:href="#f2_20" transform="matrix(12,0,0,12,294.6,713)" />
<use xlink:href="#f2_22" transform="matrix(12,0,0,12,309.9,713)" />
<use xlink:href="#f2_2b" transform="matrix(12,0,0,12,315,713)" />
<use xlink:href="#f2_2e" transform="matrix(12,0,0,12,325.2,713)" />
<use xlink:href="#f2_s" transform="matrix(12,0,0,12,336.5,713)" />
<use xlink:href="#f2_k" transform="matrix(12,0,0,12,346.7,713)" />
<use xlink:href="#f2_9" transform="matrix(12,0,0,12,356.8,713)" />
<use xlink:href="#f2_1z" transform="matrix(12,0,0,12,378.3,713)" />
<use xlink:href="#f2_2b" transform="matrix(12,0,0,12,387.4,713)" />
<use xlink:href="#f2_29" transform="matrix(12,0,0,12,397.6,713)" />
<use xlink:href="#f2_2c" transform="matrix(12,0,0,12,412.9,713)" />
<use xlink:href="#f2_28" transform="matrix(12,0,0,12,423.1,713)" />
<use xlink:href="#f2_21" transform="matrix(12,0,0,12,427.2,713)" />
<use xlink:href="#f2_2g" transform="matrix(12,0,0,12,437.4,713)" />
<use xlink:href="#f2_25" transform="matrix(12,0,0,12,442.5,713)" />
<use xlink:href="#f2_2b" transform="matrix(12,0,0,12,446.5,713)" />
<use xlink:href="#f2_2a" transform="matrix(12,0,0,12,456.7,713)" />
<use xlink:href="#f2_i" transform="matrix(12,0,0,12,466.9,713)" />
<use xlink:href="#f2_11" transform="matrix(12,0,0,12,45.9,734)" />
<use xlink:href="#f2_2a" transform="matrix(12,0,0,12,58.1,734)" />
<use xlink:href="#f2_2f" transform="matrix(12,0,0,12,68.3,734)" />
<use xlink:href="#f2_i" transform="matrix(12,0,0,12,77.5,734)" />
<use xlink:href="#f2_1b" transform="matrix(12,0,0,12,87.7,734)" />
<use xlink:href="#f2_x" transform="matrix(12,0,0,12,99.9,734)" />
<use xlink:href="#f2_k" transform="matrix(12,0,0,12,110.6,734)" />
<use xlink:href="#f2_i" transform="matrix(12,0,0,12,120.8,734)" />
<use xlink:href="#f2_q" transform="matrix(12,0,0,12,125.9,734)" />
<use xlink:href="#f2_t" transform="matrix(12,0,0,12,136.1,734)" />
<use xlink:href="#f2_n" transform="matrix(12,0,0,12,146.3,734)" />
</g>
<path d="M110.6,737.3h45.9V736H110.6v1.3Z" class="g0_29" />
<g fill="#000000" >
<use xlink:href="#f2_1k" transform="matrix(12,0,0,12,122.4,755.1)" />
<use xlink:href="#f2_l" transform="matrix(8,0,0,8,133.6,746.7)" />
<use xlink:href="#f2_j" transform="matrix(8,0,0,8,140.3,746.7)" />
<use xlink:href="#f2_m" transform="matrix(8,0,0,8,143.7,746.7)" />
<use xlink:href="#f2_x" transform="matrix(12,0,0,12,45.9,776.2)" />
<use xlink:href="#f2_k" transform="matrix(12,0,0,12,61.8,776.2)" />
<use xlink:href="#f2_i" transform="matrix(12,0,0,12,72,776.2)" />
<use xlink:href="#f2_q" transform="matrix(12,0,0,12,77,776.2)" />
<use xlink:href="#f2_t" transform="matrix(12,0,0,12,87.2,776.2)" />
<use xlink:href="#f2_n" transform="matrix(12,0,0,12,97.4,776.2)" />
<use xlink:href="#f2_j" transform="matrix(12,0,0,12,107.6,776.2)" />
<use xlink:href="#f2_q" transform="matrix(12,0,0,12,112.7,776.2)" />
<use xlink:href="#f2_t" transform="matrix(12,0,0,12,122.9,776.2)" />
<use xlink:href="#f2_i" transform="matrix(12,0,0,12,133.1,776.2)" />
<use xlink:href="#f2_n" transform="matrix(12,0,0,12,138.1,776.2)" />
<use xlink:href="#f2_29" transform="matrix(12,0,0,12,148.3,776.2)" />
<use xlink:href="#f2_25" transform="matrix(12,0,0,12,163.6,776.2)" />
<use xlink:href="#f2_2a" transform="matrix(12,0,0,12,167.7,776.2)" />
<use xlink:href="#f2_x" transform="matrix(12,0,0,12,45.9,797.3)" />
<use xlink:href="#f2_l" transform="matrix(12,0,0,12,61.8,797.3)" />
<use xlink:href="#f2_k" transform="matrix(12,0,0,12,72,797.3)" />
<use xlink:href="#f2_h" transform="matrix(8,0,0,8,82.1,788.9)" />
<use xlink:href="#f2_m" transform="matrix(8,0,0,8,86.2,788.9)" />
<use xlink:href="#f2_29" transform="matrix(12,0,0,12,93,797.3)" />
<use xlink:href="#f2_25" transform="matrix(12,0,0,12,108.2,797.3)" />
<use xlink:href="#f2_2a" transform="matrix(12,0,0,12,112.3,797.3)" />
<use xlink:href="#f2_h" transform="matrix(8,0,0,8,122.5,788.9)" />
<use xlink:href="#f2_l" transform="matrix(8,0,0,8,126.5,788.9)" />
<use xlink:href="#f2_1k" transform="matrix(12,0,0,12,45.9,839.5)" />
<use xlink:href="#f2_x" transform="matrix(12,0,0,12,57.1,839.5)" />
<use xlink:href="#f2_m" transform="matrix(12,0,0,12,73,839.5)" />
<use xlink:href="#f2_i" transform="matrix(12,0,0,12,83.2,839.5)" />
<use xlink:href="#f2_n" transform="matrix(12,0,0,12,88.3,839.5)" />
<use xlink:href="#f2_k" transform="matrix(12,0,0,12,98.5,839.5)" />
<use xlink:href="#f2_n" transform="matrix(12,0,0,12,108.7,839.5)" />
<use xlink:href="#f2_28" transform="matrix(12,0,0,12,118.9,839.5)" />
<use xlink:href="#f2_2b" transform="matrix(12,0,0,12,123,839.5)" />
<use xlink:href="#f2_23" transform="matrix(12,0,0,12,133.2,839.5)" />
<use xlink:href="#f2_1r" transform="matrix(12,0,0,12,148.5,839.5)" />
<use xlink:href="#f2_1i" transform="matrix(12,0,0,12,153.6,839.5)" />
</g>
<path d="M73,842.8h93.7v-1.4H73v1.4Z" class="g0_29" />
<g fill="#000000" >
<use xlink:href="#f2_k" transform="matrix(8,0,0,8,166.7,841.8)" />
</g>
<path d="M166.7,844h6.8v-1h-6.8v1Z" class="g0_29" />
<g fill="#000000" >
<use xlink:href="#f2_1t" transform="matrix(12,0,0,12,173.5,839.5)" />
</g>
<path d="M173.5,842.8h5.2v-1.4h-5.2v1.4Z" class="g0_29" />
<g fill="#000000" >
<use xlink:href="#f2_1b" transform="matrix(12,0,0,12,97,860.5)" />
<use xlink:href="#f2_1r" transform="matrix(12,0,0,12,144.8,860.5)" />
<use xlink:href="#f2_1i" transform="matrix(12,0,0,12,149.9,860.5)" />
<use xlink:href="#f2_1t" transform="matrix(12,0,0,12,163.1,860.5)" />
<use xlink:href="#f2_1k" transform="matrix(12,0,0,12,45.9,881.6)" />
<use xlink:href="#f2_x" transform="matrix(12,0,0,12,57.1,881.6)" />
<use xlink:href="#f2_m" transform="matrix(12,0,0,12,73,881.6)" />
<use xlink:href="#f2_i" transform="matrix(12,0,0,12,83.2,881.6)" />
<use xlink:href="#f2_n" transform="matrix(12,0,0,12,88.3,881.6)" />
<use xlink:href="#f2_k" transform="matrix(12,0,0,12,98.5,881.6)" />
<use xlink:href="#f2_n" transform="matrix(12,0,0,12,108.7,881.6)" />
<use xlink:href="#f2_j" transform="matrix(12,0,0,12,118.8,881.6)" />
<use xlink:href="#f2_l" transform="matrix(12,0,0,12,123.9,881.6)" />
<use xlink:href="#f2_k" transform="matrix(12,0,0,12,134.1,881.6)" />
<use xlink:href="#f2_h" transform="matrix(8,0,0,8,144.3,873.2)" />
<use xlink:href="#f2_m" transform="matrix(8,0,0,8,148.3,873.2)" />
<use xlink:href="#f2_28" transform="matrix(12,0,0,12,155.1,881.6)" />
<use xlink:href="#f2_2b" transform="matrix(12,0,0,12,159.2,881.6)" />
<use xlink:href="#f2_23" transform="matrix(12,0,0,12,169.4,881.6)" />
<use xlink:href="#f2_p" transform="matrix(12,0,0,12,179.5,881.6)" />
<use xlink:href="#f2_1k" transform="matrix(12,0,0,12,45.9,923.8)" />
<use xlink:href="#f2_x" transform="matrix(12,0,0,12,57.1,923.8)" />
<use xlink:href="#f2_l" transform="matrix(12,0,0,12,73,923.8)" />
<use xlink:href="#f2_q" transform="matrix(12,0,0,12,83.2,923.8)" />
<use xlink:href="#f2_k" transform="matrix(12,0,0,12,93.4,923.8)" />
<use xlink:href="#f2_i" transform="matrix(12,0,0,12,103.5,923.8)" />
<use xlink:href="#f2_t" transform="matrix(12,0,0,12,108.6,923.8)" />
<use xlink:href="#f2_29" transform="matrix(12,0,0,12,118.8,923.8)" />
<use xlink:href="#f2_25" transform="matrix(12,0,0,12,134.1,923.8)" />
<use xlink:href="#f2_2a" transform="matrix(12,0,0,12,138.2,923.8)" />
<use xlink:href="#f1_o" transform="matrix(12,0,0,12,45.9,966)" />
<use xlink:href="#f1_i" transform="matrix(12,0,0,12,56.1,966)" />
<use xlink:href="#f2_16" transform="matrix(12,0,0,12,66.4,966)" />
<use xlink:href="#f2_2b" transform="matrix(12,0,0,12,77.6,966)" />
<use xlink:href="#f2_28" transform="matrix(12,0,0,12,87.7,966)" />
<use xlink:href="#f2_28" transform="matrix(12,0,0,12,91.8,966)" />
<use xlink:href="#f2_2b" transform="matrix(12,0,0,12,95.9,966)" />
<use xlink:href="#f2_2j" transform="matrix(12,0,0,12,106,966)" />
<use xlink:href="#f2_25" transform="matrix(12,0,0,12,119.3,966)" />
<use xlink:href="#f2_2a" transform="matrix(12,0,0,12,123.3,966)" />
<use xlink:href="#f2_23" transform="matrix(12,0,0,12,133.5,966)" />
<use xlink:href="#f2_2e" transform="matrix(12,0,0,12,148.8,966)" />
<use xlink:href="#f2_21" transform="matrix(12,0,0,12,154.9,966)" />
<use xlink:href="#f2_1x" transform="matrix(12,0,0,12,165.1,966)" />
<use xlink:href="#f2_1z" transform="matrix(12,0,0,12,175.3,966)" />
<use xlink:href="#f2_2g" transform="matrix(12,0,0,12,184.5,966)" />
<use xlink:href="#f2_25" transform="matrix(12,0,0,12,189.5,966)" />
<use xlink:href="#f2_2b" transform="matrix(12,0,0,12,193.6,966)" />
<use xlink:href="#f2_2a" transform="matrix(12,0,0,12,203.8,966)" />
<use xlink:href="#f2_2g" transform="matrix(12,0,0,12,219.1,966)" />
<use xlink:href="#f2_1x" transform="matrix(12,0,0,12,224.2,966)" />
<use xlink:href="#f2_27" transform="matrix(12,0,0,12,234.4,966)" />
<use xlink:href="#f2_21" transform="matrix(12,0,0,12,243.5,966)" />
<use xlink:href="#f2_2f" transform="matrix(12,0,0,12,253.7,966)" />
<use xlink:href="#f2_2c" transform="matrix(12,0,0,12,268,966)" />
<use xlink:href="#f2_28" transform="matrix(12,0,0,12,278.2,966)" />
<use xlink:href="#f2_1x" transform="matrix(12,0,0,12,282.3,966)" />
<use xlink:href="#f2_1z" transform="matrix(12,0,0,12,292.5,966)" />
<use xlink:href="#f2_21" transform="matrix(12,0,0,12,301.6,966)" />
<use xlink:href="#f2_25" transform="matrix(12,0,0,12,316.9,966)" />
<use xlink:href="#f2_2a" transform="matrix(12,0,0,12,321,966)" />
<use xlink:href="#f2_2b" transform="matrix(12,0,0,12,336.3,966)" />
<use xlink:href="#f2_2a" transform="matrix(12,0,0,12,346.5,966)" />
<use xlink:href="#f2_21" transform="matrix(12,0,0,12,356.7,966)" />
<use xlink:href="#f2_2f" transform="matrix(12,0,0,12,372,966)" />
<use xlink:href="#f2_2g" transform="matrix(12,0,0,12,381.2,966)" />
<use xlink:href="#f2_21" transform="matrix(12,0,0,12,386.3,966)" />
<use xlink:href="#f2_2c" transform="matrix(12,0,0,12,396.5,966)" />
<use xlink:href="#f2_m" transform="matrix(12,0,0,12,91.8,987)" />
<use xlink:href="#f2_1e" transform="matrix(12,0,0,12,102.1,987)" />
<use xlink:href="#f2_1f" transform="matrix(12,0,0,12,115.3,987)" />
<use xlink:href="#f2_f" transform="matrix(12,0,0,12,134.7,987)" />
<use xlink:href="#f2_1f" transform="matrix(12,0,0,12,150.5,987)" />
<use xlink:href="#f2_m" transform="matrix(8,0,0,8,164.7,989.3)" />
<use xlink:href="#f3_8r" transform="matrix(12,0,0,12,171.5,987)" />
<use xlink:href="#f2_m" transform="matrix(12,0,0,12,195,987)" />
<use xlink:href="#f2_1e" transform="matrix(12,0,0,12,205.2,987)" />
<use xlink:href="#f2_1f" transform="matrix(12,0,0,12,218.3,987)" />
<use xlink:href="#f2_m" transform="matrix(8,0,0,8,232.6,989.3)" />
<use xlink:href="#f4_o" transform="matrix(8,0,0,8,726.6,1103.9)" />
</g>
<g fill="#0080FF" fill-opacity="0.5" >
<use xlink:href="#f0_1c" transform="matrix(40.1,0,0,40.1,192.2,1069.3)" />
<use xlink:href="#f0_21" transform="matrix(40.1,0,0,40.1,226.2,1069.3)" />
<use xlink:href="#f0_1x" transform="matrix(40.1,0,0,40.1,260.3,1069.3)" />
<use xlink:href="#f0_2e" transform="matrix(40.1,0,0,40.1,294.3,1069.3)" />
<use xlink:href="#f0_2a" transform="matrix(40.1,0,0,40.1,314.7,1069.3)" />
<use xlink:href="#f0_17" transform="matrix(40.1,0,0,40.1,348.7,1069.3)" />
<use xlink:href="#f0_2h" transform="matrix(40.1,0,0,40.1,396.3,1069.3)" />
<use xlink:href="#f0_25" transform="matrix(40.1,0,0,40.1,430.4,1069.3)" />
<use xlink:href="#f0_20" transform="matrix(40.1,0,0,40.1,444,1069.3)" />
<use xlink:href="#f0_21" transform="matrix(40.1,0,0,40.1,478,1069.3)" />
<use xlink:href="#f0_i" transform="matrix(40.1,0,0,40.1,512,1069.3)" />
<use xlink:href="#f0_25" transform="matrix(40.1,0,0,40.1,529,1069.3)" />
<use xlink:href="#f0_2a" transform="matrix(40.1,0,0,40.1,542.6,1069.3)" />
</g>
<defs>
<path d="M593,101c0,0,182,0,279,112c0,0,98,113,98,318c0,0,0,196,-98,308c0,0,-98,112,-277,112c0,0,-181,0,-279,-110c0,0,-99,-111,-99,-310c0,0,0,-198,100,-314c0,0,99,-116,276,-116Zm0,-115c0,0,-162,0,-279,65c0,0,-118,66,-180,190c0,0,-62,124,-62,290c0,0,0,252,138,394c0,0,138,142,385,142c0,0,160,0,278,-64c0,0,118,-64,180,-185c0,0,62,-122,62,-287c0,0,0,-165,-63,-289c0,0,-63,-124,-181,-190c0,0,-118,-66,-278,-66Z" 
id="f0_1f"
transform="scale(0.001,-0.001)" />

<path d="M106,0V635c0,0,0,141,-5,173H228c0,0,1,-4,2,-21c0,0,1,-16,2,-37c0,0,1,-22,2,-81h2c0,0,47,84,108,119c0,0,60,34,151,34c0,0,132,0,194,-66c0,0,61,-66,61,-218V0H615V512c0,0,0,80,-15,124c0,0,-16,44,-50,63c0,0,-35,20,-101,20c0,0,-97,0,-153,-67c0,0,-56,-66,-56,-184V0Z" 
id="f0_2a"
transform="scale(0.001,-0.001)" />

<path d="M103,0V1107H237V0Z" 
id="f0_28"
transform="scale(0.001,-0.001)" />

<path d="M102,0V808H236V0Zm0,979v128H236V979Z" 
id="f0_25"
transform="scale(0.001,-0.001)" />

<path d="M643,478c0,0,-11,128,-65,187c0,0,-54,59,-154,59c0,0,-98,0,-155,-66c0,0,-57,-65,-62,-180ZM431,-14c0,0,-179,0,-272,106c0,0,-94,107,-94,317c0,0,0,200,94,307c0,0,93,106,267,106c0,0,356,0,356,-429V375H206c0,0,0,-138,57,-213c0,0,58,-75,168,-75c0,0,87,0,140,35c0,0,53,35,71,88L760,177c0,0,-72,-191,-329,-191Z" 
id="f0_21"
transform="scale(0.001,-0.001)" />

<path d="M17,0L304,415L31,808H179L380,493L580,808H730L457,417L747,0H598L380,331L162,0Z" 
id="f0_2k"
transform="scale(0.001,-0.001)" />

<path d="M339,87c0,0,74,0,132,34c0,0,57,33,90,91c0,0,34,59,34,121v66L448,396c0,0,-95,-2,-144,-19c0,0,-49,-18,-75,-55c0,0,-26,-38,-26,-98c0,0,0,-65,35,-101c0,0,36,-36,101,-36ZM309,-14c0,0,-122,0,-183,64c0,0,-61,64,-61,176c0,0,0,125,82,192c0,0,83,67,266,72l182,3v44c0,0,0,98,-42,141c0,0,-42,43,-132,43c0,0,-90,0,-131,-31c0,0,-41,-31,-49,-98L101,604c0,0,34,218,323,218c0,0,153,0,229,-70c0,0,77,-69,77,-202V202c0,0,0,-59,16,-90c0,0,16,-30,60,-30c0,0,19,0,44,5V4C850,4,799,-7,746,-7c0,0,-75,0,-109,38c0,0,-33,40,-38,124h-4C595,155,543,62,475,24c0,0,-68,-38,-166,-38Z" 
id="f0_1x"
transform="scale(0.001,-0.001)" />

<path d="M106,0V635c0,0,0,141,-5,173H228c0,0,1,-4,2,-21c0,0,1,-16,2,-37c0,0,1,-22,2,-81h2c0,0,44,86,100,120c0,0,56,33,136,33c0,0,92,0,145,-36c0,0,54,-37,75,-117h2c0,0,42,82,101,117c0,0,59,36,143,36c0,0,123,0,178,-66c0,0,56,-67,56,-218V0H1039V512c0,0,0,117,-32,162c0,0,-32,45,-116,45c0,0,-88,0,-136,-66c0,0,-49,-65,-49,-185V0H573V512c0,0,0,117,-32,162c0,0,-32,45,-116,45c0,0,-86,0,-136,-66c0,0,-50,-66,-50,-185V0Z" 
id="f0_29"
transform="scale(0.001,-0.001)" />

<path d="M453,84c0,0,100,0,146,74c0,0,46,73,46,247c0,0,0,169,-46,241c0,0,-45,73,-145,73c0,0,-80,0,-125,-34c0,0,-45,-34,-68,-105c0,0,-24,-71,-24,-186c0,0,0,-159,51,-234c0,0,51,-76,165,-76ZM103,-316V643c0,0,0,124,-5,165H228c0,0,1,-3,3,-22c0,0,1,-18,3,-56c0,0,2,-38,2,-52h3c0,0,36,75,94,110c0,0,59,34,156,34c0,0,149,0,223,-100c0,0,74,-100,74,-314c0,0,0,-422,-297,-422c0,0,-187,0,-251,140h-4c0,0,3,-6,3,-126V-316Z" 
id="f0_2c"
transform="scale(0.001,-0.001)" />

<path d="M420,84c0,0,121,0,173,78c0,0,52,77,52,243c0,0,0,167,-50,243c0,0,-50,76,-167,76c0,0,-118,0,-170,-78c0,0,-53,-77,-53,-241c0,0,0,-160,52,-241c0,0,52,-80,163,-80Zm1,-98c0,0,-176,0,-267,107c0,0,-90,108,-90,312c0,0,0,417,362,417c0,0,185,0,272,-102c0,0,88,-101,88,-315c0,0,0,-212,-94,-316C692,89,599,-14,421,-14Z" 
id="f0_2b"
transform="scale(0.001,-0.001)" />

<path d="M278,-11c0,0,-162,0,-162,182V710H23v98h99l39,181h90V808H400V710H251V200c0,0,0,-58,19,-82c0,0,19,-23,66,-23c0,0,27,0,77,10V6c0,0,-66,-17,-135,-17Z" 
id="f0_2g"
transform="scale(0.001,-0.001)" />

<path d="M424,149c0,0,65,0,107,46c0,0,43,47,43,135c0,0,0,76,-43,123c0,0,-44,47,-110,47c0,0,-78,0,-115,-53c0,0,-38,-53,-38,-115c0,0,0,-87,44,-135c0,0,45,-48,112,-48Zm-6,519c0,0,60,0,96,35c0,0,36,36,36,99c0,0,0,59,-36,94c0,0,-36,36,-94,36c0,0,-61,0,-97,-36c0,0,-36,-36,-36,-95c0,0,0,-63,36,-98c0,0,36,-35,95,-35Zm9,-687c0,0,-149,0,-248,78C179,59,62,151,62,312c0,0,0,89,44,163c0,0,43,74,138,114c0,0,-81,35,-118,95c0,0,-37,60,-37,132c0,0,0,122,85,202c0,0,86,80,244,80c0,0,156,0,242,-80c0,0,86,-80,86,-202c0,0,0,-77,-39,-136c0,0,-40,-59,-111,-91c0,0,91,-36,138,-106c0,0,47,-70,47,-162c0,0,0,-151,-96,-246c0,0,-97,-94,-258,-94Z" 
id="f1_s"
transform="scale(0.001,-0.001)" />

<path d="M109,0V209H318V0Z" 
id="f1_i"
transform="scale(0.001,-0.001)" />

<path d="M496,129c0,0,108,0,170,20c0,0,61,20,98,57c0,0,51,51,80,138c0,0,29,87,29,211c0,0,0,171,-57,263c0,0,-56,92,-136,124c0,0,-59,22,-187,22H263V129ZM118,0V1093H495c0,0,127,0,195,-16c0,0,94,-21,160,-78c0,0,86,-73,129,-187c0,0,43,-113,43,-259c0,0,0,-125,-29,-221c0,0,-29,-96,-74,-159c0,0,-46,-63,-100,-100C819,73,765,37,688,19C688,19,612,0,513,0Z" 
id="f2_14"
transform="scale(0.001,-0.001)" />

<path d="M644,472c0,0,-9,100,-50,150c0,0,-65,77,-167,77c0,0,-93,0,-156,-62c0,0,-63,-61,-70,-165ZM433,-17c0,0,-174,0,-275,106C158,89,56,196,56,389c0,0,0,200,103,310c0,0,103,111,267,111c0,0,159,0,259,-108c0,0,101,-109,101,-304c0,0,0,-12,-1,-36H194c0,0,7,-131,74,-200c0,0,66,-69,166,-69c0,0,74,0,126,39c0,0,52,39,83,124L782,239C782,239,749,117,660,50c0,0,-89,-67,-227,-67Z" 
id="f2_21"
transform="scale(0.001,-0.001)" />

<path d="M133,0V687H14V792H133v84c0,0,0,80,14,119c0,0,19,52,68,84c0,0,49,33,138,33c0,0,56,0,125,-14L458,981c0,0,-42,8,-79,8c0,0,-62,0,-87,-27c0,0,-25,-26,-25,-97V792H421V687H267V0Z" 
id="f2_22"
transform="scale(0.001,-0.001)" />

<path d="M102,0V792H236V0Zm0,939v154H236V939Z" 
id="f2_25"
transform="scale(0.001,-0.001)" />

<path d="M101,0V792H221V679c0,0,87,131,252,131c0,0,72,0,132,-26c0,0,60,-26,90,-68c0,0,30,-41,42,-99c0,0,7,-37,7,-130V0H610V482c0,0,0,82,-16,122c0,0,-15,41,-55,65c0,0,-40,24,-94,24c0,0,-86,0,-148,-54c0,0,-62,-55,-62,-207V0Z" 
id="f2_2a"
transform="scale(0.001,-0.001)" />

<path d="M312,-10c0,0,-73,0,-114,22c0,0,-40,23,-56,61c0,0,-17,38,-17,159V687H26V792h99V988l134,81V792H394V687H259V224c0,0,0,-57,7,-74c0,0,7,-16,23,-26c0,0,16,-10,46,-10c0,0,23,0,59,6L414,1c0,0,-57,-11,-102,-11Z" 
id="f2_2g"
transform="scale(0.001,-0.001)" />

<path d="M101,0V1093H235V701c0,0,94,109,237,109c0,0,88,0,153,-35c0,0,65,-35,93,-96c0,0,28,-61,28,-177V0H612V502c0,0,0,101,-44,146c0,0,-43,46,-123,46c0,0,-60,0,-113,-31c0,0,-52,-31,-75,-84c0,0,-22,-53,-22,-146V0Z" 
id="f2_24"
transform="scale(0.001,-0.001)" />

<path d="M99,0V792H219V672c0,0,46,84,86,111c0,0,39,27,86,27c0,0,68,0,138,-43L482,642c0,0,-49,29,-98,29c0,0,-44,0,-79,-27c0,0,-35,-26,-50,-73c0,0,-22,-72,-22,-157V0Z" 
id="f2_2e"
transform="scale(0.001,-0.001)" />

<path d="M101,0V792H220V681c0,0,37,58,99,93c0,0,62,36,141,36c0,0,88,0,145,-37c0,0,56,-36,79,-102c0,0,94,139,245,139c0,0,118,0,182,-66c0,0,63,-65,63,-201V0H1040V499c0,0,0,80,-13,116c0,0,-13,35,-47,57c0,0,-35,21,-81,21c0,0,-83,0,-139,-55c0,0,-55,-56,-55,-178V0H571V514c0,0,0,90,-33,135c0,0,-33,44,-107,44c0,0,-57,0,-105,-30c0,0,-48,-29,-70,-87c0,0,-21,-57,-21,-165V0Z" 
id="f2_29"
transform="scale(0.001,-0.001)" />

<path d="M95,755V878c0,0,0,100,24,145c0,0,31,59,98,90l33,-53c0,0,-41,-17,-60,-51c0,0,-19,-34,-21,-99h70V755Z" 
id="f2_52"
transform="scale(0.001,-0.001)" />

<path d="M358,88c0,0,78,0,139,34c0,0,60,34,89,92c0,0,21,46,21,134l1,49c0,0,-73,-30,-221,-51c0,0,-83,-11,-117,-26c0,0,-35,-15,-54,-44c0,0,-18,-28,-18,-63c0,0,0,-54,40,-89c0,0,41,-36,120,-36ZM326,-17c0,0,-131,0,-201,63c0,0,-70,64,-70,163c0,0,0,58,26,106c0,0,27,48,70,77c0,0,43,29,97,44c0,0,39,11,119,20c0,0,163,20,240,47c0,0,1,27,1,35c0,0,0,81,-38,115c0,0,-52,45,-153,45c0,0,-95,0,-141,-33c0,0,-45,-33,-67,-116L78,566c0,0,18,84,59,136c0,0,41,52,119,80c0,0,78,28,180,28c0,0,102,0,165,-24c0,0,64,-24,94,-60c0,0,29,-36,41,-91c0,0,7,-35,7,-124V332c0,0,0,-187,9,-236c0,0,8,-50,33,-96H645c0,0,-20,42,-26,98C619,98,544,34,475,8c0,0,-70,-25,-149,-25Z" 
id="f2_1x"
transform="scale(0.001,-0.001)" />

<path d="M420,-17c0,0,-163,0,-262,106c0,0,-98,106,-98,304c0,0,0,128,42,224c0,0,43,96,129,145c0,0,87,48,189,48c0,0,129,0,211,-66c0,0,82,-65,106,-185L606,539c0,0,-19,80,-66,120c0,0,-48,40,-115,40c0,0,-101,0,-164,-72c0,0,-63,-73,-63,-230c0,0,0,-160,61,-232c0,0,61,-72,159,-72c0,0,79,0,132,48c0,0,53,49,67,149L749,273C749,273,728,137,639,59c0,0,-90,-76,-219,-76Z" 
id="f2_1z"
transform="scale(0.001,-0.001)" />

<path d="M422,93c0,0,100,0,167,76c0,0,66,76,66,231c0,0,0,147,-67,223c0,0,-66,75,-166,75c0,0,-100,0,-167,-75c0,0,-66,-75,-66,-227c0,0,0,-152,66,-228c0,0,67,-75,167,-75Zm0,-110c0,0,-166,0,-269,106C153,89,51,196,51,396c0,0,0,220,122,326c0,0,102,88,249,88c0,0,164,0,267,-107c0,0,104,-107,104,-296c0,0,0,-153,-46,-240C747,167,701,79,614,31c0,0,-88,-48,-192,-48Z" 
id="f2_2b"
transform="scale(0.001,-0.001)" />

<path d="M386,-17c0,0,-155,0,-236,64c0,0,-81,64,-103,190l133,20c0,0,11,-79,62,-122c0,0,51,-42,143,-42c0,0,93,0,138,37c0,0,44,38,44,89c0,0,0,45,-39,71c0,0,-28,18,-138,46c0,0,-147,37,-204,64c0,0,-58,27,-87,75c0,0,-30,48,-30,107c0,0,0,52,25,98c0,0,24,45,66,74c0,0,31,24,85,40c0,0,54,16,116,16c0,0,93,0,164,-27c0,0,70,-27,104,-73c0,0,33,-46,46,-122L544,570c0,0,-9,61,-52,95c0,0,-43,34,-121,34c0,0,-93,0,-132,-30c0,0,-40,-31,-40,-72c0,0,0,-26,17,-47c0,0,16,-21,51,-35c0,0,20,-8,119,-35c0,0,142,-38,199,-62c0,0,56,-24,88,-70c0,0,32,-47,32,-115c0,0,0,-67,-39,-126c0,0,-39,-60,-113,-92c0,0,-74,-32,-167,-32Z" 
id="f2_2f"
transform="scale(0.001,-0.001)" />

<path d="M114,747L81,800c0,0,40,16,60,52c0,0,20,35,22,97H93v156H237V982c0,0,0,-100,-23,-144c0,0,-32,-60,-100,-91Z" 
id="f2_53"
transform="scale(0.001,-0.001)" />

<path d="M433,93c0,0,90,0,154,75c0,0,63,76,63,235c0,0,0,151,-62,226c0,0,-62,75,-149,75c0,0,-85,0,-151,-80c0,0,-66,-80,-66,-233c0,0,0,-152,62,-225c0,0,62,-73,149,-73ZM101,-303V792H223V688c0,0,43,61,98,91c0,0,54,31,132,31c0,0,101,0,179,-53c0,0,77,-52,117,-147c0,0,39,-95,39,-208c0,0,0,-122,-44,-219C744,183,701,86,618,34c0,0,-84,-51,-175,-51c0,0,-67,0,-121,28c0,0,-53,28,-87,71V-303Z" 
id="f2_2c"
transform="scale(0.001,-0.001)" />

<path d="M139,0V153H291V0Z" 
id="f2_i"
transform="scale(0.001,-0.001)" />

<path d="M401,523c0,0,60,0,101,48c0,0,42,48,42,140c0,0,0,101,-47,157c0,0,-46,56,-107,56c0,0,-58,0,-97,-46c0,0,-38,-46,-38,-150c0,0,0,-106,42,-155c0,0,41,-50,104,-50ZM378,-19c0,0,-128,0,-207,68c0,0,-79,68,-102,204l204,23c0,0,7,-62,38,-92c0,0,32,-29,83,-29c0,0,65,0,110,59c0,0,46,60,58,247c0,0,-79,-91,-197,-91c0,0,-129,0,-223,99c0,0,-93,100,-93,259c0,0,0,166,99,268c0,0,98,102,251,102c0,0,166,0,273,-129c0,0,106,-128,106,-423c0,0,0,-300,-111,-433C667,113,556,-19,378,-19Z" 
id="f1_t"
transform="scale(0.001,-0.001)" />

<path d="M308,0L19,1093H167L333,377c0,0,27,-113,47,-224c0,0,42,175,49,202l209,738H812L968,540c0,0,59,-206,86,-387c0,0,21,103,55,238l170,702h146L1126,0H985L756,834c0,0,-29,104,-35,127c0,0,-18,-75,-32,-128L457,0Z" 
id="f2_1n"
transform="scale(0.001,-0.001)" />

<path d="M545,573c0,0,140,0,199,52c0,0,59,52,59,147c0,0,0,69,-35,118c0,0,-34,49,-91,64c0,0,-36,10,-135,10H263V573ZM118,0V1093H531c0,0,108,0,166,-10c0,0,80,-14,135,-51c0,0,54,-38,87,-106c0,0,34,-68,34,-149c0,0,0,-140,-89,-236c0,0,-89,-97,-321,-97H263V0Z" 
id="f2_1g"
transform="scale(0.001,-0.001)" />

<path d="M369,-17c0,0,-70,0,-131,26c0,0,-61,27,-91,68c0,0,-29,40,-41,99c0,0,-8,40,-8,125V792H232V353c0,0,0,-105,8,-142c0,0,13,-53,54,-83c0,0,41,-30,101,-30c0,0,61,0,114,31c0,0,53,31,75,84c0,0,22,53,22,155V792H740V0H621V116c0,0,-93,-133,-252,-133Z" 
id="f2_2h"
transform="scale(0.001,-0.001)" />

<path d="M406,93c0,0,88,0,149,72c0,0,62,72,62,219c0,0,0,162,-63,238c0,0,-63,76,-154,76c0,0,-90,0,-150,-73c0,0,-60,-73,-60,-230c0,0,0,-152,64,-227c0,0,64,-75,152,-75ZM393,-17c0,0,-95,0,-174,52c0,0,-80,52,-123,145c0,0,-44,94,-44,215c0,0,0,119,39,215c0,0,40,97,119,148c0,0,79,52,177,52c0,0,71,0,127,-31c0,0,56,-30,91,-79v393H739V0H615V100c0,0,-75,-117,-222,-117Z" 
id="f2_20"
transform="scale(0.001,-0.001)" />

<path d="M98,0V1093H232V0Z" 
id="f2_28"
transform="scale(0.001,-0.001)" />

<path d="M329,0V153H481V0Zm23,269c0,0,-1,27,-1,40c0,0,0,79,23,136c0,0,16,43,53,87c0,0,26,32,96,93c0,0,70,62,91,99c0,0,21,36,21,80c0,0,0,78,-62,138c0,0,-61,59,-149,59c0,0,-86,0,-143,-54c0,0,-58,-54,-76,-169L67,796c0,0,19,153,111,234c0,0,92,82,243,82c0,0,161,0,256,-88c0,0,95,-87,95,-211c0,0,0,-72,-33,-133c0,0,-34,-60,-131,-146c0,0,-66,-58,-86,-86c0,0,-20,-27,-30,-63c0,0,-9,-36,-11,-116Z" 
id="f2_z"
transform="scale(0.001,-0.001)" />

<path d="M121,0V1093H911V964H266V630H870V501H266V129H937V0Z" 
id="f2_15"
transform="scale(0.001,-0.001)" />

<path d="M11,0L300,412L32,792H200L323,607c0,0,34,-53,55,-88c0,0,33,47,60,86L571,792H734L467,419L752,0H587L424,245l-38,59L175,0Z" 
id="f2_2k"
transform="scale(0.001,-0.001)" />

<path d="M247,0L4,792H143L270,335L316,165c0,0,3,12,41,163L484,792H620L740,333L779,181l45,153L960,792h131L843,0H704L578,474L547,609L386,0Z" 
id="f2_2j"
transform="scale(0.001,-0.001)" />

<path d="M433,93c0,0,88,0,152,76c0,0,64,77,64,228c0,0,0,155,-61,228c0,0,-62,74,-149,74c0,0,-89,0,-153,-76c0,0,-64,-77,-64,-221c0,0,0,-142,39,-206c0,0,63,-103,172,-103ZM444,-17c0,0,-140,0,-220,117V0H100V1093H234V703c0,0,85,107,217,107c0,0,73,0,139,-30c0,0,65,-29,107,-83c0,0,42,-53,66,-128c0,0,24,-75,24,-161c0,0,0,-204,-101,-315C686,93,585,-17,444,-17Z" 
id="f2_1y"
transform="scale(0.001,-0.001)" />

<path d="M392,0V790C392,790,277,682,121,631V821c0,0,82,27,178,102c0,0,97,75,132,175H601V0Z" 
id="f1_l"
transform="scale(0.001,-0.001)" />

<path d="M419,155c0,0,39,0,68,25c0,0,30,24,47,87c0,0,21,80,21,272c0,0,0,193,-19,265c0,0,-19,72,-49,96c0,0,-29,24,-68,24c0,0,-38,0,-67,-24c0,0,-30,-24,-47,-87c0,0,-21,-81,-21,-274c0,0,0,-192,19,-264c0,0,19,-72,49,-96c0,0,29,-24,67,-24Zm0,-173c0,0,-159,0,-257,122c0,0,-97,123,-97,438c0,0,0,308,107,444c0,0,89,112,247,112c0,0,159,0,249,-113c0,0,106,-135,106,-446c0,0,0,-310,-107,-446C667,93,578,-18,419,-18Z" 
id="f1_k"
transform="scale(0.001,-0.001)" />

<path d="M320,0L20,792H161L331,318c0,0,28,-77,51,-160c0,0,18,63,50,151L608,792H746L447,0Z" 
id="f2_2i"
transform="scale(0.001,-0.001)" />

<path d="M48,329V463H461V329Z" 
id="f2_h"
transform="scale(0.001,-0.001)" />

<path d="M417,-18c0,0,-148,0,-246,85c0,0,-98,85,-113,223l203,25c0,0,10,-78,52,-119c0,0,43,-41,103,-41c0,0,65,0,109,50c0,0,44,49,44,132c0,0,0,79,-42,125c0,0,-43,46,-104,46c0,0,-40,0,-95,-15l23,171c0,0,1,0,2,0c15,0,87,2,127,37c0,0,45,39,45,104c0,0,0,55,-33,88c0,0,-33,33,-87,33c0,0,-54,0,-92,-37c0,0,-38,-38,-46,-110L73,812c0,0,20,99,61,159c0,0,41,59,114,93c0,0,72,34,163,34c0,0,154,0,247,-98c0,0,77,-81,77,-183c0,0,0,-144,-157,-229c0,0,94,-20,150,-91c0,0,56,-70,56,-169c0,0,0,-144,-105,-245C679,83,574,-18,417,-18Z" 
id="f1_n"
transform="scale(0.001,-0.001)" />

<path d="M94,0V792H287V684c0,0,104,127,247,127c0,0,75,0,131,-32c0,0,56,-31,92,-94c0,0,52,63,112,94c0,0,61,32,129,32c0,0,87,0,148,-36c0,0,60,-35,90,-104c0,0,21,-51,21,-164V0H1048V453c0,0,0,118,-21,152c0,0,-30,45,-90,45c0,0,-44,0,-83,-27c0,0,-38,-27,-56,-78c0,0,-17,-52,-17,-164V0H572V434c0,0,0,116,-11,150c0,0,-11,33,-35,50c0,0,-23,16,-64,16c0,0,-48,0,-87,-26c0,0,-38,-26,-55,-75c0,0,-17,-50,-17,-164V0Z" 
id="f1_29"
transform="scale(0.001,-0.001)" />

<path d="M380,130c0,0,57,0,108,37c0,0,38,29,50,70c0,0,9,27,9,102v42c0,0,-41,-13,-128,-32c0,0,-87,-19,-114,-36c0,0,-41,-30,-41,-74c0,0,0,-45,33,-77c0,0,33,-32,83,-32ZM318,-17c0,0,-122,0,-193,66c0,0,-70,66,-70,168c0,0,0,67,32,120c0,0,32,53,90,81c0,0,57,28,166,49c0,0,147,27,204,51v21c0,0,0,60,-30,86c0,0,-30,25,-112,25c0,0,-56,0,-87,-22c0,0,-32,-22,-51,-77L76,586c0,0,32,114,111,169c0,0,78,56,232,56c0,0,141,0,209,-34c0,0,69,-33,97,-84c0,0,28,-51,28,-188L750,260c0,0,0,-104,10,-154c0,0,10,-49,38,-106H591c0,0,-9,21,-21,62c0,0,-5,19,-7,25C563,87,509,35,448,8c0,0,-61,-25,-130,-25Z" 
id="f1_1x"
transform="scale(0.001,-0.001)" />

<path d="M101,0V792H295V679c0,0,50,80,90,106c0,0,40,26,91,26c0,0,72,0,138,-40L549,589c0,0,-53,34,-99,34c0,0,-44,0,-74,-24c0,0,-31,-25,-48,-88c0,0,-18,-64,-18,-266V0Z" 
id="f1_2e"
transform="scale(0.001,-0.001)" />

<path d="M103,0V1093H312V513L557,792H815L545,503L835,0H609L409,356L312,254V0Z" 
id="f1_27"
transform="scale(0.001,-0.001)" />

<path d="M415,-17c0,0,-161,0,-255,65c0,0,-95,65,-124,178l210,32c0,0,14,-61,55,-92c0,0,41,-32,114,-32c0,0,82,0,123,30c0,0,27,21,27,56c0,0,0,24,-15,39c0,0,-15,15,-70,28c0,0,-253,56,-321,102c0,0,-93,64,-93,178c0,0,0,103,81,173c0,0,81,71,252,71c0,0,162,0,241,-54c0,0,79,-53,109,-157L551,564c0,0,-12,47,-48,71c0,0,-35,25,-101,25c0,0,-82,0,-118,-23c0,0,-24,-17,-24,-43c0,0,0,-22,21,-38c0,0,28,-21,195,-59c0,0,168,-38,234,-93c0,0,65,-56,65,-156c0,0,0,-109,-91,-187c0,0,-90,-78,-269,-78Z" 
id="f1_2f"
transform="scale(0.001,-0.001)" />

<path d="M454,148c0,0,72,0,127,65c0,0,54,65,54,193c0,0,0,122,-50,181c0,0,-49,59,-124,59c0,0,-76,0,-127,-60c0,0,-51,-61,-51,-192c0,0,0,-131,49,-188c0,0,49,-58,122,-58ZM628,-300V97C628,97,587,44,526,13c0,0,-62,-30,-133,-30c0,0,-135,0,-222,101C171,84,67,202,67,405c0,0,0,191,97,299c0,0,97,107,240,107c0,0,79,0,137,-34c0,0,58,-34,103,-102V792H837V-300Z" 
id="f1_2d"
transform="scale(0.001,-0.001)" />

<path d="M369,-17c0,0,-80,0,-143,34c0,0,-64,35,-92,99c0,0,-28,63,-28,175V792H315V429c0,0,0,-167,11,-205c0,0,12,-37,43,-59c0,0,30,-22,77,-22c0,0,54,0,97,29c0,0,42,30,58,73c0,0,15,44,15,213V792H826V0H631V119C631,119,588,55,517,19c0,0,-70,-36,-148,-36Z" 
id="f1_2h"
transform="scale(0.001,-0.001)" />

<path d="M580,464c0,0,-2,91,-47,139c0,0,-45,47,-108,47c0,0,-69,0,-113,-50c0,0,-45,-50,-44,-136ZM433,-17c0,0,-207,0,-306,134c0,0,-78,109,-78,274c0,0,0,196,103,308c0,0,103,112,260,112c0,0,176,0,278,-117c0,0,103,-117,98,-358H264c0,0,2,-93,51,-145c0,0,48,-52,120,-52c0,0,49,0,83,27c0,0,33,27,50,86L777,217C777,217,737,102,650,42c0,0,-87,-59,-217,-59Z" 
id="f1_21"
transform="scale(0.001,-0.001)" />

<path d="M324,-17c0,0,-57,0,-102,18c0,0,-45,19,-67,50c0,0,-21,30,-29,81c0,0,-7,37,-7,148V625H23V792h96V949l210,124V792H471V625H329V306c0,0,0,-97,4,-113c0,0,4,-16,18,-26c0,0,15,-11,36,-11c0,0,29,0,84,21L489,14c0,0,-73,-31,-165,-31Z" 
id="f1_2g"
transform="scale(0.001,-0.001)" />

<path d="M110,0V792H319V0Zm0,900v193H319V900Z" 
id="f1_25"
transform="scale(0.001,-0.001)" />

<path d="M470,154c0,0,82,0,137,62c0,0,55,63,55,182c0,0,0,116,-55,179c0,0,-55,62,-137,62c0,0,-82,0,-138,-62c0,0,-55,-63,-55,-180c0,0,0,-118,55,-181c0,0,56,-62,138,-62Zm1,-171c0,0,-109,0,-208,49c0,0,-99,49,-150,144c0,0,-51,95,-51,232c0,0,0,104,51,202c0,0,51,98,146,149c0,0,94,52,210,52c0,0,180,0,295,-117c0,0,114,-117,114,-295c0,0,0,-180,-115,-298C763,101,647,-17,471,-17Z" 
id="f1_2b"
transform="scale(0.001,-0.001)" />

<path d="M108,0V792H302V676c0,0,104,135,262,135c0,0,69,0,127,-25c0,0,57,-25,87,-64c0,0,29,-39,41,-88c0,0,12,-50,12,-141V0H621V405c0,0,0,128,-13,166c0,0,-14,37,-44,58c0,0,-30,21,-73,21c0,0,-55,0,-98,-30c0,0,-44,-29,-60,-79c0,0,-16,-49,-16,-182V0Z" 
id="f1_2a"
transform="scale(0.001,-0.001)" />

<path d="M590,165c0,0,48,0,90,16c0,0,-67,44,-136,68l62,126c0,0,108,-37,208,-111c0,0,42,50,64,121c0,0,21,70,21,162c0,0,0,190,-84,283c0,0,-83,94,-218,94c0,0,-135,0,-219,-94c0,0,-84,-94,-84,-283c0,0,0,-192,84,-287c0,0,84,-95,212,-95Zm497,-273c0,0,-50,14,-98,41c0,0,-11,5,-147,95c0,0,-107,-46,-238,-46c0,0,-252,0,-395,148C209,130,66,278,66,547c0,0,0,268,144,417c0,0,143,149,388,149c0,0,244,0,386,-149c0,0,143,-149,143,-417c0,0,0,-142,-40,-249c0,0,-30,-83,-96,-159c0,0,81,-59,177,-93l-81,-154Z" 
id="f1_1h"
transform="scale(0.001,-0.001)" />

<path d="M396,0V964H35v129H902V964H541V0Z" 
id="f2_1k"
transform="scale(0.001,-0.001)" />

<path d="M435,92c0,0,86,0,147,69c0,0,60,68,60,186c0,0,0,114,-60,179c0,0,-60,66,-152,66c0,0,-91,0,-154,-66c0,0,-64,-65,-64,-171c0,0,0,-70,30,-133c0,0,29,-64,82,-97c0,0,52,-33,111,-33Zm3,-110c0,0,-168,0,-274,123C164,105,58,228,58,512c0,0,0,317,117,461c0,0,102,125,275,125c0,0,129,0,212,-72c0,0,82,-72,99,-200L627,815c0,0,-18,79,-51,115c0,0,-54,58,-134,58c0,0,-64,0,-113,-36c0,0,-63,-46,-99,-135c0,0,-37,-89,-38,-253c0,0,48,74,118,110c0,0,70,36,147,36c0,0,135,0,229,-99c0,0,94,-99,94,-256c0,0,0,-103,-44,-191C736,164,691,75,614,28c0,0,-78,-46,-176,-46Z" 
id="f2_q"
transform="scale(0.001,-0.001)" />

<path d="M420,92c0,0,92,0,155,89c0,0,64,89,64,358c0,0,0,270,-63,359c0,0,-63,89,-158,89c0,0,-92,0,-147,-79c0,0,-70,-100,-70,-369c0,0,0,-269,63,-358c0,0,63,-89,156,-89Zm0,-110c0,0,-158,0,-248,112C172,94,64,231,64,539c0,0,0,194,39,313c0,0,40,118,119,182c0,0,79,64,198,64c0,0,88,0,155,-35c0,0,66,-36,109,-103c0,0,43,-66,68,-162c0,0,24,-96,24,-259c0,0,0,-192,-39,-311C737,228,697,110,619,46c0,0,-79,-64,-199,-64Z" 
id="f2_k"
transform="scale(0.001,-0.001)" />

<path d="M0,-18L317,1113H425L108,-18Z" 
id="f2_j"
transform="scale(0.001,-0.001)" />

<path d="M123,0V1093H268V644H835v449H980V0H835V515H268V0Z" 
id="f2_18"
transform="scale(0.001,-0.001)" />

<path d="M101,0V1093H235V470L554,792H728L425,498L758,0H592L329,405L235,314V0Z" 
id="f2_27"
transform="scale(0.001,-0.001)" />

<path d="M435,0V856c0,0,-48,-47,-127,-93c0,0,-79,-46,-142,-69V824c0,0,113,52,197,128c0,0,85,75,120,146h86V0Z" 
id="f2_l"
transform="scale(0.001,-0.001)" />

<path d="M692,433L540,838L392,433ZM0,0L425,1093H660L1098,0H858L763,248H325L234,0Z" 
id="f1_11"
transform="scale(0.001,-0.001)" />

<path d="M150,0V209H359V0Zm0,583V792H359V583Z" 
id="f1_u"
transform="scale(0.001,-0.001)" />

<path d="M49,291V501H460V291Z" 
id="f1_h"
transform="scale(0.001,-0.001)" />

<path d="M85,311V436H807V311Zm0,332V769H807V643Z" 
id="f2_x"
transform="scale(0.001,-0.001)" />

<path d="M46,0c0,0,-2,48,16,93c0,0,27,74,88,146c0,0,61,71,176,165c0,0,178,146,241,232c0,0,63,85,63,161c0,0,0,80,-57,135c0,0,-58,55,-149,55c0,0,-98,0,-156,-59c0,0,-58,-58,-59,-160L71,782c0,0,15,154,107,235c0,0,93,81,249,81c0,0,157,0,249,-87c0,0,92,-88,92,-217c0,0,0,-65,-27,-129c0,0,-27,-63,-89,-133c0,0,-62,-70,-207,-193C445,339,324,238,290,202c0,0,-35,-36,-57,-73H770V0Z" 
id="f2_m"
transform="scale(0.001,-0.001)" />

<path d="M412,-18c0,0,-144,0,-239,85c0,0,-95,86,-108,222l133,18c0,0,24,-114,79,-164c0,0,55,-50,135,-50c0,0,96,0,161,65c0,0,65,66,65,163c0,0,0,92,-61,152c0,0,-60,60,-153,60c0,0,-38,0,-95,-15l15,119c0,0,13,-2,21,-2c0,0,86,0,155,45c0,0,69,44,69,137c0,0,0,74,-50,122c0,0,-50,49,-129,49c0,0,-79,0,-131,-50c0,0,-52,-49,-67,-147L78,815c0,0,25,135,112,209c0,0,87,74,217,74c0,0,89,0,164,-38c0,0,76,-39,116,-105c0,0,40,-66,40,-141c0,0,0,-70,-39,-129c0,0,-38,-58,-112,-92c0,0,97,-22,151,-93c0,0,53,-70,53,-176c0,0,0,-143,-104,-243c0,0,-105,-99,-264,-99Z" 
id="f2_n"
transform="scale(0.001,-0.001)" />

<path d="M404,111c0,0,93,0,155,72c0,0,63,71,63,223c0,0,0,145,-65,218c0,0,-64,74,-155,74c0,0,-89,0,-152,-72c0,0,-62,-73,-62,-216c0,0,0,-156,61,-227c0,0,62,-72,155,-72ZM390,-321c0,0,-142,0,-230,64c0,0,-87,64,-84,193L207,-84c0,0,8,-60,46,-88c0,0,49,-37,136,-37c0,0,93,0,144,37c0,0,50,37,68,104c0,0,11,41,10,172C611,104,523,0,392,0C392,0,229,0,139,118c0,0,-89,118,-89,282c0,0,0,114,41,209c0,0,41,96,119,148c0,0,77,53,183,53c0,0,140,0,231,-114v96H748V107c0,0,0,-184,-38,-261c0,0,-38,-77,-119,-122c0,0,-82,-45,-201,-45Z" 
id="f2_23"
transform="scale(0.001,-0.001)" />

<path d="M104,-303V1093H400V983H238V-193H400V-303Z" 
id="f2_1r"
transform="scale(0.001,-0.001)" />

<path d="M576,610c0,0,99,0,155,21c0,0,56,20,85,65c0,0,29,45,29,98c0,0,0,78,-56,128c0,0,-56,50,-178,50H265V610ZM120,0V1093H605c0,0,147,0,223,-29c0,0,76,-30,121,-104c0,0,46,-75,46,-165c0,0,0,-117,-76,-197c0,0,-75,-80,-232,-101c0,0,57,-28,87,-55c0,0,63,-58,120,-145L1084,0H902L757,227c0,0,-63,98,-104,151c0,0,-41,52,-73,73c0,0,-33,21,-67,29c0,0,-24,5,-80,5H265V0Z" 
id="f2_1i"
transform="scale(0.001,-0.001)" />

<path d="M29,-303v110H192V983H29v110H326V-303Z" 
id="f2_1t"
transform="scale(0.001,-0.001)" />

<path d="M111,0V1093H256V552l543,541H995L537,650L1016,0H825L436,552L256,378V0Z" 
id="f2_1b"
transform="scale(0.001,-0.001)" />

<path d="M423,92c0,0,97,0,159,62c0,0,62,62,62,157c0,0,0,97,-64,160c0,0,-64,64,-161,64c0,0,-96,0,-158,-63c0,0,-62,-62,-62,-156c0,0,0,-58,27,-111c0,0,27,-54,81,-84c0,0,54,-29,116,-29Zm0,552c0,0,78,0,127,49c0,0,49,49,49,120c0,0,0,74,-50,124c0,0,-51,51,-128,51c0,0,-77,0,-127,-50c0,0,-51,-49,-51,-118c0,0,0,-77,50,-126c0,0,50,-50,130,-50ZM422,-18c0,0,-162,0,-261,95c0,0,-99,96,-99,239c0,0,0,107,54,179c0,0,54,72,154,98c0,0,-84,31,-124,87c0,0,-40,57,-40,136c0,0,0,119,85,201c0,0,86,81,229,81c0,0,143,0,230,-83c0,0,87,-83,87,-203c0,0,0,-76,-40,-132c0,0,-39,-56,-121,-87c0,0,101,-33,154,-106c0,0,52,-73,52,-174c0,0,0,-141,-99,-236c0,0,-99,-95,-261,-95Z" 
id="f2_s"
transform="scale(0.001,-0.001)" />

<path d="M7,0L429,567L57,1093H230L429,814c0,0,62,-87,88,-134c0,0,36,58,85,123l219,290H979L599,574L1009,0H830L554,390c0,0,-23,33,-45,67c0,0,-35,-55,-51,-78L181,0Z" 
id="f2_1o"
transform="scale(0.001,-0.001)" />

<path d="M38,0c0,0,12,110,72,209c0,0,59,99,235,262c0,0,142,132,174,179c0,0,43,65,43,129c0,0,0,70,-37,107c0,0,-38,38,-104,38c0,0,-66,0,-104,-40c0,0,-39,-39,-45,-131L63,774c0,0,18,173,117,249c0,0,98,75,246,75c0,0,162,0,254,-87c0,0,92,-88,92,-217c0,0,0,-74,-26,-141c0,0,-26,-67,-84,-140c0,0,-38,-48,-137,-139c0,0,-100,-91,-126,-121c0,0,-26,-30,-43,-58H772V0Z" 
id="f1_m"
transform="scale(0.001,-0.001)" />

<path d="M420,489c0,0,93,0,153,65c0,0,60,65,60,181c0,0,0,116,-62,184c0,0,-61,68,-148,68c0,0,-90,0,-156,-74c0,0,-66,-73,-66,-189c0,0,0,-105,63,-170c0,0,63,-65,156,-65ZM391,-18c0,0,-128,0,-209,71c0,0,-82,71,-98,200l129,12c0,0,17,-91,63,-132c0,0,46,-41,118,-41c0,0,62,0,109,28c0,0,47,29,76,76c0,0,30,47,50,128c0,0,20,80,20,164c0,0,0,9,-1,27c0,0,-40,-65,-110,-105c0,0,-69,-39,-151,-39c0,0,-135,0,-229,98c0,0,-94,99,-94,260c0,0,0,166,98,268c0,0,98,101,245,101c0,0,107,0,195,-57c0,0,89,-58,134,-164c0,0,46,-106,46,-308c0,0,0,-209,-45,-334C737,235,691,111,602,46c0,0,-90,-64,-211,-64Z" 
id="f2_t"
transform="scale(0.001,-0.001)" />

<path d="M590,-18c0,0,-177,0,-287,71c0,0,-111,72,-169,209c0,0,-58,137,-58,293c0,0,0,171,66,298c0,0,65,128,185,194c0,0,121,66,265,66c0,0,164,0,276,-84c0,0,112,-84,156,-235L881,760c0,0,-38,120,-110,174c0,0,-72,55,-182,55c0,0,-126,0,-210,-61c0,0,-85,-60,-119,-162c0,0,-34,-102,-34,-210c0,0,0,-139,40,-243c0,0,41,-104,127,-156c0,0,85,-51,185,-51c0,0,122,0,206,70c0,0,84,70,114,208l145,-37c0,0,-46,-178,-164,-272c0,0,-118,-93,-289,-93Z" 
id="f2_13"
transform="scale(0.001,-0.001)" />

<path d="M182,-321c0,0,-39,0,-87,17L80,-178c0,0,44,-12,77,-12c0,0,45,0,72,15c0,0,26,15,44,42c0,0,12,20,41,100c0,0,3,11,12,33L24,792H169L334,334c0,0,32,-87,58,-183c0,0,23,91,55,179L616,792H750L450,-13c0,0,-49,-130,-75,-179c0,0,-36,-67,-83,-98c0,0,-46,-31,-110,-31Z" 
id="f2_2l"
transform="scale(0.001,-0.001)" />

<path d="M111,0V1093H256V129H795V0Z" 
id="f2_1c"
transform="scale(0.001,-0.001)" />

<path d="M494,385V878L152,385ZM494,0V262H20V385l498,708H628V385H775V262H628V0Z" 
id="f2_o"
transform="scale(0.001,-0.001)" />

<path d="M415,-18c0,0,-149,0,-244,83c0,0,-94,84,-107,222l140,11c0,0,16,-103,73,-154c0,0,56,-52,137,-52c0,0,98,0,165,73c0,0,66,73,66,194c0,0,0,115,-64,182c0,0,-64,66,-169,66c0,0,-65,0,-117,-29c0,0,-52,-30,-82,-77L87,517l106,562H736V951H300L241,657c0,0,99,69,207,69c0,0,143,0,242,-100c0,0,98,-99,98,-255c0,0,0,-149,-86,-257C702,114,597,-18,415,-18Z" 
id="f2_p"
transform="scale(0.001,-0.001)" />

<path d="M338,-18c0,0,-144,0,-220,82c0,0,-77,83,-74,246l131,18c0,0,5,-125,47,-171c0,0,42,-46,116,-46c0,0,54,0,94,24c0,0,39,25,54,68c0,0,15,43,15,137v753H646V348c0,0,0,-137,-34,-212C612,136,579,60,507,21c0,0,-72,-39,-169,-39Z" 
id="f2_1a"
transform="scale(0.001,-0.001)" />

<path d="M684,450L570,752c0,0,-52,138,-78,227c0,0,-21,-105,-59,-209L313,450ZM-1,0L417,1093H574L1021,0H857L729,331H271L152,0Z" 
id="f2_11"
transform="scale(0.001,-0.001)" />

<path d="M1029,53c0,0,51,0,84,43c0,0,33,43,33,158c0,0,0,105,-33,148c0,0,-34,43,-84,43c0,0,-50,0,-83,-43c0,0,-33,-43,-33,-159c0,0,0,-104,33,-147c0,0,34,-43,83,-43Zm-3,-92c0,0,-99,0,-165,73c0,0,-66,74,-66,223c0,0,0,117,59,199c0,0,59,82,172,82c0,0,103,0,170,-74c0,0,68,-73,68,-216c0,0,0,-138,-69,-213c0,0,-68,-74,-169,-74ZM323,627c0,0,51,0,84,43c0,0,33,43,33,158c0,0,0,105,-34,148c0,0,-33,43,-83,43c0,0,-50,0,-83,-43c0,0,-34,-43,-34,-159c0,0,0,-105,34,-147c0,0,33,-43,83,-43Zm-2,-93c0,0,-100,0,-166,74c0,0,-66,74,-66,223c0,0,0,117,59,199c0,0,59,82,171,82c0,0,103,0,171,-74c0,0,67,-73,67,-216c0,0,0,-138,-68,-213c0,0,-68,-75,-168,-75Zm3,-573L921,1112h110L435,-39Z" 
id="f2_9"
transform="scale(0.001,-0.001)" />

<path d="M535,-18c0,0,-149,0,-249,43c0,0,-100,43,-158,130c0,0,-57,87,-60,197l137,12c0,0,10,-83,45,-135c0,0,36,-53,110,-86c0,0,75,-32,168,-32c0,0,83,0,146,24c0,0,63,25,94,68c0,0,31,43,31,94c0,0,0,51,-30,90c0,0,-30,38,-98,64c0,0,-44,17,-195,54c0,0,-151,36,-211,68c0,0,-79,41,-117,102c0,0,-38,61,-38,136c0,0,0,83,47,155c0,0,47,72,137,109c0,0,90,38,200,38c0,0,122,0,215,-39c0,0,93,-40,143,-116c0,0,50,-76,54,-172L767,775c0,0,-11,104,-76,158c0,0,-64,53,-190,53c0,0,-132,0,-192,-49c0,0,-60,-48,-60,-116c0,0,0,-59,43,-97c0,0,42,-38,218,-78c0,0,176,-40,242,-70c0,0,96,-44,141,-111c0,0,46,-68,46,-156c0,0,0,-87,-50,-165C889,144,839,67,745,24c0,0,-93,-42,-210,-42Z" 
id="f2_1j"
transform="scale(0.001,-0.001)" />

<path d="M409,93c0,0,86,0,148,73c0,0,62,72,62,221c0,0,0,158,-65,237c0,0,-65,80,-154,80c0,0,-87,0,-148,-74c0,0,-61,-74,-61,-232c0,0,0,-152,64,-229c0,0,65,-76,154,-76ZM606,-303V85c0,0,-32,-44,-88,-73c0,0,-56,-29,-120,-29c0,0,-141,0,-243,112C155,95,53,207,53,403c0,0,0,120,42,214c0,0,41,95,120,144c0,0,79,49,173,49c0,0,147,0,231,-124V792H740V-303Z" 
id="f2_2d"
transform="scale(0.001,-0.001)" />

<path d="M475,404V776L225,404ZM475,0V220H28V403l474,695H679V404H814V220H679V0Z" 
id="f1_o"
transform="scale(0.001,-0.001)" />

<path d="M125,0V1093H863V964H270V626H783V497H270V0Z" 
id="f2_16"
transform="scale(0.001,-0.001)" />

<path d="M116,0V1093H265L839,235v858H978V0H830L255,858V0Z" 
id="f2_1e"
transform="scale(0.001,-0.001)" />

<path d="M596,106c0,0,164,0,269,114c0,0,105,115,105,326c0,0,0,134,-45,233c0,0,-45,100,-132,155c0,0,-86,55,-194,55c0,0,-154,0,-264,-106C335,883,224,778,224,531c0,0,0,-198,106,-312c0,0,106,-113,266,-113Zm1,-124c0,0,-154,0,-276,74c0,0,-121,75,-184,204c0,0,-63,129,-63,273c0,0,0,272,146,426c0,0,147,154,378,154c0,0,151,0,273,-73c0,0,121,-72,185,-201c0,0,64,-130,64,-294c0,0,0,-166,-67,-297c0,0,-67,-132,-190,-199c0,0,-123,-67,-266,-67Z" 
id="f2_1f"
transform="scale(0.001,-0.001)" />

<path d="M382,177V477H85V602H382V900H509V602H807V477H509V177Z" 
id="f2_f"
transform="scale(0.001,-0.001)" />

<path d="M1102,117c0,0,70,150,147,231H59v75H1249c0,0,-57,72,-79,107c0,0,-23,35,-67,123h57c0,0,99,-108,172,-164c0,0,72,-56,136,-84V371c0,0,-74,-35,-143,-91c0,0,-70,-55,-166,-163Z" 
id="f3_8r"
transform="scale(0.001,-0.001)" />

<path d="M494,385V878L152,385ZM494,0V262H20V385l498,708H628V385H775V262H628V0Z" 
id="f4_o"
transform="scale(0.001,-0.001)" />

<path d="M125,0V1051H268V115H799V0Z" 
id="f0_1c"
transform="scale(0.001,-0.001)" />

<path d="M106,0V620c0,0,0,85,-5,188H228c0,0,6,-138,6,-165h3c0,0,32,103,74,141c0,0,42,38,118,38c0,0,27,0,54,-7V692c0,0,-26,7,-71,7c0,0,-84,0,-128,-72c0,0,-44,-72,-44,-206V0Z" 
id="f0_2e"
transform="scale(0.001,-0.001)" />

<path d="M606,-14c0,0,-164,0,-284,65c0,0,-119,66,-182,189c0,0,-63,123,-63,291c0,0,0,255,137,396c0,0,137,140,386,140c0,0,174,0,283,-59c0,0,109,-59,168,-189L915,779c0,0,-44,90,-123,131c0,0,-79,41,-196,41c0,0,-182,0,-278,-110c0,0,-96,-110,-96,-310c0,0,0,-200,102,-315c0,0,102,-115,282,-115c0,0,103,0,193,31c0,0,89,31,144,85V407H629V526h445V164c0,0,-83,-85,-205,-132c0,0,-121,-46,-263,-46Z" 
id="f0_17"
transform="scale(0.001,-0.001)" />

<path d="M355,-14c0,0,-133,0,-194,65c0,0,-62,66,-62,219V808H234V296c0,0,0,-80,16,-124c0,0,16,-44,50,-64c0,0,34,-19,101,-19c0,0,97,0,153,66c0,0,55,67,55,185V808H744V172c0,0,0,-141,4,-172H621c0,0,0,4,-1,20c0,0,-1,17,-2,38c0,0,-1,21,-3,80h-2C613,138,567,55,506,20c0,0,-61,-34,-151,-34Z" 
id="f0_2h"
transform="scale(0.001,-0.001)" />

<path d="M395,89c0,0,115,0,166,79c0,0,51,79,51,246c0,0,0,160,-51,235c0,0,-51,75,-164,75c0,0,-102,0,-147,-75c0,0,-45,-75,-45,-244c0,0,0,-170,45,-243c0,0,45,-73,145,-73ZM361,-14c0,0,-153,0,-225,102c0,0,-72,103,-72,312c0,0,0,422,297,422c0,0,92,0,153,-33c0,0,61,-34,98,-107h2l-2,90v335H747V166c0,0,0,-126,4,-166H623c0,0,-2,12,-5,55c0,0,-3,44,-3,75h-3c0,0,-37,-78,-98,-111c0,0,-62,-33,-153,-33Z" 
id="f0_20"
transform="scale(0.001,-0.001)" />

<path d="M140,0V163H285V0Z" 
id="f0_i"
transform="scale(0.001,-0.001)" />


</defs>
</svg>