<?xml version="1.0" encoding="UTF-8" standalone="no"?>
<!DOCTYPE svg PUBLIC "-//W3C//DTD SVG 1.1//EN"
"http://www.w3.org/Graphics/SVG/1.1/DTD/svg11.dtd">
<svg viewBox="0 0 736 1037" version="1.1" xmlns="http://www.w3.org/2000/svg" xmlns:xlink="http://www.w3.org/1999/xlink">
<defs>
<style type="text/css"><![CDATA[
.g0_36{
fill: none;
stroke: #000000;
stroke-width: 0.73333335;
stroke-linecap: round;
stroke-linejoin: round;
}
]]></style>
</defs>
<g fill="#D4D4D4" fill-opacity="0.36" >
<use xlink:href="#f0_1f" transform="matrix(50.9,-50.9,50.9,50.9,124.6,814.1)" />
<use xlink:href="#f0_2a" transform="matrix(50.9,-50.9,50.9,50.9,185.1,753.6)" />
<use xlink:href="#f0_28" transform="matrix(50.9,-50.9,50.9,50.9,228.4,710.3)" />
<use xlink:href="#f0_25" transform="matrix(50.9,-50.9,50.9,50.9,245.6,693.1)" />
<use xlink:href="#f0_2a" transform="matrix(50.9,-50.9,50.9,50.9,262.9,675.8)" />
<use xlink:href="#f0_21" transform="matrix(50.9,-50.9,50.9,50.9,306.2,632.5)" />
<use xlink:href="#f0_2k" transform="matrix(50.9,-50.9,50.9,50.9,349.4,589.3)" />
<use xlink:href="#f0_1x" transform="matrix(50.9,-50.9,50.9,50.9,388.3,550.4)" />
<use xlink:href="#f0_29" transform="matrix(50.9,-50.9,50.9,50.9,431.5,507.2)" />
<use xlink:href="#f0_2c" transform="matrix(50.9,-50.9,50.9,50.9,496.3,442.4)" />
<use xlink:href="#f0_2b" transform="matrix(50.9,-50.9,50.9,50.9,539.6,399.1)" />
<use xlink:href="#f0_25" transform="matrix(50.9,-50.9,50.9,50.9,582.8,355.9)" />
<use xlink:href="#f0_2a" transform="matrix(50.9,-50.9,50.9,50.9,600.1,338.6)" />
<use xlink:href="#f0_2g" transform="matrix(50.9,-50.9,50.9,50.9,643.3,295.4)" />
</g>
<g fill="#000000" >
<use xlink:href="#f1_o" transform="matrix(10.4,0,0,10.4,56.1,65.5)" />
<use xlink:href="#f1_p" transform="matrix(10.4,0,0,10.4,65.3,65.5)" />
<use xlink:href="#f1_i" transform="matrix(10.4,0,0,10.4,74.6,65.5)" />
<use xlink:href="#f1_19" transform="matrix(10.4,0,0,10.4,99.4,65.5)" />
<use xlink:href="#f1_2a" transform="matrix(10.4,0,0,10.4,103.8,65.5)" />
<use xlink:href="#f1_2j" transform="matrix(10.4,0,0,10.4,120.8,65.5)" />
<use xlink:href="#f1_24" transform="matrix(10.4,0,0,10.4,132,65.5)" />
<use xlink:href="#f1_1x" transform="matrix(10.4,0,0,10.4,140.8,65.5)" />
<use xlink:href="#f1_2g" transform="matrix(10.4,0,0,10.4,149.6,65.5)" />
<use xlink:href="#f1_2j" transform="matrix(10.4,0,0,10.4,162.2,65.5)" />
<use xlink:href="#f1_1x" transform="matrix(10.4,0,0,10.4,173.4,65.5)" />
<use xlink:href="#f1_2l" transform="matrix(10.4,0,0,10.4,182.2,65.5)" />
<use xlink:href="#f1_2g" transform="matrix(10.4,0,0,10.4,198,65.5)" />
<use xlink:href="#f1_24" transform="matrix(10.4,0,0,10.4,202.4,65.5)" />
<use xlink:href="#f1_21" transform="matrix(10.4,0,0,10.4,211.2,65.5)" />
<use xlink:href="#f1_2f" transform="matrix(10.4,0,0,10.4,220,65.5)" />
<use xlink:href="#f1_21" transform="matrix(10.4,0,0,10.4,228.1,65.5)" />
<use xlink:href="#f1_1x" transform="matrix(10.4,0,0,10.4,245.1,65.5)" />
<use xlink:href="#f1_2e" transform="matrix(10.4,0,0,10.4,253.9,65.5)" />
<use xlink:href="#f1_21" transform="matrix(10.4,0,0,10.4,259.2,65.5)" />
<use xlink:href="#f1_20" transform="matrix(10.4,0,0,10.4,276.3,65.5)" />
<use xlink:href="#f1_25" transform="matrix(10.4,0,0,10.4,285.1,65.5)" />
<use xlink:href="#f1_22" transform="matrix(10.4,0,0,10.4,288.6,65.5)" />
<use xlink:href="#f1_22" transform="matrix(10.4,0,0,10.4,293.1,65.5)" />
<use xlink:href="#f1_21" transform="matrix(10.4,0,0,10.4,297.7,65.5)" />
<use xlink:href="#f1_2e" transform="matrix(10.4,0,0,10.4,306.5,65.5)" />
<use xlink:href="#f1_21" transform="matrix(10.4,0,0,10.4,311.8,65.5)" />
<use xlink:href="#f1_2a" transform="matrix(10.4,0,0,10.4,320.6,65.5)" />
<use xlink:href="#f1_2g" transform="matrix(10.4,0,0,10.4,329.4,65.5)" />
<use xlink:href="#f1_u" transform="matrix(10.4,0,0,10.4,342.1,65.5)" />
<use xlink:href="#f1_c" transform="matrix(10.4,0,0,10.4,354.7,65.5)" />
<use xlink:href="#f1_1x" transform="matrix(10.4,0,0,10.4,360,65.5)" />
<use xlink:href="#f1_d" transform="matrix(10.4,0,0,10.4,368.8,65.5)" />
<use xlink:href="#f1_1x" transform="matrix(10.4,0,0,10.4,382.4,65.5)" />
<use xlink:href="#f1_2f" transform="matrix(10.4,0,0,10.4,399.6,65.5)" />
<use xlink:href="#f1_2b" transform="matrix(10.4,0,0,10.4,407.7,65.5)" />
<use xlink:href="#f1_28" transform="matrix(10.4,0,0,10.4,416.5,65.5)" />
<use xlink:href="#f1_1x" transform="matrix(10.4,0,0,10.4,428.2,65.5)" />
<use xlink:href="#f1_2a" transform="matrix(10.4,0,0,10.4,437,65.5)" />
<use xlink:href="#f1_20" transform="matrix(10.4,0,0,10.4,445.8,65.5)" />
<use xlink:href="#f1_1x" transform="matrix(10.4,0,0,10.4,462.9,65.5)" />
<use xlink:href="#f1_23" transform="matrix(10.4,0,0,10.4,479.9,65.5)" />
<use xlink:href="#f1_21" transform="matrix(10.4,0,0,10.4,488.7,65.5)" />
<use xlink:href="#f1_28" transform="matrix(10.4,0,0,10.4,497.5,65.5)" />
<use xlink:href="#f1_c" transform="matrix(10.4,0,0,10.4,509.3,65.5)" />
<use xlink:href="#f1_1y" transform="matrix(10.4,0,0,10.4,514.6,65.5)" />
<use xlink:href="#f1_d" transform="matrix(10.4,0,0,10.4,523.4,65.5)" />
<use xlink:href="#f1_1x" transform="matrix(10.4,0,0,10.4,536.9,65.5)" />
<use xlink:href="#f1_23" transform="matrix(10.4,0,0,10.4,554,65.5)" />
<use xlink:href="#f1_21" transform="matrix(10.4,0,0,10.4,562.8,65.5)" />
<use xlink:href="#f1_28" transform="matrix(10.4,0,0,10.4,571.6,65.5)" />
<use xlink:href="#f1_1x" transform="matrix(10.4,0,0,10.4,583.3,65.5)" />
<use xlink:href="#f1_2a" transform="matrix(10.4,0,0,10.4,592.1,65.5)" />
<use xlink:href="#f1_20" transform="matrix(10.4,0,0,10.4,600.9,65.5)" />
<use xlink:href="#f1_1x" transform="matrix(10.4,0,0,10.4,618,65.5)" />
<use xlink:href="#f1_2a" transform="matrix(10.4,0,0,10.4,626.8,65.5)" />
<use xlink:href="#f1_21" transform="matrix(10.4,0,0,10.4,99.4,86.4)" />
<use xlink:href="#f1_29" transform="matrix(10.4,0,0,10.4,108.2,86.4)" />
<use xlink:href="#f1_2h" transform="matrix(10.4,0,0,10.4,121.9,86.4)" />
<use xlink:href="#f1_28" transform="matrix(10.4,0,0,10.4,130.7,86.4)" />
<use xlink:href="#f1_2f" transform="matrix(10.4,0,0,10.4,134.2,86.4)" />
<use xlink:href="#f1_25" transform="matrix(10.4,0,0,10.4,142.5,86.4)" />
<use xlink:href="#f1_2b" transform="matrix(10.4,0,0,10.4,145.9,86.4)" />
<use xlink:href="#f1_2a" transform="matrix(10.4,0,0,10.4,154.9,86.4)" />
<use xlink:href="#f1_i" transform="matrix(10.4,0,0,10.4,163.7,86.4)" />
<use xlink:href="#f1_o" transform="matrix(10.4,0,0,10.4,56.1,116.5)" />
<use xlink:href="#f1_q" transform="matrix(10.4,0,0,10.4,65.3,116.5)" />
<use xlink:href="#f1_i" transform="matrix(10.4,0,0,10.4,74.6,116.5)" />
<use xlink:href="#f1_1j" transform="matrix(10.4,0,0,10.4,99.4,116.5)" />
<use xlink:href="#f1_2g" transform="matrix(10.4,0,0,10.4,109.3,116.5)" />
<use xlink:href="#f1_1x" transform="matrix(10.4,0,0,10.4,113.5,116.5)" />
<use xlink:href="#f1_2g" transform="matrix(10.4,0,0,10.4,122.3,116.5)" />
<use xlink:href="#f1_21" transform="matrix(10.4,0,0,10.4,126.7,116.5)" />
<use xlink:href="#f1_1k8" transform="matrix(10.4,0,0,10.4,142.8,116.5)" />
<use xlink:href="#f1_18" transform="matrix(10.4,0,0,10.4,148.1,116.5)" />
<use xlink:href="#f1_1x" transform="matrix(10.4,0,0,10.4,159.7,116.5)" />
<use xlink:href="#f1_2e" transform="matrix(10.4,0,0,10.4,168.5,116.5)" />
<use xlink:href="#f1_20" transform="matrix(10.4,0,0,10.4,173.8,116.5)" />
<use xlink:href="#f1_2l" transform="matrix(10.4,0,0,10.4,182.6,116.5)" />
<use xlink:href="#f1_1j" transform="matrix(10.4,0,0,10.4,197.4,116.5)" />
<use xlink:href="#f1_1z" transform="matrix(10.4,0,0,10.4,208.1,116.5)" />
<use xlink:href="#f1_24" transform="matrix(10.4,0,0,10.4,216.1,116.5)" />
<use xlink:href="#f1_2h" transform="matrix(10.4,0,0,10.4,224.9,116.5)" />
<use xlink:href="#f1_28" transform="matrix(10.4,0,0,10.4,233.7,116.5)" />
<use xlink:href="#f1_2m" transform="matrix(10.4,0,0,10.4,237.2,116.5)" />
<use xlink:href="#f1_21" transform="matrix(10.4,0,0,10.4,244.9,116.5)" />
<use xlink:href="#f1_1i" transform="matrix(10.4,0,0,10.4,260.9,116.5)" />
<use xlink:href="#f1_2h" transform="matrix(10.4,0,0,10.4,272.4,116.5)" />
<use xlink:href="#f1_28" transform="matrix(10.4,0,0,10.4,281.2,116.5)" />
<use xlink:href="#f1_21" transform="matrix(10.4,0,0,10.4,284.7,116.5)" />
<use xlink:href="#f1_1k9" transform="matrix(10.4,0,0,10.4,293.5,116.5)" />
<use xlink:href="#f1_2j" transform="matrix(10.4,0,0,10.4,306.2,116.5)" />
<use xlink:href="#f1_25" transform="matrix(10.4,0,0,10.4,317.3,116.5)" />
<use xlink:href="#f1_2g" transform="matrix(10.4,0,0,10.4,320.8,116.5)" />
<use xlink:href="#f1_24" transform="matrix(10.4,0,0,10.4,325.2,116.5)" />
<use xlink:href="#f1_2b" transform="matrix(10.4,0,0,10.4,341.3,116.5)" />
<use xlink:href="#f1_2a" transform="matrix(10.4,0,0,10.4,350.1,116.5)" />
<use xlink:href="#f1_21" transform="matrix(10.4,0,0,10.4,358.9,116.5)" />
<use xlink:href="#f1_21" transform="matrix(10.4,0,0,10.4,375.1,116.5)" />
<use xlink:href="#f1_2k" transform="matrix(10.4,0,0,10.4,383.9,116.5)" />
<use xlink:href="#f1_1x" transform="matrix(10.4,0,0,10.4,391.8,116.5)" />
<use xlink:href="#f1_29" transform="matrix(10.4,0,0,10.4,400.6,116.5)" />
<use xlink:href="#f1_2c" transform="matrix(10.4,0,0,10.4,414.1,116.5)" />
<use xlink:href="#f1_28" transform="matrix(10.4,0,0,10.4,422.9,116.5)" />
<use xlink:href="#f1_21" transform="matrix(10.4,0,0,10.4,426.4,116.5)" />
<use xlink:href="#f1_i" transform="matrix(10.4,0,0,10.4,435.2,116.5)" />
<use xlink:href="#f1_o" transform="matrix(10.4,0,0,10.4,56.1,146.6)" />
<use xlink:href="#f1_r" transform="matrix(10.4,0,0,10.4,65.3,146.6)" />
<use xlink:href="#f1_i" transform="matrix(10.4,0,0,10.4,74.6,146.6)" />
<use xlink:href="#f1_1n" transform="matrix(10.4,0,0,10.4,99.4,146.6)" />
<use xlink:href="#f1_24" transform="matrix(10.4,0,0,10.4,115.5,146.6)" />
<use xlink:href="#f1_1x" transform="matrix(10.4,0,0,10.4,124.7,146.6)" />
<use xlink:href="#f1_2g" transform="matrix(10.4,0,0,10.4,133.6,146.6)" />
<use xlink:href="#f1_25" transform="matrix(10.4,0,0,10.4,147.4,146.6)" />
<use xlink:href="#f1_2f" transform="matrix(10.4,0,0,10.4,151.2,146.6)" />
<use xlink:href="#f1_1x" transform="matrix(10.4,0,0,10.4,168.7,146.6)" />
<use xlink:href="#f1_2a" transform="matrix(10.4,0,0,10.4,177.6,146.6)" />
<use xlink:href="#f1_21" transform="matrix(10.4,0,0,10.4,195.8,146.6)" />
<use xlink:href="#f1_29" transform="matrix(10.4,0,0,10.4,204.8,146.6)" />
<use xlink:href="#f1_2h" transform="matrix(10.4,0,0,10.4,218.7,146.6)" />
<use xlink:href="#f1_28" transform="matrix(10.4,0,0,10.4,227.7,146.6)" />
<use xlink:href="#f1_2f" transform="matrix(10.4,0,0,10.4,231.5,146.6)" />
<use xlink:href="#f1_25" transform="matrix(10.4,0,0,10.4,239.8,146.6)" />
<use xlink:href="#f1_22" transform="matrix(10.4,0,0,10.4,243.6,146.6)" />
<use xlink:href="#f1_2l" transform="matrix(10.4,0,0,10.4,248.4,146.6)" />
<use xlink:href="#f1_25" transform="matrix(10.4,0,0,10.4,256.1,146.6)" />
<use xlink:href="#f1_2a" transform="matrix(10.4,0,0,10.4,259.9,146.6)" />
<use xlink:href="#f1_23" transform="matrix(10.4,0,0,10.4,268.9,146.6)" />
<use xlink:href="#f1_1x" transform="matrix(10.4,0,0,10.4,287.1,146.6)" />
<use xlink:href="#f1_23" transform="matrix(10.4,0,0,10.4,296.2,146.6)" />
<use xlink:href="#f1_21" transform="matrix(10.4,0,0,10.4,305.2,146.6)" />
<use xlink:href="#f1_2a" transform="matrix(10.4,0,0,10.4,314.4,146.6)" />
<use xlink:href="#f1_2g" transform="matrix(10.4,0,0,10.4,323.4,146.6)" />
<use xlink:href="#f1_z" transform="matrix(10.4,0,0,10.4,327.9,146.6)" />
<use xlink:href="#f1_1n" transform="matrix(10.4,0,0,10.4,346.1,146.6)" />
<use xlink:href="#f1_24" transform="matrix(10.4,0,0,10.4,362.4,146.6)" />
<use xlink:href="#f1_1x" transform="matrix(10.4,0,0,10.4,371.4,146.6)" />
<use xlink:href="#f1_2g" transform="matrix(10.4,0,0,10.4,380.5,146.6)" />
<use xlink:href="#f1_2e" transform="matrix(10.4,0,0,10.4,394.3,146.6)" />
<use xlink:href="#f1_2b" transform="matrix(10.4,0,0,10.4,399.8,146.6)" />
<use xlink:href="#f1_28" transform="matrix(10.4,0,0,10.4,409,146.6)" />
<use xlink:href="#f1_21" transform="matrix(10.4,0,0,10.4,412.6,146.6)" />
<use xlink:href="#f1_20" transform="matrix(10.4,0,0,10.4,430.8,146.6)" />
<use xlink:href="#f1_2b" transform="matrix(10.4,0,0,10.4,439.8,146.6)" />
<use xlink:href="#f1_21" transform="matrix(10.4,0,0,10.4,448.9,146.6)" />
<use xlink:href="#f1_2f" transform="matrix(10.4,0,0,10.4,457.9,146.6)" />
<use xlink:href="#f1_25" transform="matrix(10.4,0,0,10.4,475.3,146.6)" />
<use xlink:href="#f1_2g" transform="matrix(10.4,0,0,10.4,479.2,146.6)" />
<use xlink:href="#f1_2c" transform="matrix(10.4,0,0,10.4,492.7,146.6)" />
<use xlink:href="#f1_28" transform="matrix(10.4,0,0,10.4,501.9,146.6)" />
<use xlink:href="#f1_1x" transform="matrix(10.4,0,0,10.4,505.6,146.6)" />
<use xlink:href="#f1_2l" transform="matrix(10.4,0,0,10.4,514.7,146.6)" />
<use xlink:href="#f1_25" transform="matrix(10.4,0,0,10.4,531.6,146.6)" />
<use xlink:href="#f1_2a" transform="matrix(10.4,0,0,10.4,535.3,146.6)" />
<use xlink:href="#f1_22" transform="matrix(10.4,0,0,10.4,553.4,146.6)" />
<use xlink:href="#f1_2b" transform="matrix(10.4,0,0,10.4,558.2,146.6)" />
<use xlink:href="#f1_2e" transform="matrix(10.4,0,0,10.4,567.3,146.6)" />
<use xlink:href="#f1_29" transform="matrix(10.4,0,0,10.4,572.8,146.6)" />
<use xlink:href="#f1_25" transform="matrix(10.4,0,0,10.4,586.8,146.6)" />
<use xlink:href="#f1_2a" transform="matrix(10.4,0,0,10.4,590.4,146.6)" />
<use xlink:href="#f1_23" transform="matrix(10.4,0,0,10.4,599.6,146.6)" />
<use xlink:href="#f1_1x" transform="matrix(10.4,0,0,10.4,617.7,146.6)" />
<use xlink:href="#f1_2a" transform="matrix(10.4,0,0,10.4,626.7,146.6)" />
<use xlink:href="#f1_21" transform="matrix(10.4,0,0,10.4,99.4,167.5)" />
<use xlink:href="#f1_29" transform="matrix(10.4,0,0,10.4,108.2,167.5)" />
<use xlink:href="#f1_2h" transform="matrix(10.4,0,0,10.4,121.9,167.5)" />
<use xlink:href="#f1_28" transform="matrix(10.4,0,0,10.4,130.7,167.5)" />
<use xlink:href="#f1_2f" transform="matrix(10.4,0,0,10.4,134.4,167.5)" />
<use xlink:href="#f1_25" transform="matrix(10.4,0,0,10.4,142.4,167.5)" />
<use xlink:href="#f1_2b" transform="matrix(10.4,0,0,10.4,146.1,167.5)" />
<use xlink:href="#f1_2a" transform="matrix(10.4,0,0,10.4,154.9,167.5)" />
<use xlink:href="#f1_z" transform="matrix(10.4,0,0,10.4,163.9,167.5)" />
<use xlink:href="#f1_o" transform="matrix(10.4,0,0,10.4,56.1,197.5)" />
<use xlink:href="#f1_s" transform="matrix(10.4,0,0,10.4,65.3,197.5)" />
<use xlink:href="#f1_i" transform="matrix(10.4,0,0,10.4,74.6,197.5)" />
<use xlink:href="#f1_14" transform="matrix(10.4,0,0,10.4,99.4,197.5)" />
<use xlink:href="#f1_21" transform="matrix(10.4,0,0,10.4,110.9,197.5)" />
<use xlink:href="#f1_22" transform="matrix(10.4,0,0,10.4,119.7,197.5)" />
<use xlink:href="#f1_25" transform="matrix(10.4,0,0,10.4,124.3,197.5)" />
<use xlink:href="#f1_2a" transform="matrix(10.4,0,0,10.4,127.8,197.5)" />
<use xlink:href="#f1_21" transform="matrix(10.4,0,0,10.4,136.6,197.5)" />
<use xlink:href="#f1_2g" transform="matrix(10.4,0,0,10.4,152.9,197.5)" />
<use xlink:href="#f1_24" transform="matrix(10.4,0,0,10.4,157.3,197.5)" />
<use xlink:href="#f1_21" transform="matrix(10.4,0,0,10.4,166.1,197.5)" />
<use xlink:href="#f1_2g" transform="matrix(10.4,0,0,10.4,182.6,197.5)" />
<use xlink:href="#f1_21" transform="matrix(10.4,0,0,10.4,187,197.5)" />
<use xlink:href="#f1_2e" transform="matrix(10.4,0,0,10.4,195.8,197.5)" />
<use xlink:href="#f1_29" transform="matrix(10.4,0,0,10.4,201.1,197.5)" />
<use xlink:href="#f1_2f" transform="matrix(10.4,0,0,10.4,214.7,197.5)" />
<use xlink:href="#f1_u" transform="matrix(10.4,0,0,10.4,230.3,197.5)" />
<use xlink:href="#f1_c" transform="matrix(10.4,0,0,10.4,99.4,227.4)" />
<use xlink:href="#f1_1x" transform="matrix(10.4,0,0,10.4,105.2,227.4)" />
<use xlink:href="#f1_d" transform="matrix(10.4,0,0,10.4,114.8,227.4)" />
<use xlink:href="#f1_18" transform="matrix(10.4,0,0,10.4,142.6,227.4)" />
<use xlink:href="#f1_21" transform="matrix(10.4,0,0,10.4,154.2,227.4)" />
<use xlink:href="#f1_28" transform="matrix(10.4,0,0,10.4,163,227.4)" />
<use xlink:href="#f1_29" transform="matrix(10.4,0,0,10.4,166.5,227.4)" />
<use xlink:href="#f1_24" transform="matrix(10.4,0,0,10.4,180,227.4)" />
<use xlink:href="#f1_2b" transform="matrix(10.4,0,0,10.4,188.8,227.4)" />
<use xlink:href="#f1_28" transform="matrix(10.4,0,0,10.4,197.6,227.4)" />
<use xlink:href="#f1_2g" transform="matrix(10.4,0,0,10.4,201.1,227.4)" />
<use xlink:href="#f1_2m" transform="matrix(10.4,0,0,10.4,205.5,227.4)" />
<use xlink:href="#f1_21" transform="matrix(10.4,0,0,10.4,221.1,227.4)" />
<use xlink:href="#f1_28" transform="matrix(10.4,0,0,10.4,229.9,227.4)" />
<use xlink:href="#f1_21" transform="matrix(10.4,0,0,10.4,233.4,227.4)" />
<use xlink:href="#f1_1z" transform="matrix(10.4,0,0,10.4,242.2,227.4)" />
<use xlink:href="#f1_2g" transform="matrix(10.4,0,0,10.4,250.2,227.4)" />
<use xlink:href="#f1_2e" transform="matrix(10.4,0,0,10.4,254.6,227.4)" />
<use xlink:href="#f1_25" transform="matrix(10.4,0,0,10.4,260,227.4)" />
<use xlink:href="#f1_1z" transform="matrix(10.4,0,0,10.4,263.4,227.4)" />
<use xlink:href="#f1_1x" transform="matrix(10.4,0,0,10.4,271.5,227.4)" />
<use xlink:href="#f1_28" transform="matrix(10.4,0,0,10.4,280.3,227.4)" />
<use xlink:href="#f1_20" transform="matrix(10.4,0,0,10.4,291.7,227.4)" />
<use xlink:href="#f1_2b" transform="matrix(10.4,0,0,10.4,300.5,227.4)" />
<use xlink:href="#f1_2h" transform="matrix(10.4,0,0,10.4,309.3,227.4)" />
<use xlink:href="#f1_1y" transform="matrix(10.4,0,0,10.4,318.1,227.4)" />
<use xlink:href="#f1_28" transform="matrix(10.4,0,0,10.4,326.9,227.4)" />
<use xlink:href="#f1_21" transform="matrix(10.4,0,0,10.4,330.4,227.4)" />
<use xlink:href="#f1_28" transform="matrix(10.4,0,0,10.4,347,227.4)" />
<use xlink:href="#f1_1x" transform="matrix(10.4,0,0,10.4,350.5,227.4)" />
<use xlink:href="#f1_2l" transform="matrix(10.4,0,0,10.4,359.3,227.4)" />
<use xlink:href="#f1_21" transform="matrix(10.4,0,0,10.4,366.8,227.4)" />
<use xlink:href="#f1_2e" transform="matrix(10.4,0,0,10.4,375.6,227.4)" />
<use xlink:href="#f1_i" transform="matrix(10.4,0,0,10.4,380,227.4)" />
<use xlink:href="#f1_c" transform="matrix(10.4,0,0,10.4,99.4,257.5)" />
<use xlink:href="#f1_1y" transform="matrix(10.4,0,0,10.4,105.2,257.5)" />
<use xlink:href="#f1_d" transform="matrix(10.4,0,0,10.4,114.8,257.5)" />
<use xlink:href="#f1_1q" transform="matrix(10.4,0,0,10.4,142.6,257.5)" />
<use xlink:href="#f1_21" transform="matrix(10.4,0,0,10.4,152.4,257.5)" />
<use xlink:href="#f1_2g" transform="matrix(10.4,0,0,10.4,161.3,257.5)" />
<use xlink:href="#f1_1x" transform="matrix(10.4,0,0,10.4,165.7,257.5)" />
<use xlink:href="#f1_2c" transform="matrix(10.4,0,0,10.4,183.3,257.5)" />
<use xlink:href="#f1_2b" transform="matrix(10.4,0,0,10.4,192.3,257.5)" />
<use xlink:href="#f1_2g" transform="matrix(10.4,0,0,10.4,201.1,257.5)" />
<use xlink:href="#f1_21" transform="matrix(10.4,0,0,10.4,205.5,257.5)" />
<use xlink:href="#f1_2a" transform="matrix(10.4,0,0,10.4,214.5,257.5)" />
<use xlink:href="#f1_2g" transform="matrix(10.4,0,0,10.4,223.3,257.5)" />
<use xlink:href="#f1_25" transform="matrix(10.4,0,0,10.4,227.7,257.5)" />
<use xlink:href="#f1_1x" transform="matrix(10.4,0,0,10.4,231.2,257.5)" />
<use xlink:href="#f1_28" transform="matrix(10.4,0,0,10.4,240.2,257.5)" />
<use xlink:href="#f1_i" transform="matrix(10.4,0,0,10.4,243.6,257.5)" />
<use xlink:href="#f1_o" transform="matrix(10.4,0,0,10.4,56.1,307.5)" />
<use xlink:href="#f1_t" transform="matrix(10.4,0,0,10.4,65.3,307.5)" />
<use xlink:href="#f1_i" transform="matrix(10.4,0,0,10.4,74.6,307.5)" />
<use xlink:href="#f1_11" transform="matrix(10.4,0,0,10.4,99.4,307.5)" />
<use xlink:href="#f1_23" transform="matrix(10.4,0,0,10.4,117.3,307.5)" />
<use xlink:href="#f1_2e" transform="matrix(10.4,0,0,10.4,126.1,307.5)" />
<use xlink:href="#f1_1x" transform="matrix(10.4,0,0,10.4,131.4,307.5)" />
<use xlink:href="#f1_2c" transform="matrix(10.4,0,0,10.4,140.3,307.5)" />
<use xlink:href="#f1_24" transform="matrix(10.4,0,0,10.4,149.1,307.5)" />
<use xlink:href="#f1_1y" transform="matrix(10.4,0,0,10.4,165,307.5)" />
<use xlink:href="#f1_21" transform="matrix(10.4,0,0,10.4,173.8,307.5)" />
<use xlink:href="#f1_2g" transform="matrix(10.4,0,0,10.4,182.6,307.5)" />
<use xlink:href="#f1_2j" transform="matrix(10.4,0,0,10.4,187,307.5)" />
<use xlink:href="#f1_21" transform="matrix(10.4,0,0,10.4,198.2,307.5)" />
<use xlink:href="#f1_21" transform="matrix(10.4,0,0,10.4,207,307.5)" />
<use xlink:href="#f1_2a" transform="matrix(10.4,0,0,10.4,215.8,307.5)" />
</g>
<path d="M235,300.8h13.8" class="g0_36" />
<g fill="#000000" >
<use xlink:href="#f1_2k" transform="matrix(10.1,0,0,10.1,238,294.9)" />
<use xlink:href="#f1_29" transform="matrix(10.1,0,0,10.1,235.2,316.9)" />
<use xlink:href="#f1_1x" transform="matrix(10.4,0,0,10.4,260.3,307.5)" />
<use xlink:href="#f1_2a" transform="matrix(10.4,0,0,10.4,269.1,307.5)" />
<use xlink:href="#f1_20" transform="matrix(10.4,0,0,10.4,277.9,307.5)" />
<use xlink:href="#f1_28" transform="matrix(10.4,0,0,10.4,293.9,307.5)" />
<use xlink:href="#f1_2b" transform="matrix(10.4,0,0,10.4,297.4,307.5)" />
<use xlink:href="#f1_23" transform="matrix(10.4,0,0,10.4,306.2,307.5)" />
<use xlink:href="#f1_2c" transform="matrix(10.4,0,0,10.4,322.3,307.5)" />
<use xlink:href="#f1_25" transform="matrix(10.4,0,0,10.4,338.4,307.5)" />
<use xlink:href="#f1_2f" transform="matrix(10.4,0,0,10.4,341.9,307.5)" />
<use xlink:href="#f1_1x" transform="matrix(10.4,0,0,10.4,357.1,307.5)" />
<use xlink:href="#f1_2f" transform="matrix(10.4,0,0,10.4,373.3,307.5)" />
<use xlink:href="#f1_2g" transform="matrix(10.4,0,0,10.4,381.3,307.5)" />
<use xlink:href="#f1_2e" transform="matrix(10.4,0,0,10.4,385.7,307.5)" />
<use xlink:href="#f1_1x" transform="matrix(10.4,0,0,10.4,391,307.5)" />
<use xlink:href="#f1_25" transform="matrix(10.4,0,0,10.4,399.8,307.5)" />
<use xlink:href="#f1_23" transform="matrix(10.4,0,0,10.4,403.3,307.5)" />
<use xlink:href="#f1_24" transform="matrix(10.4,0,0,10.4,412.1,307.5)" />
<use xlink:href="#f1_2g" transform="matrix(10.4,0,0,10.4,420.9,307.5)" />
<use xlink:href="#f1_28" transform="matrix(10.4,0,0,10.4,432.7,307.5)" />
<use xlink:href="#f1_25" transform="matrix(10.4,0,0,10.4,436.1,307.5)" />
<use xlink:href="#f1_2a" transform="matrix(10.4,0,0,10.4,439.6,307.5)" />
<use xlink:href="#f1_21" transform="matrix(10.4,0,0,10.4,448.4,307.5)" />
<use xlink:href="#f1_1x" transform="matrix(10.4,0,0,10.4,464.5,307.5)" />
<use xlink:href="#f1_2g" transform="matrix(10.4,0,0,10.4,473.3,307.5)" />
<use xlink:href="#f1_1x" transform="matrix(10.4,0,0,10.4,484.9,307.5)" />
<use xlink:href="#f1_2a" transform="matrix(10.4,0,0,10.4,493.7,307.5)" />
<use xlink:href="#f1_1x" transform="matrix(10.4,0,0,10.4,509.8,307.5)" />
<use xlink:href="#f1_2a" transform="matrix(10.4,0,0,10.4,518.6,307.5)" />
<use xlink:href="#f1_23" transform="matrix(10.4,0,0,10.4,527.4,307.5)" />
<use xlink:href="#f1_28" transform="matrix(10.4,0,0,10.4,536.2,307.5)" />
<use xlink:href="#f1_21" transform="matrix(10.4,0,0,10.4,539.7,307.5)" />
<use xlink:href="#f1_2b" transform="matrix(10.4,0,0,10.4,555.8,307.5)" />
<use xlink:href="#f1_22" transform="matrix(10.4,0,0,10.4,564.6,307.5)" />
<use xlink:href="#f1_o" transform="matrix(10.4,0,0,10.4,576.4,307.5)" />
<use xlink:href="#f1_p" transform="matrix(10.4,0,0,10.4,585.2,307.5)" />
<use xlink:href="#f1_37" transform="matrix(10.4,0,0,10.4,594,307.5)" />
<use xlink:href="#f1_2j" transform="matrix(10.4,0,0,10.4,607.7,307.5)" />
<use xlink:href="#f1_25" transform="matrix(10.4,0,0,10.4,618.9,307.5)" />
<use xlink:href="#f1_2g" transform="matrix(10.4,0,0,10.4,622.4,307.5)" />
<use xlink:href="#f1_24" transform="matrix(10.4,0,0,10.4,626.8,307.5)" />
<use xlink:href="#f1_25" transform="matrix(10.4,0,0,10.4,99.4,341.1)" />
<use xlink:href="#f1_2a" transform="matrix(10.4,0,0,10.4,102.9,341.1)" />
<use xlink:href="#f1_2g" transform="matrix(10.4,0,0,10.4,111.7,341.1)" />
<use xlink:href="#f1_21" transform="matrix(10.4,0,0,10.4,116.1,341.1)" />
<use xlink:href="#f1_2e" transform="matrix(10.4,0,0,10.4,124.9,341.1)" />
<use xlink:href="#f1_1z" transform="matrix(10.4,0,0,10.4,130.2,341.1)" />
<use xlink:href="#f1_21" transform="matrix(10.4,0,0,10.4,138.2,341.1)" />
<use xlink:href="#f1_2c" transform="matrix(10.4,0,0,10.4,147,341.1)" />
<use xlink:href="#f1_2g" transform="matrix(10.4,0,0,10.4,155.8,341.1)" />
<use xlink:href="#f1_2b" transform="matrix(10.4,0,0,10.4,167.6,341.1)" />
<use xlink:href="#f1_2a" transform="matrix(10.4,0,0,10.4,176.4,341.1)" />
<use xlink:href="#f1_2g" transform="matrix(10.4,0,0,10.4,192.5,341.1)" />
<use xlink:href="#f1_24" transform="matrix(10.4,0,0,10.4,196.9,341.1)" />
<use xlink:href="#f1_21" transform="matrix(10.4,0,0,10.4,205.7,341.1)" />
<use xlink:href="#f1_2l" transform="matrix(10.4,0,0,10.4,221.8,341.1)" />
<use xlink:href="#f1_h" transform="matrix(10.4,0,0,10.4,229.3,341.1)" />
<use xlink:href="#f1_1x" transform="matrix(10.4,0,0,10.4,234.7,341.1)" />
<use xlink:href="#f1_2k" transform="matrix(10.4,0,0,10.4,243.5,341.1)" />
<use xlink:href="#f1_25" transform="matrix(10.4,0,0,10.4,251.3,341.1)" />
<use xlink:href="#f1_2f" transform="matrix(10.4,0,0,10.4,254.8,341.1)" />
<use xlink:href="#f1_25" transform="matrix(10.4,0,0,10.4,270.2,341.1)" />
<use xlink:href="#f1_i" transform="matrix(10.4,0,0,10.4,273.7,341.1)" />
<use xlink:href="#f1_21" transform="matrix(10.4,0,0,10.4,278.1,341.1)" />
<use xlink:href="#f1_i" transform="matrix(10.4,0,0,10.4,286.9,341.1)" />
<use xlink:href="#f1_c" transform="matrix(10.4,0,0,10.4,298.6,341.1)" />
<use xlink:href="#f1_28" transform="matrix(10.4,0,0,10.4,303.9,341.1)" />
<use xlink:href="#f1_2b" transform="matrix(10.4,0,0,10.4,307.4,341.1)" />
<use xlink:href="#f1_23" transform="matrix(10.4,0,0,10.4,316.2,341.1)" />
<use xlink:href="#f1_27" transform="matrix(10.4,0,0,10.4,332.2,341.1)" />
<use xlink:href="#f1_d" transform="matrix(10.4,0,0,10.4,340.2,341.1)" />
<use xlink:href="#f1_21" transform="matrix(10.4,0,0,10.4,352.9,341.1)" />
<use xlink:href="#f1_2d" transform="matrix(10.4,0,0,10.4,361.7,341.1)" />
<use xlink:href="#f1_2h" transform="matrix(10.4,0,0,10.4,370.5,341.1)" />
<use xlink:href="#f1_1x" transform="matrix(10.4,0,0,10.4,379.3,341.1)" />
<use xlink:href="#f1_28" transform="matrix(10.4,0,0,10.4,388.1,341.1)" />
<use xlink:href="#f1_2g" transform="matrix(10.4,0,0,10.4,398.9,341.1)" />
<use xlink:href="#f1_2b" transform="matrix(10.4,0,0,10.4,403.3,341.1)" />
<use xlink:href="#f1_k" transform="matrix(10.4,0,0,10.4,419.4,341.1)" />
<use xlink:href="#f1_i" transform="matrix(10.4,0,0,10.4,428.2,341.1)" />
<use xlink:href="#f1_n" transform="matrix(10.4,0,0,10.4,432.6,341.1)" />
<use xlink:href="#f1_k" transform="matrix(10.4,0,0,10.4,441.4,341.1)" />
<use xlink:href="#f1_l" transform="matrix(10.4,0,0,10.4,450.2,341.1)" />
<use xlink:href="#f1_k" transform="matrix(10.4,0,0,10.4,459,341.1)" />
<use xlink:href="#f1_i" transform="matrix(10.4,0,0,10.4,467.8,341.1)" />
<use xlink:href="#f1_13" transform="matrix(10.4,0,0,10.4,479.6,341.1)" />
<use xlink:href="#f1_1x" transform="matrix(10.4,0,0,10.4,491.1,341.1)" />
<use xlink:href="#f1_28" transform="matrix(10.4,0,0,10.4,499.9,341.1)" />
<use xlink:href="#f1_1z" transform="matrix(10.4,0,0,10.4,503.4,341.1)" />
<use xlink:href="#f1_2h" transform="matrix(10.4,0,0,10.4,511.5,341.1)" />
<use xlink:href="#f1_28" transform="matrix(10.4,0,0,10.4,520.3,341.1)" />
<use xlink:href="#f1_1x" transform="matrix(10.4,0,0,10.4,523.7,341.1)" />
<use xlink:href="#f1_2g" transform="matrix(10.4,0,0,10.4,532.5,341.1)" />
<use xlink:href="#f1_21" transform="matrix(10.4,0,0,10.4,536.9,341.1)" />
<use xlink:href="#f1_2g" transform="matrix(10.4,0,0,10.4,553.1,341.1)" />
<use xlink:href="#f1_24" transform="matrix(10.4,0,0,10.4,557.5,341.1)" />
<use xlink:href="#f1_21" transform="matrix(10.4,0,0,10.4,566.3,341.1)" />
<use xlink:href="#f1_1x" transform="matrix(10.4,0,0,10.4,582.4,341.1)" />
<use xlink:href="#f1_29" transform="matrix(10.4,0,0,10.4,591.2,341.1)" />
<use xlink:href="#f1_2b" transform="matrix(10.4,0,0,10.4,604.8,341.1)" />
<use xlink:href="#f1_2h" transform="matrix(10.4,0,0,10.4,613.6,341.1)" />
<use xlink:href="#f1_2a" transform="matrix(10.4,0,0,10.4,622.4,341.1)" />
<use xlink:href="#f1_2g" transform="matrix(10.4,0,0,10.4,631.2,341.1)" />
<use xlink:href="#f1_2b" transform="matrix(10.4,0,0,10.4,99.4,362.2)" />
<use xlink:href="#f1_22" transform="matrix(10.4,0,0,10.4,108.2,362.2)" />
<use xlink:href="#f1_2g" transform="matrix(10.4,0,0,10.4,120.3,362.2)" />
<use xlink:href="#f1_24" transform="matrix(10.4,0,0,10.4,124.7,362.2)" />
<use xlink:href="#f1_21" transform="matrix(10.4,0,0,10.4,133.5,362.2)" />
<use xlink:href="#f1_23" transform="matrix(10.4,0,0,10.4,149.6,362.2)" />
<use xlink:href="#f1_1x" transform="matrix(10.4,0,0,10.4,158.4,362.2)" />
<use xlink:href="#f1_2f" transform="matrix(10.4,0,0,10.4,167.2,362.2)" />
<use xlink:href="#f1_1x" transform="matrix(10.4,0,0,10.4,182.8,362.2)" />
<use xlink:href="#f1_1y" transform="matrix(10.4,0,0,10.4,191.6,362.2)" />
<use xlink:href="#f1_2f" transform="matrix(10.4,0,0,10.4,200.4,362.2)" />
<use xlink:href="#f1_2b" transform="matrix(10.4,0,0,10.4,208.4,362.2)" />
<use xlink:href="#f1_2e" transform="matrix(10.4,0,0,10.4,217.2,362.2)" />
<use xlink:href="#f1_1y" transform="matrix(10.4,0,0,10.4,222.6,362.2)" />
<use xlink:href="#f1_21" transform="matrix(10.4,0,0,10.4,231.4,362.2)" />
<use xlink:href="#f1_20" transform="matrix(10.4,0,0,10.4,240.2,362.2)" />
<use xlink:href="#f1_2c" transform="matrix(10.4,0,0,10.4,256.5,362.2)" />
<use xlink:href="#f1_21" transform="matrix(10.4,0,0,10.4,265.3,362.2)" />
<use xlink:href="#f1_2e" transform="matrix(10.4,0,0,10.4,274.1,362.2)" />
<use xlink:href="#f1_23" transform="matrix(10.4,0,0,10.4,286.7,362.2)" />
<use xlink:href="#f1_2e" transform="matrix(10.4,0,0,10.4,295.5,362.2)" />
<use xlink:href="#f1_1x" transform="matrix(10.4,0,0,10.4,300.8,362.2)" />
<use xlink:href="#f1_29" transform="matrix(10.4,0,0,10.4,309.6,362.2)" />
<use xlink:href="#f1_2b" transform="matrix(10.4,0,0,10.4,330.7,362.2)" />
<use xlink:href="#f1_22" transform="matrix(10.4,0,0,10.4,339.5,362.2)" />
<use xlink:href="#f1_2g" transform="matrix(10.4,0,0,10.4,351.6,362.2)" />
<use xlink:href="#f1_24" transform="matrix(10.4,0,0,10.4,356,362.2)" />
<use xlink:href="#f1_21" transform="matrix(10.4,0,0,10.4,364.8,362.2)" />
<use xlink:href="#f1_1x" transform="matrix(10.4,0,0,10.4,381.1,362.2)" />
<use xlink:href="#f1_20" transform="matrix(10.4,0,0,10.4,389.9,362.2)" />
<use xlink:href="#f1_2f" transform="matrix(10.4,0,0,10.4,398.7,362.2)" />
<use xlink:href="#f1_2b" transform="matrix(10.4,0,0,10.4,406.8,362.2)" />
<use xlink:href="#f1_2e" transform="matrix(10.4,0,0,10.4,415.6,362.2)" />
<use xlink:href="#f1_1y" transform="matrix(10.4,0,0,10.4,420.9,362.2)" />
<use xlink:href="#f1_21" transform="matrix(10.4,0,0,10.4,429.7,362.2)" />
<use xlink:href="#f1_2a" transform="matrix(10.4,0,0,10.4,438.5,362.2)" />
<use xlink:href="#f1_2g" transform="matrix(10.4,0,0,10.4,447.3,362.2)" />
<use xlink:href="#f1_2h" transform="matrix(10.4,0,0,10.4,459,362.2)" />
<use xlink:href="#f1_2a" transform="matrix(10.4,0,0,10.4,467.8,362.2)" />
<use xlink:href="#f1_20" transform="matrix(10.4,0,0,10.4,476.6,362.2)" />
<use xlink:href="#f1_21" transform="matrix(10.4,0,0,10.4,485.4,362.2)" />
<use xlink:href="#f1_2e" transform="matrix(10.4,0,0,10.4,494.2,362.2)" />
<use xlink:href="#f1_1x" transform="matrix(10.4,0,0,10.4,507.1,362.2)" />
<use xlink:href="#f1_2c" transform="matrix(10.4,0,0,10.4,523.4,362.2)" />
<use xlink:href="#f1_2e" transform="matrix(10.4,0,0,10.4,532.2,362.2)" />
<use xlink:href="#f1_21" transform="matrix(10.4,0,0,10.4,537.5,362.2)" />
<use xlink:href="#f1_2f" transform="matrix(10.4,0,0,10.4,546.3,362.2)" />
<use xlink:href="#f1_2f" transform="matrix(10.4,0,0,10.4,554.4,362.2)" />
<use xlink:href="#f1_2h" transform="matrix(10.4,0,0,10.4,562.4,362.2)" />
<use xlink:href="#f1_2e" transform="matrix(10.4,0,0,10.4,571.2,362.2)" />
<use xlink:href="#f1_21" transform="matrix(10.4,0,0,10.4,576.5,362.2)" />
<use xlink:href="#f1_2b" transform="matrix(10.4,0,0,10.4,592.7,362.2)" />
<use xlink:href="#f1_22" transform="matrix(10.4,0,0,10.4,601.5,362.2)" />
<use xlink:href="#f1_k" transform="matrix(10.4,0,0,10.4,613.6,362.2)" />
<use xlink:href="#f1_i" transform="matrix(10.4,0,0,10.4,622.4,362.2)" />
<use xlink:href="#f1_p" transform="matrix(10.4,0,0,10.4,626.8,362.2)" />
<use xlink:href="#f1_1x" transform="matrix(10.4,0,0,10.4,99.4,383.1)" />
<use xlink:href="#f1_2g" transform="matrix(10.4,0,0,10.4,108.4,383.1)" />
<use xlink:href="#f1_29" transform="matrix(10.4,0,0,10.4,112.9,383.1)" />
<use xlink:href="#f1_2b" transform="matrix(10.4,0,0,10.4,126.7,383.1)" />
<use xlink:href="#f1_2f" transform="matrix(10.4,0,0,10.4,135.7,383.1)" />
<use xlink:href="#f1_2c" transform="matrix(10.4,0,0,10.4,143.9,383.1)" />
<use xlink:href="#f1_24" transform="matrix(10.4,0,0,10.4,153.1,383.1)" />
<use xlink:href="#f1_21" transform="matrix(10.4,0,0,10.4,162.1,383.1)" />
<use xlink:href="#f1_2e" transform="matrix(10.4,0,0,10.4,171,383.1)" />
<use xlink:href="#f1_21" transform="matrix(10.4,0,0,10.4,176.5,383.1)" />
<use xlink:href="#f1_i" transform="matrix(10.4,0,0,10.4,185.5,383.1)" />
</g>
<image preserveAspectRatio="none" x="141" y="395" width="410" height="17" xlink:href="img/1.png" />
<image preserveAspectRatio="none" x="141" y="411" width="410" height="17" xlink:href="img/2.png" />
<image preserveAspectRatio="none" x="141" y="428" width="410" height="17" xlink:href="img/3.png" />
<image preserveAspectRatio="none" x="141" y="444" width="410" height="17" xlink:href="img/4.png" />
<image preserveAspectRatio="none" x="141" y="461" width="410" height="17" xlink:href="img/5.png" />
<image preserveAspectRatio="none" x="141" y="477" width="410" height="17" xlink:href="img/6.png" />
<image preserveAspectRatio="none" x="141" y="494" width="410" height="16" xlink:href="img/7.png" />
<g fill="#000000" >
<use xlink:href="#f1_p" transform="matrix(10.4,0,0,10.4,56.1,535.2)" />
<use xlink:href="#f1_k" transform="matrix(10.4,0,0,10.4,65.3,535.2)" />
<use xlink:href="#f1_i" transform="matrix(10.4,0,0,10.4,74.6,535.2)" />
<use xlink:href="#f1_1d" transform="matrix(10.4,0,0,10.4,99.4,535.2)" />
<use xlink:href="#f1_21" transform="matrix(10.4,0,0,10.4,112.4,535.2)" />
<use xlink:href="#f1_2a" transform="matrix(10.4,0,0,10.4,121.2,535.2)" />
<use xlink:href="#f1_2g" transform="matrix(10.4,0,0,10.4,130,535.2)" />
<use xlink:href="#f1_25" transform="matrix(10.4,0,0,10.4,134.4,535.2)" />
<use xlink:href="#f1_2b" transform="matrix(10.4,0,0,10.4,137.9,535.2)" />
<use xlink:href="#f1_2a" transform="matrix(10.4,0,0,10.4,146.7,535.2)" />
<use xlink:href="#f1_2g" transform="matrix(10.4,0,0,10.4,161.3,535.2)" />
<use xlink:href="#f1_24" transform="matrix(10.4,0,0,10.4,165.7,535.2)" />
<use xlink:href="#f1_21" transform="matrix(10.4,0,0,10.4,174.5,535.2)" />
<use xlink:href="#f1_2g" transform="matrix(10.4,0,0,10.4,189.4,535.2)" />
<use xlink:href="#f1_2j" transform="matrix(10.4,0,0,10.4,193.8,535.2)" />
<use xlink:href="#f1_2b" transform="matrix(10.4,0,0,10.4,205,535.2)" />
<use xlink:href="#f1_2a" transform="matrix(10.4,0,0,10.4,219.6,535.2)" />
<use xlink:href="#f1_21" transform="matrix(10.4,0,0,10.4,228.4,535.2)" />
<use xlink:href="#f1_1z" transform="matrix(10.4,0,0,10.4,237.2,535.2)" />
<use xlink:href="#f1_21" transform="matrix(10.4,0,0,10.4,245.3,535.2)" />
<use xlink:href="#f1_2f" transform="matrix(10.4,0,0,10.4,254.1,535.2)" />
<use xlink:href="#f1_2f" transform="matrix(10.4,0,0,10.4,262.2,535.2)" />
<use xlink:href="#f1_1x" transform="matrix(10.4,0,0,10.4,270.2,535.2)" />
<use xlink:href="#f1_2e" transform="matrix(10.4,0,0,10.4,279,535.2)" />
<use xlink:href="#f1_2l" transform="matrix(10.4,0,0,10.4,284.3,535.2)" />
<use xlink:href="#f1_1z" transform="matrix(10.4,0,0,10.4,297.9,535.2)" />
<use xlink:href="#f1_2b" transform="matrix(10.4,0,0,10.4,306,535.2)" />
<use xlink:href="#f1_2a" transform="matrix(10.4,0,0,10.4,314.8,535.2)" />
<use xlink:href="#f1_20" transform="matrix(10.4,0,0,10.4,323.6,535.2)" />
<use xlink:href="#f1_25" transform="matrix(10.4,0,0,10.4,332.4,535.2)" />
<use xlink:href="#f1_2g" transform="matrix(10.4,0,0,10.4,335.8,535.2)" />
<use xlink:href="#f1_25" transform="matrix(10.4,0,0,10.4,340.2,535.2)" />
<use xlink:href="#f1_2b" transform="matrix(10.4,0,0,10.4,343.7,535.2)" />
<use xlink:href="#f1_2a" transform="matrix(10.4,0,0,10.4,352.5,535.2)" />
<use xlink:href="#f1_2f" transform="matrix(10.4,0,0,10.4,361.3,535.2)" />
<use xlink:href="#f1_22" transform="matrix(10.4,0,0,10.4,375.3,535.2)" />
<use xlink:href="#f1_2b" transform="matrix(10.4,0,0,10.4,379.8,535.2)" />
<use xlink:href="#f1_2e" transform="matrix(10.4,0,0,10.4,388.6,535.2)" />
<use xlink:href="#f1_2g" transform="matrix(10.4,0,0,10.4,399.8,535.2)" />
<use xlink:href="#f1_24" transform="matrix(10.4,0,0,10.4,404.2,535.2)" />
<use xlink:href="#f1_21" transform="matrix(10.4,0,0,10.4,413,535.2)" />
<use xlink:href="#f1_2b" transform="matrix(10.4,0,0,10.4,427.9,535.2)" />
<use xlink:href="#f1_1y" transform="matrix(10.4,0,0,10.4,436.7,535.2)" />
<use xlink:href="#f1_2f" transform="matrix(10.4,0,0,10.4,445.5,535.2)" />
<use xlink:href="#f1_21" transform="matrix(10.4,0,0,10.4,453.5,535.2)" />
<use xlink:href="#f1_2e" transform="matrix(10.4,0,0,10.4,462.3,535.2)" />
<use xlink:href="#f1_2i" transform="matrix(10.4,0,0,10.4,467.6,535.2)" />
<use xlink:href="#f1_1x" transform="matrix(10.4,0,0,10.4,475.5,535.2)" />
<use xlink:href="#f1_2g" transform="matrix(10.4,0,0,10.4,484.3,535.2)" />
<use xlink:href="#f1_25" transform="matrix(10.4,0,0,10.4,488.7,535.2)" />
<use xlink:href="#f1_2b" transform="matrix(10.4,0,0,10.4,492.2,535.2)" />
<use xlink:href="#f1_2a" transform="matrix(10.4,0,0,10.4,501,535.2)" />
<use xlink:href="#f1_2b" transform="matrix(10.4,0,0,10.4,515.7,535.2)" />
<use xlink:href="#f1_22" transform="matrix(10.4,0,0,10.4,524.5,535.2)" />
<use xlink:href="#f1_1k" transform="matrix(10.4,0,0,10.4,534.7,535.2)" />
<use xlink:href="#f1_2l" transform="matrix(10.4,0,0,10.4,543.7,535.2)" />
<use xlink:href="#f1_2a" transform="matrix(10.4,0,0,10.4,551.2,535.2)" />
<use xlink:href="#f1_20" transform="matrix(10.4,0,0,10.4,560,535.2)" />
<use xlink:href="#f1_1x" transform="matrix(10.4,0,0,10.4,568.8,535.2)" />
<use xlink:href="#f1_28" transform="matrix(10.4,0,0,10.4,577.6,535.2)" />
<use xlink:href="#f1_28" transform="matrix(10.4,0,0,10.4,581.1,535.2)" />
<use xlink:href="#f1_15" transform="matrix(10.4,0,0,10.4,590.5,535.2)" />
<use xlink:href="#f1_22" transform="matrix(10.4,0,0,10.4,601.1,535.2)" />
<use xlink:href="#f1_22" transform="matrix(10.4,0,0,10.4,605.3,535.2)" />
<use xlink:href="#f1_21" transform="matrix(10.4,0,0,10.4,609.9,535.2)" />
<use xlink:href="#f1_1z" transform="matrix(10.4,0,0,10.4,618.7,535.2)" />
<use xlink:href="#f1_2g" transform="matrix(10.4,0,0,10.4,626.8,535.2)" />
<use xlink:href="#f1_i" transform="matrix(10.4,0,0,10.4,631.2,535.2)" />
<use xlink:href="#f1_p" transform="matrix(10.4,0,0,10.4,56.1,565.3)" />
<use xlink:href="#f1_l" transform="matrix(10.4,0,0,10.4,65.3,565.3)" />
<use xlink:href="#f1_i" transform="matrix(10.4,0,0,10.4,74.6,565.3)" />
<use xlink:href="#f1_11" transform="matrix(10.4,0,0,10.4,99.4,565.3)" />
<use xlink:href="#f1_1z" transform="matrix(10.4,0,0,10.4,110,565.3)" />
<use xlink:href="#f1_1z" transform="matrix(10.4,0,0,10.4,118.1,565.3)" />
<use xlink:href="#f1_2b" transform="matrix(10.4,0,0,10.4,126.1,565.3)" />
<use xlink:href="#f1_2h" transform="matrix(10.4,0,0,10.4,134.9,565.3)" />
<use xlink:href="#f1_2a" transform="matrix(10.4,0,0,10.4,143.7,565.3)" />
<use xlink:href="#f1_2g" transform="matrix(10.4,0,0,10.4,152.5,565.3)" />
<use xlink:href="#f1_22" transform="matrix(10.4,0,0,10.4,164.6,565.3)" />
<use xlink:href="#f1_2b" transform="matrix(10.4,0,0,10.4,169.2,565.3)" />
<use xlink:href="#f1_2e" transform="matrix(10.4,0,0,10.4,178,565.3)" />
<use xlink:href="#f1_2g" transform="matrix(10.4,0,0,10.4,191,565.3)" />
<use xlink:href="#f1_24" transform="matrix(10.4,0,0,10.4,195.4,565.3)" />
<use xlink:href="#f1_21" transform="matrix(10.4,0,0,10.4,204.2,565.3)" />
<use xlink:href="#f1_22" transform="matrix(10.4,0,0,10.4,220.7,565.3)" />
<use xlink:href="#f1_2b" transform="matrix(10.4,0,0,10.4,225.3,565.3)" />
<use xlink:href="#f1_28" transform="matrix(10.4,0,0,10.4,234.1,565.3)" />
<use xlink:href="#f1_28" transform="matrix(10.4,0,0,10.4,237.6,565.3)" />
<use xlink:href="#f1_2b" transform="matrix(10.4,0,0,10.4,241.1,565.3)" />
<use xlink:href="#f1_2j" transform="matrix(10.4,0,0,10.4,249.9,565.3)" />
<use xlink:href="#f1_25" transform="matrix(10.4,0,0,10.4,261.1,565.3)" />
<use xlink:href="#f1_2a" transform="matrix(10.4,0,0,10.4,264.5,565.3)" />
<use xlink:href="#f1_23" transform="matrix(10.4,0,0,10.4,273.3,565.3)" />
<use xlink:href="#f1_u" transform="matrix(10.4,0,0,10.4,289.8,565.3)" />
<use xlink:href="#f1_c" transform="matrix(10.4,0,0,10.4,99.4,595.4)" />
<use xlink:href="#f1_1x" transform="matrix(10.4,0,0,10.4,105.2,595.4)" />
<use xlink:href="#f1_d" transform="matrix(10.4,0,0,10.4,114.8,595.4)" />
<use xlink:href="#f1_11" transform="matrix(10.4,0,0,10.4,142.6,595.4)" />
<use xlink:href="#f1_2e" transform="matrix(10.4,0,0,10.4,153.5,595.4)" />
<use xlink:href="#f1_2g" transform="matrix(10.4,0,0,10.4,159,595.4)" />
<use xlink:href="#f1_25" transform="matrix(10.4,0,0,10.4,163.5,595.4)" />
<use xlink:href="#f1_22" transform="matrix(10.4,0,0,10.4,167,595.4)" />
<use xlink:href="#f1_25" transform="matrix(10.4,0,0,10.4,171.8,595.4)" />
<use xlink:href="#f1_1z" transform="matrix(10.4,0,0,10.4,175.4,595.4)" />
<use xlink:href="#f1_25" transform="matrix(10.4,0,0,10.4,183.7,595.4)" />
<use xlink:href="#f1_1x" transform="matrix(10.4,0,0,10.4,187.4,595.4)" />
<use xlink:href="#f1_28" transform="matrix(10.4,0,0,10.4,196.3,595.4)" />
<use xlink:href="#f1_2e" transform="matrix(10.4,0,0,10.4,208.8,595.4)" />
<use xlink:href="#f1_1x" transform="matrix(10.4,0,0,10.4,214.3,595.4)" />
<use xlink:href="#f1_25" transform="matrix(10.4,0,0,10.4,223.3,595.4)" />
<use xlink:href="#f1_2a" transform="matrix(10.4,0,0,10.4,227,595.4)" />
<use xlink:href="#f1_1z" transform="matrix(10.4,0,0,10.4,244.9,595.4)" />
<use xlink:href="#f1_1x" transform="matrix(10.4,0,0,10.4,253.2,595.4)" />
<use xlink:href="#f1_2a" transform="matrix(10.4,0,0,10.4,262,595.4)" />
<use xlink:href="#f1_1y" transform="matrix(10.4,0,0,10.4,279.9,595.4)" />
<use xlink:href="#f1_21" transform="matrix(10.4,0,0,10.4,288.9,595.4)" />
<use xlink:href="#f1_1z" transform="matrix(10.4,0,0,10.4,306.9,595.4)" />
<use xlink:href="#f1_1x" transform="matrix(10.4,0,0,10.4,315.1,595.4)" />
<use xlink:href="#f1_2h" transform="matrix(10.4,0,0,10.4,323.9,595.4)" />
<use xlink:href="#f1_2f" transform="matrix(10.4,0,0,10.4,332.9,595.4)" />
<use xlink:href="#f1_21" transform="matrix(10.4,0,0,10.4,341.1,595.4)" />
<use xlink:href="#f1_20" transform="matrix(10.4,0,0,10.4,350.1,595.4)" />
<use xlink:href="#f1_1y" transform="matrix(10.4,0,0,10.4,368.1,595.4)" />
<use xlink:href="#f1_2l" transform="matrix(10.4,0,0,10.4,377.1,595.4)" />
<use xlink:href="#f1_2f" transform="matrix(10.4,0,0,10.4,393.6,595.4)" />
<use xlink:href="#f1_2c" transform="matrix(10.4,0,0,10.4,401.8,595.4)" />
<use xlink:href="#f1_2e" transform="matrix(10.4,0,0,10.4,410.8,595.4)" />
<use xlink:href="#f1_1x" transform="matrix(10.4,0,0,10.4,416.3,595.4)" />
<use xlink:href="#f1_2l" transform="matrix(10.4,0,0,10.4,425.3,595.4)" />
<use xlink:href="#f1_25" transform="matrix(10.4,0,0,10.4,433,595.4)" />
<use xlink:href="#f1_2a" transform="matrix(10.4,0,0,10.4,436.6,595.4)" />
<use xlink:href="#f1_23" transform="matrix(10.4,0,0,10.4,445.4,595.4)" />
<use xlink:href="#f1_21" transform="matrix(10.4,0,0,10.4,463.4,595.4)" />
<use xlink:href="#f1_28" transform="matrix(10.4,0,0,10.4,472.4,595.4)" />
<use xlink:href="#f1_21" transform="matrix(10.4,0,0,10.4,476.1,595.4)" />
<use xlink:href="#f1_1z" transform="matrix(10.4,0,0,10.4,485,595.4)" />
<use xlink:href="#f1_2g" transform="matrix(10.4,0,0,10.4,493.3,595.4)" />
<use xlink:href="#f1_2e" transform="matrix(10.4,0,0,10.4,497.7,595.4)" />
<use xlink:href="#f1_25" transform="matrix(10.4,0,0,10.4,503.2,595.4)" />
<use xlink:href="#f1_22" transform="matrix(10.4,0,0,10.4,506.8,595.4)" />
<use xlink:href="#f1_25" transform="matrix(10.4,0,0,10.4,511.6,595.4)" />
<use xlink:href="#f1_21" transform="matrix(10.4,0,0,10.4,515.3,595.4)" />
<use xlink:href="#f1_20" transform="matrix(10.4,0,0,10.4,524.3,595.4)" />
<use xlink:href="#f1_2f" transform="matrix(10.4,0,0,10.4,542,595.4)" />
<use xlink:href="#f1_1x" transform="matrix(10.4,0,0,10.4,550.3,595.4)" />
<use xlink:href="#f1_2a" transform="matrix(10.4,0,0,10.4,559.3,595.4)" />
<use xlink:href="#f1_20" transform="matrix(10.4,0,0,10.4,568.2,595.4)" />
<use xlink:href="#f1_2b" transform="matrix(10.4,0,0,10.4,586.2,595.4)" />
<use xlink:href="#f1_2a" transform="matrix(10.4,0,0,10.4,595.2,595.4)" />
<use xlink:href="#f1_2g" transform="matrix(10.4,0,0,10.4,613,595.4)" />
<use xlink:href="#f1_24" transform="matrix(10.4,0,0,10.4,617.6,595.4)" />
<use xlink:href="#f1_21" transform="matrix(10.4,0,0,10.4,626.5,595.4)" />
<use xlink:href="#f1_1z" transform="matrix(10.4,0,0,10.4,142.6,616.3)" />
<use xlink:href="#f1_28" transform="matrix(10.4,0,0,10.4,150.9,616.3)" />
<use xlink:href="#f1_2b" transform="matrix(10.4,0,0,10.4,154.6,616.3)" />
<use xlink:href="#f1_2h" transform="matrix(10.4,0,0,10.4,163.5,616.3)" />
<use xlink:href="#f1_20" transform="matrix(10.4,0,0,10.4,172.5,616.3)" />
<use xlink:href="#f1_2f" transform="matrix(10.4,0,0,10.4,181.5,616.3)" />
<use xlink:href="#f1_i" transform="matrix(10.4,0,0,10.4,189.7,616.3)" />
<use xlink:href="#f1_c" transform="matrix(10.4,0,0,10.4,99.4,646.3)" />
<use xlink:href="#f1_1y" transform="matrix(10.4,0,0,10.4,105.2,646.3)" />
<use xlink:href="#f1_d" transform="matrix(10.4,0,0,10.4,114.8,646.3)" />
<use xlink:href="#f1_15" transform="matrix(10.4,0,0,10.4,142.6,646.3)" />
<use xlink:href="#f1_28" transform="matrix(10.4,0,0,10.4,153.3,646.3)" />
<use xlink:href="#f1_21" transform="matrix(10.4,0,0,10.4,156.8,646.3)" />
<use xlink:href="#f1_1z" transform="matrix(10.4,0,0,10.4,165.6,646.3)" />
<use xlink:href="#f1_2g" transform="matrix(10.4,0,0,10.4,173.6,646.3)" />
<use xlink:href="#f1_2e" transform="matrix(10.4,0,0,10.4,178,646.3)" />
<use xlink:href="#f1_25" transform="matrix(10.4,0,0,10.4,183.3,646.3)" />
<use xlink:href="#f1_1z" transform="matrix(10.4,0,0,10.4,186.8,646.3)" />
<use xlink:href="#f1_1x" transform="matrix(10.4,0,0,10.4,194.9,646.3)" />
<use xlink:href="#f1_28" transform="matrix(10.4,0,0,10.4,203.7,646.3)" />
<use xlink:href="#f1_2c" transform="matrix(10.4,0,0,10.4,215.2,646.3)" />
<use xlink:href="#f1_2e" transform="matrix(10.4,0,0,10.4,224,646.3)" />
<use xlink:href="#f1_21" transform="matrix(10.4,0,0,10.4,229.3,646.3)" />
<use xlink:href="#f1_1z" transform="matrix(10.4,0,0,10.4,238.1,646.3)" />
<use xlink:href="#f1_25" transform="matrix(10.4,0,0,10.4,246.2,646.3)" />
<use xlink:href="#f1_2c" transform="matrix(10.4,0,0,10.4,249.7,646.3)" />
<use xlink:href="#f1_25" transform="matrix(10.4,0,0,10.4,258.5,646.3)" />
<use xlink:href="#f1_2g" transform="matrix(10.4,0,0,10.4,262,646.3)" />
<use xlink:href="#f1_1x" transform="matrix(10.4,0,0,10.4,266.4,646.3)" />
<use xlink:href="#f1_2g" transform="matrix(10.4,0,0,10.4,275.2,646.3)" />
<use xlink:href="#f1_25" transform="matrix(10.4,0,0,10.4,279.6,646.3)" />
<use xlink:href="#f1_2b" transform="matrix(10.4,0,0,10.4,283.1,646.3)" />
<use xlink:href="#f1_2a" transform="matrix(10.4,0,0,10.4,291.9,646.3)" />
<use xlink:href="#f1_2b" transform="matrix(10.4,0,0,10.4,308.9,646.3)" />
<use xlink:href="#f1_22" transform="matrix(10.4,0,0,10.4,317.7,646.3)" />
<use xlink:href="#f1_2f" transform="matrix(10.4,0,0,10.4,330.4,646.3)" />
<use xlink:href="#f1_29" transform="matrix(10.4,0,0,10.4,338.4,646.3)" />
<use xlink:href="#f1_2b" transform="matrix(10.4,0,0,10.4,352,646.3)" />
<use xlink:href="#f1_27" transform="matrix(10.4,0,0,10.4,360.8,646.3)" />
<use xlink:href="#f1_21" transform="matrix(10.4,0,0,10.4,368.8,646.3)" />
<use xlink:href="#f1_i" transform="matrix(10.4,0,0,10.4,377.6,646.3)" />
<use xlink:href="#f1_p" transform="matrix(10.4,0,0,10.4,56.1,676.2)" />
<use xlink:href="#f1_m" transform="matrix(10.4,0,0,10.4,65.3,676.2)" />
<use xlink:href="#f1_i" transform="matrix(10.4,0,0,10.4,74.6,676.2)" />
<use xlink:href="#f1_1n" transform="matrix(10.4,0,0,10.4,99.4,676.2)" />
<use xlink:href="#f1_2e" transform="matrix(10.4,0,0,10.4,115.3,676.2)" />
<use xlink:href="#f1_25" transform="matrix(10.4,0,0,10.4,120.6,676.2)" />
<use xlink:href="#f1_2g" transform="matrix(10.4,0,0,10.4,124.1,676.2)" />
<use xlink:href="#f1_21" transform="matrix(10.4,0,0,10.4,128.5,676.2)" />
<use xlink:href="#f1_1z" transform="matrix(10.4,0,0,10.4,145.2,676.2)" />
<use xlink:href="#f1_24" transform="matrix(10.4,0,0,10.4,153.3,676.2)" />
<use xlink:href="#f1_21" transform="matrix(10.4,0,0,10.4,162.1,676.2)" />
<use xlink:href="#f1_29" transform="matrix(10.4,0,0,10.4,170.9,676.2)" />
<use xlink:href="#f1_25" transform="matrix(10.4,0,0,10.4,184.4,676.2)" />
<use xlink:href="#f1_1z" transform="matrix(10.4,0,0,10.4,187.9,676.2)" />
<use xlink:href="#f1_1x" transform="matrix(10.4,0,0,10.4,196,676.2)" />
<use xlink:href="#f1_28" transform="matrix(10.4,0,0,10.4,204.8,676.2)" />
<use xlink:href="#f1_21" transform="matrix(10.4,0,0,10.4,216.1,676.2)" />
<use xlink:href="#f1_2d" transform="matrix(10.4,0,0,10.4,224.9,676.2)" />
<use xlink:href="#f1_2h" transform="matrix(10.4,0,0,10.4,233.7,676.2)" />
<use xlink:href="#f1_1x" transform="matrix(10.4,0,0,10.4,242.5,676.2)" />
<use xlink:href="#f1_2g" transform="matrix(10.4,0,0,10.4,251.3,676.2)" />
<use xlink:href="#f1_25" transform="matrix(10.4,0,0,10.4,255.7,676.2)" />
<use xlink:href="#f1_2b" transform="matrix(10.4,0,0,10.4,259.2,676.2)" />
<use xlink:href="#f1_2a" transform="matrix(10.4,0,0,10.4,268,676.2)" />
<use xlink:href="#f1_2f" transform="matrix(10.4,0,0,10.4,276.8,676.2)" />
<use xlink:href="#f1_22" transform="matrix(10.4,0,0,10.4,292.8,676.2)" />
<use xlink:href="#f1_2b" transform="matrix(10.4,0,0,10.4,297.4,676.2)" />
<use xlink:href="#f1_2e" transform="matrix(10.4,0,0,10.4,306.2,676.2)" />
<use xlink:href="#f1_2g" transform="matrix(10.4,0,0,10.4,319.3,676.2)" />
<use xlink:href="#f1_24" transform="matrix(10.4,0,0,10.4,323.7,676.2)" />
<use xlink:href="#f1_21" transform="matrix(10.4,0,0,10.4,332.5,676.2)" />
<use xlink:href="#f1_2c" transform="matrix(10.4,0,0,10.4,349.2,676.2)" />
<use xlink:href="#f1_2e" transform="matrix(10.4,0,0,10.4,358,676.2)" />
<use xlink:href="#f1_21" transform="matrix(10.4,0,0,10.4,363.3,676.2)" />
<use xlink:href="#f1_2c" transform="matrix(10.4,0,0,10.4,372.1,676.2)" />
<use xlink:href="#f1_1x" transform="matrix(10.4,0,0,10.4,380.9,676.2)" />
<use xlink:href="#f1_2e" transform="matrix(10.4,0,0,10.4,389.7,676.2)" />
<use xlink:href="#f1_1x" transform="matrix(10.4,0,0,10.4,395.1,676.2)" />
<use xlink:href="#f1_2g" transform="matrix(10.4,0,0,10.4,403.9,676.2)" />
<use xlink:href="#f1_25" transform="matrix(10.4,0,0,10.4,408.3,676.2)" />
<use xlink:href="#f1_2b" transform="matrix(10.4,0,0,10.4,411.7,676.2)" />
<use xlink:href="#f1_2a" transform="matrix(10.4,0,0,10.4,420.5,676.2)" />
<use xlink:href="#f1_2b" transform="matrix(10.4,0,0,10.4,437.2,676.2)" />
<use xlink:href="#f1_22" transform="matrix(10.4,0,0,10.4,446,676.2)" />
<use xlink:href="#f1_2f" transform="matrix(10.4,0,0,10.4,458.5,676.2)" />
<use xlink:href="#f1_2b" transform="matrix(10.4,0,0,10.4,466.6,676.2)" />
<use xlink:href="#f1_28" transform="matrix(10.4,0,0,10.4,475.4,676.2)" />
<use xlink:href="#f1_2f" transform="matrix(10.4,0,0,10.4,478.8,676.2)" />
<use xlink:href="#f1_u" transform="matrix(10.4,0,0,10.4,494.8,676.2)" />
<use xlink:href="#f1_c" transform="matrix(10.4,0,0,10.4,99.4,706.3)" />
<use xlink:href="#f1_1x" transform="matrix(10.4,0,0,10.4,105.2,706.3)" />
<use xlink:href="#f1_d" transform="matrix(10.4,0,0,10.4,114.8,706.3)" />
<use xlink:href="#f1_17" transform="matrix(10.4,0,0,10.4,142.6,706.3)" />
<use xlink:href="#f1_2b" transform="matrix(10.4,0,0,10.4,155.1,706.3)" />
<use xlink:href="#f1_28" transform="matrix(10.4,0,0,10.4,163.9,706.3)" />
<use xlink:href="#f1_20" transform="matrix(10.4,0,0,10.4,167.4,706.3)" />
<use xlink:href="#f1_2f" transform="matrix(10.4,0,0,10.4,184.6,706.3)" />
<use xlink:href="#f1_2b" transform="matrix(10.4,0,0,10.4,192.7,706.3)" />
<use xlink:href="#f1_28" transform="matrix(10.4,0,0,10.4,201.5,706.3)" />
<use xlink:href="#f1_1y" transform="matrix(10.4,0,0,10.4,213.2,706.3)" />
<use xlink:href="#f1_2l" transform="matrix(10.4,0,0,10.4,222,706.3)" />
<use xlink:href="#f1_2e" transform="matrix(10.4,0,0,10.4,238,706.3)" />
<use xlink:href="#f1_21" transform="matrix(10.4,0,0,10.4,243.3,706.3)" />
<use xlink:href="#f1_20" transform="matrix(10.4,0,0,10.4,252.1,706.3)" />
<use xlink:href="#f1_2h" transform="matrix(10.4,0,0,10.4,260.9,706.3)" />
<use xlink:href="#f1_1z" transform="matrix(10.4,0,0,10.4,269.7,706.3)" />
<use xlink:href="#f1_2g" transform="matrix(10.4,0,0,10.4,277.7,706.3)" />
<use xlink:href="#f1_25" transform="matrix(10.4,0,0,10.4,282.1,706.3)" />
<use xlink:href="#f1_2b" transform="matrix(10.4,0,0,10.4,285.6,706.3)" />
<use xlink:href="#f1_2a" transform="matrix(10.4,0,0,10.4,294.4,706.3)" />
<use xlink:href="#f1_i" transform="matrix(10.4,0,0,10.4,303.2,706.3)" />
<use xlink:href="#f1_c" transform="matrix(10.4,0,0,10.4,99.4,736.4)" />
<use xlink:href="#f1_1y" transform="matrix(10.4,0,0,10.4,105.2,736.4)" />
<use xlink:href="#f1_d" transform="matrix(10.4,0,0,10.4,114.8,736.4)" />
<use xlink:href="#f1_24" transform="matrix(10.4,0,0,10.4,142.6,736.4)" />
<use xlink:href="#f1_2l" transform="matrix(10.4,0,0,10.4,151.4,736.4)" />
<use xlink:href="#f1_20" transform="matrix(10.4,0,0,10.4,159,736.4)" />
<use xlink:href="#f1_2e" transform="matrix(10.4,0,0,10.4,167.8,736.4)" />
<use xlink:href="#f1_1x" transform="matrix(10.4,0,0,10.4,173.1,736.4)" />
<use xlink:href="#f1_2g" transform="matrix(10.4,0,0,10.4,181.9,736.4)" />
<use xlink:href="#f1_21" transform="matrix(10.4,0,0,10.4,186.3,736.4)" />
<use xlink:href="#f1_20" transform="matrix(10.4,0,0,10.4,195.1,736.4)" />
<use xlink:href="#f1_22" transform="matrix(10.4,0,0,10.4,212.3,736.4)" />
<use xlink:href="#f1_21" transform="matrix(10.4,0,0,10.4,216.9,736.4)" />
<use xlink:href="#f1_2e" transform="matrix(10.4,0,0,10.4,225.7,736.4)" />
<use xlink:href="#f1_2e" transform="matrix(10.4,0,0,10.4,231,736.4)" />
<use xlink:href="#f1_25" transform="matrix(10.4,0,0,10.4,236.3,736.4)" />
<use xlink:href="#f1_1z" transform="matrix(10.4,0,0,10.4,239.8,736.4)" />
<use xlink:href="#f1_2b" transform="matrix(10.4,0,0,10.4,256.3,736.4)" />
<use xlink:href="#f1_2k" transform="matrix(10.4,0,0,10.4,265.1,736.4)" />
<use xlink:href="#f1_25" transform="matrix(10.4,0,0,10.4,273,736.4)" />
<use xlink:href="#f1_20" transform="matrix(10.4,0,0,10.4,276.5,736.4)" />
<use xlink:href="#f1_21" transform="matrix(10.4,0,0,10.4,285.3,736.4)" />
<use xlink:href="#f1_2f" transform="matrix(10.4,0,0,10.4,302.5,736.4)" />
<use xlink:href="#f1_2b" transform="matrix(10.4,0,0,10.4,310.6,736.4)" />
<use xlink:href="#f1_28" transform="matrix(10.4,0,0,10.4,319.4,736.4)" />
<use xlink:href="#f1_1y" transform="matrix(10.4,0,0,10.4,331.3,736.4)" />
<use xlink:href="#f1_2l" transform="matrix(10.4,0,0,10.4,340.1,736.4)" />
<use xlink:href="#f1_24" transform="matrix(10.4,0,0,10.4,356,736.4)" />
<use xlink:href="#f1_2l" transform="matrix(10.4,0,0,10.4,364.8,736.4)" />
<use xlink:href="#f1_20" transform="matrix(10.4,0,0,10.4,372.3,736.4)" />
<use xlink:href="#f1_2e" transform="matrix(10.4,0,0,10.4,381.1,736.4)" />
<use xlink:href="#f1_2b" transform="matrix(10.4,0,0,10.4,386.4,736.4)" />
<use xlink:href="#f1_28" transform="matrix(10.4,0,0,10.4,395.3,736.4)" />
<use xlink:href="#f1_2l" transform="matrix(10.4,0,0,10.4,398.7,736.4)" />
<use xlink:href="#f1_2f" transform="matrix(10.4,0,0,10.4,406.3,736.4)" />
<use xlink:href="#f1_25" transform="matrix(10.4,0,0,10.4,414.3,736.4)" />
<use xlink:href="#f1_2f" transform="matrix(10.4,0,0,10.4,417.8,736.4)" />
<use xlink:href="#f1_i" transform="matrix(10.4,0,0,10.4,425.9,736.4)" />
<use xlink:href="#f1_p" transform="matrix(10.4,0,0,10.4,56.1,766.4)" />
<use xlink:href="#f1_n" transform="matrix(10.4,0,0,10.4,65.3,766.4)" />
<use xlink:href="#f1_i" transform="matrix(10.4,0,0,10.4,74.6,766.4)" />
<use xlink:href="#f1_18" transform="matrix(10.4,0,0,10.4,99.4,766.4)" />
<use xlink:href="#f1_2b" transform="matrix(10.4,0,0,10.4,110.9,766.4)" />
<use xlink:href="#f1_2j" transform="matrix(10.4,0,0,10.4,119.7,766.4)" />
<use xlink:href="#f1_1z" transform="matrix(10.4,0,0,10.4,138.2,766.4)" />
<use xlink:href="#f1_1x" transform="matrix(10.4,0,0,10.4,146.3,766.4)" />
<use xlink:href="#f1_2a" transform="matrix(10.4,0,0,10.4,155.1,766.4)" />
<use xlink:href="#f1_2g" transform="matrix(10.4,0,0,10.4,171.2,766.4)" />
<use xlink:href="#f1_24" transform="matrix(10.4,0,0,10.4,175.6,766.4)" />
<use xlink:href="#f1_21" transform="matrix(10.4,0,0,10.4,184.4,766.4)" />
<use xlink:href="#f1_2g" transform="matrix(10.4,0,0,10.4,200.7,766.4)" />
<use xlink:href="#f1_2j" transform="matrix(10.4,0,0,10.4,205.1,766.4)" />
<use xlink:href="#f1_2b" transform="matrix(10.4,0,0,10.4,216.3,766.4)" />
<use xlink:href="#f1_21" transform="matrix(10.4,0,0,10.4,232.5,766.4)" />
<use xlink:href="#f1_29" transform="matrix(10.4,0,0,10.4,241.3,766.4)" />
<use xlink:href="#f1_2h" transform="matrix(10.4,0,0,10.4,254.8,766.4)" />
<use xlink:href="#f1_28" transform="matrix(10.4,0,0,10.4,263.6,766.4)" />
<use xlink:href="#f1_2f" transform="matrix(10.4,0,0,10.4,267.1,766.4)" />
<use xlink:href="#f1_25" transform="matrix(10.4,0,0,10.4,275.2,766.4)" />
<use xlink:href="#f1_2b" transform="matrix(10.4,0,0,10.4,278.6,766.4)" />
<use xlink:href="#f1_2a" transform="matrix(10.4,0,0,10.4,287.4,766.4)" />
<use xlink:href="#f1_2f" transform="matrix(10.4,0,0,10.4,296.2,766.4)" />
<use xlink:href="#f1_1z" transform="matrix(10.4,0,0,10.4,311.6,766.4)" />
<use xlink:href="#f1_1x" transform="matrix(10.4,0,0,10.4,319.7,766.4)" />
<use xlink:href="#f1_2a" transform="matrix(10.4,0,0,10.4,328.5,766.4)" />
<use xlink:href="#f1_1y" transform="matrix(10.4,0,0,10.4,344.6,766.4)" />
<use xlink:href="#f1_21" transform="matrix(10.4,0,0,10.4,353.4,766.4)" />
<use xlink:href="#f1_20" transform="matrix(10.4,0,0,10.4,369.8,766.4)" />
<use xlink:href="#f1_25" transform="matrix(10.4,0,0,10.4,378.6,766.4)" />
<use xlink:href="#f1_2f" transform="matrix(10.4,0,0,10.4,382,766.4)" />
<use xlink:href="#f1_2g" transform="matrix(10.4,0,0,10.4,390.1,766.4)" />
<use xlink:href="#f1_25" transform="matrix(10.4,0,0,10.4,394.5,766.4)" />
<use xlink:href="#f1_2a" transform="matrix(10.4,0,0,10.4,398,766.4)" />
<use xlink:href="#f1_23" transform="matrix(10.4,0,0,10.4,406.8,766.4)" />
<use xlink:href="#f1_2h" transform="matrix(10.4,0,0,10.4,415.6,766.4)" />
<use xlink:href="#f1_25" transform="matrix(10.4,0,0,10.4,424.4,766.4)" />
<use xlink:href="#f1_2f" transform="matrix(10.4,0,0,10.4,427.9,766.4)" />
<use xlink:href="#f1_24" transform="matrix(10.4,0,0,10.4,435.9,766.4)" />
<use xlink:href="#f1_21" transform="matrix(10.4,0,0,10.4,444.7,766.4)" />
<use xlink:href="#f1_20" transform="matrix(10.4,0,0,10.4,453.5,766.4)" />
<use xlink:href="#f1_u" transform="matrix(10.4,0,0,10.4,469.7,766.4)" />
<use xlink:href="#f1_c" transform="matrix(10.4,0,0,10.4,99.4,796.3)" />
<use xlink:href="#f1_1x" transform="matrix(10.4,0,0,10.4,105.2,796.3)" />
<use xlink:href="#f1_d" transform="matrix(10.4,0,0,10.4,114.8,796.3)" />
<use xlink:href="#f1_2b" transform="matrix(10.4,0,0,10.4,142.6,796.3)" />
<use xlink:href="#f1_25" transform="matrix(10.4,0,0,10.4,151.4,796.3)" />
<use xlink:href="#f1_28" transform="matrix(10.4,0,0,10.4,154.9,796.3)" />
<use xlink:href="#f1_25" transform="matrix(10.4,0,0,10.4,165.6,796.3)" />
<use xlink:href="#f1_2a" transform="matrix(10.4,0,0,10.4,169,796.3)" />
<use xlink:href="#f1_2j" transform="matrix(10.4,0,0,10.4,185,796.3)" />
<use xlink:href="#f1_1x" transform="matrix(10.4,0,0,10.4,196.2,796.3)" />
<use xlink:href="#f1_2g" transform="matrix(10.4,0,0,10.4,205,796.3)" />
<use xlink:href="#f1_21" transform="matrix(10.4,0,0,10.4,209.4,796.3)" />
<use xlink:href="#f1_2e" transform="matrix(10.4,0,0,10.4,218.2,796.3)" />
<use xlink:href="#f1_2g" transform="matrix(10.4,0,0,10.4,230.8,796.3)" />
<use xlink:href="#f1_2l" transform="matrix(10.4,0,0,10.4,235.2,796.3)" />
<use xlink:href="#f1_2c" transform="matrix(10.4,0,0,10.4,242.7,796.3)" />
<use xlink:href="#f1_21" transform="matrix(10.4,0,0,10.4,251.5,796.3)" />
<use xlink:href="#f1_c" transform="matrix(9,0,0,9,267.5,796.3)" />
<use xlink:href="#f1_1f" transform="matrix(9,0,0,9,272.1,796.3)" />
<use xlink:href="#f1_j" transform="matrix(9,0,0,9,282.7,796.3)" />
<use xlink:href="#f1_1n" transform="matrix(9,0,0,9,286.6,796.3)" />
<use xlink:href="#f1_d" transform="matrix(9,0,0,9,300.3,796.3)" />
<use xlink:href="#f1_1x" transform="matrix(10.4,0,0,10.4,312.2,796.3)" />
<use xlink:href="#f1_2a" transform="matrix(10.4,0,0,10.4,321,796.3)" />
<use xlink:href="#f1_20" transform="matrix(10.4,0,0,10.4,329.8,796.3)" />
<use xlink:href="#f1_c" transform="matrix(10.4,0,0,10.4,99.4,826.4)" />
<use xlink:href="#f1_1y" transform="matrix(10.4,0,0,10.4,105.2,826.4)" />
<use xlink:href="#f1_d" transform="matrix(10.4,0,0,10.4,114.8,826.4)" />
<use xlink:href="#f1_2j" transform="matrix(10.4,0,0,10.4,142.6,826.4)" />
<use xlink:href="#f1_1x" transform="matrix(10.4,0,0,10.4,153.8,826.4)" />
<use xlink:href="#f1_2g" transform="matrix(10.4,0,0,10.4,162.6,826.4)" />
<use xlink:href="#f1_21" transform="matrix(10.4,0,0,10.4,167,826.4)" />
<use xlink:href="#f1_2e" transform="matrix(10.4,0,0,10.4,175.8,826.4)" />
<use xlink:href="#f1_25" transform="matrix(10.4,0,0,10.4,188.1,826.4)" />
<use xlink:href="#f1_2a" transform="matrix(10.4,0,0,10.4,191.6,826.4)" />
<use xlink:href="#f1_2b" transform="matrix(10.4,0,0,10.4,207.4,826.4)" />
<use xlink:href="#f1_25" transform="matrix(10.4,0,0,10.4,216.1,826.4)" />
<use xlink:href="#f1_28" transform="matrix(10.4,0,0,10.4,219.6,826.4)" />
<use xlink:href="#f1_2g" transform="matrix(10.4,0,0,10.4,230.3,826.4)" />
<use xlink:href="#f1_2l" transform="matrix(10.4,0,0,10.4,234.7,826.4)" />
<use xlink:href="#f1_2c" transform="matrix(10.4,0,0,10.4,242.2,826.4)" />
<use xlink:href="#f1_21" transform="matrix(10.4,0,0,10.4,251,826.4)" />
<use xlink:href="#f1_c" transform="matrix(9,0,0,9,266.8,826.4)" />
<use xlink:href="#f1_1n" transform="matrix(9,0,0,9,271.3,826.4)" />
<use xlink:href="#f1_j" transform="matrix(9,0,0,9,285.1,826.4)" />
<use xlink:href="#f1_1f" transform="matrix(9,0,0,9,288.9,826.4)" />
<use xlink:href="#f1_d" transform="matrix(9,0,0,9,299.6,826.4)" />
<use xlink:href="#f2_o" transform="matrix(12,0,0,12,679.9,1013.5)" />
</g>
<g fill="#0080FF" fill-opacity="0.5" >
<use xlink:href="#f0_1c" transform="matrix(38.4,0,0,38.4,184.1,1023.2)" />
<use xlink:href="#f0_21" transform="matrix(38.4,0,0,38.4,216.7,1023.2)" />
<use xlink:href="#f0_1x" transform="matrix(38.4,0,0,38.4,249.2,1023.2)" />
<use xlink:href="#f0_2e" transform="matrix(38.4,0,0,38.4,281.8,1023.2)" />
<use xlink:href="#f0_2a" transform="matrix(38.4,0,0,38.4,301.4,1023.2)" />
<use xlink:href="#f0_17" transform="matrix(38.4,0,0,38.4,334,1023.2)" />
<use xlink:href="#f0_2h" transform="matrix(38.4,0,0,38.4,379.6,1023.2)" />
<use xlink:href="#f0_25" transform="matrix(38.4,0,0,38.4,412.2,1023.2)" />
<use xlink:href="#f0_20" transform="matrix(38.4,0,0,38.4,425.2,1023.2)" />
<use xlink:href="#f0_21" transform="matrix(38.4,0,0,38.4,457.8,1023.2)" />
<use xlink:href="#f0_i" transform="matrix(38.4,0,0,38.4,490.4,1023.2)" />
<use xlink:href="#f0_25" transform="matrix(38.4,0,0,38.4,506.7,1023.2)" />
<use xlink:href="#f0_2a" transform="matrix(38.4,0,0,38.4,519.7,1023.2)" />
</g>
<defs>
<path d="M593,101c0,0,182,0,279,112c0,0,98,113,98,318c0,0,0,196,-98,308c0,0,-98,112,-277,112c0,0,-181,0,-279,-110c0,0,-99,-111,-99,-310c0,0,0,-198,100,-314c0,0,99,-116,276,-116Zm0,-115c0,0,-162,0,-279,65c0,0,-118,66,-180,190c0,0,-62,124,-62,290c0,0,0,252,138,394c0,0,138,142,385,142c0,0,160,0,278,-64c0,0,118,-64,180,-185c0,0,62,-122,62,-287c0,0,0,-165,-63,-289c0,0,-63,-124,-181,-190c0,0,-118,-66,-278,-66Z" 
id="f0_1f"
transform="scale(0.001,-0.001)" />

<path d="M106,0V635c0,0,0,141,-5,173H228c0,0,1,-4,2,-21c0,0,1,-16,2,-37c0,0,1,-22,2,-81h2c0,0,47,84,108,119c0,0,60,34,151,34c0,0,132,0,194,-66c0,0,61,-66,61,-218V0H615V512c0,0,0,80,-15,124c0,0,-16,44,-50,63c0,0,-35,20,-101,20c0,0,-97,0,-153,-67c0,0,-56,-66,-56,-184V0Z" 
id="f0_2a"
transform="scale(0.001,-0.001)" />

<path d="M103,0V1107H237V0Z" 
id="f0_28"
transform="scale(0.001,-0.001)" />

<path d="M102,0V808H236V0Zm0,979v128H236V979Z" 
id="f0_25"
transform="scale(0.001,-0.001)" />

<path d="M643,478c0,0,-11,128,-65,187c0,0,-54,59,-154,59c0,0,-98,0,-155,-66c0,0,-57,-65,-62,-180ZM431,-14c0,0,-179,0,-272,106c0,0,-94,107,-94,317c0,0,0,200,94,307c0,0,93,106,267,106c0,0,356,0,356,-429V375H206c0,0,0,-138,57,-213c0,0,58,-75,168,-75c0,0,87,0,140,35c0,0,53,35,71,88L760,177c0,0,-72,-191,-329,-191Z" 
id="f0_21"
transform="scale(0.001,-0.001)" />

<path d="M17,0L304,415L31,808H179L380,493L580,808H730L457,417L747,0H598L380,331L162,0Z" 
id="f0_2k"
transform="scale(0.001,-0.001)" />

<path d="M339,87c0,0,74,0,132,34c0,0,57,33,90,91c0,0,34,59,34,121v66L448,396c0,0,-95,-2,-144,-19c0,0,-49,-18,-75,-55c0,0,-26,-38,-26,-98c0,0,0,-65,35,-101c0,0,36,-36,101,-36ZM309,-14c0,0,-122,0,-183,64c0,0,-61,64,-61,176c0,0,0,125,82,192c0,0,83,67,266,72l182,3v44c0,0,0,98,-42,141c0,0,-42,43,-132,43c0,0,-90,0,-131,-31c0,0,-41,-31,-49,-98L101,604c0,0,34,218,323,218c0,0,153,0,229,-70c0,0,77,-69,77,-202V202c0,0,0,-59,16,-90c0,0,16,-30,60,-30c0,0,19,0,44,5V4C850,4,799,-7,746,-7c0,0,-75,0,-109,38c0,0,-33,40,-38,124h-4C595,155,543,62,475,24c0,0,-68,-38,-166,-38Z" 
id="f0_1x"
transform="scale(0.001,-0.001)" />

<path d="M106,0V635c0,0,0,141,-5,173H228c0,0,1,-4,2,-21c0,0,1,-16,2,-37c0,0,1,-22,2,-81h2c0,0,44,86,100,120c0,0,56,33,136,33c0,0,92,0,145,-36c0,0,54,-37,75,-117h2c0,0,42,82,101,117c0,0,59,36,143,36c0,0,123,0,178,-66c0,0,56,-67,56,-218V0H1039V512c0,0,0,117,-32,162c0,0,-32,45,-116,45c0,0,-88,0,-136,-66c0,0,-49,-65,-49,-185V0H573V512c0,0,0,117,-32,162c0,0,-32,45,-116,45c0,0,-86,0,-136,-66c0,0,-50,-66,-50,-185V0Z" 
id="f0_29"
transform="scale(0.001,-0.001)" />

<path d="M453,84c0,0,100,0,146,74c0,0,46,73,46,247c0,0,0,169,-46,241c0,0,-45,73,-145,73c0,0,-80,0,-125,-34c0,0,-45,-34,-68,-105c0,0,-24,-71,-24,-186c0,0,0,-159,51,-234c0,0,51,-76,165,-76ZM103,-316V643c0,0,0,124,-5,165H228c0,0,1,-3,3,-22c0,0,1,-18,3,-56c0,0,2,-38,2,-52h3c0,0,36,75,94,110c0,0,59,34,156,34c0,0,149,0,223,-100c0,0,74,-100,74,-314c0,0,0,-422,-297,-422c0,0,-187,0,-251,140h-4c0,0,3,-6,3,-126V-316Z" 
id="f0_2c"
transform="scale(0.001,-0.001)" />

<path d="M420,84c0,0,121,0,173,78c0,0,52,77,52,243c0,0,0,167,-50,243c0,0,-50,76,-167,76c0,0,-118,0,-170,-78c0,0,-53,-77,-53,-241c0,0,0,-160,52,-241c0,0,52,-80,163,-80Zm1,-98c0,0,-176,0,-267,107c0,0,-90,108,-90,312c0,0,0,417,362,417c0,0,185,0,272,-102c0,0,88,-101,88,-315c0,0,0,-212,-94,-316C692,89,599,-14,421,-14Z" 
id="f0_2b"
transform="scale(0.001,-0.001)" />

<path d="M278,-11c0,0,-162,0,-162,182V710H23v98h99l39,181h90V808H400V710H251V200c0,0,0,-58,19,-82c0,0,19,-23,66,-23c0,0,27,0,77,10V6c0,0,-66,-17,-135,-17Z" 
id="f0_2g"
transform="scale(0.001,-0.001)" />

<path d="M530,344V900c0,0,-1,-5,-20,-40c0,0,-20,-35,-30,-49L211,414L171,359L159,344ZM530,0V239H35V343l481,708H657V344H805V239H657V0Z" 
id="f1_o"
transform="scale(0.001,-0.001)" />

<path d="M413,-14c0,0,-147,0,-238,64c0,0,-90,64,-114,185l136,16c0,0,42,-155,219,-155c0,0,108,0,169,65c0,0,61,65,61,179c0,0,0,98,-62,159c0,0,-61,61,-165,61c0,0,-55,0,-102,-17c0,0,-47,-17,-94,-58H92l35,566H724V937H249L229,604c0,0,87,67,217,67c0,0,155,0,247,-91c0,0,93,-91,93,-237c0,0,0,-167,-99,-262c0,0,-99,-95,-274,-95Z" 
id="f1_p"
transform="scale(0.001,-0.001)" />

<path d="M140,0V163H285V0Z" 
id="f1_i"
transform="scale(0.001,-0.001)" />

<path d="M141,0V1051H283V0Z" 
id="f1_19"
transform="scale(0.001,-0.001)" />

<path d="M106,0V635c0,0,0,141,-5,173H228c0,0,1,-4,2,-21c0,0,1,-16,2,-37c0,0,1,-22,2,-81h2c0,0,47,84,108,119c0,0,60,34,151,34c0,0,132,0,194,-66c0,0,61,-66,61,-218V0H615V512c0,0,0,80,-15,124c0,0,-16,44,-50,63c0,0,-35,20,-101,20c0,0,-97,0,-153,-67c0,0,-56,-66,-56,-184V0Z" 
id="f1_2a"
transform="scale(0.001,-0.001)" />

<path d="M224,0L-1,808H131L267,259c0,0,5,-18,32,-147l13,55L480,808H624L765,253L800,112l23,103L976,808h131L876,0H720L579,571L552,697c0,0,-7,-33,-21,-96C531,601,517,537,379,0Z" 
id="f1_2j"
transform="scale(0.001,-0.001)" />

<path d="M615,0V512c0,0,0,85,-15,126c0,0,-16,42,-52,61c0,0,-36,20,-99,20c0,0,-95,0,-152,-66c0,0,-57,-66,-57,-177V0H106V1107H240V819c0,0,0,-45,-2,-94c0,0,-3,-48,-4,-56h2c0,0,44,79,105,116c0,0,60,37,154,37c0,0,131,0,193,-65c0,0,62,-65,62,-219V0Z" 
id="f1_24"
transform="scale(0.001,-0.001)" />

<path d="M339,87c0,0,74,0,132,34c0,0,57,33,90,91c0,0,34,59,34,121v66L448,396c0,0,-95,-2,-144,-19c0,0,-49,-18,-75,-55c0,0,-26,-38,-26,-98c0,0,0,-65,35,-101c0,0,36,-36,101,-36ZM309,-14c0,0,-122,0,-183,64c0,0,-61,64,-61,176c0,0,0,125,82,192c0,0,83,67,266,72l182,3v44c0,0,0,98,-42,141c0,0,-42,43,-132,43c0,0,-90,0,-131,-31c0,0,-41,-31,-49,-98L101,604c0,0,34,218,323,218c0,0,153,0,229,-70c0,0,77,-69,77,-202V202c0,0,0,-59,16,-90c0,0,16,-30,60,-30c0,0,19,0,44,5V4C850,4,799,-7,746,-7c0,0,-75,0,-109,38c0,0,-33,40,-38,124h-4C595,155,543,62,475,24c0,0,-68,-38,-166,-38Z" 
id="f1_1x"
transform="scale(0.001,-0.001)" />

<path d="M278,-11c0,0,-162,0,-162,182V710H23v98h99l39,181h90V808H400V710H251V200c0,0,0,-58,19,-82c0,0,19,-23,66,-23c0,0,27,0,77,10V6c0,0,-66,-17,-135,-17Z" 
id="f1_2g"
transform="scale(0.001,-0.001)" />

<path d="M142,-316c0,0,-55,0,-92,8v101c0,0,28,-4,63,-4c0,0,125,0,198,184L324,4L4,808H147L317,362c0,0,4,-11,9,-25c0,0,5,-15,34,-98c0,0,28,-83,30,-92l52,147L619,808H761L451,0c0,0,-50,-128,-94,-191c0,0,-43,-63,-96,-94c0,0,-52,-31,-119,-31Z" 
id="f1_2l"
transform="scale(0.001,-0.001)" />

<path d="M643,478c0,0,-11,128,-65,187c0,0,-54,59,-154,59c0,0,-98,0,-155,-66c0,0,-57,-65,-62,-180ZM431,-14c0,0,-179,0,-272,106c0,0,-94,107,-94,317c0,0,0,200,94,307c0,0,93,106,267,106c0,0,356,0,356,-429V375H206c0,0,0,-138,57,-213c0,0,58,-75,168,-75c0,0,87,0,140,35c0,0,53,35,71,88L760,177c0,0,-72,-191,-329,-191Z" 
id="f1_21"
transform="scale(0.001,-0.001)" />

<path d="M381,-14c0,0,-150,0,-232,49C149,35,67,85,43,190l118,23c0,0,17,-65,71,-96c0,0,54,-30,149,-30c0,0,102,0,150,31c0,0,47,32,47,95c0,0,0,47,-33,77c0,0,-33,30,-106,49l-96,26c0,0,-115,30,-164,58c0,0,-49,29,-77,70c0,0,-27,41,-27,101c0,0,0,110,78,168c0,0,79,57,230,57c0,0,133,0,212,-47c0,0,79,-47,100,-150L574,607c0,0,-12,53,-60,82c0,0,-49,29,-131,29c0,0,-91,0,-135,-28c0,0,-43,-27,-43,-83c0,0,0,-34,18,-57c0,0,18,-22,53,-38c0,0,35,-15,148,-43c0,0,106,-27,153,-50c0,0,47,-22,75,-50c0,0,27,-27,42,-64c0,0,15,-36,15,-82c0,0,0,-114,-86,-176c0,0,-87,-61,-242,-61Z" 
id="f1_2f"
transform="scale(0.001,-0.001)" />

<path d="M106,0V620c0,0,0,85,-5,188H228c0,0,6,-138,6,-165h3c0,0,32,103,74,141c0,0,42,38,118,38c0,0,27,0,54,-7V692c0,0,-26,7,-71,7c0,0,-84,0,-128,-72c0,0,-44,-72,-44,-206V0Z" 
id="f1_2e"
transform="scale(0.001,-0.001)" />

<path d="M395,89c0,0,115,0,166,79c0,0,51,79,51,246c0,0,0,160,-51,235c0,0,-51,75,-164,75c0,0,-102,0,-147,-75c0,0,-45,-75,-45,-244c0,0,0,-170,45,-243c0,0,45,-73,145,-73ZM361,-14c0,0,-153,0,-225,102c0,0,-72,103,-72,312c0,0,0,422,297,422c0,0,92,0,153,-33c0,0,61,-34,98,-107h2l-2,90v335H747V166c0,0,0,-126,4,-166H623c0,0,-2,12,-5,55c0,0,-3,44,-3,75h-3c0,0,-37,-78,-98,-111c0,0,-62,-33,-153,-33Z" 
id="f1_20"
transform="scale(0.001,-0.001)" />

<path d="M102,0V808H236V0Zm0,979v128H236V979Z" 
id="f1_25"
transform="scale(0.001,-0.001)" />

<path d="M135,0V710H22v98H135v91c0,0,0,110,49,158c0,0,48,49,148,49c0,0,56,0,95,-9V994c0,0,-34,6,-60,6c0,0,-51,0,-75,-26c0,0,-23,-26,-23,-94V808H427V710H269V0Z" 
id="f1_22"
transform="scale(0.001,-0.001)" />

<path d="M140,0V154H285V0Zm0,653V808H285V653Z" 
id="f1_u"
transform="scale(0.001,-0.001)" />

<path d="M370,-316c0,0,-141,152,-208,323C162,7,95,179,95,394v3c0,0,0,215,67,387c0,0,68,171,208,323H500c0,0,-140,-155,-205,-330c0,0,-65,-175,-65,-382c0,0,0,-207,64,-381c0,0,65,-172,206,-330Z" 
id="f1_c"
transform="scale(0.001,-0.001)" />

<path d="M9,-316c0,0,140,157,205,329c0,0,65,174,65,382c0,0,0,208,-65,382c0,0,-66,174,-205,330H139c0,0,141,-152,208,-324c0,0,67,-172,67,-386v-3c0,0,0,-216,-67,-388c0,0,-68,-170,-208,-322Z" 
id="f1_d"
transform="scale(0.001,-0.001)" />

<path d="M420,84c0,0,121,0,173,78c0,0,52,77,52,243c0,0,0,167,-50,243c0,0,-50,76,-167,76c0,0,-118,0,-170,-78c0,0,-53,-77,-53,-241c0,0,0,-160,52,-241c0,0,52,-80,163,-80Zm1,-98c0,0,-176,0,-267,107c0,0,-90,108,-90,312c0,0,0,417,362,417c0,0,185,0,272,-102c0,0,88,-101,88,-315c0,0,0,-212,-94,-316C692,89,599,-14,421,-14Z" 
id="f1_2b"
transform="scale(0.001,-0.001)" />

<path d="M103,0V1107H237V0Z" 
id="f1_28"
transform="scale(0.001,-0.001)" />

<path d="M398,93c0,0,63,0,112,37c0,0,49,38,76,107c0,0,27,70,27,166c0,0,0,99,-27,170c0,0,-27,71,-75,109c0,0,-49,38,-111,38c0,0,-103,0,-150,-75c0,0,-47,-75,-47,-242c0,0,0,-165,44,-238c0,0,44,-72,151,-72Zm11,-409c0,0,-132,0,-211,52c0,0,-78,52,-100,147l135,20c0,0,13,-56,59,-87c0,0,46,-30,121,-30c0,0,200,0,200,234V150h-1C612,150,574,72,507,33C507,33,441,-5,352,-5c0,0,-148,0,-218,98c0,0,-70,98,-70,309c0,0,0,214,75,316c0,0,75,101,228,101c0,0,86,0,149,-39c0,0,63,-39,97,-111h2c0,0,0,22,3,78c0,0,3,55,6,61H751c0,0,-4,-41,-4,-167V23c0,0,0,-339,-338,-339Z" 
id="f1_23"
transform="scale(0.001,-0.001)" />

<path d="M453,84c0,0,101,0,146,75c0,0,46,75,46,244c0,0,0,169,-45,243c0,0,-45,73,-146,73c0,0,-113,0,-165,-78c0,0,-52,-78,-52,-246c0,0,0,-159,51,-235c0,0,51,-76,165,-76Zm36,-98c0,0,-92,0,-153,33c0,0,-61,33,-99,107h-1c0,0,0,-24,-3,-71c0,0,-3,-48,-5,-55H98c0,0,5,40,5,166v941H237V792c0,0,0,-49,-3,-114h3c0,0,38,77,99,111c0,0,62,33,153,33c0,0,153,0,225,-103c0,0,72,-103,72,-311c0,0,0,-422,-297,-422Z" 
id="f1_1y"
transform="scale(0.001,-0.001)" />

<path d="M106,0V635c0,0,0,141,-5,173H228c0,0,1,-4,2,-21c0,0,1,-16,2,-37c0,0,1,-22,2,-81h2c0,0,44,86,100,120c0,0,56,33,136,33c0,0,92,0,145,-36c0,0,54,-37,75,-117h2c0,0,42,82,101,117c0,0,59,36,143,36c0,0,123,0,178,-66c0,0,56,-67,56,-218V0H1039V512c0,0,0,117,-32,162c0,0,-32,45,-116,45c0,0,-88,0,-136,-66c0,0,-49,-65,-49,-185V0H573V512c0,0,0,117,-32,162c0,0,-32,45,-116,45c0,0,-86,0,-136,-66c0,0,-50,-66,-50,-185V0Z" 
id="f1_29"
transform="scale(0.001,-0.001)" />

<path d="M355,-14c0,0,-133,0,-194,65c0,0,-62,66,-62,219V808H234V296c0,0,0,-80,16,-124c0,0,16,-44,50,-64c0,0,34,-19,101,-19c0,0,97,0,153,66c0,0,55,67,55,185V808H744V172c0,0,0,-141,4,-172H621c0,0,0,4,-1,20c0,0,-1,17,-2,38c0,0,-1,21,-3,80h-2C613,138,567,55,506,20c0,0,-61,-34,-151,-34Z" 
id="f1_2h"
transform="scale(0.001,-0.001)" />

<path d="M439,94c0,0,97,0,152,65c0,0,55,65,55,179c0,0,0,114,-56,176c0,0,-56,62,-156,62c0,0,-94,0,-152,-55c0,0,-57,-55,-57,-151c0,0,0,-121,60,-199c0,0,60,-77,154,-77Zm4,-108c0,0,-177,0,-271,131c0,0,-94,132,-94,384c0,0,0,273,97,420c0,0,98,146,279,146c0,0,238,0,299,-214L625,830c0,0,-39,128,-173,128c0,0,-115,0,-178,-107c0,0,-63,-107,-63,-310c0,0,37,68,103,103c0,0,66,36,152,36c0,0,146,0,231,-91c0,0,86,-91,86,-245c0,0,0,-166,-91,-262c0,0,-90,-96,-249,-96Z" 
id="f1_q"
transform="scale(0.001,-0.001)" />

<path d="M515,-14c0,0,-384,0,-446,266l138,28c0,0,24,-95,102,-139c0,0,77,-44,211,-44c0,0,138,0,213,47c0,0,75,47,75,139c0,0,0,51,-24,83c0,0,-23,33,-66,53c0,0,-42,21,-101,35c0,0,-59,15,-131,31c0,0,-124,28,-189,55c0,0,-64,28,-102,62c0,0,-37,34,-57,79c0,0,-19,46,-19,105c0,0,0,135,103,208c0,0,103,73,296,73c0,0,179,0,273,-55c0,0,95,-55,133,-187L784,800c0,0,-23,84,-88,122c0,0,-65,37,-180,37c0,0,-126,0,-192,-42c0,0,-67,-41,-67,-124c0,0,0,-48,26,-80c0,0,26,-32,74,-54c0,0,49,-22,194,-54c0,0,48,-11,96,-23c0,0,48,-11,92,-27c0,0,44,-16,83,-38c0,0,38,-22,66,-53c0,0,29,-31,45,-74c0,0,16,-42,16,-100c0,0,0,-145,-114,-225c0,0,-114,-79,-320,-79Z" 
id="f1_1j"
transform="scale(0.001,-0.001)" />

<path d="M56,710V819c0,0,0,72,14,127c0,0,14,55,46,105h90c0,0,-71,-102,-71,-195h66V710Zm248,0V819c0,0,0,71,13,126c0,0,13,56,45,106h91c0,0,-70,-101,-70,-195h65V710Z" 
id="f1_1k8"
transform="scale(0.001,-0.001)" />

<path d="M125,0V1051H268V606H836v445H979V0H836V487H268V0Z" 
id="f1_18"
transform="scale(0.001,-0.001)" />

<path d="M413,-14c0,0,-170,0,-259,106c0,0,-89,107,-89,313c0,0,0,203,89,310c0,0,90,107,257,107c0,0,124,0,206,-64c0,0,81,-64,102,-177L581,571c0,0,-10,67,-53,106c0,0,-42,40,-121,40c0,0,-106,0,-154,-71c0,0,-48,-71,-48,-239c0,0,0,-161,51,-238c0,0,51,-78,153,-78c0,0,71,0,120,39c0,0,48,39,59,119l136,-9C724,240,708,124,624,55c0,0,-83,-69,-211,-69Z" 
id="f1_1z"
transform="scale(0.001,-0.001)" />

<path d="M62,0V102L513,704H87V808H672V706L220,104H688V0Z" 
id="f1_2m"
transform="scale(0.001,-0.001)" />

<path d="M612,550c0,0,112,0,174,52c0,0,61,52,61,147c0,0,0,92,-62,140c0,0,-62,48,-179,48H268V550ZM125,0V1051H620c0,0,177,0,274,-79c0,0,97,-80,97,-221c0,0,0,-117,-69,-197c0,0,-68,-80,-188,-100L1032,0H868L595,437H268V0Z" 
id="f1_1i"
transform="scale(0.001,-0.001)" />

<path d="M56,710c0,0,70,101,70,195H60v146H206V943c0,0,0,-79,-14,-132c0,0,-14,-53,-44,-101Zm248,0c0,0,70,101,70,195H308v146H453V943c0,0,0,-70,-13,-124c0,0,-13,-55,-46,-109Z" 
id="f1_1k9"
transform="scale(0.001,-0.001)" />

<path d="M17,0L304,415L31,808H179L380,493L580,808H730L457,417L747,0H598L380,331L162,0Z" 
id="f1_2k"
transform="scale(0.001,-0.001)" />

<path d="M453,84c0,0,100,0,146,74c0,0,46,73,46,247c0,0,0,169,-46,241c0,0,-45,73,-145,73c0,0,-80,0,-125,-34c0,0,-45,-34,-68,-105c0,0,-24,-71,-24,-186c0,0,0,-159,51,-234c0,0,51,-76,165,-76ZM103,-316V643c0,0,0,124,-5,165H228c0,0,1,-3,3,-22c0,0,1,-18,3,-56c0,0,2,-38,2,-52h3c0,0,36,75,94,110c0,0,59,34,156,34c0,0,149,0,223,-100c0,0,74,-100,74,-314c0,0,0,-422,-297,-422c0,0,-187,0,-251,140h-4c0,0,3,-6,3,-126V-316Z" 
id="f1_2c"
transform="scale(0.001,-0.001)" />

<path d="M272,0c0,0,0,201,86,424c0,0,85,223,285,513H78v114H773V942C773,942,612,696,545,556c0,0,-66,-139,-99,-275C446,281,413,145,413,0Z" 
id="f1_r"
transform="scale(0.001,-0.001)" />

<path d="M316,0L7,1051H155L344,383c0,0,33,-125,62,-258c0,0,18,82,41,179c0,0,24,97,207,747H791L974,397c0,0,41,-160,65,-272l7,26c0,0,20,86,33,140c0,0,12,54,209,760h149L1127,0H957L775,668c0,0,-18,62,-52,224c0,0,-20,-86,-33,-145C690,747,677,689,486,0Z" 
id="f1_1n"
transform="scale(0.001,-0.001)" />

<path d="M327,0V150H472V0Zm6,281c0,0,1,51,16,90c0,0,14,39,37,69c0,0,24,30,53,53c0,0,29,24,59,45c0,0,29,21,58,42c0,0,29,22,51,48c0,0,23,26,36,59c0,0,14,33,14,77c0,0,0,85,-58,134c0,0,-57,49,-162,49c0,0,-104,0,-165,-52c0,0,-62,-52,-72,-143L63,761c0,0,19,148,116,227c0,0,97,79,257,79c0,0,166,0,261,-79c0,0,96,-79,96,-218c0,0,0,-56,-16,-100c0,0,-17,-44,-47,-82c0,0,-31,-37,-100,-88L570,456c0,0,-54,-39,-80,-82c0,0,-26,-43,-27,-93Z" 
id="f1_z"
transform="scale(0.001,-0.001)" />

<path d="M427,86c0,0,109,0,163,53c0,0,54,52,54,167c0,0,0,97,-58,147c0,0,-59,50,-164,50c0,0,-102,0,-159,-54c0,0,-58,-53,-58,-146c0,0,0,-217,222,-217Zm-3,517c0,0,94,0,144,44c0,0,50,43,50,141c0,0,0,178,-196,178c0,0,-95,0,-144,-45c0,0,-50,-44,-50,-133c0,0,0,-90,51,-137c0,0,51,-48,145,-48Zm1,-617c0,0,-168,0,-263,79c0,0,-96,80,-96,227c0,0,0,103,59,173c0,0,59,70,151,85v3c0,0,-86,20,-135,87c0,0,-50,67,-50,157c0,0,0,121,90,195c0,0,90,75,241,75c0,0,155,0,245,-73c0,0,90,-74,90,-198c0,0,0,-90,-50,-158c0,0,-50,-67,-136,-84v-3c0,0,100,-16,156,-85c0,0,56,-69,56,-173c0,0,0,-145,-92,-226c0,0,-93,-81,-266,-81Z" 
id="f1_s"
transform="scale(0.001,-0.001)" />

<path d="M502,114c0,0,116,0,203,51c0,0,88,51,135,146c0,0,47,96,47,225c0,0,0,196,-107,298c0,0,-107,103,-310,103H268V114ZM125,0V1051H473c0,0,267,0,412,-134c0,0,145,-134,145,-381c0,0,0,-162,-63,-284C967,252,903,130,787,65C787,65,671,0,518,0Z" 
id="f1_14"
transform="scale(0.001,-0.001)" />

<path d="M48,0V106L689,936H103v115H850V948L210,115H885V0Z" 
id="f1_1q"
transform="scale(0.001,-0.001)" />

<path d="M416,464c0,0,58,0,108,27c0,0,50,26,78,75c0,0,29,49,29,111c0,0,0,127,-58,204c0,0,-58,77,-156,77c0,0,-97,0,-153,-66c0,0,-56,-66,-56,-179c0,0,0,-115,56,-182c0,0,56,-67,152,-67ZM397,-14c0,0,-123,0,-197,51c0,0,-75,52,-107,168l129,20c0,0,40,-131,177,-131c0,0,116,0,179,107c0,0,64,107,67,306c0,0,-30,-67,-103,-108c0,0,-72,-40,-159,-40c0,0,-141,0,-226,97c0,0,-85,97,-85,257c0,0,0,165,92,259c0,0,93,95,257,95c0,0,176,0,266,-130c0,0,90,-130,90,-390c0,0,0,-271,-99,-416c0,0,-98,-145,-281,-145Z" 
id="f1_t"
transform="scale(0.001,-0.001)" />

<path d="M708,418L573,765c0,0,-21,52,-42,117l-20,62l-7,-21c0,0,-18,-62,-55,-159L315,418ZM3,0L432,1051H594L1016,0H871L750,307H272L151,0Z" 
id="f1_11"
transform="scale(0.001,-0.001)" />

<path d="M305,720c0,0,55,0,94,39c0,0,39,39,39,95c0,0,0,57,-39,96c0,0,-38,39,-94,39c0,0,-56,0,-94,-40c0,0,-39,-40,-39,-95c0,0,0,-55,39,-95c0,0,40,-39,94,-39Zm0,-79c0,0,-88,0,-151,63c0,0,-63,63,-63,150c0,0,0,87,62,150c0,0,63,63,152,63c0,0,90,0,152,-62c0,0,62,-62,62,-151c0,0,0,-89,-63,-151c0,0,-63,-62,-151,-62Z" 
id="f1_37"
transform="scale(0.001,-0.001)" />

<path d="M68,346V465H441V346Z" 
id="f1_h"
transform="scale(0.001,-0.001)" />

<path d="M103,0V1107H237V416L592,808H749L421,461L766,0H609L336,369L237,287V0Z" 
id="f1_27"
transform="scale(0.001,-0.001)" />

<path d="M395,89c0,0,115,0,166,81c0,0,51,82,51,244c0,0,0,157,-51,233c0,0,-51,77,-164,77c0,0,-102,0,-147,-77c0,0,-45,-76,-45,-242c0,0,0,-170,45,-243c0,0,45,-73,145,-73ZM612,-316V11l3,122h-1c0,0,-40,-80,-99,-114c0,0,-59,-33,-154,-33c0,0,-154,0,-225,103c0,0,-72,104,-72,311c0,0,0,422,297,422c0,0,92,0,151,-32c0,0,60,-33,100,-108h2c0,0,0,22,3,77c0,0,3,55,6,58H752c0,0,-5,-44,-5,-220V-316Z" 
id="f1_2d"
transform="scale(0.001,-0.001)" />

<path d="M424,96c0,0,119,0,174,106c0,0,55,106,55,325c0,0,0,227,-52,329c0,0,-53,102,-174,102c0,0,-123,0,-177,-100c0,0,-55,-101,-55,-331c0,0,0,-224,55,-328c0,0,55,-103,174,-103ZM423,-14c0,0,-181,0,-272,137c0,0,-91,138,-91,403c0,0,0,271,88,406c0,0,88,135,279,135c0,0,186,0,275,-137c0,0,88,-136,88,-404c0,0,0,-263,-93,-402c0,0,-93,-138,-274,-138Z" 
id="f1_k"
transform="scale(0.001,-0.001)" />

<path d="M426,-14c0,0,-160,0,-255,71c0,0,-95,72,-113,213l139,13c0,0,27,-187,229,-187c0,0,101,0,159,50c0,0,58,50,58,149c0,0,0,86,-66,134c0,0,-66,48,-191,48H310V594h73c0,0,111,0,172,48c0,0,60,48,60,133c0,0,0,84,-49,132c0,0,-50,49,-147,49c0,0,-89,0,-144,-45c0,0,-55,-46,-64,-129L76,793c0,0,15,129,107,201c0,0,92,73,237,73c0,0,158,0,246,-74c0,0,87,-73,87,-204c0,0,0,-101,-56,-164c0,0,-56,-63,-164,-85v-3c0,0,118,-13,184,-79c0,0,66,-67,66,-167c0,0,0,-146,-93,-226c0,0,-92,-79,-264,-79Z" 
id="f1_n"
transform="scale(0.001,-0.001)" />

<path d="M116,0V114H384V923L147,754V881l248,170H519V114H775V0Z" 
id="f1_l"
transform="scale(0.001,-0.001)" />

<path d="M590,-14c0,0,-159,0,-275,65c0,0,-116,66,-177,189c0,0,-60,123,-60,291c0,0,0,251,135,393c0,0,136,143,376,143c0,0,168,0,281,-66c0,0,112,-66,165,-195L900,762c0,0,-36,92,-117,141c0,0,-81,48,-192,48c0,0,-175,0,-272,-112c0,0,-97,-112,-97,-308c0,0,0,-193,101,-311c0,0,101,-117,274,-117c0,0,221,0,332,218l116,-58c0,0,-65,-136,-182,-207c0,0,-118,-70,-273,-70Z" 
id="f1_13"
transform="scale(0.001,-0.001)" />

<path d="M125,0V1051H313L592,322c0,0,15,-44,29,-94c0,0,14,-50,18,-73c0,0,6,30,25,91c0,0,19,61,26,76l275,729h182V0H1019V701c0,0,0,117,7,224c0,0,-37,-133,-66,-209L689,0H589L313,716L272,843l-25,82l2,-83l3,-141V0Z" 
id="f1_1d"
transform="scale(0.001,-0.001)" />

<path d="M298,0L5,808H148L326,282c0,0,10,-29,51,-176l27,87l29,88L616,808H759L457,0Z" 
id="f1_2i"
transform="scale(0.001,-0.001)" />

<path d="M395,0V936H34v115H898V936H537V0Z" 
id="f1_1k"
transform="scale(0.001,-0.001)" />

<path d="M125,0V1051H923V936H268V597H878V482H268V115H953V0Z" 
id="f1_15"
transform="scale(0.001,-0.001)" />

<path d="M77,0V95c0,0,38,87,93,154c0,0,55,67,115,121c0,0,60,54,120,100c0,0,59,46,107,93c0,0,47,46,77,97c0,0,29,50,29,114c0,0,0,87,-50,135c0,0,-51,47,-141,47c0,0,-86,0,-142,-46c0,0,-55,-47,-65,-131L83,791c0,0,15,126,107,201c0,0,92,75,237,75c0,0,159,0,244,-75c0,0,85,-75,85,-213c0,0,0,-61,-28,-122c0,0,-28,-60,-83,-120c0,0,-55,-61,-211,-188c0,0,-86,-70,-136,-126c0,0,-51,-56,-73,-109H773V0Z" 
id="f1_m"
transform="scale(0.001,-0.001)" />

<path d="M606,-14c0,0,-164,0,-284,65c0,0,-119,66,-182,189c0,0,-63,123,-63,291c0,0,0,255,137,396c0,0,137,140,386,140c0,0,174,0,283,-59c0,0,109,-59,168,-189L915,779c0,0,-44,90,-123,131c0,0,-79,41,-196,41c0,0,-182,0,-278,-110c0,0,-96,-110,-96,-310c0,0,0,-200,102,-315c0,0,102,-115,282,-115c0,0,103,0,193,31c0,0,89,31,144,85V407H629V526h445V164c0,0,-83,-85,-205,-132c0,0,-121,-46,-263,-46Z" 
id="f1_17"
transform="scale(0.001,-0.001)" />

<path d="M593,101c0,0,182,0,279,112c0,0,98,113,98,318c0,0,0,196,-98,308c0,0,-98,112,-277,112c0,0,-181,0,-279,-110c0,0,-99,-111,-99,-310c0,0,0,-198,100,-314c0,0,99,-116,276,-116Zm0,-115c0,0,-162,0,-279,65c0,0,-118,66,-180,190c0,0,-62,124,-62,290c0,0,0,252,138,394c0,0,138,142,385,142c0,0,160,0,278,-64c0,0,118,-64,180,-185c0,0,62,-122,62,-287c0,0,0,-165,-63,-289c0,0,-63,-124,-181,-190c0,0,-118,-66,-278,-66Z" 
id="f1_1f"
transform="scale(0.001,-0.001)" />

<path d="M0,-14L307,1107H424L121,-14Z" 
id="f1_j"
transform="scale(0.001,-0.001)" />

<path d="M494,385V878L152,385ZM494,0V262H20V385l498,708H628V385H775V262H628V0Z" 
id="f2_o"
transform="scale(0.001,-0.001)" />

<path d="M125,0V1051H268V115H799V0Z" 
id="f0_1c"
transform="scale(0.001,-0.001)" />

<path d="M106,0V620c0,0,0,85,-5,188H228c0,0,6,-138,6,-165h3c0,0,32,103,74,141c0,0,42,38,118,38c0,0,27,0,54,-7V692c0,0,-26,7,-71,7c0,0,-84,0,-128,-72c0,0,-44,-72,-44,-206V0Z" 
id="f0_2e"
transform="scale(0.001,-0.001)" />

<path d="M606,-14c0,0,-164,0,-284,65c0,0,-119,66,-182,189c0,0,-63,123,-63,291c0,0,0,255,137,396c0,0,137,140,386,140c0,0,174,0,283,-59c0,0,109,-59,168,-189L915,779c0,0,-44,90,-123,131c0,0,-79,41,-196,41c0,0,-182,0,-278,-110c0,0,-96,-110,-96,-310c0,0,0,-200,102,-315c0,0,102,-115,282,-115c0,0,103,0,193,31c0,0,89,31,144,85V407H629V526h445V164c0,0,-83,-85,-205,-132c0,0,-121,-46,-263,-46Z" 
id="f0_17"
transform="scale(0.001,-0.001)" />

<path d="M355,-14c0,0,-133,0,-194,65c0,0,-62,66,-62,219V808H234V296c0,0,0,-80,16,-124c0,0,16,-44,50,-64c0,0,34,-19,101,-19c0,0,97,0,153,66c0,0,55,67,55,185V808H744V172c0,0,0,-141,4,-172H621c0,0,0,4,-1,20c0,0,-1,17,-2,38c0,0,-1,21,-3,80h-2C613,138,567,55,506,20c0,0,-61,-34,-151,-34Z" 
id="f0_2h"
transform="scale(0.001,-0.001)" />

<path d="M395,89c0,0,115,0,166,79c0,0,51,79,51,246c0,0,0,160,-51,235c0,0,-51,75,-164,75c0,0,-102,0,-147,-75c0,0,-45,-75,-45,-244c0,0,0,-170,45,-243c0,0,45,-73,145,-73ZM361,-14c0,0,-153,0,-225,102c0,0,-72,103,-72,312c0,0,0,422,297,422c0,0,92,0,153,-33c0,0,61,-34,98,-107h2l-2,90v335H747V166c0,0,0,-126,4,-166H623c0,0,-2,12,-5,55c0,0,-3,44,-3,75h-3c0,0,-37,-78,-98,-111c0,0,-62,-33,-153,-33Z" 
id="f0_20"
transform="scale(0.001,-0.001)" />

<path d="M140,0V163H285V0Z" 
id="f0_i"
transform="scale(0.001,-0.001)" />


</defs>
</svg>