<?xml version="1.0" encoding="UTF-8" standalone="no"?>
<!DOCTYPE svg PUBLIC "-//W3C//DTD SVG 1.1//EN"
"http://www.w3.org/Graphics/SVG/1.1/DTD/svg11.dtd">
<svg viewBox="0 0 740 1092" version="1.1" xmlns="http://www.w3.org/2000/svg" xmlns:xlink="http://www.w3.org/1999/xlink">
<defs>
</defs>
<g fill="#D4D4D4" fill-opacity="0.36" >
<use xlink:href="#f0_1f" transform="matrix(50.9,-50.9,50.9,50.9,129.3,814.1)" />
<use xlink:href="#f0_2a" transform="matrix(50.9,-50.9,50.9,50.9,189.9,753.6)" />
<use xlink:href="#f0_28" transform="matrix(50.9,-50.9,50.9,50.9,233.1,710.3)" />
<use xlink:href="#f0_25" transform="matrix(50.9,-50.9,50.9,50.9,250.4,693.1)" />
<use xlink:href="#f0_2a" transform="matrix(50.9,-50.9,50.9,50.9,267.6,675.8)" />
<use xlink:href="#f0_21" transform="matrix(50.9,-50.9,50.9,50.9,310.9,632.5)" />
<use xlink:href="#f0_2k" transform="matrix(50.9,-50.9,50.9,50.9,354.1,589.3)" />
<use xlink:href="#f0_1x" transform="matrix(50.9,-50.9,50.9,50.9,393,550.4)" />
<use xlink:href="#f0_29" transform="matrix(50.9,-50.9,50.9,50.9,436.3,507.2)" />
<use xlink:href="#f0_2c" transform="matrix(50.9,-50.9,50.9,50.9,501.1,442.4)" />
<use xlink:href="#f0_2b" transform="matrix(50.9,-50.9,50.9,50.9,544.3,399.1)" />
<use xlink:href="#f0_25" transform="matrix(50.9,-50.9,50.9,50.9,587.6,355.9)" />
<use xlink:href="#f0_2a" transform="matrix(50.9,-50.9,50.9,50.9,604.8,338.6)" />
<use xlink:href="#f0_2g" transform="matrix(50.9,-50.9,50.9,50.9,648.1,295.4)" />
</g>
<g fill="#000000" >
<use xlink:href="#f1_p" transform="matrix(10.4,0,0,10.4,41.9,84.5)" />
<use xlink:href="#f1_i" transform="matrix(10.4,0,0,10.4,51.3,84.5)" />
<use xlink:href="#f1_18" transform="matrix(10.4,0,0,10.4,85.2,84.5)" />
<use xlink:href="#f1_2b" transform="matrix(10.4,0,0,10.4,96.7,84.5)" />
<use xlink:href="#f1_2j" transform="matrix(10.4,0,0,10.4,105.5,84.5)" />
<use xlink:href="#f1_2j" transform="matrix(10.4,0,0,10.4,124.4,84.5)" />
<use xlink:href="#f1_25" transform="matrix(10.4,0,0,10.4,135.6,84.5)" />
<use xlink:href="#f1_28" transform="matrix(10.4,0,0,10.4,139.1,84.5)" />
<use xlink:href="#f1_28" transform="matrix(10.4,0,0,10.4,142.5,84.5)" />
<use xlink:href="#f1_2l" transform="matrix(10.4,0,0,10.4,153.7,84.5)" />
<use xlink:href="#f1_2b" transform="matrix(10.4,0,0,10.4,161.2,84.5)" />
<use xlink:href="#f1_2h" transform="matrix(10.4,0,0,10.4,170,84.5)" />
<use xlink:href="#f1_1y" transform="matrix(10.4,0,0,10.4,186.5,84.5)" />
<use xlink:href="#f1_2e" transform="matrix(10.4,0,0,10.4,195.3,84.5)" />
<use xlink:href="#f1_25" transform="matrix(10.4,0,0,10.4,200.7,84.5)" />
<use xlink:href="#f1_2a" transform="matrix(10.4,0,0,10.4,204.1,84.5)" />
<use xlink:href="#f1_23" transform="matrix(10.4,0,0,10.4,212.9,84.5)" />
<use xlink:href="#f1_1x" transform="matrix(10.4,0,0,10.4,229.3,84.5)" />
<use xlink:href="#f1_1y" transform="matrix(10.4,0,0,10.4,238.1,84.5)" />
<use xlink:href="#f1_2b" transform="matrix(10.4,0,0,10.4,246.9,84.5)" />
<use xlink:href="#f1_2h" transform="matrix(10.4,0,0,10.4,255.7,84.5)" />
<use xlink:href="#f1_2g" transform="matrix(10.4,0,0,10.4,264.5,84.5)" />
<use xlink:href="#f1_2g" transform="matrix(10.4,0,0,10.4,276.5,84.5)" />
<use xlink:href="#f1_24" transform="matrix(10.4,0,0,10.4,281,84.5)" />
<use xlink:href="#f1_21" transform="matrix(10.4,0,0,10.4,289.8,84.5)" />
<use xlink:href="#f1_22" transform="matrix(10.4,0,0,10.4,306.2,84.5)" />
<use xlink:href="#f1_2b" transform="matrix(10.4,0,0,10.4,310.8,84.5)" />
<use xlink:href="#f1_28" transform="matrix(10.4,0,0,10.4,319.6,84.5)" />
<use xlink:href="#f1_28" transform="matrix(10.4,0,0,10.4,323.1,84.5)" />
<use xlink:href="#f1_2b" transform="matrix(10.4,0,0,10.4,326.6,84.5)" />
<use xlink:href="#f1_2j" transform="matrix(10.4,0,0,10.4,335.4,84.5)" />
<use xlink:href="#f1_25" transform="matrix(10.4,0,0,10.4,346.6,84.5)" />
<use xlink:href="#f1_2a" transform="matrix(10.4,0,0,10.4,350.1,84.5)" />
<use xlink:href="#f1_23" transform="matrix(10.4,0,0,10.4,358.9,84.5)" />
<use xlink:href="#f1_1z" transform="matrix(10.4,0,0,10.4,375.4,84.5)" />
<use xlink:href="#f1_2b" transform="matrix(10.4,0,0,10.4,383.4,84.5)" />
<use xlink:href="#f1_2a" transform="matrix(10.4,0,0,10.4,392.2,84.5)" />
<use xlink:href="#f1_2i" transform="matrix(10.4,0,0,10.4,401,84.5)" />
<use xlink:href="#f1_21" transform="matrix(10.4,0,0,10.4,408.9,84.5)" />
<use xlink:href="#f1_2e" transform="matrix(10.4,0,0,10.4,417.7,84.5)" />
<use xlink:href="#f1_2f" transform="matrix(10.4,0,0,10.4,423,84.5)" />
<use xlink:href="#f1_25" transform="matrix(10.4,0,0,10.4,431.1,84.5)" />
<use xlink:href="#f1_2b" transform="matrix(10.4,0,0,10.4,434.6,84.5)" />
<use xlink:href="#f1_2a" transform="matrix(10.4,0,0,10.4,443.4,84.5)" />
<use xlink:href="#f1_2f" transform="matrix(10.4,0,0,10.4,452.2,84.5)" />
<use xlink:href="#f1_z" transform="matrix(10.4,0,0,10.4,460.2,84.5)" />
<use xlink:href="#f1_c" transform="matrix(10.4,0,0,10.4,85.2,114.6)" />
<use xlink:href="#f1_25" transform="matrix(10.4,0,0,10.4,90.9,114.6)" />
<use xlink:href="#f1_d" transform="matrix(10.4,0,0,10.4,94.7,114.6)" />
<use xlink:href="#f1_1y" transform="matrix(10.4,0,0,10.4,128.4,114.6)" />
<use xlink:href="#f1_21" transform="matrix(10.4,0,0,10.4,137.2,114.6)" />
<use xlink:href="#f1_2a" transform="matrix(10.4,0,0,10.4,146.2,114.6)" />
<use xlink:href="#f1_2m" transform="matrix(10.4,0,0,10.4,155,114.6)" />
<use xlink:href="#f1_21" transform="matrix(10.4,0,0,10.4,162.9,114.6)" />
<use xlink:href="#f1_2a" transform="matrix(10.4,0,0,10.4,171.7,114.6)" />
<use xlink:href="#f1_21" transform="matrix(10.4,0,0,10.4,180.5,114.6)" />
<use xlink:href="#f1_2g" transform="matrix(10.4,0,0,10.4,198.3,114.6)" />
<use xlink:href="#f1_2b" transform="matrix(10.4,0,0,10.4,202.7,114.6)" />
<use xlink:href="#f1_n" transform="matrix(10.4,0,0,10.4,220.5,114.6)" />
<use xlink:href="#f1_h" transform="matrix(10.4,0,0,10.4,229.4,114.6)" />
<use xlink:href="#f1_1y" transform="matrix(10.4,0,0,10.4,234.8,114.6)" />
<use xlink:href="#f1_2e" transform="matrix(10.4,0,0,10.4,243.6,114.6)" />
<use xlink:href="#f1_2b" transform="matrix(10.4,0,0,10.4,249.1,114.6)" />
<use xlink:href="#f1_29" transform="matrix(10.4,0,0,10.4,257.9,114.6)" />
<use xlink:href="#f1_2b" transform="matrix(10.4,0,0,10.4,271.4,114.6)" />
<use xlink:href="#f1_2a" transform="matrix(10.4,0,0,10.4,280.4,114.6)" />
<use xlink:href="#f1_25" transform="matrix(10.4,0,0,10.4,289.2,114.6)" />
<use xlink:href="#f1_2g" transform="matrix(10.4,0,0,10.4,292.9,114.6)" />
<use xlink:href="#f1_2e" transform="matrix(10.4,0,0,10.4,297.3,114.6)" />
<use xlink:href="#f1_2b" transform="matrix(10.4,0,0,10.4,302.6,114.6)" />
<use xlink:href="#f1_1y" transform="matrix(10.4,0,0,10.4,311.6,114.6)" />
<use xlink:href="#f1_21" transform="matrix(10.4,0,0,10.4,320.4,114.6)" />
<use xlink:href="#f1_2a" transform="matrix(10.4,0,0,10.4,329.2,114.6)" />
<use xlink:href="#f1_2m" transform="matrix(10.4,0,0,10.4,338.1,114.6)" />
<use xlink:href="#f1_21" transform="matrix(10.4,0,0,10.4,345.8,114.6)" />
<use xlink:href="#f1_2a" transform="matrix(10.4,0,0,10.4,354.8,114.6)" />
<use xlink:href="#f1_21" transform="matrix(10.4,0,0,10.4,363.6,114.6)" />
<use xlink:href="#f1_c" transform="matrix(10.4,0,0,10.4,85.2,144.6)" />
<use xlink:href="#f1_25" transform="matrix(10.4,0,0,10.4,90.7,144.6)" />
<use xlink:href="#f1_25" transform="matrix(10.4,0,0,10.4,94.5,144.6)" />
<use xlink:href="#f1_d" transform="matrix(10.4,0,0,10.4,98.2,144.6)" />
<use xlink:href="#f1_21" transform="matrix(10.4,0,0,10.4,128.4,144.6)" />
<use xlink:href="#f1_2g" transform="matrix(10.4,0,0,10.4,137.4,144.6)" />
<use xlink:href="#f1_24" transform="matrix(10.4,0,0,10.4,141.8,144.6)" />
<use xlink:href="#f1_1x" transform="matrix(10.4,0,0,10.4,150.8,144.6)" />
<use xlink:href="#f1_2a" transform="matrix(10.4,0,0,10.4,159.6,144.6)" />
<use xlink:href="#f1_2b" transform="matrix(10.4,0,0,10.4,168.6,144.6)" />
<use xlink:href="#f1_28" transform="matrix(10.4,0,0,10.4,177.4,144.6)" />
<use xlink:href="#f1_2g" transform="matrix(10.4,0,0,10.4,190,144.6)" />
<use xlink:href="#f1_2b" transform="matrix(10.4,0,0,10.4,194.4,144.6)" />
<use xlink:href="#f1_1y" transform="matrix(10.4,0,0,10.4,212.2,144.6)" />
<use xlink:href="#f1_2h" transform="matrix(10.4,0,0,10.4,221.2,144.6)" />
<use xlink:href="#f1_2g" transform="matrix(10.4,0,0,10.4,230.2,144.6)" />
<use xlink:href="#f1_h" transform="matrix(10.4,0,0,10.4,234.6,144.6)" />
<use xlink:href="#f1_l" transform="matrix(10.4,0,0,10.4,240.1,144.6)" />
<use xlink:href="#f1_h" transform="matrix(10.4,0,0,10.4,248.9,144.6)" />
<use xlink:href="#f1_2l" transform="matrix(10.4,0,0,10.4,254.4,144.6)" />
<use xlink:href="#f1_2a" transform="matrix(10.4,0,0,10.4,261.9,144.6)" />
<use xlink:href="#f1_21" transform="matrix(10.4,0,0,10.4,270.9,144.6)" />
<use xlink:href="#f1_c" transform="matrix(10.4,0,0,10.4,85.2,174.5)" />
<use xlink:href="#f1_25" transform="matrix(10.4,0,0,10.4,90.7,174.5)" />
<use xlink:href="#f1_25" transform="matrix(10.4,0,0,10.4,94.3,174.5)" />
<use xlink:href="#f1_25" transform="matrix(10.4,0,0,10.4,98,174.5)" />
<use xlink:href="#f1_d" transform="matrix(10.4,0,0,10.4,101.7,174.5)" />
<use xlink:href="#f1_l" transform="matrix(10.4,0,0,10.4,128.4,174.5)" />
<use xlink:href="#f1_h" transform="matrix(10.4,0,0,10.4,137.4,174.5)" />
<use xlink:href="#f1_1y" transform="matrix(10.4,0,0,10.4,142.9,174.5)" />
<use xlink:href="#f1_2e" transform="matrix(10.4,0,0,10.4,151.7,174.5)" />
<use xlink:href="#f1_2b" transform="matrix(10.4,0,0,10.4,157.2,174.5)" />
<use xlink:href="#f1_29" transform="matrix(10.4,0,0,10.4,166.2,174.5)" />
<use xlink:href="#f1_2b" transform="matrix(10.4,0,0,10.4,179.9,174.5)" />
<use xlink:href="#f1_2c" transform="matrix(10.4,0,0,10.4,188.9,174.5)" />
<use xlink:href="#f1_2e" transform="matrix(10.4,0,0,10.4,197.7,174.5)" />
<use xlink:href="#f1_2b" transform="matrix(10.4,0,0,10.4,203.2,174.5)" />
<use xlink:href="#f1_2c" transform="matrix(10.4,0,0,10.4,212.2,174.5)" />
<use xlink:href="#f1_1x" transform="matrix(10.4,0,0,10.4,221.2,174.5)" />
<use xlink:href="#f1_2a" transform="matrix(10.4,0,0,10.4,230.2,174.5)" />
<use xlink:href="#f1_21" transform="matrix(10.4,0,0,10.4,239,174.5)" />
<use xlink:href="#f1_2g" transform="matrix(10.4,0,0,10.4,256.9,174.5)" />
<use xlink:href="#f1_2b" transform="matrix(10.4,0,0,10.4,261.5,174.5)" />
<use xlink:href="#f1_m" transform="matrix(10.4,0,0,10.4,279.5,174.5)" />
<use xlink:href="#f1_h" transform="matrix(10.4,0,0,10.4,288.3,174.5)" />
<use xlink:href="#f1_1y" transform="matrix(10.4,0,0,10.4,293.8,174.5)" />
<use xlink:href="#f1_2e" transform="matrix(10.4,0,0,10.4,302.8,174.5)" />
<use xlink:href="#f1_2b" transform="matrix(10.4,0,0,10.4,308.2,174.5)" />
<use xlink:href="#f1_29" transform="matrix(10.4,0,0,10.4,317.2,174.5)" />
<use xlink:href="#f1_2b" transform="matrix(10.4,0,0,10.4,330.8,174.5)" />
<use xlink:href="#f1_2c" transform="matrix(10.4,0,0,10.4,339.8,174.5)" />
<use xlink:href="#f1_2e" transform="matrix(10.4,0,0,10.4,348.8,174.5)" />
<use xlink:href="#f1_2b" transform="matrix(10.4,0,0,10.4,354.3,174.5)" />
<use xlink:href="#f1_2c" transform="matrix(10.4,0,0,10.4,363.2,174.5)" />
<use xlink:href="#f1_1x" transform="matrix(10.4,0,0,10.4,372,174.5)" />
<use xlink:href="#f1_2a" transform="matrix(10.4,0,0,10.4,381,174.5)" />
<use xlink:href="#f1_21" transform="matrix(10.4,0,0,10.4,390,174.5)" />
<use xlink:href="#f1_c" transform="matrix(10.4,0,0,10.4,85.2,204.6)" />
<use xlink:href="#f1_25" transform="matrix(10.4,0,0,10.4,90.9,204.6)" />
<use xlink:href="#f1_2i" transform="matrix(10.4,0,0,10.4,94.5,204.6)" />
<use xlink:href="#f1_d" transform="matrix(10.4,0,0,10.4,102.8,204.6)" />
<use xlink:href="#f1_1y" transform="matrix(10.4,0,0,10.4,128.4,204.6)" />
<use xlink:href="#f1_21" transform="matrix(10.4,0,0,10.4,137.4,204.6)" />
<use xlink:href="#f1_2a" transform="matrix(10.4,0,0,10.4,146.2,204.6)" />
<use xlink:href="#f1_2m" transform="matrix(10.4,0,0,10.4,155.2,204.6)" />
<use xlink:href="#f1_21" transform="matrix(10.4,0,0,10.4,162.9,204.6)" />
<use xlink:href="#f1_2a" transform="matrix(10.4,0,0,10.4,171.9,204.6)" />
<use xlink:href="#f1_21" transform="matrix(10.4,0,0,10.4,180.7,204.6)" />
<use xlink:href="#f1_2g" transform="matrix(10.4,0,0,10.4,198.5,204.6)" />
<use xlink:href="#f1_2b" transform="matrix(10.4,0,0,10.4,203,204.6)" />
<use xlink:href="#f1_o" transform="matrix(10.4,0,0,10.4,220.8,204.6)" />
<use xlink:href="#f1_h" transform="matrix(10.4,0,0,10.4,229.8,204.6)" />
<use xlink:href="#f1_1y" transform="matrix(10.4,0,0,10.4,235.1,204.6)" />
<use xlink:href="#f1_2e" transform="matrix(10.4,0,0,10.4,244.1,204.6)" />
<use xlink:href="#f1_2b" transform="matrix(10.4,0,0,10.4,249.4,204.6)" />
<use xlink:href="#f1_29" transform="matrix(10.4,0,0,10.4,258.4,204.6)" />
<use xlink:href="#f1_2b" transform="matrix(10.4,0,0,10.4,272.1,204.6)" />
<use xlink:href="#f1_h" transform="matrix(10.4,0,0,10.4,280.9,204.6)" />
<use xlink:href="#f1_l" transform="matrix(10.4,0,0,10.4,286.4,204.6)" />
<use xlink:href="#f1_h" transform="matrix(10.4,0,0,10.4,295.2,204.6)" />
<use xlink:href="#f1_2a" transform="matrix(10.4,0,0,10.4,300.7,204.6)" />
<use xlink:href="#f1_25" transform="matrix(10.4,0,0,10.4,309.5,204.6)" />
<use xlink:href="#f1_2g" transform="matrix(10.4,0,0,10.4,313.2,204.6)" />
<use xlink:href="#f1_2e" transform="matrix(10.4,0,0,10.4,317.6,204.6)" />
<use xlink:href="#f1_2b" transform="matrix(10.4,0,0,10.4,323.1,204.6)" />
<use xlink:href="#f1_1y" transform="matrix(10.4,0,0,10.4,332.1,204.6)" />
<use xlink:href="#f1_21" transform="matrix(10.4,0,0,10.4,340.9,204.6)" />
<use xlink:href="#f1_2a" transform="matrix(10.4,0,0,10.4,349.9,204.6)" />
<use xlink:href="#f1_2m" transform="matrix(10.4,0,0,10.4,358.7,204.6)" />
<use xlink:href="#f1_21" transform="matrix(10.4,0,0,10.4,366.5,204.6)" />
<use xlink:href="#f1_2a" transform="matrix(10.4,0,0,10.4,375.3,204.6)" />
<use xlink:href="#f1_21" transform="matrix(10.4,0,0,10.4,384.3,204.6)" />
<use xlink:href="#f1_c" transform="matrix(10.4,0,0,10.4,85.2,234.6)" />
<use xlink:href="#f1_2i" transform="matrix(10.4,0,0,10.4,90.9,234.6)" />
<use xlink:href="#f1_d" transform="matrix(10.4,0,0,10.4,99.3,234.6)" />
<use xlink:href="#f1_1x" transform="matrix(10.4,0,0,10.4,128.4,234.6)" />
<use xlink:href="#f1_2a" transform="matrix(10.4,0,0,10.4,137.2,234.6)" />
<use xlink:href="#f1_25" transform="matrix(10.4,0,0,10.4,146,234.6)" />
<use xlink:href="#f1_28" transform="matrix(10.4,0,0,10.4,149.7,234.6)" />
<use xlink:href="#f1_25" transform="matrix(10.4,0,0,10.4,153.2,234.6)" />
<use xlink:href="#f1_2a" transform="matrix(10.4,0,0,10.4,156.7,234.6)" />
<use xlink:href="#f1_21" transform="matrix(10.4,0,0,10.4,165.5,234.6)" />
<use xlink:href="#f1_2g" transform="matrix(10.4,0,0,10.4,183.2,234.6)" />
<use xlink:href="#f1_2b" transform="matrix(10.4,0,0,10.4,187.6,234.6)" />
<use xlink:href="#f1_1z" transform="matrix(10.4,0,0,10.4,205.2,234.6)" />
<use xlink:href="#f1_24" transform="matrix(10.4,0,0,10.4,213.5,234.6)" />
<use xlink:href="#f1_28" transform="matrix(10.4,0,0,10.4,222.3,234.6)" />
<use xlink:href="#f1_2b" transform="matrix(10.4,0,0,10.4,225.8,234.6)" />
<use xlink:href="#f1_2e" transform="matrix(10.4,0,0,10.4,234.6,234.6)" />
<use xlink:href="#f1_2b" transform="matrix(10.4,0,0,10.4,239.9,234.6)" />
<use xlink:href="#f1_1y" transform="matrix(10.4,0,0,10.4,248.9,234.6)" />
<use xlink:href="#f1_21" transform="matrix(10.4,0,0,10.4,257.7,234.6)" />
<use xlink:href="#f1_2a" transform="matrix(10.4,0,0,10.4,266.5,234.6)" />
<use xlink:href="#f1_2m" transform="matrix(10.4,0,0,10.4,275.3,234.6)" />
<use xlink:href="#f1_21" transform="matrix(10.4,0,0,10.4,283.2,234.6)" />
<use xlink:href="#f1_2a" transform="matrix(10.4,0,0,10.4,292,234.6)" />
<use xlink:href="#f1_21" transform="matrix(10.4,0,0,10.4,300.8,234.6)" />
<use xlink:href="#f1_c" transform="matrix(10.4,0,0,10.4,85.2,264.7)" />
<use xlink:href="#f1_2i" transform="matrix(10.4,0,0,10.4,90.9,264.7)" />
<use xlink:href="#f1_25" transform="matrix(10.4,0,0,10.4,98.9,264.7)" />
<use xlink:href="#f1_d" transform="matrix(10.4,0,0,10.4,102.8,264.7)" />
<use xlink:href="#f1_m" transform="matrix(10.4,0,0,10.4,128.4,264.7)" />
<use xlink:href="#f1_h" transform="matrix(10.4,0,0,10.4,137.4,264.7)" />
<use xlink:href="#f1_29" transform="matrix(10.4,0,0,10.4,142.9,264.7)" />
<use xlink:href="#f1_21" transform="matrix(10.4,0,0,10.4,156.7,264.7)" />
<use xlink:href="#f1_2g" transform="matrix(10.4,0,0,10.4,165.6,264.7)" />
<use xlink:href="#f1_24" transform="matrix(10.4,0,0,10.4,170.2,264.7)" />
<use xlink:href="#f1_2l" transform="matrix(10.4,0,0,10.4,179.2,264.7)" />
<use xlink:href="#f1_28" transform="matrix(10.4,0,0,10.4,186.9,264.7)" />
<use xlink:href="#f1_h" transform="matrix(10.4,0,0,10.4,190.6,264.7)" />
<use xlink:href="#f1_l" transform="matrix(10.4,0,0,10.4,196.1,264.7)" />
<use xlink:href="#f1_h" transform="matrix(10.4,0,0,10.4,205.1,264.7)" />
<use xlink:href="#f1_2c" transform="matrix(10.4,0,0,10.4,210.5,264.7)" />
<use xlink:href="#f1_2e" transform="matrix(10.4,0,0,10.4,219.5,264.7)" />
<use xlink:href="#f1_2b" transform="matrix(10.4,0,0,10.4,225,264.7)" />
<use xlink:href="#f1_2c" transform="matrix(10.4,0,0,10.4,234,264.7)" />
<use xlink:href="#f1_21" transform="matrix(10.4,0,0,10.4,243,264.7)" />
<use xlink:href="#f1_2a" transform="matrix(10.4,0,0,10.4,252,264.7)" />
<use xlink:href="#f1_21" transform="matrix(10.4,0,0,10.4,261,264.7)" />
<use xlink:href="#f1_2g" transform="matrix(10.4,0,0,10.4,278.9,264.7)" />
<use xlink:href="#f1_2b" transform="matrix(10.4,0,0,10.4,283.5,264.7)" />
<use xlink:href="#f1_m" transform="matrix(10.4,0,0,10.4,301.5,264.7)" />
<use xlink:href="#f1_h" transform="matrix(10.4,0,0,10.4,310.3,264.7)" />
<use xlink:href="#f1_1z" transform="matrix(10.4,0,0,10.4,315.8,264.7)" />
<use xlink:href="#f1_24" transform="matrix(10.4,0,0,10.4,324,264.7)" />
<use xlink:href="#f1_28" transform="matrix(10.4,0,0,10.4,333,264.7)" />
<use xlink:href="#f1_2b" transform="matrix(10.4,0,0,10.4,336.7,264.7)" />
<use xlink:href="#f1_2e" transform="matrix(10.4,0,0,10.4,345.6,264.7)" />
<use xlink:href="#f1_2b" transform="matrix(10.4,0,0,10.4,351.1,264.7)" />
<use xlink:href="#f1_h" transform="matrix(10.4,0,0,10.4,360.1,264.7)" />
<use xlink:href="#f1_m" transform="matrix(10.4,0,0,10.4,365.6,264.7)" />
<use xlink:href="#f1_h" transform="matrix(10.4,0,0,10.4,374.6,264.7)" />
<use xlink:href="#f1_29" transform="matrix(10.4,0,0,10.4,380.1,264.7)" />
<use xlink:href="#f1_21" transform="matrix(10.4,0,0,10.4,393.8,264.7)" />
<use xlink:href="#f1_2g" transform="matrix(10.4,0,0,10.4,402.8,264.7)" />
<use xlink:href="#f1_24" transform="matrix(10.4,0,0,10.4,407.4,264.7)" />
<use xlink:href="#f1_2l" transform="matrix(10.4,0,0,10.4,416.4,264.7)" />
<use xlink:href="#f1_28" transform="matrix(10.4,0,0,10.4,424.1,264.7)" />
<use xlink:href="#f1_2c" transform="matrix(10.4,0,0,10.4,427.8,264.7)" />
<use xlink:href="#f1_2e" transform="matrix(10.4,0,0,10.4,436.7,264.7)" />
<use xlink:href="#f1_2b" transform="matrix(10.4,0,0,10.4,442.2,264.7)" />
<use xlink:href="#f1_2c" transform="matrix(10.4,0,0,10.4,451.2,264.7)" />
<use xlink:href="#f1_1x" transform="matrix(10.4,0,0,10.4,460.2,264.7)" />
<use xlink:href="#f1_2a" transform="matrix(10.4,0,0,10.4,469.2,264.7)" />
<use xlink:href="#f1_21" transform="matrix(10.4,0,0,10.4,478.2,264.7)" />
<use xlink:href="#f1_c" transform="matrix(10.4,0,0,10.4,85.2,294.6)" />
<use xlink:href="#f1_2i" transform="matrix(10.4,0,0,10.4,90.7,294.6)" />
<use xlink:href="#f1_25" transform="matrix(10.4,0,0,10.4,98.7,294.6)" />
<use xlink:href="#f1_25" transform="matrix(10.4,0,0,10.4,102.6,294.6)" />
<use xlink:href="#f1_d" transform="matrix(10.4,0,0,10.4,106.2,294.6)" />
<use xlink:href="#f1_21" transform="matrix(10.4,0,0,10.4,128.4,294.6)" />
<use xlink:href="#f1_2g" transform="matrix(10.4,0,0,10.4,137.2,294.6)" />
<use xlink:href="#f1_24" transform="matrix(10.4,0,0,10.4,141.6,294.6)" />
<use xlink:href="#f1_2l" transform="matrix(10.4,0,0,10.4,150.4,294.6)" />
<use xlink:href="#f1_28" transform="matrix(10.4,0,0,10.4,158,294.6)" />
<use xlink:href="#f1_1z" transform="matrix(10.4,0,0,10.4,170.1,294.6)" />
<use xlink:href="#f1_24" transform="matrix(10.4,0,0,10.4,178.1,294.6)" />
<use xlink:href="#f1_28" transform="matrix(10.4,0,0,10.4,186.9,294.6)" />
<use xlink:href="#f1_2b" transform="matrix(10.4,0,0,10.4,190.4,294.6)" />
<use xlink:href="#f1_2e" transform="matrix(10.4,0,0,10.4,199.2,294.6)" />
<use xlink:href="#f1_25" transform="matrix(10.4,0,0,10.4,204.5,294.6)" />
<use xlink:href="#f1_20" transform="matrix(10.4,0,0,10.4,208,294.6)" />
<use xlink:href="#f1_21" transform="matrix(10.4,0,0,10.4,216.8,294.6)" />
<use xlink:href="#f1_2g" transform="matrix(10.4,0,0,10.4,234,294.6)" />
<use xlink:href="#f1_2b" transform="matrix(10.4,0,0,10.4,238.4,294.6)" />
<use xlink:href="#f1_2c" transform="matrix(10.4,0,0,10.4,255.8,294.6)" />
<use xlink:href="#f1_2e" transform="matrix(10.4,0,0,10.4,264.6,294.6)" />
<use xlink:href="#f1_2b" transform="matrix(10.4,0,0,10.4,270,294.6)" />
<use xlink:href="#f1_2c" transform="matrix(10.4,0,0,10.4,278.8,294.6)" />
<use xlink:href="#f1_1x" transform="matrix(10.4,0,0,10.4,287.6,294.6)" />
<use xlink:href="#f1_2a" transform="matrix(10.4,0,0,10.4,296.4,294.6)" />
<use xlink:href="#f1_2b" transform="matrix(10.4,0,0,10.4,305.2,294.6)" />
<use xlink:href="#f1_25" transform="matrix(10.4,0,0,10.4,314,294.6)" />
<use xlink:href="#f1_1z" transform="matrix(10.4,0,0,10.4,317.4,294.6)" />
<use xlink:href="#f1_1x" transform="matrix(10.4,0,0,10.4,334.1,294.6)" />
<use xlink:href="#f1_1z" transform="matrix(10.4,0,0,10.4,342.9,294.6)" />
<use xlink:href="#f1_25" transform="matrix(10.4,0,0,10.4,351,294.6)" />
<use xlink:href="#f1_20" transform="matrix(10.4,0,0,10.4,354.5,294.6)" />
<use xlink:href="#f1_c" transform="matrix(10.4,0,0,10.4,85.2,324.7)" />
<use xlink:href="#f1_2i" transform="matrix(10.4,0,0,10.4,90.7,324.7)" />
<use xlink:href="#f1_25" transform="matrix(10.4,0,0,10.4,98.7,324.7)" />
<use xlink:href="#f1_25" transform="matrix(10.4,0,0,10.4,102.4,324.7)" />
<use xlink:href="#f1_25" transform="matrix(10.4,0,0,10.4,106.1,324.7)" />
<use xlink:href="#f1_d" transform="matrix(10.4,0,0,10.4,109.7,324.7)" />
<use xlink:href="#f1_1y" transform="matrix(10.4,0,0,10.4,128.4,324.7)" />
<use xlink:href="#f1_2h" transform="matrix(10.4,0,0,10.4,137.2,324.7)" />
<use xlink:href="#f1_2g" transform="matrix(10.4,0,0,10.4,146.2,324.7)" />
<use xlink:href="#f1_h" transform="matrix(10.4,0,0,10.4,150.6,324.7)" />
<use xlink:href="#f1_l" transform="matrix(10.4,0,0,10.4,155.9,324.7)" />
<use xlink:href="#f1_h" transform="matrix(10.4,0,0,10.4,164.9,324.7)" />
<use xlink:href="#f1_21" transform="matrix(10.4,0,0,10.4,170.2,324.7)" />
<use xlink:href="#f1_2a" transform="matrix(10.4,0,0,10.4,179,324.7)" />
<use xlink:href="#f1_21" transform="matrix(10.4,0,0,10.4,187.8,324.7)" />
<use xlink:href="#f1_2g" transform="matrix(10.4,0,0,10.4,205.6,324.7)" />
<use xlink:href="#f1_2b" transform="matrix(10.4,0,0,10.4,210,324.7)" />
<use xlink:href="#f1_2a" transform="matrix(10.4,0,0,10.4,227.8,324.7)" />
<use xlink:href="#f1_h" transform="matrix(10.4,0,0,10.4,236.6,324.7)" />
<use xlink:href="#f1_1y" transform="matrix(10.4,0,0,10.4,242.1,324.7)" />
<use xlink:href="#f1_2h" transform="matrix(10.4,0,0,10.4,250.9,324.7)" />
<use xlink:href="#f1_2g" transform="matrix(10.4,0,0,10.4,259.7,324.7)" />
<use xlink:href="#f1_2l" transform="matrix(10.4,0,0,10.4,264.3,324.7)" />
<use xlink:href="#f1_28" transform="matrix(10.4,0,0,10.4,271.8,324.7)" />
<use xlink:href="#f1_25" transform="matrix(10.4,0,0,10.4,284.1,324.7)" />
<use xlink:href="#f1_2b" transform="matrix(10.4,0,0,10.4,287.7,324.7)" />
<use xlink:href="#f1_20" transform="matrix(10.4,0,0,10.4,296.5,324.7)" />
<use xlink:href="#f1_25" transform="matrix(10.4,0,0,10.4,305.3,324.7)" />
<use xlink:href="#f1_20" transform="matrix(10.4,0,0,10.4,309,324.7)" />
<use xlink:href="#f1_21" transform="matrix(10.4,0,0,10.4,317.8,324.7)" />
<use xlink:href="#f1_c" transform="matrix(10.4,0,0,10.4,85.2,354.7)" />
<use xlink:href="#f1_25" transform="matrix(10.4,0,0,10.4,90.5,354.7)" />
<use xlink:href="#f1_2k" transform="matrix(10.4,0,0,10.4,93.8,354.7)" />
<use xlink:href="#f1_d" transform="matrix(10.4,0,0,10.4,101.7,354.7)" />
<use xlink:href="#f1_1y" transform="matrix(10.4,0,0,10.4,128.4,354.7)" />
<use xlink:href="#f1_21" transform="matrix(10.4,0,0,10.4,137.2,354.7)" />
<use xlink:href="#f1_2a" transform="matrix(10.4,0,0,10.4,146.2,354.7)" />
<use xlink:href="#f1_2m" transform="matrix(10.4,0,0,10.4,155,354.7)" />
<use xlink:href="#f1_21" transform="matrix(10.4,0,0,10.4,162.9,354.7)" />
<use xlink:href="#f1_2a" transform="matrix(10.4,0,0,10.4,171.7,354.7)" />
<use xlink:href="#f1_21" transform="matrix(10.4,0,0,10.4,180.7,354.7)" />
<use xlink:href="#f1_2g" transform="matrix(10.4,0,0,10.4,198.5,354.7)" />
<use xlink:href="#f1_2b" transform="matrix(10.4,0,0,10.4,202.9,354.7)" />
<use xlink:href="#f1_2c" transform="matrix(10.4,0,0,10.4,220.6,354.7)" />
<use xlink:href="#f1_24" transform="matrix(10.4,0,0,10.4,229.6,354.7)" />
<use xlink:href="#f1_21" transform="matrix(10.4,0,0,10.4,238.4,354.7)" />
<use xlink:href="#f1_2a" transform="matrix(10.4,0,0,10.4,247.4,354.7)" />
<use xlink:href="#f1_2l" transform="matrix(10.4,0,0,10.4,256.2,354.7)" />
<use xlink:href="#f1_28" transform="matrix(10.4,0,0,10.4,263.9,354.7)" />
<use xlink:href="#f1_1z" transform="matrix(10.4,0,0,10.4,267.4,354.7)" />
<use xlink:href="#f1_24" transform="matrix(10.4,0,0,10.4,275.6,354.7)" />
<use xlink:href="#f1_28" transform="matrix(10.4,0,0,10.4,284.4,354.7)" />
<use xlink:href="#f1_2b" transform="matrix(10.4,0,0,10.4,288.1,354.7)" />
<use xlink:href="#f1_2e" transform="matrix(10.4,0,0,10.4,296.9,354.7)" />
<use xlink:href="#f1_2b" transform="matrix(10.4,0,0,10.4,302.4,354.7)" />
<use xlink:href="#f1_29" transform="matrix(10.4,0,0,10.4,311.2,354.7)" />
<use xlink:href="#f1_21" transform="matrix(10.4,0,0,10.4,324.9,354.7)" />
<use xlink:href="#f1_2g" transform="matrix(10.4,0,0,10.4,333.7,354.7)" />
<use xlink:href="#f1_24" transform="matrix(10.4,0,0,10.4,338.3,354.7)" />
<use xlink:href="#f1_1x" transform="matrix(10.4,0,0,10.4,347.1,354.7)" />
<use xlink:href="#f1_2a" transform="matrix(10.4,0,0,10.4,356.1,354.7)" />
<use xlink:href="#f1_21" transform="matrix(10.4,0,0,10.4,364.9,354.7)" />
<use xlink:href="#f1_i" transform="matrix(10.4,0,0,10.4,373.9,354.7)" />
<use xlink:href="#f1_c" transform="matrix(10.4,0,0,10.4,85.2,384.8)" />
<use xlink:href="#f1_2k" transform="matrix(10.4,0,0,10.4,90.3,384.8)" />
<use xlink:href="#f1_d" transform="matrix(10.4,0,0,10.4,98.2,384.8)" />
<use xlink:href="#f1_2g" transform="matrix(10.4,0,0,10.4,128.4,384.8)" />
<use xlink:href="#f1_21" transform="matrix(10.4,0,0,10.4,132.8,384.8)" />
<use xlink:href="#f1_2e" transform="matrix(10.4,0,0,10.4,141.6,384.8)" />
<use xlink:href="#f1_2g" transform="matrix(10.4,0,0,10.4,146.9,384.8)" />
<use xlink:href="#f1_h" transform="matrix(10.4,0,0,10.4,151.4,384.8)" />
<use xlink:href="#f1_1y" transform="matrix(10.4,0,0,10.4,156.7,384.8)" />
<use xlink:href="#f1_2h" transform="matrix(10.4,0,0,10.4,165.5,384.8)" />
<use xlink:href="#f1_2g" transform="matrix(10.4,0,0,10.4,174.3,384.8)" />
<use xlink:href="#f1_2l" transform="matrix(10.4,0,0,10.4,178.7,384.8)" />
<use xlink:href="#f1_28" transform="matrix(10.4,0,0,10.4,186.2,384.8)" />
<use xlink:href="#f1_1y" transform="matrix(10.4,0,0,10.4,198.3,384.8)" />
<use xlink:href="#f1_2e" transform="matrix(10.4,0,0,10.4,207.1,384.8)" />
<use xlink:href="#f1_2b" transform="matrix(10.4,0,0,10.4,212.4,384.8)" />
<use xlink:href="#f1_29" transform="matrix(10.4,0,0,10.4,221.2,384.8)" />
<use xlink:href="#f1_25" transform="matrix(10.4,0,0,10.4,234.8,384.8)" />
<use xlink:href="#f1_20" transform="matrix(10.4,0,0,10.4,238.2,384.8)" />
<use xlink:href="#f1_21" transform="matrix(10.4,0,0,10.4,247,384.8)" />
<use xlink:href="#f1_2g" transform="matrix(10.4,0,0,10.4,264.5,384.8)" />
<use xlink:href="#f1_2b" transform="matrix(10.4,0,0,10.4,268.9,384.8)" />
<use xlink:href="#f1_25" transform="matrix(10.4,0,0,10.4,286.5,384.8)" />
<use xlink:href="#f1_2f" transform="matrix(10.4,0,0,10.4,289.9,384.8)" />
<use xlink:href="#f1_2b" transform="matrix(10.4,0,0,10.4,298,384.8)" />
<use xlink:href="#f1_1y" transform="matrix(10.4,0,0,10.4,306.8,384.8)" />
<use xlink:href="#f1_2h" transform="matrix(10.4,0,0,10.4,315.6,384.8)" />
<use xlink:href="#f1_2g" transform="matrix(10.4,0,0,10.4,324.4,384.8)" />
<use xlink:href="#f1_2l" transform="matrix(10.4,0,0,10.4,328.8,384.8)" />
<use xlink:href="#f1_28" transform="matrix(10.4,0,0,10.4,336.3,384.8)" />
<use xlink:href="#f1_1y" transform="matrix(10.4,0,0,10.4,348.4,384.8)" />
<use xlink:href="#f1_2e" transform="matrix(10.4,0,0,10.4,357.2,384.8)" />
<use xlink:href="#f1_2b" transform="matrix(10.4,0,0,10.4,362.5,384.8)" />
<use xlink:href="#f1_29" transform="matrix(10.4,0,0,10.4,371.3,384.8)" />
<use xlink:href="#f1_25" transform="matrix(10.4,0,0,10.4,384.9,384.8)" />
<use xlink:href="#f1_20" transform="matrix(10.4,0,0,10.4,388.4,384.8)" />
<use xlink:href="#f1_21" transform="matrix(10.4,0,0,10.4,397.2,384.8)" />
<use xlink:href="#f1_i" transform="matrix(10.4,0,0,10.4,406,384.8)" />
<use xlink:href="#f1_q" transform="matrix(10.4,0,0,10.4,41.9,414.7)" />
<use xlink:href="#f1_i" transform="matrix(10.4,0,0,10.4,51.3,414.7)" />
<use xlink:href="#f1_19" transform="matrix(10.4,0,0,10.4,85.2,414.7)" />
<use xlink:href="#f1_20" transform="matrix(10.4,0,0,10.4,89.6,414.7)" />
<use xlink:href="#f1_21" transform="matrix(10.4,0,0,10.4,98.4,414.7)" />
<use xlink:href="#f1_2a" transform="matrix(10.4,0,0,10.4,107.2,414.7)" />
<use xlink:href="#f1_2g" transform="matrix(10.4,0,0,10.4,116,414.7)" />
<use xlink:href="#f1_25" transform="matrix(10.4,0,0,10.4,120.4,414.7)" />
<use xlink:href="#f1_22" transform="matrix(10.4,0,0,10.4,123.9,414.7)" />
<use xlink:href="#f1_2l" transform="matrix(10.4,0,0,10.4,128.4,414.7)" />
<use xlink:href="#f1_2g" transform="matrix(10.4,0,0,10.4,143.8,414.7)" />
<use xlink:href="#f1_24" transform="matrix(10.4,0,0,10.4,148.2,414.7)" />
<use xlink:href="#f1_21" transform="matrix(10.4,0,0,10.4,157,414.7)" />
<use xlink:href="#f1_2c" transform="matrix(10.4,0,0,10.4,173.7,414.7)" />
<use xlink:href="#f1_2e" transform="matrix(10.4,0,0,10.4,182.5,414.7)" />
<use xlink:href="#f1_2b" transform="matrix(10.4,0,0,10.4,187.8,414.7)" />
<use xlink:href="#f1_20" transform="matrix(10.4,0,0,10.4,196.6,414.7)" />
<use xlink:href="#f1_2h" transform="matrix(10.4,0,0,10.4,205.4,414.7)" />
<use xlink:href="#f1_1z" transform="matrix(10.4,0,0,10.4,214.2,414.7)" />
<use xlink:href="#f1_2g" transform="matrix(10.4,0,0,10.4,222.3,414.7)" />
<use xlink:href="#f1_2f" transform="matrix(10.4,0,0,10.4,226.7,414.7)" />
<use xlink:href="#f1_22" transform="matrix(10.4,0,0,10.4,242.6,414.7)" />
<use xlink:href="#f1_2b" transform="matrix(10.4,0,0,10.4,247.2,414.7)" />
<use xlink:href="#f1_2e" transform="matrix(10.4,0,0,10.4,256,414.7)" />
<use xlink:href="#f1_29" transform="matrix(10.4,0,0,10.4,261.3,414.7)" />
<use xlink:href="#f1_21" transform="matrix(10.4,0,0,10.4,274.9,414.7)" />
<use xlink:href="#f1_20" transform="matrix(10.4,0,0,10.4,283.7,414.7)" />
<use xlink:href="#f1_25" transform="matrix(10.4,0,0,10.4,300.4,414.7)" />
<use xlink:href="#f1_2a" transform="matrix(10.4,0,0,10.4,303.9,414.7)" />
<use xlink:href="#f1_2g" transform="matrix(10.4,0,0,10.4,320.7,414.7)" />
<use xlink:href="#f1_24" transform="matrix(10.4,0,0,10.4,325.1,414.7)" />
<use xlink:href="#f1_21" transform="matrix(10.4,0,0,10.4,333.9,414.7)" />
<use xlink:href="#f1_22" transform="matrix(10.4,0,0,10.4,350.6,414.7)" />
<use xlink:href="#f1_2b" transform="matrix(10.4,0,0,10.4,355.2,414.7)" />
<use xlink:href="#f1_28" transform="matrix(10.4,0,0,10.4,364,414.7)" />
<use xlink:href="#f1_28" transform="matrix(10.4,0,0,10.4,367.5,414.7)" />
<use xlink:href="#f1_2b" transform="matrix(10.4,0,0,10.4,371,414.7)" />
<use xlink:href="#f1_2j" transform="matrix(10.4,0,0,10.4,379.8,414.7)" />
<use xlink:href="#f1_25" transform="matrix(10.4,0,0,10.4,390.9,414.7)" />
<use xlink:href="#f1_2a" transform="matrix(10.4,0,0,10.4,394.4,414.7)" />
<use xlink:href="#f1_23" transform="matrix(10.4,0,0,10.4,403.2,414.7)" />
<use xlink:href="#f1_2f" transform="matrix(10.4,0,0,10.4,419.9,414.7)" />
<use xlink:href="#f1_21" transform="matrix(10.4,0,0,10.4,428,414.7)" />
<use xlink:href="#f1_2d" transform="matrix(10.4,0,0,10.4,436.8,414.7)" />
<use xlink:href="#f1_2h" transform="matrix(10.4,0,0,10.4,445.6,414.7)" />
<use xlink:href="#f1_21" transform="matrix(10.4,0,0,10.4,454.4,414.7)" />
<use xlink:href="#f1_2a" transform="matrix(10.4,0,0,10.4,463.2,414.7)" />
<use xlink:href="#f1_1z" transform="matrix(10.4,0,0,10.4,472,414.7)" />
<use xlink:href="#f1_21" transform="matrix(10.4,0,0,10.4,480,414.7)" />
<use xlink:href="#f1_u" transform="matrix(10.4,0,0,10.4,496.7,414.7)" />
<use xlink:href="#f1_c" transform="matrix(10.4,0,0,10.4,85.2,501.6)" />
<use xlink:href="#f1_25" transform="matrix(10.4,0,0,10.4,90.9,501.6)" />
<use xlink:href="#f1_d" transform="matrix(10.4,0,0,10.4,94.7,501.6)" />
</g>
<image preserveAspectRatio="none" x="128" y="444" width="303" height="22" xlink:href="img/1.png" />
<image preserveAspectRatio="none" x="128" y="465" width="303" height="22" xlink:href="img/2.png" />
<image preserveAspectRatio="none" x="128" y="487" width="303" height="22" xlink:href="img/3.png" />
<image preserveAspectRatio="none" x="128" y="509" width="303" height="21" xlink:href="img/4.png" />
<image preserveAspectRatio="none" x="76" y="553" width="390" height="20" xlink:href="img/5.png" />
<image preserveAspectRatio="none" x="76" y="573" width="390" height="19" xlink:href="img/6.png" />
<image preserveAspectRatio="none" x="76" y="592" width="390" height="20" xlink:href="img/7.png" />
<image preserveAspectRatio="none" x="76" y="611" width="390" height="20" xlink:href="img/8.png" />
<image preserveAspectRatio="none" x="76" y="631" width="390" height="20" xlink:href="img/9.png" />
<image preserveAspectRatio="none" x="76" y="650" width="390" height="20" xlink:href="img/10.png" />
<image preserveAspectRatio="none" x="76" y="670" width="390" height="19" xlink:href="img/11.png" />
<image preserveAspectRatio="none" x="76" y="689" width="390" height="20" xlink:href="img/12.png" />
<image preserveAspectRatio="none" x="76" y="709" width="390" height="19" xlink:href="img/13.png" />
<image preserveAspectRatio="none" x="76" y="728" width="390" height="20" xlink:href="img/14.png" />
<image preserveAspectRatio="none" x="76" y="747" width="390" height="20" xlink:href="img/15.png" />
<image preserveAspectRatio="none" x="76" y="767" width="390" height="20" xlink:href="img/16.png" />
<image preserveAspectRatio="none" x="76" y="786" width="390" height="20" xlink:href="img/17.png" />
<image preserveAspectRatio="none" x="76" y="806" width="390" height="20" xlink:href="img/18.png" />
<image preserveAspectRatio="none" x="76" y="825" width="390" height="20" xlink:href="img/19.png" />
<image preserveAspectRatio="none" x="76" y="845" width="390" height="19" xlink:href="img/20.png" />
<image preserveAspectRatio="none" x="76" y="864" width="390" height="20" xlink:href="img/21.png" />
<image preserveAspectRatio="none" x="76" y="883" width="390" height="20" xlink:href="img/22.png" />
<image preserveAspectRatio="none" x="76" y="903" width="390" height="14" xlink:href="img/23.png" />
<g fill="#000000" >
<use xlink:href="#f2_o" transform="matrix(12,0,0,12,665.7,1032.4)" />
</g>
<g fill="#0080FF" fill-opacity="0.5" >
<use xlink:href="#f0_1c" transform="matrix(38.6,0,0,38.6,185.2,1050.5)" />
<use xlink:href="#f0_21" transform="matrix(38.6,0,0,38.6,218,1050.5)" />
<use xlink:href="#f0_1x" transform="matrix(38.6,0,0,38.6,250.8,1050.5)" />
<use xlink:href="#f0_2e" transform="matrix(38.6,0,0,38.6,283.7,1050.5)" />
<use xlink:href="#f0_2a" transform="matrix(38.6,0,0,38.6,303.3,1050.5)" />
<use xlink:href="#f0_17" transform="matrix(38.6,0,0,38.6,336.1,1050.5)" />
<use xlink:href="#f0_2h" transform="matrix(38.6,0,0,38.6,382,1050.5)" />
<use xlink:href="#f0_25" transform="matrix(38.6,0,0,38.6,414.8,1050.5)" />
<use xlink:href="#f0_20" transform="matrix(38.6,0,0,38.6,427.9,1050.5)" />
<use xlink:href="#f0_21" transform="matrix(38.6,0,0,38.6,460.7,1050.5)" />
<use xlink:href="#f0_i" transform="matrix(38.6,0,0,38.6,493.5,1050.5)" />
<use xlink:href="#f0_25" transform="matrix(38.6,0,0,38.6,509.9,1050.5)" />
<use xlink:href="#f0_2a" transform="matrix(38.6,0,0,38.6,523,1050.5)" />
</g>
<defs>
<path d="M593,101c0,0,182,0,279,112c0,0,98,113,98,318c0,0,0,196,-98,308c0,0,-98,112,-277,112c0,0,-181,0,-279,-110c0,0,-99,-111,-99,-310c0,0,0,-198,100,-314c0,0,99,-116,276,-116Zm0,-115c0,0,-162,0,-279,65c0,0,-118,66,-180,190c0,0,-62,124,-62,290c0,0,0,252,138,394c0,0,138,142,385,142c0,0,160,0,278,-64c0,0,118,-64,180,-185c0,0,62,-122,62,-287c0,0,0,-165,-63,-289c0,0,-63,-124,-181,-190c0,0,-118,-66,-278,-66Z" 
id="f0_1f"
transform="scale(0.001,-0.001)" />

<path d="M106,0V635c0,0,0,141,-5,173H228c0,0,1,-4,2,-21c0,0,1,-16,2,-37c0,0,1,-22,2,-81h2c0,0,47,84,108,119c0,0,60,34,151,34c0,0,132,0,194,-66c0,0,61,-66,61,-218V0H615V512c0,0,0,80,-15,124c0,0,-16,44,-50,63c0,0,-35,20,-101,20c0,0,-97,0,-153,-67c0,0,-56,-66,-56,-184V0Z" 
id="f0_2a"
transform="scale(0.001,-0.001)" />

<path d="M103,0V1107H237V0Z" 
id="f0_28"
transform="scale(0.001,-0.001)" />

<path d="M102,0V808H236V0Zm0,979v128H236V979Z" 
id="f0_25"
transform="scale(0.001,-0.001)" />

<path d="M643,478c0,0,-11,128,-65,187c0,0,-54,59,-154,59c0,0,-98,0,-155,-66c0,0,-57,-65,-62,-180ZM431,-14c0,0,-179,0,-272,106c0,0,-94,107,-94,317c0,0,0,200,94,307c0,0,93,106,267,106c0,0,356,0,356,-429V375H206c0,0,0,-138,57,-213c0,0,58,-75,168,-75c0,0,87,0,140,35c0,0,53,35,71,88L760,177c0,0,-72,-191,-329,-191Z" 
id="f0_21"
transform="scale(0.001,-0.001)" />

<path d="M17,0L304,415L31,808H179L380,493L580,808H730L457,417L747,0H598L380,331L162,0Z" 
id="f0_2k"
transform="scale(0.001,-0.001)" />

<path d="M339,87c0,0,74,0,132,34c0,0,57,33,90,91c0,0,34,59,34,121v66L448,396c0,0,-95,-2,-144,-19c0,0,-49,-18,-75,-55c0,0,-26,-38,-26,-98c0,0,0,-65,35,-101c0,0,36,-36,101,-36ZM309,-14c0,0,-122,0,-183,64c0,0,-61,64,-61,176c0,0,0,125,82,192c0,0,83,67,266,72l182,3v44c0,0,0,98,-42,141c0,0,-42,43,-132,43c0,0,-90,0,-131,-31c0,0,-41,-31,-49,-98L101,604c0,0,34,218,323,218c0,0,153,0,229,-70c0,0,77,-69,77,-202V202c0,0,0,-59,16,-90c0,0,16,-30,60,-30c0,0,19,0,44,5V4C850,4,799,-7,746,-7c0,0,-75,0,-109,38c0,0,-33,40,-38,124h-4C595,155,543,62,475,24c0,0,-68,-38,-166,-38Z" 
id="f0_1x"
transform="scale(0.001,-0.001)" />

<path d="M106,0V635c0,0,0,141,-5,173H228c0,0,1,-4,2,-21c0,0,1,-16,2,-37c0,0,1,-22,2,-81h2c0,0,44,86,100,120c0,0,56,33,136,33c0,0,92,0,145,-36c0,0,54,-37,75,-117h2c0,0,42,82,101,117c0,0,59,36,143,36c0,0,123,0,178,-66c0,0,56,-67,56,-218V0H1039V512c0,0,0,117,-32,162c0,0,-32,45,-116,45c0,0,-88,0,-136,-66c0,0,-49,-65,-49,-185V0H573V512c0,0,0,117,-32,162c0,0,-32,45,-116,45c0,0,-86,0,-136,-66c0,0,-50,-66,-50,-185V0Z" 
id="f0_29"
transform="scale(0.001,-0.001)" />

<path d="M453,84c0,0,100,0,146,74c0,0,46,73,46,247c0,0,0,169,-46,241c0,0,-45,73,-145,73c0,0,-80,0,-125,-34c0,0,-45,-34,-68,-105c0,0,-24,-71,-24,-186c0,0,0,-159,51,-234c0,0,51,-76,165,-76ZM103,-316V643c0,0,0,124,-5,165H228c0,0,1,-3,3,-22c0,0,1,-18,3,-56c0,0,2,-38,2,-52h3c0,0,36,75,94,110c0,0,59,34,156,34c0,0,149,0,223,-100c0,0,74,-100,74,-314c0,0,0,-422,-297,-422c0,0,-187,0,-251,140h-4c0,0,3,-6,3,-126V-316Z" 
id="f0_2c"
transform="scale(0.001,-0.001)" />

<path d="M420,84c0,0,121,0,173,78c0,0,52,77,52,243c0,0,0,167,-50,243c0,0,-50,76,-167,76c0,0,-118,0,-170,-78c0,0,-53,-77,-53,-241c0,0,0,-160,52,-241c0,0,52,-80,163,-80Zm1,-98c0,0,-176,0,-267,107c0,0,-90,108,-90,312c0,0,0,417,362,417c0,0,185,0,272,-102c0,0,88,-101,88,-315c0,0,0,-212,-94,-316C692,89,599,-14,421,-14Z" 
id="f0_2b"
transform="scale(0.001,-0.001)" />

<path d="M278,-11c0,0,-162,0,-162,182V710H23v98h99l39,181h90V808H400V710H251V200c0,0,0,-58,19,-82c0,0,19,-23,66,-23c0,0,27,0,77,10V6c0,0,-66,-17,-135,-17Z" 
id="f0_2g"
transform="scale(0.001,-0.001)" />

<path d="M413,-14c0,0,-147,0,-238,64c0,0,-90,64,-114,185l136,16c0,0,42,-155,219,-155c0,0,108,0,169,65c0,0,61,65,61,179c0,0,0,98,-62,159c0,0,-61,61,-165,61c0,0,-55,0,-102,-17c0,0,-47,-17,-94,-58H92l35,566H724V937H249L229,604c0,0,87,67,217,67c0,0,155,0,247,-91c0,0,93,-91,93,-237c0,0,0,-167,-99,-262c0,0,-99,-95,-274,-95Z" 
id="f1_p"
transform="scale(0.001,-0.001)" />

<path d="M140,0V163H285V0Z" 
id="f1_i"
transform="scale(0.001,-0.001)" />

<path d="M125,0V1051H268V606H836v445H979V0H836V487H268V0Z" 
id="f1_18"
transform="scale(0.001,-0.001)" />

<path d="M420,84c0,0,121,0,173,78c0,0,52,77,52,243c0,0,0,167,-50,243c0,0,-50,76,-167,76c0,0,-118,0,-170,-78c0,0,-53,-77,-53,-241c0,0,0,-160,52,-241c0,0,52,-80,163,-80Zm1,-98c0,0,-176,0,-267,107c0,0,-90,108,-90,312c0,0,0,417,362,417c0,0,185,0,272,-102c0,0,88,-101,88,-315c0,0,0,-212,-94,-316C692,89,599,-14,421,-14Z" 
id="f1_2b"
transform="scale(0.001,-0.001)" />

<path d="M224,0L-1,808H131L267,259c0,0,5,-18,32,-147l13,55L480,808H624L765,253L800,112l23,103L976,808h131L876,0H720L579,571L552,697c0,0,-7,-33,-21,-96C531,601,517,537,379,0Z" 
id="f1_2j"
transform="scale(0.001,-0.001)" />

<path d="M102,0V808H236V0Zm0,979v128H236V979Z" 
id="f1_25"
transform="scale(0.001,-0.001)" />

<path d="M103,0V1107H237V0Z" 
id="f1_28"
transform="scale(0.001,-0.001)" />

<path d="M142,-316c0,0,-55,0,-92,8v101c0,0,28,-4,63,-4c0,0,125,0,198,184L324,4L4,808H147L317,362c0,0,4,-11,9,-25c0,0,5,-15,34,-98c0,0,28,-83,30,-92l52,147L619,808H761L451,0c0,0,-50,-128,-94,-191c0,0,-43,-63,-96,-94c0,0,-52,-31,-119,-31Z" 
id="f1_2l"
transform="scale(0.001,-0.001)" />

<path d="M355,-14c0,0,-133,0,-194,65c0,0,-62,66,-62,219V808H234V296c0,0,0,-80,16,-124c0,0,16,-44,50,-64c0,0,34,-19,101,-19c0,0,97,0,153,66c0,0,55,67,55,185V808H744V172c0,0,0,-141,4,-172H621c0,0,0,4,-1,20c0,0,-1,17,-2,38c0,0,-1,21,-3,80h-2C613,138,567,55,506,20c0,0,-61,-34,-151,-34Z" 
id="f1_2h"
transform="scale(0.001,-0.001)" />

<path d="M453,84c0,0,101,0,146,75c0,0,46,75,46,244c0,0,0,169,-45,243c0,0,-45,73,-146,73c0,0,-113,0,-165,-78c0,0,-52,-78,-52,-246c0,0,0,-159,51,-235c0,0,51,-76,165,-76Zm36,-98c0,0,-92,0,-153,33c0,0,-61,33,-99,107h-1c0,0,0,-24,-3,-71c0,0,-3,-48,-5,-55H98c0,0,5,40,5,166v941H237V792c0,0,0,-49,-3,-114h3c0,0,38,77,99,111c0,0,62,33,153,33c0,0,153,0,225,-103c0,0,72,-103,72,-311c0,0,0,-422,-297,-422Z" 
id="f1_1y"
transform="scale(0.001,-0.001)" />

<path d="M106,0V620c0,0,0,85,-5,188H228c0,0,6,-138,6,-165h3c0,0,32,103,74,141c0,0,42,38,118,38c0,0,27,0,54,-7V692c0,0,-26,7,-71,7c0,0,-84,0,-128,-72c0,0,-44,-72,-44,-206V0Z" 
id="f1_2e"
transform="scale(0.001,-0.001)" />

<path d="M106,0V635c0,0,0,141,-5,173H228c0,0,1,-4,2,-21c0,0,1,-16,2,-37c0,0,1,-22,2,-81h2c0,0,47,84,108,119c0,0,60,34,151,34c0,0,132,0,194,-66c0,0,61,-66,61,-218V0H615V512c0,0,0,80,-15,124c0,0,-16,44,-50,63c0,0,-35,20,-101,20c0,0,-97,0,-153,-67c0,0,-56,-66,-56,-184V0Z" 
id="f1_2a"
transform="scale(0.001,-0.001)" />

<path d="M398,93c0,0,63,0,112,37c0,0,49,38,76,107c0,0,27,70,27,166c0,0,0,99,-27,170c0,0,-27,71,-75,109c0,0,-49,38,-111,38c0,0,-103,0,-150,-75c0,0,-47,-75,-47,-242c0,0,0,-165,44,-238c0,0,44,-72,151,-72Zm11,-409c0,0,-132,0,-211,52c0,0,-78,52,-100,147l135,20c0,0,13,-56,59,-87c0,0,46,-30,121,-30c0,0,200,0,200,234V150h-1C612,150,574,72,507,33C507,33,441,-5,352,-5c0,0,-148,0,-218,98c0,0,-70,98,-70,309c0,0,0,214,75,316c0,0,75,101,228,101c0,0,86,0,149,-39c0,0,63,-39,97,-111h2c0,0,0,22,3,78c0,0,3,55,6,61H751c0,0,-4,-41,-4,-167V23c0,0,0,-339,-338,-339Z" 
id="f1_23"
transform="scale(0.001,-0.001)" />

<path d="M339,87c0,0,74,0,132,34c0,0,57,33,90,91c0,0,34,59,34,121v66L448,396c0,0,-95,-2,-144,-19c0,0,-49,-18,-75,-55c0,0,-26,-38,-26,-98c0,0,0,-65,35,-101c0,0,36,-36,101,-36ZM309,-14c0,0,-122,0,-183,64c0,0,-61,64,-61,176c0,0,0,125,82,192c0,0,83,67,266,72l182,3v44c0,0,0,98,-42,141c0,0,-42,43,-132,43c0,0,-90,0,-131,-31c0,0,-41,-31,-49,-98L101,604c0,0,34,218,323,218c0,0,153,0,229,-70c0,0,77,-69,77,-202V202c0,0,0,-59,16,-90c0,0,16,-30,60,-30c0,0,19,0,44,5V4C850,4,799,-7,746,-7c0,0,-75,0,-109,38c0,0,-33,40,-38,124h-4C595,155,543,62,475,24c0,0,-68,-38,-166,-38Z" 
id="f1_1x"
transform="scale(0.001,-0.001)" />

<path d="M278,-11c0,0,-162,0,-162,182V710H23v98h99l39,181h90V808H400V710H251V200c0,0,0,-58,19,-82c0,0,19,-23,66,-23c0,0,27,0,77,10V6c0,0,-66,-17,-135,-17Z" 
id="f1_2g"
transform="scale(0.001,-0.001)" />

<path d="M615,0V512c0,0,0,85,-15,126c0,0,-16,42,-52,61c0,0,-36,20,-99,20c0,0,-95,0,-152,-66c0,0,-57,-66,-57,-177V0H106V1107H240V819c0,0,0,-45,-2,-94c0,0,-3,-48,-4,-56h2c0,0,44,79,105,116c0,0,60,37,154,37c0,0,131,0,193,-65c0,0,62,-65,62,-219V0Z" 
id="f1_24"
transform="scale(0.001,-0.001)" />

<path d="M643,478c0,0,-11,128,-65,187c0,0,-54,59,-154,59c0,0,-98,0,-155,-66c0,0,-57,-65,-62,-180ZM431,-14c0,0,-179,0,-272,106c0,0,-94,107,-94,317c0,0,0,200,94,307c0,0,93,106,267,106c0,0,356,0,356,-429V375H206c0,0,0,-138,57,-213c0,0,58,-75,168,-75c0,0,87,0,140,35c0,0,53,35,71,88L760,177c0,0,-72,-191,-329,-191Z" 
id="f1_21"
transform="scale(0.001,-0.001)" />

<path d="M135,0V710H22v98H135v91c0,0,0,110,49,158c0,0,48,49,148,49c0,0,56,0,95,-9V994c0,0,-34,6,-60,6c0,0,-51,0,-75,-26c0,0,-23,-26,-23,-94V808H427V710H269V0Z" 
id="f1_22"
transform="scale(0.001,-0.001)" />

<path d="M413,-14c0,0,-170,0,-259,106c0,0,-89,107,-89,313c0,0,0,203,89,310c0,0,90,107,257,107c0,0,124,0,206,-64c0,0,81,-64,102,-177L581,571c0,0,-10,67,-53,106c0,0,-42,40,-121,40c0,0,-106,0,-154,-71c0,0,-48,-71,-48,-239c0,0,0,-161,51,-238c0,0,51,-78,153,-78c0,0,71,0,120,39c0,0,48,39,59,119l136,-9C724,240,708,124,624,55c0,0,-83,-69,-211,-69Z" 
id="f1_1z"
transform="scale(0.001,-0.001)" />

<path d="M298,0L5,808H148L326,282c0,0,10,-29,51,-176l27,87l29,88L616,808H759L457,0Z" 
id="f1_2i"
transform="scale(0.001,-0.001)" />

<path d="M381,-14c0,0,-150,0,-232,49C149,35,67,85,43,190l118,23c0,0,17,-65,71,-96c0,0,54,-30,149,-30c0,0,102,0,150,31c0,0,47,32,47,95c0,0,0,47,-33,77c0,0,-33,30,-106,49l-96,26c0,0,-115,30,-164,58c0,0,-49,29,-77,70c0,0,-27,41,-27,101c0,0,0,110,78,168c0,0,79,57,230,57c0,0,133,0,212,-47c0,0,79,-47,100,-150L574,607c0,0,-12,53,-60,82c0,0,-49,29,-131,29c0,0,-91,0,-135,-28c0,0,-43,-27,-43,-83c0,0,0,-34,18,-57c0,0,18,-22,53,-38c0,0,35,-15,148,-43c0,0,106,-27,153,-50c0,0,47,-22,75,-50c0,0,27,-27,42,-64c0,0,15,-36,15,-82c0,0,0,-114,-86,-176c0,0,-87,-61,-242,-61Z" 
id="f1_2f"
transform="scale(0.001,-0.001)" />

<path d="M327,0V150H472V0Zm6,281c0,0,1,51,16,90c0,0,14,39,37,69c0,0,24,30,53,53c0,0,29,24,59,45c0,0,29,21,58,42c0,0,29,22,51,48c0,0,23,26,36,59c0,0,14,33,14,77c0,0,0,85,-58,134c0,0,-57,49,-162,49c0,0,-104,0,-165,-52c0,0,-62,-52,-72,-143L63,761c0,0,19,148,116,227c0,0,97,79,257,79c0,0,166,0,261,-79c0,0,96,-79,96,-218c0,0,0,-56,-16,-100c0,0,-17,-44,-47,-82c0,0,-31,-37,-100,-88L570,456c0,0,-54,-39,-80,-82c0,0,-26,-43,-27,-93Z" 
id="f1_z"
transform="scale(0.001,-0.001)" />

<path d="M370,-316c0,0,-141,152,-208,323C162,7,95,179,95,394v3c0,0,0,215,67,387c0,0,68,171,208,323H500c0,0,-140,-155,-205,-330c0,0,-65,-175,-65,-382c0,0,0,-207,64,-381c0,0,65,-172,206,-330Z" 
id="f1_c"
transform="scale(0.001,-0.001)" />

<path d="M9,-316c0,0,140,157,205,329c0,0,65,174,65,382c0,0,0,208,-65,382c0,0,-66,174,-205,330H139c0,0,141,-152,208,-324c0,0,67,-172,67,-386v-3c0,0,0,-216,-67,-388c0,0,-68,-170,-208,-322Z" 
id="f1_d"
transform="scale(0.001,-0.001)" />

<path d="M62,0V102L513,704H87V808H672V706L220,104H688V0Z" 
id="f1_2m"
transform="scale(0.001,-0.001)" />

<path d="M426,-14c0,0,-160,0,-255,71c0,0,-95,72,-113,213l139,13c0,0,27,-187,229,-187c0,0,101,0,159,50c0,0,58,50,58,149c0,0,0,86,-66,134c0,0,-66,48,-191,48H310V594h73c0,0,111,0,172,48c0,0,60,48,60,133c0,0,0,84,-49,132c0,0,-50,49,-147,49c0,0,-89,0,-144,-45c0,0,-55,-46,-64,-129L76,793c0,0,15,129,107,201c0,0,92,73,237,73c0,0,158,0,246,-74c0,0,87,-73,87,-204c0,0,0,-101,-56,-164c0,0,-56,-63,-164,-85v-3c0,0,118,-13,184,-79c0,0,66,-67,66,-167c0,0,0,-146,-93,-226c0,0,-92,-79,-264,-79Z" 
id="f1_n"
transform="scale(0.001,-0.001)" />

<path d="M68,346V465H441V346Z" 
id="f1_h"
transform="scale(0.001,-0.001)" />

<path d="M106,0V635c0,0,0,141,-5,173H228c0,0,1,-4,2,-21c0,0,1,-16,2,-37c0,0,1,-22,2,-81h2c0,0,44,86,100,120c0,0,56,33,136,33c0,0,92,0,145,-36c0,0,54,-37,75,-117h2c0,0,42,82,101,117c0,0,59,36,143,36c0,0,123,0,178,-66c0,0,56,-67,56,-218V0H1039V512c0,0,0,117,-32,162c0,0,-32,45,-116,45c0,0,-88,0,-136,-66c0,0,-49,-65,-49,-185V0H573V512c0,0,0,117,-32,162c0,0,-32,45,-116,45c0,0,-86,0,-136,-66c0,0,-50,-66,-50,-185V0Z" 
id="f1_29"
transform="scale(0.001,-0.001)" />

<path d="M116,0V114H384V923L147,754V881l248,170H519V114H775V0Z" 
id="f1_l"
transform="scale(0.001,-0.001)" />

<path d="M453,84c0,0,100,0,146,74c0,0,46,73,46,247c0,0,0,169,-46,241c0,0,-45,73,-145,73c0,0,-80,0,-125,-34c0,0,-45,-34,-68,-105c0,0,-24,-71,-24,-186c0,0,0,-159,51,-234c0,0,51,-76,165,-76ZM103,-316V643c0,0,0,124,-5,165H228c0,0,1,-3,3,-22c0,0,1,-18,3,-56c0,0,2,-38,2,-52h3c0,0,36,75,94,110c0,0,59,34,156,34c0,0,149,0,223,-100c0,0,74,-100,74,-314c0,0,0,-422,-297,-422c0,0,-187,0,-251,140h-4c0,0,3,-6,3,-126V-316Z" 
id="f1_2c"
transform="scale(0.001,-0.001)" />

<path d="M77,0V95c0,0,38,87,93,154c0,0,55,67,115,121c0,0,60,54,120,100c0,0,59,46,107,93c0,0,47,46,77,97c0,0,29,50,29,114c0,0,0,87,-50,135c0,0,-51,47,-141,47c0,0,-86,0,-142,-46c0,0,-55,-47,-65,-131L83,791c0,0,15,126,107,201c0,0,92,75,237,75c0,0,159,0,244,-75c0,0,85,-75,85,-213c0,0,0,-61,-28,-122c0,0,-28,-60,-83,-120c0,0,-55,-61,-211,-188c0,0,-86,-70,-136,-126c0,0,-51,-56,-73,-109H773V0Z" 
id="f1_m"
transform="scale(0.001,-0.001)" />

<path d="M530,344V900c0,0,-1,-5,-20,-40c0,0,-20,-35,-30,-49L211,414L171,359L159,344ZM530,0V239H35V343l481,708H657V344H805V239H657V0Z" 
id="f1_o"
transform="scale(0.001,-0.001)" />

<path d="M395,89c0,0,115,0,166,79c0,0,51,79,51,246c0,0,0,160,-51,235c0,0,-51,75,-164,75c0,0,-102,0,-147,-75c0,0,-45,-75,-45,-244c0,0,0,-170,45,-243c0,0,45,-73,145,-73ZM361,-14c0,0,-153,0,-225,102c0,0,-72,103,-72,312c0,0,0,422,297,422c0,0,92,0,153,-33c0,0,61,-34,98,-107h2l-2,90v335H747V166c0,0,0,-126,4,-166H623c0,0,-2,12,-5,55c0,0,-3,44,-3,75h-3c0,0,-37,-78,-98,-111c0,0,-62,-33,-153,-33Z" 
id="f1_20"
transform="scale(0.001,-0.001)" />

<path d="M17,0L304,415L31,808H179L380,493L580,808H730L457,417L747,0H598L380,331L162,0Z" 
id="f1_2k"
transform="scale(0.001,-0.001)" />

<path d="M439,94c0,0,97,0,152,65c0,0,55,65,55,179c0,0,0,114,-56,176c0,0,-56,62,-156,62c0,0,-94,0,-152,-55c0,0,-57,-55,-57,-151c0,0,0,-121,60,-199c0,0,60,-77,154,-77Zm4,-108c0,0,-177,0,-271,131c0,0,-94,132,-94,384c0,0,0,273,97,420c0,0,98,146,279,146c0,0,238,0,299,-214L625,830c0,0,-39,128,-173,128c0,0,-115,0,-178,-107c0,0,-63,-107,-63,-310c0,0,37,68,103,103c0,0,66,36,152,36c0,0,146,0,231,-91c0,0,86,-91,86,-245c0,0,0,-166,-91,-262c0,0,-90,-96,-249,-96Z" 
id="f1_q"
transform="scale(0.001,-0.001)" />

<path d="M141,0V1051H283V0Z" 
id="f1_19"
transform="scale(0.001,-0.001)" />

<path d="M395,89c0,0,115,0,166,81c0,0,51,82,51,244c0,0,0,157,-51,233c0,0,-51,77,-164,77c0,0,-102,0,-147,-77c0,0,-45,-76,-45,-242c0,0,0,-170,45,-243c0,0,45,-73,145,-73ZM612,-316V11l3,122h-1c0,0,-40,-80,-99,-114c0,0,-59,-33,-154,-33c0,0,-154,0,-225,103c0,0,-72,104,-72,311c0,0,0,422,297,422c0,0,92,0,151,-32c0,0,60,-33,100,-108h2c0,0,0,22,3,77c0,0,3,55,6,58H752c0,0,-5,-44,-5,-220V-316Z" 
id="f1_2d"
transform="scale(0.001,-0.001)" />

<path d="M140,0V154H285V0Zm0,653V808H285V653Z" 
id="f1_u"
transform="scale(0.001,-0.001)" />

<path d="M494,385V878L152,385ZM494,0V262H20V385l498,708H628V385H775V262H628V0Z" 
id="f2_o"
transform="scale(0.001,-0.001)" />

<path d="M125,0V1051H268V115H799V0Z" 
id="f0_1c"
transform="scale(0.001,-0.001)" />

<path d="M106,0V620c0,0,0,85,-5,188H228c0,0,6,-138,6,-165h3c0,0,32,103,74,141c0,0,42,38,118,38c0,0,27,0,54,-7V692c0,0,-26,7,-71,7c0,0,-84,0,-128,-72c0,0,-44,-72,-44,-206V0Z" 
id="f0_2e"
transform="scale(0.001,-0.001)" />

<path d="M606,-14c0,0,-164,0,-284,65c0,0,-119,66,-182,189c0,0,-63,123,-63,291c0,0,0,255,137,396c0,0,137,140,386,140c0,0,174,0,283,-59c0,0,109,-59,168,-189L915,779c0,0,-44,90,-123,131c0,0,-79,41,-196,41c0,0,-182,0,-278,-110c0,0,-96,-110,-96,-310c0,0,0,-200,102,-315c0,0,102,-115,282,-115c0,0,103,0,193,31c0,0,89,31,144,85V407H629V526h445V164c0,0,-83,-85,-205,-132c0,0,-121,-46,-263,-46Z" 
id="f0_17"
transform="scale(0.001,-0.001)" />

<path d="M355,-14c0,0,-133,0,-194,65c0,0,-62,66,-62,219V808H234V296c0,0,0,-80,16,-124c0,0,16,-44,50,-64c0,0,34,-19,101,-19c0,0,97,0,153,66c0,0,55,67,55,185V808H744V172c0,0,0,-141,4,-172H621c0,0,0,4,-1,20c0,0,-1,17,-2,38c0,0,-1,21,-3,80h-2C613,138,567,55,506,20c0,0,-61,-34,-151,-34Z" 
id="f0_2h"
transform="scale(0.001,-0.001)" />

<path d="M395,89c0,0,115,0,166,79c0,0,51,79,51,246c0,0,0,160,-51,235c0,0,-51,75,-164,75c0,0,-102,0,-147,-75c0,0,-45,-75,-45,-244c0,0,0,-170,45,-243c0,0,45,-73,145,-73ZM361,-14c0,0,-153,0,-225,102c0,0,-72,103,-72,312c0,0,0,422,297,422c0,0,92,0,153,-33c0,0,61,-34,98,-107h2l-2,90v335H747V166c0,0,0,-126,4,-166H623c0,0,-2,12,-5,55c0,0,-3,44,-3,75h-3c0,0,-37,-78,-98,-111c0,0,-62,-33,-153,-33Z" 
id="f0_20"
transform="scale(0.001,-0.001)" />

<path d="M140,0V163H285V0Z" 
id="f0_i"
transform="scale(0.001,-0.001)" />


</defs>
</svg>