<?xml version="1.0" encoding="UTF-8" standalone="no"?>
<!DOCTYPE svg PUBLIC "-//W3C//DTD SVG 1.1//EN"
"http://www.w3.org/Graphics/SVG/1.1/DTD/svg11.dtd">
<svg viewBox="0 0 730 1112" version="1.1" xmlns="http://www.w3.org/2000/svg" xmlns:xlink="http://www.w3.org/1999/xlink">
<defs>
<clipPath id="c0_46"><path d="M183.8,208.9V191.1h24.6v17.8Z" /></clipPath>
</defs>
<g fill="#D4D4D4" fill-opacity="0.36" >
<use xlink:href="#f0_1f" transform="matrix(50.9,-50.9,50.9,50.9,118.4,814.1)" />
<use xlink:href="#f0_2a" transform="matrix(50.9,-50.9,50.9,50.9,178.9,753.6)" />
<use xlink:href="#f0_28" transform="matrix(50.9,-50.9,50.9,50.9,222.2,710.3)" />
<use xlink:href="#f0_25" transform="matrix(50.9,-50.9,50.9,50.9,239.4,693.1)" />
<use xlink:href="#f0_2a" transform="matrix(50.9,-50.9,50.9,50.9,256.7,675.8)" />
<use xlink:href="#f0_21" transform="matrix(50.9,-50.9,50.9,50.9,299.9,632.5)" />
<use xlink:href="#f0_2k" transform="matrix(50.9,-50.9,50.9,50.9,343.2,589.3)" />
<use xlink:href="#f0_1x" transform="matrix(50.9,-50.9,50.9,50.9,382.1,550.4)" />
<use xlink:href="#f0_29" transform="matrix(50.9,-50.9,50.9,50.9,425.3,507.2)" />
<use xlink:href="#f0_2c" transform="matrix(50.9,-50.9,50.9,50.9,490.1,442.4)" />
<use xlink:href="#f0_2b" transform="matrix(50.9,-50.9,50.9,50.9,533.4,399.1)" />
<use xlink:href="#f0_25" transform="matrix(50.9,-50.9,50.9,50.9,576.6,355.9)" />
<use xlink:href="#f0_2a" transform="matrix(50.9,-50.9,50.9,50.9,593.9,338.6)" />
<use xlink:href="#f0_2g" transform="matrix(50.9,-50.9,50.9,50.9,637.1,295.4)" />
</g>
<g fill="#000000" >
<use xlink:href="#f1_r" transform="matrix(10.4,0,0,10.4,51.1,64.2)" />
<use xlink:href="#f1_i" transform="matrix(10.4,0,0,10.4,60.4,64.2)" />
<use xlink:href="#f1_1n" transform="matrix(10.4,0,0,10.4,94.3,64.2)" />
<use xlink:href="#f1_2e" transform="matrix(10.4,0,0,10.4,110.3,64.2)" />
<use xlink:href="#f1_25" transform="matrix(10.4,0,0,10.4,115.6,64.2)" />
<use xlink:href="#f1_2g" transform="matrix(10.4,0,0,10.4,119.1,64.2)" />
<use xlink:href="#f1_21" transform="matrix(10.4,0,0,10.4,123.5,64.2)" />
<use xlink:href="#f1_2g" transform="matrix(10.4,0,0,10.4,140.2,64.2)" />
<use xlink:href="#f1_24" transform="matrix(10.4,0,0,10.4,144.6,64.2)" />
<use xlink:href="#f1_21" transform="matrix(10.4,0,0,10.4,153.4,64.2)" />
<use xlink:href="#f1_1z" transform="matrix(10.4,0,0,10.4,169.9,64.2)" />
<use xlink:href="#f1_24" transform="matrix(10.4,0,0,10.4,177.9,64.2)" />
<use xlink:href="#f1_21" transform="matrix(10.4,0,0,10.4,186.7,64.2)" />
<use xlink:href="#f1_29" transform="matrix(10.4,0,0,10.4,195.5,64.2)" />
<use xlink:href="#f1_25" transform="matrix(10.4,0,0,10.4,209.1,64.2)" />
<use xlink:href="#f1_1z" transform="matrix(10.4,0,0,10.4,212.6,64.2)" />
<use xlink:href="#f1_1x" transform="matrix(10.4,0,0,10.4,220.6,64.2)" />
<use xlink:href="#f1_28" transform="matrix(10.4,0,0,10.4,229.4,64.2)" />
<use xlink:href="#f1_21" transform="matrix(10.4,0,0,10.4,240.8,64.2)" />
<use xlink:href="#f1_2d" transform="matrix(10.4,0,0,10.4,249.6,64.2)" />
<use xlink:href="#f1_2h" transform="matrix(10.4,0,0,10.4,258.4,64.2)" />
<use xlink:href="#f1_1x" transform="matrix(10.4,0,0,10.4,267.2,64.2)" />
<use xlink:href="#f1_2g" transform="matrix(10.4,0,0,10.4,276,64.2)" />
<use xlink:href="#f1_25" transform="matrix(10.4,0,0,10.4,280.4,64.2)" />
<use xlink:href="#f1_2b" transform="matrix(10.4,0,0,10.4,283.9,64.2)" />
<use xlink:href="#f1_2a" transform="matrix(10.4,0,0,10.4,292.7,64.2)" />
<use xlink:href="#f1_2f" transform="matrix(10.4,0,0,10.4,301.5,64.2)" />
<use xlink:href="#f1_2b" transform="matrix(10.4,0,0,10.4,317.4,64.2)" />
<use xlink:href="#f1_22" transform="matrix(10.4,0,0,10.4,326.2,64.2)" />
<use xlink:href="#f1_2g" transform="matrix(10.4,0,0,10.4,338.7,64.2)" />
<use xlink:href="#f1_24" transform="matrix(10.4,0,0,10.4,343.1,64.2)" />
<use xlink:href="#f1_21" transform="matrix(10.4,0,0,10.4,351.9,64.2)" />
<use xlink:href="#f1_22" transform="matrix(10.4,0,0,10.4,368.4,64.2)" />
<use xlink:href="#f1_2b" transform="matrix(10.4,0,0,10.4,373,64.2)" />
<use xlink:href="#f1_28" transform="matrix(10.4,0,0,10.4,381.8,64.2)" />
<use xlink:href="#f1_28" transform="matrix(10.4,0,0,10.4,385.3,64.2)" />
<use xlink:href="#f1_2b" transform="matrix(10.4,0,0,10.4,388.8,64.2)" />
<use xlink:href="#f1_2j" transform="matrix(10.4,0,0,10.4,397.6,64.2)" />
<use xlink:href="#f1_25" transform="matrix(10.4,0,0,10.4,408.7,64.2)" />
<use xlink:href="#f1_2a" transform="matrix(10.4,0,0,10.4,412.2,64.2)" />
<use xlink:href="#f1_23" transform="matrix(10.4,0,0,10.4,421,64.2)" />
<use xlink:href="#f1_2e" transform="matrix(10.4,0,0,10.4,437.7,64.2)" />
<use xlink:href="#f1_21" transform="matrix(10.4,0,0,10.4,443,64.2)" />
<use xlink:href="#f1_1x" transform="matrix(10.4,0,0,10.4,451.8,64.2)" />
<use xlink:href="#f1_1z" transform="matrix(10.4,0,0,10.4,460.6,64.2)" />
<use xlink:href="#f1_2g" transform="matrix(10.4,0,0,10.4,468.7,64.2)" />
<use xlink:href="#f1_25" transform="matrix(10.4,0,0,10.4,473.1,64.2)" />
<use xlink:href="#f1_2b" transform="matrix(10.4,0,0,10.4,476.6,64.2)" />
<use xlink:href="#f1_2a" transform="matrix(10.4,0,0,10.4,485.4,64.2)" />
<use xlink:href="#f1_2f" transform="matrix(10.4,0,0,10.4,494.2,64.2)" />
<use xlink:href="#f1_c" transform="matrix(10.4,0,0,10.4,94.3,94.3)" />
<use xlink:href="#f1_1x" transform="matrix(10.4,0,0,10.4,100.2,94.3)" />
<use xlink:href="#f1_d" transform="matrix(10.4,0,0,10.4,109.7,94.3)" />
<use xlink:href="#f1_17" transform="matrix(10.4,0,0,10.4,137.6,94.3)" />
<use xlink:href="#f1_28" transform="matrix(10.4,0,0,10.4,150.1,94.3)" />
<use xlink:href="#f1_2h" transform="matrix(10.4,0,0,10.4,153.6,94.3)" />
<use xlink:href="#f1_1z" transform="matrix(10.4,0,0,10.4,162.4,94.3)" />
<use xlink:href="#f1_2b" transform="matrix(10.4,0,0,10.4,170.4,94.3)" />
<use xlink:href="#f1_2f" transform="matrix(10.4,0,0,10.4,179.2,94.3)" />
<use xlink:href="#f1_21" transform="matrix(10.4,0,0,10.4,187.3,94.3)" />
<use xlink:href="#f1_25" transform="matrix(10.4,0,0,10.4,203.8,94.3)" />
<use xlink:href="#f1_2a" transform="matrix(10.4,0,0,10.4,207.3,94.3)" />
<use xlink:href="#f1_24" transform="matrix(10.4,0,0,10.4,223.8,94.3)" />
<use xlink:href="#f1_21" transform="matrix(10.4,0,0,10.4,232.6,94.3)" />
<use xlink:href="#f1_1x" transform="matrix(10.4,0,0,10.4,241.4,94.3)" />
<use xlink:href="#f1_2g" transform="matrix(10.4,0,0,10.4,250.2,94.3)" />
<use xlink:href="#f1_21" transform="matrix(10.4,0,0,10.4,254.6,94.3)" />
<use xlink:href="#f1_20" transform="matrix(10.4,0,0,10.4,263.4,94.3)" />
<use xlink:href="#f1_2j" transform="matrix(10.4,0,0,10.4,279.7,94.3)" />
<use xlink:href="#f1_25" transform="matrix(10.4,0,0,10.4,290.9,94.3)" />
<use xlink:href="#f1_2g" transform="matrix(10.4,0,0,10.4,294.3,94.3)" />
<use xlink:href="#f1_24" transform="matrix(10.4,0,0,10.4,298.7,94.3)" />
<use xlink:href="#f1_1z" transform="matrix(10.4,0,0,10.4,315.2,94.3)" />
<use xlink:href="#f1_2b" transform="matrix(10.4,0,0,10.4,323.3,94.3)" />
<use xlink:href="#f1_2a" transform="matrix(10.4,0,0,10.4,332.1,94.3)" />
<use xlink:href="#f1_1z" transform="matrix(10.4,0,0,10.4,340.9,94.3)" />
<use xlink:href="#f1_i" transform="matrix(10.4,0,0,10.4,349,94.3)" />
<use xlink:href="#f1_18" transform="matrix(10.4,0,0,10.4,361.1,94.3)" />
<use xlink:href="#f1_m" transform="matrix(7.4,0,0,7.4,372.6,99.6)" />
<use xlink:href="#f1_1j" transform="matrix(10.4,0,0,10.4,378.9,94.3)" />
<use xlink:href="#f1_1f" transform="matrix(10.4,0,0,10.4,389.5,94.3)" />
<use xlink:href="#f1_o" transform="matrix(7.4,0,0,7.4,402,99.6)" />
<use xlink:href="#f1_i" transform="matrix(10.4,0,0,10.4,408.2,94.3)" />
<use xlink:href="#f1_c" transform="matrix(10.4,0,0,10.4,94.3,124.4)" />
<use xlink:href="#f1_1y" transform="matrix(10.4,0,0,10.4,100.2,124.4)" />
<use xlink:href="#f1_d" transform="matrix(10.4,0,0,10.4,109.7,124.4)" />
<use xlink:href="#f1_1j" transform="matrix(10.4,0,0,10.4,137.6,124.4)" />
<use xlink:href="#f1_2b" transform="matrix(10.4,0,0,10.4,148.3,124.4)" />
<use xlink:href="#f1_20" transform="matrix(10.4,0,0,10.4,157,124.4)" />
<use xlink:href="#f1_25" transform="matrix(10.4,0,0,10.4,165.8,124.4)" />
<use xlink:href="#f1_2h" transform="matrix(10.4,0,0,10.4,169.3,124.4)" />
<use xlink:href="#f1_29" transform="matrix(10.4,0,0,10.4,178.1,124.4)" />
<use xlink:href="#f1_2a" transform="matrix(10.4,0,0,10.4,199.2,124.4)" />
<use xlink:href="#f1_25" transform="matrix(10.4,0,0,10.4,208,124.4)" />
<use xlink:href="#f1_2g" transform="matrix(10.4,0,0,10.4,211.5,124.4)" />
<use xlink:href="#f1_2e" transform="matrix(10.4,0,0,10.4,215.9,124.4)" />
<use xlink:href="#f1_1x" transform="matrix(10.4,0,0,10.4,221.2,124.4)" />
<use xlink:href="#f1_2g" transform="matrix(10.4,0,0,10.4,230,124.4)" />
<use xlink:href="#f1_21" transform="matrix(10.4,0,0,10.4,234.4,124.4)" />
<use xlink:href="#f1_25" transform="matrix(10.4,0,0,10.4,250.7,124.4)" />
<use xlink:href="#f1_2f" transform="matrix(10.4,0,0,10.4,254.2,124.4)" />
<use xlink:href="#f1_24" transform="matrix(10.4,0,0,10.4,269.8,124.4)" />
<use xlink:href="#f1_21" transform="matrix(10.4,0,0,10.4,278.6,124.4)" />
<use xlink:href="#f1_1x" transform="matrix(10.4,0,0,10.4,287.4,124.4)" />
<use xlink:href="#f1_2g" transform="matrix(10.4,0,0,10.4,296.2,124.4)" />
<use xlink:href="#f1_21" transform="matrix(10.4,0,0,10.4,300.6,124.4)" />
<use xlink:href="#f1_20" transform="matrix(10.4,0,0,10.4,309.4,124.4)" />
<use xlink:href="#f1_2j" transform="matrix(10.4,0,0,10.4,325.9,124.4)" />
<use xlink:href="#f1_25" transform="matrix(10.4,0,0,10.4,337.1,124.4)" />
<use xlink:href="#f1_2g" transform="matrix(10.4,0,0,10.4,340.5,124.4)" />
<use xlink:href="#f1_24" transform="matrix(10.4,0,0,10.4,344.9,124.4)" />
<use xlink:href="#f1_1z" transform="matrix(10.4,0,0,10.4,361.3,124.4)" />
<use xlink:href="#f1_2b" transform="matrix(10.4,0,0,10.4,369.3,124.4)" />
<use xlink:href="#f1_2a" transform="matrix(10.4,0,0,10.4,378.1,124.4)" />
<use xlink:href="#f1_1z" transform="matrix(10.4,0,0,10.4,386.9,124.4)" />
<use xlink:href="#f1_i" transform="matrix(10.4,0,0,10.4,395,124.4)" />
<use xlink:href="#f1_18" transform="matrix(10.4,0,0,10.4,406.9,124.4)" />
<use xlink:href="#f1_m" transform="matrix(7.4,0,0,7.4,418.5,129.7)" />
<use xlink:href="#f1_1j" transform="matrix(10.4,0,0,10.4,424.7,124.4)" />
<use xlink:href="#f1_1f" transform="matrix(10.4,0,0,10.4,435.4,124.4)" />
<use xlink:href="#f1_o" transform="matrix(7.4,0,0,7.4,447.8,129.7)" />
<use xlink:href="#f1_i" transform="matrix(10.4,0,0,10.4,454,124.4)" />
<use xlink:href="#f2_13" transform="matrix(11,0,0,11,51.1,162.7)" />
<use xlink:href="#f2_2b" transform="matrix(11,0,0,11,63.2,162.7)" />
<use xlink:href="#f2_29" transform="matrix(11,0,0,11,73.4,162.7)" />
<use xlink:href="#f2_2c" transform="matrix(11,0,0,11,88.5,162.7)" />
<use xlink:href="#f2_28" transform="matrix(11,0,0,11,98.7,162.7)" />
<use xlink:href="#f2_21" transform="matrix(11,0,0,11,103.5,162.7)" />
<use xlink:href="#f2_2g" transform="matrix(11,0,0,11,112.8,162.7)" />
<use xlink:href="#f2_21" transform="matrix(11,0,0,11,118.5,162.7)" />
<use xlink:href="#f2_2g" transform="matrix(11,0,0,11,134.8,162.7)" />
<use xlink:href="#f2_24" transform="matrix(11,0,0,11,140.5,162.7)" />
<use xlink:href="#f2_21" transform="matrix(11,0,0,11,150.7,162.7)" />
<use xlink:href="#f2_22" transform="matrix(11,0,0,11,167,162.7)" />
<use xlink:href="#f2_2b" transform="matrix(11,0,0,11,172.7,162.7)" />
<use xlink:href="#f2_28" transform="matrix(11,0,0,11,183,162.7)" />
<use xlink:href="#f2_28" transform="matrix(11,0,0,11,187.7,162.7)" />
<use xlink:href="#f2_2b" transform="matrix(11,0,0,11,192.5,162.7)" />
<use xlink:href="#f2_2j" transform="matrix(11,0,0,11,202.8,162.7)" />
<use xlink:href="#f2_25" transform="matrix(11,0,0,11,216.3,162.7)" />
<use xlink:href="#f2_2a" transform="matrix(11,0,0,11,221.1,162.7)" />
<use xlink:href="#f2_23" transform="matrix(11,0,0,11,231.3,162.7)" />
<use xlink:href="#f2_2e" transform="matrix(11,0,0,11,248.5,162.7)" />
<use xlink:href="#f2_21" transform="matrix(11,0,0,11,255.1,162.7)" />
<use xlink:href="#f2_1x" transform="matrix(11,0,0,11,264.5,162.7)" />
<use xlink:href="#f2_1z" transform="matrix(11,0,0,11,273.8,162.7)" />
<use xlink:href="#f2_2g" transform="matrix(11,0,0,11,283.2,162.7)" />
<use xlink:href="#f2_25" transform="matrix(11,0,0,11,288.8,162.7)" />
<use xlink:href="#f2_2b" transform="matrix(11,0,0,11,293.6,162.7)" />
<use xlink:href="#f2_2a" transform="matrix(11,0,0,11,303.9,162.7)" />
<use xlink:href="#f2_2f" transform="matrix(11,0,0,11,314.1,162.7)" />
<use xlink:href="#f2_u" transform="matrix(11,0,0,11,330.4,162.7)" />
<use xlink:href="#f1_s" transform="matrix(10.4,0,0,10.4,51.1,205.4)" />
<use xlink:href="#f1_i" transform="matrix(10.4,0,0,10.4,60.4,205.4)" />
<use xlink:href="#f1_c" transform="matrix(10.4,0,0,10.4,94.3,205.4)" />
<use xlink:href="#f1_25" transform="matrix(10.4,0,0,10.4,100,205.4)" />
<use xlink:href="#f1_d" transform="matrix(10.4,0,0,10.4,103.9,205.4)" />
<use xlink:href="#f1_c" transform="matrix(10.4,0,0,10.4,137.6,205.4)" />
<use xlink:href="#f1_1e" transform="matrix(10.4,0,0,10.4,142.9,205.4)" />
<use xlink:href="#f1_18" transform="matrix(10.4,0,0,10.4,154.5,205.4)" />
<use xlink:href="#f1_o" transform="matrix(7.4,0,0,7.4,166,210.7)" />
<use xlink:href="#f1_d" transform="matrix(10.4,0,0,10.4,172.3,205.4)" />
<use xlink:href="#f1_m" transform="matrix(7.4,0,0,7.4,177.6,210.7)" />
</g>
<g clip-path="url(#c0_46)">
<g fill="#000000" >
<use xlink:href="#f1_13" transform="matrix(10.4,0,0,10.4,191.3,205.4)" />
<use xlink:href="#f1_2e" transform="matrix(10.4,0,0,10.4,202.9,205.4)" />
</g>
</g>
<g fill="#000000" >
<use xlink:href="#f1_m" transform="matrix(7.4,0,0,7.4,208.2,210.7)" />
<use xlink:href="#f1_1f" transform="matrix(10.4,0,0,10.4,214.4,205.4)" />
<use xlink:href="#f1_r" transform="matrix(7.4,0,0,7.4,226.9,210.7)" />
<use xlink:href="#f1_24" transform="matrix(11.6,0,0,11.6,275.8,197.9)" />
<use xlink:href="#f1_21" transform="matrix(11.6,0,0,11.6,286.1,197.9)" />
<use xlink:href="#f1_1x" transform="matrix(11.6,0,0,11.6,296.2,197.9)" />
<use xlink:href="#f1_2g" transform="matrix(11.6,0,0,11.6,306.4,197.9)" />
<use xlink:href="#f3_1mh" transform="matrix(17.5,0,0,17.5,316.4,210.2)" />
<use xlink:href="#f1_c" transform="matrix(10.4,0,0,10.4,94.3,255.5)" />
<use xlink:href="#f1_25" transform="matrix(10.4,0,0,10.4,99.8,255.5)" />
<use xlink:href="#f1_25" transform="matrix(10.4,0,0,10.4,103.7,255.5)" />
<use xlink:href="#f1_d" transform="matrix(10.4,0,0,10.4,107.4,255.5)" />
<use xlink:href="#f1_1e" transform="matrix(10.4,0,0,10.4,137.6,255.5)" />
<use xlink:href="#f1_o" transform="matrix(7.4,0,0,7.4,149.2,260.8)" />
<use xlink:href="#f1_18" transform="matrix(10.4,0,0,10.4,155.4,255.5)" />
<use xlink:href="#f1_13" transform="matrix(10.4,0,0,10.4,173.7,255.5)" />
<use xlink:href="#f1_28" transform="matrix(10.4,0,0,10.4,185.3,255.5)" />
<use xlink:href="#f1_c" transform="matrix(10.4,0,0,10.4,195.5,255.5)" />
<use xlink:href="#f1_1x" transform="matrix(10.4,0,0,10.4,200.9,255.5)" />
<use xlink:href="#f1_2d" transform="matrix(10.4,0,0,10.4,209.7,255.5)" />
<use xlink:href="#f1_d" transform="matrix(10.4,0,0,10.4,218.5,255.5)" />
<use xlink:href="#f1_f" transform="matrix(10.4,0,0,10.4,230.6,255.5)" />
<use xlink:href="#f1_1e" transform="matrix(10.4,0,0,10.4,246.7,255.5)" />
<use xlink:href="#f1_1x" transform="matrix(10.4,0,0,10.4,258.2,255.5)" />
<use xlink:href="#f1_1e" transform="matrix(10.4,0,0,10.4,267,255.5)" />
<use xlink:href="#f1_1f" transform="matrix(10.4,0,0,10.4,278.6,255.5)" />
<use xlink:href="#f1_m" transform="matrix(7.4,0,0,7.4,291.1,260.8)" />
<use xlink:href="#f1_c" transform="matrix(10.4,0,0,10.4,304.1,255.5)" />
<use xlink:href="#f1_1x" transform="matrix(10.4,0,0,10.4,309.4,255.5)" />
<use xlink:href="#f1_2d" transform="matrix(10.4,0,0,10.4,318.2,255.5)" />
<use xlink:href="#f1_d" transform="matrix(10.4,0,0,10.4,327,255.5)" />
<use xlink:href="#f3_1mh" transform="matrix(17.7,0,0,17.7,386,260.4)" />
<use xlink:href="#f1_t" transform="matrix(10.4,0,0,10.4,51.1,314.9)" />
<use xlink:href="#f1_i" transform="matrix(10.4,0,0,10.4,60.4,314.9)" />
<use xlink:href="#f1_c" transform="matrix(10.4,0,0,10.4,94.3,314.9)" />
<use xlink:href="#f1_25" transform="matrix(10.4,0,0,10.4,100,314.9)" />
<use xlink:href="#f1_d" transform="matrix(10.4,0,0,10.4,103.9,314.9)" />
<use xlink:href="#f1_1e" transform="matrix(10.4,0,0,10.4,137.6,314.9)" />
<use xlink:href="#f1_18" transform="matrix(10.4,0,0,10.4,149.2,314.9)" />
<use xlink:href="#f1_m" transform="matrix(7.4,0,0,7.4,160.7,320.2)" />
<use xlink:href="#f1_13" transform="matrix(10.4,0,0,10.4,166.9,314.9)" />
<use xlink:href="#f1_1f" transform="matrix(10.4,0,0,10.4,178.5,314.9)" />
<use xlink:href="#f1_1e" transform="matrix(10.4,0,0,10.4,191,314.9)" />
<use xlink:href="#f1_18" transform="matrix(10.4,0,0,10.4,202.5,314.9)" />
<use xlink:href="#f1_m" transform="matrix(7.4,0,0,7.4,214.1,320.2)" />
<use xlink:href="#f1_f" transform="matrix(10.4,0,0,10.4,225.6,314.9)" />
<use xlink:href="#f1_18" transform="matrix(10.4,0,0,10.4,240.5,314.9)" />
<use xlink:href="#f1_m" transform="matrix(7.4,0,0,7.4,252,320.2)" />
<use xlink:href="#f1_1f" transform="matrix(10.4,0,0,10.4,258.2,314.9)" />
<use xlink:href="#f3_1mh" transform="matrix(17.7,0,0,17.7,323.1,319.8)" />
<use xlink:href="#f1_c" transform="matrix(10.4,0,0,10.4,94.3,365.1)" />
<use xlink:href="#f1_25" transform="matrix(10.4,0,0,10.4,99.8,365.1)" />
<use xlink:href="#f1_25" transform="matrix(10.4,0,0,10.4,103.7,365.1)" />
<use xlink:href="#f1_d" transform="matrix(10.4,0,0,10.4,107.4,365.1)" />
<use xlink:href="#f1_16" transform="matrix(10.4,0,0,10.4,137.6,365.1)" />
<use xlink:href="#f1_21" transform="matrix(10.4,0,0,10.4,147.3,365.1)" />
<use xlink:href="#f1_13" transform="matrix(10.4,0,0,10.4,156.1,365.1)" />
<use xlink:href="#f1_28" transform="matrix(10.4,0,0,10.4,167.7,365.1)" />
<use xlink:href="#f1_n" transform="matrix(7.4,0,0,7.4,171.2,370.4)" />
<use xlink:href="#f1_c" transform="matrix(10.4,0,0,10.4,184.2,365.1)" />
<use xlink:href="#f1_1x" transform="matrix(10.4,0,0,10.4,189.5,365.1)" />
<use xlink:href="#f1_2d" transform="matrix(10.4,0,0,10.4,198.3,365.1)" />
<use xlink:href="#f1_d" transform="matrix(10.4,0,0,10.4,207.1,365.1)" />
<use xlink:href="#f1_f" transform="matrix(10.4,0,0,10.4,219.2,365.1)" />
<use xlink:href="#f1_1e" transform="matrix(10.4,0,0,10.4,235.3,365.1)" />
<use xlink:href="#f1_18" transform="matrix(10.4,0,0,10.4,246.9,365.1)" />
<use xlink:href="#f1_o" transform="matrix(7.4,0,0,7.4,258.4,370.4)" />
<use xlink:href="#f1_1f" transform="matrix(10.4,0,0,10.4,264.7,365.1)" />
<use xlink:href="#f1_18" transform="matrix(10.4,0,0,10.4,277.1,365.1)" />
<use xlink:href="#f3_1mh" transform="matrix(17.7,0,0,17.7,342.6,370)" />
<use xlink:href="#f1_l" transform="matrix(10.4,0,0,10.4,51.1,424.5)" />
<use xlink:href="#f1_k" transform="matrix(10.4,0,0,10.4,60.2,424.5)" />
<use xlink:href="#f1_i" transform="matrix(10.4,0,0,10.4,69.6,424.5)" />
<use xlink:href="#f1_c" transform="matrix(10.4,0,0,10.4,94.3,424.5)" />
<use xlink:href="#f1_25" transform="matrix(10.4,0,0,10.4,100,424.5)" />
<use xlink:href="#f1_d" transform="matrix(10.4,0,0,10.4,103.9,424.5)" />
<use xlink:href="#f1_13" transform="matrix(10.4,0,0,10.4,137.6,424.5)" />
<use xlink:href="#f1_1x" transform="matrix(10.4,0,0,10.4,149.2,424.5)" />
<use xlink:href="#f1_n" transform="matrix(7.4,0,0,7.4,158,429.8)" />
<use xlink:href="#f1_1g" transform="matrix(10.4,0,0,10.4,171.2,424.5)" />
<use xlink:href="#f1_m" transform="matrix(7.4,0,0,7.4,181.8,429.8)" />
<use xlink:href="#f1_f" transform="matrix(10.4,0,0,10.4,195.2,424.5)" />
<use xlink:href="#f1_18" transform="matrix(10.4,0,0,10.4,211.7,424.5)" />
<use xlink:href="#f1_m" transform="matrix(7.4,0,0,7.4,223.2,429.8)" />
<use xlink:href="#f1_1f" transform="matrix(10.4,0,0,10.4,236.6,424.5)" />
<use xlink:href="#f1_c" transform="matrix(10.4,0,0,10.4,256,424.5)" />
<use xlink:href="#f1_28" transform="matrix(10.4,0,0,10.4,261.4,424.5)" />
<use xlink:href="#f1_d" transform="matrix(10.4,0,0,10.4,264.8,424.5)" />
<use xlink:href="#f3_1mh" transform="matrix(17.7,0,0,17.7,324.2,429.4)" />
<use xlink:href="#f1_c" transform="matrix(10.4,0,0,10.4,94.3,474.7)" />
<use xlink:href="#f1_25" transform="matrix(10.4,0,0,10.4,99.8,474.7)" />
<use xlink:href="#f1_25" transform="matrix(10.4,0,0,10.4,103.7,474.7)" />
<use xlink:href="#f1_d" transform="matrix(10.4,0,0,10.4,107.4,474.7)" />
<use xlink:href="#f1_19" transform="matrix(10.4,0,0,10.4,137.6,474.7)" />
<use xlink:href="#f1_m" transform="matrix(7.4,0,0,7.4,142,480)" />
<use xlink:href="#f1_f" transform="matrix(10.4,0,0,10.4,154.8,474.7)" />
<use xlink:href="#f1_18" transform="matrix(10.4,0,0,10.4,171,474.7)" />
<use xlink:href="#f1_1e" transform="matrix(10.4,0,0,10.4,182.5,474.7)" />
<use xlink:href="#f1_1f" transform="matrix(10.4,0,0,10.4,194.1,474.7)" />
<use xlink:href="#f1_n" transform="matrix(7.4,0,0,7.4,206.5,480)" />
<use xlink:href="#f1_c" transform="matrix(10.4,0,0,10.4,219.4,474.7)" />
<use xlink:href="#f1_1z" transform="matrix(10.4,0,0,10.4,224.7,474.7)" />
<use xlink:href="#f1_2b" transform="matrix(10.4,0,0,10.4,232.8,474.7)" />
<use xlink:href="#f1_2a" transform="matrix(10.4,0,0,10.4,241.6,474.7)" />
<use xlink:href="#f1_1z" transform="matrix(10.4,0,0,10.4,250.4,474.7)" />
<use xlink:href="#f1_i" transform="matrix(10.4,0,0,10.4,258.4,474.7)" />
<use xlink:href="#f1_d" transform="matrix(10.4,0,0,10.4,262.8,474.7)" />
<use xlink:href="#f3_1mh" transform="matrix(17.7,0,0,17.7,321.9,479.7)" />
<use xlink:href="#f1_l" transform="matrix(10.4,0,0,10.4,51.1,533.6)" />
<use xlink:href="#f1_l" transform="matrix(10.4,0,0,10.4,59.1,533.6)" />
<use xlink:href="#f1_i" transform="matrix(10.4,0,0,10.4,68.5,533.6)" />
<use xlink:href="#f1_c" transform="matrix(10.4,0,0,10.4,94.3,533.6)" />
<use xlink:href="#f1_25" transform="matrix(10.4,0,0,10.4,100,533.6)" />
<use xlink:href="#f1_d" transform="matrix(10.4,0,0,10.4,103.9,533.6)" />
<use xlink:href="#f1_12" transform="matrix(10.4,0,0,10.4,137.6,533.6)" />
<use xlink:href="#f1_1x" transform="matrix(10.4,0,0,10.4,148.3,533.6)" />
<use xlink:href="#f1_c" transform="matrix(10.4,0,0,10.4,157,533.6)" />
<use xlink:href="#f1_1e" transform="matrix(10.4,0,0,10.4,162.5,533.6)" />
<use xlink:href="#f1_n" transform="matrix(7.4,0,0,7.4,174.1,538.9)" />
<use xlink:href="#f1_d" transform="matrix(10.4,0,0,10.4,180.3,533.6)" />
<use xlink:href="#f1_m" transform="matrix(7.4,0,0,7.4,185.6,538.9)" />
<use xlink:href="#f1_24" transform="matrix(11.6,0,0,11.6,233.5,526.1)" />
<use xlink:href="#f1_21" transform="matrix(11.6,0,0,11.6,243.8,526.1)" />
<use xlink:href="#f1_1x" transform="matrix(11.6,0,0,11.6,253.8,526.1)" />
<use xlink:href="#f1_2g" transform="matrix(11.6,0,0,11.6,264.1,526.1)" />
<use xlink:href="#f3_1mh" transform="matrix(17.5,0,0,17.5,274,538.3)" />
<use xlink:href="#f1_c" transform="matrix(10.4,0,0,10.4,94.3,583.3)" />
<use xlink:href="#f1_25" transform="matrix(10.4,0,0,10.4,99.8,583.3)" />
<use xlink:href="#f1_25" transform="matrix(10.4,0,0,10.4,103.7,583.3)" />
<use xlink:href="#f1_d" transform="matrix(10.4,0,0,10.4,107.4,583.3)" />
<use xlink:href="#f1_o" transform="matrix(10.4,0,0,10.4,137.6,583.3)" />
<use xlink:href="#f1_18" transform="matrix(10.4,0,0,10.4,146.4,583.3)" />
<use xlink:href="#f1_n" transform="matrix(7.4,0,0,7.4,158,588.6)" />
<use xlink:href="#f1_1g" transform="matrix(10.4,0,0,10.4,164.2,583.3)" />
<use xlink:href="#f1_1f" transform="matrix(10.4,0,0,10.4,174.8,583.3)" />
<use xlink:href="#f1_n" transform="matrix(7.4,0,0,7.4,187.3,588.6)" />
<use xlink:href="#f1_24" transform="matrix(11.7,0,0,11.7,235.9,575.7)" />
<use xlink:href="#f1_21" transform="matrix(11.7,0,0,11.7,246.1,575.7)" />
<use xlink:href="#f1_1x" transform="matrix(11.7,0,0,11.7,256.2,575.7)" />
<use xlink:href="#f1_2g" transform="matrix(11.7,0,0,11.7,266.5,575.7)" />
<use xlink:href="#f3_1mh" transform="matrix(17.6,0,0,17.6,276.4,588.2)" />
<use xlink:href="#f1_l" transform="matrix(10.4,0,0,10.4,51.1,642.5)" />
<use xlink:href="#f1_m" transform="matrix(10.4,0,0,10.4,60.2,642.5)" />
<use xlink:href="#f1_i" transform="matrix(10.4,0,0,10.4,69.6,642.5)" />
<use xlink:href="#f1_c" transform="matrix(10.4,0,0,10.4,94.3,642.5)" />
<use xlink:href="#f1_25" transform="matrix(10.4,0,0,10.4,100,642.5)" />
<use xlink:href="#f1_d" transform="matrix(10.4,0,0,10.4,103.9,642.5)" />
<use xlink:href="#f1_1g" transform="matrix(10.4,0,0,10.4,137.6,642.5)" />
<use xlink:href="#f1_18" transform="matrix(10.4,0,0,10.4,148.3,642.5)" />
<use xlink:href="#f1_o" transform="matrix(7.4,0,0,7.4,159.8,647.8)" />
<use xlink:href="#f1_19" transform="matrix(10.4,0,0,10.4,166,642.5)" />
<use xlink:href="#f1_f" transform="matrix(10.4,0,0,10.4,176.1,642.5)" />
<use xlink:href="#f1_1b" transform="matrix(10.4,0,0,10.4,191.1,642.5)" />
<use xlink:href="#f1_1f" transform="matrix(10.4,0,0,10.4,201.8,642.5)" />
<use xlink:href="#f1_18" transform="matrix(10.4,0,0,10.4,214.2,642.5)" />
<use xlink:href="#f3_1mh" transform="matrix(17.7,0,0,17.7,278.4,647.4)" />
<use xlink:href="#f1_c" transform="matrix(10.4,0,0,10.4,94.3,692.9)" />
<use xlink:href="#f1_25" transform="matrix(10.4,0,0,10.4,99.8,692.9)" />
<use xlink:href="#f1_25" transform="matrix(10.4,0,0,10.4,103.7,692.9)" />
<use xlink:href="#f1_d" transform="matrix(10.4,0,0,10.4,107.4,692.9)" />
<use xlink:href="#f1_18" transform="matrix(10.4,0,0,10.4,137.6,692.9)" />
<use xlink:href="#f1_23" transform="matrix(10.4,0,0,10.4,149.2,692.9)" />
<use xlink:href="#f1_13" transform="matrix(10.4,0,0,10.4,158,692.9)" />
<use xlink:href="#f1_28" transform="matrix(10.4,0,0,10.4,169.5,692.9)" />
<use xlink:href="#f1_m" transform="matrix(7.4,0,0,7.4,173,698.2)" />
<use xlink:href="#f1_f" transform="matrix(10.4,0,0,10.4,185.8,692.9)" />
<use xlink:href="#f1_1g" transform="matrix(10.4,0,0,10.4,201.8,692.9)" />
<use xlink:href="#f1_18" transform="matrix(10.4,0,0,10.4,212.4,692.9)" />
<use xlink:href="#f1_n" transform="matrix(7.4,0,0,7.4,224,698.2)" />
<use xlink:href="#f3_1mh" transform="matrix(17.7,0,0,17.7,281.9,697.8)" />
<use xlink:href="#f1_l" transform="matrix(10.4,0,0,10.4,51.1,752.1)" />
<use xlink:href="#f1_n" transform="matrix(10.4,0,0,10.4,60.2,752.1)" />
<use xlink:href="#f1_i" transform="matrix(10.4,0,0,10.4,69.6,752.1)" />
<use xlink:href="#f1_c" transform="matrix(10.4,0,0,10.4,94.3,752.1)" />
<use xlink:href="#f1_25" transform="matrix(10.4,0,0,10.4,100,752.1)" />
<use xlink:href="#f1_d" transform="matrix(10.4,0,0,10.4,103.9,752.1)" />
<use xlink:href="#f1_1g" transform="matrix(10.4,0,0,10.4,137.6,752.1)" />
<use xlink:href="#f1_13" transform="matrix(10.4,0,0,10.4,148.3,752.1)" />
<use xlink:href="#f1_28" transform="matrix(10.4,0,0,10.4,159.8,752.1)" />
<use xlink:href="#f1_n" transform="matrix(7.4,0,0,7.4,163.3,757.4)" />
<use xlink:href="#f1_f" transform="matrix(10.4,0,0,10.4,176.3,752.1)" />
<use xlink:href="#f1_n" transform="matrix(10.4,0,0,10.4,192.4,752.1)" />
<use xlink:href="#f1_18" transform="matrix(10.4,0,0,10.4,201.2,752.1)" />
<use xlink:href="#f1_m" transform="matrix(7.4,0,0,7.4,212.8,757.4)" />
<use xlink:href="#f1_1f" transform="matrix(10.4,0,0,10.4,219,752.1)" />
<use xlink:href="#f3_1mh" transform="matrix(17.7,0,0,17.7,285.2,757.1)" />
<use xlink:href="#f1_c" transform="matrix(10.4,0,0,10.4,94.3,802.3)" />
<use xlink:href="#f1_25" transform="matrix(10.4,0,0,10.4,99.8,802.3)" />
<use xlink:href="#f1_25" transform="matrix(10.4,0,0,10.4,103.7,802.3)" />
<use xlink:href="#f1_d" transform="matrix(10.4,0,0,10.4,107.4,802.3)" />
<use xlink:href="#f1_1j" transform="matrix(10.4,0,0,10.4,137.6,802.3)" />
<use xlink:href="#f1_f" transform="matrix(10.4,0,0,10.4,155.2,802.3)" />
<use xlink:href="#f1_18" transform="matrix(10.4,0,0,10.4,171.7,802.3)" />
<use xlink:href="#f1_m" transform="matrix(7.4,0,0,7.4,183.3,807.7)" />
<use xlink:href="#f1_1j" transform="matrix(10.4,0,0,10.4,189.5,802.3)" />
<use xlink:href="#f1_1f" transform="matrix(10.4,0,0,10.4,200.1,802.3)" />
<use xlink:href="#f1_o" transform="matrix(7.4,0,0,7.4,212.6,807.7)" />
<use xlink:href="#f1_c" transform="matrix(10.4,0,0,10.4,226,802.3)" />
<use xlink:href="#f1_1z" transform="matrix(10.4,0,0,10.4,231.3,802.3)" />
<use xlink:href="#f1_2b" transform="matrix(10.4,0,0,10.4,239.4,802.3)" />
<use xlink:href="#f1_2a" transform="matrix(10.4,0,0,10.4,248.2,802.3)" />
<use xlink:href="#f1_1z" transform="matrix(10.4,0,0,10.4,257,802.3)" />
<use xlink:href="#f1_i" transform="matrix(10.4,0,0,10.4,265,802.3)" />
<use xlink:href="#f1_d" transform="matrix(10.4,0,0,10.4,269.4,802.3)" />
<use xlink:href="#f3_1mh" transform="matrix(17.7,0,0,17.7,328.8,807.3)" />
<use xlink:href="#f4_p" transform="matrix(8,0,0,8,678.3,1105.8)" />
</g>
<g fill="#0080FF" fill-opacity="0.5" >
<use xlink:href="#f0_1c" transform="matrix(38,0,0,38,182.5,1060.3)" />
<use xlink:href="#f0_21" transform="matrix(38,0,0,38,214.8,1060.3)" />
<use xlink:href="#f0_1x" transform="matrix(38,0,0,38,247.1,1060.3)" />
<use xlink:href="#f0_2e" transform="matrix(38,0,0,38,279.5,1060.3)" />
<use xlink:href="#f0_2a" transform="matrix(38,0,0,38,298.8,1060.3)" />
<use xlink:href="#f0_17" transform="matrix(38,0,0,38,331.1,1060.3)" />
<use xlink:href="#f0_2h" transform="matrix(38,0,0,38,376.4,1060.3)" />
<use xlink:href="#f0_25" transform="matrix(38,0,0,38,408.7,1060.3)" />
<use xlink:href="#f0_20" transform="matrix(38,0,0,38,421.6,1060.3)" />
<use xlink:href="#f0_21" transform="matrix(38,0,0,38,453.9,1060.3)" />
<use xlink:href="#f0_i" transform="matrix(38,0,0,38,486.2,1060.3)" />
<use xlink:href="#f0_25" transform="matrix(38,0,0,38,502.4,1060.3)" />
<use xlink:href="#f0_2a" transform="matrix(38,0,0,38,515.3,1060.3)" />
</g>
<defs>
<path d="M593,101c0,0,182,0,279,112c0,0,98,113,98,318c0,0,0,196,-98,308c0,0,-98,112,-277,112c0,0,-181,0,-279,-110c0,0,-99,-111,-99,-310c0,0,0,-198,100,-314c0,0,99,-116,276,-116Zm0,-115c0,0,-162,0,-279,65c0,0,-118,66,-180,190c0,0,-62,124,-62,290c0,0,0,252,138,394c0,0,138,142,385,142c0,0,160,0,278,-64c0,0,118,-64,180,-185c0,0,62,-122,62,-287c0,0,0,-165,-63,-289c0,0,-63,-124,-181,-190c0,0,-118,-66,-278,-66Z" 
id="f0_1f"
transform="scale(0.001,-0.001)" />

<path d="M106,0V635c0,0,0,141,-5,173H228c0,0,1,-4,2,-21c0,0,1,-16,2,-37c0,0,1,-22,2,-81h2c0,0,47,84,108,119c0,0,60,34,151,34c0,0,132,0,194,-66c0,0,61,-66,61,-218V0H615V512c0,0,0,80,-15,124c0,0,-16,44,-50,63c0,0,-35,20,-101,20c0,0,-97,0,-153,-67c0,0,-56,-66,-56,-184V0Z" 
id="f0_2a"
transform="scale(0.001,-0.001)" />

<path d="M103,0V1107H237V0Z" 
id="f0_28"
transform="scale(0.001,-0.001)" />

<path d="M102,0V808H236V0Zm0,979v128H236V979Z" 
id="f0_25"
transform="scale(0.001,-0.001)" />

<path d="M643,478c0,0,-11,128,-65,187c0,0,-54,59,-154,59c0,0,-98,0,-155,-66c0,0,-57,-65,-62,-180ZM431,-14c0,0,-179,0,-272,106c0,0,-94,107,-94,317c0,0,0,200,94,307c0,0,93,106,267,106c0,0,356,0,356,-429V375H206c0,0,0,-138,57,-213c0,0,58,-75,168,-75c0,0,87,0,140,35c0,0,53,35,71,88L760,177c0,0,-72,-191,-329,-191Z" 
id="f0_21"
transform="scale(0.001,-0.001)" />

<path d="M17,0L304,415L31,808H179L380,493L580,808H730L457,417L747,0H598L380,331L162,0Z" 
id="f0_2k"
transform="scale(0.001,-0.001)" />

<path d="M339,87c0,0,74,0,132,34c0,0,57,33,90,91c0,0,34,59,34,121v66L448,396c0,0,-95,-2,-144,-19c0,0,-49,-18,-75,-55c0,0,-26,-38,-26,-98c0,0,0,-65,35,-101c0,0,36,-36,101,-36ZM309,-14c0,0,-122,0,-183,64c0,0,-61,64,-61,176c0,0,0,125,82,192c0,0,83,67,266,72l182,3v44c0,0,0,98,-42,141c0,0,-42,43,-132,43c0,0,-90,0,-131,-31c0,0,-41,-31,-49,-98L101,604c0,0,34,218,323,218c0,0,153,0,229,-70c0,0,77,-69,77,-202V202c0,0,0,-59,16,-90c0,0,16,-30,60,-30c0,0,19,0,44,5V4C850,4,799,-7,746,-7c0,0,-75,0,-109,38c0,0,-33,40,-38,124h-4C595,155,543,62,475,24c0,0,-68,-38,-166,-38Z" 
id="f0_1x"
transform="scale(0.001,-0.001)" />

<path d="M106,0V635c0,0,0,141,-5,173H228c0,0,1,-4,2,-21c0,0,1,-16,2,-37c0,0,1,-22,2,-81h2c0,0,44,86,100,120c0,0,56,33,136,33c0,0,92,0,145,-36c0,0,54,-37,75,-117h2c0,0,42,82,101,117c0,0,59,36,143,36c0,0,123,0,178,-66c0,0,56,-67,56,-218V0H1039V512c0,0,0,117,-32,162c0,0,-32,45,-116,45c0,0,-88,0,-136,-66c0,0,-49,-65,-49,-185V0H573V512c0,0,0,117,-32,162c0,0,-32,45,-116,45c0,0,-86,0,-136,-66c0,0,-50,-66,-50,-185V0Z" 
id="f0_29"
transform="scale(0.001,-0.001)" />

<path d="M453,84c0,0,100,0,146,74c0,0,46,73,46,247c0,0,0,169,-46,241c0,0,-45,73,-145,73c0,0,-80,0,-125,-34c0,0,-45,-34,-68,-105c0,0,-24,-71,-24,-186c0,0,0,-159,51,-234c0,0,51,-76,165,-76ZM103,-316V643c0,0,0,124,-5,165H228c0,0,1,-3,3,-22c0,0,1,-18,3,-56c0,0,2,-38,2,-52h3c0,0,36,75,94,110c0,0,59,34,156,34c0,0,149,0,223,-100c0,0,74,-100,74,-314c0,0,0,-422,-297,-422c0,0,-187,0,-251,140h-4c0,0,3,-6,3,-126V-316Z" 
id="f0_2c"
transform="scale(0.001,-0.001)" />

<path d="M420,84c0,0,121,0,173,78c0,0,52,77,52,243c0,0,0,167,-50,243c0,0,-50,76,-167,76c0,0,-118,0,-170,-78c0,0,-53,-77,-53,-241c0,0,0,-160,52,-241c0,0,52,-80,163,-80Zm1,-98c0,0,-176,0,-267,107c0,0,-90,108,-90,312c0,0,0,417,362,417c0,0,185,0,272,-102c0,0,88,-101,88,-315c0,0,0,-212,-94,-316C692,89,599,-14,421,-14Z" 
id="f0_2b"
transform="scale(0.001,-0.001)" />

<path d="M278,-11c0,0,-162,0,-162,182V710H23v98h99l39,181h90V808H400V710H251V200c0,0,0,-58,19,-82c0,0,19,-23,66,-23c0,0,27,0,77,10V6c0,0,-66,-17,-135,-17Z" 
id="f0_2g"
transform="scale(0.001,-0.001)" />

<path d="M225,0c0,0,2,129,51,312c0,0,48,183,139,352c0,0,91,170,193,286H72v129H780V975C780,975,676,864,573,680C573,680,470,495,414,301C414,301,374,163,363,0Z" 
id="f1_r"
transform="scale(0.001,-0.001)" />

<path d="M139,0V153H291V0Z" 
id="f1_i"
transform="scale(0.001,-0.001)" />

<path d="M308,0L19,1093H167L333,377c0,0,27,-113,47,-224c0,0,42,175,49,202l209,738H812L968,540c0,0,59,-206,86,-387c0,0,21,103,55,238l170,702h146L1126,0H985L756,834c0,0,-29,104,-35,127c0,0,-18,-75,-32,-128L457,0Z" 
id="f1_1n"
transform="scale(0.001,-0.001)" />

<path d="M99,0V792H219V672c0,0,46,84,86,111c0,0,39,27,86,27c0,0,68,0,138,-43L482,642c0,0,-49,29,-98,29c0,0,-44,0,-79,-27c0,0,-35,-26,-50,-73c0,0,-22,-72,-22,-157V0Z" 
id="f1_2e"
transform="scale(0.001,-0.001)" />

<path d="M102,0V792H236V0Zm0,939v154H236V939Z" 
id="f1_25"
transform="scale(0.001,-0.001)" />

<path d="M312,-10c0,0,-73,0,-114,22c0,0,-40,23,-56,61c0,0,-17,38,-17,159V687H26V792h99V988l134,81V792H394V687H259V224c0,0,0,-57,7,-74c0,0,7,-16,23,-26c0,0,16,-10,46,-10c0,0,23,0,59,6L414,1c0,0,-57,-11,-102,-11Z" 
id="f1_2g"
transform="scale(0.001,-0.001)" />

<path d="M644,472c0,0,-9,100,-50,150c0,0,-65,77,-167,77c0,0,-93,0,-156,-62c0,0,-63,-61,-70,-165ZM433,-17c0,0,-174,0,-275,106C158,89,56,196,56,389c0,0,0,200,103,310c0,0,103,111,267,111c0,0,159,0,259,-108c0,0,101,-109,101,-304c0,0,0,-12,-1,-36H194c0,0,7,-131,74,-200c0,0,66,-69,166,-69c0,0,74,0,126,39c0,0,52,39,83,124L782,239C782,239,749,117,660,50c0,0,-89,-67,-227,-67Z" 
id="f1_21"
transform="scale(0.001,-0.001)" />

<path d="M101,0V1093H235V701c0,0,94,109,237,109c0,0,88,0,153,-35c0,0,65,-35,93,-96c0,0,28,-61,28,-177V0H612V502c0,0,0,101,-44,146c0,0,-43,46,-123,46c0,0,-60,0,-113,-31c0,0,-52,-31,-75,-84c0,0,-22,-53,-22,-146V0Z" 
id="f1_24"
transform="scale(0.001,-0.001)" />

<path d="M420,-17c0,0,-163,0,-262,106c0,0,-98,106,-98,304c0,0,0,128,42,224c0,0,43,96,129,145c0,0,87,48,189,48c0,0,129,0,211,-66c0,0,82,-65,106,-185L606,539c0,0,-19,80,-66,120c0,0,-48,40,-115,40c0,0,-101,0,-164,-72c0,0,-63,-73,-63,-230c0,0,0,-160,61,-232c0,0,61,-72,159,-72c0,0,79,0,132,48c0,0,53,49,67,149L749,273C749,273,728,137,639,59c0,0,-90,-76,-219,-76Z" 
id="f1_1z"
transform="scale(0.001,-0.001)" />

<path d="M101,0V792H220V681c0,0,37,58,99,93c0,0,62,36,141,36c0,0,88,0,145,-37c0,0,56,-36,79,-102c0,0,94,139,245,139c0,0,118,0,182,-66c0,0,63,-65,63,-201V0H1040V499c0,0,0,80,-13,116c0,0,-13,35,-47,57c0,0,-35,21,-81,21c0,0,-83,0,-139,-55c0,0,-55,-56,-55,-178V0H571V514c0,0,0,90,-33,135c0,0,-33,44,-107,44c0,0,-57,0,-105,-30c0,0,-48,-29,-70,-87c0,0,-21,-57,-21,-165V0Z" 
id="f1_29"
transform="scale(0.001,-0.001)" />

<path d="M358,88c0,0,78,0,139,34c0,0,60,34,89,92c0,0,21,46,21,134l1,49c0,0,-73,-30,-221,-51c0,0,-83,-11,-117,-26c0,0,-35,-15,-54,-44c0,0,-18,-28,-18,-63c0,0,0,-54,40,-89c0,0,41,-36,120,-36ZM326,-17c0,0,-131,0,-201,63c0,0,-70,64,-70,163c0,0,0,58,26,106c0,0,27,48,70,77c0,0,43,29,97,44c0,0,39,11,119,20c0,0,163,20,240,47c0,0,1,27,1,35c0,0,0,81,-38,115c0,0,-52,45,-153,45c0,0,-95,0,-141,-33c0,0,-45,-33,-67,-116L78,566c0,0,18,84,59,136c0,0,41,52,119,80c0,0,78,28,180,28c0,0,102,0,165,-24c0,0,64,-24,94,-60c0,0,29,-36,41,-91c0,0,7,-35,7,-124V332c0,0,0,-187,9,-236c0,0,8,-50,33,-96H645c0,0,-20,42,-26,98C619,98,544,34,475,8c0,0,-70,-25,-149,-25Z" 
id="f1_1x"
transform="scale(0.001,-0.001)" />

<path d="M98,0V1093H232V0Z" 
id="f1_28"
transform="scale(0.001,-0.001)" />

<path d="M409,93c0,0,86,0,148,73c0,0,62,72,62,221c0,0,0,158,-65,237c0,0,-65,80,-154,80c0,0,-87,0,-148,-74c0,0,-61,-74,-61,-232c0,0,0,-152,64,-229c0,0,65,-76,154,-76ZM606,-303V85c0,0,-32,-44,-88,-73c0,0,-56,-29,-120,-29c0,0,-141,0,-243,112C155,95,53,207,53,403c0,0,0,120,42,214c0,0,41,95,120,144c0,0,79,49,173,49c0,0,147,0,231,-124V792H740V-303Z" 
id="f1_2d"
transform="scale(0.001,-0.001)" />

<path d="M369,-17c0,0,-70,0,-131,26c0,0,-61,27,-91,68c0,0,-29,40,-41,99c0,0,-8,40,-8,125V792H232V353c0,0,0,-105,8,-142c0,0,13,-53,54,-83c0,0,41,-30,101,-30c0,0,61,0,114,31c0,0,53,31,75,84c0,0,22,53,22,155V792H740V0H621V116c0,0,-93,-133,-252,-133Z" 
id="f1_2h"
transform="scale(0.001,-0.001)" />

<path d="M422,93c0,0,100,0,167,76c0,0,66,76,66,231c0,0,0,147,-67,223c0,0,-66,75,-166,75c0,0,-100,0,-167,-75c0,0,-66,-75,-66,-227c0,0,0,-152,66,-228c0,0,67,-75,167,-75Zm0,-110c0,0,-166,0,-269,106C153,89,51,196,51,396c0,0,0,220,122,326c0,0,102,88,249,88c0,0,164,0,267,-107c0,0,104,-107,104,-296c0,0,0,-153,-46,-240C747,167,701,79,614,31c0,0,-88,-48,-192,-48Z" 
id="f1_2b"
transform="scale(0.001,-0.001)" />

<path d="M101,0V792H221V679c0,0,87,131,252,131c0,0,72,0,132,-26c0,0,60,-26,90,-68c0,0,30,-41,42,-99c0,0,7,-37,7,-130V0H610V482c0,0,0,82,-16,122c0,0,-15,41,-55,65c0,0,-40,24,-94,24c0,0,-86,0,-148,-54c0,0,-62,-55,-62,-207V0Z" 
id="f1_2a"
transform="scale(0.001,-0.001)" />

<path d="M386,-17c0,0,-155,0,-236,64c0,0,-81,64,-103,190l133,20c0,0,11,-79,62,-122c0,0,51,-42,143,-42c0,0,93,0,138,37c0,0,44,38,44,89c0,0,0,45,-39,71c0,0,-28,18,-138,46c0,0,-147,37,-204,64c0,0,-58,27,-87,75c0,0,-30,48,-30,107c0,0,0,52,25,98c0,0,24,45,66,74c0,0,31,24,85,40c0,0,54,16,116,16c0,0,93,0,164,-27c0,0,70,-27,104,-73c0,0,33,-46,46,-122L544,570c0,0,-9,61,-52,95c0,0,-43,34,-121,34c0,0,-93,0,-132,-30c0,0,-40,-31,-40,-72c0,0,0,-26,17,-47c0,0,16,-21,51,-35c0,0,20,-8,119,-35c0,0,142,-38,199,-62c0,0,56,-24,88,-70c0,0,32,-47,32,-115c0,0,0,-67,-39,-126c0,0,-39,-60,-113,-92c0,0,-74,-32,-167,-32Z" 
id="f1_2f"
transform="scale(0.001,-0.001)" />

<path d="M133,0V687H14V792H133v84c0,0,0,80,14,119c0,0,19,52,68,84c0,0,49,33,138,33c0,0,56,0,125,-14L458,981c0,0,-42,8,-79,8c0,0,-62,0,-87,-27c0,0,-25,-26,-25,-97V792H421V687H267V0Z" 
id="f1_22"
transform="scale(0.001,-0.001)" />

<path d="M247,0L4,792H143L270,335L316,165c0,0,3,12,41,163L484,792H620L740,333L779,181l45,153L960,792h131L843,0H704L578,474L547,609L386,0Z" 
id="f1_2j"
transform="scale(0.001,-0.001)" />

<path d="M404,111c0,0,93,0,155,72c0,0,63,71,63,223c0,0,0,145,-65,218c0,0,-64,74,-155,74c0,0,-89,0,-152,-72c0,0,-62,-73,-62,-216c0,0,0,-156,61,-227c0,0,62,-72,155,-72ZM390,-321c0,0,-142,0,-230,64c0,0,-87,64,-84,193L207,-84c0,0,8,-60,46,-88c0,0,49,-37,136,-37c0,0,93,0,144,37c0,0,50,37,68,104c0,0,11,41,10,172C611,104,523,0,392,0C392,0,229,0,139,118c0,0,-89,118,-89,282c0,0,0,114,41,209c0,0,41,96,119,148c0,0,77,53,183,53c0,0,140,0,231,-114v96H748V107c0,0,0,-184,-38,-261c0,0,-38,-77,-119,-122c0,0,-82,-45,-201,-45Z" 
id="f1_23"
transform="scale(0.001,-0.001)" />

<path d="M358,-321c0,0,-111,141,-188,328C170,7,93,195,93,396c0,0,0,178,57,341c0,0,68,188,208,376h96c0,0,-91,-156,-120,-222c0,0,-45,-103,-71,-215c0,0,-32,-139,-32,-281c0,0,0,-358,223,-716Z" 
id="f1_c"
transform="scale(0.001,-0.001)" />

<path d="M93,-321c0,0,223,358,223,716c0,0,0,141,-32,279c0,0,-25,112,-71,215c0,0,-29,67,-120,224h96c0,0,140,-188,208,-376c0,0,57,-163,57,-341c0,0,0,-201,-77,-389c0,0,-77,-187,-188,-328Z" 
id="f1_d"
transform="scale(0.001,-0.001)" />

<path d="M640,-18c0,0,-161,0,-293,68c0,0,-132,69,-199,200c0,0,-67,131,-67,292c0,0,0,160,67,298c0,0,67,138,192,206c0,0,125,67,289,67c0,0,118,0,214,-39c0,0,96,-38,150,-107c0,0,55,-69,83,-179L946,752c0,0,-25,83,-62,131c0,0,-36,48,-104,77c0,0,-68,29,-150,29c0,0,-100,0,-172,-31c0,0,-72,-30,-117,-79c0,0,-44,-49,-69,-108c0,0,-41,-102,-41,-220c0,0,0,-146,50,-245c0,0,50,-98,147,-146c0,0,96,-48,204,-48c0,0,94,0,183,37c0,0,90,36,136,76V428H630V557h463V152C1093,152,986,67,873,24c0,0,-114,-42,-233,-42Z" 
id="f1_17"
transform="scale(0.001,-0.001)" />

<path d="M406,93c0,0,88,0,149,72c0,0,62,72,62,219c0,0,0,162,-63,238c0,0,-63,76,-154,76c0,0,-90,0,-150,-73c0,0,-60,-73,-60,-230c0,0,0,-152,64,-227c0,0,64,-75,152,-75ZM393,-17c0,0,-95,0,-174,52c0,0,-80,52,-123,145c0,0,-44,94,-44,215c0,0,0,119,39,215c0,0,40,97,119,148c0,0,79,52,177,52c0,0,71,0,127,-31c0,0,56,-30,91,-79v393H739V0H615V100c0,0,-75,-117,-222,-117Z" 
id="f1_20"
transform="scale(0.001,-0.001)" />

<path d="M123,0V1093H268V644H835v449H980V0H835V515H268V0Z" 
id="f1_18"
transform="scale(0.001,-0.001)" />

<path d="M46,0c0,0,-2,48,16,93c0,0,27,74,88,146c0,0,61,71,176,165c0,0,178,146,241,232c0,0,63,85,63,161c0,0,0,80,-57,135c0,0,-58,55,-149,55c0,0,-98,0,-156,-59c0,0,-58,-58,-59,-160L71,782c0,0,15,154,107,235c0,0,93,81,249,81c0,0,157,0,249,-87c0,0,92,-88,92,-217c0,0,0,-65,-27,-129c0,0,-27,-63,-89,-133c0,0,-62,-70,-207,-193C445,339,324,238,290,202c0,0,-35,-36,-57,-73H770V0Z" 
id="f1_m"
transform="scale(0.001,-0.001)" />

<path d="M535,-18c0,0,-149,0,-249,43c0,0,-100,43,-158,130c0,0,-57,87,-60,197l137,12c0,0,10,-83,45,-135c0,0,36,-53,110,-86c0,0,75,-32,168,-32c0,0,83,0,146,24c0,0,63,25,94,68c0,0,31,43,31,94c0,0,0,51,-30,90c0,0,-30,38,-98,64c0,0,-44,17,-195,54c0,0,-151,36,-211,68c0,0,-79,41,-117,102c0,0,-38,61,-38,136c0,0,0,83,47,155c0,0,47,72,137,109c0,0,90,38,200,38c0,0,122,0,215,-39c0,0,93,-40,143,-116c0,0,50,-76,54,-172L767,775c0,0,-11,104,-76,158c0,0,-64,53,-190,53c0,0,-132,0,-192,-49c0,0,-60,-48,-60,-116c0,0,0,-59,43,-97c0,0,42,-38,218,-78c0,0,176,-40,242,-70c0,0,96,-44,141,-111c0,0,46,-68,46,-156c0,0,0,-87,-50,-165C889,144,839,67,745,24c0,0,-93,-42,-210,-42Z" 
id="f1_1j"
transform="scale(0.001,-0.001)" />

<path d="M596,106c0,0,164,0,269,114c0,0,105,115,105,326c0,0,0,134,-45,233c0,0,-45,100,-132,155c0,0,-86,55,-194,55c0,0,-154,0,-264,-106C335,883,224,778,224,531c0,0,0,-198,106,-312c0,0,106,-113,266,-113Zm1,-124c0,0,-154,0,-276,74c0,0,-121,75,-184,204c0,0,-63,129,-63,273c0,0,0,272,146,426c0,0,147,154,378,154c0,0,151,0,273,-73c0,0,121,-72,185,-201c0,0,64,-130,64,-294c0,0,0,-166,-67,-297c0,0,-67,-132,-190,-199c0,0,-123,-67,-266,-67Z" 
id="f1_1f"
transform="scale(0.001,-0.001)" />

<path d="M494,385V878L152,385ZM494,0V262H20V385l498,708H628V385H775V262H628V0Z" 
id="f1_o"
transform="scale(0.001,-0.001)" />

<path d="M433,93c0,0,88,0,152,76c0,0,64,77,64,228c0,0,0,155,-61,228c0,0,-62,74,-149,74c0,0,-89,0,-153,-76c0,0,-64,-77,-64,-221c0,0,0,-142,39,-206c0,0,63,-103,172,-103ZM444,-17c0,0,-140,0,-220,117V0H100V1093H234V703c0,0,85,107,217,107c0,0,73,0,139,-30c0,0,65,-29,107,-83c0,0,42,-53,66,-128c0,0,24,-75,24,-161c0,0,0,-204,-101,-315C686,93,585,-17,444,-17Z" 
id="f1_1y"
transform="scale(0.001,-0.001)" />

<path d="M593,-14c0,0,-254,0,-392,143C201,129,63,272,63,531c0,0,0,258,133,397c0,0,134,139,387,139c0,0,185,0,302,-74c0,0,116,-75,163,-218L854,722c0,0,-24,79,-96,125c0,0,-72,47,-170,47c0,0,-149,0,-227,-93c0,0,-77,-92,-77,-270c0,0,0,-182,80,-277c0,0,79,-96,229,-96c0,0,199,0,277,200l192,-72c0,0,-62,-152,-182,-227c0,0,-120,-73,-287,-73Z" 
id="f2_13"
transform="scale(0.001,-0.001)" />

<path d="M461,129c0,0,193,0,193,276c0,0,0,144,-47,209c0,0,-47,65,-136,65c0,0,-191,0,-191,-274c0,0,0,-135,46,-205c0,0,47,-71,135,-71Zm2,-143c0,0,-188,0,-296,111C167,97,60,209,60,405c0,0,0,194,107,306c0,0,108,111,301,111c0,0,197,0,301,-107c0,0,105,-108,105,-310c0,0,0,-197,-109,-308C765,97,656,-14,463,-14Z" 
id="f2_2b"
transform="scale(0.001,-0.001)" />

<path d="M107,0V627c0,0,0,65,-2,106c0,0,-2,42,-4,75H301c0,0,2,-15,6,-77c0,0,3,-61,3,-85h3c0,0,39,93,97,135c0,0,58,41,138,41c0,0,185,0,225,-176h4c0,0,41,94,99,135c0,0,57,41,146,41c0,0,118,0,180,-80c0,0,62,-80,62,-230V0H1056V452c0,0,0,213,-123,213c0,0,-61,0,-100,-59c0,0,-39,-60,-43,-164V0H582V452c0,0,0,213,-122,213c0,0,-64,0,-104,-65c0,0,-40,-65,-40,-168V0Z" 
id="f2_29"
transform="scale(0.001,-0.001)" />

<path d="M484,129c0,0,168,0,168,279c0,0,0,271,-166,271c0,0,-84,0,-128,-73c0,0,-45,-73,-45,-204c0,0,0,-131,45,-202c0,0,44,-71,126,-71ZM107,-316V622c0,0,0,114,-6,186H304c0,0,4,-14,7,-54c0,0,2,-39,2,-78h3c0,0,71,148,258,148c0,0,141,0,219,-108c0,0,78,-109,78,-309c0,0,0,-202,-81,-312C790,95,709,-14,561,-14c0,0,-85,0,-148,36c0,0,-63,37,-97,107h-4c0,0,4,-23,4,-135V-316Z" 
id="f2_2c"
transform="scale(0.001,-0.001)" />

<path d="M107,0V1107H316V0Z" 
id="f2_28"
transform="scale(0.001,-0.001)" />

<path d="M595,495c0,0,-6,98,-47,147c0,0,-41,49,-111,49c0,0,-74,0,-114,-51c0,0,-40,-52,-42,-145ZM437,-14c0,0,-182,0,-280,107c0,0,-97,108,-97,315c0,0,0,199,99,307c0,0,99,107,281,107c0,0,174,0,266,-115c0,0,91,-115,91,-337v-6H280c0,0,0,-118,43,-179c0,0,44,-60,125,-60c0,0,111,0,140,97L786,205c0,0,-86,-219,-349,-219Z" 
id="f2_21"
transform="scale(0.001,-0.001)" />

<path d="M313,-13c0,0,-92,0,-142,50c0,0,-50,50,-50,152V666H19V808H131l66,189H328V808H481V666H328V245c0,0,0,-59,23,-87c0,0,22,-28,69,-28c0,0,25,0,70,10V11c0,0,-77,-24,-177,-24Z" 
id="f2_2g"
transform="scale(0.001,-0.001)" />

<path d="M630,0V452c0,0,0,213,-144,213c0,0,-76,0,-123,-65c0,0,-47,-66,-47,-168V0H107V1107H316V805c0,0,0,-81,-6,-159h3c0,0,43,93,107,135c0,0,64,41,153,41c0,0,128,0,197,-79c0,0,68,-79,68,-231V0Z" 
id="f2_24"
transform="scale(0.001,-0.001)" />

<path d="M144,0V666H26V808H144v84c0,0,0,109,58,162c0,0,58,53,177,53c0,0,59,0,133,-12V960c0,0,-31,7,-61,7c0,0,-54,0,-76,-21c0,0,-22,-21,-22,-75V808H512V666H353V0Z" 
id="f2_22"
transform="scale(0.001,-0.001)" />

<path d="M204,0L-3,808H192L325,190l11,55l18,88L481,808H706L830,333c0,0,10,-39,30,-142l21,98L997,808h194L979,0H758L630,493c0,0,-9,33,-35,165L556,491L426,0Z" 
id="f2_2j"
transform="scale(0.001,-0.001)" />

<path d="M107,0V808H316V0Zm0,952v155H316V952Z" 
id="f2_25"
transform="scale(0.001,-0.001)" />

<path d="M107,0V627c0,0,0,65,-2,106c0,0,-2,42,-4,75H301c0,0,2,-15,6,-77c0,0,3,-61,3,-85h3c0,0,43,93,107,135c0,0,64,41,153,41c0,0,128,0,197,-79c0,0,68,-79,68,-231V0H630V452c0,0,0,213,-144,213c0,0,-76,0,-123,-65c0,0,-47,-66,-47,-168V0Z" 
id="f2_2a"
transform="scale(0.001,-0.001)" />

<path d="M448,148c0,0,83,0,128,69c0,0,44,70,44,198c0,0,0,124,-44,194c0,0,-45,70,-127,70c0,0,-168,0,-168,-269c0,0,0,-262,167,-262Zm-3,-471c0,0,-148,0,-238,57c0,0,-90,56,-111,160l210,25c0,0,11,-48,48,-75c0,0,37,-28,97,-28c0,0,87,0,127,54c0,0,40,53,40,158V71l2,79h-2C618,150,549,2,359,2C359,2,218,2,140,108c0,0,-77,106,-77,302c0,0,0,198,79,305c0,0,80,107,232,107c0,0,177,0,244,-145h4c0,0,0,26,4,71c0,0,3,45,7,60H831c0,0,-4,-81,-4,-187V25c0,0,0,-172,-98,-260c0,0,-98,-88,-284,-88Z" 
id="f2_23"
transform="scale(0.001,-0.001)" />

<path d="M107,0V618c0,0,0,66,-2,111c0,0,-2,44,-4,79H301c0,0,2,-14,6,-83c0,0,3,-68,3,-91h3c0,0,31,85,55,120c0,0,24,35,56,52c0,0,33,16,83,16c0,0,40,0,64,-11V636c0,0,-50,11,-89,11c0,0,-78,0,-122,-63c0,0,-44,-63,-44,-188V0Z" 
id="f2_2e"
transform="scale(0.001,-0.001)" />

<path d="M360,132c0,0,50,0,90,27c0,0,41,27,64,74c0,0,23,47,23,100v41L430,373c0,0,-73,-3,-104,-16c0,0,-31,-13,-47,-40c0,0,-16,-27,-16,-72c0,0,0,-57,27,-85c0,0,26,-28,70,-28ZM293,-14c0,0,-117,0,-183,63c0,0,-65,64,-65,180c0,0,0,125,81,191c0,0,82,65,237,67l174,3v41c0,0,0,79,-27,117c0,0,-28,38,-91,38c0,0,-58,0,-85,-26c0,0,-27,-27,-34,-88L81,583c0,0,20,118,108,179c0,0,88,60,239,60c0,0,153,0,236,-75c0,0,83,-75,83,-214V239c0,0,0,-67,15,-93c0,0,15,-26,51,-26c0,0,24,0,46,5V11c0,0,-18,-5,-33,-8c0,0,-15,-3,-30,-5c0,0,-15,-3,-32,-4c0,0,-17,-2,-39,-2c0,0,-79,0,-117,38c0,0,-37,39,-45,114h-4c0,0,-88,-158,-266,-158Z" 
id="f2_1x"
transform="scale(0.001,-0.001)" />

<path d="M443,-14c0,0,-183,0,-283,109C160,95,60,204,60,399c0,0,0,200,100,312c0,0,101,111,286,111c0,0,143,0,236,-71c0,0,93,-72,117,-198L588,543c0,0,-9,62,-45,99c0,0,-36,37,-101,37c0,0,-162,0,-162,-271c0,0,0,-279,165,-279c0,0,59,0,100,38c0,0,40,37,50,112L805,269c0,0,-11,-83,-59,-148C746,121,697,56,619,21c0,0,-78,-35,-176,-35Z" 
id="f2_1z"
transform="scale(0.001,-0.001)" />

<path d="M426,-14c0,0,-166,0,-255,52C171,38,83,90,54,201l184,28c0,0,16,-57,54,-81c0,0,38,-24,134,-24c0,0,88,0,128,22c0,0,41,23,41,70c0,0,0,39,-33,62c0,0,-32,23,-110,38c0,0,-177,35,-239,65c0,0,-62,31,-95,79c0,0,-32,48,-32,118c0,0,0,115,89,180c0,0,89,64,252,64c0,0,144,0,232,-56c0,0,88,-56,109,-162L583,585c0,0,-9,49,-44,74c0,0,-35,24,-112,24c0,0,-74,0,-111,-19c0,0,-38,-19,-38,-64c0,0,0,-35,29,-55c0,0,29,-21,97,-34c0,0,94,-20,168,-40c0,0,73,-21,118,-49c0,0,44,-28,71,-73c0,0,26,-44,26,-113c0,0,0,-117,-96,-184c0,0,-96,-66,-265,-66Z" 
id="f2_2f"
transform="scale(0.001,-0.001)" />

<path d="M147,0V209H362V0Zm0,562V771H362V562Z" 
id="f2_u"
transform="scale(0.001,-0.001)" />

<path d="M423,92c0,0,97,0,159,62c0,0,62,62,62,157c0,0,0,97,-64,160c0,0,-64,64,-161,64c0,0,-96,0,-158,-63c0,0,-62,-62,-62,-156c0,0,0,-58,27,-111c0,0,27,-54,81,-84c0,0,54,-29,116,-29Zm0,552c0,0,78,0,127,49c0,0,49,49,49,120c0,0,0,74,-50,124c0,0,-51,51,-128,51c0,0,-77,0,-127,-50c0,0,-51,-49,-51,-118c0,0,0,-77,50,-126c0,0,50,-50,130,-50ZM422,-18c0,0,-162,0,-261,95c0,0,-99,96,-99,239c0,0,0,107,54,179c0,0,54,72,154,98c0,0,-84,31,-124,87c0,0,-40,57,-40,136c0,0,0,119,85,201c0,0,86,81,229,81c0,0,143,0,230,-83c0,0,87,-83,87,-203c0,0,0,-76,-40,-132c0,0,-39,-56,-121,-87c0,0,101,-33,154,-106c0,0,52,-73,52,-174c0,0,0,-141,-99,-236c0,0,-99,-95,-261,-95Z" 
id="f1_s"
transform="scale(0.001,-0.001)" />

<path d="M116,0V1093H265L839,235v858H978V0H830L255,858V0Z" 
id="f1_1e"
transform="scale(0.001,-0.001)" />

<path d="M590,-18c0,0,-177,0,-287,71c0,0,-111,72,-169,209c0,0,-58,137,-58,293c0,0,0,171,66,298c0,0,65,128,185,194c0,0,121,66,265,66c0,0,164,0,276,-84c0,0,112,-84,156,-235L881,760c0,0,-38,120,-110,174c0,0,-72,55,-182,55c0,0,-126,0,-210,-61c0,0,-85,-60,-119,-162c0,0,-34,-102,-34,-210c0,0,0,-139,40,-243c0,0,41,-104,127,-156c0,0,85,-51,185,-51c0,0,122,0,206,70c0,0,84,70,114,208l145,-37c0,0,-46,-178,-164,-272c0,0,-118,-93,-289,-93Z" 
id="f1_13"
transform="scale(0.001,-0.001)" />

<path d="M961,74c0,0,46,97,89,147H312v65h738c0,0,-43,50,-89,146h54c0,0,94,-111,201,-165V240c0,0,-107,-55,-201,-166Z" 
id="f3_1mh"
transform="scale(0.001,-0.001)" />

<path d="M382,177V477H85V602H382V900H509V602H807V477H509V177Z" 
id="f1_f"
transform="scale(0.001,-0.001)" />

<path d="M420,489c0,0,93,0,153,65c0,0,60,65,60,181c0,0,0,116,-62,184c0,0,-61,68,-148,68c0,0,-90,0,-156,-74c0,0,-66,-73,-66,-189c0,0,0,-105,63,-170c0,0,63,-65,156,-65ZM391,-18c0,0,-128,0,-209,71c0,0,-82,71,-98,200l129,12c0,0,17,-91,63,-132c0,0,46,-41,118,-41c0,0,62,0,109,28c0,0,47,29,76,76c0,0,30,47,50,128c0,0,20,80,20,164c0,0,0,9,-1,27c0,0,-40,-65,-110,-105c0,0,-69,-39,-151,-39c0,0,-135,0,-229,98c0,0,-94,99,-94,260c0,0,0,166,98,268c0,0,98,101,245,101c0,0,107,0,195,-57c0,0,89,-58,134,-164c0,0,46,-106,46,-308c0,0,0,-209,-45,-334C737,235,691,111,602,46c0,0,-90,-64,-211,-64Z" 
id="f1_t"
transform="scale(0.001,-0.001)" />

<path d="M125,0V1093H863V964H270V626H783V497H270V0Z" 
id="f1_16"
transform="scale(0.001,-0.001)" />

<path d="M412,-18c0,0,-144,0,-239,85c0,0,-95,86,-108,222l133,18c0,0,24,-114,79,-164c0,0,55,-50,135,-50c0,0,96,0,161,65c0,0,65,66,65,163c0,0,0,92,-61,152c0,0,-60,60,-153,60c0,0,-38,0,-95,-15l15,119c0,0,13,-2,21,-2c0,0,86,0,155,45c0,0,69,44,69,137c0,0,0,74,-50,122c0,0,-50,49,-129,49c0,0,-79,0,-131,-50c0,0,-52,-49,-67,-147L78,815c0,0,25,135,112,209c0,0,87,74,217,74c0,0,89,0,164,-38c0,0,76,-39,116,-105c0,0,40,-66,40,-141c0,0,0,-70,-39,-129c0,0,-38,-58,-112,-92c0,0,97,-22,151,-93c0,0,53,-70,53,-176c0,0,0,-143,-104,-243c0,0,-105,-99,-264,-99Z" 
id="f1_n"
transform="scale(0.001,-0.001)" />

<path d="M435,0V856c0,0,-48,-47,-127,-93c0,0,-79,-46,-142,-69V824c0,0,113,52,197,128c0,0,85,75,120,146h86V0Z" 
id="f1_l"
transform="scale(0.001,-0.001)" />

<path d="M420,92c0,0,92,0,155,89c0,0,64,89,64,358c0,0,0,270,-63,359c0,0,-63,89,-158,89c0,0,-92,0,-147,-79c0,0,-70,-100,-70,-369c0,0,0,-269,63,-358c0,0,63,-89,156,-89Zm0,-110c0,0,-158,0,-248,112C172,94,64,231,64,539c0,0,0,194,39,313c0,0,40,118,119,182c0,0,79,64,198,64c0,0,88,0,155,-35c0,0,66,-36,109,-103c0,0,43,-66,68,-162c0,0,24,-96,24,-259c0,0,0,-192,-39,-311C737,228,697,110,619,46c0,0,-79,-64,-199,-64Z" 
id="f1_k"
transform="scale(0.001,-0.001)" />

<path d="M545,573c0,0,140,0,199,52c0,0,59,52,59,147c0,0,0,69,-35,118c0,0,-34,49,-91,64c0,0,-36,10,-135,10H263V573ZM118,0V1093H531c0,0,108,0,166,-10c0,0,80,-14,135,-51c0,0,54,-38,87,-106c0,0,34,-68,34,-149c0,0,0,-140,-89,-236c0,0,-89,-97,-321,-97H263V0Z" 
id="f1_1g"
transform="scale(0.001,-0.001)" />

<path d="M143,0V1093H287V0Z" 
id="f1_19"
transform="scale(0.001,-0.001)" />

<path d="M529,129c0,0,70,0,99,5c0,0,50,9,83,30c0,0,34,21,56,61c0,0,21,40,21,92c0,0,0,61,-31,106c0,0,-32,45,-87,63c0,0,-56,19,-161,19H256V129ZM493,634c0,0,96,0,138,12c0,0,55,17,83,55c0,0,28,38,28,95c0,0,0,55,-26,96c0,0,-26,42,-74,57c0,0,-49,15,-167,15H256V634ZM111,0V1093H522c0,0,126,0,201,-33c0,0,76,-33,119,-102c0,0,43,-69,43,-144c0,0,0,-70,-38,-132c0,0,-38,-62,-115,-100c0,0,99,-29,153,-99c0,0,53,-71,53,-166c0,0,0,-77,-33,-143c0,0,-32,-66,-80,-102C825,72,777,37,705,18C705,18,633,0,529,0Z" 
id="f1_12"
transform="scale(0.001,-0.001)" />

<path d="M111,0V1093H256V552l543,541H995L537,650L1016,0H825L436,552L256,378V0Z" 
id="f1_1b"
transform="scale(0.001,-0.001)" />

<path d="M494,385V878L152,385ZM494,0V262H20V385l498,708H628V385H775V262H628V0Z" 
id="f4_p"
transform="scale(0.001,-0.001)" />

<path d="M125,0V1051H268V115H799V0Z" 
id="f0_1c"
transform="scale(0.001,-0.001)" />

<path d="M106,0V620c0,0,0,85,-5,188H228c0,0,6,-138,6,-165h3c0,0,32,103,74,141c0,0,42,38,118,38c0,0,27,0,54,-7V692c0,0,-26,7,-71,7c0,0,-84,0,-128,-72c0,0,-44,-72,-44,-206V0Z" 
id="f0_2e"
transform="scale(0.001,-0.001)" />

<path d="M606,-14c0,0,-164,0,-284,65c0,0,-119,66,-182,189c0,0,-63,123,-63,291c0,0,0,255,137,396c0,0,137,140,386,140c0,0,174,0,283,-59c0,0,109,-59,168,-189L915,779c0,0,-44,90,-123,131c0,0,-79,41,-196,41c0,0,-182,0,-278,-110c0,0,-96,-110,-96,-310c0,0,0,-200,102,-315c0,0,102,-115,282,-115c0,0,103,0,193,31c0,0,89,31,144,85V407H629V526h445V164c0,0,-83,-85,-205,-132c0,0,-121,-46,-263,-46Z" 
id="f0_17"
transform="scale(0.001,-0.001)" />

<path d="M355,-14c0,0,-133,0,-194,65c0,0,-62,66,-62,219V808H234V296c0,0,0,-80,16,-124c0,0,16,-44,50,-64c0,0,34,-19,101,-19c0,0,97,0,153,66c0,0,55,67,55,185V808H744V172c0,0,0,-141,4,-172H621c0,0,0,4,-1,20c0,0,-1,17,-2,38c0,0,-1,21,-3,80h-2C613,138,567,55,506,20c0,0,-61,-34,-151,-34Z" 
id="f0_2h"
transform="scale(0.001,-0.001)" />

<path d="M395,89c0,0,115,0,166,79c0,0,51,79,51,246c0,0,0,160,-51,235c0,0,-51,75,-164,75c0,0,-102,0,-147,-75c0,0,-45,-75,-45,-244c0,0,0,-170,45,-243c0,0,45,-73,145,-73ZM361,-14c0,0,-153,0,-225,102c0,0,-72,103,-72,312c0,0,0,422,297,422c0,0,92,0,153,-33c0,0,61,-34,98,-107h2l-2,90v335H747V166c0,0,0,-126,4,-166H623c0,0,-2,12,-5,55c0,0,-3,44,-3,75h-3c0,0,-37,-78,-98,-111c0,0,-62,-33,-153,-33Z" 
id="f0_20"
transform="scale(0.001,-0.001)" />

<path d="M140,0V163H285V0Z" 
id="f0_i"
transform="scale(0.001,-0.001)" />


</defs>
</svg>