<?xml version="1.0" encoding="UTF-8" standalone="no"?>
<!DOCTYPE svg PUBLIC "-//W3C//DTD SVG 1.1//EN"
"http://www.w3.org/Graphics/SVG/1.1/DTD/svg11.dtd">
<svg viewBox="0 0 730 1112" version="1.1" xmlns="http://www.w3.org/2000/svg" xmlns:xlink="http://www.w3.org/1999/xlink">
<defs>
<clipPath id="c0_55"><path d="M547.2,214.8V202.1h6.2v12.7Z" /></clipPath>
<clipPath id="c1_55"><path d="M594.7,214.8V202.1h12.4v12.7Z" /></clipPath>
<clipPath id="c2_55"><path d="M94.3,241.7V223.9H245.8v17.8Z" /></clipPath>
<clipPath id="c3_55"><path d="M245.8,235.3V222.7h12.4v12.6Z" /></clipPath>
<clipPath id="c4_55"><path d="M362.6,255.8V243.2H375v12.6Z" /></clipPath>
<clipPath id="c5_55"><path d="M521.7,255.8V243.2h6.2v12.6Z" /></clipPath>
</defs>
<g fill="#D4D4D4" fill-opacity="0.36" >
<use xlink:href="#f0_1f" transform="matrix(50.9,-50.9,50.9,50.9,118.4,814.1)" />
<use xlink:href="#f0_2a" transform="matrix(50.9,-50.9,50.9,50.9,178.9,753.6)" />
<use xlink:href="#f0_28" transform="matrix(50.9,-50.9,50.9,50.9,222.2,710.3)" />
<use xlink:href="#f0_25" transform="matrix(50.9,-50.9,50.9,50.9,239.4,693.1)" />
<use xlink:href="#f0_2a" transform="matrix(50.9,-50.9,50.9,50.9,256.7,675.8)" />
<use xlink:href="#f0_21" transform="matrix(50.9,-50.9,50.9,50.9,299.9,632.5)" />
<use xlink:href="#f0_2k" transform="matrix(50.9,-50.9,50.9,50.9,343.2,589.3)" />
<use xlink:href="#f0_1x" transform="matrix(50.9,-50.9,50.9,50.9,382.1,550.4)" />
<use xlink:href="#f0_29" transform="matrix(50.9,-50.9,50.9,50.9,425.3,507.2)" />
<use xlink:href="#f0_2c" transform="matrix(50.9,-50.9,50.9,50.9,490.1,442.4)" />
<use xlink:href="#f0_2b" transform="matrix(50.9,-50.9,50.9,50.9,533.4,399.1)" />
<use xlink:href="#f0_25" transform="matrix(50.9,-50.9,50.9,50.9,576.6,355.9)" />
<use xlink:href="#f0_2a" transform="matrix(50.9,-50.9,50.9,50.9,593.9,338.6)" />
<use xlink:href="#f0_2g" transform="matrix(50.9,-50.9,50.9,50.9,637.1,295.4)" />
</g>
<g fill="#000000" >
<use xlink:href="#f1_t" transform="matrix(10.4,0,0,10.4,51.1,64.1)" />
<use xlink:href="#f1_i" transform="matrix(10.4,0,0,10.4,60.4,64.1)" />
<use xlink:href="#f1_17" transform="matrix(10.4,0,0,10.4,94.3,64.1)" />
<use xlink:href="#f1_25" transform="matrix(10.4,0,0,10.4,106.8,64.1)" />
<use xlink:href="#f1_2i" transform="matrix(10.4,0,0,10.4,110.3,64.1)" />
<use xlink:href="#f1_21" transform="matrix(10.4,0,0,10.4,118.2,64.1)" />
<use xlink:href="#f1_2e" transform="matrix(10.4,0,0,10.4,134.7,64.1)" />
<use xlink:href="#f1_21" transform="matrix(10.4,0,0,10.4,140,64.1)" />
<use xlink:href="#f1_1x" transform="matrix(10.4,0,0,10.4,148.8,64.1)" />
<use xlink:href="#f1_2f" transform="matrix(10.4,0,0,10.4,157.6,64.1)" />
<use xlink:href="#f1_2b" transform="matrix(10.4,0,0,10.4,165.7,64.1)" />
<use xlink:href="#f1_2a" transform="matrix(10.4,0,0,10.4,174.5,64.1)" />
<use xlink:href="#f1_22" transform="matrix(10.4,0,0,10.4,191.1,64.1)" />
<use xlink:href="#f1_2b" transform="matrix(10.4,0,0,10.4,195.7,64.1)" />
<use xlink:href="#f1_2e" transform="matrix(10.4,0,0,10.4,204.5,64.1)" />
<use xlink:href="#f1_21" transform="matrix(10.4,0,0,10.4,217.5,64.1)" />
<use xlink:href="#f1_1x" transform="matrix(10.4,0,0,10.4,226.3,64.1)" />
<use xlink:href="#f1_1z" transform="matrix(10.4,0,0,10.4,235.1,64.1)" />
<use xlink:href="#f1_24" transform="matrix(10.4,0,0,10.4,243.2,64.1)" />
<use xlink:href="#f1_2b" transform="matrix(10.4,0,0,10.4,259.7,64.1)" />
<use xlink:href="#f1_22" transform="matrix(10.4,0,0,10.4,268.5,64.1)" />
<use xlink:href="#f1_2g" transform="matrix(10.4,0,0,10.4,280.8,64.1)" />
<use xlink:href="#f1_24" transform="matrix(10.4,0,0,10.4,285.2,64.1)" />
<use xlink:href="#f1_21" transform="matrix(10.4,0,0,10.4,294,64.1)" />
<use xlink:href="#f1_22" transform="matrix(10.4,0,0,10.4,310.7,64.1)" />
<use xlink:href="#f1_2b" transform="matrix(10.4,0,0,10.4,315.2,64.1)" />
<use xlink:href="#f1_28" transform="matrix(10.4,0,0,10.4,324,64.1)" />
<use xlink:href="#f1_28" transform="matrix(10.4,0,0,10.4,327.5,64.1)" />
<use xlink:href="#f1_2b" transform="matrix(10.4,0,0,10.4,331,64.1)" />
<use xlink:href="#f1_2j" transform="matrix(10.4,0,0,10.4,339.8,64.1)" />
<use xlink:href="#f1_25" transform="matrix(10.4,0,0,10.4,351,64.1)" />
<use xlink:href="#f1_2a" transform="matrix(10.4,0,0,10.4,354.5,64.1)" />
<use xlink:href="#f1_23" transform="matrix(10.4,0,0,10.4,363.3,64.1)" />
<use xlink:href="#f1_u" transform="matrix(10.4,0,0,10.4,379.8,64.1)" />
<use xlink:href="#f1_c" transform="matrix(10.4,0,0,10.4,94.3,88.8)" />
<use xlink:href="#f1_1x" transform="matrix(10.4,0,0,10.4,100.2,88.8)" />
<use xlink:href="#f1_d" transform="matrix(10.4,0,0,10.4,109.7,88.8)" />
<use xlink:href="#f1_1e" transform="matrix(10.4,0,0,10.4,137.6,88.8)" />
<use xlink:href="#f1_18" transform="matrix(10.4,0,0,10.4,149.2,88.8)" />
<use xlink:href="#f1_n" transform="matrix(7.4,0,0,7.4,160.7,94.1)" />
<use xlink:href="#f1_25" transform="matrix(10.4,0,0,10.4,173.7,88.8)" />
<use xlink:href="#f1_2f" transform="matrix(10.4,0,0,10.4,177.2,88.8)" />
<use xlink:href="#f1_29" transform="matrix(10.4,0,0,10.4,192.1,88.8)" />
<use xlink:href="#f1_2b" transform="matrix(10.4,0,0,10.4,205.6,88.8)" />
<use xlink:href="#f1_2e" transform="matrix(10.4,0,0,10.4,214.4,88.8)" />
<use xlink:href="#f1_21" transform="matrix(10.4,0,0,10.4,219.7,88.8)" />
<use xlink:href="#f1_1y" transform="matrix(10.4,0,0,10.4,235.1,88.8)" />
<use xlink:href="#f1_1x" transform="matrix(10.4,0,0,10.4,243.9,88.8)" />
<use xlink:href="#f1_2f" transform="matrix(10.4,0,0,10.4,252.7,88.8)" />
<use xlink:href="#f1_25" transform="matrix(10.4,0,0,10.4,260.8,88.8)" />
<use xlink:href="#f1_1z" transform="matrix(10.4,0,0,10.4,264.3,88.8)" />
<use xlink:href="#f1_2g" transform="matrix(10.4,0,0,10.4,279.1,88.8)" />
<use xlink:href="#f1_24" transform="matrix(10.4,0,0,10.4,283.5,88.8)" />
<use xlink:href="#f1_1x" transform="matrix(10.4,0,0,10.4,292.3,88.8)" />
<use xlink:href="#f1_2a" transform="matrix(10.4,0,0,10.4,301.1,88.8)" />
<use xlink:href="#f1_1g" transform="matrix(10.4,0,0,10.4,316.7,88.8)" />
<use xlink:href="#f1_18" transform="matrix(10.4,0,0,10.4,327.4,88.8)" />
<use xlink:href="#f1_n" transform="matrix(7.4,0,0,7.4,338.9,94.1)" />
<use xlink:href="#f1_i" transform="matrix(10.4,0,0,10.4,345.1,88.8)" />
<use xlink:href="#f1_c" transform="matrix(10.4,0,0,10.4,94.3,113.7)" />
<use xlink:href="#f1_1y" transform="matrix(10.4,0,0,10.4,100.2,113.7)" />
<use xlink:href="#f1_d" transform="matrix(10.4,0,0,10.4,109.7,113.7)" />
<use xlink:href="#f1_11" transform="matrix(10.4,0,0,10.4,137.6,113.7)" />
<use xlink:href="#f1_29" transform="matrix(10.4,0,0,10.4,148.3,113.7)" />
<use xlink:href="#f1_29" transform="matrix(10.4,0,0,10.4,161.8,113.7)" />
<use xlink:href="#f1_2b" transform="matrix(10.4,0,0,10.4,175.4,113.7)" />
<use xlink:href="#f1_2a" transform="matrix(10.4,0,0,10.4,184.2,113.7)" />
<use xlink:href="#f1_25" transform="matrix(10.4,0,0,10.4,193,113.7)" />
<use xlink:href="#f1_1x" transform="matrix(10.4,0,0,10.4,196.5,113.7)" />
<use xlink:href="#f1_25" transform="matrix(10.4,0,0,10.4,212.6,113.7)" />
<use xlink:href="#f1_2f" transform="matrix(10.4,0,0,10.4,216.1,113.7)" />
<use xlink:href="#f1_1x" transform="matrix(10.4,0,0,10.4,231.5,113.7)" />
<use xlink:href="#f1_23" transform="matrix(10.4,0,0,10.4,247.4,113.7)" />
<use xlink:href="#f1_2b" transform="matrix(10.4,0,0,10.4,256.2,113.7)" />
<use xlink:href="#f1_2b" transform="matrix(10.4,0,0,10.4,265,113.7)" />
<use xlink:href="#f1_20" transform="matrix(10.4,0,0,10.4,273.8,113.7)" />
<use xlink:href="#f1_1z" transform="matrix(10.4,0,0,10.4,289.9,113.7)" />
<use xlink:href="#f1_2b" transform="matrix(10.4,0,0,10.4,298,113.7)" />
<use xlink:href="#f1_29" transform="matrix(10.4,0,0,10.4,306.8,113.7)" />
<use xlink:href="#f1_2c" transform="matrix(10.4,0,0,10.4,320.4,113.7)" />
<use xlink:href="#f1_28" transform="matrix(10.4,0,0,10.4,329.2,113.7)" />
<use xlink:href="#f1_21" transform="matrix(10.4,0,0,10.4,332.7,113.7)" />
<use xlink:href="#f1_2k" transform="matrix(10.4,0,0,10.4,341.5,113.7)" />
<use xlink:href="#f1_25" transform="matrix(10.4,0,0,10.4,349.3,113.7)" />
<use xlink:href="#f1_2a" transform="matrix(10.4,0,0,10.4,352.8,113.7)" />
<use xlink:href="#f1_23" transform="matrix(10.4,0,0,10.4,361.6,113.7)" />
<use xlink:href="#f1_1x" transform="matrix(10.4,0,0,10.4,377.7,113.7)" />
<use xlink:href="#f1_23" transform="matrix(10.4,0,0,10.4,386.5,113.7)" />
<use xlink:href="#f1_21" transform="matrix(10.4,0,0,10.4,395.3,113.7)" />
<use xlink:href="#f1_2a" transform="matrix(10.4,0,0,10.4,404.1,113.7)" />
<use xlink:href="#f1_2g" transform="matrix(10.4,0,0,10.4,412.9,113.7)" />
<use xlink:href="#f1_i" transform="matrix(10.4,0,0,10.4,417.3,113.7)" />
<use xlink:href="#f1_c" transform="matrix(10.4,0,0,10.4,94.3,138.5)" />
<use xlink:href="#f1_1z" transform="matrix(10.4,0,0,10.4,100,138.5)" />
<use xlink:href="#f1_d" transform="matrix(10.4,0,0,10.4,108.5,138.5)" />
<use xlink:href="#f1_12" transform="matrix(10.4,0,0,10.4,137.6,138.5)" />
<use xlink:href="#f1_28" transform="matrix(10.4,0,0,10.4,148.3,138.5)" />
<use xlink:href="#f1_21" transform="matrix(10.4,0,0,10.4,151.7,138.5)" />
<use xlink:href="#f1_1x" transform="matrix(10.4,0,0,10.4,160.5,138.5)" />
<use xlink:href="#f1_1z" transform="matrix(10.4,0,0,10.4,169.3,138.5)" />
<use xlink:href="#f1_24" transform="matrix(10.4,0,0,10.4,177.4,138.5)" />
<use xlink:href="#f1_25" transform="matrix(10.4,0,0,10.4,186.2,138.5)" />
<use xlink:href="#f1_2a" transform="matrix(10.4,0,0,10.4,189.7,138.5)" />
<use xlink:href="#f1_23" transform="matrix(10.4,0,0,10.4,198.5,138.5)" />
<use xlink:href="#f1_1y" transform="matrix(10.4,0,0,10.4,215.3,138.5)" />
<use xlink:href="#f1_2l" transform="matrix(10.4,0,0,10.4,224.1,138.5)" />
<use xlink:href="#f1_1j" transform="matrix(10.4,0,0,10.4,239.7,138.5)" />
<use xlink:href="#f1_1f" transform="matrix(10.4,0,0,10.4,250.4,138.5)" />
<use xlink:href="#f1_m" transform="matrix(7.4,0,0,7.4,262.8,143.8)" />
<use xlink:href="#f1_25" transform="matrix(10.4,0,0,10.4,277.1,138.5)" />
<use xlink:href="#f1_2f" transform="matrix(10.4,0,0,10.4,280.6,138.5)" />
<use xlink:href="#f1_2g" transform="matrix(10.4,0,0,10.4,296.7,138.5)" />
<use xlink:href="#f1_21" transform="matrix(10.4,0,0,10.4,301.1,138.5)" />
<use xlink:href="#f1_29" transform="matrix(10.4,0,0,10.4,309.9,138.5)" />
<use xlink:href="#f1_2c" transform="matrix(10.4,0,0,10.4,323.5,138.5)" />
<use xlink:href="#f1_2b" transform="matrix(10.4,0,0,10.4,332.3,138.5)" />
<use xlink:href="#f1_2e" transform="matrix(10.4,0,0,10.4,341.1,138.5)" />
<use xlink:href="#f1_1x" transform="matrix(10.4,0,0,10.4,346.4,138.5)" />
<use xlink:href="#f1_2e" transform="matrix(10.4,0,0,10.4,355.2,138.5)" />
<use xlink:href="#f1_2l" transform="matrix(10.4,0,0,10.4,360.5,138.5)" />
<use xlink:href="#f1_i" transform="matrix(10.4,0,0,10.4,367,138.5)" />
<use xlink:href="#f1_c" transform="matrix(10.4,0,0,10.4,94.3,163.4)" />
<use xlink:href="#f1_20" transform="matrix(10.4,0,0,10.4,100.2,163.4)" />
<use xlink:href="#f1_d" transform="matrix(10.4,0,0,10.4,109.7,163.4)" />
<use xlink:href="#f1_1g" transform="matrix(10.4,0,0,10.4,137.6,163.4)" />
<use xlink:href="#f1_13" transform="matrix(10.4,0,0,10.4,148.3,163.4)" />
<use xlink:href="#f1_28" transform="matrix(10.4,0,0,10.4,159.8,163.4)" />
<use xlink:href="#f1_p" transform="matrix(7.4,0,0,7.4,163.3,168.7)" />
<use xlink:href="#f1_25" transform="matrix(10.4,0,0,10.4,177,163.4)" />
<use xlink:href="#f1_2f" transform="matrix(10.4,0,0,10.4,180.5,163.4)" />
<use xlink:href="#f1_25" transform="matrix(10.4,0,0,10.4,195.9,163.4)" />
<use xlink:href="#f1_2b" transform="matrix(10.4,0,0,10.4,199.4,163.4)" />
<use xlink:href="#f1_2a" transform="matrix(10.4,0,0,10.4,208.2,163.4)" />
<use xlink:href="#f1_25" transform="matrix(10.4,0,0,10.4,217,163.4)" />
<use xlink:href="#f1_1z" transform="matrix(10.4,0,0,10.4,220.5,163.4)" />
<use xlink:href="#f1_25" transform="matrix(10.4,0,0,10.4,236.1,163.4)" />
<use xlink:href="#f1_2a" transform="matrix(10.4,0,0,10.4,239.5,163.4)" />
<use xlink:href="#f1_2f" transform="matrix(10.4,0,0,10.4,255.7,163.4)" />
<use xlink:href="#f1_2b" transform="matrix(10.4,0,0,10.4,263.7,163.4)" />
<use xlink:href="#f1_28" transform="matrix(10.4,0,0,10.4,272.5,163.4)" />
<use xlink:href="#f1_25" transform="matrix(10.4,0,0,10.4,276,163.4)" />
<use xlink:href="#f1_20" transform="matrix(10.4,0,0,10.4,279.5,163.4)" />
<use xlink:href="#f1_2f" transform="matrix(10.4,0,0,10.4,295.8,163.4)" />
<use xlink:href="#f1_2g" transform="matrix(10.4,0,0,10.4,303.9,163.4)" />
<use xlink:href="#f1_1x" transform="matrix(10.4,0,0,10.4,308.3,163.4)" />
<use xlink:href="#f1_2g" transform="matrix(10.4,0,0,10.4,317.1,163.4)" />
<use xlink:href="#f1_21" transform="matrix(10.4,0,0,10.4,321.5,163.4)" />
<use xlink:href="#f1_i" transform="matrix(10.4,0,0,10.4,330.3,163.4)" />
<use xlink:href="#f1_c" transform="matrix(10.4,0,0,10.4,94.3,188.2)" />
<use xlink:href="#f1_21" transform="matrix(10.4,0,0,10.4,100.2,188.2)" />
<use xlink:href="#f1_d" transform="matrix(10.4,0,0,10.4,109.7,188.2)" />
<use xlink:href="#f1_1j" transform="matrix(10.4,0,0,10.4,137.6,188.2)" />
<use xlink:href="#f1_2h" transform="matrix(10.4,0,0,10.4,148.3,188.2)" />
<use xlink:href="#f1_28" transform="matrix(10.4,0,0,10.4,157,188.2)" />
<use xlink:href="#f1_2c" transform="matrix(10.4,0,0,10.4,160.5,188.2)" />
<use xlink:href="#f1_24" transform="matrix(10.4,0,0,10.4,169.3,188.2)" />
<use xlink:href="#f1_2h" transform="matrix(10.4,0,0,10.4,178.1,188.2)" />
<use xlink:href="#f1_2e" transform="matrix(10.4,0,0,10.4,186.9,188.2)" />
<use xlink:href="#f1_25" transform="matrix(10.4,0,0,10.4,200.3,188.2)" />
<use xlink:href="#f1_2a" transform="matrix(10.4,0,0,10.4,203.8,188.2)" />
<use xlink:href="#f1_2i" transform="matrix(10.4,0,0,10.4,220.8,188.2)" />
<use xlink:href="#f1_1x" transform="matrix(10.4,0,0,10.4,228.7,188.2)" />
<use xlink:href="#f1_2c" transform="matrix(10.4,0,0,10.4,237.5,188.2)" />
<use xlink:href="#f1_2b" transform="matrix(10.4,0,0,10.4,246.3,188.2)" />
<use xlink:href="#f1_2h" transform="matrix(10.4,0,0,10.4,255.1,188.2)" />
<use xlink:href="#f1_2e" transform="matrix(10.4,0,0,10.4,263.9,188.2)" />
<use xlink:href="#f1_2f" transform="matrix(10.4,0,0,10.4,277.3,188.2)" />
<use xlink:href="#f1_2g" transform="matrix(10.4,0,0,10.4,285.4,188.2)" />
<use xlink:href="#f1_1x" transform="matrix(10.4,0,0,10.4,289.8,188.2)" />
<use xlink:href="#f1_2g" transform="matrix(10.4,0,0,10.4,298.6,188.2)" />
<use xlink:href="#f1_21" transform="matrix(10.4,0,0,10.4,303,188.2)" />
<use xlink:href="#f1_21" transform="matrix(10.4,0,0,10.4,320,188.2)" />
<use xlink:href="#f1_2k" transform="matrix(10.4,0,0,10.4,328.8,188.2)" />
<use xlink:href="#f1_24" transform="matrix(10.4,0,0,10.4,336.7,188.2)" />
<use xlink:href="#f1_25" transform="matrix(10.4,0,0,10.4,345.5,188.2)" />
<use xlink:href="#f1_1y" transform="matrix(10.4,0,0,10.4,349,188.2)" />
<use xlink:href="#f1_25" transform="matrix(10.4,0,0,10.4,357.8,188.2)" />
<use xlink:href="#f1_2g" transform="matrix(10.4,0,0,10.4,361.3,188.2)" />
<use xlink:href="#f1_2f" transform="matrix(10.4,0,0,10.4,365.7,188.2)" />
<use xlink:href="#f1_2c" transform="matrix(10.4,0,0,10.4,381.8,188.2)" />
<use xlink:href="#f1_1x" transform="matrix(10.4,0,0,10.4,390.6,188.2)" />
<use xlink:href="#f1_2e" transform="matrix(10.4,0,0,10.4,399.4,188.2)" />
<use xlink:href="#f1_1x" transform="matrix(10.4,0,0,10.4,404.7,188.2)" />
<use xlink:href="#f1_29" transform="matrix(10.4,0,0,10.4,413.5,188.2)" />
<use xlink:href="#f1_1x" transform="matrix(10.4,0,0,10.4,427.1,188.2)" />
<use xlink:href="#f1_23" transform="matrix(10.4,0,0,10.4,435.9,188.2)" />
<use xlink:href="#f1_2a" transform="matrix(10.4,0,0,10.4,444.7,188.2)" />
<use xlink:href="#f1_21" transform="matrix(10.4,0,0,10.4,453.5,188.2)" />
<use xlink:href="#f1_2g" transform="matrix(10.4,0,0,10.4,462.3,188.2)" />
<use xlink:href="#f1_25" transform="matrix(10.4,0,0,10.4,466.7,188.2)" />
<use xlink:href="#f1_2f" transform="matrix(10.4,0,0,10.4,470.2,188.2)" />
<use xlink:href="#f1_29" transform="matrix(10.4,0,0,10.4,478.2,188.2)" />
<use xlink:href="#f1_i" transform="matrix(10.4,0,0,10.4,491.8,188.2)" />
<use xlink:href="#f1_l" transform="matrix(10.4,0,0,10.4,51.1,217.7)" />
<use xlink:href="#f1_k" transform="matrix(10.4,0,0,10.4,60.2,217.7)" />
<use xlink:href="#f1_i" transform="matrix(10.4,0,0,10.4,69.6,217.7)" />
<use xlink:href="#f1_1b" transform="matrix(10.4,0,0,10.4,94.3,217.7)" />
<use xlink:href="#f1_2a" transform="matrix(10.4,0,0,10.4,105,217.7)" />
<use xlink:href="#f1_2b" transform="matrix(10.4,0,0,10.4,113.8,217.7)" />
<use xlink:href="#f1_2j" transform="matrix(10.4,0,0,10.4,122.6,217.7)" />
<use xlink:href="#f1_25" transform="matrix(10.4,0,0,10.4,133.8,217.7)" />
<use xlink:href="#f1_2a" transform="matrix(10.4,0,0,10.4,137.2,217.7)" />
<use xlink:href="#f1_23" transform="matrix(10.4,0,0,10.4,146,217.7)" />
<use xlink:href="#f1_2g" transform="matrix(10.4,0,0,10.4,161.3,217.7)" />
<use xlink:href="#f1_24" transform="matrix(10.4,0,0,10.4,165.7,217.7)" />
<use xlink:href="#f1_21" transform="matrix(10.4,0,0,10.4,174.5,217.7)" />
<use xlink:href="#f1_21" transform="matrix(10.4,0,0,10.4,189.9,217.7)" />
<use xlink:href="#f1_28" transform="matrix(10.4,0,0,10.4,198.7,217.7)" />
<use xlink:href="#f1_21" transform="matrix(10.4,0,0,10.4,202.1,217.7)" />
<use xlink:href="#f1_1z" transform="matrix(10.4,0,0,10.4,210.9,217.7)" />
<use xlink:href="#f1_2g" transform="matrix(10.4,0,0,10.4,219,217.7)" />
<use xlink:href="#f1_2e" transform="matrix(10.4,0,0,10.4,223.4,217.7)" />
<use xlink:href="#f1_2b" transform="matrix(10.4,0,0,10.4,228.7,217.7)" />
<use xlink:href="#f1_2a" transform="matrix(10.4,0,0,10.4,237.5,217.7)" />
<use xlink:href="#f1_2f" transform="matrix(10.4,0,0,10.4,246.3,217.7)" />
<use xlink:href="#f1_23" transform="matrix(10.4,0,0,10.4,260.8,217.7)" />
<use xlink:href="#f1_1x" transform="matrix(10.4,0,0,10.4,269.6,217.7)" />
<use xlink:href="#f1_25" transform="matrix(10.4,0,0,10.4,278.4,217.7)" />
<use xlink:href="#f1_2a" transform="matrix(10.4,0,0,10.4,281.9,217.7)" />
<use xlink:href="#f1_21" transform="matrix(10.4,0,0,10.4,297.3,217.7)" />
<use xlink:href="#f1_2a" transform="matrix(10.4,0,0,10.4,306.1,217.7)" />
<use xlink:href="#f1_2g" transform="matrix(10.4,0,0,10.4,314.9,217.7)" />
<use xlink:href="#f1_24" transform="matrix(10.4,0,0,10.4,319.3,217.7)" />
<use xlink:href="#f1_1x" transform="matrix(10.4,0,0,10.4,328.1,217.7)" />
<use xlink:href="#f1_28" transform="matrix(10.4,0,0,10.4,336.9,217.7)" />
<use xlink:href="#f1_2c" transform="matrix(10.4,0,0,10.4,340.4,217.7)" />
<use xlink:href="#f1_2l" transform="matrix(10.4,0,0,10.4,349.2,217.7)" />
<use xlink:href="#f1_2i" transform="matrix(10.4,0,0,10.4,363.1,217.7)" />
<use xlink:href="#f1_1x" transform="matrix(10.4,0,0,10.4,371,217.7)" />
<use xlink:href="#f1_28" transform="matrix(10.4,0,0,10.4,379.8,217.7)" />
<use xlink:href="#f1_2h" transform="matrix(10.4,0,0,10.4,383.3,217.7)" />
<use xlink:href="#f1_21" transform="matrix(10.4,0,0,10.4,392.1,217.7)" />
<use xlink:href="#f1_22" transform="matrix(10.4,0,0,10.4,407.5,217.7)" />
<use xlink:href="#f1_2b" transform="matrix(10.4,0,0,10.4,412,217.7)" />
<use xlink:href="#f1_2e" transform="matrix(10.4,0,0,10.4,420.8,217.7)" />
<use xlink:href="#f1_1f" transform="matrix(10.4,0,0,10.4,432.6,217.7)" />
<use xlink:href="#f2_34" transform="matrix(10.4,0,0,10.4,451.7,217.7)" />
<use xlink:href="#f1_1f" transform="matrix(10.4,0,0,10.4,474,217.7)" />
<use xlink:href="#f1_4y" transform="matrix(10.4,0,0,10.4,486.5,217.7)" />
<use xlink:href="#f1_1x" transform="matrix(10.4,0,0,10.4,501.7,217.7)" />
<use xlink:href="#f1_2a" transform="matrix(10.4,0,0,10.4,510.5,217.7)" />
<use xlink:href="#f1_20" transform="matrix(10.4,0,0,10.4,519.3,217.7)" />
<use xlink:href="#f1_1f" transform="matrix(10.4,0,0,10.4,534.7,217.7)" />
</g>
<g clip-path="url(#c0_55)">
<g fill="#000000" >
<use xlink:href="#f1_4y" transform="matrix(7.4,0,0,7.4,547.2,212.4)" />
</g>
</g>
<g fill="#000000" >
<use xlink:href="#f2_34" transform="matrix(10.4,0,0,10.4,559.8,217.7)" />
<use xlink:href="#f1_1f" transform="matrix(10.4,0,0,10.4,582.2,217.7)" />
</g>
<g clip-path="url(#c1_55)">
<g fill="#000000" >
<use xlink:href="#f1_m" transform="matrix(7.4,0,0,7.4,594.7,212.4)" />
<use xlink:href="#f1_4y" transform="matrix(7.4,0,0,7.4,600.9,212.4)" />
</g>
</g>
<g fill="#000000" >
<use xlink:href="#f1_1x" transform="matrix(10.4,0,0,10.4,613.7,217.7)" />
<use xlink:href="#f1_2f" transform="matrix(10.4,0,0,10.4,622.5,217.7)" />
</g>
<g clip-path="url(#c2_55)">
<g fill="#000000" >
<use xlink:href="#f1_4y" transform="matrix(10.4,0,0,10.4,94.3,238.2)" />
<use xlink:href="#f1_l" transform="matrix(10.4,0,0,10.4,103.1,238.2)" />
<use xlink:href="#f1_o" transform="matrix(10.4,0,0,10.4,111.9,238.2)" />
<use xlink:href="#f1_l" transform="matrix(10.4,0,0,10.4,120.7,238.2)" />
<use xlink:href="#f1_1x" transform="matrix(10.4,0,0,10.4,134.9,238.2)" />
<use xlink:href="#f1_2a" transform="matrix(10.4,0,0,10.4,143.7,238.2)" />
<use xlink:href="#f1_20" transform="matrix(10.4,0,0,10.4,152.5,238.2)" />
<use xlink:href="#f1_r" transform="matrix(10.4,0,0,10.4,166.6,238.2)" />
<use xlink:href="#f1_m" transform="matrix(10.4,0,0,10.4,175.4,238.2)" />
<use xlink:href="#f1_k" transform="matrix(10.4,0,0,10.4,184.2,238.2)" />
<use xlink:href="#f1_27" transform="matrix(10.4,0,0,10.4,198.5,238.2)" />
<use xlink:href="#f1_1a" transform="matrix(10.4,0,0,10.4,206.5,238.2)" />
<use xlink:href="#f1_29" transform="matrix(10.4,0,0,10.4,219.9,238.2)" />
<use xlink:href="#f1_2b" transform="matrix(10.4,0,0,10.4,233.5,238.2)" />
<use xlink:href="#f1_28" transform="matrix(10.4,0,0,10.4,242.3,238.2)" />
</g>
</g>
<g clip-path="url(#c3_55)">
<g fill="#000000" >
<use xlink:href="#f1_4y" transform="matrix(7.4,0,0,7.4,245.8,232.9)" />
<use xlink:href="#f1_l" transform="matrix(7.4,0,0,7.4,252,232.9)" />
</g>
</g>
<g fill="#000000" >
<use xlink:href="#f1_2e" transform="matrix(10.4,0,0,10.4,263.6,238.2)" />
<use xlink:href="#f1_21" transform="matrix(10.4,0,0,10.4,268.9,238.2)" />
<use xlink:href="#f1_2f" transform="matrix(10.4,0,0,10.4,277.7,238.2)" />
<use xlink:href="#f1_2c" transform="matrix(10.4,0,0,10.4,285.7,238.2)" />
<use xlink:href="#f1_21" transform="matrix(10.4,0,0,10.4,294.5,238.2)" />
<use xlink:href="#f1_1z" transform="matrix(10.4,0,0,10.4,303.3,238.2)" />
<use xlink:href="#f1_2g" transform="matrix(10.4,0,0,10.4,311.4,238.2)" />
<use xlink:href="#f1_25" transform="matrix(10.4,0,0,10.4,315.8,238.2)" />
<use xlink:href="#f1_2i" transform="matrix(10.4,0,0,10.4,319.3,238.2)" />
<use xlink:href="#f1_21" transform="matrix(10.4,0,0,10.4,327.2,238.2)" />
<use xlink:href="#f1_28" transform="matrix(10.4,0,0,10.4,336,238.2)" />
<use xlink:href="#f1_2l" transform="matrix(10.4,0,0,10.4,339.5,238.2)" />
<use xlink:href="#f1_g" transform="matrix(10.4,0,0,10.4,345.9,238.2)" />
<use xlink:href="#f1_24" transform="matrix(10.4,0,0,10.4,355.8,238.2)" />
<use xlink:href="#f1_2b" transform="matrix(10.4,0,0,10.4,364.6,238.2)" />
<use xlink:href="#f1_2j" transform="matrix(10.4,0,0,10.4,373.4,238.2)" />
<use xlink:href="#f1_1z" transform="matrix(10.4,0,0,10.4,389.9,238.2)" />
<use xlink:href="#f1_1x" transform="matrix(10.4,0,0,10.4,397.9,238.2)" />
<use xlink:href="#f1_2a" transform="matrix(10.4,0,0,10.4,406.7,238.2)" />
<use xlink:href="#f1_2l" transform="matrix(10.4,0,0,10.4,420.8,238.2)" />
<use xlink:href="#f1_2b" transform="matrix(10.4,0,0,10.4,428.4,238.2)" />
<use xlink:href="#f1_2h" transform="matrix(10.4,0,0,10.4,437.2,238.2)" />
<use xlink:href="#f1_1x" transform="matrix(10.4,0,0,10.4,451.5,238.2)" />
<use xlink:href="#f1_1z" transform="matrix(10.4,0,0,10.4,460.3,238.2)" />
<use xlink:href="#f1_1z" transform="matrix(10.4,0,0,10.4,468.3,238.2)" />
<use xlink:href="#f1_2b" transform="matrix(10.4,0,0,10.4,476.4,238.2)" />
<use xlink:href="#f1_2h" transform="matrix(10.4,0,0,10.4,485.2,238.2)" />
<use xlink:href="#f1_2a" transform="matrix(10.4,0,0,10.4,494,238.2)" />
<use xlink:href="#f1_2g" transform="matrix(10.4,0,0,10.4,502.8,238.2)" />
<use xlink:href="#f1_22" transform="matrix(10.4,0,0,10.4,512.5,238.2)" />
<use xlink:href="#f1_2b" transform="matrix(10.4,0,0,10.4,517.1,238.2)" />
<use xlink:href="#f1_2e" transform="matrix(10.4,0,0,10.4,525.9,238.2)" />
<use xlink:href="#f1_2g" transform="matrix(10.4,0,0,10.4,536.7,238.2)" />
<use xlink:href="#f1_24" transform="matrix(10.4,0,0,10.4,541.1,238.2)" />
<use xlink:href="#f1_21" transform="matrix(10.4,0,0,10.4,549.9,238.2)" />
<use xlink:href="#f1_22" transform="matrix(10.4,0,0,10.4,564,238.2)" />
<use xlink:href="#f1_2b" transform="matrix(10.4,0,0,10.4,568.6,238.2)" />
<use xlink:href="#f1_2e" transform="matrix(10.4,0,0,10.4,577.4,238.2)" />
<use xlink:href="#f1_29" transform="matrix(10.4,0,0,10.4,582.7,238.2)" />
<use xlink:href="#f1_1x" transform="matrix(10.4,0,0,10.4,596.3,238.2)" />
<use xlink:href="#f1_2g" transform="matrix(10.4,0,0,10.4,605.1,238.2)" />
<use xlink:href="#f1_25" transform="matrix(10.4,0,0,10.4,609.5,238.2)" />
<use xlink:href="#f1_2b" transform="matrix(10.4,0,0,10.4,613,238.2)" />
<use xlink:href="#f1_2a" transform="matrix(10.4,0,0,10.4,621.8,238.2)" />
<use xlink:href="#f1_2b" transform="matrix(10.4,0,0,10.4,94.3,258.8)" />
<use xlink:href="#f1_22" transform="matrix(10.4,0,0,10.4,103.1,258.8)" />
<use xlink:href="#f1_28" transform="matrix(10.4,0,0,10.4,115.6,258.8)" />
<use xlink:href="#f1_1x" transform="matrix(10.4,0,0,10.4,119.1,258.8)" />
<use xlink:href="#f1_2e" transform="matrix(10.4,0,0,10.4,127.9,258.8)" />
<use xlink:href="#f1_23" transform="matrix(10.4,0,0,10.4,133.2,258.8)" />
<use xlink:href="#f1_21" transform="matrix(10.4,0,0,10.4,142,258.8)" />
<use xlink:href="#f1_2a" transform="matrix(10.4,0,0,10.4,158.7,258.8)" />
<use xlink:href="#f1_2h" transform="matrix(10.4,0,0,10.4,167.5,258.8)" />
<use xlink:href="#f1_29" transform="matrix(10.4,0,0,10.4,176.3,258.8)" />
<use xlink:href="#f1_1y" transform="matrix(10.4,0,0,10.4,189.9,258.8)" />
<use xlink:href="#f1_21" transform="matrix(10.4,0,0,10.4,198.7,258.8)" />
<use xlink:href="#f1_2e" transform="matrix(10.4,0,0,10.4,207.5,258.8)" />
<use xlink:href="#f1_2b" transform="matrix(10.4,0,0,10.4,220.7,258.8)" />
<use xlink:href="#f1_22" transform="matrix(10.4,0,0,10.4,229.5,258.8)" />
<use xlink:href="#f1_2b" transform="matrix(10.4,0,0,10.4,241.9,258.8)" />
<use xlink:href="#f1_2k" transform="matrix(10.4,0,0,10.4,250.7,258.8)" />
<use xlink:href="#f1_25" transform="matrix(10.4,0,0,10.4,258.6,258.8)" />
<use xlink:href="#f1_20" transform="matrix(10.4,0,0,10.4,262.1,258.8)" />
<use xlink:href="#f1_21" transform="matrix(10.4,0,0,10.4,270.9,258.8)" />
<use xlink:href="#f1_2f" transform="matrix(10.4,0,0,10.4,279.7,258.8)" />
<use xlink:href="#f1_24" transform="matrix(10.4,0,0,10.4,295.6,258.8)" />
<use xlink:href="#f1_1x" transform="matrix(10.4,0,0,10.4,304.4,258.8)" />
<use xlink:href="#f1_2i" transform="matrix(10.4,0,0,10.4,313.2,258.8)" />
<use xlink:href="#f1_25" transform="matrix(10.4,0,0,10.4,321.1,258.8)" />
<use xlink:href="#f1_2a" transform="matrix(10.4,0,0,10.4,324.6,258.8)" />
<use xlink:href="#f1_23" transform="matrix(10.4,0,0,10.4,333.4,258.8)" />
<use xlink:href="#f1_1f" transform="matrix(10.4,0,0,10.4,350.1,258.8)" />
</g>
<g clip-path="url(#c4_55)">
<g fill="#000000" >
<use xlink:href="#f1_m" transform="matrix(7.4,0,0,7.4,362.6,253.4)" />
<use xlink:href="#f1_4y" transform="matrix(7.4,0,0,7.4,368.8,253.4)" />
</g>
</g>
<g fill="#000000" >
<use xlink:href="#f1_2f" transform="matrix(10.4,0,0,10.4,382.9,258.8)" />
<use xlink:href="#f1_2c" transform="matrix(10.4,0,0,10.4,391,258.8)" />
<use xlink:href="#f1_21" transform="matrix(10.4,0,0,10.4,399.8,258.8)" />
<use xlink:href="#f1_1z" transform="matrix(10.4,0,0,10.4,408.6,258.8)" />
<use xlink:href="#f1_25" transform="matrix(10.4,0,0,10.4,416.6,258.8)" />
<use xlink:href="#f1_21" transform="matrix(10.4,0,0,10.4,420.1,258.8)" />
<use xlink:href="#f1_2f" transform="matrix(10.4,0,0,10.4,428.9,258.8)" />
<use xlink:href="#f1_1x" transform="matrix(10.4,0,0,10.4,444.9,258.8)" />
<use xlink:href="#f1_2a" transform="matrix(10.4,0,0,10.4,453.7,258.8)" />
<use xlink:href="#f1_20" transform="matrix(10.4,0,0,10.4,462.5,258.8)" />
<use xlink:href="#f1_2a" transform="matrix(10.4,0,0,10.4,479.3,258.8)" />
<use xlink:href="#f1_2b" transform="matrix(10.4,0,0,10.4,488.1,258.8)" />
<use xlink:href="#f1_2g" transform="matrix(10.4,0,0,10.4,496.9,258.8)" />
<use xlink:href="#f1_1f" transform="matrix(10.4,0,0,10.4,509.2,258.8)" />
</g>
<g clip-path="url(#c5_55)">
<g fill="#000000" >
<use xlink:href="#f1_4y" transform="matrix(7.4,0,0,7.4,521.7,253.4)" />
</g>
</g>
<g fill="#000000" >
<use xlink:href="#f1_z" transform="matrix(10.4,0,0,10.4,527.9,258.8)" />
<use xlink:href="#f1_1r" transform="matrix(10.4,0,0,10.4,94.3,288.3)" />
<use xlink:href="#f3_18" transform="matrix(10.4,0,0,10.4,98.9,288.3)" />
<use xlink:href="#f3_25" transform="matrix(10.4,0,0,10.4,110.7,288.3)" />
<use xlink:href="#f3_2a" transform="matrix(10.4,0,0,10.4,115.2,288.3)" />
<use xlink:href="#f3_2g" transform="matrix(10.4,0,0,10.4,125.1,288.3)" />
<use xlink:href="#f3_u" transform="matrix(10.4,0,0,10.4,139.8,288.3)" />
<use xlink:href="#f1_1c" transform="matrix(10.4,0,0,10.4,154.5,288.3)" />
<use xlink:href="#f1_1x" transform="matrix(10.4,0,0,10.4,163.6,288.3)" />
<use xlink:href="#f1_2g" transform="matrix(10.4,0,0,10.4,172.6,288.3)" />
<use xlink:href="#f1_28" transform="matrix(10.4,0,0,10.4,177.2,288.3)" />
<use xlink:href="#f1_25" transform="matrix(10.4,0,0,10.4,180.9,288.3)" />
<use xlink:href="#f1_1z" transform="matrix(10.4,0,0,10.4,184.7,288.3)" />
<use xlink:href="#f1_21" transform="matrix(10.4,0,0,10.4,193,288.3)" />
<use xlink:href="#f1_21" transform="matrix(10.4,0,0,10.4,210.9,288.3)" />
<use xlink:href="#f1_2a" transform="matrix(10.4,0,0,10.4,220.1,288.3)" />
<use xlink:href="#f1_2g" transform="matrix(10.4,0,0,10.4,229.1,288.3)" />
<use xlink:href="#f1_24" transform="matrix(10.4,0,0,10.4,233.7,288.3)" />
<use xlink:href="#f1_1x" transform="matrix(10.4,0,0,10.4,242.6,288.3)" />
<use xlink:href="#f1_28" transform="matrix(10.4,0,0,10.4,251.8,288.3)" />
<use xlink:href="#f1_2c" transform="matrix(10.4,0,0,10.4,255.5,288.3)" />
<use xlink:href="#f1_2l" transform="matrix(10.4,0,0,10.4,264.5,288.3)" />
<use xlink:href="#f1_2b" transform="matrix(10.4,0,0,10.4,281.3,288.3)" />
<use xlink:href="#f1_22" transform="matrix(10.4,0,0,10.4,290.3,288.3)" />
<use xlink:href="#f1_22" transform="matrix(10.4,0,0,10.4,304.2,288.3)" />
<use xlink:href="#f1_2b" transform="matrix(10.4,0,0,10.4,309,288.3)" />
<use xlink:href="#f1_2e" transform="matrix(10.4,0,0,10.4,318,288.3)" />
<use xlink:href="#f1_29" transform="matrix(10.4,0,0,10.4,323.5,288.3)" />
<use xlink:href="#f1_1x" transform="matrix(10.4,0,0,10.4,337.4,288.3)" />
<use xlink:href="#f1_2g" transform="matrix(10.4,0,0,10.4,346.4,288.3)" />
<use xlink:href="#f1_25" transform="matrix(10.4,0,0,10.4,351,288.3)" />
<use xlink:href="#f1_2b" transform="matrix(10.4,0,0,10.4,354.6,288.3)" />
<use xlink:href="#f1_2a" transform="matrix(10.4,0,0,10.4,363.8,288.3)" />
<use xlink:href="#f1_2b" transform="matrix(10.4,0,0,10.4,381.8,288.3)" />
<use xlink:href="#f1_22" transform="matrix(10.4,0,0,10.4,390.7,288.3)" />
<use xlink:href="#f1_2b" transform="matrix(10.4,0,0,10.4,404.7,288.3)" />
<use xlink:href="#f1_2k" transform="matrix(10.4,0,0,10.4,413.7,288.3)" />
<use xlink:href="#f1_25" transform="matrix(10.4,0,0,10.4,421.9,288.3)" />
<use xlink:href="#f1_20" transform="matrix(10.4,0,0,10.4,425.6,288.3)" />
<use xlink:href="#f1_21" transform="matrix(10.4,0,0,10.4,434.6,288.3)" />
<use xlink:href="#f1_2f" transform="matrix(10.4,0,0,10.4,443.5,288.3)" />
<use xlink:href="#f1_24" transform="matrix(10.4,0,0,10.4,461,288.3)" />
<use xlink:href="#f1_1x" transform="matrix(10.4,0,0,10.4,469.9,288.3)" />
<use xlink:href="#f1_2i" transform="matrix(10.4,0,0,10.4,478.9,288.3)" />
<use xlink:href="#f1_25" transform="matrix(10.4,0,0,10.4,487.2,288.3)" />
<use xlink:href="#f1_2a" transform="matrix(10.4,0,0,10.4,490.8,288.3)" />
<use xlink:href="#f1_23" transform="matrix(10.4,0,0,10.4,499.8,288.3)" />
<use xlink:href="#f1_1f" transform="matrix(10.4,0,0,10.4,518,288.3)" />
<use xlink:href="#f1_m" transform="matrix(7.4,0,0,7.4,530.7,283)" />
<use xlink:href="#f1_4y" transform="matrix(7.4,0,0,7.4,537.1,283)" />
<use xlink:href="#f1_29" transform="matrix(10.4,0,0,10.4,552.5,288.3)" />
<use xlink:href="#f1_2b" transform="matrix(10.4,0,0,10.4,566.4,288.3)" />
<use xlink:href="#f1_2e" transform="matrix(10.4,0,0,10.4,575.4,288.3)" />
<use xlink:href="#f1_21" transform="matrix(10.4,0,0,10.4,580.9,288.3)" />
<use xlink:href="#f1_2g" transform="matrix(10.4,0,0,10.4,599.1,288.3)" />
<use xlink:href="#f1_24" transform="matrix(10.4,0,0,10.4,603.6,288.3)" />
<use xlink:href="#f1_1x" transform="matrix(10.4,0,0,10.4,612.8,288.3)" />
<use xlink:href="#f1_2a" transform="matrix(10.4,0,0,10.4,621.8,288.3)" />
<use xlink:href="#f1_1z" transform="matrix(10.4,0,0,10.4,94.3,308.8)" />
<use xlink:href="#f1_2b" transform="matrix(10.4,0,0,10.4,102.4,308.8)" />
<use xlink:href="#f1_29" transform="matrix(10.4,0,0,10.4,111.2,308.8)" />
<use xlink:href="#f1_2c" transform="matrix(10.4,0,0,10.4,124.8,308.8)" />
<use xlink:href="#f1_21" transform="matrix(10.4,0,0,10.4,133.6,308.8)" />
<use xlink:href="#f1_2a" transform="matrix(10.4,0,0,10.4,142.4,308.8)" />
<use xlink:href="#f1_2f" transform="matrix(10.4,0,0,10.4,151.2,308.8)" />
<use xlink:href="#f1_1x" transform="matrix(10.4,0,0,10.4,159.2,308.8)" />
<use xlink:href="#f1_2g" transform="matrix(10.4,0,0,10.4,168,308.8)" />
<use xlink:href="#f1_21" transform="matrix(10.4,0,0,10.4,172.4,308.8)" />
<use xlink:href="#f1_2f" transform="matrix(10.4,0,0,10.4,181.2,308.8)" />
<use xlink:href="#f1_2g" transform="matrix(10.4,0,0,10.4,197.4,308.8)" />
<use xlink:href="#f1_24" transform="matrix(10.4,0,0,10.4,201.8,308.8)" />
<use xlink:href="#f1_21" transform="matrix(10.4,0,0,10.4,210.6,308.8)" />
<use xlink:href="#f1_2f" transform="matrix(10.4,0,0,10.4,227.2,308.8)" />
<use xlink:href="#f1_21" transform="matrix(10.4,0,0,10.4,235.3,308.8)" />
<use xlink:href="#f1_1z" transform="matrix(10.4,0,0,10.4,244.1,308.8)" />
<use xlink:href="#f1_2b" transform="matrix(10.4,0,0,10.4,252.2,308.8)" />
<use xlink:href="#f1_2a" transform="matrix(10.4,0,0,10.4,261,308.8)" />
<use xlink:href="#f1_20" transform="matrix(10.4,0,0,10.4,269.8,308.8)" />
<use xlink:href="#f2_14" transform="matrix(10.4,0,0,10.4,286.7,308.8)" />
<use xlink:href="#f1_21" transform="matrix(7.4,0,0,7.4,296.4,314.1)" />
<use xlink:href="#f1_23" transform="matrix(7.4,0,0,7.4,302.6,314.1)" />
<use xlink:href="#f1_18" transform="matrix(10.4,0,0,10.4,308.8,308.8)" />
<use xlink:href="#f1_2b" transform="matrix(10.4,0,0,10.4,328.5,308.8)" />
<use xlink:href="#f1_22" transform="matrix(10.4,0,0,10.4,337.3,308.8)" />
<use xlink:href="#f1_2b" transform="matrix(10.4,0,0,10.4,349.9,308.8)" />
<use xlink:href="#f1_2k" transform="matrix(10.4,0,0,10.4,358.7,308.8)" />
<use xlink:href="#f1_2l" transform="matrix(10.4,0,0,10.4,366.6,308.8)" />
<use xlink:href="#f1_23" transform="matrix(10.4,0,0,10.4,374.1,308.8)" />
<use xlink:href="#f1_21" transform="matrix(10.4,0,0,10.4,382.9,308.8)" />
<use xlink:href="#f1_2a" transform="matrix(10.4,0,0,10.4,391.7,308.8)" />
<use xlink:href="#f1_i" transform="matrix(10.4,0,0,10.4,400.5,308.8)" />
<use xlink:href="#f4_l" transform="matrix(8,0,0,8,671.5,1105.8)" />
<use xlink:href="#f4_o" transform="matrix(8,0,0,8,678.3,1105.8)" />
</g>
<g fill="#0080FF" fill-opacity="0.5" >
<use xlink:href="#f0_1c" transform="matrix(38,0,0,38,182.5,1060.3)" />
<use xlink:href="#f0_21" transform="matrix(38,0,0,38,214.8,1060.3)" />
<use xlink:href="#f0_1x" transform="matrix(38,0,0,38,247.1,1060.3)" />
<use xlink:href="#f0_2e" transform="matrix(38,0,0,38,279.5,1060.3)" />
<use xlink:href="#f0_2a" transform="matrix(38,0,0,38,298.8,1060.3)" />
<use xlink:href="#f0_17" transform="matrix(38,0,0,38,331.1,1060.3)" />
<use xlink:href="#f0_2h" transform="matrix(38,0,0,38,376.4,1060.3)" />
<use xlink:href="#f0_25" transform="matrix(38,0,0,38,408.7,1060.3)" />
<use xlink:href="#f0_20" transform="matrix(38,0,0,38,421.6,1060.3)" />
<use xlink:href="#f0_21" transform="matrix(38,0,0,38,453.9,1060.3)" />
<use xlink:href="#f0_i" transform="matrix(38,0,0,38,486.2,1060.3)" />
<use xlink:href="#f0_25" transform="matrix(38,0,0,38,502.4,1060.3)" />
<use xlink:href="#f0_2a" transform="matrix(38,0,0,38,515.3,1060.3)" />
</g>
<defs>
<path d="M593,101c0,0,182,0,279,112c0,0,98,113,98,318c0,0,0,196,-98,308c0,0,-98,112,-277,112c0,0,-181,0,-279,-110c0,0,-99,-111,-99,-310c0,0,0,-198,100,-314c0,0,99,-116,276,-116Zm0,-115c0,0,-162,0,-279,65c0,0,-118,66,-180,190c0,0,-62,124,-62,290c0,0,0,252,138,394c0,0,138,142,385,142c0,0,160,0,278,-64c0,0,118,-64,180,-185c0,0,62,-122,62,-287c0,0,0,-165,-63,-289c0,0,-63,-124,-181,-190c0,0,-118,-66,-278,-66Z" 
id="f0_1f"
transform="scale(0.001,-0.001)" />

<path d="M106,0V635c0,0,0,141,-5,173H228c0,0,1,-4,2,-21c0,0,1,-16,2,-37c0,0,1,-22,2,-81h2c0,0,47,84,108,119c0,0,60,34,151,34c0,0,132,0,194,-66c0,0,61,-66,61,-218V0H615V512c0,0,0,80,-15,124c0,0,-16,44,-50,63c0,0,-35,20,-101,20c0,0,-97,0,-153,-67c0,0,-56,-66,-56,-184V0Z" 
id="f0_2a"
transform="scale(0.001,-0.001)" />

<path d="M103,0V1107H237V0Z" 
id="f0_28"
transform="scale(0.001,-0.001)" />

<path d="M102,0V808H236V0Zm0,979v128H236V979Z" 
id="f0_25"
transform="scale(0.001,-0.001)" />

<path d="M643,478c0,0,-11,128,-65,187c0,0,-54,59,-154,59c0,0,-98,0,-155,-66c0,0,-57,-65,-62,-180ZM431,-14c0,0,-179,0,-272,106c0,0,-94,107,-94,317c0,0,0,200,94,307c0,0,93,106,267,106c0,0,356,0,356,-429V375H206c0,0,0,-138,57,-213c0,0,58,-75,168,-75c0,0,87,0,140,35c0,0,53,35,71,88L760,177c0,0,-72,-191,-329,-191Z" 
id="f0_21"
transform="scale(0.001,-0.001)" />

<path d="M17,0L304,415L31,808H179L380,493L580,808H730L457,417L747,0H598L380,331L162,0Z" 
id="f0_2k"
transform="scale(0.001,-0.001)" />

<path d="M339,87c0,0,74,0,132,34c0,0,57,33,90,91c0,0,34,59,34,121v66L448,396c0,0,-95,-2,-144,-19c0,0,-49,-18,-75,-55c0,0,-26,-38,-26,-98c0,0,0,-65,35,-101c0,0,36,-36,101,-36ZM309,-14c0,0,-122,0,-183,64c0,0,-61,64,-61,176c0,0,0,125,82,192c0,0,83,67,266,72l182,3v44c0,0,0,98,-42,141c0,0,-42,43,-132,43c0,0,-90,0,-131,-31c0,0,-41,-31,-49,-98L101,604c0,0,34,218,323,218c0,0,153,0,229,-70c0,0,77,-69,77,-202V202c0,0,0,-59,16,-90c0,0,16,-30,60,-30c0,0,19,0,44,5V4C850,4,799,-7,746,-7c0,0,-75,0,-109,38c0,0,-33,40,-38,124h-4C595,155,543,62,475,24c0,0,-68,-38,-166,-38Z" 
id="f0_1x"
transform="scale(0.001,-0.001)" />

<path d="M106,0V635c0,0,0,141,-5,173H228c0,0,1,-4,2,-21c0,0,1,-16,2,-37c0,0,1,-22,2,-81h2c0,0,44,86,100,120c0,0,56,33,136,33c0,0,92,0,145,-36c0,0,54,-37,75,-117h2c0,0,42,82,101,117c0,0,59,36,143,36c0,0,123,0,178,-66c0,0,56,-67,56,-218V0H1039V512c0,0,0,117,-32,162c0,0,-32,45,-116,45c0,0,-88,0,-136,-66c0,0,-49,-65,-49,-185V0H573V512c0,0,0,117,-32,162c0,0,-32,45,-116,45c0,0,-86,0,-136,-66c0,0,-50,-66,-50,-185V0Z" 
id="f0_29"
transform="scale(0.001,-0.001)" />

<path d="M453,84c0,0,100,0,146,74c0,0,46,73,46,247c0,0,0,169,-46,241c0,0,-45,73,-145,73c0,0,-80,0,-125,-34c0,0,-45,-34,-68,-105c0,0,-24,-71,-24,-186c0,0,0,-159,51,-234c0,0,51,-76,165,-76ZM103,-316V643c0,0,0,124,-5,165H228c0,0,1,-3,3,-22c0,0,1,-18,3,-56c0,0,2,-38,2,-52h3c0,0,36,75,94,110c0,0,59,34,156,34c0,0,149,0,223,-100c0,0,74,-100,74,-314c0,0,0,-422,-297,-422c0,0,-187,0,-251,140h-4c0,0,3,-6,3,-126V-316Z" 
id="f0_2c"
transform="scale(0.001,-0.001)" />

<path d="M420,84c0,0,121,0,173,78c0,0,52,77,52,243c0,0,0,167,-50,243c0,0,-50,76,-167,76c0,0,-118,0,-170,-78c0,0,-53,-77,-53,-241c0,0,0,-160,52,-241c0,0,52,-80,163,-80Zm1,-98c0,0,-176,0,-267,107c0,0,-90,108,-90,312c0,0,0,417,362,417c0,0,185,0,272,-102c0,0,88,-101,88,-315c0,0,0,-212,-94,-316C692,89,599,-14,421,-14Z" 
id="f0_2b"
transform="scale(0.001,-0.001)" />

<path d="M278,-11c0,0,-162,0,-162,182V710H23v98h99l39,181h90V808H400V710H251V200c0,0,0,-58,19,-82c0,0,19,-23,66,-23c0,0,27,0,77,10V6c0,0,-66,-17,-135,-17Z" 
id="f0_2g"
transform="scale(0.001,-0.001)" />

<path d="M420,489c0,0,93,0,153,65c0,0,60,65,60,181c0,0,0,116,-62,184c0,0,-61,68,-148,68c0,0,-90,0,-156,-74c0,0,-66,-73,-66,-189c0,0,0,-105,63,-170c0,0,63,-65,156,-65ZM391,-18c0,0,-128,0,-209,71c0,0,-82,71,-98,200l129,12c0,0,17,-91,63,-132c0,0,46,-41,118,-41c0,0,62,0,109,28c0,0,47,29,76,76c0,0,30,47,50,128c0,0,20,80,20,164c0,0,0,9,-1,27c0,0,-40,-65,-110,-105c0,0,-69,-39,-151,-39c0,0,-135,0,-229,98c0,0,-94,99,-94,260c0,0,0,166,98,268c0,0,98,101,245,101c0,0,107,0,195,-57c0,0,89,-58,134,-164c0,0,46,-106,46,-308c0,0,0,-209,-45,-334C737,235,691,111,602,46c0,0,-90,-64,-211,-64Z" 
id="f1_t"
transform="scale(0.001,-0.001)" />

<path d="M139,0V153H291V0Z" 
id="f1_i"
transform="scale(0.001,-0.001)" />

<path d="M640,-18c0,0,-161,0,-293,68c0,0,-132,69,-199,200c0,0,-67,131,-67,292c0,0,0,160,67,298c0,0,67,138,192,206c0,0,125,67,289,67c0,0,118,0,214,-39c0,0,96,-38,150,-107c0,0,55,-69,83,-179L946,752c0,0,-25,83,-62,131c0,0,-36,48,-104,77c0,0,-68,29,-150,29c0,0,-100,0,-172,-31c0,0,-72,-30,-117,-79c0,0,-44,-49,-69,-108c0,0,-41,-102,-41,-220c0,0,0,-146,50,-245c0,0,50,-98,147,-146c0,0,96,-48,204,-48c0,0,94,0,183,37c0,0,90,36,136,76V428H630V557h463V152C1093,152,986,67,873,24c0,0,-114,-42,-233,-42Z" 
id="f1_17"
transform="scale(0.001,-0.001)" />

<path d="M102,0V792H236V0Zm0,939v154H236V939Z" 
id="f1_25"
transform="scale(0.001,-0.001)" />

<path d="M320,0L20,792H161L331,318c0,0,28,-77,51,-160c0,0,18,63,50,151L608,792H746L447,0Z" 
id="f1_2i"
transform="scale(0.001,-0.001)" />

<path d="M644,472c0,0,-9,100,-50,150c0,0,-65,77,-167,77c0,0,-93,0,-156,-62c0,0,-63,-61,-70,-165ZM433,-17c0,0,-174,0,-275,106C158,89,56,196,56,389c0,0,0,200,103,310c0,0,103,111,267,111c0,0,159,0,259,-108c0,0,101,-109,101,-304c0,0,0,-12,-1,-36H194c0,0,7,-131,74,-200c0,0,66,-69,166,-69c0,0,74,0,126,39c0,0,52,39,83,124L782,239C782,239,749,117,660,50c0,0,-89,-67,-227,-67Z" 
id="f1_21"
transform="scale(0.001,-0.001)" />

<path d="M99,0V792H219V672c0,0,46,84,86,111c0,0,39,27,86,27c0,0,68,0,138,-43L482,642c0,0,-49,29,-98,29c0,0,-44,0,-79,-27c0,0,-35,-26,-50,-73c0,0,-22,-72,-22,-157V0Z" 
id="f1_2e"
transform="scale(0.001,-0.001)" />

<path d="M358,88c0,0,78,0,139,34c0,0,60,34,89,92c0,0,21,46,21,134l1,49c0,0,-73,-30,-221,-51c0,0,-83,-11,-117,-26c0,0,-35,-15,-54,-44c0,0,-18,-28,-18,-63c0,0,0,-54,40,-89c0,0,41,-36,120,-36ZM326,-17c0,0,-131,0,-201,63c0,0,-70,64,-70,163c0,0,0,58,26,106c0,0,27,48,70,77c0,0,43,29,97,44c0,0,39,11,119,20c0,0,163,20,240,47c0,0,1,27,1,35c0,0,0,81,-38,115c0,0,-52,45,-153,45c0,0,-95,0,-141,-33c0,0,-45,-33,-67,-116L78,566c0,0,18,84,59,136c0,0,41,52,119,80c0,0,78,28,180,28c0,0,102,0,165,-24c0,0,64,-24,94,-60c0,0,29,-36,41,-91c0,0,7,-35,7,-124V332c0,0,0,-187,9,-236c0,0,8,-50,33,-96H645c0,0,-20,42,-26,98C619,98,544,34,475,8c0,0,-70,-25,-149,-25Z" 
id="f1_1x"
transform="scale(0.001,-0.001)" />

<path d="M386,-17c0,0,-155,0,-236,64c0,0,-81,64,-103,190l133,20c0,0,11,-79,62,-122c0,0,51,-42,143,-42c0,0,93,0,138,37c0,0,44,38,44,89c0,0,0,45,-39,71c0,0,-28,18,-138,46c0,0,-147,37,-204,64c0,0,-58,27,-87,75c0,0,-30,48,-30,107c0,0,0,52,25,98c0,0,24,45,66,74c0,0,31,24,85,40c0,0,54,16,116,16c0,0,93,0,164,-27c0,0,70,-27,104,-73c0,0,33,-46,46,-122L544,570c0,0,-9,61,-52,95c0,0,-43,34,-121,34c0,0,-93,0,-132,-30c0,0,-40,-31,-40,-72c0,0,0,-26,17,-47c0,0,16,-21,51,-35c0,0,20,-8,119,-35c0,0,142,-38,199,-62c0,0,56,-24,88,-70c0,0,32,-47,32,-115c0,0,0,-67,-39,-126c0,0,-39,-60,-113,-92c0,0,-74,-32,-167,-32Z" 
id="f1_2f"
transform="scale(0.001,-0.001)" />

<path d="M422,93c0,0,100,0,167,76c0,0,66,76,66,231c0,0,0,147,-67,223c0,0,-66,75,-166,75c0,0,-100,0,-167,-75c0,0,-66,-75,-66,-227c0,0,0,-152,66,-228c0,0,67,-75,167,-75Zm0,-110c0,0,-166,0,-269,106C153,89,51,196,51,396c0,0,0,220,122,326c0,0,102,88,249,88c0,0,164,0,267,-107c0,0,104,-107,104,-296c0,0,0,-153,-46,-240C747,167,701,79,614,31c0,0,-88,-48,-192,-48Z" 
id="f1_2b"
transform="scale(0.001,-0.001)" />

<path d="M101,0V792H221V679c0,0,87,131,252,131c0,0,72,0,132,-26c0,0,60,-26,90,-68c0,0,30,-41,42,-99c0,0,7,-37,7,-130V0H610V482c0,0,0,82,-16,122c0,0,-15,41,-55,65c0,0,-40,24,-94,24c0,0,-86,0,-148,-54c0,0,-62,-55,-62,-207V0Z" 
id="f1_2a"
transform="scale(0.001,-0.001)" />

<path d="M133,0V687H14V792H133v84c0,0,0,80,14,119c0,0,19,52,68,84c0,0,49,33,138,33c0,0,56,0,125,-14L458,981c0,0,-42,8,-79,8c0,0,-62,0,-87,-27c0,0,-25,-26,-25,-97V792H421V687H267V0Z" 
id="f1_22"
transform="scale(0.001,-0.001)" />

<path d="M420,-17c0,0,-163,0,-262,106c0,0,-98,106,-98,304c0,0,0,128,42,224c0,0,43,96,129,145c0,0,87,48,189,48c0,0,129,0,211,-66c0,0,82,-65,106,-185L606,539c0,0,-19,80,-66,120c0,0,-48,40,-115,40c0,0,-101,0,-164,-72c0,0,-63,-73,-63,-230c0,0,0,-160,61,-232c0,0,61,-72,159,-72c0,0,79,0,132,48c0,0,53,49,67,149L749,273C749,273,728,137,639,59c0,0,-90,-76,-219,-76Z" 
id="f1_1z"
transform="scale(0.001,-0.001)" />

<path d="M101,0V1093H235V701c0,0,94,109,237,109c0,0,88,0,153,-35c0,0,65,-35,93,-96c0,0,28,-61,28,-177V0H612V502c0,0,0,101,-44,146c0,0,-43,46,-123,46c0,0,-60,0,-113,-31c0,0,-52,-31,-75,-84c0,0,-22,-53,-22,-146V0Z" 
id="f1_24"
transform="scale(0.001,-0.001)" />

<path d="M312,-10c0,0,-73,0,-114,22c0,0,-40,23,-56,61c0,0,-17,38,-17,159V687H26V792h99V988l134,81V792H394V687H259V224c0,0,0,-57,7,-74c0,0,7,-16,23,-26c0,0,16,-10,46,-10c0,0,23,0,59,6L414,1c0,0,-57,-11,-102,-11Z" 
id="f1_2g"
transform="scale(0.001,-0.001)" />

<path d="M98,0V1093H232V0Z" 
id="f1_28"
transform="scale(0.001,-0.001)" />

<path d="M247,0L4,792H143L270,335L316,165c0,0,3,12,41,163L484,792H620L740,333L779,181l45,153L960,792h131L843,0H704L578,474L547,609L386,0Z" 
id="f1_2j"
transform="scale(0.001,-0.001)" />

<path d="M404,111c0,0,93,0,155,72c0,0,63,71,63,223c0,0,0,145,-65,218c0,0,-64,74,-155,74c0,0,-89,0,-152,-72c0,0,-62,-73,-62,-216c0,0,0,-156,61,-227c0,0,62,-72,155,-72ZM390,-321c0,0,-142,0,-230,64c0,0,-87,64,-84,193L207,-84c0,0,8,-60,46,-88c0,0,49,-37,136,-37c0,0,93,0,144,37c0,0,50,37,68,104c0,0,11,41,10,172C611,104,523,0,392,0C392,0,229,0,139,118c0,0,-89,118,-89,282c0,0,0,114,41,209c0,0,41,96,119,148c0,0,77,53,183,53c0,0,140,0,231,-114v96H748V107c0,0,0,-184,-38,-261c0,0,-38,-77,-119,-122c0,0,-82,-45,-201,-45Z" 
id="f1_23"
transform="scale(0.001,-0.001)" />

<path d="M138,0V153H290V0Zm0,639V792H290V639Z" 
id="f1_u"
transform="scale(0.001,-0.001)" />

<path d="M358,-321c0,0,-111,141,-188,328C170,7,93,195,93,396c0,0,0,178,57,341c0,0,68,188,208,376h96c0,0,-91,-156,-120,-222c0,0,-45,-103,-71,-215c0,0,-32,-139,-32,-281c0,0,0,-358,223,-716Z" 
id="f1_c"
transform="scale(0.001,-0.001)" />

<path d="M93,-321c0,0,223,358,223,716c0,0,0,141,-32,279c0,0,-25,112,-71,215c0,0,-29,67,-120,224h96c0,0,140,-188,208,-376c0,0,57,-163,57,-341c0,0,0,-201,-77,-389c0,0,-77,-187,-188,-328Z" 
id="f1_d"
transform="scale(0.001,-0.001)" />

<path d="M116,0V1093H265L839,235v858H978V0H830L255,858V0Z" 
id="f1_1e"
transform="scale(0.001,-0.001)" />

<path d="M123,0V1093H268V644H835v449H980V0H835V515H268V0Z" 
id="f1_18"
transform="scale(0.001,-0.001)" />

<path d="M412,-18c0,0,-144,0,-239,85c0,0,-95,86,-108,222l133,18c0,0,24,-114,79,-164c0,0,55,-50,135,-50c0,0,96,0,161,65c0,0,65,66,65,163c0,0,0,92,-61,152c0,0,-60,60,-153,60c0,0,-38,0,-95,-15l15,119c0,0,13,-2,21,-2c0,0,86,0,155,45c0,0,69,44,69,137c0,0,0,74,-50,122c0,0,-50,49,-129,49c0,0,-79,0,-131,-50c0,0,-52,-49,-67,-147L78,815c0,0,25,135,112,209c0,0,87,74,217,74c0,0,89,0,164,-38c0,0,76,-39,116,-105c0,0,40,-66,40,-141c0,0,0,-70,-39,-129c0,0,-38,-58,-112,-92c0,0,97,-22,151,-93c0,0,53,-70,53,-176c0,0,0,-143,-104,-243c0,0,-105,-99,-264,-99Z" 
id="f1_n"
transform="scale(0.001,-0.001)" />

<path d="M101,0V792H220V681c0,0,37,58,99,93c0,0,62,36,141,36c0,0,88,0,145,-37c0,0,56,-36,79,-102c0,0,94,139,245,139c0,0,118,0,182,-66c0,0,63,-65,63,-201V0H1040V499c0,0,0,80,-13,116c0,0,-13,35,-47,57c0,0,-35,21,-81,21c0,0,-83,0,-139,-55c0,0,-55,-56,-55,-178V0H571V514c0,0,0,90,-33,135c0,0,-33,44,-107,44c0,0,-57,0,-105,-30c0,0,-48,-29,-70,-87c0,0,-21,-57,-21,-165V0Z" 
id="f1_29"
transform="scale(0.001,-0.001)" />

<path d="M433,93c0,0,88,0,152,76c0,0,64,77,64,228c0,0,0,155,-61,228c0,0,-62,74,-149,74c0,0,-89,0,-153,-76c0,0,-64,-77,-64,-221c0,0,0,-142,39,-206c0,0,63,-103,172,-103ZM444,-17c0,0,-140,0,-220,117V0H100V1093H234V703c0,0,85,107,217,107c0,0,73,0,139,-30c0,0,65,-29,107,-83c0,0,42,-53,66,-128c0,0,24,-75,24,-161c0,0,0,-204,-101,-315C686,93,585,-17,444,-17Z" 
id="f1_1y"
transform="scale(0.001,-0.001)" />

<path d="M545,573c0,0,140,0,199,52c0,0,59,52,59,147c0,0,0,69,-35,118c0,0,-34,49,-91,64c0,0,-36,10,-135,10H263V573ZM118,0V1093H531c0,0,108,0,166,-10c0,0,80,-14,135,-51c0,0,54,-38,87,-106c0,0,34,-68,34,-149c0,0,0,-140,-89,-236c0,0,-89,-97,-321,-97H263V0Z" 
id="f1_1g"
transform="scale(0.001,-0.001)" />

<path d="M684,450L570,752c0,0,-52,138,-78,227c0,0,-21,-105,-59,-209L313,450ZM-1,0L417,1093H574L1021,0H857L729,331H271L152,0Z" 
id="f1_11"
transform="scale(0.001,-0.001)" />

<path d="M406,93c0,0,88,0,149,72c0,0,62,72,62,219c0,0,0,162,-63,238c0,0,-63,76,-154,76c0,0,-90,0,-150,-73c0,0,-60,-73,-60,-230c0,0,0,-152,64,-227c0,0,64,-75,152,-75ZM393,-17c0,0,-95,0,-174,52c0,0,-80,52,-123,145c0,0,-44,94,-44,215c0,0,0,119,39,215c0,0,40,97,119,148c0,0,79,52,177,52c0,0,71,0,127,-31c0,0,56,-30,91,-79v393H739V0H615V100c0,0,-75,-117,-222,-117Z" 
id="f1_20"
transform="scale(0.001,-0.001)" />

<path d="M433,93c0,0,90,0,154,75c0,0,63,76,63,235c0,0,0,151,-62,226c0,0,-62,75,-149,75c0,0,-85,0,-151,-80c0,0,-66,-80,-66,-233c0,0,0,-152,62,-225c0,0,62,-73,149,-73ZM101,-303V792H223V688c0,0,43,61,98,91c0,0,54,31,132,31c0,0,101,0,179,-53c0,0,77,-52,117,-147c0,0,39,-95,39,-208c0,0,0,-122,-44,-219C744,183,701,86,618,34c0,0,-84,-51,-175,-51c0,0,-67,0,-121,28c0,0,-53,28,-87,71V-303Z" 
id="f1_2c"
transform="scale(0.001,-0.001)" />

<path d="M11,0L300,412L32,792H200L323,607c0,0,34,-53,55,-88c0,0,33,47,60,86L571,792H734L467,419L752,0H587L424,245l-38,59L175,0Z" 
id="f1_2k"
transform="scale(0.001,-0.001)" />

<path d="M529,129c0,0,70,0,99,5c0,0,50,9,83,30c0,0,34,21,56,61c0,0,21,40,21,92c0,0,0,61,-31,106c0,0,-32,45,-87,63c0,0,-56,19,-161,19H256V129ZM493,634c0,0,96,0,138,12c0,0,55,17,83,55c0,0,28,38,28,95c0,0,0,55,-26,96c0,0,-26,42,-74,57c0,0,-49,15,-167,15H256V634ZM111,0V1093H522c0,0,126,0,201,-33c0,0,76,-33,119,-102c0,0,43,-69,43,-144c0,0,0,-70,-38,-132c0,0,-38,-62,-115,-100c0,0,99,-29,153,-99c0,0,53,-71,53,-166c0,0,0,-77,-33,-143c0,0,-32,-66,-80,-102C825,72,777,37,705,18C705,18,633,0,529,0Z" 
id="f1_12"
transform="scale(0.001,-0.001)" />

<path d="M182,-321c0,0,-39,0,-87,17L80,-178c0,0,44,-12,77,-12c0,0,45,0,72,15c0,0,26,15,44,42c0,0,12,20,41,100c0,0,3,11,12,33L24,792H169L334,334c0,0,32,-87,58,-183c0,0,23,91,55,179L616,792H750L450,-13c0,0,-49,-130,-75,-179c0,0,-36,-67,-83,-98c0,0,-46,-31,-110,-31Z" 
id="f1_2l"
transform="scale(0.001,-0.001)" />

<path d="M535,-18c0,0,-149,0,-249,43c0,0,-100,43,-158,130c0,0,-57,87,-60,197l137,12c0,0,10,-83,45,-135c0,0,36,-53,110,-86c0,0,75,-32,168,-32c0,0,83,0,146,24c0,0,63,25,94,68c0,0,31,43,31,94c0,0,0,51,-30,90c0,0,-30,38,-98,64c0,0,-44,17,-195,54c0,0,-151,36,-211,68c0,0,-79,41,-117,102c0,0,-38,61,-38,136c0,0,0,83,47,155c0,0,47,72,137,109c0,0,90,38,200,38c0,0,122,0,215,-39c0,0,93,-40,143,-116c0,0,50,-76,54,-172L767,775c0,0,-11,104,-76,158c0,0,-64,53,-190,53c0,0,-132,0,-192,-49c0,0,-60,-48,-60,-116c0,0,0,-59,43,-97c0,0,42,-38,218,-78c0,0,176,-40,242,-70c0,0,96,-44,141,-111c0,0,46,-68,46,-156c0,0,0,-87,-50,-165C889,144,839,67,745,24c0,0,-93,-42,-210,-42Z" 
id="f1_1j"
transform="scale(0.001,-0.001)" />

<path d="M596,106c0,0,164,0,269,114c0,0,105,115,105,326c0,0,0,134,-45,233c0,0,-45,100,-132,155c0,0,-86,55,-194,55c0,0,-154,0,-264,-106C335,883,224,778,224,531c0,0,0,-198,106,-312c0,0,106,-113,266,-113Zm1,-124c0,0,-154,0,-276,74c0,0,-121,75,-184,204c0,0,-63,129,-63,273c0,0,0,272,146,426c0,0,147,154,378,154c0,0,151,0,273,-73c0,0,121,-72,185,-201c0,0,64,-130,64,-294c0,0,0,-166,-67,-297c0,0,-67,-132,-190,-199c0,0,-123,-67,-266,-67Z" 
id="f1_1f"
transform="scale(0.001,-0.001)" />

<path d="M46,0c0,0,-2,48,16,93c0,0,27,74,88,146c0,0,61,71,176,165c0,0,178,146,241,232c0,0,63,85,63,161c0,0,0,80,-57,135c0,0,-58,55,-149,55c0,0,-98,0,-156,-59c0,0,-58,-58,-59,-160L71,782c0,0,15,154,107,235c0,0,93,81,249,81c0,0,157,0,249,-87c0,0,92,-88,92,-217c0,0,0,-65,-27,-129c0,0,-27,-63,-89,-133c0,0,-62,-70,-207,-193C445,339,324,238,290,202c0,0,-35,-36,-57,-73H770V0Z" 
id="f1_m"
transform="scale(0.001,-0.001)" />

<path d="M590,-18c0,0,-177,0,-287,71c0,0,-111,72,-169,209c0,0,-58,137,-58,293c0,0,0,171,66,298c0,0,65,128,185,194c0,0,121,66,265,66c0,0,164,0,276,-84c0,0,112,-84,156,-235L881,760c0,0,-38,120,-110,174c0,0,-72,55,-182,55c0,0,-126,0,-210,-61c0,0,-85,-60,-119,-162c0,0,-34,-102,-34,-210c0,0,0,-139,40,-243c0,0,41,-104,127,-156c0,0,85,-51,185,-51c0,0,122,0,206,70c0,0,84,70,114,208l145,-37c0,0,-46,-178,-164,-272c0,0,-118,-93,-289,-93Z" 
id="f1_13"
transform="scale(0.001,-0.001)" />

<path d="M415,-18c0,0,-149,0,-244,83c0,0,-94,84,-107,222l140,11c0,0,16,-103,73,-154c0,0,56,-52,137,-52c0,0,98,0,165,73c0,0,66,73,66,194c0,0,0,115,-64,182c0,0,-64,66,-169,66c0,0,-65,0,-117,-29c0,0,-52,-30,-82,-77L87,517l106,562H736V951H300L241,657c0,0,99,69,207,69c0,0,143,0,242,-100c0,0,98,-99,98,-255c0,0,0,-149,-86,-257C702,114,597,-18,415,-18Z" 
id="f1_p"
transform="scale(0.001,-0.001)" />

<path d="M369,-17c0,0,-70,0,-131,26c0,0,-61,27,-91,68c0,0,-29,40,-41,99c0,0,-8,40,-8,125V792H232V353c0,0,0,-105,8,-142c0,0,13,-53,54,-83c0,0,41,-30,101,-30c0,0,61,0,114,31c0,0,53,31,75,84c0,0,22,53,22,155V792H740V0H621V116c0,0,-93,-133,-252,-133Z" 
id="f1_2h"
transform="scale(0.001,-0.001)" />

<path d="M435,0V856c0,0,-48,-47,-127,-93c0,0,-79,-46,-142,-69V824c0,0,113,52,197,128c0,0,85,75,120,146h86V0Z" 
id="f1_l"
transform="scale(0.001,-0.001)" />

<path d="M420,92c0,0,92,0,155,89c0,0,64,89,64,358c0,0,0,270,-63,359c0,0,-63,89,-158,89c0,0,-92,0,-147,-79c0,0,-70,-100,-70,-369c0,0,0,-269,63,-358c0,0,63,-89,156,-89Zm0,-110c0,0,-158,0,-248,112C172,94,64,231,64,539c0,0,0,194,39,313c0,0,40,118,119,182c0,0,79,64,198,64c0,0,88,0,155,-35c0,0,66,-36,109,-103c0,0,43,-66,68,-162c0,0,24,-96,24,-259c0,0,0,-192,-39,-311C737,228,697,110,619,46c0,0,-79,-64,-199,-64Z" 
id="f1_k"
transform="scale(0.001,-0.001)" />

<path d="M111,0V1093H256V552l543,541H995L537,650L1016,0H825L436,552L256,378V0Z" 
id="f1_1b"
transform="scale(0.001,-0.001)" />

<path d="M968,-20c0,0,42,100,87,170c0,0,45,70,144,184H56v73H1199c0,0,-106,122,-148,189c0,0,-43,67,-83,166h60c0,0,87,-108,217,-218c0,0,130,-110,206,-154V349c0,0,-99,-56,-217,-159c0,0,-117,-102,-206,-210Z" 
id="f2_34"
transform="scale(0.001,-0.001)" />

<path d="M-2,341V450H847V341Z" 
id="f1_4y"
transform="scale(0.001,-0.001)" />

<path d="M494,385V878L152,385ZM494,0V262H20V385l498,708H628V385H775V262H628V0Z" 
id="f1_o"
transform="scale(0.001,-0.001)" />

<path d="M225,0c0,0,2,129,51,312c0,0,48,183,139,352c0,0,91,170,193,286H72v129H780V975C780,975,676,864,573,680C573,680,470,495,414,301C414,301,374,163,363,0Z" 
id="f1_r"
transform="scale(0.001,-0.001)" />

<path d="M101,0V1093H235V470L554,792H728L425,498L758,0H592L329,405L235,314V0Z" 
id="f1_27"
transform="scale(0.001,-0.001)" />

<path d="M338,-18c0,0,-144,0,-220,82c0,0,-77,83,-74,246l131,18c0,0,5,-125,47,-171c0,0,42,-46,116,-46c0,0,54,0,94,24c0,0,39,25,54,68c0,0,15,43,15,137v753H646V348c0,0,0,-137,-34,-212C612,136,579,60,507,21c0,0,-72,-39,-169,-39Z" 
id="f1_1a"
transform="scale(0.001,-0.001)" />

<path d="M164,-216l-37,58c0,0,42,18,63,55c0,0,20,36,22,103H136V153H288V0c0,0,0,-84,-29,-136c0,0,-30,-52,-95,-80Z" 
id="f1_g"
transform="scale(0.001,-0.001)" />

<path d="M329,0V153H481V0Zm23,269c0,0,-1,27,-1,40c0,0,0,79,23,136c0,0,16,43,53,87c0,0,26,32,96,93c0,0,70,62,91,99c0,0,21,36,21,80c0,0,0,78,-62,138c0,0,-61,59,-149,59c0,0,-86,0,-143,-54c0,0,-58,-54,-76,-169L67,796c0,0,19,153,111,234c0,0,92,82,243,82c0,0,161,0,256,-88c0,0,95,-87,95,-211c0,0,0,-72,-33,-133c0,0,-34,-60,-131,-146c0,0,-66,-58,-86,-86c0,0,-20,-27,-30,-63c0,0,-9,-36,-11,-116Z" 
id="f1_z"
transform="scale(0.001,-0.001)" />

<path d="M104,-303V1093H400V983H238V-193H400V-303Z" 
id="f1_1r"
transform="scale(0.001,-0.001)" />

<path d="M102,0V1051H322V633H780v418h220V0H780V451H322V0Z" 
id="f3_18"
transform="scale(0.001,-0.001)" />

<path d="M107,0V808H316V0Zm0,952v155H316V952Z" 
id="f3_25"
transform="scale(0.001,-0.001)" />

<path d="M107,0V627c0,0,0,65,-2,106c0,0,-2,42,-4,75H301c0,0,2,-15,6,-77c0,0,3,-61,3,-85h3c0,0,43,93,107,135c0,0,64,41,153,41c0,0,128,0,197,-79c0,0,68,-79,68,-231V0H630V452c0,0,0,213,-144,213c0,0,-76,0,-123,-65c0,0,-47,-66,-47,-168V0Z" 
id="f3_2a"
transform="scale(0.001,-0.001)" />

<path d="M313,-13c0,0,-92,0,-142,50c0,0,-50,50,-50,152V666H19V808H131l66,189H328V808H481V666H328V245c0,0,0,-59,23,-87c0,0,22,-28,69,-28c0,0,25,0,70,10V11c0,0,-77,-24,-177,-24Z" 
id="f3_2g"
transform="scale(0.001,-0.001)" />

<path d="M147,0V209H362V0Zm0,562V771H362V562Z" 
id="f3_u"
transform="scale(0.001,-0.001)" />

<path d="M111,0V1093H256V129H795V0Z" 
id="f1_1c"
transform="scale(0.001,-0.001)" />

<path d="M719,62L422,783L93,62ZM0,0L469,1034L896,0Z" 
id="f2_14"
transform="scale(0.001,-0.001)" />

<path d="M435,0V856c0,0,-48,-47,-127,-93c0,0,-79,-46,-142,-69V824c0,0,113,52,197,128c0,0,85,75,120,146h86V0Z" 
id="f4_l"
transform="scale(0.001,-0.001)" />

<path d="M412,-18c0,0,-144,0,-239,85c0,0,-95,86,-108,222l133,18c0,0,24,-114,79,-164c0,0,55,-50,135,-50c0,0,96,0,161,65c0,0,65,66,65,163c0,0,0,92,-61,152c0,0,-60,60,-153,60c0,0,-38,0,-95,-15l15,119c0,0,13,-2,21,-2c0,0,86,0,155,45c0,0,69,44,69,137c0,0,0,74,-50,122c0,0,-50,49,-129,49c0,0,-79,0,-131,-50c0,0,-52,-49,-67,-147L78,815c0,0,25,135,112,209c0,0,87,74,217,74c0,0,89,0,164,-38c0,0,76,-39,116,-105c0,0,40,-66,40,-141c0,0,0,-70,-39,-129c0,0,-38,-58,-112,-92c0,0,97,-22,151,-93c0,0,53,-70,53,-176c0,0,0,-143,-104,-243c0,0,-105,-99,-264,-99Z" 
id="f4_o"
transform="scale(0.001,-0.001)" />

<path d="M125,0V1051H268V115H799V0Z" 
id="f0_1c"
transform="scale(0.001,-0.001)" />

<path d="M106,0V620c0,0,0,85,-5,188H228c0,0,6,-138,6,-165h3c0,0,32,103,74,141c0,0,42,38,118,38c0,0,27,0,54,-7V692c0,0,-26,7,-71,7c0,0,-84,0,-128,-72c0,0,-44,-72,-44,-206V0Z" 
id="f0_2e"
transform="scale(0.001,-0.001)" />

<path d="M606,-14c0,0,-164,0,-284,65c0,0,-119,66,-182,189c0,0,-63,123,-63,291c0,0,0,255,137,396c0,0,137,140,386,140c0,0,174,0,283,-59c0,0,109,-59,168,-189L915,779c0,0,-44,90,-123,131c0,0,-79,41,-196,41c0,0,-182,0,-278,-110c0,0,-96,-110,-96,-310c0,0,0,-200,102,-315c0,0,102,-115,282,-115c0,0,103,0,193,31c0,0,89,31,144,85V407H629V526h445V164c0,0,-83,-85,-205,-132c0,0,-121,-46,-263,-46Z" 
id="f0_17"
transform="scale(0.001,-0.001)" />

<path d="M355,-14c0,0,-133,0,-194,65c0,0,-62,66,-62,219V808H234V296c0,0,0,-80,16,-124c0,0,16,-44,50,-64c0,0,34,-19,101,-19c0,0,97,0,153,66c0,0,55,67,55,185V808H744V172c0,0,0,-141,4,-172H621c0,0,0,4,-1,20c0,0,-1,17,-2,38c0,0,-1,21,-3,80h-2C613,138,567,55,506,20c0,0,-61,-34,-151,-34Z" 
id="f0_2h"
transform="scale(0.001,-0.001)" />

<path d="M395,89c0,0,115,0,166,79c0,0,51,79,51,246c0,0,0,160,-51,235c0,0,-51,75,-164,75c0,0,-102,0,-147,-75c0,0,-45,-75,-45,-244c0,0,0,-170,45,-243c0,0,45,-73,145,-73ZM361,-14c0,0,-153,0,-225,102c0,0,-72,103,-72,312c0,0,0,422,297,422c0,0,92,0,153,-33c0,0,61,-34,98,-107h2l-2,90v335H747V166c0,0,0,-126,4,-166H623c0,0,-2,12,-5,55c0,0,-3,44,-3,75h-3c0,0,-37,-78,-98,-111c0,0,-62,-33,-153,-33Z" 
id="f0_20"
transform="scale(0.001,-0.001)" />

<path d="M140,0V163H285V0Z" 
id="f0_i"
transform="scale(0.001,-0.001)" />


</defs>
</svg>