<?xml version="1.0" encoding="UTF-8" standalone="no"?>
<!DOCTYPE svg PUBLIC "-//W3C//DTD SVG 1.1//EN"
"http://www.w3.org/Graphics/SVG/1.1/DTD/svg11.dtd">
<svg viewBox="0 0 740 1092" version="1.1" xmlns="http://www.w3.org/2000/svg" xmlns:xlink="http://www.w3.org/1999/xlink">
<defs>
<clipPath id="c0_75"><path d="M208.6,397.8V385.2h6.2v12.6Z" /></clipPath>
</defs>
<g fill="#D4D4D4" fill-opacity="0.36" >
<use xlink:href="#f0_1f" transform="matrix(50.9,-50.9,50.9,50.9,129.3,814.1)" />
<use xlink:href="#f0_2a" transform="matrix(50.9,-50.9,50.9,50.9,189.9,753.6)" />
<use xlink:href="#f0_28" transform="matrix(50.9,-50.9,50.9,50.9,233.1,710.3)" />
<use xlink:href="#f0_25" transform="matrix(50.9,-50.9,50.9,50.9,250.4,693.1)" />
<use xlink:href="#f0_2a" transform="matrix(50.9,-50.9,50.9,50.9,267.6,675.8)" />
<use xlink:href="#f0_21" transform="matrix(50.9,-50.9,50.9,50.9,310.9,632.5)" />
<use xlink:href="#f0_2k" transform="matrix(50.9,-50.9,50.9,50.9,354.1,589.3)" />
<use xlink:href="#f0_1x" transform="matrix(50.9,-50.9,50.9,50.9,393,550.4)" />
<use xlink:href="#f0_29" transform="matrix(50.9,-50.9,50.9,50.9,436.3,507.2)" />
<use xlink:href="#f0_2c" transform="matrix(50.9,-50.9,50.9,50.9,501.1,442.4)" />
<use xlink:href="#f0_2b" transform="matrix(50.9,-50.9,50.9,50.9,544.3,399.1)" />
<use xlink:href="#f0_25" transform="matrix(50.9,-50.9,50.9,50.9,587.6,355.9)" />
<use xlink:href="#f0_2a" transform="matrix(50.9,-50.9,50.9,50.9,604.8,338.6)" />
<use xlink:href="#f0_2g" transform="matrix(50.9,-50.9,50.9,50.9,648.1,295.4)" />
</g>
<image preserveAspectRatio="none" x="77" y="71" width="457" height="17" xlink:href="img/1.png" />
<image preserveAspectRatio="none" x="77" y="87" width="457" height="18" xlink:href="img/2.png" />
<image preserveAspectRatio="none" x="77" y="104" width="457" height="18" xlink:href="img/3.png" />
<image preserveAspectRatio="none" x="77" y="121" width="457" height="17" xlink:href="img/4.png" />
<image preserveAspectRatio="none" x="77" y="138" width="457" height="17" xlink:href="img/5.png" />
<image preserveAspectRatio="none" x="77" y="155" width="457" height="17" xlink:href="img/6.png" />
<image preserveAspectRatio="none" x="77" y="172" width="457" height="17" xlink:href="img/7.png" />
<image preserveAspectRatio="none" x="77" y="189" width="457" height="17" xlink:href="img/8.png" />
<image preserveAspectRatio="none" x="77" y="206" width="457" height="17" xlink:href="img/9.png" />
<image preserveAspectRatio="none" x="77" y="222" width="457" height="18" xlink:href="img/10.png" />
<image preserveAspectRatio="none" x="77" y="239" width="457" height="17" xlink:href="img/11.png" />
<image preserveAspectRatio="none" x="77" y="256" width="457" height="17" xlink:href="img/12.png" />
<image preserveAspectRatio="none" x="77" y="273" width="457" height="17" xlink:href="img/13.png" />
<image preserveAspectRatio="none" x="77" y="290" width="457" height="17" xlink:href="img/14.png" />
<image preserveAspectRatio="none" x="77" y="307" width="457" height="17" xlink:href="img/15.png" />
<image preserveAspectRatio="none" x="77" y="324" width="457" height="14" xlink:href="img/16.png" />
<g fill="#000000" >
<use xlink:href="#f1_l" transform="matrix(10.4,0,0,10.4,41.9,379.8)" />
<use xlink:href="#f1_m" transform="matrix(10.4,0,0,10.4,51.1,379.8)" />
<use xlink:href="#f1_i" transform="matrix(10.4,0,0,10.4,60.4,379.8)" />
<use xlink:href="#f1_1n" transform="matrix(10.4,0,0,10.4,85.2,379.8)" />
<use xlink:href="#f1_24" transform="matrix(10.4,0,0,10.4,101.1,379.8)" />
<use xlink:href="#f1_25" transform="matrix(10.4,0,0,10.4,109.9,379.8)" />
<use xlink:href="#f1_1z" transform="matrix(10.4,0,0,10.4,113.4,379.8)" />
<use xlink:href="#f1_24" transform="matrix(10.4,0,0,10.4,121.5,379.8)" />
<use xlink:href="#f1_1z" transform="matrix(10.4,0,0,10.4,138.7,379.8)" />
<use xlink:href="#f1_2b" transform="matrix(10.4,0,0,10.4,146.8,379.8)" />
<use xlink:href="#f1_29" transform="matrix(10.4,0,0,10.4,155.6,379.8)" />
<use xlink:href="#f1_2c" transform="matrix(10.4,0,0,10.4,169.1,379.8)" />
<use xlink:href="#f1_2b" transform="matrix(10.4,0,0,10.4,177.9,379.8)" />
<use xlink:href="#f1_2h" transform="matrix(10.4,0,0,10.4,186.7,379.8)" />
<use xlink:href="#f1_2a" transform="matrix(10.4,0,0,10.4,195.5,379.8)" />
<use xlink:href="#f1_20" transform="matrix(10.4,0,0,10.4,204.3,379.8)" />
<use xlink:href="#f1_25" transform="matrix(10.4,0,0,10.4,221.6,379.8)" />
<use xlink:href="#f1_2a" transform="matrix(10.4,0,0,10.4,225,379.8)" />
<use xlink:href="#f1_21" transform="matrix(10.4,0,0,10.4,242.4,379.8)" />
<use xlink:href="#f1_1x" transform="matrix(10.4,0,0,10.4,251.2,379.8)" />
<use xlink:href="#f1_1z" transform="matrix(10.4,0,0,10.4,260,379.8)" />
<use xlink:href="#f1_24" transform="matrix(10.4,0,0,10.4,268.1,379.8)" />
<use xlink:href="#f1_2b" transform="matrix(10.4,0,0,10.4,285.3,379.8)" />
<use xlink:href="#f1_22" transform="matrix(10.4,0,0,10.4,294.1,379.8)" />
<use xlink:href="#f1_2g" transform="matrix(10.4,0,0,10.4,307.2,379.8)" />
<use xlink:href="#f1_24" transform="matrix(10.4,0,0,10.4,311.6,379.8)" />
<use xlink:href="#f1_21" transform="matrix(10.4,0,0,10.4,320.4,379.8)" />
<use xlink:href="#f1_22" transform="matrix(10.4,0,0,10.4,337.6,379.8)" />
<use xlink:href="#f1_2b" transform="matrix(10.4,0,0,10.4,342.2,379.8)" />
<use xlink:href="#f1_28" transform="matrix(10.4,0,0,10.4,351,379.8)" />
<use xlink:href="#f1_28" transform="matrix(10.4,0,0,10.4,354.5,379.8)" />
<use xlink:href="#f1_2b" transform="matrix(10.4,0,0,10.4,357.9,379.8)" />
<use xlink:href="#f1_2j" transform="matrix(10.4,0,0,10.4,366.7,379.8)" />
<use xlink:href="#f1_25" transform="matrix(10.4,0,0,10.4,377.9,379.8)" />
<use xlink:href="#f1_2a" transform="matrix(10.4,0,0,10.4,381.4,379.8)" />
<use xlink:href="#f1_23" transform="matrix(10.4,0,0,10.4,390.2,379.8)" />
<use xlink:href="#f1_2c" transform="matrix(10.4,0,0,10.4,407.6,379.8)" />
<use xlink:href="#f1_1x" transform="matrix(10.4,0,0,10.4,416.4,379.8)" />
<use xlink:href="#f1_25" transform="matrix(10.4,0,0,10.4,425.2,379.8)" />
<use xlink:href="#f1_2e" transform="matrix(10.4,0,0,10.4,428.7,379.8)" />
<use xlink:href="#f1_2f" transform="matrix(10.4,0,0,10.4,434,379.8)" />
<use xlink:href="#f1_2j" transform="matrix(10.4,0,0,10.4,450.5,379.8)" />
<use xlink:href="#f1_25" transform="matrix(10.4,0,0,10.4,461.7,379.8)" />
<use xlink:href="#f1_28" transform="matrix(10.4,0,0,10.4,465.2,379.8)" />
<use xlink:href="#f1_28" transform="matrix(10.4,0,0,10.4,468.7,379.8)" />
<use xlink:href="#f1_2e" transform="matrix(10.4,0,0,10.4,480.6,379.8)" />
<use xlink:href="#f1_21" transform="matrix(10.4,0,0,10.4,485.9,379.8)" />
<use xlink:href="#f1_1x" transform="matrix(10.4,0,0,10.4,494.7,379.8)" />
<use xlink:href="#f1_1z" transform="matrix(10.4,0,0,10.4,503.5,379.8)" />
<use xlink:href="#f1_2g" transform="matrix(10.4,0,0,10.4,511.6,379.8)" />
<use xlink:href="#f1_22" transform="matrix(10.4,0,0,10.4,524.4,379.8)" />
<use xlink:href="#f1_1x" transform="matrix(10.4,0,0,10.4,529,379.8)" />
<use xlink:href="#f1_2f" transform="matrix(10.4,0,0,10.4,537.8,379.8)" />
<use xlink:href="#f1_2g" transform="matrix(10.4,0,0,10.4,545.8,379.8)" />
<use xlink:href="#f1_21" transform="matrix(10.4,0,0,10.4,550.2,379.8)" />
<use xlink:href="#f1_2e" transform="matrix(10.4,0,0,10.4,559,379.8)" />
<use xlink:href="#f1_25" transform="matrix(10.4,0,0,10.4,573,379.8)" />
<use xlink:href="#f1_2a" transform="matrix(10.4,0,0,10.4,576.4,379.8)" />
<use xlink:href="#f1_1j" transform="matrix(10.4,0,0,10.4,593.7,379.8)" />
<use xlink:href="#f1_1e" transform="matrix(7.4,0,0,7.4,604.4,385.2)" />
<use xlink:href="#f1_m" transform="matrix(10.4,0,0,10.4,612.6,379.8)" />
<use xlink:href="#f1_2e" transform="matrix(10.4,0,0,10.4,85.2,400.7)" />
<use xlink:href="#f1_21" transform="matrix(10.4,0,0,10.4,90.5,400.7)" />
<use xlink:href="#f1_1x" transform="matrix(10.4,0,0,10.4,99.3,400.7)" />
<use xlink:href="#f1_1z" transform="matrix(10.4,0,0,10.4,108.1,400.7)" />
<use xlink:href="#f1_2g" transform="matrix(10.4,0,0,10.4,116.1,400.7)" />
<use xlink:href="#f1_25" transform="matrix(10.4,0,0,10.4,120.5,400.7)" />
<use xlink:href="#f1_2b" transform="matrix(10.4,0,0,10.4,124,400.7)" />
<use xlink:href="#f1_2a" transform="matrix(10.4,0,0,10.4,132.8,400.7)" />
<use xlink:href="#f1_2j" transform="matrix(10.4,0,0,10.4,149.1,400.7)" />
<use xlink:href="#f1_25" transform="matrix(10.4,0,0,10.4,160.3,400.7)" />
<use xlink:href="#f1_2g" transform="matrix(10.4,0,0,10.4,163.8,400.7)" />
<use xlink:href="#f1_24" transform="matrix(10.4,0,0,10.4,168.2,400.7)" />
<use xlink:href="#f1_1f" transform="matrix(10.4,0,0,10.4,184.5,400.7)" />
<use xlink:href="#f1_18" transform="matrix(10.4,0,0,10.4,197,400.7)" />
</g>
<g clip-path="url(#c0_75)">
<g fill="#000000" >
<use xlink:href="#f1_1jz" transform="matrix(7.4,0,0,7.4,208.6,395.4)" />
</g>
</g>
<g fill="#000000" >
<use xlink:href="#f1_1x" transform="matrix(10.4,0,0,10.4,222.3,400.7)" />
<use xlink:href="#f1_2a" transform="matrix(10.4,0,0,10.4,231.1,400.7)" />
<use xlink:href="#f1_20" transform="matrix(10.4,0,0,10.4,239.9,400.7)" />
<use xlink:href="#f1_2j" transform="matrix(10.4,0,0,10.4,256.2,400.7)" />
<use xlink:href="#f1_24" transform="matrix(10.4,0,0,10.4,267.4,400.7)" />
<use xlink:href="#f1_2l" transform="matrix(10.4,0,0,10.4,276.2,400.7)" />
<use xlink:href="#f1_z" transform="matrix(10.4,0,0,10.4,283.7,400.7)" />
<use xlink:href="#f1_c" transform="matrix(10.4,0,0,10.4,85.2,430.8)" />
<use xlink:href="#f1_25" transform="matrix(10.4,0,0,10.4,90.9,430.8)" />
<use xlink:href="#f1_d" transform="matrix(10.4,0,0,10.4,94.7,430.8)" />
<use xlink:href="#f1_13" transform="matrix(10.4,0,0,10.4,128.4,430.8)" />
<use xlink:href="#f1_18" transform="matrix(10.4,0,0,10.4,140,430.8)" />
<use xlink:href="#f1_n" transform="matrix(7.4,0,0,7.4,151.5,436.1)" />
<use xlink:href="#f1_12" transform="matrix(10.4,0,0,10.4,157.8,430.8)" />
<use xlink:href="#f1_2e" transform="matrix(10.4,0,0,10.4,168.4,430.8)" />
<use xlink:href="#f1_2b" transform="matrix(10.4,0,0,10.4,179.8,430.8)" />
<use xlink:href="#f1_2e" transform="matrix(10.4,0,0,10.4,188.6,430.8)" />
<use xlink:href="#f1_13" transform="matrix(10.4,0,0,10.4,200.1,430.8)" />
<use xlink:href="#f1_18" transform="matrix(10.4,0,0,10.4,211.7,430.8)" />
<use xlink:href="#f1_n" transform="matrix(7.4,0,0,7.4,223.2,436.1)" />
<use xlink:href="#f1_19" transform="matrix(10.4,0,0,10.4,229.5,430.8)" />
<use xlink:href="#f1_c" transform="matrix(10.4,0,0,10.4,85.2,460.9)" />
<use xlink:href="#f1_25" transform="matrix(10.4,0,0,10.4,90.7,460.9)" />
<use xlink:href="#f1_25" transform="matrix(10.4,0,0,10.4,94.5,460.9)" />
<use xlink:href="#f1_d" transform="matrix(10.4,0,0,10.4,98.2,460.9)" />
<use xlink:href="#f1_c" transform="matrix(10.4,0,0,10.4,128.4,460.9)" />
<use xlink:href="#f1_13" transform="matrix(10.4,0,0,10.4,133.7,460.9)" />
<use xlink:href="#f1_18" transform="matrix(10.4,0,0,10.4,145.3,460.9)" />
<use xlink:href="#f1_n" transform="matrix(7.4,0,0,7.4,156.9,466.2)" />
<use xlink:href="#f1_d" transform="matrix(10.4,0,0,10.4,163.1,460.9)" />
<use xlink:href="#f1_n" transform="matrix(7.4,0,0,7.4,168.4,466.2)" />
<use xlink:href="#f1_13" transform="matrix(10.4,0,0,10.4,181.6,460.9)" />
<use xlink:href="#f1_13" transform="matrix(10.4,0,0,10.4,193.2,460.9)" />
<use xlink:href="#f1_28" transform="matrix(10.4,0,0,10.4,204.7,460.9)" />
<use xlink:href="#f1_2b" transform="matrix(10.4,0,0,10.4,215.3,460.9)" />
<use xlink:href="#f1_2e" transform="matrix(10.4,0,0,10.4,224.1,460.9)" />
<use xlink:href="#f1_13" transform="matrix(10.4,0,0,10.4,236.4,460.9)" />
<use xlink:href="#f1_18" transform="matrix(10.4,0,0,10.4,248,460.9)" />
<use xlink:href="#f1_n" transform="matrix(7.4,0,0,7.4,259.5,466.2)" />
<use xlink:href="#f1_13" transform="matrix(10.4,0,0,10.4,265.8,460.9)" />
<use xlink:href="#f1_28" transform="matrix(10.4,0,0,10.4,277.3,460.9)" />
<use xlink:href="#f1_l" transform="matrix(10.4,0,0,10.4,41.9,490.9)" />
<use xlink:href="#f1_n" transform="matrix(10.4,0,0,10.4,51.1,490.9)" />
<use xlink:href="#f1_i" transform="matrix(10.4,0,0,10.4,60.4,490.9)" />
<use xlink:href="#f1_19" transform="matrix(10.4,0,0,10.4,85.2,490.9)" />
<use xlink:href="#f1_2a" transform="matrix(10.4,0,0,10.4,89.8,490.9)" />
<use xlink:href="#f1_2g" transform="matrix(10.4,0,0,10.4,107.5,490.9)" />
<use xlink:href="#f1_24" transform="matrix(10.4,0,0,10.4,112.1,490.9)" />
<use xlink:href="#f1_21" transform="matrix(10.4,0,0,10.4,121.1,490.9)" />
<use xlink:href="#f1_22" transform="matrix(10.4,0,0,10.4,138.9,490.9)" />
<use xlink:href="#f1_2b" transform="matrix(10.4,0,0,10.4,143.6,490.9)" />
<use xlink:href="#f1_28" transform="matrix(10.4,0,0,10.4,152.6,490.9)" />
<use xlink:href="#f1_28" transform="matrix(10.4,0,0,10.4,156.3,490.9)" />
<use xlink:href="#f1_2b" transform="matrix(10.4,0,0,10.4,159.8,490.9)" />
<use xlink:href="#f1_2j" transform="matrix(10.4,0,0,10.4,168.8,490.9)" />
<use xlink:href="#f1_25" transform="matrix(10.4,0,0,10.4,180.1,490.9)" />
<use xlink:href="#f1_2a" transform="matrix(10.4,0,0,10.4,183.8,490.9)" />
<use xlink:href="#f1_23" transform="matrix(10.4,0,0,10.4,192.6,490.9)" />
<use xlink:href="#f1_2c" transform="matrix(10.4,0,0,10.4,210.5,490.9)" />
<use xlink:href="#f1_1x" transform="matrix(10.4,0,0,10.4,219.5,490.9)" />
<use xlink:href="#f1_25" transform="matrix(10.4,0,0,10.4,228.3,490.9)" />
<use xlink:href="#f1_2e" transform="matrix(10.4,0,0,10.4,232,490.9)" />
<use xlink:href="#f1_2f" transform="matrix(10.4,0,0,10.4,237.5,490.9)" />
<use xlink:href="#f1_2j" transform="matrix(10.4,0,0,10.4,254.5,490.9)" />
<use xlink:href="#f1_24" transform="matrix(10.4,0,0,10.4,265.9,490.9)" />
<use xlink:href="#f1_25" transform="matrix(10.4,0,0,10.4,274.9,490.9)" />
<use xlink:href="#f1_1z" transform="matrix(10.4,0,0,10.4,278.6,490.9)" />
<use xlink:href="#f1_24" transform="matrix(10.4,0,0,10.4,286.6,490.9)" />
<use xlink:href="#f1_24" transform="matrix(10.4,0,0,10.4,304.6,490.9)" />
<use xlink:href="#f1_1x" transform="matrix(10.4,0,0,10.4,313.6,490.9)" />
<use xlink:href="#f1_28" transform="matrix(10.4,0,0,10.4,322.4,490.9)" />
<use xlink:href="#f1_2b" transform="matrix(10.4,0,0,10.4,326,490.9)" />
<use xlink:href="#f1_23" transform="matrix(10.4,0,0,10.4,335,490.9)" />
<use xlink:href="#f1_21" transform="matrix(10.4,0,0,10.4,344,490.9)" />
<use xlink:href="#f1_2a" transform="matrix(10.4,0,0,10.4,352.8,490.9)" />
<use xlink:href="#f1_1z" transform="matrix(10.4,0,0,10.4,370.7,490.9)" />
<use xlink:href="#f1_2b" transform="matrix(10.4,0,0,10.4,379,490.9)" />
<use xlink:href="#f1_29" transform="matrix(10.4,0,0,10.4,387.8,490.9)" />
<use xlink:href="#f1_2c" transform="matrix(10.4,0,0,10.4,401.5,490.9)" />
<use xlink:href="#f1_2b" transform="matrix(10.4,0,0,10.4,410.5,490.9)" />
<use xlink:href="#f1_2h" transform="matrix(10.4,0,0,10.4,419.5,490.9)" />
<use xlink:href="#f1_2a" transform="matrix(10.4,0,0,10.4,428.3,490.9)" />
<use xlink:href="#f1_20" transform="matrix(10.4,0,0,10.4,437.3,490.9)" />
<use xlink:href="#f1_2h" transform="matrix(10.4,0,0,10.4,455.3,490.9)" />
<use xlink:href="#f1_2a" transform="matrix(10.4,0,0,10.4,464.1,490.9)" />
<use xlink:href="#f1_20" transform="matrix(10.4,0,0,10.4,473,490.9)" />
<use xlink:href="#f1_21" transform="matrix(10.4,0,0,10.4,482,490.9)" />
<use xlink:href="#f1_2e" transform="matrix(10.4,0,0,10.4,491,490.9)" />
<use xlink:href="#f1_23" transform="matrix(10.4,0,0,10.4,496.3,490.9)" />
<use xlink:href="#f1_2b" transform="matrix(10.4,0,0,10.4,505.3,490.9)" />
<use xlink:href="#f1_21" transform="matrix(10.4,0,0,10.4,514.3,490.9)" />
<use xlink:href="#f1_2f" transform="matrix(10.4,0,0,10.4,523.3,490.9)" />
<use xlink:href="#f1_22" transform="matrix(10.4,0,0,10.4,540.3,490.9)" />
<use xlink:href="#f1_1x" transform="matrix(10.4,0,0,10.4,545.1,490.9)" />
<use xlink:href="#f1_2f" transform="matrix(10.4,0,0,10.4,554,490.9)" />
<use xlink:href="#f1_2g" transform="matrix(10.4,0,0,10.4,562.1,490.9)" />
<use xlink:href="#f1_21" transform="matrix(10.4,0,0,10.4,566.7,490.9)" />
<use xlink:href="#f1_2e" transform="matrix(10.4,0,0,10.4,575.7,490.9)" />
<use xlink:href="#f1_1j" transform="matrix(10.4,0,0,10.4,590,490.9)" />
<use xlink:href="#f1_1e" transform="matrix(10.4,0,0,10.4,600.8,490.9)" />
<use xlink:href="#f1_l" transform="matrix(10.4,0,0,10.4,612.5,490.9)" />
<use xlink:href="#f1_2e" transform="matrix(10.4,0,0,10.4,85.2,511.8)" />
<use xlink:href="#f1_21" transform="matrix(10.4,0,0,10.4,90.9,511.8)" />
<use xlink:href="#f1_1x" transform="matrix(10.4,0,0,10.4,99.8,511.8)" />
<use xlink:href="#f1_1z" transform="matrix(10.4,0,0,10.4,109,511.8)" />
<use xlink:href="#f1_2g" transform="matrix(10.4,0,0,10.4,117.2,511.8)" />
<use xlink:href="#f1_25" transform="matrix(10.4,0,0,10.4,122,511.8)" />
<use xlink:href="#f1_2b" transform="matrix(10.4,0,0,10.4,125.9,511.8)" />
<use xlink:href="#f1_2a" transform="matrix(10.4,0,0,10.4,134.8,511.8)" />
<use xlink:href="#f1_z" transform="matrix(10.4,0,0,10.4,144,511.8)" />
<use xlink:href="#f1_c" transform="matrix(10.4,0,0,10.4,85.2,579.5)" />
<use xlink:href="#f1_25" transform="matrix(10.4,0,0,10.4,90.9,579.5)" />
<use xlink:href="#f1_d" transform="matrix(10.4,0,0,10.4,94.7,579.5)" />
</g>
<image preserveAspectRatio="none" x="128" y="537" width="234" height="32" xlink:href="img/17.png" />
<image preserveAspectRatio="none" x="128" y="569" width="234" height="31" xlink:href="img/18.png" />
<g fill="#000000" >
<use xlink:href="#f1_c" transform="matrix(10.4,0,0,10.4,85.2,668.6)" />
<use xlink:href="#f1_25" transform="matrix(10.4,0,0,10.4,90.7,668.6)" />
<use xlink:href="#f1_25" transform="matrix(10.4,0,0,10.4,94.5,668.6)" />
<use xlink:href="#f1_d" transform="matrix(10.4,0,0,10.4,98.2,668.6)" />
</g>
<image preserveAspectRatio="none" x="128" y="628" width="365" height="21" xlink:href="img/19.png" />
<image preserveAspectRatio="none" x="128" y="648" width="365" height="21" xlink:href="img/20.png" />
<image preserveAspectRatio="none" x="128" y="669" width="365" height="20" xlink:href="img/21.png" />
<g fill="#000000" >
<use xlink:href="#f1_c" transform="matrix(10.4,0,0,10.4,85.2,720.8)" />
<use xlink:href="#f1_25" transform="matrix(10.4,0,0,10.4,90.7,720.8)" />
<use xlink:href="#f1_25" transform="matrix(10.4,0,0,10.4,94.3,720.8)" />
<use xlink:href="#f1_25" transform="matrix(10.4,0,0,10.4,98,720.8)" />
<use xlink:href="#f1_d" transform="matrix(10.4,0,0,10.4,101.7,720.8)" />
<use xlink:href="#f1_c" transform="matrix(10.4,0,0,10.4,128.4,720.8)" />
<use xlink:href="#f1_13" transform="matrix(10.4,0,0,10.4,133.7,720.8)" />
<use xlink:href="#f1_18" transform="matrix(10.4,0,0,10.4,145.3,720.8)" />
<use xlink:href="#f1_n" transform="matrix(7.4,0,0,7.4,156.9,726.2)" />
<use xlink:href="#f1_d" transform="matrix(10.4,0,0,10.4,163.1,720.8)" />
<use xlink:href="#f1_n" transform="matrix(7.4,0,0,7.4,168.4,726.2)" />
<use xlink:href="#f1_13" transform="matrix(10.4,0,0,10.4,174.6,720.8)" />
<use xlink:href="#f1_1jz" transform="matrix(10.4,0,0,10.4,193.3,720.8)" />
<use xlink:href="#f1_13" transform="matrix(10.4,0,0,10.4,209.3,720.8)" />
<use xlink:href="#f1_28" transform="matrix(10.4,0,0,10.4,220.8,720.8)" />
<use xlink:href="#f1_1x" transform="matrix(10.4,0,0,10.4,231.5,720.8)" />
<use xlink:href="#f1_2a" transform="matrix(10.4,0,0,10.4,240.3,720.8)" />
<use xlink:href="#f1_20" transform="matrix(10.4,0,0,10.4,249.1,720.8)" />
<use xlink:href="#f1_13" transform="matrix(10.4,0,0,10.4,265,720.8)" />
<use xlink:href="#f1_q" transform="matrix(7.4,0,0,7.4,276.6,726.2)" />
<use xlink:href="#f1_18" transform="matrix(10.4,0,0,10.4,282.8,720.8)" />
<use xlink:href="#f1_p" transform="matrix(7.4,0,0,7.4,294.4,726.2)" />
<use xlink:href="#f1_13" transform="matrix(10.4,0,0,10.4,300.6,720.8)" />
<use xlink:href="#f1_18" transform="matrix(10.4,0,0,10.4,312.1,720.8)" />
<use xlink:href="#f1_m" transform="matrix(7.4,0,0,7.4,323.7,726.2)" />
<use xlink:href="#f1_13" transform="matrix(10.4,0,0,10.4,329.9,720.8)" />
<use xlink:href="#f1_28" transform="matrix(10.4,0,0,10.4,341.5,720.8)" />
<use xlink:href="#f1_c" transform="matrix(10.4,0,0,10.4,85.2,750.7)" />
<use xlink:href="#f1_25" transform="matrix(10.4,0,0,10.4,90.9,750.7)" />
<use xlink:href="#f1_2i" transform="matrix(10.4,0,0,10.4,94.5,750.7)" />
<use xlink:href="#f1_d" transform="matrix(10.4,0,0,10.4,102.8,750.7)" />
<use xlink:href="#f1_13" transform="matrix(10.4,0,0,10.4,128.4,750.7)" />
<use xlink:href="#f1_q" transform="matrix(7.4,0,0,7.4,140,756)" />
<use xlink:href="#f1_18" transform="matrix(10.4,0,0,10.4,146.2,750.7)" />
<use xlink:href="#f1_p" transform="matrix(7.4,0,0,7.4,157.8,756)" />
<use xlink:href="#f1_13" transform="matrix(10.4,0,0,10.4,164,750.7)" />
<use xlink:href="#f1_18" transform="matrix(10.4,0,0,10.4,175.6,750.7)" />
<use xlink:href="#f1_m" transform="matrix(7.4,0,0,7.4,187.1,756)" />
<use xlink:href="#f1_13" transform="matrix(10.4,0,0,10.4,193.3,750.7)" />
<use xlink:href="#f1_28" transform="matrix(10.4,0,0,10.4,204.9,750.7)" />
<use xlink:href="#f1_1x" transform="matrix(10.4,0,0,10.4,215.5,750.7)" />
<use xlink:href="#f1_2a" transform="matrix(10.4,0,0,10.4,224.3,750.7)" />
<use xlink:href="#f1_20" transform="matrix(10.4,0,0,10.4,233.1,750.7)" />
<use xlink:href="#f1_13" transform="matrix(10.4,0,0,10.4,249.2,750.7)" />
<use xlink:href="#f1_q" transform="matrix(7.4,0,0,7.4,260.8,756)" />
<use xlink:href="#f1_18" transform="matrix(10.4,0,0,10.4,267,750.7)" />
<use xlink:href="#f1_p" transform="matrix(7.4,0,0,7.4,278.6,756)" />
<use xlink:href="#f1_13" transform="matrix(10.4,0,0,10.4,284.8,750.7)" />
<use xlink:href="#f1_c" transform="matrix(10.4,0,0,10.4,296.4,750.7)" />
<use xlink:href="#f1_13" transform="matrix(10.4,0,0,10.4,301.7,750.7)" />
<use xlink:href="#f1_28" transform="matrix(10.4,0,0,10.4,313.2,750.7)" />
<use xlink:href="#f1_d" transform="matrix(10.4,0,0,10.4,316.7,750.7)" />
<use xlink:href="#f1_13" transform="matrix(10.4,0,0,10.4,322,750.7)" />
<use xlink:href="#f1_q" transform="matrix(7.4,0,0,7.4,333.6,756)" />
<use xlink:href="#f1_18" transform="matrix(10.4,0,0,10.4,339.8,750.7)" />
<use xlink:href="#f1_p" transform="matrix(7.4,0,0,7.4,351.4,756)" />
<use xlink:href="#f1_c" transform="matrix(10.4,0,0,10.4,85.2,780.8)" />
<use xlink:href="#f1_2i" transform="matrix(10.4,0,0,10.4,90.9,780.8)" />
<use xlink:href="#f1_d" transform="matrix(10.4,0,0,10.4,99.3,780.8)" />
<use xlink:href="#f1_13" transform="matrix(10.4,0,0,10.4,128.4,780.8)" />
<use xlink:href="#f1_18" transform="matrix(10.4,0,0,10.4,140,780.8)" />
<use xlink:href="#f1_m" transform="matrix(7.4,0,0,7.4,151.5,786.1)" />
<use xlink:href="#f1_x" transform="matrix(10.4,0,0,10.4,164.2,780.8)" />
<use xlink:href="#f1_13" transform="matrix(10.4,0,0,10.4,180.1,780.8)" />
<use xlink:href="#f1_18" transform="matrix(10.4,0,0,10.4,191.7,780.8)" />
<use xlink:href="#f1_1jz" transform="matrix(10.4,0,0,10.4,209.6,780.8)" />
<use xlink:href="#f1_13" transform="matrix(10.4,0,0,10.4,225,780.8)" />
<use xlink:href="#f1_28" transform="matrix(10.4,0,0,10.4,236.6,780.8)" />
<use xlink:href="#f1_1x" transform="matrix(10.4,0,0,10.4,246.5,780.8)" />
<use xlink:href="#f1_2a" transform="matrix(10.4,0,0,10.4,255.3,780.8)" />
<use xlink:href="#f1_20" transform="matrix(10.4,0,0,10.4,264.1,780.8)" />
<use xlink:href="#f1_13" transform="matrix(10.4,0,0,10.4,279.5,780.8)" />
<use xlink:href="#f1_18" transform="matrix(10.4,0,0,10.4,291,780.8)" />
<use xlink:href="#f1_m" transform="matrix(7.4,0,0,7.4,302.6,786.1)" />
<use xlink:href="#f1_x" transform="matrix(10.4,0,0,10.4,315.4,780.8)" />
<use xlink:href="#f1_13" transform="matrix(10.4,0,0,10.4,331.2,780.8)" />
<use xlink:href="#f1_18" transform="matrix(10.4,0,0,10.4,342.7,780.8)" />
<use xlink:href="#f1_1jz" transform="matrix(10.4,0,0,10.4,360.9,780.8)" />
<use xlink:href="#f1_13" transform="matrix(10.4,0,0,10.4,376.3,780.8)" />
<use xlink:href="#f1_18" transform="matrix(10.4,0,0,10.4,387.8,780.8)" />
<use xlink:href="#f1_m" transform="matrix(7.4,0,0,7.4,399.4,786.1)" />
<use xlink:href="#f1_13" transform="matrix(10.4,0,0,10.4,405.6,780.8)" />
<use xlink:href="#f1_28" transform="matrix(10.4,0,0,10.4,417.2,780.8)" />
<use xlink:href="#f1_l" transform="matrix(10.4,0,0,10.4,41.9,810.9)" />
<use xlink:href="#f1_o" transform="matrix(10.4,0,0,10.4,51.1,810.9)" />
<use xlink:href="#f1_i" transform="matrix(10.4,0,0,10.4,60.4,810.9)" />
<use xlink:href="#f1_17" transform="matrix(10.4,0,0,10.4,85.2,810.9)" />
<use xlink:href="#f1_25" transform="matrix(10.4,0,0,10.4,97.6,810.9)" />
<use xlink:href="#f1_2i" transform="matrix(10.4,0,0,10.4,101.1,810.9)" />
<use xlink:href="#f1_21" transform="matrix(10.4,0,0,10.4,109,810.9)" />
<use xlink:href="#f1_2e" transform="matrix(10.4,0,0,10.4,125.7,810.9)" />
<use xlink:href="#f1_21" transform="matrix(10.4,0,0,10.4,131,810.9)" />
<use xlink:href="#f1_1x" transform="matrix(10.4,0,0,10.4,139.8,810.9)" />
<use xlink:href="#f1_2f" transform="matrix(10.4,0,0,10.4,148.6,810.9)" />
<use xlink:href="#f1_2b" transform="matrix(10.4,0,0,10.4,156.7,810.9)" />
<use xlink:href="#f1_2a" transform="matrix(10.4,0,0,10.4,165.5,810.9)" />
<use xlink:href="#f1_2f" transform="matrix(10.4,0,0,10.4,174.3,810.9)" />
<use xlink:href="#f1_22" transform="matrix(10.4,0,0,10.4,190,810.9)" />
<use xlink:href="#f1_2b" transform="matrix(10.4,0,0,10.4,194.6,810.9)" />
<use xlink:href="#f1_2e" transform="matrix(10.4,0,0,10.4,203.4,810.9)" />
<use xlink:href="#f1_2g" transform="matrix(10.4,0,0,10.4,216.6,810.9)" />
<use xlink:href="#f1_24" transform="matrix(10.4,0,0,10.4,221,810.9)" />
<use xlink:href="#f1_21" transform="matrix(10.4,0,0,10.4,229.8,810.9)" />
<use xlink:href="#f1_22" transform="matrix(10.4,0,0,10.4,246.3,810.9)" />
<use xlink:href="#f1_2b" transform="matrix(10.4,0,0,10.4,250.9,810.9)" />
<use xlink:href="#f1_28" transform="matrix(10.4,0,0,10.4,259.7,810.9)" />
<use xlink:href="#f1_28" transform="matrix(10.4,0,0,10.4,263.2,810.9)" />
<use xlink:href="#f1_2b" transform="matrix(10.4,0,0,10.4,266.6,810.9)" />
<use xlink:href="#f1_2j" transform="matrix(10.4,0,0,10.4,275.4,810.9)" />
<use xlink:href="#f1_25" transform="matrix(10.4,0,0,10.4,286.6,810.9)" />
<use xlink:href="#f1_2a" transform="matrix(10.4,0,0,10.4,290.1,810.9)" />
<use xlink:href="#f1_23" transform="matrix(10.4,0,0,10.4,298.9,810.9)" />
<use xlink:href="#f1_u" transform="matrix(10.4,0,0,10.4,315.6,810.9)" />
<use xlink:href="#f1_c" transform="matrix(10.4,0,0,10.4,85.2,840.9)" />
<use xlink:href="#f1_25" transform="matrix(10.4,0,0,10.4,90.9,840.9)" />
<use xlink:href="#f1_d" transform="matrix(10.4,0,0,10.4,94.7,840.9)" />
<use xlink:href="#f1_1k" transform="matrix(10.4,0,0,10.4,128.4,840.9)" />
<use xlink:href="#f1_24" transform="matrix(10.4,0,0,10.4,138.3,840.9)" />
<use xlink:href="#f1_21" transform="matrix(10.4,0,0,10.4,147.1,840.9)" />
<use xlink:href="#f1_1y" transform="matrix(10.4,0,0,10.4,162.9,840.9)" />
<use xlink:href="#f1_2b" transform="matrix(10.4,0,0,10.4,171.7,840.9)" />
<use xlink:href="#f1_2a" transform="matrix(10.4,0,0,10.4,180.5,840.9)" />
<use xlink:href="#f1_20" transform="matrix(10.4,0,0,10.4,189.3,840.9)" />
<use xlink:href="#f1_28" transform="matrix(10.4,0,0,10.4,205.2,840.9)" />
<use xlink:href="#f1_21" transform="matrix(10.4,0,0,10.4,208.7,840.9)" />
<use xlink:href="#f1_2a" transform="matrix(10.4,0,0,10.4,217.5,840.9)" />
<use xlink:href="#f1_23" transform="matrix(10.4,0,0,10.4,226.3,840.9)" />
<use xlink:href="#f1_2g" transform="matrix(10.4,0,0,10.4,235.1,840.9)" />
<use xlink:href="#f1_24" transform="matrix(10.4,0,0,10.4,239.5,840.9)" />
<use xlink:href="#f1_2b" transform="matrix(10.4,0,0,10.4,255.3,840.9)" />
<use xlink:href="#f1_22" transform="matrix(10.4,0,0,10.4,264.1,840.9)" />
<use xlink:href="#f1_13" transform="matrix(10.4,0,0,10.4,275.8,840.9)" />
<use xlink:href="#f1_1jz" transform="matrix(10.4,0,0,10.4,287.4,840.9)" />
<use xlink:href="#f1_13" transform="matrix(10.4,0,0,10.4,296.2,840.9)" />
<use xlink:href="#f1_28" transform="matrix(10.4,0,0,10.4,307.7,840.9)" />
<use xlink:href="#f1_1y" transform="matrix(10.4,0,0,10.4,318.2,840.9)" />
<use xlink:href="#f1_2b" transform="matrix(10.4,0,0,10.4,327,840.9)" />
<use xlink:href="#f1_2a" transform="matrix(10.4,0,0,10.4,335.8,840.9)" />
<use xlink:href="#f1_20" transform="matrix(10.4,0,0,10.4,344.6,840.9)" />
<use xlink:href="#f1_25" transform="matrix(10.4,0,0,10.4,360.3,840.9)" />
<use xlink:href="#f1_2f" transform="matrix(10.4,0,0,10.4,363.8,840.9)" />
<use xlink:href="#f1_28" transform="matrix(10.4,0,0,10.4,379,840.9)" />
<use xlink:href="#f1_1x" transform="matrix(10.4,0,0,10.4,382.5,840.9)" />
<use xlink:href="#f1_2e" transform="matrix(10.4,0,0,10.4,391.3,840.9)" />
<use xlink:href="#f1_23" transform="matrix(10.4,0,0,10.4,396.6,840.9)" />
<use xlink:href="#f1_21" transform="matrix(10.4,0,0,10.4,405.4,840.9)" />
<use xlink:href="#f1_2e" transform="matrix(10.4,0,0,10.4,414.2,840.9)" />
<use xlink:href="#f1_25" transform="matrix(10.4,0,0,10.4,426.5,840.9)" />
<use xlink:href="#f1_2a" transform="matrix(10.4,0,0,10.4,430,840.9)" />
<use xlink:href="#f1_24" transform="matrix(10.4,0,0,10.4,445.9,840.9)" />
<use xlink:href="#f1_1x" transform="matrix(10.4,0,0,10.4,454.7,840.9)" />
<use xlink:href="#f1_28" transform="matrix(10.4,0,0,10.4,463.5,840.9)" />
<use xlink:href="#f1_2b" transform="matrix(10.4,0,0,10.4,467,840.9)" />
<use xlink:href="#f1_1x" transform="matrix(10.4,0,0,10.4,475.8,840.9)" />
<use xlink:href="#f1_28" transform="matrix(10.4,0,0,10.4,484.6,840.9)" />
<use xlink:href="#f1_27" transform="matrix(10.4,0,0,10.4,488.1,840.9)" />
<use xlink:href="#f1_1x" transform="matrix(10.4,0,0,10.4,496.2,840.9)" />
<use xlink:href="#f1_2a" transform="matrix(10.4,0,0,10.4,505,840.9)" />
<use xlink:href="#f1_21" transform="matrix(10.4,0,0,10.4,513.8,840.9)" />
<use xlink:href="#f1_2f" transform="matrix(10.4,0,0,10.4,522.6,840.9)" />
<use xlink:href="#f1_2g" transform="matrix(10.4,0,0,10.4,537.6,840.9)" />
<use xlink:href="#f1_24" transform="matrix(10.4,0,0,10.4,542,840.9)" />
<use xlink:href="#f1_1x" transform="matrix(10.4,0,0,10.4,550.8,840.9)" />
<use xlink:href="#f1_2a" transform="matrix(10.4,0,0,10.4,559.6,840.9)" />
<use xlink:href="#f1_2g" transform="matrix(10.4,0,0,10.4,575.5,840.9)" />
<use xlink:href="#f1_24" transform="matrix(10.4,0,0,10.4,579.9,840.9)" />
<use xlink:href="#f1_1x" transform="matrix(10.4,0,0,10.4,588.7,840.9)" />
<use xlink:href="#f1_2g" transform="matrix(10.4,0,0,10.4,597.5,840.9)" />
<use xlink:href="#f1_25" transform="matrix(10.4,0,0,10.4,608.9,840.9)" />
<use xlink:href="#f1_2a" transform="matrix(10.4,0,0,10.4,612.4,840.9)" />
<use xlink:href="#f1_24" transform="matrix(10.4,0,0,10.4,128.4,861.8)" />
<use xlink:href="#f1_1x" transform="matrix(10.4,0,0,10.4,137.6,861.8)" />
<use xlink:href="#f1_28" transform="matrix(10.4,0,0,10.4,146.6,861.8)" />
<use xlink:href="#f1_2b" transform="matrix(10.4,0,0,10.4,150.4,861.8)" />
<use xlink:href="#f1_1x" transform="matrix(10.4,0,0,10.4,159.6,861.8)" />
<use xlink:href="#f1_2e" transform="matrix(10.4,0,0,10.4,168.6,861.8)" />
<use xlink:href="#f1_21" transform="matrix(10.4,0,0,10.4,174.3,861.8)" />
<use xlink:href="#f1_2a" transform="matrix(10.4,0,0,10.4,183.4,861.8)" />
<use xlink:href="#f1_21" transform="matrix(10.4,0,0,10.4,192.6,861.8)" />
<use xlink:href="#f1_2f" transform="matrix(10.4,0,0,10.4,201.6,861.8)" />
<use xlink:href="#f1_i" transform="matrix(10.4,0,0,10.4,210,861.8)" />
<use xlink:href="#f1_c" transform="matrix(10.4,0,0,10.4,85.2,891.7)" />
<use xlink:href="#f1_25" transform="matrix(10.4,0,0,10.4,90.7,891.7)" />
<use xlink:href="#f1_25" transform="matrix(10.4,0,0,10.4,94.5,891.7)" />
<use xlink:href="#f1_d" transform="matrix(10.4,0,0,10.4,98.2,891.7)" />
<use xlink:href="#f1_11" transform="matrix(10.4,0,0,10.4,128.4,891.7)" />
<use xlink:href="#f1_28" transform="matrix(10.4,0,0,10.4,139.2,891.7)" />
<use xlink:href="#f1_2g" transform="matrix(10.4,0,0,10.4,142.7,891.7)" />
<use xlink:href="#f1_24" transform="matrix(10.4,0,0,10.4,147.3,891.7)" />
<use xlink:href="#f1_2b" transform="matrix(10.4,0,0,10.4,156.1,891.7)" />
<use xlink:href="#f1_2h" transform="matrix(10.4,0,0,10.4,165.1,891.7)" />
<use xlink:href="#f1_23" transform="matrix(10.4,0,0,10.4,174.1,891.7)" />
<use xlink:href="#f1_24" transform="matrix(10.4,0,0,10.4,182.9,891.7)" />
<use xlink:href="#f1_1x" transform="matrix(10.4,0,0,10.4,200.7,891.7)" />
<use xlink:href="#f1_28" transform="matrix(10.4,0,0,10.4,209.6,891.7)" />
<use xlink:href="#f1_27" transform="matrix(10.4,0,0,10.4,213.3,891.7)" />
<use xlink:href="#f1_2l" transform="matrix(10.4,0,0,10.4,221.4,891.7)" />
<use xlink:href="#f1_28" transform="matrix(10.4,0,0,10.4,229.1,891.7)" />
<use xlink:href="#f1_24" transform="matrix(10.4,0,0,10.4,241.5,891.7)" />
<use xlink:href="#f1_1x" transform="matrix(10.4,0,0,10.4,250.5,891.7)" />
<use xlink:href="#f1_28" transform="matrix(10.4,0,0,10.4,259.3,891.7)" />
<use xlink:href="#f1_25" transform="matrix(10.4,0,0,10.4,263,891.7)" />
<use xlink:href="#f1_20" transform="matrix(10.4,0,0,10.4,266.6,891.7)" />
<use xlink:href="#f1_21" transform="matrix(10.4,0,0,10.4,275.4,891.7)" />
<use xlink:href="#f1_2f" transform="matrix(10.4,0,0,10.4,284.4,891.7)" />
<use xlink:href="#f1_1x" transform="matrix(10.4,0,0,10.4,301.5,891.7)" />
<use xlink:href="#f1_2e" transform="matrix(10.4,0,0,10.4,310.5,891.7)" />
<use xlink:href="#f1_21" transform="matrix(10.4,0,0,10.4,315.8,891.7)" />
<use xlink:href="#f1_2c" transform="matrix(10.4,0,0,10.4,333.5,891.7)" />
<use xlink:href="#f1_2b" transform="matrix(10.4,0,0,10.4,342.5,891.7)" />
<use xlink:href="#f1_28" transform="matrix(10.4,0,0,10.4,351.5,891.7)" />
<use xlink:href="#f1_1x" transform="matrix(10.4,0,0,10.4,355,891.7)" />
<use xlink:href="#f1_2e" transform="matrix(10.4,0,0,10.4,364,891.7)" />
<use xlink:href="#f1_25" transform="matrix(10.4,0,0,10.4,378.3,891.7)" />
<use xlink:href="#f1_2a" transform="matrix(10.4,0,0,10.4,381.9,891.7)" />
<use xlink:href="#f1_2a" transform="matrix(10.4,0,0,10.4,399.7,891.7)" />
<use xlink:href="#f1_1x" transform="matrix(10.4,0,0,10.4,408.7,891.7)" />
<use xlink:href="#f1_2g" transform="matrix(10.4,0,0,10.4,417.5,891.7)" />
<use xlink:href="#f1_2h" transform="matrix(10.4,0,0,10.4,422.1,891.7)" />
<use xlink:href="#f1_2e" transform="matrix(10.4,0,0,10.4,430.9,891.7)" />
<use xlink:href="#f1_21" transform="matrix(10.4,0,0,10.4,436.4,891.7)" />
<use xlink:href="#f1_1y" transform="matrix(10.4,0,0,10.4,454.2,891.7)" />
<use xlink:href="#f1_2h" transform="matrix(10.4,0,0,10.4,463.1,891.7)" />
<use xlink:href="#f1_2g" transform="matrix(10.4,0,0,10.4,471.9,891.7)" />
<use xlink:href="#f1_1x" transform="matrix(10.4,0,0,10.4,485.5,891.7)" />
<use xlink:href="#f1_2e" transform="matrix(10.4,0,0,10.4,494.3,891.7)" />
<use xlink:href="#f1_21" transform="matrix(10.4,0,0,10.4,499.8,891.7)" />
<use xlink:href="#f1_2a" transform="matrix(10.4,0,0,10.4,517.6,891.7)" />
<use xlink:href="#f1_2b" transform="matrix(10.4,0,0,10.4,526.6,891.7)" />
<use xlink:href="#f1_2g" transform="matrix(10.4,0,0,10.4,535.4,891.7)" />
<use xlink:href="#f1_2f" transform="matrix(10.4,0,0,10.4,548.9,891.7)" />
<use xlink:href="#f1_2b" transform="matrix(10.4,0,0,10.4,557,891.7)" />
<use xlink:href="#f1_28" transform="matrix(10.4,0,0,10.4,566,891.7)" />
<use xlink:href="#f1_2h" transform="matrix(10.4,0,0,10.4,569.5,891.7)" />
<use xlink:href="#f1_1y" transform="matrix(10.4,0,0,10.4,578.4,891.7)" />
<use xlink:href="#f1_28" transform="matrix(10.4,0,0,10.4,587.4,891.7)" />
<use xlink:href="#f1_21" transform="matrix(10.4,0,0,10.4,590.9,891.7)" />
<use xlink:href="#f1_25" transform="matrix(10.4,0,0,10.4,608.7,891.7)" />
<use xlink:href="#f1_2a" transform="matrix(10.4,0,0,10.4,612.3,891.7)" />
<use xlink:href="#f1_2j" transform="matrix(10.4,0,0,10.4,128.4,912.8)" />
<use xlink:href="#f1_1x" transform="matrix(10.4,0,0,10.4,139.6,912.8)" />
<use xlink:href="#f1_2g" transform="matrix(10.4,0,0,10.4,148.6,912.8)" />
<use xlink:href="#f1_21" transform="matrix(10.4,0,0,10.4,153,912.8)" />
<use xlink:href="#f1_2e" transform="matrix(10.4,0,0,10.4,162,912.8)" />
<use xlink:href="#f1_i" transform="matrix(10.4,0,0,10.4,166.4,912.8)" />
<use xlink:href="#f2_q" transform="matrix(12,0,0,12,665.7,1032.4)" />
</g>
<g fill="#0080FF" fill-opacity="0.5" >
<use xlink:href="#f0_1c" transform="matrix(38.6,0,0,38.6,185.2,1050.5)" />
<use xlink:href="#f0_21" transform="matrix(38.6,0,0,38.6,218,1050.5)" />
<use xlink:href="#f0_1x" transform="matrix(38.6,0,0,38.6,250.8,1050.5)" />
<use xlink:href="#f0_2e" transform="matrix(38.6,0,0,38.6,283.7,1050.5)" />
<use xlink:href="#f0_2a" transform="matrix(38.6,0,0,38.6,303.3,1050.5)" />
<use xlink:href="#f0_17" transform="matrix(38.6,0,0,38.6,336.1,1050.5)" />
<use xlink:href="#f0_2h" transform="matrix(38.6,0,0,38.6,382,1050.5)" />
<use xlink:href="#f0_25" transform="matrix(38.6,0,0,38.6,414.8,1050.5)" />
<use xlink:href="#f0_20" transform="matrix(38.6,0,0,38.6,427.9,1050.5)" />
<use xlink:href="#f0_21" transform="matrix(38.6,0,0,38.6,460.7,1050.5)" />
<use xlink:href="#f0_i" transform="matrix(38.6,0,0,38.6,493.5,1050.5)" />
<use xlink:href="#f0_25" transform="matrix(38.6,0,0,38.6,509.9,1050.5)" />
<use xlink:href="#f0_2a" transform="matrix(38.6,0,0,38.6,523,1050.5)" />
</g>
<defs>
<path d="M593,101c0,0,182,0,279,112c0,0,98,113,98,318c0,0,0,196,-98,308c0,0,-98,112,-277,112c0,0,-181,0,-279,-110c0,0,-99,-111,-99,-310c0,0,0,-198,100,-314c0,0,99,-116,276,-116Zm0,-115c0,0,-162,0,-279,65c0,0,-118,66,-180,190c0,0,-62,124,-62,290c0,0,0,252,138,394c0,0,138,142,385,142c0,0,160,0,278,-64c0,0,118,-64,180,-185c0,0,62,-122,62,-287c0,0,0,-165,-63,-289c0,0,-63,-124,-181,-190c0,0,-118,-66,-278,-66Z" 
id="f0_1f"
transform="scale(0.001,-0.001)" />

<path d="M106,0V635c0,0,0,141,-5,173H228c0,0,1,-4,2,-21c0,0,1,-16,2,-37c0,0,1,-22,2,-81h2c0,0,47,84,108,119c0,0,60,34,151,34c0,0,132,0,194,-66c0,0,61,-66,61,-218V0H615V512c0,0,0,80,-15,124c0,0,-16,44,-50,63c0,0,-35,20,-101,20c0,0,-97,0,-153,-67c0,0,-56,-66,-56,-184V0Z" 
id="f0_2a"
transform="scale(0.001,-0.001)" />

<path d="M103,0V1107H237V0Z" 
id="f0_28"
transform="scale(0.001,-0.001)" />

<path d="M102,0V808H236V0Zm0,979v128H236V979Z" 
id="f0_25"
transform="scale(0.001,-0.001)" />

<path d="M643,478c0,0,-11,128,-65,187c0,0,-54,59,-154,59c0,0,-98,0,-155,-66c0,0,-57,-65,-62,-180ZM431,-14c0,0,-179,0,-272,106c0,0,-94,107,-94,317c0,0,0,200,94,307c0,0,93,106,267,106c0,0,356,0,356,-429V375H206c0,0,0,-138,57,-213c0,0,58,-75,168,-75c0,0,87,0,140,35c0,0,53,35,71,88L760,177c0,0,-72,-191,-329,-191Z" 
id="f0_21"
transform="scale(0.001,-0.001)" />

<path d="M17,0L304,415L31,808H179L380,493L580,808H730L457,417L747,0H598L380,331L162,0Z" 
id="f0_2k"
transform="scale(0.001,-0.001)" />

<path d="M339,87c0,0,74,0,132,34c0,0,57,33,90,91c0,0,34,59,34,121v66L448,396c0,0,-95,-2,-144,-19c0,0,-49,-18,-75,-55c0,0,-26,-38,-26,-98c0,0,0,-65,35,-101c0,0,36,-36,101,-36ZM309,-14c0,0,-122,0,-183,64c0,0,-61,64,-61,176c0,0,0,125,82,192c0,0,83,67,266,72l182,3v44c0,0,0,98,-42,141c0,0,-42,43,-132,43c0,0,-90,0,-131,-31c0,0,-41,-31,-49,-98L101,604c0,0,34,218,323,218c0,0,153,0,229,-70c0,0,77,-69,77,-202V202c0,0,0,-59,16,-90c0,0,16,-30,60,-30c0,0,19,0,44,5V4C850,4,799,-7,746,-7c0,0,-75,0,-109,38c0,0,-33,40,-38,124h-4C595,155,543,62,475,24c0,0,-68,-38,-166,-38Z" 
id="f0_1x"
transform="scale(0.001,-0.001)" />

<path d="M106,0V635c0,0,0,141,-5,173H228c0,0,1,-4,2,-21c0,0,1,-16,2,-37c0,0,1,-22,2,-81h2c0,0,44,86,100,120c0,0,56,33,136,33c0,0,92,0,145,-36c0,0,54,-37,75,-117h2c0,0,42,82,101,117c0,0,59,36,143,36c0,0,123,0,178,-66c0,0,56,-67,56,-218V0H1039V512c0,0,0,117,-32,162c0,0,-32,45,-116,45c0,0,-88,0,-136,-66c0,0,-49,-65,-49,-185V0H573V512c0,0,0,117,-32,162c0,0,-32,45,-116,45c0,0,-86,0,-136,-66c0,0,-50,-66,-50,-185V0Z" 
id="f0_29"
transform="scale(0.001,-0.001)" />

<path d="M453,84c0,0,100,0,146,74c0,0,46,73,46,247c0,0,0,169,-46,241c0,0,-45,73,-145,73c0,0,-80,0,-125,-34c0,0,-45,-34,-68,-105c0,0,-24,-71,-24,-186c0,0,0,-159,51,-234c0,0,51,-76,165,-76ZM103,-316V643c0,0,0,124,-5,165H228c0,0,1,-3,3,-22c0,0,1,-18,3,-56c0,0,2,-38,2,-52h3c0,0,36,75,94,110c0,0,59,34,156,34c0,0,149,0,223,-100c0,0,74,-100,74,-314c0,0,0,-422,-297,-422c0,0,-187,0,-251,140h-4c0,0,3,-6,3,-126V-316Z" 
id="f0_2c"
transform="scale(0.001,-0.001)" />

<path d="M420,84c0,0,121,0,173,78c0,0,52,77,52,243c0,0,0,167,-50,243c0,0,-50,76,-167,76c0,0,-118,0,-170,-78c0,0,-53,-77,-53,-241c0,0,0,-160,52,-241c0,0,52,-80,163,-80Zm1,-98c0,0,-176,0,-267,107c0,0,-90,108,-90,312c0,0,0,417,362,417c0,0,185,0,272,-102c0,0,88,-101,88,-315c0,0,0,-212,-94,-316C692,89,599,-14,421,-14Z" 
id="f0_2b"
transform="scale(0.001,-0.001)" />

<path d="M278,-11c0,0,-162,0,-162,182V710H23v98h99l39,181h90V808H400V710H251V200c0,0,0,-58,19,-82c0,0,19,-23,66,-23c0,0,27,0,77,10V6c0,0,-66,-17,-135,-17Z" 
id="f0_2g"
transform="scale(0.001,-0.001)" />

<path d="M116,0V114H384V923L147,754V881l248,170H519V114H775V0Z" 
id="f1_l"
transform="scale(0.001,-0.001)" />

<path d="M77,0V95c0,0,38,87,93,154c0,0,55,67,115,121c0,0,60,54,120,100c0,0,59,46,107,93c0,0,47,46,77,97c0,0,29,50,29,114c0,0,0,87,-50,135c0,0,-51,47,-141,47c0,0,-86,0,-142,-46c0,0,-55,-47,-65,-131L83,791c0,0,15,126,107,201c0,0,92,75,237,75c0,0,159,0,244,-75c0,0,85,-75,85,-213c0,0,0,-61,-28,-122c0,0,-28,-60,-83,-120c0,0,-55,-61,-211,-188c0,0,-86,-70,-136,-126c0,0,-51,-56,-73,-109H773V0Z" 
id="f1_m"
transform="scale(0.001,-0.001)" />

<path d="M140,0V163H285V0Z" 
id="f1_i"
transform="scale(0.001,-0.001)" />

<path d="M316,0L7,1051H155L344,383c0,0,33,-125,62,-258c0,0,18,82,41,179c0,0,24,97,207,747H791L974,397c0,0,41,-160,65,-272l7,26c0,0,20,86,33,140c0,0,12,54,209,760h149L1127,0H957L775,668c0,0,-18,62,-52,224c0,0,-20,-86,-33,-145C690,747,677,689,486,0Z" 
id="f1_1n"
transform="scale(0.001,-0.001)" />

<path d="M615,0V512c0,0,0,85,-15,126c0,0,-16,42,-52,61c0,0,-36,20,-99,20c0,0,-95,0,-152,-66c0,0,-57,-66,-57,-177V0H106V1107H240V819c0,0,0,-45,-2,-94c0,0,-3,-48,-4,-56h2c0,0,44,79,105,116c0,0,60,37,154,37c0,0,131,0,193,-65c0,0,62,-65,62,-219V0Z" 
id="f1_24"
transform="scale(0.001,-0.001)" />

<path d="M102,0V808H236V0Zm0,979v128H236V979Z" 
id="f1_25"
transform="scale(0.001,-0.001)" />

<path d="M413,-14c0,0,-170,0,-259,106c0,0,-89,107,-89,313c0,0,0,203,89,310c0,0,90,107,257,107c0,0,124,0,206,-64c0,0,81,-64,102,-177L581,571c0,0,-10,67,-53,106c0,0,-42,40,-121,40c0,0,-106,0,-154,-71c0,0,-48,-71,-48,-239c0,0,0,-161,51,-238c0,0,51,-78,153,-78c0,0,71,0,120,39c0,0,48,39,59,119l136,-9C724,240,708,124,624,55c0,0,-83,-69,-211,-69Z" 
id="f1_1z"
transform="scale(0.001,-0.001)" />

<path d="M420,84c0,0,121,0,173,78c0,0,52,77,52,243c0,0,0,167,-50,243c0,0,-50,76,-167,76c0,0,-118,0,-170,-78c0,0,-53,-77,-53,-241c0,0,0,-160,52,-241c0,0,52,-80,163,-80Zm1,-98c0,0,-176,0,-267,107c0,0,-90,108,-90,312c0,0,0,417,362,417c0,0,185,0,272,-102c0,0,88,-101,88,-315c0,0,0,-212,-94,-316C692,89,599,-14,421,-14Z" 
id="f1_2b"
transform="scale(0.001,-0.001)" />

<path d="M106,0V635c0,0,0,141,-5,173H228c0,0,1,-4,2,-21c0,0,1,-16,2,-37c0,0,1,-22,2,-81h2c0,0,44,86,100,120c0,0,56,33,136,33c0,0,92,0,145,-36c0,0,54,-37,75,-117h2c0,0,42,82,101,117c0,0,59,36,143,36c0,0,123,0,178,-66c0,0,56,-67,56,-218V0H1039V512c0,0,0,117,-32,162c0,0,-32,45,-116,45c0,0,-88,0,-136,-66c0,0,-49,-65,-49,-185V0H573V512c0,0,0,117,-32,162c0,0,-32,45,-116,45c0,0,-86,0,-136,-66c0,0,-50,-66,-50,-185V0Z" 
id="f1_29"
transform="scale(0.001,-0.001)" />

<path d="M453,84c0,0,100,0,146,74c0,0,46,73,46,247c0,0,0,169,-46,241c0,0,-45,73,-145,73c0,0,-80,0,-125,-34c0,0,-45,-34,-68,-105c0,0,-24,-71,-24,-186c0,0,0,-159,51,-234c0,0,51,-76,165,-76ZM103,-316V643c0,0,0,124,-5,165H228c0,0,1,-3,3,-22c0,0,1,-18,3,-56c0,0,2,-38,2,-52h3c0,0,36,75,94,110c0,0,59,34,156,34c0,0,149,0,223,-100c0,0,74,-100,74,-314c0,0,0,-422,-297,-422c0,0,-187,0,-251,140h-4c0,0,3,-6,3,-126V-316Z" 
id="f1_2c"
transform="scale(0.001,-0.001)" />

<path d="M355,-14c0,0,-133,0,-194,65c0,0,-62,66,-62,219V808H234V296c0,0,0,-80,16,-124c0,0,16,-44,50,-64c0,0,34,-19,101,-19c0,0,97,0,153,66c0,0,55,67,55,185V808H744V172c0,0,0,-141,4,-172H621c0,0,0,4,-1,20c0,0,-1,17,-2,38c0,0,-1,21,-3,80h-2C613,138,567,55,506,20c0,0,-61,-34,-151,-34Z" 
id="f1_2h"
transform="scale(0.001,-0.001)" />

<path d="M106,0V635c0,0,0,141,-5,173H228c0,0,1,-4,2,-21c0,0,1,-16,2,-37c0,0,1,-22,2,-81h2c0,0,47,84,108,119c0,0,60,34,151,34c0,0,132,0,194,-66c0,0,61,-66,61,-218V0H615V512c0,0,0,80,-15,124c0,0,-16,44,-50,63c0,0,-35,20,-101,20c0,0,-97,0,-153,-67c0,0,-56,-66,-56,-184V0Z" 
id="f1_2a"
transform="scale(0.001,-0.001)" />

<path d="M395,89c0,0,115,0,166,79c0,0,51,79,51,246c0,0,0,160,-51,235c0,0,-51,75,-164,75c0,0,-102,0,-147,-75c0,0,-45,-75,-45,-244c0,0,0,-170,45,-243c0,0,45,-73,145,-73ZM361,-14c0,0,-153,0,-225,102c0,0,-72,103,-72,312c0,0,0,422,297,422c0,0,92,0,153,-33c0,0,61,-34,98,-107h2l-2,90v335H747V166c0,0,0,-126,4,-166H623c0,0,-2,12,-5,55c0,0,-3,44,-3,75h-3c0,0,-37,-78,-98,-111c0,0,-62,-33,-153,-33Z" 
id="f1_20"
transform="scale(0.001,-0.001)" />

<path d="M643,478c0,0,-11,128,-65,187c0,0,-54,59,-154,59c0,0,-98,0,-155,-66c0,0,-57,-65,-62,-180ZM431,-14c0,0,-179,0,-272,106c0,0,-94,107,-94,317c0,0,0,200,94,307c0,0,93,106,267,106c0,0,356,0,356,-429V375H206c0,0,0,-138,57,-213c0,0,58,-75,168,-75c0,0,87,0,140,35c0,0,53,35,71,88L760,177c0,0,-72,-191,-329,-191Z" 
id="f1_21"
transform="scale(0.001,-0.001)" />

<path d="M339,87c0,0,74,0,132,34c0,0,57,33,90,91c0,0,34,59,34,121v66L448,396c0,0,-95,-2,-144,-19c0,0,-49,-18,-75,-55c0,0,-26,-38,-26,-98c0,0,0,-65,35,-101c0,0,36,-36,101,-36ZM309,-14c0,0,-122,0,-183,64c0,0,-61,64,-61,176c0,0,0,125,82,192c0,0,83,67,266,72l182,3v44c0,0,0,98,-42,141c0,0,-42,43,-132,43c0,0,-90,0,-131,-31c0,0,-41,-31,-49,-98L101,604c0,0,34,218,323,218c0,0,153,0,229,-70c0,0,77,-69,77,-202V202c0,0,0,-59,16,-90c0,0,16,-30,60,-30c0,0,19,0,44,5V4C850,4,799,-7,746,-7c0,0,-75,0,-109,38c0,0,-33,40,-38,124h-4C595,155,543,62,475,24c0,0,-68,-38,-166,-38Z" 
id="f1_1x"
transform="scale(0.001,-0.001)" />

<path d="M135,0V710H22v98H135v91c0,0,0,110,49,158c0,0,48,49,148,49c0,0,56,0,95,-9V994c0,0,-34,6,-60,6c0,0,-51,0,-75,-26c0,0,-23,-26,-23,-94V808H427V710H269V0Z" 
id="f1_22"
transform="scale(0.001,-0.001)" />

<path d="M278,-11c0,0,-162,0,-162,182V710H23v98h99l39,181h90V808H400V710H251V200c0,0,0,-58,19,-82c0,0,19,-23,66,-23c0,0,27,0,77,10V6c0,0,-66,-17,-135,-17Z" 
id="f1_2g"
transform="scale(0.001,-0.001)" />

<path d="M103,0V1107H237V0Z" 
id="f1_28"
transform="scale(0.001,-0.001)" />

<path d="M224,0L-1,808H131L267,259c0,0,5,-18,32,-147l13,55L480,808H624L765,253L800,112l23,103L976,808h131L876,0H720L579,571L552,697c0,0,-7,-33,-21,-96C531,601,517,537,379,0Z" 
id="f1_2j"
transform="scale(0.001,-0.001)" />

<path d="M398,93c0,0,63,0,112,37c0,0,49,38,76,107c0,0,27,70,27,166c0,0,0,99,-27,170c0,0,-27,71,-75,109c0,0,-49,38,-111,38c0,0,-103,0,-150,-75c0,0,-47,-75,-47,-242c0,0,0,-165,44,-238c0,0,44,-72,151,-72Zm11,-409c0,0,-132,0,-211,52c0,0,-78,52,-100,147l135,20c0,0,13,-56,59,-87c0,0,46,-30,121,-30c0,0,200,0,200,234V150h-1C612,150,574,72,507,33C507,33,441,-5,352,-5c0,0,-148,0,-218,98c0,0,-70,98,-70,309c0,0,0,214,75,316c0,0,75,101,228,101c0,0,86,0,149,-39c0,0,63,-39,97,-111h2c0,0,0,22,3,78c0,0,3,55,6,61H751c0,0,-4,-41,-4,-167V23c0,0,0,-339,-338,-339Z" 
id="f1_23"
transform="scale(0.001,-0.001)" />

<path d="M106,0V620c0,0,0,85,-5,188H228c0,0,6,-138,6,-165h3c0,0,32,103,74,141c0,0,42,38,118,38c0,0,27,0,54,-7V692c0,0,-26,7,-71,7c0,0,-84,0,-128,-72c0,0,-44,-72,-44,-206V0Z" 
id="f1_2e"
transform="scale(0.001,-0.001)" />

<path d="M381,-14c0,0,-150,0,-232,49C149,35,67,85,43,190l118,23c0,0,17,-65,71,-96c0,0,54,-30,149,-30c0,0,102,0,150,31c0,0,47,32,47,95c0,0,0,47,-33,77c0,0,-33,30,-106,49l-96,26c0,0,-115,30,-164,58c0,0,-49,29,-77,70c0,0,-27,41,-27,101c0,0,0,110,78,168c0,0,79,57,230,57c0,0,133,0,212,-47c0,0,79,-47,100,-150L574,607c0,0,-12,53,-60,82c0,0,-49,29,-131,29c0,0,-91,0,-135,-28c0,0,-43,-27,-43,-83c0,0,0,-34,18,-57c0,0,18,-22,53,-38c0,0,35,-15,148,-43c0,0,106,-27,153,-50c0,0,47,-22,75,-50c0,0,27,-27,42,-64c0,0,15,-36,15,-82c0,0,0,-114,-86,-176c0,0,-87,-61,-242,-61Z" 
id="f1_2f"
transform="scale(0.001,-0.001)" />

<path d="M515,-14c0,0,-384,0,-446,266l138,28c0,0,24,-95,102,-139c0,0,77,-44,211,-44c0,0,138,0,213,47c0,0,75,47,75,139c0,0,0,51,-24,83c0,0,-23,33,-66,53c0,0,-42,21,-101,35c0,0,-59,15,-131,31c0,0,-124,28,-189,55c0,0,-64,28,-102,62c0,0,-37,34,-57,79c0,0,-19,46,-19,105c0,0,0,135,103,208c0,0,103,73,296,73c0,0,179,0,273,-55c0,0,95,-55,133,-187L784,800c0,0,-23,84,-88,122c0,0,-65,37,-180,37c0,0,-126,0,-192,-42c0,0,-67,-41,-67,-124c0,0,0,-48,26,-80c0,0,26,-32,74,-54c0,0,49,-22,194,-54c0,0,48,-11,96,-23c0,0,48,-11,92,-27c0,0,44,-16,83,-38c0,0,38,-22,66,-53c0,0,29,-31,45,-74c0,0,16,-42,16,-100c0,0,0,-145,-114,-225c0,0,-114,-79,-320,-79Z" 
id="f1_1j"
transform="scale(0.001,-0.001)" />

<path d="M125,0V1051H291L859,150c0,0,-9,146,-9,212v689H979V0H807L245,895l3,-72l4,-125V0Z" 
id="f1_1e"
transform="scale(0.001,-0.001)" />

<path d="M593,101c0,0,182,0,279,112c0,0,98,113,98,318c0,0,0,196,-98,308c0,0,-98,112,-277,112c0,0,-181,0,-279,-110c0,0,-99,-111,-99,-310c0,0,0,-198,100,-314c0,0,99,-116,276,-116Zm0,-115c0,0,-162,0,-279,65c0,0,-118,66,-180,190c0,0,-62,124,-62,290c0,0,0,252,138,394c0,0,138,142,385,142c0,0,160,0,278,-64c0,0,118,-64,180,-185c0,0,62,-122,62,-287c0,0,0,-165,-63,-289c0,0,-63,-124,-181,-190c0,0,-118,-66,-278,-66Z" 
id="f1_1f"
transform="scale(0.001,-0.001)" />

<path d="M125,0V1051H268V606H836v445H979V0H836V487H268V0Z" 
id="f1_18"
transform="scale(0.001,-0.001)" />

<path d="M0,336V439H849V336Z" 
id="f1_1jz"
transform="scale(0.001,-0.001)" />

<path d="M142,-316c0,0,-55,0,-92,8v101c0,0,28,-4,63,-4c0,0,125,0,198,184L324,4L4,808H147L317,362c0,0,4,-11,9,-25c0,0,5,-15,34,-98c0,0,28,-83,30,-92l52,147L619,808H761L451,0c0,0,-50,-128,-94,-191c0,0,-43,-63,-96,-94c0,0,-52,-31,-119,-31Z" 
id="f1_2l"
transform="scale(0.001,-0.001)" />

<path d="M327,0V150H472V0Zm6,281c0,0,1,51,16,90c0,0,14,39,37,69c0,0,24,30,53,53c0,0,29,24,59,45c0,0,29,21,58,42c0,0,29,22,51,48c0,0,23,26,36,59c0,0,14,33,14,77c0,0,0,85,-58,134c0,0,-57,49,-162,49c0,0,-104,0,-165,-52c0,0,-62,-52,-72,-143L63,761c0,0,19,148,116,227c0,0,97,79,257,79c0,0,166,0,261,-79c0,0,96,-79,96,-218c0,0,0,-56,-16,-100c0,0,-17,-44,-47,-82c0,0,-31,-37,-100,-88L570,456c0,0,-54,-39,-80,-82c0,0,-26,-43,-27,-93Z" 
id="f1_z"
transform="scale(0.001,-0.001)" />

<path d="M370,-316c0,0,-141,152,-208,323C162,7,95,179,95,394v3c0,0,0,215,67,387c0,0,68,171,208,323H500c0,0,-140,-155,-205,-330c0,0,-65,-175,-65,-382c0,0,0,-207,64,-381c0,0,65,-172,206,-330Z" 
id="f1_c"
transform="scale(0.001,-0.001)" />

<path d="M9,-316c0,0,140,157,205,329c0,0,65,174,65,382c0,0,0,208,-65,382c0,0,-66,174,-205,330H139c0,0,141,-152,208,-324c0,0,67,-172,67,-386v-3c0,0,0,-216,-67,-388c0,0,-68,-170,-208,-322Z" 
id="f1_d"
transform="scale(0.001,-0.001)" />

<path d="M590,-14c0,0,-159,0,-275,65c0,0,-116,66,-177,189c0,0,-60,123,-60,291c0,0,0,251,135,393c0,0,136,143,376,143c0,0,168,0,281,-66c0,0,112,-66,165,-195L900,762c0,0,-36,92,-117,141c0,0,-81,48,-192,48c0,0,-175,0,-272,-112c0,0,-97,-112,-97,-308c0,0,0,-193,101,-311c0,0,101,-117,274,-117c0,0,221,0,332,218l116,-58c0,0,-65,-136,-182,-207c0,0,-118,-70,-273,-70Z" 
id="f1_13"
transform="scale(0.001,-0.001)" />

<path d="M426,-14c0,0,-160,0,-255,71c0,0,-95,72,-113,213l139,13c0,0,27,-187,229,-187c0,0,101,0,159,50c0,0,58,50,58,149c0,0,0,86,-66,134c0,0,-66,48,-191,48H310V594h73c0,0,111,0,172,48c0,0,60,48,60,133c0,0,0,84,-49,132c0,0,-50,49,-147,49c0,0,-89,0,-144,-45c0,0,-55,-46,-64,-129L76,793c0,0,15,129,107,201c0,0,92,73,237,73c0,0,158,0,246,-74c0,0,87,-73,87,-204c0,0,0,-101,-56,-164c0,0,-56,-63,-164,-85v-3c0,0,118,-13,184,-79c0,0,66,-67,66,-167c0,0,0,-146,-93,-226c0,0,-92,-79,-264,-79Z" 
id="f1_n"
transform="scale(0.001,-0.001)" />

<path d="M545,114c0,0,130,0,190,49c0,0,59,48,59,144c0,0,0,186,-261,186H268V114ZM507,604c0,0,114,0,171,43c0,0,56,43,56,132c0,0,0,85,-58,121c0,0,-58,37,-169,37H268V604ZM125,0V1051H507c0,0,370,0,370,-255c0,0,0,-93,-52,-157c0,0,-52,-63,-148,-85c0,0,126,-15,194,-84c0,0,67,-69,67,-174c0,0,0,-140,-102,-218C836,78,734,0,552,0Z" 
id="f1_12"
transform="scale(0.001,-0.001)" />

<path d="M141,0V1051H283V0Z" 
id="f1_19"
transform="scale(0.001,-0.001)" />

<path d="M439,94c0,0,97,0,152,65c0,0,55,65,55,179c0,0,0,114,-56,176c0,0,-56,62,-156,62c0,0,-94,0,-152,-55c0,0,-57,-55,-57,-151c0,0,0,-121,60,-199c0,0,60,-77,154,-77Zm4,-108c0,0,-177,0,-271,131c0,0,-94,132,-94,384c0,0,0,273,97,420c0,0,98,146,279,146c0,0,238,0,299,-214L625,830c0,0,-39,128,-173,128c0,0,-115,0,-178,-107c0,0,-63,-107,-63,-310c0,0,37,68,103,103c0,0,66,36,152,36c0,0,146,0,231,-91c0,0,86,-91,86,-245c0,0,0,-166,-91,-262c0,0,-90,-96,-249,-96Z" 
id="f1_q"
transform="scale(0.001,-0.001)" />

<path d="M413,-14c0,0,-147,0,-238,64c0,0,-90,64,-114,185l136,16c0,0,42,-155,219,-155c0,0,108,0,169,65c0,0,61,65,61,179c0,0,0,98,-62,159c0,0,-61,61,-165,61c0,0,-55,0,-102,-17c0,0,-47,-17,-94,-58H92l35,566H724V937H249L229,604c0,0,87,67,217,67c0,0,155,0,247,-91c0,0,93,-91,93,-237c0,0,0,-167,-99,-262c0,0,-99,-95,-274,-95Z" 
id="f1_p"
transform="scale(0.001,-0.001)" />

<path d="M298,0L5,808H148L326,282c0,0,10,-29,51,-176l27,87l29,88L616,808H759L457,0Z" 
id="f1_2i"
transform="scale(0.001,-0.001)" />

<path d="M75,256V367H817V256Zm0,383V749H817V639Z" 
id="f1_x"
transform="scale(0.001,-0.001)" />

<path d="M530,344V900c0,0,-1,-5,-20,-40c0,0,-20,-35,-30,-49L211,414L171,359L159,344ZM530,0V239H35V343l481,708H657V344H805V239H657V0Z" 
id="f1_o"
transform="scale(0.001,-0.001)" />

<path d="M606,-14c0,0,-164,0,-284,65c0,0,-119,66,-182,189c0,0,-63,123,-63,291c0,0,0,255,137,396c0,0,137,140,386,140c0,0,174,0,283,-59c0,0,109,-59,168,-189L915,779c0,0,-44,90,-123,131c0,0,-79,41,-196,41c0,0,-182,0,-278,-110c0,0,-96,-110,-96,-310c0,0,0,-200,102,-315c0,0,102,-115,282,-115c0,0,103,0,193,31c0,0,89,31,144,85V407H629V526h445V164c0,0,-83,-85,-205,-132c0,0,-121,-46,-263,-46Z" 
id="f1_17"
transform="scale(0.001,-0.001)" />

<path d="M140,0V154H285V0Zm0,653V808H285V653Z" 
id="f1_u"
transform="scale(0.001,-0.001)" />

<path d="M395,0V936H34v115H898V936H537V0Z" 
id="f1_1k"
transform="scale(0.001,-0.001)" />

<path d="M453,84c0,0,101,0,146,75c0,0,46,75,46,244c0,0,0,169,-45,243c0,0,-45,73,-146,73c0,0,-113,0,-165,-78c0,0,-52,-78,-52,-246c0,0,0,-159,51,-235c0,0,51,-76,165,-76Zm36,-98c0,0,-92,0,-153,33c0,0,-61,33,-99,107h-1c0,0,0,-24,-3,-71c0,0,-3,-48,-5,-55H98c0,0,5,40,5,166v941H237V792c0,0,0,-49,-3,-114h3c0,0,38,77,99,111c0,0,62,33,153,33c0,0,153,0,225,-103c0,0,72,-103,72,-311c0,0,0,-422,-297,-422Z" 
id="f1_1y"
transform="scale(0.001,-0.001)" />

<path d="M103,0V1107H237V416L592,808H749L421,461L766,0H609L336,369L237,287V0Z" 
id="f1_27"
transform="scale(0.001,-0.001)" />

<path d="M708,418L573,765c0,0,-21,52,-42,117l-20,62l-7,-21c0,0,-18,-62,-55,-159L315,418ZM3,0L432,1051H594L1016,0H871L750,307H272L151,0Z" 
id="f1_11"
transform="scale(0.001,-0.001)" />

<path d="M435,92c0,0,86,0,147,69c0,0,60,68,60,186c0,0,0,114,-60,179c0,0,-60,66,-152,66c0,0,-91,0,-154,-66c0,0,-64,-65,-64,-171c0,0,0,-70,30,-133c0,0,29,-64,82,-97c0,0,52,-33,111,-33Zm3,-110c0,0,-168,0,-274,123C164,105,58,228,58,512c0,0,0,317,117,461c0,0,102,125,275,125c0,0,129,0,212,-72c0,0,82,-72,99,-200L627,815c0,0,-18,79,-51,115c0,0,-54,58,-134,58c0,0,-64,0,-113,-36c0,0,-63,-46,-99,-135c0,0,-37,-89,-38,-253c0,0,48,74,118,110c0,0,70,36,147,36c0,0,135,0,229,-99c0,0,94,-99,94,-256c0,0,0,-103,-44,-191C736,164,691,75,614,28c0,0,-78,-46,-176,-46Z" 
id="f2_q"
transform="scale(0.001,-0.001)" />

<path d="M125,0V1051H268V115H799V0Z" 
id="f0_1c"
transform="scale(0.001,-0.001)" />

<path d="M106,0V620c0,0,0,85,-5,188H228c0,0,6,-138,6,-165h3c0,0,32,103,74,141c0,0,42,38,118,38c0,0,27,0,54,-7V692c0,0,-26,7,-71,7c0,0,-84,0,-128,-72c0,0,-44,-72,-44,-206V0Z" 
id="f0_2e"
transform="scale(0.001,-0.001)" />

<path d="M606,-14c0,0,-164,0,-284,65c0,0,-119,66,-182,189c0,0,-63,123,-63,291c0,0,0,255,137,396c0,0,137,140,386,140c0,0,174,0,283,-59c0,0,109,-59,168,-189L915,779c0,0,-44,90,-123,131c0,0,-79,41,-196,41c0,0,-182,0,-278,-110c0,0,-96,-110,-96,-310c0,0,0,-200,102,-315c0,0,102,-115,282,-115c0,0,103,0,193,31c0,0,89,31,144,85V407H629V526h445V164c0,0,-83,-85,-205,-132c0,0,-121,-46,-263,-46Z" 
id="f0_17"
transform="scale(0.001,-0.001)" />

<path d="M355,-14c0,0,-133,0,-194,65c0,0,-62,66,-62,219V808H234V296c0,0,0,-80,16,-124c0,0,16,-44,50,-64c0,0,34,-19,101,-19c0,0,97,0,153,66c0,0,55,67,55,185V808H744V172c0,0,0,-141,4,-172H621c0,0,0,4,-1,20c0,0,-1,17,-2,38c0,0,-1,21,-3,80h-2C613,138,567,55,506,20c0,0,-61,-34,-151,-34Z" 
id="f0_2h"
transform="scale(0.001,-0.001)" />

<path d="M395,89c0,0,115,0,166,79c0,0,51,79,51,246c0,0,0,160,-51,235c0,0,-51,75,-164,75c0,0,-102,0,-147,-75c0,0,-45,-75,-45,-244c0,0,0,-170,45,-243c0,0,45,-73,145,-73ZM361,-14c0,0,-153,0,-225,102c0,0,-72,103,-72,312c0,0,0,422,297,422c0,0,92,0,153,-33c0,0,61,-34,98,-107h2l-2,90v335H747V166c0,0,0,-126,4,-166H623c0,0,-2,12,-5,55c0,0,-3,44,-3,75h-3c0,0,-37,-78,-98,-111c0,0,-62,-33,-153,-33Z" 
id="f0_20"
transform="scale(0.001,-0.001)" />

<path d="M140,0V163H285V0Z" 
id="f0_i"
transform="scale(0.001,-0.001)" />


</defs>
</svg>