<?xml version="1.0" encoding="UTF-8" standalone="no"?>
<!DOCTYPE svg PUBLIC "-//W3C//DTD SVG 1.1//EN"
"http://www.w3.org/Graphics/SVG/1.1/DTD/svg11.dtd">
<svg viewBox="0 0 739 1084" version="1.1" xmlns="http://www.w3.org/2000/svg" xmlns:xlink="http://www.w3.org/1999/xlink">
<defs>
<clipPath id="c0_100"><path d="M321.8,165.8V148H636.4v17.8Z" /></clipPath>
<clipPath id="c1_100"><path d="M349.5,330.5V312.7H636.4v17.8Z" /></clipPath>
<clipPath id="c2_100"><path d="M100.1,351.4V333.6H467v17.8Z" /></clipPath>
</defs>
<g fill="#D4D4D4" fill-opacity="0.36" >
<use xlink:href="#f0_1f" transform="matrix(50.9,-50.9,50.9,50.9,127.9,814.1)" />
<use xlink:href="#f0_2a" transform="matrix(50.9,-50.9,50.9,50.9,188.4,753.6)" />
<use xlink:href="#f0_28" transform="matrix(50.9,-50.9,50.9,50.9,231.7,710.3)" />
<use xlink:href="#f0_25" transform="matrix(50.9,-50.9,50.9,50.9,248.9,693.1)" />
<use xlink:href="#f0_2a" transform="matrix(50.9,-50.9,50.9,50.9,266.2,675.8)" />
<use xlink:href="#f0_21" transform="matrix(50.9,-50.9,50.9,50.9,309.4,632.5)" />
<use xlink:href="#f0_2k" transform="matrix(50.9,-50.9,50.9,50.9,352.7,589.3)" />
<use xlink:href="#f0_1x" transform="matrix(50.9,-50.9,50.9,50.9,391.6,550.4)" />
<use xlink:href="#f0_29" transform="matrix(50.9,-50.9,50.9,50.9,434.8,507.2)" />
<use xlink:href="#f0_2c" transform="matrix(50.9,-50.9,50.9,50.9,499.6,442.4)" />
<use xlink:href="#f0_2b" transform="matrix(50.9,-50.9,50.9,50.9,542.9,399.1)" />
<use xlink:href="#f0_25" transform="matrix(50.9,-50.9,50.9,50.9,586.1,355.9)" />
<use xlink:href="#f0_2a" transform="matrix(50.9,-50.9,50.9,50.9,603.4,338.6)" />
<use xlink:href="#f0_2g" transform="matrix(50.9,-50.9,50.9,50.9,646.6,295.4)" />
</g>
<g fill="#000000" >
<use xlink:href="#f1_20" transform="matrix(10.4,0,0,10.4,100.1,102.2)" />
<use xlink:href="#f1_2b" transform="matrix(10.4,0,0,10.4,108.9,102.2)" />
<use xlink:href="#f1_21" transform="matrix(10.4,0,0,10.4,117.7,102.2)" />
<use xlink:href="#f1_2f" transform="matrix(10.4,0,0,10.4,126.5,102.2)" />
<use xlink:href="#f1_2a" transform="matrix(10.4,0,0,10.4,142.3,102.2)" />
<use xlink:href="#f1_2b" transform="matrix(10.4,0,0,10.4,151.1,102.2)" />
<use xlink:href="#f1_2g" transform="matrix(10.4,0,0,10.4,159.9,102.2)" />
<use xlink:href="#f1_2e" transform="matrix(10.4,0,0,10.4,172.2,102.2)" />
<use xlink:href="#f1_21" transform="matrix(10.4,0,0,10.4,177.5,102.2)" />
<use xlink:href="#f1_1x" transform="matrix(10.4,0,0,10.4,186.3,102.2)" />
<use xlink:href="#f1_1z" transform="matrix(10.4,0,0,10.4,195.1,102.2)" />
<use xlink:href="#f1_2g" transform="matrix(10.4,0,0,10.4,203.1,102.2)" />
<use xlink:href="#f1_2j" transform="matrix(10.4,0,0,10.4,215.2,102.2)" />
<use xlink:href="#f1_25" transform="matrix(10.4,0,0,10.4,226.4,102.2)" />
<use xlink:href="#f1_2g" transform="matrix(10.4,0,0,10.4,229.9,102.2)" />
<use xlink:href="#f1_24" transform="matrix(10.4,0,0,10.4,234.3,102.2)" />
<use xlink:href="#f1_1y" transform="matrix(10.4,0,0,10.4,250.8,102.2)" />
<use xlink:href="#f1_21" transform="matrix(10.4,0,0,10.4,259.6,102.2)" />
<use xlink:href="#f1_2a" transform="matrix(10.4,0,0,10.4,268.4,102.2)" />
<use xlink:href="#f1_2m" transform="matrix(10.4,0,0,10.4,277.2,102.2)" />
<use xlink:href="#f1_21" transform="matrix(10.4,0,0,10.4,284.9,102.2)" />
<use xlink:href="#f1_2a" transform="matrix(10.4,0,0,10.4,293.7,102.2)" />
<use xlink:href="#f1_21" transform="matrix(10.4,0,0,10.4,302.5,102.2)" />
<use xlink:href="#f1_2f" transform="matrix(10.4,0,0,10.4,319,102.2)" />
<use xlink:href="#f1_2h" transform="matrix(10.4,0,0,10.4,327.1,102.2)" />
<use xlink:href="#f1_28" transform="matrix(10.4,0,0,10.4,335.9,102.2)" />
<use xlink:href="#f1_2c" transform="matrix(10.4,0,0,10.4,339.3,102.2)" />
<use xlink:href="#f1_24" transform="matrix(10.4,0,0,10.4,348.1,102.2)" />
<use xlink:href="#f1_2b" transform="matrix(10.4,0,0,10.4,356.9,102.2)" />
<use xlink:href="#f1_2a" transform="matrix(10.4,0,0,10.4,365.7,102.2)" />
<use xlink:href="#f1_2l" transform="matrix(10.4,0,0,10.4,374.5,102.2)" />
<use xlink:href="#f1_28" transform="matrix(10.4,0,0,10.4,382.1,102.2)" />
<use xlink:href="#f1_1z" transform="matrix(10.4,0,0,10.4,393.4,102.2)" />
<use xlink:href="#f1_24" transform="matrix(10.4,0,0,10.4,401.5,102.2)" />
<use xlink:href="#f1_28" transform="matrix(10.4,0,0,10.4,410.3,102.2)" />
<use xlink:href="#f1_2b" transform="matrix(10.4,0,0,10.4,413.8,102.2)" />
<use xlink:href="#f1_2e" transform="matrix(10.4,0,0,10.4,422.6,102.2)" />
<use xlink:href="#f1_25" transform="matrix(10.4,0,0,10.4,427.9,102.2)" />
<use xlink:href="#f1_20" transform="matrix(10.4,0,0,10.4,431.4,102.2)" />
<use xlink:href="#f1_21" transform="matrix(10.4,0,0,10.4,440.2,102.2)" />
<use xlink:href="#f1_i" transform="matrix(10.4,0,0,10.4,449,102.2)" />
<use xlink:href="#f1_19" transform="matrix(10.4,0,0,10.4,461.1,102.2)" />
<use xlink:href="#f1_20" transform="matrix(10.4,0,0,10.4,465.5,102.2)" />
<use xlink:href="#f1_21" transform="matrix(10.4,0,0,10.4,474.3,102.2)" />
<use xlink:href="#f1_2a" transform="matrix(10.4,0,0,10.4,483.1,102.2)" />
<use xlink:href="#f1_2g" transform="matrix(10.4,0,0,10.4,491.9,102.2)" />
<use xlink:href="#f1_25" transform="matrix(10.4,0,0,10.4,496.3,102.2)" />
<use xlink:href="#f1_22" transform="matrix(10.4,0,0,10.4,499.8,102.2)" />
<use xlink:href="#f1_2l" transform="matrix(10.4,0,0,10.4,504.3,102.2)" />
<use xlink:href="#f1_11" transform="matrix(10.4,0,0,10.4,518.6,102.2)" />
<use xlink:href="#f1_g" transform="matrix(10.4,0,0,10.4,529.3,102.2)" />
<use xlink:href="#f1_12" transform="matrix(10.4,0,0,10.4,541.4,102.2)" />
<use xlink:href="#f1_1x" transform="matrix(10.4,0,0,10.4,559.9,102.2)" />
<use xlink:href="#f1_2a" transform="matrix(10.4,0,0,10.4,568.7,102.2)" />
<use xlink:href="#f1_20" transform="matrix(10.4,0,0,10.4,577.5,102.2)" />
<use xlink:href="#f1_13" transform="matrix(10.4,0,0,10.4,594,102.2)" />
<use xlink:href="#f1_i" transform="matrix(10.4,0,0,10.4,605.5,102.2)" />
<use xlink:href="#f1_1r" transform="matrix(10.4,0,0,10.4,100.1,132.3)" />
<use xlink:href="#f2_11" transform="matrix(10.4,0,0,10.4,104.5,132.3)" />
<use xlink:href="#f2_2a" transform="matrix(10.4,0,0,10.4,115.3,132.3)" />
<use xlink:href="#f2_2f" transform="matrix(10.4,0,0,10.4,125.1,132.3)" />
<use xlink:href="#f2_i" transform="matrix(10.4,0,0,10.4,133.9,132.3)" />
<use xlink:href="#f2_u" transform="matrix(10.4,0,0,10.4,144.1,132.3)" />
<use xlink:href="#f1_c" transform="matrix(10.4,0,0,10.4,155.5,132.3)" />
<use xlink:href="#f1_11" transform="matrix(10.4,0,0,10.4,160.8,132.3)" />
<use xlink:href="#f1_d" transform="matrix(10.4,0,0,10.4,171.4,132.3)" />
<use xlink:href="#f1_13" transform="matrix(10.4,0,0,10.4,182.6,132.3)" />
<use xlink:href="#f1_18" transform="matrix(10.4,0,0,10.4,194.2,132.3)" />
<use xlink:href="#f1_n" transform="matrix(7.4,0,0,7.4,205.7,137.6)" />
<use xlink:href="#f1_13" transform="matrix(10.4,0,0,10.4,212,132.3)" />
<use xlink:href="#f1_18" transform="matrix(10.4,0,0,10.4,223.5,132.3)" />
<use xlink:href="#f1_m" transform="matrix(7.4,0,0,7.4,235.1,137.6)" />
<use xlink:href="#f1_13" transform="matrix(10.4,0,0,10.4,241.3,132.3)" />
<use xlink:href="#f1_18" transform="matrix(10.4,0,0,10.4,252.8,132.3)" />
<use xlink:href="#f1_m" transform="matrix(7.4,0,0,7.4,264.4,137.6)" />
<use xlink:href="#f1_1e" transform="matrix(10.4,0,0,10.4,270.6,132.3)" />
<use xlink:href="#f1_18" transform="matrix(10.4,0,0,10.4,282.2,132.3)" />
<use xlink:href="#f1_m" transform="matrix(7.4,0,0,7.4,293.7,137.6)" />
<use xlink:href="#f1_c" transform="matrix(10.4,0,0,10.4,305.8,132.3)" />
<use xlink:href="#f1_12" transform="matrix(10.4,0,0,10.4,311.1,132.3)" />
<use xlink:href="#f1_d" transform="matrix(10.4,0,0,10.4,321.8,132.3)" />
<use xlink:href="#f1_13" transform="matrix(10.4,0,0,10.4,332.9,132.3)" />
<use xlink:href="#f1_18" transform="matrix(10.4,0,0,10.4,344.5,132.3)" />
<use xlink:href="#f1_n" transform="matrix(7.4,0,0,7.4,356.1,137.6)" />
<use xlink:href="#f1_13" transform="matrix(10.4,0,0,10.4,362.3,132.3)" />
<use xlink:href="#f1_18" transform="matrix(10.4,0,0,10.4,373.8,132.3)" />
<use xlink:href="#f1_m" transform="matrix(7.4,0,0,7.4,385.4,137.6)" />
<use xlink:href="#f1_1e" transform="matrix(10.4,0,0,10.4,391.6,132.3)" />
<use xlink:href="#f1_18" transform="matrix(10.4,0,0,10.4,403.2,132.3)" />
<use xlink:href="#f1_13" transform="matrix(10.4,0,0,10.4,414.7,132.3)" />
<use xlink:href="#f1_18" transform="matrix(10.4,0,0,10.4,426.3,132.3)" />
<use xlink:href="#f1_n" transform="matrix(7.4,0,0,7.4,437.8,137.6)" />
<use xlink:href="#f1_c" transform="matrix(10.4,0,0,10.4,449.9,132.3)" />
<use xlink:href="#f1_13" transform="matrix(10.4,0,0,10.4,455.2,132.3)" />
<use xlink:href="#f1_d" transform="matrix(10.4,0,0,10.4,466.8,132.3)" />
<use xlink:href="#f1_c" transform="matrix(10.4,0,0,10.4,478,132.3)" />
<use xlink:href="#f1_13" transform="matrix(10.4,0,0,10.4,483.3,132.3)" />
<use xlink:href="#f1_18" transform="matrix(10.4,0,0,10.4,494.8,132.3)" />
<use xlink:href="#f1_n" transform="matrix(7.4,0,0,7.4,506.4,137.6)" />
<use xlink:href="#f1_d" transform="matrix(10.4,0,0,10.4,512.6,132.3)" />
<use xlink:href="#f1_n" transform="matrix(7.4,0,0,7.4,517.9,137.6)" />
<use xlink:href="#f1_1e" transform="matrix(10.4,0,0,10.4,524.2,132.3)" />
<use xlink:href="#f1_1t" transform="matrix(10.4,0,0,10.4,535.7,132.3)" />
<use xlink:href="#f1_l" transform="matrix(10.4,0,0,10.4,56.9,162.3)" />
<use xlink:href="#f1_n" transform="matrix(10.4,0,0,10.4,66,162.3)" />
<use xlink:href="#f1_i" transform="matrix(10.4,0,0,10.4,75.4,162.3)" />
<use xlink:href="#f1_11" transform="matrix(10.4,0,0,10.4,100.1,162.3)" />
<use xlink:href="#f1_2a" transform="matrix(10.4,0,0,10.4,110.8,162.3)" />
<use xlink:href="#f1_2b" transform="matrix(10.4,0,0,10.4,126,162.3)" />
<use xlink:href="#f1_2e" transform="matrix(10.4,0,0,10.4,134.8,162.3)" />
<use xlink:href="#f1_23" transform="matrix(10.4,0,0,10.4,140.1,162.3)" />
<use xlink:href="#f1_1x" transform="matrix(10.4,0,0,10.4,148.9,162.3)" />
<use xlink:href="#f1_2a" transform="matrix(10.4,0,0,10.4,157.7,162.3)" />
<use xlink:href="#f1_25" transform="matrix(10.4,0,0,10.4,166.5,162.3)" />
<use xlink:href="#f1_1z" transform="matrix(10.4,0,0,10.4,170,162.3)" />
<use xlink:href="#f1_1z" transform="matrix(10.4,0,0,10.4,184.6,162.3)" />
<use xlink:href="#f1_2b" transform="matrix(10.4,0,0,10.4,192.7,162.3)" />
<use xlink:href="#f1_29" transform="matrix(10.4,0,0,10.4,201.5,162.3)" />
<use xlink:href="#f1_2c" transform="matrix(10.4,0,0,10.4,215.1,162.3)" />
<use xlink:href="#f1_2b" transform="matrix(10.4,0,0,10.4,223.9,162.3)" />
<use xlink:href="#f1_2h" transform="matrix(10.4,0,0,10.4,232.7,162.3)" />
<use xlink:href="#f1_2a" transform="matrix(10.4,0,0,10.4,241.5,162.3)" />
<use xlink:href="#f1_20" transform="matrix(10.4,0,0,10.4,250.3,162.3)" />
<use xlink:href="#f1_11" transform="matrix(10.4,0,0,10.4,264.6,162.3)" />
<use xlink:href="#f1_c" transform="matrix(10.4,0,0,10.4,280.9,162.3)" />
<use xlink:href="#f1_13" transform="matrix(10.4,0,0,10.4,286.2,162.3)" />
<use xlink:href="#f1_m" transform="matrix(7.4,0,0,7.4,297.8,167.6)" />
<use xlink:href="#f1_18" transform="matrix(10.4,0,0,10.4,304,162.3)" />
<use xlink:href="#f1_n" transform="matrix(7.4,0,0,7.4,315.5,167.6)" />
</g>
<g clip-path="url(#c0_100)">
<g fill="#000000" >
<use xlink:href="#f1_1e" transform="matrix(10.4,0,0,10.4,321.8,162.3)" />
<use xlink:href="#f1_d" transform="matrix(10.4,0,0,10.4,333.3,162.3)" />
<use xlink:href="#f1_25" transform="matrix(10.4,0,0,10.4,345.2,162.3)" />
<use xlink:href="#f1_2f" transform="matrix(10.4,0,0,10.4,348.7,162.3)" />
<use xlink:href="#f1_2h" transform="matrix(10.4,0,0,10.4,363.4,162.3)" />
<use xlink:href="#f1_2f" transform="matrix(10.4,0,0,10.4,372.2,162.3)" />
<use xlink:href="#f1_21" transform="matrix(10.4,0,0,10.4,380.2,162.3)" />
<use xlink:href="#f1_20" transform="matrix(10.4,0,0,10.4,389,162.3)" />
<use xlink:href="#f1_1x" transform="matrix(10.4,0,0,10.4,404.3,162.3)" />
<use xlink:href="#f1_2f" transform="matrix(10.4,0,0,10.4,413.1,162.3)" />
<use xlink:href="#f1_1x" transform="matrix(10.4,0,0,10.4,427.7,162.3)" />
<use xlink:href="#f1_2f" transform="matrix(10.4,0,0,10.4,443.1,162.3)" />
<use xlink:href="#f1_2b" transform="matrix(10.4,0,0,10.4,451.2,162.3)" />
<use xlink:href="#f1_28" transform="matrix(10.4,0,0,10.4,460,162.3)" />
<use xlink:href="#f1_2i" transform="matrix(10.4,0,0,10.4,463.5,162.3)" />
<use xlink:href="#f1_21" transform="matrix(10.4,0,0,10.4,471.3,162.3)" />
<use xlink:href="#f1_2a" transform="matrix(10.4,0,0,10.4,480.1,162.3)" />
<use xlink:href="#f1_2g" transform="matrix(10.4,0,0,10.4,488.9,162.3)" />
<use xlink:href="#f1_2b" transform="matrix(10.4,0,0,10.4,499.9,162.3)" />
<use xlink:href="#f1_22" transform="matrix(10.4,0,0,10.4,508.7,162.3)" />
<use xlink:href="#f1_1z" transform="matrix(10.4,0,0,10.4,519.7,162.3)" />
<use xlink:href="#f1_24" transform="matrix(10.4,0,0,10.4,527.8,162.3)" />
<use xlink:href="#f1_2b" transform="matrix(10.4,0,0,10.4,536.6,162.3)" />
<use xlink:href="#f1_25" transform="matrix(10.4,0,0,10.4,545.4,162.3)" />
<use xlink:href="#f1_1z" transform="matrix(10.4,0,0,10.4,548.9,162.3)" />
<use xlink:href="#f1_21" transform="matrix(10.4,0,0,10.4,557,162.3)" />
<use xlink:href="#f1_22" transform="matrix(10.4,0,0,10.4,572.3,162.3)" />
<use xlink:href="#f1_2b" transform="matrix(10.4,0,0,10.4,576.9,162.3)" />
<use xlink:href="#f1_2e" transform="matrix(10.4,0,0,10.4,585.7,162.3)" />
<use xlink:href="#f1_29" transform="matrix(10.4,0,0,10.4,597.6,162.3)" />
<use xlink:href="#f1_1x" transform="matrix(10.4,0,0,10.4,611.2,162.3)" />
<use xlink:href="#f1_2a" transform="matrix(10.4,0,0,10.4,620,162.3)" />
<use xlink:href="#f1_2l" transform="matrix(10.4,0,0,10.4,628.8,162.3)" />
</g>
</g>
<g fill="#000000" >
<use xlink:href="#f1_2b" transform="matrix(10.4,0,0,10.4,100.1,183.2)" />
<use xlink:href="#f1_2e" transform="matrix(10.4,0,0,10.4,109.3,183.2)" />
<use xlink:href="#f1_23" transform="matrix(10.4,0,0,10.4,114.8,183.2)" />
<use xlink:href="#f1_1x" transform="matrix(10.4,0,0,10.4,123.9,183.2)" />
<use xlink:href="#f1_2a" transform="matrix(10.4,0,0,10.4,132.9,183.2)" />
<use xlink:href="#f1_25" transform="matrix(10.4,0,0,10.4,142.1,183.2)" />
<use xlink:href="#f1_1z" transform="matrix(10.4,0,0,10.4,145.9,183.2)" />
<use xlink:href="#f1_2e" transform="matrix(10.4,0,0,10.4,163.4,183.2)" />
<use xlink:href="#f1_21" transform="matrix(10.4,0,0,10.4,168.9,183.2)" />
<use xlink:href="#f1_1x" transform="matrix(10.4,0,0,10.4,178,183.2)" />
<use xlink:href="#f1_1z" transform="matrix(10.4,0,0,10.4,187,183.2)" />
<use xlink:href="#f1_2g" transform="matrix(10.4,0,0,10.4,195.4,183.2)" />
<use xlink:href="#f1_25" transform="matrix(10.4,0,0,10.4,200.2,183.2)" />
<use xlink:href="#f1_2b" transform="matrix(10.4,0,0,10.4,203.9,183.2)" />
<use xlink:href="#f1_2a" transform="matrix(10.4,0,0,10.4,213,183.2)" />
<use xlink:href="#f1_2f" transform="matrix(10.4,0,0,10.4,222,183.2)" />
<use xlink:href="#f1_1y" transform="matrix(10.4,0,0,10.4,239.6,183.2)" />
<use xlink:href="#f1_21" transform="matrix(10.4,0,0,10.4,248.6,183.2)" />
<use xlink:href="#f1_1z" transform="matrix(10.4,0,0,10.4,257.8,183.2)" />
<use xlink:href="#f1_1x" transform="matrix(10.4,0,0,10.4,266,183.2)" />
<use xlink:href="#f1_2h" transform="matrix(10.4,0,0,10.4,275.2,183.2)" />
<use xlink:href="#f1_2f" transform="matrix(10.4,0,0,10.4,284.3,183.2)" />
<use xlink:href="#f1_21" transform="matrix(10.4,0,0,10.4,292.6,183.2)" />
<use xlink:href="#f1_25" transform="matrix(10.4,0,0,10.4,310.7,183.2)" />
<use xlink:href="#f1_2g" transform="matrix(10.4,0,0,10.4,314.6,183.2)" />
<use xlink:href="#f1_25" transform="matrix(10.4,0,0,10.4,328.3,183.2)" />
<use xlink:href="#f1_2f" transform="matrix(10.4,0,0,10.4,332.2,183.2)" />
<use xlink:href="#f1_2a" transform="matrix(10.4,0,0,10.4,349.6,183.2)" />
<use xlink:href="#f1_2b" transform="matrix(10.4,0,0,10.4,358.6,183.2)" />
<use xlink:href="#f1_2g" transform="matrix(10.4,0,0,10.4,367.7,183.2)" />
<use xlink:href="#f1_2e" transform="matrix(10.4,0,0,10.4,381.5,183.2)" />
<use xlink:href="#f1_21" transform="matrix(10.4,0,0,10.4,387.2,183.2)" />
<use xlink:href="#f1_1x" transform="matrix(10.4,0,0,10.4,396.1,183.2)" />
<use xlink:href="#f1_1z" transform="matrix(10.4,0,0,10.4,405.3,183.2)" />
<use xlink:href="#f1_2g" transform="matrix(10.4,0,0,10.4,413.7,183.2)" />
<use xlink:href="#f1_25" transform="matrix(10.4,0,0,10.4,418.3,183.2)" />
<use xlink:href="#f1_2i" transform="matrix(10.4,0,0,10.4,422.2,183.2)" />
<use xlink:href="#f1_21" transform="matrix(10.4,0,0,10.4,430.2,183.2)" />
<use xlink:href="#f1_25" transform="matrix(10.4,0,0,10.4,448.4,183.2)" />
<use xlink:href="#f1_2a" transform="matrix(10.4,0,0,10.4,452.2,183.2)" />
<use xlink:href="#f1_29" transform="matrix(10.4,0,0,10.4,470.4,183.2)" />
<use xlink:href="#f1_25" transform="matrix(10.4,0,0,10.4,484.3,183.2)" />
<use xlink:href="#f1_28" transform="matrix(10.4,0,0,10.4,488,183.2)" />
<use xlink:href="#f1_20" transform="matrix(10.4,0,0,10.4,491.8,183.2)" />
<use xlink:href="#f1_1x" transform="matrix(10.4,0,0,10.4,510,183.2)" />
<use xlink:href="#f1_1z" transform="matrix(10.4,0,0,10.4,519.1,183.2)" />
<use xlink:href="#f1_25" transform="matrix(10.4,0,0,10.4,527.4,183.2)" />
<use xlink:href="#f1_20" transform="matrix(10.4,0,0,10.4,531.2,183.2)" />
<use xlink:href="#f1_25" transform="matrix(10.4,0,0,10.4,540.4,183.2)" />
<use xlink:href="#f1_1z" transform="matrix(10.4,0,0,10.4,544.1,183.2)" />
<use xlink:href="#f1_1x" transform="matrix(10.4,0,0,10.4,561.5,183.2)" />
<use xlink:href="#f1_2a" transform="matrix(10.4,0,0,10.4,570.6,183.2)" />
<use xlink:href="#f1_20" transform="matrix(10.4,0,0,10.4,579.6,183.2)" />
<use xlink:href="#f1_1y" transform="matrix(10.4,0,0,10.4,597.9,183.2)" />
<use xlink:href="#f1_1x" transform="matrix(10.4,0,0,10.4,606.9,183.2)" />
<use xlink:href="#f1_2f" transform="matrix(10.4,0,0,10.4,616.1,183.2)" />
<use xlink:href="#f1_25" transform="matrix(10.4,0,0,10.4,624.3,183.2)" />
<use xlink:href="#f1_1z" transform="matrix(10.4,0,0,10.4,628.2,183.2)" />
<use xlink:href="#f1_1z" transform="matrix(10.4,0,0,10.4,100.1,204.1)" />
<use xlink:href="#f1_2b" transform="matrix(10.4,0,0,10.4,108.2,204.1)" />
<use xlink:href="#f1_2a" transform="matrix(10.4,0,0,10.4,117,204.1)" />
<use xlink:href="#f1_20" transform="matrix(10.4,0,0,10.4,125.8,204.1)" />
<use xlink:href="#f1_25" transform="matrix(10.4,0,0,10.4,134.6,204.1)" />
<use xlink:href="#f1_2g" transform="matrix(10.4,0,0,10.4,138.1,204.1)" />
<use xlink:href="#f1_25" transform="matrix(10.4,0,0,10.4,142.5,204.1)" />
<use xlink:href="#f1_2b" transform="matrix(10.4,0,0,10.4,145.9,204.1)" />
<use xlink:href="#f1_2a" transform="matrix(10.4,0,0,10.4,154.7,204.1)" />
<use xlink:href="#f1_2f" transform="matrix(10.4,0,0,10.4,163.5,204.1)" />
<use xlink:href="#f1_i" transform="matrix(10.4,0,0,10.4,171.6,204.1)" />
<use xlink:href="#f1_13" transform="matrix(10.4,0,0,10.4,180.6,204.1)" />
<use xlink:href="#f1_2b" transform="matrix(10.4,0,0,10.4,192.1,204.1)" />
<use xlink:href="#f1_29" transform="matrix(10.4,0,0,10.4,200.9,204.1)" />
<use xlink:href="#f1_2c" transform="matrix(10.4,0,0,10.4,214.5,204.1)" />
<use xlink:href="#f1_2b" transform="matrix(10.4,0,0,10.4,223.3,204.1)" />
<use xlink:href="#f1_2h" transform="matrix(10.4,0,0,10.4,232.1,204.1)" />
<use xlink:href="#f1_2a" transform="matrix(10.4,0,0,10.4,240.9,204.1)" />
<use xlink:href="#f1_20" transform="matrix(10.4,0,0,10.4,249.7,204.1)" />
<use xlink:href="#f1_11" transform="matrix(10.4,0,0,10.4,262,204.1)" />
<use xlink:href="#f1_2b" transform="matrix(10.4,0,0,10.4,276.3,204.1)" />
<use xlink:href="#f1_2a" transform="matrix(10.4,0,0,10.4,285.1,204.1)" />
<use xlink:href="#f1_2g" transform="matrix(10.4,0,0,10.4,298.5,204.1)" />
<use xlink:href="#f1_2e" transform="matrix(10.4,0,0,10.4,302.9,204.1)" />
<use xlink:href="#f1_21" transform="matrix(10.4,0,0,10.4,308.2,204.1)" />
<use xlink:href="#f1_1x" transform="matrix(10.4,0,0,10.4,317,204.1)" />
<use xlink:href="#f1_2g" transform="matrix(10.4,0,0,10.4,325.8,204.1)" />
<use xlink:href="#f1_29" transform="matrix(10.4,0,0,10.4,330.2,204.1)" />
<use xlink:href="#f1_21" transform="matrix(10.4,0,0,10.4,343.7,204.1)" />
<use xlink:href="#f1_2a" transform="matrix(10.4,0,0,10.4,352.5,204.1)" />
<use xlink:href="#f1_2g" transform="matrix(10.4,0,0,10.4,361.3,204.1)" />
<use xlink:href="#f1_2j" transform="matrix(10.4,0,0,10.4,370.1,204.1)" />
<use xlink:href="#f1_25" transform="matrix(10.4,0,0,10.4,381.3,204.1)" />
<use xlink:href="#f1_2g" transform="matrix(10.4,0,0,10.4,384.8,204.1)" />
<use xlink:href="#f1_24" transform="matrix(10.4,0,0,10.4,389.2,204.1)" />
<use xlink:href="#f1_1e" transform="matrix(10.4,0,0,10.4,402.6,204.1)" />
<use xlink:href="#f1_25" transform="matrix(10.4,0,0,10.4,414.1,204.1)" />
<use xlink:href="#f1_j" transform="matrix(10.4,0,0,10.4,417.6,204.1)" />
<use xlink:href="#f1_18" transform="matrix(10.4,0,0,10.4,422,204.1)" />
<use xlink:href="#f1_m" transform="matrix(7.4,0,0,7.4,433.6,209.4)" />
<use xlink:href="#f1_22" transform="matrix(10.4,0,0,10.4,444.4,204.1)" />
<use xlink:href="#f1_2b" transform="matrix(10.4,0,0,10.4,449,204.1)" />
<use xlink:href="#f1_2e" transform="matrix(10.4,0,0,10.4,457.8,204.1)" />
<use xlink:href="#f1_29" transform="matrix(10.4,0,0,10.4,463.1,204.1)" />
<use xlink:href="#f1_2f" transform="matrix(10.4,0,0,10.4,476.7,204.1)" />
<use xlink:href="#f1_12" transform="matrix(10.4,0,0,10.4,489.3,204.1)" />
<use xlink:href="#f1_i" transform="matrix(10.4,0,0,10.4,500,204.1)" />
<use xlink:href="#f1_1n" transform="matrix(10.4,0,0,10.4,508.8,204.1)" />
<use xlink:href="#f1_24" transform="matrix(10.4,0,0,10.4,524.7,204.1)" />
<use xlink:href="#f1_21" transform="matrix(10.4,0,0,10.4,533.5,204.1)" />
<use xlink:href="#f1_2a" transform="matrix(10.4,0,0,10.4,542.3,204.1)" />
<use xlink:href="#f1_12" transform="matrix(10.4,0,0,10.4,555.7,204.1)" />
<use xlink:href="#f1_25" transform="matrix(10.4,0,0,10.4,570.9,204.1)" />
<use xlink:href="#f1_2f" transform="matrix(10.4,0,0,10.4,574.4,204.1)" />
<use xlink:href="#f1_2g" transform="matrix(10.4,0,0,10.4,587,204.1)" />
<use xlink:href="#f1_2e" transform="matrix(10.4,0,0,10.4,591.4,204.1)" />
<use xlink:href="#f1_21" transform="matrix(10.4,0,0,10.4,596.7,204.1)" />
<use xlink:href="#f1_1x" transform="matrix(10.4,0,0,10.4,605.5,204.1)" />
<use xlink:href="#f1_2g" transform="matrix(10.4,0,0,10.4,614.3,204.1)" />
<use xlink:href="#f1_21" transform="matrix(10.4,0,0,10.4,618.7,204.1)" />
<use xlink:href="#f1_20" transform="matrix(10.4,0,0,10.4,627.5,204.1)" />
<use xlink:href="#f1_2j" transform="matrix(10.4,0,0,10.4,100.1,225)" />
<use xlink:href="#f1_25" transform="matrix(10.4,0,0,10.4,111.3,225)" />
<use xlink:href="#f1_2g" transform="matrix(10.4,0,0,10.4,114.8,225)" />
<use xlink:href="#f1_24" transform="matrix(10.4,0,0,10.4,119.2,225)" />
<use xlink:href="#f1_2a" transform="matrix(10.4,0,0,10.4,136.2,225)" />
<use xlink:href="#f1_25" transform="matrix(10.4,0,0,10.4,145,225)" />
<use xlink:href="#f1_2g" transform="matrix(10.4,0,0,10.4,148.5,225)" />
<use xlink:href="#f1_2e" transform="matrix(10.4,0,0,10.4,152.9,225)" />
<use xlink:href="#f1_2b" transform="matrix(10.4,0,0,10.4,158.2,225)" />
<use xlink:href="#f1_2h" transform="matrix(10.4,0,0,10.4,167,225)" />
<use xlink:href="#f1_2f" transform="matrix(10.4,0,0,10.4,175.8,225)" />
<use xlink:href="#f1_1x" transform="matrix(10.4,0,0,10.4,192.1,225)" />
<use xlink:href="#f1_1z" transform="matrix(10.4,0,0,10.4,200.9,225)" />
<use xlink:href="#f1_25" transform="matrix(10.4,0,0,10.4,209,225)" />
<use xlink:href="#f1_20" transform="matrix(10.4,0,0,10.4,212.5,225)" />
<use xlink:href="#f1_1x" transform="matrix(10.4,0,0,10.4,229.7,225)" />
<use xlink:href="#f1_2g" transform="matrix(10.4,0,0,10.4,238.5,225)" />
<use xlink:href="#f1_m" transform="matrix(10.4,0,0,10.4,251.2,225)" />
<use xlink:href="#f1_r" transform="matrix(10.4,0,0,10.4,260,225)" />
<use xlink:href="#f1_n" transform="matrix(10.4,0,0,10.4,268.8,225)" />
<use xlink:href="#f1_1b" transform="matrix(10.4,0,0,10.4,277.6,225)" />
<use xlink:href="#f1_g" transform="matrix(10.4,0,0,10.4,288.2,225)" />
<use xlink:href="#f1_21" transform="matrix(10.4,0,0,10.4,300.8,225)" />
<use xlink:href="#f1_2g" transform="matrix(10.4,0,0,10.4,309.6,225)" />
<use xlink:href="#f1_24" transform="matrix(10.4,0,0,10.4,314,225)" />
<use xlink:href="#f1_1x" transform="matrix(10.4,0,0,10.4,322.8,225)" />
<use xlink:href="#f1_2a" transform="matrix(10.4,0,0,10.4,331.6,225)" />
<use xlink:href="#f1_2b" transform="matrix(10.4,0,0,10.4,340.4,225)" />
<use xlink:href="#f1_28" transform="matrix(10.4,0,0,10.4,349.2,225)" />
<use xlink:href="#f1_25" transform="matrix(10.4,0,0,10.4,361,225)" />
<use xlink:href="#f1_2f" transform="matrix(10.4,0,0,10.4,364.5,225)" />
<use xlink:href="#f1_2b" transform="matrix(10.4,0,0,10.4,381,225)" />
<use xlink:href="#f1_1y" transform="matrix(10.4,0,0,10.4,389.8,225)" />
<use xlink:href="#f1_2g" transform="matrix(10.4,0,0,10.4,398.6,225)" />
<use xlink:href="#f1_1x" transform="matrix(10.4,0,0,10.4,403,225)" />
<use xlink:href="#f1_25" transform="matrix(10.4,0,0,10.4,411.8,225)" />
<use xlink:href="#f1_2a" transform="matrix(10.4,0,0,10.4,415.2,225)" />
<use xlink:href="#f1_21" transform="matrix(10.4,0,0,10.4,424,225)" />
<use xlink:href="#f1_20" transform="matrix(10.4,0,0,10.4,432.8,225)" />
<use xlink:href="#f1_i" transform="matrix(10.4,0,0,10.4,441.6,225)" />
<use xlink:href="#f1_1n" transform="matrix(10.4,0,0,10.4,454.3,225)" />
<use xlink:href="#f1_24" transform="matrix(10.4,0,0,10.4,470.2,225)" />
<use xlink:href="#f1_21" transform="matrix(10.4,0,0,10.4,479,225)" />
<use xlink:href="#f1_2a" transform="matrix(10.4,0,0,10.4,487.8,225)" />
<use xlink:href="#f1_12" transform="matrix(10.4,0,0,10.4,504.9,225)" />
<use xlink:href="#f1_25" transform="matrix(10.4,0,0,10.4,523.8,225)" />
<use xlink:href="#f1_2f" transform="matrix(10.4,0,0,10.4,527.2,225)" />
<use xlink:href="#f1_2j" transform="matrix(10.4,0,0,10.4,543.7,225)" />
<use xlink:href="#f1_1x" transform="matrix(10.4,0,0,10.4,554.9,225)" />
<use xlink:href="#f1_2e" transform="matrix(10.4,0,0,10.4,563.7,225)" />
<use xlink:href="#f1_29" transform="matrix(10.4,0,0,10.4,569,225)" />
<use xlink:href="#f1_21" transform="matrix(10.4,0,0,10.4,582.6,225)" />
<use xlink:href="#f1_20" transform="matrix(10.4,0,0,10.4,591.4,225)" />
<use xlink:href="#f1_2j" transform="matrix(10.4,0,0,10.4,608.4,225)" />
<use xlink:href="#f1_25" transform="matrix(10.4,0,0,10.4,619.6,225)" />
<use xlink:href="#f1_2g" transform="matrix(10.4,0,0,10.4,623.1,225)" />
<use xlink:href="#f1_24" transform="matrix(10.4,0,0,10.4,627.5,225)" />
<use xlink:href="#f1_1z" transform="matrix(10.4,0,0,10.4,100.1,245.9)" />
<use xlink:href="#f1_24" transform="matrix(10.4,0,0,10.4,108.2,245.9)" />
<use xlink:href="#f1_28" transform="matrix(10.4,0,0,10.4,117,245.9)" />
<use xlink:href="#f1_2b" transform="matrix(10.4,0,0,10.4,120.5,245.9)" />
<use xlink:href="#f1_2e" transform="matrix(10.4,0,0,10.4,129.3,245.9)" />
<use xlink:href="#f1_2b" transform="matrix(10.4,0,0,10.4,134.6,245.9)" />
<use xlink:href="#f1_22" transform="matrix(10.4,0,0,10.4,143.4,245.9)" />
<use xlink:href="#f1_2b" transform="matrix(10.4,0,0,10.4,148,245.9)" />
<use xlink:href="#f1_2e" transform="matrix(10.4,0,0,10.4,156.8,245.9)" />
<use xlink:href="#f1_29" transform="matrix(10.4,0,0,10.4,162.1,245.9)" />
<use xlink:href="#f1_1x" transform="matrix(10.4,0,0,10.4,182.6,245.9)" />
<use xlink:href="#f1_2a" transform="matrix(10.4,0,0,10.4,191.4,245.9)" />
<use xlink:href="#f1_20" transform="matrix(10.4,0,0,10.4,200.2,245.9)" />
<use xlink:href="#f1_1e" transform="matrix(10.4,0,0,10.4,216,245.9)" />
<use xlink:href="#f1_1x" transform="matrix(10.4,0,0,10.4,227.5,245.9)" />
<use xlink:href="#f1_1f" transform="matrix(10.4,0,0,10.4,236.3,245.9)" />
<use xlink:href="#f1_18" transform="matrix(10.4,0,0,10.4,248.8,245.9)" />
<use xlink:href="#f1_g" transform="matrix(10.4,0,0,10.4,260.3,245.9)" />
<use xlink:href="#f1_1x" transform="matrix(10.4,0,0,10.4,271.7,245.9)" />
<use xlink:href="#f1_22" transform="matrix(10.4,0,0,10.4,287.5,245.9)" />
<use xlink:href="#f1_2b" transform="matrix(10.4,0,0,10.4,292,245.9)" />
<use xlink:href="#f1_2h" transform="matrix(10.4,0,0,10.4,300.8,245.9)" />
<use xlink:href="#f1_28" transform="matrix(10.4,0,0,10.4,309.6,245.9)" />
<use xlink:href="#f1_2f" transform="matrix(10.4,0,0,10.4,320.1,245.9)" />
<use xlink:href="#f1_29" transform="matrix(10.4,0,0,10.4,328.2,245.9)" />
<use xlink:href="#f1_21" transform="matrix(10.4,0,0,10.4,341.7,245.9)" />
<use xlink:href="#f1_28" transform="matrix(10.4,0,0,10.4,350.5,245.9)" />
<use xlink:href="#f1_28" transform="matrix(10.4,0,0,10.4,354,245.9)" />
<use xlink:href="#f1_25" transform="matrix(10.4,0,0,10.4,357.5,245.9)" />
<use xlink:href="#f1_2a" transform="matrix(10.4,0,0,10.4,361,245.9)" />
<use xlink:href="#f1_23" transform="matrix(10.4,0,0,10.4,369.8,245.9)" />
<use xlink:href="#f1_1z" transform="matrix(10.4,0,0,10.4,385.7,245.9)" />
<use xlink:href="#f1_2b" transform="matrix(10.4,0,0,10.4,393.8,245.9)" />
<use xlink:href="#f1_29" transform="matrix(10.4,0,0,10.4,402.6,245.9)" />
<use xlink:href="#f1_2c" transform="matrix(10.4,0,0,10.4,416.1,245.9)" />
<use xlink:href="#f1_2b" transform="matrix(10.4,0,0,10.4,424.9,245.9)" />
<use xlink:href="#f1_2h" transform="matrix(10.4,0,0,10.4,433.7,245.9)" />
<use xlink:href="#f1_2a" transform="matrix(10.4,0,0,10.4,442.5,245.9)" />
<use xlink:href="#f1_20" transform="matrix(10.4,0,0,10.4,451.3,245.9)" />
<use xlink:href="#f1_13" transform="matrix(10.4,0,0,10.4,467.1,245.9)" />
<use xlink:href="#f1_22" transform="matrix(10.4,0,0,10.4,485.6,245.9)" />
<use xlink:href="#f1_2b" transform="matrix(10.4,0,0,10.4,490.2,245.9)" />
<use xlink:href="#f1_2e" transform="matrix(10.4,0,0,10.4,499,245.9)" />
<use xlink:href="#f1_29" transform="matrix(10.4,0,0,10.4,504.3,245.9)" />
<use xlink:href="#f1_21" transform="matrix(10.4,0,0,10.4,517.9,245.9)" />
<use xlink:href="#f1_20" transform="matrix(10.4,0,0,10.4,526.7,245.9)" />
<use xlink:href="#f1_i" transform="matrix(10.4,0,0,10.4,535.5,245.9)" />
<use xlink:href="#f1_19" transform="matrix(10.4,0,0,10.4,546.8,245.9)" />
<use xlink:href="#f1_20" transform="matrix(10.4,0,0,10.4,551.2,245.9)" />
<use xlink:href="#f1_21" transform="matrix(10.4,0,0,10.4,560,245.9)" />
<use xlink:href="#f1_2a" transform="matrix(10.4,0,0,10.4,568.8,245.9)" />
<use xlink:href="#f1_2g" transform="matrix(10.4,0,0,10.4,577.6,245.9)" />
<use xlink:href="#f1_25" transform="matrix(10.4,0,0,10.4,582,245.9)" />
<use xlink:href="#f1_22" transform="matrix(10.4,0,0,10.4,585.5,245.9)" />
<use xlink:href="#f1_2l" transform="matrix(10.4,0,0,10.4,590.1,245.9)" />
<use xlink:href="#f1_11" transform="matrix(10.4,0,0,10.4,603.7,245.9)" />
<use xlink:href="#f1_g" transform="matrix(10.4,0,0,10.4,614.3,245.9)" />
<use xlink:href="#f1_12" transform="matrix(10.4,0,0,10.4,625.7,245.9)" />
<use xlink:href="#f1_1x" transform="matrix(10.4,0,0,10.4,100.1,266.8)" />
<use xlink:href="#f1_2a" transform="matrix(10.4,0,0,10.4,108.9,266.8)" />
<use xlink:href="#f1_20" transform="matrix(10.4,0,0,10.4,117.7,266.8)" />
<use xlink:href="#f1_13" transform="matrix(10.4,0,0,10.4,134.6,266.8)" />
<use xlink:href="#f1_i" transform="matrix(10.4,0,0,10.4,146.1,266.8)" />
<use xlink:href="#f1_1r" transform="matrix(10.4,0,0,10.4,100.1,296.9)" />
<use xlink:href="#f2_11" transform="matrix(10.4,0,0,10.4,104.5,296.9)" />
<use xlink:href="#f2_2a" transform="matrix(10.4,0,0,10.4,115.3,296.9)" />
<use xlink:href="#f2_2f" transform="matrix(10.4,0,0,10.4,125.1,296.9)" />
<use xlink:href="#f2_i" transform="matrix(10.4,0,0,10.4,133.9,296.9)" />
<use xlink:href="#f2_u" transform="matrix(10.4,0,0,10.4,144.1,296.9)" />
<use xlink:href="#f1_c" transform="matrix(10.4,0,0,10.4,155.5,296.9)" />
<use xlink:href="#f1_11" transform="matrix(10.4,0,0,10.4,160.8,296.9)" />
<use xlink:href="#f1_d" transform="matrix(10.4,0,0,10.4,171.4,296.9)" />
<use xlink:href="#f1_13" transform="matrix(10.4,0,0,10.4,182.8,296.9)" />
<use xlink:href="#f1_18" transform="matrix(10.4,0,0,10.4,194.3,296.9)" />
<use xlink:href="#f1_n" transform="matrix(7.4,0,0,7.4,205.9,302.2)" />
<use xlink:href="#f1_13" transform="matrix(10.4,0,0,10.4,212.1,296.9)" />
<use xlink:href="#f1_1e" transform="matrix(10.4,0,0,10.4,223.7,296.9)" />
<use xlink:href="#f1_c" transform="matrix(10.4,0,0,10.4,241.1,296.9)" />
<use xlink:href="#f1_12" transform="matrix(10.4,0,0,10.4,246.4,296.9)" />
<use xlink:href="#f1_d" transform="matrix(10.4,0,0,10.4,257,296.9)" />
<use xlink:href="#f1_13" transform="matrix(10.4,0,0,10.4,268.4,296.9)" />
<use xlink:href="#f1_18" transform="matrix(10.4,0,0,10.4,280,296.9)" />
<use xlink:href="#f1_n" transform="matrix(7.4,0,0,7.4,291.5,302.2)" />
<use xlink:href="#f1_13" transform="matrix(10.4,0,0,10.4,297.8,296.9)" />
<use xlink:href="#f1_18" transform="matrix(10.4,0,0,10.4,309.3,296.9)" />
<use xlink:href="#f1_m" transform="matrix(7.4,0,0,7.4,320.9,302.2)" />
<use xlink:href="#f1_1e" transform="matrix(10.4,0,0,10.4,327.1,296.9)" />
<use xlink:href="#f1_18" transform="matrix(10.4,0,0,10.4,338.6,296.9)" />
<use xlink:href="#f1_m" transform="matrix(7.4,0,0,7.4,350.2,302.2)" />
<use xlink:href="#f1_c" transform="matrix(10.4,0,0,10.4,362.5,296.9)" />
<use xlink:href="#f1_13" transform="matrix(10.4,0,0,10.4,367.8,296.9)" />
<use xlink:href="#f1_d" transform="matrix(10.4,0,0,10.4,379.3,296.9)" />
<use xlink:href="#f1_13" transform="matrix(10.4,0,0,10.4,390.7,296.9)" />
<use xlink:href="#f1_18" transform="matrix(10.4,0,0,10.4,402.2,296.9)" />
<use xlink:href="#f1_n" transform="matrix(7.4,0,0,7.4,413.8,302.2)" />
<use xlink:href="#f1_13" transform="matrix(10.4,0,0,10.4,420,296.9)" />
<use xlink:href="#f1_18" transform="matrix(10.4,0,0,10.4,431.6,296.9)" />
<use xlink:href="#f1_m" transform="matrix(7.4,0,0,7.4,443.1,302.2)" />
<use xlink:href="#f1_1e" transform="matrix(10.4,0,0,10.4,449.4,296.9)" />
<use xlink:href="#f1_13" transform="matrix(10.4,0,0,10.4,460.9,296.9)" />
<use xlink:href="#f1_l" transform="matrix(10.4,0,0,10.4,56.9,327)" />
<use xlink:href="#f1_o" transform="matrix(10.4,0,0,10.4,66,327)" />
<use xlink:href="#f1_i" transform="matrix(10.4,0,0,10.4,75.4,327)" />
<use xlink:href="#f1_11" transform="matrix(10.4,0,0,10.4,100.1,327)" />
<use xlink:href="#f1_2a" transform="matrix(10.4,0,0,10.4,110.8,327)" />
<use xlink:href="#f1_2b" transform="matrix(10.4,0,0,10.4,126.9,327)" />
<use xlink:href="#f1_2e" transform="matrix(10.4,0,0,10.4,135.7,327)" />
<use xlink:href="#f1_23" transform="matrix(10.4,0,0,10.4,141,327)" />
<use xlink:href="#f1_1x" transform="matrix(10.4,0,0,10.4,149.8,327)" />
<use xlink:href="#f1_2a" transform="matrix(10.4,0,0,10.4,158.6,327)" />
<use xlink:href="#f1_25" transform="matrix(10.4,0,0,10.4,167.4,327)" />
<use xlink:href="#f1_1z" transform="matrix(10.4,0,0,10.4,170.9,327)" />
<use xlink:href="#f1_1z" transform="matrix(10.4,0,0,10.4,186.5,327)" />
<use xlink:href="#f1_2b" transform="matrix(10.4,0,0,10.4,194.5,327)" />
<use xlink:href="#f1_29" transform="matrix(10.4,0,0,10.4,203.3,327)" />
<use xlink:href="#f1_2c" transform="matrix(10.4,0,0,10.4,216.9,327)" />
<use xlink:href="#f1_2b" transform="matrix(10.4,0,0,10.4,225.7,327)" />
<use xlink:href="#f1_2h" transform="matrix(10.4,0,0,10.4,234.5,327)" />
<use xlink:href="#f1_2a" transform="matrix(10.4,0,0,10.4,243.3,327)" />
<use xlink:href="#f1_20" transform="matrix(10.4,0,0,10.4,252.1,327)" />
<use xlink:href="#f1_1r" transform="matrix(10.4,0,0,10.4,268.2,327)" />
<use xlink:href="#f1_11" transform="matrix(10.4,0,0,10.4,272.6,327)" />
<use xlink:href="#f1_1t" transform="matrix(10.4,0,0,10.4,283.3,327)" />
<use xlink:href="#f1_13" transform="matrix(10.4,0,0,10.4,295.2,327)" />
<use xlink:href="#f1_n" transform="matrix(7.4,0,0,7.4,306.7,332.3)" />
<use xlink:href="#f1_18" transform="matrix(10.4,0,0,10.4,313,327)" />
<use xlink:href="#f1_q" transform="matrix(7.4,0,0,7.4,324.5,332.3)" />
<use xlink:href="#f1_1f" transform="matrix(10.4,0,0,10.4,330.8,327)" />
<use xlink:href="#f1_m" transform="matrix(7.4,0,0,7.4,343.2,332.3)" />
</g>
<g clip-path="url(#c1_100)">
<g fill="#000000" >
<use xlink:href="#f1_2b" transform="matrix(10.4,0,0,10.4,357,327)" />
<use xlink:href="#f1_2a" transform="matrix(10.4,0,0,10.4,365.8,327)" />
<use xlink:href="#f1_2e" transform="matrix(10.4,0,0,10.4,382.1,327)" />
<use xlink:href="#f1_21" transform="matrix(10.4,0,0,10.4,387.4,327)" />
<use xlink:href="#f1_1x" transform="matrix(10.4,0,0,10.4,396.2,327)" />
<use xlink:href="#f1_1z" transform="matrix(10.4,0,0,10.4,405,327)" />
<use xlink:href="#f1_2g" transform="matrix(10.4,0,0,10.4,413.1,327)" />
<use xlink:href="#f1_25" transform="matrix(10.4,0,0,10.4,417.5,327)" />
<use xlink:href="#f1_2b" transform="matrix(10.4,0,0,10.4,420.9,327)" />
<use xlink:href="#f1_2a" transform="matrix(10.4,0,0,10.4,429.7,327)" />
<use xlink:href="#f1_2j" transform="matrix(10.4,0,0,10.4,445.9,327)" />
<use xlink:href="#f1_25" transform="matrix(10.4,0,0,10.4,457.1,327)" />
<use xlink:href="#f1_2g" transform="matrix(10.4,0,0,10.4,460.5,327)" />
<use xlink:href="#f1_24" transform="matrix(10.4,0,0,10.4,464.9,327)" />
<use xlink:href="#f1_1x" transform="matrix(10.4,0,0,10.4,481.3,327)" />
<use xlink:href="#f1_29" transform="matrix(10.4,0,0,10.4,490.1,327)" />
<use xlink:href="#f1_29" transform="matrix(10.4,0,0,10.4,503.6,327)" />
<use xlink:href="#f1_2b" transform="matrix(10.4,0,0,10.4,517.2,327)" />
<use xlink:href="#f1_2a" transform="matrix(10.4,0,0,10.4,526,327)" />
<use xlink:href="#f1_25" transform="matrix(10.4,0,0,10.4,534.8,327)" />
<use xlink:href="#f1_1x" transform="matrix(10.4,0,0,10.4,538.3,327)" />
<use xlink:href="#f1_22" transform="matrix(10.4,0,0,10.4,554.6,327)" />
<use xlink:href="#f1_2b" transform="matrix(10.4,0,0,10.4,559.2,327)" />
<use xlink:href="#f1_28" transform="matrix(10.4,0,0,10.4,568,327)" />
<use xlink:href="#f1_28" transform="matrix(10.4,0,0,10.4,571.4,327)" />
<use xlink:href="#f1_2b" transform="matrix(10.4,0,0,10.4,574.9,327)" />
<use xlink:href="#f1_2j" transform="matrix(10.4,0,0,10.4,583.7,327)" />
<use xlink:href="#f1_21" transform="matrix(10.4,0,0,10.4,594.9,327)" />
<use xlink:href="#f1_20" transform="matrix(10.4,0,0,10.4,603.7,327)" />
<use xlink:href="#f1_1y" transform="matrix(10.4,0,0,10.4,620,327)" />
<use xlink:href="#f1_2l" transform="matrix(10.4,0,0,10.4,628.8,327)" />
</g>
</g>
<g clip-path="url(#c2_100)">
<g fill="#000000" >
<use xlink:href="#f1_24" transform="matrix(10.4,0,0,10.4,100.1,347.9)" />
<use xlink:href="#f1_21" transform="matrix(10.4,0,0,10.4,108.9,347.9)" />
<use xlink:href="#f1_1x" transform="matrix(10.4,0,0,10.4,117.7,347.9)" />
<use xlink:href="#f1_2g" transform="matrix(10.4,0,0,10.4,126.5,347.9)" />
<use xlink:href="#f1_25" transform="matrix(10.4,0,0,10.4,130.9,347.9)" />
<use xlink:href="#f1_2a" transform="matrix(10.4,0,0,10.4,134.4,347.9)" />
<use xlink:href="#f1_23" transform="matrix(10.4,0,0,10.4,143.2,347.9)" />
<use xlink:href="#f1_2l" transform="matrix(10.4,0,0,10.4,159.7,347.9)" />
<use xlink:href="#f1_25" transform="matrix(10.4,0,0,10.4,167.2,347.9)" />
<use xlink:href="#f1_21" transform="matrix(10.4,0,0,10.4,170.7,347.9)" />
<use xlink:href="#f1_28" transform="matrix(10.4,0,0,10.4,179.5,347.9)" />
<use xlink:href="#f1_20" transform="matrix(10.4,0,0,10.4,183,347.9)" />
<use xlink:href="#f1_12" transform="matrix(10.4,0,0,10.4,199.3,347.9)" />
<use xlink:href="#f1_i" transform="matrix(10.4,0,0,10.4,209.9,347.9)" />
<use xlink:href="#f1_13" transform="matrix(10.4,0,0,10.4,222,347.9)" />
<use xlink:href="#f1_2b" transform="matrix(10.4,0,0,10.4,233.6,347.9)" />
<use xlink:href="#f1_29" transform="matrix(10.4,0,0,10.4,242.4,347.9)" />
<use xlink:href="#f1_2c" transform="matrix(10.4,0,0,10.4,255.9,347.9)" />
<use xlink:href="#f1_2b" transform="matrix(10.4,0,0,10.4,264.7,347.9)" />
<use xlink:href="#f1_2h" transform="matrix(10.4,0,0,10.4,273.5,347.9)" />
<use xlink:href="#f1_2a" transform="matrix(10.4,0,0,10.4,282.3,347.9)" />
<use xlink:href="#f1_20" transform="matrix(10.4,0,0,10.4,291.1,347.9)" />
<use xlink:href="#f1_12" transform="matrix(10.4,0,0,10.4,307.6,347.9)" />
<use xlink:href="#f1_2b" transform="matrix(10.4,0,0,10.4,326,347.9)" />
<use xlink:href="#f1_2a" transform="matrix(10.4,0,0,10.4,334.8,347.9)" />
<use xlink:href="#f1_2e" transform="matrix(10.4,0,0,10.4,351.1,347.9)" />
<use xlink:href="#f1_21" transform="matrix(10.4,0,0,10.4,356.4,347.9)" />
<use xlink:href="#f1_1x" transform="matrix(10.4,0,0,10.4,365.2,347.9)" />
<use xlink:href="#f1_1z" transform="matrix(10.4,0,0,10.4,374,347.9)" />
<use xlink:href="#f1_2g" transform="matrix(10.4,0,0,10.4,382.1,347.9)" />
<use xlink:href="#f1_25" transform="matrix(10.4,0,0,10.4,386.5,347.9)" />
<use xlink:href="#f1_2b" transform="matrix(10.4,0,0,10.4,389.9,347.9)" />
<use xlink:href="#f1_2a" transform="matrix(10.4,0,0,10.4,398.7,347.9)" />
<use xlink:href="#f1_2j" transform="matrix(10.4,0,0,10.4,415.2,347.9)" />
<use xlink:href="#f1_25" transform="matrix(10.4,0,0,10.4,426.4,347.9)" />
<use xlink:href="#f1_2g" transform="matrix(10.4,0,0,10.4,429.9,347.9)" />
<use xlink:href="#f1_24" transform="matrix(10.4,0,0,10.4,434.3,347.9)" />
<use xlink:href="#f1_12" transform="matrix(10.4,0,0,10.4,450.8,347.9)" />
<use xlink:href="#f1_2e" transform="matrix(10.4,0,0,10.4,461.4,347.9)" />
</g>
</g>
<g fill="#000000" >
<use xlink:href="#f1_m" transform="matrix(7.4,0,0,7.4,466.8,353.2)" />
<use xlink:href="#f1_1x" transform="matrix(10.4,0,0,10.4,480.7,347.9)" />
<use xlink:href="#f1_2a" transform="matrix(10.4,0,0,10.4,489.5,347.9)" />
<use xlink:href="#f1_20" transform="matrix(10.4,0,0,10.4,498.3,347.9)" />
<use xlink:href="#f1_1x" transform="matrix(10.4,0,0,10.4,514.8,347.9)" />
<use xlink:href="#f1_28" transform="matrix(10.4,0,0,10.4,523.6,347.9)" />
<use xlink:href="#f1_1z" transform="matrix(10.4,0,0,10.4,527.1,347.9)" />
<use xlink:href="#f1_i" transform="matrix(10.4,0,0,10.4,535.2,347.9)" />
<use xlink:href="#f1_1e" transform="matrix(10.4,0,0,10.4,547.3,347.9)" />
<use xlink:href="#f1_1x" transform="matrix(10.4,0,0,10.4,558.8,347.9)" />
<use xlink:href="#f1_1f" transform="matrix(10.4,0,0,10.4,567.6,347.9)" />
<use xlink:href="#f1_18" transform="matrix(10.4,0,0,10.4,580.1,347.9)" />
<use xlink:href="#f1_23" transform="matrix(10.4,0,0,10.4,599.3,347.9)" />
<use xlink:href="#f1_25" transform="matrix(10.4,0,0,10.4,608.1,347.9)" />
<use xlink:href="#f1_2i" transform="matrix(10.4,0,0,10.4,611.6,347.9)" />
<use xlink:href="#f1_21" transform="matrix(10.4,0,0,10.4,619.5,347.9)" />
<use xlink:href="#f1_2f" transform="matrix(10.4,0,0,10.4,628.3,347.9)" />
<use xlink:href="#f1_1z" transform="matrix(10.4,0,0,10.4,100.1,368.8)" />
<use xlink:href="#f1_2b" transform="matrix(10.4,0,0,10.4,108.2,368.8)" />
<use xlink:href="#f1_29" transform="matrix(10.4,0,0,10.4,117,368.8)" />
<use xlink:href="#f1_2c" transform="matrix(10.4,0,0,10.4,130.5,368.8)" />
<use xlink:href="#f1_2b" transform="matrix(10.4,0,0,10.4,139.3,368.8)" />
<use xlink:href="#f1_2h" transform="matrix(10.4,0,0,10.4,148.1,368.8)" />
<use xlink:href="#f1_2a" transform="matrix(10.4,0,0,10.4,156.9,368.8)" />
<use xlink:href="#f1_20" transform="matrix(10.4,0,0,10.4,165.7,368.8)" />
<use xlink:href="#f1_13" transform="matrix(10.4,0,0,10.4,180,368.8)" />
<use xlink:href="#f1_c" transform="matrix(10.4,0,0,10.4,197.3,368.8)" />
<use xlink:href="#f1_13" transform="matrix(10.4,0,0,10.4,202.6,368.8)" />
<use xlink:href="#f1_m" transform="matrix(7.4,0,0,7.4,214.2,374.1)" />
<use xlink:href="#f1_18" transform="matrix(10.4,0,0,10.4,220.4,368.8)" />
<use xlink:href="#f1_r" transform="matrix(7.4,0,0,7.4,231.9,374.1)" />
<use xlink:href="#f1_1e" transform="matrix(10.4,0,0,10.4,238.2,368.8)" />
<use xlink:href="#f1_d" transform="matrix(10.4,0,0,10.4,249.7,368.8)" />
<use xlink:href="#f1_i" transform="matrix(10.4,0,0,10.4,255,368.8)" />
<use xlink:href="#f1_13" transform="matrix(10.4,0,0,10.4,265.1,368.8)" />
<use xlink:href="#f1_2b" transform="matrix(10.4,0,0,10.4,276.7,368.8)" />
<use xlink:href="#f1_29" transform="matrix(10.4,0,0,10.4,285.5,368.8)" />
<use xlink:href="#f1_2c" transform="matrix(10.4,0,0,10.4,299,368.8)" />
<use xlink:href="#f1_2b" transform="matrix(10.4,0,0,10.4,307.8,368.8)" />
<use xlink:href="#f1_2h" transform="matrix(10.4,0,0,10.4,316.6,368.8)" />
<use xlink:href="#f1_2a" transform="matrix(10.4,0,0,10.4,325.4,368.8)" />
<use xlink:href="#f1_20" transform="matrix(10.4,0,0,10.4,334.2,368.8)" />
<use xlink:href="#f1_13" transform="matrix(10.4,0,0,10.4,348.5,368.8)" />
<use xlink:href="#f1_22" transform="matrix(10.4,0,0,10.4,365.8,368.8)" />
<use xlink:href="#f1_2b" transform="matrix(10.4,0,0,10.4,370.3,368.8)" />
<use xlink:href="#f1_2e" transform="matrix(10.4,0,0,10.4,379.1,368.8)" />
<use xlink:href="#f1_29" transform="matrix(10.4,0,0,10.4,384.4,368.8)" />
<use xlink:href="#f1_2f" transform="matrix(10.4,0,0,10.4,398,368.8)" />
<use xlink:href="#f1_1x" transform="matrix(10.4,0,0,10.4,411.8,368.8)" />
<use xlink:href="#f1_22" transform="matrix(10.4,0,0,10.4,426.1,368.8)" />
<use xlink:href="#f1_2b" transform="matrix(10.4,0,0,10.4,430.6,368.8)" />
<use xlink:href="#f1_2h" transform="matrix(10.4,0,0,10.4,439.4,368.8)" />
<use xlink:href="#f1_28" transform="matrix(10.4,0,0,10.4,448.2,368.8)" />
<use xlink:href="#f1_2f" transform="matrix(10.4,0,0,10.4,457.4,368.8)" />
<use xlink:href="#f1_29" transform="matrix(10.4,0,0,10.4,465.5,368.8)" />
<use xlink:href="#f1_21" transform="matrix(10.4,0,0,10.4,479,368.8)" />
<use xlink:href="#f1_28" transform="matrix(10.4,0,0,10.4,487.8,368.8)" />
<use xlink:href="#f1_28" transform="matrix(10.4,0,0,10.4,491.3,368.8)" />
<use xlink:href="#f1_25" transform="matrix(10.4,0,0,10.4,494.8,368.8)" />
<use xlink:href="#f1_2a" transform="matrix(10.4,0,0,10.4,498.3,368.8)" />
<use xlink:href="#f1_23" transform="matrix(10.4,0,0,10.4,507.1,368.8)" />
<use xlink:href="#f1_1z" transform="matrix(10.4,0,0,10.4,521.6,368.8)" />
<use xlink:href="#f1_2b" transform="matrix(10.4,0,0,10.4,529.6,368.8)" />
<use xlink:href="#f1_29" transform="matrix(10.4,0,0,10.4,538.4,368.8)" />
<use xlink:href="#f1_2c" transform="matrix(10.4,0,0,10.4,552,368.8)" />
<use xlink:href="#f1_2b" transform="matrix(10.4,0,0,10.4,560.8,368.8)" />
<use xlink:href="#f1_2h" transform="matrix(10.4,0,0,10.4,569.6,368.8)" />
<use xlink:href="#f1_2a" transform="matrix(10.4,0,0,10.4,578.4,368.8)" />
<use xlink:href="#f1_20" transform="matrix(10.4,0,0,10.4,587.2,368.8)" />
<use xlink:href="#f1_14" transform="matrix(10.4,0,0,10.4,601.5,368.8)" />
<use xlink:href="#f1_2b" transform="matrix(10.4,0,0,10.4,618.7,368.8)" />
<use xlink:href="#f1_2a" transform="matrix(10.4,0,0,10.4,627.5,368.8)" />
<use xlink:href="#f1_2e" transform="matrix(10.4,0,0,10.4,100.1,389.7)" />
<use xlink:href="#f1_21" transform="matrix(10.4,0,0,10.4,105.4,389.7)" />
<use xlink:href="#f1_1x" transform="matrix(10.4,0,0,10.4,114.2,389.7)" />
<use xlink:href="#f1_1z" transform="matrix(10.4,0,0,10.4,123,389.7)" />
<use xlink:href="#f1_2g" transform="matrix(10.4,0,0,10.4,131.1,389.7)" />
<use xlink:href="#f1_25" transform="matrix(10.4,0,0,10.4,135.5,389.7)" />
<use xlink:href="#f1_2b" transform="matrix(10.4,0,0,10.4,139,389.7)" />
<use xlink:href="#f1_2a" transform="matrix(10.4,0,0,10.4,147.8,389.7)" />
<use xlink:href="#f1_2j" transform="matrix(10.4,0,0,10.4,163.5,389.7)" />
<use xlink:href="#f1_25" transform="matrix(10.4,0,0,10.4,174.7,389.7)" />
<use xlink:href="#f1_2g" transform="matrix(10.4,0,0,10.4,178.2,389.7)" />
<use xlink:href="#f1_24" transform="matrix(10.4,0,0,10.4,182.6,389.7)" />
<use xlink:href="#f1_1z" transform="matrix(10.4,0,0,10.4,198.4,389.7)" />
<use xlink:href="#f1_24" transform="matrix(10.4,0,0,10.4,206.4,389.7)" />
<use xlink:href="#f1_28" transform="matrix(10.4,0,0,10.4,215.2,389.7)" />
<use xlink:href="#f1_2b" transform="matrix(10.4,0,0,10.4,218.7,389.7)" />
<use xlink:href="#f1_2e" transform="matrix(10.4,0,0,10.4,227.5,389.7)" />
<use xlink:href="#f1_2b" transform="matrix(10.4,0,0,10.4,232.8,389.7)" />
<use xlink:href="#f1_22" transform="matrix(10.4,0,0,10.4,241.6,389.7)" />
<use xlink:href="#f1_2b" transform="matrix(10.4,0,0,10.4,246.2,389.7)" />
<use xlink:href="#f1_2e" transform="matrix(10.4,0,0,10.4,255,389.7)" />
<use xlink:href="#f1_29" transform="matrix(10.4,0,0,10.4,260.3,389.7)" />
<use xlink:href="#f1_1x" transform="matrix(10.4,0,0,10.4,280.9,389.7)" />
<use xlink:href="#f1_2a" transform="matrix(10.4,0,0,10.4,289.7,389.7)" />
<use xlink:href="#f1_20" transform="matrix(10.4,0,0,10.4,298.5,389.7)" />
<use xlink:href="#f1_1e" transform="matrix(10.4,0,0,10.4,314,389.7)" />
<use xlink:href="#f1_1x" transform="matrix(10.4,0,0,10.4,325.6,389.7)" />
<use xlink:href="#f1_1f" transform="matrix(10.4,0,0,10.4,334.4,389.7)" />
<use xlink:href="#f1_18" transform="matrix(10.4,0,0,10.4,346.9,389.7)" />
<use xlink:href="#f1_i" transform="matrix(10.4,0,0,10.4,358.4,389.7)" />
<use xlink:href="#f1_19" transform="matrix(10.4,0,0,10.4,369.8,389.7)" />
<use xlink:href="#f1_20" transform="matrix(10.4,0,0,10.4,374.2,389.7)" />
<use xlink:href="#f1_21" transform="matrix(10.4,0,0,10.4,383,389.7)" />
<use xlink:href="#f1_2a" transform="matrix(10.4,0,0,10.4,391.8,389.7)" />
<use xlink:href="#f1_2g" transform="matrix(10.4,0,0,10.4,400.6,389.7)" />
<use xlink:href="#f1_25" transform="matrix(10.4,0,0,10.4,405,389.7)" />
<use xlink:href="#f1_22" transform="matrix(10.4,0,0,10.4,408.5,389.7)" />
<use xlink:href="#f1_2l" transform="matrix(10.4,0,0,10.4,413,389.7)" />
<use xlink:href="#f1_11" transform="matrix(10.4,0,0,10.4,426.6,389.7)" />
<use xlink:href="#f1_g" transform="matrix(10.4,0,0,10.4,437.2,389.7)" />
<use xlink:href="#f1_12" transform="matrix(10.4,0,0,10.4,448.6,389.7)" />
<use xlink:href="#f1_g" transform="matrix(10.4,0,0,10.4,459.2,389.7)" />
<use xlink:href="#f1_13" transform="matrix(10.4,0,0,10.4,470.6,389.7)" />
<use xlink:href="#f1_g" transform="matrix(10.4,0,0,10.4,482.1,389.7)" />
<use xlink:href="#f1_14" transform="matrix(10.4,0,0,10.4,493.5,389.7)" />
<use xlink:href="#f1_1x" transform="matrix(10.4,0,0,10.4,511.8,389.7)" />
<use xlink:href="#f1_2a" transform="matrix(10.4,0,0,10.4,520.6,389.7)" />
<use xlink:href="#f1_20" transform="matrix(10.4,0,0,10.4,529.4,389.7)" />
<use xlink:href="#f1_2g" transform="matrix(10.4,0,0,10.4,545.2,389.7)" />
<use xlink:href="#f1_24" transform="matrix(10.4,0,0,10.4,549.6,389.7)" />
<use xlink:href="#f1_21" transform="matrix(10.4,0,0,10.4,558.4,389.7)" />
<use xlink:href="#f1_2j" transform="matrix(10.4,0,0,10.4,574.2,389.7)" />
<use xlink:href="#f1_2e" transform="matrix(10.4,0,0,10.4,585.3,389.7)" />
<use xlink:href="#f1_25" transform="matrix(10.4,0,0,10.4,590.7,389.7)" />
<use xlink:href="#f1_2g" transform="matrix(10.4,0,0,10.4,594.1,389.7)" />
<use xlink:href="#f1_21" transform="matrix(10.4,0,0,10.4,598.5,389.7)" />
<use xlink:href="#f1_2g" transform="matrix(10.4,0,0,10.4,614.3,389.7)" />
<use xlink:href="#f1_24" transform="matrix(10.4,0,0,10.4,618.7,389.7)" />
<use xlink:href="#f1_21" transform="matrix(10.4,0,0,10.4,627.5,389.7)" />
<use xlink:href="#f1_21" transform="matrix(10.4,0,0,10.4,100.1,410.7)" />
<use xlink:href="#f1_2d" transform="matrix(10.4,0,0,10.4,108.9,410.7)" />
<use xlink:href="#f1_2h" transform="matrix(10.4,0,0,10.4,117.7,410.7)" />
<use xlink:href="#f1_1x" transform="matrix(10.4,0,0,10.4,126.5,410.7)" />
<use xlink:href="#f1_2g" transform="matrix(10.4,0,0,10.4,135.5,410.7)" />
<use xlink:href="#f1_25" transform="matrix(10.4,0,0,10.4,139.9,410.7)" />
<use xlink:href="#f1_2b" transform="matrix(10.4,0,0,10.4,143.4,410.7)" />
<use xlink:href="#f1_2a" transform="matrix(10.4,0,0,10.4,152.2,410.7)" />
<use xlink:href="#f1_2f" transform="matrix(10.4,0,0,10.4,161,410.7)" />
<use xlink:href="#f1_2b" transform="matrix(10.4,0,0,10.4,177.8,410.7)" />
<use xlink:href="#f1_22" transform="matrix(10.4,0,0,10.4,186.6,410.7)" />
<use xlink:href="#f1_2e" transform="matrix(10.4,0,0,10.4,200.2,410.7)" />
<use xlink:href="#f1_21" transform="matrix(10.4,0,0,10.4,205.5,410.7)" />
<use xlink:href="#f1_1x" transform="matrix(10.4,0,0,10.4,214.3,410.7)" />
<use xlink:href="#f1_1z" transform="matrix(10.4,0,0,10.4,223.1,410.7)" />
<use xlink:href="#f1_2g" transform="matrix(10.4,0,0,10.4,231.2,410.7)" />
<use xlink:href="#f1_25" transform="matrix(10.4,0,0,10.4,235.6,410.7)" />
<use xlink:href="#f1_2b" transform="matrix(10.4,0,0,10.4,239.1,410.7)" />
<use xlink:href="#f1_2a" transform="matrix(10.4,0,0,10.4,248.1,410.7)" />
<use xlink:href="#f1_2f" transform="matrix(10.4,0,0,10.4,256.9,410.7)" />
<use xlink:href="#f1_25" transform="matrix(10.4,0,0,10.4,273.7,410.7)" />
<use xlink:href="#f1_2a" transform="matrix(10.4,0,0,10.4,277.2,410.7)" />
<use xlink:href="#f1_2i" transform="matrix(10.4,0,0,10.4,286,410.7)" />
<use xlink:href="#f1_2b" transform="matrix(10.4,0,0,10.4,293.9,410.7)" />
<use xlink:href="#f1_28" transform="matrix(10.4,0,0,10.4,302.7,410.7)" />
<use xlink:href="#f1_2i" transform="matrix(10.4,0,0,10.4,306.3,410.7)" />
<use xlink:href="#f1_21" transform="matrix(10.4,0,0,10.4,314.2,410.7)" />
<use xlink:href="#f1_20" transform="matrix(10.4,0,0,10.4,323,410.7)" />
<use xlink:href="#f1_i" transform="matrix(10.4,0,0,10.4,331.8,410.7)" />
<use xlink:href="#f1_1r" transform="matrix(10.4,0,0,10.4,100.1,440.6)" />
<use xlink:href="#f2_18" transform="matrix(10.4,0,0,10.4,104.5,440.6)" />
<use xlink:href="#f2_25" transform="matrix(10.4,0,0,10.4,116.1,440.6)" />
<use xlink:href="#f2_2a" transform="matrix(10.4,0,0,10.4,120.5,440.6)" />
<use xlink:href="#f2_2g" transform="matrix(10.4,0,0,10.4,130.2,440.6)" />
<use xlink:href="#f2_u" transform="matrix(10.4,0,0,10.4,142.8,440.6)" />
<use xlink:href="#f1_c" transform="matrix(10.4,0,0,10.4,186.7,440.6)" />
<use xlink:href="#f1_11" transform="matrix(10.4,0,0,10.4,192,440.6)" />
<use xlink:href="#f1_d" transform="matrix(10.4,0,0,10.4,202.6,440.6)" />
<use xlink:href="#f1_13" transform="matrix(10.4,0,0,10.4,212.9,440.6)" />
<use xlink:href="#f1_18" transform="matrix(10.4,0,0,10.4,224.4,440.6)" />
<use xlink:href="#f1_n" transform="matrix(7.4,0,0,7.4,236,445.9)" />
<use xlink:href="#f1_13" transform="matrix(10.4,0,0,10.4,242.2,440.6)" />
<use xlink:href="#f1_18" transform="matrix(10.4,0,0,10.4,253.7,440.6)" />
<use xlink:href="#f1_m" transform="matrix(7.4,0,0,7.4,265.3,445.9)" />
<use xlink:href="#f1_13" transform="matrix(10.4,0,0,10.4,271.5,440.6)" />
<use xlink:href="#f1_1f" transform="matrix(10.4,0,0,10.4,283.1,440.6)" />
<use xlink:href="#f1_1f" transform="matrix(10.4,0,0,10.4,295.5,440.6)" />
<use xlink:href="#f1_18" transform="matrix(10.4,0,0,10.4,308,440.6)" />
<use xlink:href="#f1_c" transform="matrix(10.4,0,0,10.4,376.4,440.6)" />
<use xlink:href="#f1_12" transform="matrix(10.4,0,0,10.4,381.7,440.6)" />
<use xlink:href="#f1_d" transform="matrix(10.4,0,0,10.4,392.4,440.6)" />
<use xlink:href="#f1_13" transform="matrix(10.4,0,0,10.4,402.1,440.6)" />
<use xlink:href="#f1_18" transform="matrix(10.4,0,0,10.4,413.6,440.6)" />
<use xlink:href="#f1_m" transform="matrix(7.4,0,0,7.4,425.2,445.9)" />
<use xlink:href="#f1_13" transform="matrix(10.4,0,0,10.4,431.4,440.6)" />
<use xlink:href="#f1_18" transform="matrix(10.4,0,0,10.4,442.9,440.6)" />
<use xlink:href="#f1_m" transform="matrix(7.4,0,0,7.4,454.5,445.9)" />
<use xlink:href="#f1_13" transform="matrix(10.4,0,0,10.4,460.7,440.6)" />
<use xlink:href="#f1_1f" transform="matrix(10.4,0,0,10.4,472.3,440.6)" />
<use xlink:href="#f1_1e" transform="matrix(10.4,0,0,10.4,484.6,440.6)" />
<use xlink:href="#f1_18" transform="matrix(10.4,0,0,10.4,496.1,440.6)" />
<use xlink:href="#f1_m" transform="matrix(7.4,0,0,7.4,507.7,445.9)" />
<use xlink:href="#f1_c" transform="matrix(10.4,0,0,10.4,186.7,470.7)" />
<use xlink:href="#f1_13" transform="matrix(10.4,0,0,10.4,192,470.7)" />
<use xlink:href="#f1_d" transform="matrix(10.4,0,0,10.4,203.5,470.7)" />
<use xlink:href="#f1_13" transform="matrix(10.4,0,0,10.4,213.2,470.7)" />
<use xlink:href="#f1_18" transform="matrix(10.4,0,0,10.4,224.8,470.7)" />
<use xlink:href="#f1_n" transform="matrix(7.4,0,0,7.4,236.3,476)" />
<use xlink:href="#f1_13" transform="matrix(10.4,0,0,10.4,242.6,470.7)" />
<use xlink:href="#f1_18" transform="matrix(10.4,0,0,10.4,254.1,470.7)" />
<use xlink:href="#f1_m" transform="matrix(7.4,0,0,7.4,265.7,476)" />
<use xlink:href="#f1_1e" transform="matrix(10.4,0,0,10.4,271.9,470.7)" />
<use xlink:href="#f1_18" transform="matrix(10.4,0,0,10.4,283.4,470.7)" />
<use xlink:href="#f1_m" transform="matrix(7.4,0,0,7.4,295,476)" />
<use xlink:href="#f1_c" transform="matrix(10.4,0,0,10.4,376.4,470.7)" />
<use xlink:href="#f1_14" transform="matrix(10.4,0,0,10.4,381.7,470.7)" />
<use xlink:href="#f1_d" transform="matrix(10.4,0,0,10.4,393.3,470.7)" />
<use xlink:href="#f1_13" transform="matrix(10.4,0,0,10.4,403.9,470.7)" />
<use xlink:href="#f1_18" transform="matrix(10.4,0,0,10.4,415.4,470.7)" />
<use xlink:href="#f1_n" transform="matrix(7.4,0,0,7.4,427,476)" />
<use xlink:href="#f1_13" transform="matrix(10.4,0,0,10.4,433.2,470.7)" />
<use xlink:href="#f1_18" transform="matrix(10.4,0,0,10.4,444.8,470.7)" />
<use xlink:href="#f1_m" transform="matrix(7.4,0,0,7.4,456.3,476)" />
<use xlink:href="#f1_1e" transform="matrix(10.4,0,0,10.4,462.6,470.7)" />
<use xlink:href="#f1_13" transform="matrix(10.4,0,0,10.4,474.1,470.7)" />
<use xlink:href="#f1_i" transform="matrix(10.4,0,0,10.4,485.7,470.7)" />
<use xlink:href="#f1_1t" transform="matrix(10.4,0,0,10.4,490.1,470.7)" />
<use xlink:href="#f3_p" transform="matrix(12,0,0,12,680.7,1050.1)" />
</g>
<g fill="#0080FF" fill-opacity="0.5" >
<use xlink:href="#f0_1c" transform="matrix(38.5,0,0,38.5,184.9,1046.8)" />
<use xlink:href="#f0_21" transform="matrix(38.5,0,0,38.5,217.6,1046.8)" />
<use xlink:href="#f0_1x" transform="matrix(38.5,0,0,38.5,250.4,1046.8)" />
<use xlink:href="#f0_2e" transform="matrix(38.5,0,0,38.5,283.1,1046.8)" />
<use xlink:href="#f0_2a" transform="matrix(38.5,0,0,38.5,302.7,1046.8)" />
<use xlink:href="#f0_17" transform="matrix(38.5,0,0,38.5,335.4,1046.8)" />
<use xlink:href="#f0_2h" transform="matrix(38.5,0,0,38.5,381.3,1046.8)" />
<use xlink:href="#f0_25" transform="matrix(38.5,0,0,38.5,414,1046.8)" />
<use xlink:href="#f0_20" transform="matrix(38.5,0,0,38.5,427.1,1046.8)" />
<use xlink:href="#f0_21" transform="matrix(38.5,0,0,38.5,459.8,1046.8)" />
<use xlink:href="#f0_i" transform="matrix(38.5,0,0,38.5,492.6,1046.8)" />
<use xlink:href="#f0_25" transform="matrix(38.5,0,0,38.5,508.9,1046.8)" />
<use xlink:href="#f0_2a" transform="matrix(38.5,0,0,38.5,522,1046.8)" />
</g>
<defs>
<path d="M593,101c0,0,182,0,279,112c0,0,98,113,98,318c0,0,0,196,-98,308c0,0,-98,112,-277,112c0,0,-181,0,-279,-110c0,0,-99,-111,-99,-310c0,0,0,-198,100,-314c0,0,99,-116,276,-116Zm0,-115c0,0,-162,0,-279,65c0,0,-118,66,-180,190c0,0,-62,124,-62,290c0,0,0,252,138,394c0,0,138,142,385,142c0,0,160,0,278,-64c0,0,118,-64,180,-185c0,0,62,-122,62,-287c0,0,0,-165,-63,-289c0,0,-63,-124,-181,-190c0,0,-118,-66,-278,-66Z" 
id="f0_1f"
transform="scale(0.001,-0.001)" />

<path d="M106,0V635c0,0,0,141,-5,173H228c0,0,1,-4,2,-21c0,0,1,-16,2,-37c0,0,1,-22,2,-81h2c0,0,47,84,108,119c0,0,60,34,151,34c0,0,132,0,194,-66c0,0,61,-66,61,-218V0H615V512c0,0,0,80,-15,124c0,0,-16,44,-50,63c0,0,-35,20,-101,20c0,0,-97,0,-153,-67c0,0,-56,-66,-56,-184V0Z" 
id="f0_2a"
transform="scale(0.001,-0.001)" />

<path d="M103,0V1107H237V0Z" 
id="f0_28"
transform="scale(0.001,-0.001)" />

<path d="M102,0V808H236V0Zm0,979v128H236V979Z" 
id="f0_25"
transform="scale(0.001,-0.001)" />

<path d="M643,478c0,0,-11,128,-65,187c0,0,-54,59,-154,59c0,0,-98,0,-155,-66c0,0,-57,-65,-62,-180ZM431,-14c0,0,-179,0,-272,106c0,0,-94,107,-94,317c0,0,0,200,94,307c0,0,93,106,267,106c0,0,356,0,356,-429V375H206c0,0,0,-138,57,-213c0,0,58,-75,168,-75c0,0,87,0,140,35c0,0,53,35,71,88L760,177c0,0,-72,-191,-329,-191Z" 
id="f0_21"
transform="scale(0.001,-0.001)" />

<path d="M17,0L304,415L31,808H179L380,493L580,808H730L457,417L747,0H598L380,331L162,0Z" 
id="f0_2k"
transform="scale(0.001,-0.001)" />

<path d="M339,87c0,0,74,0,132,34c0,0,57,33,90,91c0,0,34,59,34,121v66L448,396c0,0,-95,-2,-144,-19c0,0,-49,-18,-75,-55c0,0,-26,-38,-26,-98c0,0,0,-65,35,-101c0,0,36,-36,101,-36ZM309,-14c0,0,-122,0,-183,64c0,0,-61,64,-61,176c0,0,0,125,82,192c0,0,83,67,266,72l182,3v44c0,0,0,98,-42,141c0,0,-42,43,-132,43c0,0,-90,0,-131,-31c0,0,-41,-31,-49,-98L101,604c0,0,34,218,323,218c0,0,153,0,229,-70c0,0,77,-69,77,-202V202c0,0,0,-59,16,-90c0,0,16,-30,60,-30c0,0,19,0,44,5V4C850,4,799,-7,746,-7c0,0,-75,0,-109,38c0,0,-33,40,-38,124h-4C595,155,543,62,475,24c0,0,-68,-38,-166,-38Z" 
id="f0_1x"
transform="scale(0.001,-0.001)" />

<path d="M106,0V635c0,0,0,141,-5,173H228c0,0,1,-4,2,-21c0,0,1,-16,2,-37c0,0,1,-22,2,-81h2c0,0,44,86,100,120c0,0,56,33,136,33c0,0,92,0,145,-36c0,0,54,-37,75,-117h2c0,0,42,82,101,117c0,0,59,36,143,36c0,0,123,0,178,-66c0,0,56,-67,56,-218V0H1039V512c0,0,0,117,-32,162c0,0,-32,45,-116,45c0,0,-88,0,-136,-66c0,0,-49,-65,-49,-185V0H573V512c0,0,0,117,-32,162c0,0,-32,45,-116,45c0,0,-86,0,-136,-66c0,0,-50,-66,-50,-185V0Z" 
id="f0_29"
transform="scale(0.001,-0.001)" />

<path d="M453,84c0,0,100,0,146,74c0,0,46,73,46,247c0,0,0,169,-46,241c0,0,-45,73,-145,73c0,0,-80,0,-125,-34c0,0,-45,-34,-68,-105c0,0,-24,-71,-24,-186c0,0,0,-159,51,-234c0,0,51,-76,165,-76ZM103,-316V643c0,0,0,124,-5,165H228c0,0,1,-3,3,-22c0,0,1,-18,3,-56c0,0,2,-38,2,-52h3c0,0,36,75,94,110c0,0,59,34,156,34c0,0,149,0,223,-100c0,0,74,-100,74,-314c0,0,0,-422,-297,-422c0,0,-187,0,-251,140h-4c0,0,3,-6,3,-126V-316Z" 
id="f0_2c"
transform="scale(0.001,-0.001)" />

<path d="M420,84c0,0,121,0,173,78c0,0,52,77,52,243c0,0,0,167,-50,243c0,0,-50,76,-167,76c0,0,-118,0,-170,-78c0,0,-53,-77,-53,-241c0,0,0,-160,52,-241c0,0,52,-80,163,-80Zm1,-98c0,0,-176,0,-267,107c0,0,-90,108,-90,312c0,0,0,417,362,417c0,0,185,0,272,-102c0,0,88,-101,88,-315c0,0,0,-212,-94,-316C692,89,599,-14,421,-14Z" 
id="f0_2b"
transform="scale(0.001,-0.001)" />

<path d="M278,-11c0,0,-162,0,-162,182V710H23v98h99l39,181h90V808H400V710H251V200c0,0,0,-58,19,-82c0,0,19,-23,66,-23c0,0,27,0,77,10V6c0,0,-66,-17,-135,-17Z" 
id="f0_2g"
transform="scale(0.001,-0.001)" />

<path d="M395,89c0,0,115,0,166,79c0,0,51,79,51,246c0,0,0,160,-51,235c0,0,-51,75,-164,75c0,0,-102,0,-147,-75c0,0,-45,-75,-45,-244c0,0,0,-170,45,-243c0,0,45,-73,145,-73ZM361,-14c0,0,-153,0,-225,102c0,0,-72,103,-72,312c0,0,0,422,297,422c0,0,92,0,153,-33c0,0,61,-34,98,-107h2l-2,90v335H747V166c0,0,0,-126,4,-166H623c0,0,-2,12,-5,55c0,0,-3,44,-3,75h-3c0,0,-37,-78,-98,-111c0,0,-62,-33,-153,-33Z" 
id="f1_20"
transform="scale(0.001,-0.001)" />

<path d="M420,84c0,0,121,0,173,78c0,0,52,77,52,243c0,0,0,167,-50,243c0,0,-50,76,-167,76c0,0,-118,0,-170,-78c0,0,-53,-77,-53,-241c0,0,0,-160,52,-241c0,0,52,-80,163,-80Zm1,-98c0,0,-176,0,-267,107c0,0,-90,108,-90,312c0,0,0,417,362,417c0,0,185,0,272,-102c0,0,88,-101,88,-315c0,0,0,-212,-94,-316C692,89,599,-14,421,-14Z" 
id="f1_2b"
transform="scale(0.001,-0.001)" />

<path d="M643,478c0,0,-11,128,-65,187c0,0,-54,59,-154,59c0,0,-98,0,-155,-66c0,0,-57,-65,-62,-180ZM431,-14c0,0,-179,0,-272,106c0,0,-94,107,-94,317c0,0,0,200,94,307c0,0,93,106,267,106c0,0,356,0,356,-429V375H206c0,0,0,-138,57,-213c0,0,58,-75,168,-75c0,0,87,0,140,35c0,0,53,35,71,88L760,177c0,0,-72,-191,-329,-191Z" 
id="f1_21"
transform="scale(0.001,-0.001)" />

<path d="M381,-14c0,0,-150,0,-232,49C149,35,67,85,43,190l118,23c0,0,17,-65,71,-96c0,0,54,-30,149,-30c0,0,102,0,150,31c0,0,47,32,47,95c0,0,0,47,-33,77c0,0,-33,30,-106,49l-96,26c0,0,-115,30,-164,58c0,0,-49,29,-77,70c0,0,-27,41,-27,101c0,0,0,110,78,168c0,0,79,57,230,57c0,0,133,0,212,-47c0,0,79,-47,100,-150L574,607c0,0,-12,53,-60,82c0,0,-49,29,-131,29c0,0,-91,0,-135,-28c0,0,-43,-27,-43,-83c0,0,0,-34,18,-57c0,0,18,-22,53,-38c0,0,35,-15,148,-43c0,0,106,-27,153,-50c0,0,47,-22,75,-50c0,0,27,-27,42,-64c0,0,15,-36,15,-82c0,0,0,-114,-86,-176c0,0,-87,-61,-242,-61Z" 
id="f1_2f"
transform="scale(0.001,-0.001)" />

<path d="M106,0V635c0,0,0,141,-5,173H228c0,0,1,-4,2,-21c0,0,1,-16,2,-37c0,0,1,-22,2,-81h2c0,0,47,84,108,119c0,0,60,34,151,34c0,0,132,0,194,-66c0,0,61,-66,61,-218V0H615V512c0,0,0,80,-15,124c0,0,-16,44,-50,63c0,0,-35,20,-101,20c0,0,-97,0,-153,-67c0,0,-56,-66,-56,-184V0Z" 
id="f1_2a"
transform="scale(0.001,-0.001)" />

<path d="M278,-11c0,0,-162,0,-162,182V710H23v98h99l39,181h90V808H400V710H251V200c0,0,0,-58,19,-82c0,0,19,-23,66,-23c0,0,27,0,77,10V6c0,0,-66,-17,-135,-17Z" 
id="f1_2g"
transform="scale(0.001,-0.001)" />

<path d="M106,0V620c0,0,0,85,-5,188H228c0,0,6,-138,6,-165h3c0,0,32,103,74,141c0,0,42,38,118,38c0,0,27,0,54,-7V692c0,0,-26,7,-71,7c0,0,-84,0,-128,-72c0,0,-44,-72,-44,-206V0Z" 
id="f1_2e"
transform="scale(0.001,-0.001)" />

<path d="M339,87c0,0,74,0,132,34c0,0,57,33,90,91c0,0,34,59,34,121v66L448,396c0,0,-95,-2,-144,-19c0,0,-49,-18,-75,-55c0,0,-26,-38,-26,-98c0,0,0,-65,35,-101c0,0,36,-36,101,-36ZM309,-14c0,0,-122,0,-183,64c0,0,-61,64,-61,176c0,0,0,125,82,192c0,0,83,67,266,72l182,3v44c0,0,0,98,-42,141c0,0,-42,43,-132,43c0,0,-90,0,-131,-31c0,0,-41,-31,-49,-98L101,604c0,0,34,218,323,218c0,0,153,0,229,-70c0,0,77,-69,77,-202V202c0,0,0,-59,16,-90c0,0,16,-30,60,-30c0,0,19,0,44,5V4C850,4,799,-7,746,-7c0,0,-75,0,-109,38c0,0,-33,40,-38,124h-4C595,155,543,62,475,24c0,0,-68,-38,-166,-38Z" 
id="f1_1x"
transform="scale(0.001,-0.001)" />

<path d="M413,-14c0,0,-170,0,-259,106c0,0,-89,107,-89,313c0,0,0,203,89,310c0,0,90,107,257,107c0,0,124,0,206,-64c0,0,81,-64,102,-177L581,571c0,0,-10,67,-53,106c0,0,-42,40,-121,40c0,0,-106,0,-154,-71c0,0,-48,-71,-48,-239c0,0,0,-161,51,-238c0,0,51,-78,153,-78c0,0,71,0,120,39c0,0,48,39,59,119l136,-9C724,240,708,124,624,55c0,0,-83,-69,-211,-69Z" 
id="f1_1z"
transform="scale(0.001,-0.001)" />

<path d="M224,0L-1,808H131L267,259c0,0,5,-18,32,-147l13,55L480,808H624L765,253L800,112l23,103L976,808h131L876,0H720L579,571L552,697c0,0,-7,-33,-21,-96C531,601,517,537,379,0Z" 
id="f1_2j"
transform="scale(0.001,-0.001)" />

<path d="M102,0V808H236V0Zm0,979v128H236V979Z" 
id="f1_25"
transform="scale(0.001,-0.001)" />

<path d="M615,0V512c0,0,0,85,-15,126c0,0,-16,42,-52,61c0,0,-36,20,-99,20c0,0,-95,0,-152,-66c0,0,-57,-66,-57,-177V0H106V1107H240V819c0,0,0,-45,-2,-94c0,0,-3,-48,-4,-56h2c0,0,44,79,105,116c0,0,60,37,154,37c0,0,131,0,193,-65c0,0,62,-65,62,-219V0Z" 
id="f1_24"
transform="scale(0.001,-0.001)" />

<path d="M453,84c0,0,101,0,146,75c0,0,46,75,46,244c0,0,0,169,-45,243c0,0,-45,73,-146,73c0,0,-113,0,-165,-78c0,0,-52,-78,-52,-246c0,0,0,-159,51,-235c0,0,51,-76,165,-76Zm36,-98c0,0,-92,0,-153,33c0,0,-61,33,-99,107h-1c0,0,0,-24,-3,-71c0,0,-3,-48,-5,-55H98c0,0,5,40,5,166v941H237V792c0,0,0,-49,-3,-114h3c0,0,38,77,99,111c0,0,62,33,153,33c0,0,153,0,225,-103c0,0,72,-103,72,-311c0,0,0,-422,-297,-422Z" 
id="f1_1y"
transform="scale(0.001,-0.001)" />

<path d="M62,0V102L513,704H87V808H672V706L220,104H688V0Z" 
id="f1_2m"
transform="scale(0.001,-0.001)" />

<path d="M355,-14c0,0,-133,0,-194,65c0,0,-62,66,-62,219V808H234V296c0,0,0,-80,16,-124c0,0,16,-44,50,-64c0,0,34,-19,101,-19c0,0,97,0,153,66c0,0,55,67,55,185V808H744V172c0,0,0,-141,4,-172H621c0,0,0,4,-1,20c0,0,-1,17,-2,38c0,0,-1,21,-3,80h-2C613,138,567,55,506,20c0,0,-61,-34,-151,-34Z" 
id="f1_2h"
transform="scale(0.001,-0.001)" />

<path d="M103,0V1107H237V0Z" 
id="f1_28"
transform="scale(0.001,-0.001)" />

<path d="M453,84c0,0,100,0,146,74c0,0,46,73,46,247c0,0,0,169,-46,241c0,0,-45,73,-145,73c0,0,-80,0,-125,-34c0,0,-45,-34,-68,-105c0,0,-24,-71,-24,-186c0,0,0,-159,51,-234c0,0,51,-76,165,-76ZM103,-316V643c0,0,0,124,-5,165H228c0,0,1,-3,3,-22c0,0,1,-18,3,-56c0,0,2,-38,2,-52h3c0,0,36,75,94,110c0,0,59,34,156,34c0,0,149,0,223,-100c0,0,74,-100,74,-314c0,0,0,-422,-297,-422c0,0,-187,0,-251,140h-4c0,0,3,-6,3,-126V-316Z" 
id="f1_2c"
transform="scale(0.001,-0.001)" />

<path d="M142,-316c0,0,-55,0,-92,8v101c0,0,28,-4,63,-4c0,0,125,0,198,184L324,4L4,808H147L317,362c0,0,4,-11,9,-25c0,0,5,-15,34,-98c0,0,28,-83,30,-92l52,147L619,808H761L451,0c0,0,-50,-128,-94,-191c0,0,-43,-63,-96,-94c0,0,-52,-31,-119,-31Z" 
id="f1_2l"
transform="scale(0.001,-0.001)" />

<path d="M140,0V163H285V0Z" 
id="f1_i"
transform="scale(0.001,-0.001)" />

<path d="M141,0V1051H283V0Z" 
id="f1_19"
transform="scale(0.001,-0.001)" />

<path d="M135,0V710H22v98H135v91c0,0,0,110,49,158c0,0,48,49,148,49c0,0,56,0,95,-9V994c0,0,-34,6,-60,6c0,0,-51,0,-75,-26c0,0,-23,-26,-23,-94V808H427V710H269V0Z" 
id="f1_22"
transform="scale(0.001,-0.001)" />

<path d="M708,418L573,765c0,0,-21,52,-42,117l-20,62l-7,-21c0,0,-18,-62,-55,-159L315,418ZM3,0L432,1051H594L1016,0H871L750,307H272L151,0Z" 
id="f1_11"
transform="scale(0.001,-0.001)" />

<path d="M137,-195c0,0,70,102,70,195H142V163H287V38c0,0,0,-78,-14,-131c0,0,-14,-53,-44,-102Z" 
id="f1_g"
transform="scale(0.001,-0.001)" />

<path d="M545,114c0,0,130,0,190,49c0,0,59,48,59,144c0,0,0,186,-261,186H268V114ZM507,604c0,0,114,0,171,43c0,0,56,43,56,132c0,0,0,85,-58,121c0,0,-58,37,-169,37H268V604ZM125,0V1051H507c0,0,370,0,370,-255c0,0,0,-93,-52,-157c0,0,-52,-63,-148,-85c0,0,126,-15,194,-84c0,0,67,-69,67,-174c0,0,0,-140,-102,-218C836,78,734,0,552,0Z" 
id="f1_12"
transform="scale(0.001,-0.001)" />

<path d="M590,-14c0,0,-159,0,-275,65c0,0,-116,66,-177,189c0,0,-60,123,-60,291c0,0,0,251,135,393c0,0,136,143,376,143c0,0,168,0,281,-66c0,0,112,-66,165,-195L900,762c0,0,-36,92,-117,141c0,0,-81,48,-192,48c0,0,-175,0,-272,-112c0,0,-97,-112,-97,-308c0,0,0,-193,101,-311c0,0,101,-117,274,-117c0,0,221,0,332,218l116,-58c0,0,-65,-136,-182,-207c0,0,-118,-70,-273,-70Z" 
id="f1_13"
transform="scale(0.001,-0.001)" />

<path d="M109,-316V1107H413v-96H239V-220H413v-96Z" 
id="f1_1r"
transform="scale(0.001,-0.001)" />

<path d="M703,434L599,736L567,838l-16,51l-4,-16c0,0,-8,-27,-18,-61c0,0,-11,-35,-128,-378ZM38,0L421,1051H681L1063,0H845L752,269H351L258,0Z" 
id="f2_11"
transform="scale(0.001,-0.001)" />

<path d="M107,0V627c0,0,0,65,-2,106c0,0,-2,42,-4,75H301c0,0,2,-15,6,-77c0,0,3,-61,3,-85h3c0,0,43,93,107,135c0,0,64,41,153,41c0,0,128,0,197,-79c0,0,68,-79,68,-231V0H630V452c0,0,0,213,-144,213c0,0,-76,0,-123,-65c0,0,-47,-66,-47,-168V0Z" 
id="f2_2a"
transform="scale(0.001,-0.001)" />

<path d="M426,-14c0,0,-166,0,-255,52C171,38,83,90,54,201l184,28c0,0,16,-57,54,-81c0,0,38,-24,134,-24c0,0,88,0,128,22c0,0,41,23,41,70c0,0,0,39,-33,62c0,0,-32,23,-110,38c0,0,-177,35,-239,65c0,0,-62,31,-95,79c0,0,-32,48,-32,118c0,0,0,115,89,180c0,0,89,64,252,64c0,0,144,0,232,-56c0,0,88,-56,109,-162L583,585c0,0,-9,49,-44,74c0,0,-35,24,-112,24c0,0,-74,0,-111,-19c0,0,-38,-19,-38,-64c0,0,0,-35,29,-55c0,0,29,-21,97,-34c0,0,94,-20,168,-40c0,0,73,-21,118,-49c0,0,44,-28,71,-73c0,0,26,-44,26,-113c0,0,0,-117,-96,-184c0,0,-96,-66,-265,-66Z" 
id="f2_2f"
transform="scale(0.001,-0.001)" />

<path d="M104,0V228H319V0Z" 
id="f2_i"
transform="scale(0.001,-0.001)" />

<path d="M147,0V209H362V0Zm0,562V771H362V562Z" 
id="f2_u"
transform="scale(0.001,-0.001)" />

<path d="M370,-316c0,0,-141,152,-208,323C162,7,95,179,95,394v3c0,0,0,215,67,387c0,0,68,171,208,323H500c0,0,-140,-155,-205,-330c0,0,-65,-175,-65,-382c0,0,0,-207,64,-381c0,0,65,-172,206,-330Z" 
id="f1_c"
transform="scale(0.001,-0.001)" />

<path d="M9,-316c0,0,140,157,205,329c0,0,65,174,65,382c0,0,0,208,-65,382c0,0,-66,174,-205,330H139c0,0,141,-152,208,-324c0,0,67,-172,67,-386v-3c0,0,0,-216,-67,-388c0,0,-68,-170,-208,-322Z" 
id="f1_d"
transform="scale(0.001,-0.001)" />

<path d="M125,0V1051H268V606H836v445H979V0H836V487H268V0Z" 
id="f1_18"
transform="scale(0.001,-0.001)" />

<path d="M426,-14c0,0,-160,0,-255,71c0,0,-95,72,-113,213l139,13c0,0,27,-187,229,-187c0,0,101,0,159,50c0,0,58,50,58,149c0,0,0,86,-66,134c0,0,-66,48,-191,48H310V594h73c0,0,111,0,172,48c0,0,60,48,60,133c0,0,0,84,-49,132c0,0,-50,49,-147,49c0,0,-89,0,-144,-45c0,0,-55,-46,-64,-129L76,793c0,0,15,129,107,201c0,0,92,73,237,73c0,0,158,0,246,-74c0,0,87,-73,87,-204c0,0,0,-101,-56,-164c0,0,-56,-63,-164,-85v-3c0,0,118,-13,184,-79c0,0,66,-67,66,-167c0,0,0,-146,-93,-226c0,0,-92,-79,-264,-79Z" 
id="f1_n"
transform="scale(0.001,-0.001)" />

<path d="M77,0V95c0,0,38,87,93,154c0,0,55,67,115,121c0,0,60,54,120,100c0,0,59,46,107,93c0,0,47,46,77,97c0,0,29,50,29,114c0,0,0,87,-50,135c0,0,-51,47,-141,47c0,0,-86,0,-142,-46c0,0,-55,-47,-65,-131L83,791c0,0,15,126,107,201c0,0,92,75,237,75c0,0,159,0,244,-75c0,0,85,-75,85,-213c0,0,0,-61,-28,-122c0,0,-28,-60,-83,-120c0,0,-55,-61,-211,-188c0,0,-86,-70,-136,-126c0,0,-51,-56,-73,-109H773V0Z" 
id="f1_m"
transform="scale(0.001,-0.001)" />

<path d="M125,0V1051H291L859,150c0,0,-9,146,-9,212v689H979V0H807L245,895l3,-72l4,-125V0Z" 
id="f1_1e"
transform="scale(0.001,-0.001)" />

<path d="M12,-316v96H186V1011H12v96H316V-316Z" 
id="f1_1t"
transform="scale(0.001,-0.001)" />

<path d="M116,0V114H384V923L147,754V881l248,170H519V114H775V0Z" 
id="f1_l"
transform="scale(0.001,-0.001)" />

<path d="M398,93c0,0,63,0,112,37c0,0,49,38,76,107c0,0,27,70,27,166c0,0,0,99,-27,170c0,0,-27,71,-75,109c0,0,-49,38,-111,38c0,0,-103,0,-150,-75c0,0,-47,-75,-47,-242c0,0,0,-165,44,-238c0,0,44,-72,151,-72Zm11,-409c0,0,-132,0,-211,52c0,0,-78,52,-100,147l135,20c0,0,13,-56,59,-87c0,0,46,-30,121,-30c0,0,200,0,200,234V150h-1C612,150,574,72,507,33C507,33,441,-5,352,-5c0,0,-148,0,-218,98c0,0,-70,98,-70,309c0,0,0,214,75,316c0,0,75,101,228,101c0,0,86,0,149,-39c0,0,63,-39,97,-111h2c0,0,0,22,3,78c0,0,3,55,6,61H751c0,0,-4,-41,-4,-167V23c0,0,0,-339,-338,-339Z" 
id="f1_23"
transform="scale(0.001,-0.001)" />

<path d="M106,0V635c0,0,0,141,-5,173H228c0,0,1,-4,2,-21c0,0,1,-16,2,-37c0,0,1,-22,2,-81h2c0,0,44,86,100,120c0,0,56,33,136,33c0,0,92,0,145,-36c0,0,54,-37,75,-117h2c0,0,42,82,101,117c0,0,59,36,143,36c0,0,123,0,178,-66c0,0,56,-67,56,-218V0H1039V512c0,0,0,117,-32,162c0,0,-32,45,-116,45c0,0,-88,0,-136,-66c0,0,-49,-65,-49,-185V0H573V512c0,0,0,117,-32,162c0,0,-32,45,-116,45c0,0,-86,0,-136,-66c0,0,-50,-66,-50,-185V0Z" 
id="f1_29"
transform="scale(0.001,-0.001)" />

<path d="M298,0L5,808H148L326,282c0,0,10,-29,51,-176l27,87l29,88L616,808H759L457,0Z" 
id="f1_2i"
transform="scale(0.001,-0.001)" />

<path d="M0,-14L307,1107H424L121,-14Z" 
id="f1_j"
transform="scale(0.001,-0.001)" />

<path d="M316,0L7,1051H155L344,383c0,0,33,-125,62,-258c0,0,18,82,41,179c0,0,24,97,207,747H791L974,397c0,0,41,-160,65,-272l7,26c0,0,20,86,33,140c0,0,12,54,209,760h149L1127,0H957L775,668c0,0,-18,62,-52,224c0,0,-20,-86,-33,-145C690,747,677,689,486,0Z" 
id="f1_1n"
transform="scale(0.001,-0.001)" />

<path d="M272,0c0,0,0,201,86,424c0,0,85,223,285,513H78v114H773V942C773,942,612,696,545,556c0,0,-66,-139,-99,-275C446,281,413,145,413,0Z" 
id="f1_r"
transform="scale(0.001,-0.001)" />

<path d="M125,0V1051H268V524l506,527H942L495,595L1002,0H825L405,507L268,403V0Z" 
id="f1_1b"
transform="scale(0.001,-0.001)" />

<path d="M593,101c0,0,182,0,279,112c0,0,98,113,98,318c0,0,0,196,-98,308c0,0,-98,112,-277,112c0,0,-181,0,-279,-110c0,0,-99,-111,-99,-310c0,0,0,-198,100,-314c0,0,99,-116,276,-116Zm0,-115c0,0,-162,0,-279,65c0,0,-118,66,-180,190c0,0,-62,124,-62,290c0,0,0,252,138,394c0,0,138,142,385,142c0,0,160,0,278,-64c0,0,118,-64,180,-185c0,0,62,-122,62,-287c0,0,0,-165,-63,-289c0,0,-63,-124,-181,-190c0,0,-118,-66,-278,-66Z" 
id="f1_1f"
transform="scale(0.001,-0.001)" />

<path d="M530,344V900c0,0,-1,-5,-20,-40c0,0,-20,-35,-30,-49L211,414L171,359L159,344ZM530,0V239H35V343l481,708H657V344H805V239H657V0Z" 
id="f1_o"
transform="scale(0.001,-0.001)" />

<path d="M439,94c0,0,97,0,152,65c0,0,55,65,55,179c0,0,0,114,-56,176c0,0,-56,62,-156,62c0,0,-94,0,-152,-55c0,0,-57,-55,-57,-151c0,0,0,-121,60,-199c0,0,60,-77,154,-77Zm4,-108c0,0,-177,0,-271,131c0,0,-94,132,-94,384c0,0,0,273,97,420c0,0,98,146,279,146c0,0,238,0,299,-214L625,830c0,0,-39,128,-173,128c0,0,-115,0,-178,-107c0,0,-63,-107,-63,-310c0,0,37,68,103,103c0,0,66,36,152,36c0,0,146,0,231,-91c0,0,86,-91,86,-245c0,0,0,-166,-91,-262c0,0,-90,-96,-249,-96Z" 
id="f1_q"
transform="scale(0.001,-0.001)" />

<path d="M502,114c0,0,116,0,203,51c0,0,88,51,135,146c0,0,47,96,47,225c0,0,0,196,-107,298c0,0,-107,103,-310,103H268V114ZM125,0V1051H473c0,0,267,0,412,-134c0,0,145,-134,145,-381c0,0,0,-162,-63,-284C967,252,903,130,787,65C787,65,671,0,518,0Z" 
id="f1_14"
transform="scale(0.001,-0.001)" />

<path d="M395,89c0,0,115,0,166,81c0,0,51,82,51,244c0,0,0,157,-51,233c0,0,-51,77,-164,77c0,0,-102,0,-147,-77c0,0,-45,-76,-45,-242c0,0,0,-170,45,-243c0,0,45,-73,145,-73ZM612,-316V11l3,122h-1c0,0,-40,-80,-99,-114c0,0,-59,-33,-154,-33c0,0,-154,0,-225,103c0,0,-72,104,-72,311c0,0,0,422,297,422c0,0,92,0,151,-32c0,0,60,-33,100,-108h2c0,0,0,22,3,77c0,0,3,55,6,58H752c0,0,-5,-44,-5,-220V-316Z" 
id="f1_2d"
transform="scale(0.001,-0.001)" />

<path d="M102,0V1051H322V633H780v418h220V0H780V451H322V0Z" 
id="f2_18"
transform="scale(0.001,-0.001)" />

<path d="M107,0V808H316V0Zm0,952v155H316V952Z" 
id="f2_25"
transform="scale(0.001,-0.001)" />

<path d="M313,-13c0,0,-92,0,-142,50c0,0,-50,50,-50,152V666H19V808H131l66,189H328V808H481V666H328V245c0,0,0,-59,23,-87c0,0,22,-28,69,-28c0,0,25,0,70,10V11c0,0,-77,-24,-177,-24Z" 
id="f2_2g"
transform="scale(0.001,-0.001)" />

<path d="M415,-18c0,0,-149,0,-244,83c0,0,-94,84,-107,222l140,11c0,0,16,-103,73,-154c0,0,56,-52,137,-52c0,0,98,0,165,73c0,0,66,73,66,194c0,0,0,115,-64,182c0,0,-64,66,-169,66c0,0,-65,0,-117,-29c0,0,-52,-30,-82,-77L87,517l106,562H736V951H300L241,657c0,0,99,69,207,69c0,0,143,0,242,-100c0,0,98,-99,98,-255c0,0,0,-149,-86,-257C702,114,597,-18,415,-18Z" 
id="f3_p"
transform="scale(0.001,-0.001)" />

<path d="M125,0V1051H268V115H799V0Z" 
id="f0_1c"
transform="scale(0.001,-0.001)" />

<path d="M106,0V620c0,0,0,85,-5,188H228c0,0,6,-138,6,-165h3c0,0,32,103,74,141c0,0,42,38,118,38c0,0,27,0,54,-7V692c0,0,-26,7,-71,7c0,0,-84,0,-128,-72c0,0,-44,-72,-44,-206V0Z" 
id="f0_2e"
transform="scale(0.001,-0.001)" />

<path d="M606,-14c0,0,-164,0,-284,65c0,0,-119,66,-182,189c0,0,-63,123,-63,291c0,0,0,255,137,396c0,0,137,140,386,140c0,0,174,0,283,-59c0,0,109,-59,168,-189L915,779c0,0,-44,90,-123,131c0,0,-79,41,-196,41c0,0,-182,0,-278,-110c0,0,-96,-110,-96,-310c0,0,0,-200,102,-315c0,0,102,-115,282,-115c0,0,103,0,193,31c0,0,89,31,144,85V407H629V526h445V164c0,0,-83,-85,-205,-132c0,0,-121,-46,-263,-46Z" 
id="f0_17"
transform="scale(0.001,-0.001)" />

<path d="M355,-14c0,0,-133,0,-194,65c0,0,-62,66,-62,219V808H234V296c0,0,0,-80,16,-124c0,0,16,-44,50,-64c0,0,34,-19,101,-19c0,0,97,0,153,66c0,0,55,67,55,185V808H744V172c0,0,0,-141,4,-172H621c0,0,0,4,-1,20c0,0,-1,17,-2,38c0,0,-1,21,-3,80h-2C613,138,567,55,506,20c0,0,-61,-34,-151,-34Z" 
id="f0_2h"
transform="scale(0.001,-0.001)" />

<path d="M395,89c0,0,115,0,166,79c0,0,51,79,51,246c0,0,0,160,-51,235c0,0,-51,75,-164,75c0,0,-102,0,-147,-75c0,0,-45,-75,-45,-244c0,0,0,-170,45,-243c0,0,45,-73,145,-73ZM361,-14c0,0,-153,0,-225,102c0,0,-72,103,-72,312c0,0,0,422,297,422c0,0,92,0,153,-33c0,0,61,-34,98,-107h2l-2,90v335H747V166c0,0,0,-126,4,-166H623c0,0,-2,12,-5,55c0,0,-3,44,-3,75h-3c0,0,-37,-78,-98,-111c0,0,-62,-33,-153,-33Z" 
id="f0_20"
transform="scale(0.001,-0.001)" />

<path d="M140,0V163H285V0Z" 
id="f0_i"
transform="scale(0.001,-0.001)" />


</defs>
</svg>