<?xml version="1.0" encoding="UTF-8" standalone="no"?>
<!DOCTYPE svg PUBLIC "-//W3C//DTD SVG 1.1//EN"
"http://www.w3.org/Graphics/SVG/1.1/DTD/svg11.dtd">
<svg viewBox="0 0 751 761" version="1.1" xmlns="http://www.w3.org/2000/svg" xmlns:xlink="http://www.w3.org/1999/xlink">
<defs>
</defs>
<g fill="#FF0000" >
<use xlink:href="#f0_13" transform="matrix(14,0,0,14,15.3,60.6)" />
<use xlink:href="#f0_24" transform="matrix(14,0,0,14,30.7,60.6)" />
<use xlink:href="#f0_1x" transform="matrix(14,0,0,14,42.6,60.6)" />
<use xlink:href="#f0_2c" transform="matrix(14,0,0,14,54.5,60.6)" />
<use xlink:href="#f0_2g" transform="matrix(14,0,0,14,66.4,60.6)" />
<use xlink:href="#f0_21" transform="matrix(14,0,0,14,72.3,60.6)" />
<use xlink:href="#f0_2e" transform="matrix(14,0,0,14,84.2,60.6)" />
<use xlink:href="#f0_l" transform="matrix(14,0,0,14,97.3,60.6)" />
<use xlink:href="#f0_h" transform="matrix(14,0,0,14,115.1,60.6)" />
<use xlink:href="#f0_1k" transform="matrix(14,0,0,14,128.2,60.6)" />
<use xlink:href="#f0_24" transform="matrix(14,0,0,14,141.3,60.6)" />
<use xlink:href="#f0_21" transform="matrix(14,0,0,14,153.2,60.6)" />
<use xlink:href="#f0_1j" transform="matrix(14,0,0,14,171,60.6)" />
<use xlink:href="#f0_2b" transform="matrix(14,0,0,14,185.3,60.6)" />
<use xlink:href="#f0_28" transform="matrix(14,0,0,14,197.2,60.6)" />
<use xlink:href="#f0_25" transform="matrix(14,0,0,14,201.9,60.6)" />
<use xlink:href="#f0_20" transform="matrix(14,0,0,14,206.7,60.6)" />
<use xlink:href="#f0_1j" transform="matrix(14,0,0,14,224.5,60.6)" />
<use xlink:href="#f0_2g" transform="matrix(14,0,0,14,238.8,60.6)" />
<use xlink:href="#f0_1x" transform="matrix(14,0,0,14,244.7,60.6)" />
<use xlink:href="#f0_2g" transform="matrix(14,0,0,14,256.6,60.6)" />
<use xlink:href="#f0_21" transform="matrix(14,0,0,14,262.6,60.6)" />
<use xlink:href="#f0_i" transform="matrix(14,0,0,14,274.4,60.6)" />
<use xlink:href="#f0_2c" transform="matrix(14,0,0,14,280.4,60.6)" />
<use xlink:href="#f0_20" transform="matrix(14,0,0,14,292.3,60.6)" />
<use xlink:href="#f0_22" transform="matrix(14,0,0,14,304.2,60.6)" />
<use xlink:href="#f0_13" transform="matrix(14,0,0,14,15.3,99.8)" />
<use xlink:href="#f0_24" transform="matrix(14,0,0,14,30.7,99.8)" />
<use xlink:href="#f0_1x" transform="matrix(14,0,0,14,42.6,99.8)" />
<use xlink:href="#f0_2c" transform="matrix(14,0,0,14,54.5,99.8)" />
<use xlink:href="#f0_2g" transform="matrix(14,0,0,14,66.4,99.8)" />
<use xlink:href="#f0_21" transform="matrix(14,0,0,14,72.3,99.8)" />
<use xlink:href="#f0_2e" transform="matrix(14,0,0,14,84.2,99.8)" />
<use xlink:href="#f0_m" transform="matrix(14,0,0,14,97.3,99.8)" />
<use xlink:href="#f0_h" transform="matrix(14,0,0,14,115.1,99.8)" />
<use xlink:href="#f0_1j" transform="matrix(14,0,0,14,128.2,99.8)" />
<use xlink:href="#f0_2b" transform="matrix(14,0,0,14,142.5,99.8)" />
<use xlink:href="#f0_28" transform="matrix(14,0,0,14,154.4,99.8)" />
<use xlink:href="#f0_2h" transform="matrix(14,0,0,14,159.1,99.8)" />
<use xlink:href="#f0_2g" transform="matrix(14,0,0,14,171,99.8)" />
<use xlink:href="#f0_25" transform="matrix(14,0,0,14,177,99.8)" />
<use xlink:href="#f0_2b" transform="matrix(14,0,0,14,181.7,99.8)" />
<use xlink:href="#f0_2a" transform="matrix(14,0,0,14,193.6,99.8)" />
<use xlink:href="#f0_2f" transform="matrix(14,0,0,14,205.5,99.8)" />
<use xlink:href="#f0_i" transform="matrix(14,0,0,14,216.2,99.8)" />
<use xlink:href="#f0_2c" transform="matrix(14,0,0,14,222.1,99.8)" />
<use xlink:href="#f0_20" transform="matrix(14,0,0,14,234,99.8)" />
<use xlink:href="#f0_22" transform="matrix(14,0,0,14,245.9,99.8)" />
<use xlink:href="#f0_13" transform="matrix(14,0,0,14,15.3,138.9)" />
<use xlink:href="#f0_24" transform="matrix(14,0,0,14,30.7,138.9)" />
<use xlink:href="#f0_1x" transform="matrix(14,0,0,14,42.6,138.9)" />
<use xlink:href="#f0_2c" transform="matrix(14,0,0,14,54.5,138.9)" />
<use xlink:href="#f0_2g" transform="matrix(14,0,0,14,66.4,138.9)" />
<use xlink:href="#f0_21" transform="matrix(14,0,0,14,72.3,138.9)" />
<use xlink:href="#f0_2e" transform="matrix(14,0,0,14,84.2,138.9)" />
<use xlink:href="#f0_n" transform="matrix(14,0,0,14,97.3,138.9)" />
<use xlink:href="#f0_h" transform="matrix(14,0,0,14,115.1,138.9)" />
<use xlink:href="#f0_15" transform="matrix(14,0,0,14,128.2,138.9)" />
<use xlink:href="#f0_28" transform="matrix(14,0,0,14,142.5,138.9)" />
<use xlink:href="#f0_21" transform="matrix(14,0,0,14,147.2,138.9)" />
<use xlink:href="#f0_1z" transform="matrix(14,0,0,14,159.1,138.9)" />
<use xlink:href="#f0_2g" transform="matrix(14,0,0,14,169.8,138.9)" />
<use xlink:href="#f0_2e" transform="matrix(14,0,0,14,175.8,138.9)" />
<use xlink:href="#f0_2b" transform="matrix(14,0,0,14,182.9,138.9)" />
<use xlink:href="#f0_1z" transform="matrix(14,0,0,14,194.8,138.9)" />
<use xlink:href="#f0_24" transform="matrix(14,0,0,14,205.5,138.9)" />
<use xlink:href="#f0_21" transform="matrix(14,0,0,14,217.4,138.9)" />
<use xlink:href="#f0_29" transform="matrix(14,0,0,14,229.3,138.9)" />
<use xlink:href="#f0_25" transform="matrix(14,0,0,14,247.1,138.9)" />
<use xlink:href="#f0_2f" transform="matrix(14,0,0,14,251.8,138.9)" />
<use xlink:href="#f0_2g" transform="matrix(14,0,0,14,262.5,138.9)" />
<use xlink:href="#f0_2e" transform="matrix(14,0,0,14,268.5,138.9)" />
<use xlink:href="#f0_2l" transform="matrix(14,0,0,14,275.6,138.9)" />
<use xlink:href="#f0_i" transform="matrix(14,0,0,14,286.3,138.9)" />
<use xlink:href="#f0_2c" transform="matrix(14,0,0,14,292.2,138.9)" />
<use xlink:href="#f0_20" transform="matrix(14,0,0,14,304.1,138.9)" />
<use xlink:href="#f0_22" transform="matrix(14,0,0,14,316,138.9)" />
<use xlink:href="#f0_13" transform="matrix(14,0,0,14,15.3,178.1)" />
<use xlink:href="#f0_24" transform="matrix(14,0,0,14,30.7,178.1)" />
<use xlink:href="#f0_1x" transform="matrix(14,0,0,14,42.6,178.1)" />
<use xlink:href="#f0_2c" transform="matrix(14,0,0,14,54.5,178.1)" />
<use xlink:href="#f0_2g" transform="matrix(14,0,0,14,66.4,178.1)" />
<use xlink:href="#f0_21" transform="matrix(14,0,0,14,72.3,178.1)" />
<use xlink:href="#f0_2e" transform="matrix(14,0,0,14,84.2,178.1)" />
<use xlink:href="#f0_o" transform="matrix(14,0,0,14,97.3,178.1)" />
<use xlink:href="#f0_h" transform="matrix(14,0,0,14,115.1,178.1)" />
<use xlink:href="#f0_13" transform="matrix(14,0,0,14,128.2,178.1)" />
<use xlink:href="#f0_24" transform="matrix(14,0,0,14,143.7,178.1)" />
<use xlink:href="#f0_21" transform="matrix(14,0,0,14,155.5,178.1)" />
<use xlink:href="#f0_29" transform="matrix(14,0,0,14,167.4,178.1)" />
<use xlink:href="#f0_25" transform="matrix(14,0,0,14,185.3,178.1)" />
<use xlink:href="#f0_1z" transform="matrix(14,0,0,14,190,178.1)" />
<use xlink:href="#f0_1x" transform="matrix(14,0,0,14,200.7,178.1)" />
<use xlink:href="#f0_28" transform="matrix(14,0,0,14,212.6,178.1)" />
<use xlink:href="#f0_1b" transform="matrix(14,0,0,14,223.3,178.1)" />
<use xlink:href="#f0_25" transform="matrix(14,0,0,14,237.6,178.1)" />
<use xlink:href="#f0_2a" transform="matrix(14,0,0,14,242.3,178.1)" />
<use xlink:href="#f0_21" transform="matrix(14,0,0,14,254.2,178.1)" />
<use xlink:href="#f0_2g" transform="matrix(14,0,0,14,266.1,178.1)" />
<use xlink:href="#f0_25" transform="matrix(14,0,0,14,272,178.1)" />
<use xlink:href="#f0_1z" transform="matrix(14,0,0,14,276.8,178.1)" />
<use xlink:href="#f0_2f" transform="matrix(14,0,0,14,287.5,178.1)" />
<use xlink:href="#f0_i" transform="matrix(14,0,0,14,298.2,178.1)" />
<use xlink:href="#f0_2c" transform="matrix(14,0,0,14,304.1,178.1)" />
<use xlink:href="#f0_20" transform="matrix(14,0,0,14,316,178.1)" />
<use xlink:href="#f0_22" transform="matrix(14,0,0,14,327.9,178.1)" />
<use xlink:href="#f0_13" transform="matrix(14,0,0,14,15.3,217.2)" />
<use xlink:href="#f0_24" transform="matrix(14,0,0,14,30.7,217.2)" />
<use xlink:href="#f0_1x" transform="matrix(14,0,0,14,42.6,217.2)" />
<use xlink:href="#f0_2c" transform="matrix(14,0,0,14,54.5,217.2)" />
<use xlink:href="#f0_2g" transform="matrix(14,0,0,14,66.4,217.2)" />
<use xlink:href="#f0_21" transform="matrix(14,0,0,14,72.3,217.2)" />
<use xlink:href="#f0_2e" transform="matrix(14,0,0,14,84.2,217.2)" />
<use xlink:href="#f0_p" transform="matrix(14,0,0,14,97.3,217.2)" />
<use xlink:href="#f0_h" transform="matrix(14,0,0,14,115.1,217.2)" />
<use xlink:href="#f0_1j" transform="matrix(14,0,0,14,128.2,217.2)" />
<use xlink:href="#f0_2h" transform="matrix(14,0,0,14,142.5,217.2)" />
<use xlink:href="#f0_2e" transform="matrix(14,0,0,14,154.4,217.2)" />
<use xlink:href="#f0_22" transform="matrix(14,0,0,14,161.5,217.2)" />
<use xlink:href="#f0_1x" transform="matrix(14,0,0,14,167.4,217.2)" />
<use xlink:href="#f0_1z" transform="matrix(14,0,0,14,179.3,217.2)" />
<use xlink:href="#f0_21" transform="matrix(14,0,0,14,190,217.2)" />
<use xlink:href="#f0_13" transform="matrix(14,0,0,14,207.9,217.2)" />
<use xlink:href="#f0_24" transform="matrix(14,0,0,14,223.3,217.2)" />
<use xlink:href="#f0_21" transform="matrix(14,0,0,14,235.2,217.2)" />
<use xlink:href="#f0_29" transform="matrix(14,0,0,14,247.1,217.2)" />
<use xlink:href="#f0_25" transform="matrix(14,0,0,14,264.9,217.2)" />
<use xlink:href="#f0_2f" transform="matrix(14,0,0,14,269.7,217.2)" />
<use xlink:href="#f0_2g" transform="matrix(14,0,0,14,280.4,217.2)" />
<use xlink:href="#f0_2e" transform="matrix(14,0,0,14,286.3,217.2)" />
<use xlink:href="#f0_2l" transform="matrix(14,0,0,14,293.4,217.2)" />
<use xlink:href="#f0_i" transform="matrix(14,0,0,14,304.1,217.2)" />
<use xlink:href="#f0_2c" transform="matrix(14,0,0,14,310.1,217.2)" />
<use xlink:href="#f0_20" transform="matrix(14,0,0,14,322,217.2)" />
<use xlink:href="#f0_22" transform="matrix(14,0,0,14,333.8,217.2)" />
<use xlink:href="#f0_13" transform="matrix(14,0,0,14,15.3,256.3)" />
<use xlink:href="#f0_24" transform="matrix(14,0,0,14,30.7,256.3)" />
<use xlink:href="#f0_1x" transform="matrix(14,0,0,14,42.6,256.3)" />
<use xlink:href="#f0_2c" transform="matrix(14,0,0,14,54.5,256.3)" />
<use xlink:href="#f0_2g" transform="matrix(14,0,0,14,66.4,256.3)" />
<use xlink:href="#f0_21" transform="matrix(14,0,0,14,72.3,256.3)" />
<use xlink:href="#f0_2e" transform="matrix(14,0,0,14,84.2,256.3)" />
<use xlink:href="#f0_q" transform="matrix(14,0,0,14,97.3,256.3)" />
<use xlink:href="#f0_h" transform="matrix(14,0,0,14,115.1,256.3)" />
<use xlink:href="#f0_17" transform="matrix(14,0,0,14,128.2,256.3)" />
<use xlink:href="#f0_21" transform="matrix(14,0,0,14,144.9,256.3)" />
<use xlink:href="#f0_2a" transform="matrix(14,0,0,14,156.7,256.3)" />
<use xlink:href="#f0_21" transform="matrix(14,0,0,14,168.6,256.3)" />
<use xlink:href="#f0_2e" transform="matrix(14,0,0,14,180.5,256.3)" />
<use xlink:href="#f0_1x" transform="matrix(14,0,0,14,187.7,256.3)" />
<use xlink:href="#f0_28" transform="matrix(14,0,0,14,199.5,256.3)" />
<use xlink:href="#f0_1g" transform="matrix(14,0,0,14,210.2,256.3)" />
<use xlink:href="#f0_2e" transform="matrix(14,0,0,14,224.5,256.3)" />
<use xlink:href="#f0_25" transform="matrix(14,0,0,14,231.6,256.3)" />
<use xlink:href="#f0_2a" transform="matrix(14,0,0,14,236.4,256.3)" />
<use xlink:href="#f0_1z" transform="matrix(14,0,0,14,248.3,256.3)" />
<use xlink:href="#f0_25" transform="matrix(14,0,0,14,259,256.3)" />
<use xlink:href="#f0_2c" transform="matrix(14,0,0,14,263.7,256.3)" />
<use xlink:href="#f0_28" transform="matrix(14,0,0,14,275.6,256.3)" />
<use xlink:href="#f0_21" transform="matrix(14,0,0,14,280.4,256.3)" />
<use xlink:href="#f0_2f" transform="matrix(14,0,0,14,292.2,256.3)" />
<use xlink:href="#f0_1x" transform="matrix(14,0,0,14,308.9,256.3)" />
<use xlink:href="#f0_2a" transform="matrix(14,0,0,14,320.8,256.3)" />
<use xlink:href="#f0_20" transform="matrix(14,0,0,14,332.7,256.3)" />
<use xlink:href="#f0_1g" transform="matrix(14,0,0,14,350.5,256.3)" />
<use xlink:href="#f0_2e" transform="matrix(14,0,0,14,364.8,256.3)" />
<use xlink:href="#f0_2b" transform="matrix(14,0,0,14,371.9,256.3)" />
<use xlink:href="#f0_1z" transform="matrix(14,0,0,14,383.8,256.3)" />
<use xlink:href="#f0_21" transform="matrix(14,0,0,14,394.5,256.3)" />
<use xlink:href="#f0_2f" transform="matrix(14,0,0,14,406.4,256.3)" />
<use xlink:href="#f0_2f" transform="matrix(14,0,0,14,417.1,256.3)" />
<use xlink:href="#f0_21" transform="matrix(14,0,0,14,427.8,256.3)" />
<use xlink:href="#f0_2f" transform="matrix(14,0,0,14,439.7,256.3)" />
<use xlink:href="#f0_2b" transform="matrix(14,0,0,14,456.3,256.3)" />
<use xlink:href="#f0_22" transform="matrix(14,0,0,14,468.2,256.3)" />
<use xlink:href="#f0_19" transform="matrix(14,0,0,14,480.1,256.3)" />
<use xlink:href="#f0_2f" transform="matrix(14,0,0,14,486,256.3)" />
<use xlink:href="#f0_2b" transform="matrix(14,0,0,14,496.7,256.3)" />
<use xlink:href="#f0_28" transform="matrix(14,0,0,14,508.6,256.3)" />
<use xlink:href="#f0_1x" transform="matrix(14,0,0,14,513.4,256.3)" />
<use xlink:href="#f0_2g" transform="matrix(14,0,0,14,525.3,256.3)" />
<use xlink:href="#f0_25" transform="matrix(14,0,0,14,531.2,256.3)" />
<use xlink:href="#f0_2b" transform="matrix(14,0,0,14,535.9,256.3)" />
<use xlink:href="#f0_2a" transform="matrix(14,0,0,14,547.8,256.3)" />
<use xlink:href="#f0_2b" transform="matrix(14,0,0,14,565.7,256.3)" />
<use xlink:href="#f0_22" transform="matrix(14,0,0,14,577.6,256.3)" />
<use xlink:href="#f0_15" transform="matrix(14,0,0,14,589.5,256.3)" />
<use xlink:href="#f0_28" transform="matrix(14,0,0,14,603.7,256.3)" />
<use xlink:href="#f0_21" transform="matrix(14,0,0,14,608.5,256.3)" />
<use xlink:href="#f0_29" transform="matrix(14,0,0,14,620.4,256.3)" />
<use xlink:href="#f0_21" transform="matrix(14,0,0,14,638.2,256.3)" />
<use xlink:href="#f0_2a" transform="matrix(14,0,0,14,650.1,256.3)" />
<use xlink:href="#f0_2g" transform="matrix(14,0,0,14,662,256.3)" />
<use xlink:href="#f0_2f" transform="matrix(14,0,0,14,667.9,256.3)" />
<use xlink:href="#f0_i" transform="matrix(14,0,0,14,678.6,256.3)" />
<use xlink:href="#f0_2c" transform="matrix(14,0,0,14,684.6,256.3)" />
<use xlink:href="#f0_20" transform="matrix(14,0,0,14,696.4,256.3)" />
<use xlink:href="#f0_22" transform="matrix(14,0,0,14,708.3,256.3)" />
<use xlink:href="#f0_13" transform="matrix(14,0,0,14,15.3,295.5)" />
<use xlink:href="#f0_24" transform="matrix(14,0,0,14,30.7,295.5)" />
<use xlink:href="#f0_1x" transform="matrix(14,0,0,14,42.6,295.5)" />
<use xlink:href="#f0_2c" transform="matrix(14,0,0,14,54.5,295.5)" />
<use xlink:href="#f0_2g" transform="matrix(14,0,0,14,66.4,295.5)" />
<use xlink:href="#f0_21" transform="matrix(14,0,0,14,72.3,295.5)" />
<use xlink:href="#f0_2e" transform="matrix(14,0,0,14,84.2,295.5)" />
<use xlink:href="#f0_r" transform="matrix(14,0,0,14,97.3,295.5)" />
<use xlink:href="#f0_h" transform="matrix(14,0,0,14,115.1,295.5)" />
<use xlink:href="#f0_1k" transform="matrix(14,0,0,14,128.2,295.5)" />
<use xlink:href="#f0_24" transform="matrix(14,0,0,14,141.3,295.5)" />
<use xlink:href="#f0_21" transform="matrix(14,0,0,14,153.2,295.5)" />
<use xlink:href="#f0_2c" transform="matrix(14,0,0,14,171,295.5)" />
<use xlink:href="#f0_h" transform="matrix(14,0,0,14,182.9,295.5)" />
<use xlink:href="#f0_12" transform="matrix(14,0,0,14,190,295.5)" />
<use xlink:href="#f0_28" transform="matrix(14,0,0,14,204.3,295.5)" />
<use xlink:href="#f0_2b" transform="matrix(14,0,0,14,209,295.5)" />
<use xlink:href="#f0_1z" transform="matrix(14,0,0,14,220.9,295.5)" />
<use xlink:href="#f0_27" transform="matrix(14,0,0,14,231.6,295.5)" />
<use xlink:href="#f0_15" transform="matrix(14,0,0,14,248.3,295.5)" />
<use xlink:href="#f0_28" transform="matrix(14,0,0,14,262.5,295.5)" />
<use xlink:href="#f0_21" transform="matrix(14,0,0,14,267.3,295.5)" />
<use xlink:href="#f0_29" transform="matrix(14,0,0,14,279.2,295.5)" />
<use xlink:href="#f0_21" transform="matrix(14,0,0,14,297,295.5)" />
<use xlink:href="#f0_2a" transform="matrix(14,0,0,14,308.9,295.5)" />
<use xlink:href="#f0_2g" transform="matrix(14,0,0,14,320.8,295.5)" />
<use xlink:href="#f0_2f" transform="matrix(14,0,0,14,326.7,295.5)" />
<use xlink:href="#f0_i" transform="matrix(14,0,0,14,337.4,295.5)" />
<use xlink:href="#f0_2c" transform="matrix(14,0,0,14,343.4,295.5)" />
<use xlink:href="#f0_20" transform="matrix(14,0,0,14,355.3,295.5)" />
<use xlink:href="#f0_22" transform="matrix(14,0,0,14,367.1,295.5)" />
<use xlink:href="#f0_13" transform="matrix(14,0,0,14,15.3,334.6)" />
<use xlink:href="#f0_24" transform="matrix(14,0,0,14,30.7,334.6)" />
<use xlink:href="#f0_1x" transform="matrix(14,0,0,14,42.6,334.6)" />
<use xlink:href="#f0_2c" transform="matrix(14,0,0,14,54.5,334.6)" />
<use xlink:href="#f0_2g" transform="matrix(14,0,0,14,66.4,334.6)" />
<use xlink:href="#f0_21" transform="matrix(14,0,0,14,72.3,334.6)" />
<use xlink:href="#f0_2e" transform="matrix(14,0,0,14,84.2,334.6)" />
<use xlink:href="#f0_s" transform="matrix(14,0,0,14,97.3,334.6)" />
<use xlink:href="#f0_h" transform="matrix(14,0,0,14,115.1,334.6)" />
<use xlink:href="#f0_1k" transform="matrix(14,0,0,14,128.2,334.6)" />
<use xlink:href="#f0_24" transform="matrix(14,0,0,14,141.3,334.6)" />
<use xlink:href="#f0_21" transform="matrix(14,0,0,14,153.2,334.6)" />
<use xlink:href="#f0_20" transform="matrix(14,0,0,14,171,334.6)" />
<use xlink:href="#f0_1x" transform="matrix(14,0,0,14,188.8,334.6)" />
<use xlink:href="#f0_2a" transform="matrix(14,0,0,14,200.7,334.6)" />
<use xlink:href="#f0_20" transform="matrix(14,0,0,14,212.6,334.6)" />
<use xlink:href="#f0_22" transform="matrix(14,0,0,14,230.5,334.6)" />
<use xlink:href="#f0_12" transform="matrix(14,0,0,14,242.4,334.6)" />
<use xlink:href="#f0_28" transform="matrix(14,0,0,14,256.6,334.6)" />
<use xlink:href="#f0_2b" transform="matrix(14,0,0,14,261.4,334.6)" />
<use xlink:href="#f0_1z" transform="matrix(14,0,0,14,273.3,334.6)" />
<use xlink:href="#f0_27" transform="matrix(14,0,0,14,284,334.6)" />
<use xlink:href="#f0_15" transform="matrix(14,0,0,14,300.6,334.6)" />
<use xlink:href="#f0_28" transform="matrix(14,0,0,14,314.9,334.6)" />
<use xlink:href="#f0_21" transform="matrix(14,0,0,14,319.6,334.6)" />
<use xlink:href="#f0_29" transform="matrix(14,0,0,14,331.5,334.6)" />
<use xlink:href="#f0_21" transform="matrix(14,0,0,14,349.3,334.6)" />
<use xlink:href="#f0_2a" transform="matrix(14,0,0,14,361.2,334.6)" />
<use xlink:href="#f0_2g" transform="matrix(14,0,0,14,373.1,334.6)" />
<use xlink:href="#f0_2f" transform="matrix(14,0,0,14,379.1,334.6)" />
<use xlink:href="#f0_i" transform="matrix(14,0,0,14,389.8,334.6)" />
<use xlink:href="#f0_2c" transform="matrix(14,0,0,14,395.7,334.6)" />
<use xlink:href="#f0_20" transform="matrix(14,0,0,14,407.6,334.6)" />
<use xlink:href="#f0_22" transform="matrix(14,0,0,14,419.5,334.6)" />
<use xlink:href="#f0_13" transform="matrix(14,0,0,14,15.3,373.8)" />
<use xlink:href="#f0_24" transform="matrix(14,0,0,14,30.7,373.8)" />
<use xlink:href="#f0_1x" transform="matrix(14,0,0,14,42.6,373.8)" />
<use xlink:href="#f0_2c" transform="matrix(14,0,0,14,54.5,373.8)" />
<use xlink:href="#f0_2g" transform="matrix(14,0,0,14,66.4,373.8)" />
<use xlink:href="#f0_21" transform="matrix(14,0,0,14,72.3,373.8)" />
<use xlink:href="#f0_2e" transform="matrix(14,0,0,14,84.2,373.8)" />
<use xlink:href="#f0_t" transform="matrix(14,0,0,14,97.3,373.8)" />
<use xlink:href="#f0_h" transform="matrix(14,0,0,14,115.1,373.8)" />
<use xlink:href="#f0_13" transform="matrix(14,0,0,14,128.2,373.8)" />
<use xlink:href="#f0_2b" transform="matrix(14,0,0,14,143.7,373.8)" />
<use xlink:href="#f0_2b" transform="matrix(14,0,0,14,155.5,373.8)" />
<use xlink:href="#f0_2e" transform="matrix(14,0,0,14,167.4,373.8)" />
<use xlink:href="#f0_20" transform="matrix(14,0,0,14,174.6,373.8)" />
<use xlink:href="#f0_25" transform="matrix(14,0,0,14,186.5,373.8)" />
<use xlink:href="#f0_2a" transform="matrix(14,0,0,14,191.2,373.8)" />
<use xlink:href="#f0_1x" transform="matrix(14,0,0,14,203.1,373.8)" />
<use xlink:href="#f0_2g" transform="matrix(14,0,0,14,215,373.8)" />
<use xlink:href="#f0_25" transform="matrix(14,0,0,14,220.9,373.8)" />
<use xlink:href="#f0_2b" transform="matrix(14,0,0,14,225.7,373.8)" />
<use xlink:href="#f0_2a" transform="matrix(14,0,0,14,237.6,373.8)" />
<use xlink:href="#f0_13" transform="matrix(14,0,0,14,255.4,373.8)" />
<use xlink:href="#f0_2b" transform="matrix(14,0,0,14,270.9,373.8)" />
<use xlink:href="#f0_29" transform="matrix(14,0,0,14,282.7,373.8)" />
<use xlink:href="#f0_2c" transform="matrix(14,0,0,14,300.6,373.8)" />
<use xlink:href="#f0_2b" transform="matrix(14,0,0,14,312.5,373.8)" />
<use xlink:href="#f0_2h" transform="matrix(14,0,0,14,324.3,373.8)" />
<use xlink:href="#f0_2a" transform="matrix(14,0,0,14,336.2,373.8)" />
<use xlink:href="#f0_20" transform="matrix(14,0,0,14,348.1,373.8)" />
<use xlink:href="#f0_2f" transform="matrix(14,0,0,14,360,373.8)" />
<use xlink:href="#f0_i" transform="matrix(14,0,0,14,370.7,373.8)" />
<use xlink:href="#f0_2c" transform="matrix(14,0,0,14,376.7,373.8)" />
<use xlink:href="#f0_20" transform="matrix(14,0,0,14,388.6,373.8)" />
<use xlink:href="#f0_22" transform="matrix(14,0,0,14,400.4,373.8)" />
<use xlink:href="#f0_13" transform="matrix(14,0,0,14,15.3,412.9)" />
<use xlink:href="#f0_24" transform="matrix(14,0,0,14,30.7,412.9)" />
<use xlink:href="#f0_1x" transform="matrix(14,0,0,14,42.6,412.9)" />
<use xlink:href="#f0_2c" transform="matrix(14,0,0,14,54.5,412.9)" />
<use xlink:href="#f0_2g" transform="matrix(14,0,0,14,66.4,412.9)" />
<use xlink:href="#f0_21" transform="matrix(14,0,0,14,72.3,412.9)" />
<use xlink:href="#f0_2e" transform="matrix(14,0,0,14,84.2,412.9)" />
<use xlink:href="#f0_l" transform="matrix(14,0,0,14,97.3,412.9)" />
<use xlink:href="#f0_k" transform="matrix(14,0,0,14,109.2,412.9)" />
<use xlink:href="#f0_h" transform="matrix(14,0,0,14,127,412.9)" />
<use xlink:href="#f0_18" transform="matrix(14,0,0,14,140.1,412.9)" />
<use xlink:href="#f0_1x" transform="matrix(14,0,0,14,155.5,412.9)" />
<use xlink:href="#f0_28" transform="matrix(14,0,0,14,167.4,412.9)" />
<use xlink:href="#f0_2b" transform="matrix(14,0,0,14,172.2,412.9)" />
<use xlink:href="#f0_1x" transform="matrix(14,0,0,14,184.1,412.9)" />
<use xlink:href="#f0_28" transform="matrix(14,0,0,14,196,412.9)" />
<use xlink:href="#f0_27" transform="matrix(14,0,0,14,200.7,412.9)" />
<use xlink:href="#f0_1x" transform="matrix(14,0,0,14,211.4,412.9)" />
<use xlink:href="#f0_2a" transform="matrix(14,0,0,14,223.3,412.9)" />
<use xlink:href="#f0_21" transform="matrix(14,0,0,14,235.2,412.9)" />
<use xlink:href="#f0_2f" transform="matrix(14,0,0,14,247.1,412.9)" />
<use xlink:href="#f0_1x" transform="matrix(14,0,0,14,263.7,412.9)" />
<use xlink:href="#f0_2a" transform="matrix(14,0,0,14,275.6,412.9)" />
<use xlink:href="#f0_20" transform="matrix(14,0,0,14,287.5,412.9)" />
<use xlink:href="#f0_18" transform="matrix(14,0,0,14,305.4,412.9)" />
<use xlink:href="#f0_1x" transform="matrix(14,0,0,14,320.8,412.9)" />
<use xlink:href="#f0_28" transform="matrix(14,0,0,14,332.7,412.9)" />
<use xlink:href="#f0_2b" transform="matrix(14,0,0,14,337.4,412.9)" />
<use xlink:href="#f0_1x" transform="matrix(14,0,0,14,349.3,412.9)" />
<use xlink:href="#f0_2e" transform="matrix(14,0,0,14,361.2,412.9)" />
<use xlink:href="#f0_21" transform="matrix(14,0,0,14,368.3,412.9)" />
<use xlink:href="#f0_2a" transform="matrix(14,0,0,14,380.2,412.9)" />
<use xlink:href="#f0_21" transform="matrix(14,0,0,14,392.1,412.9)" />
<use xlink:href="#f0_2f" transform="matrix(14,0,0,14,404,412.9)" />
<use xlink:href="#f0_i" transform="matrix(14,0,0,14,414.7,412.9)" />
<use xlink:href="#f0_2c" transform="matrix(14,0,0,14,420.7,412.9)" />
<use xlink:href="#f0_20" transform="matrix(14,0,0,14,432.6,412.9)" />
<use xlink:href="#f0_22" transform="matrix(14,0,0,14,444.4,412.9)" />
<use xlink:href="#f0_13" transform="matrix(14,0,0,14,15.3,452.1)" />
<use xlink:href="#f0_24" transform="matrix(14,0,0,14,30.7,452.1)" />
<use xlink:href="#f0_1x" transform="matrix(14,0,0,14,42.6,452.1)" />
<use xlink:href="#f0_2c" transform="matrix(14,0,0,14,54.5,452.1)" />
<use xlink:href="#f0_2g" transform="matrix(14,0,0,14,66.4,452.1)" />
<use xlink:href="#f0_21" transform="matrix(14,0,0,14,72.3,452.1)" />
<use xlink:href="#f0_2e" transform="matrix(14,0,0,14,84.2,452.1)" />
<use xlink:href="#f0_l" transform="matrix(14,0,0,14,97.3,452.1)" />
<use xlink:href="#f0_l" transform="matrix(14,0,0,14,109.2,452.1)" />
<use xlink:href="#f0_h" transform="matrix(14,0,0,14,127,452.1)" />
<use xlink:href="#f0_11" transform="matrix(14,0,0,14,140.1,452.1)" />
<use xlink:href="#f0_28" transform="matrix(14,0,0,14,154.4,452.1)" />
<use xlink:href="#f0_1z" transform="matrix(14,0,0,14,159.1,452.1)" />
<use xlink:href="#f0_2b" transform="matrix(14,0,0,14,169.8,452.1)" />
<use xlink:href="#f0_24" transform="matrix(14,0,0,14,181.7,452.1)" />
<use xlink:href="#f0_2b" transform="matrix(14,0,0,14,193.6,452.1)" />
<use xlink:href="#f0_28" transform="matrix(14,0,0,14,205.5,452.1)" />
<use xlink:href="#f0_2f" transform="matrix(14,0,0,14,210.2,452.1)" />
<use xlink:href="#f0_g" transform="matrix(14,0,0,14,220.9,452.1)" />
<use xlink:href="#f0_1g" transform="matrix(14,0,0,14,232.8,452.1)" />
<use xlink:href="#f0_24" transform="matrix(14,0,0,14,247.1,452.1)" />
<use xlink:href="#f0_21" transform="matrix(14,0,0,14,259,452.1)" />
<use xlink:href="#f0_2a" transform="matrix(14,0,0,14,270.9,452.1)" />
<use xlink:href="#f0_2b" transform="matrix(14,0,0,14,282.8,452.1)" />
<use xlink:href="#f0_28" transform="matrix(14,0,0,14,294.7,452.1)" />
<use xlink:href="#f0_2f" transform="matrix(14,0,0,14,299.4,452.1)" />
<use xlink:href="#f0_1x" transform="matrix(14,0,0,14,316,452.1)" />
<use xlink:href="#f0_2a" transform="matrix(14,0,0,14,327.9,452.1)" />
<use xlink:href="#f0_20" transform="matrix(14,0,0,14,339.8,452.1)" />
<use xlink:href="#f0_15" transform="matrix(14,0,0,14,357.7,452.1)" />
<use xlink:href="#f0_2g" transform="matrix(14,0,0,14,371.9,452.1)" />
<use xlink:href="#f0_24" transform="matrix(14,0,0,14,377.9,452.1)" />
<use xlink:href="#f0_21" transform="matrix(14,0,0,14,389.8,452.1)" />
<use xlink:href="#f0_2e" transform="matrix(14,0,0,14,401.7,452.1)" />
<use xlink:href="#f0_2f" transform="matrix(14,0,0,14,408.8,452.1)" />
<use xlink:href="#f0_i" transform="matrix(14,0,0,14,419.5,452.1)" />
<use xlink:href="#f0_2c" transform="matrix(14,0,0,14,425.4,452.1)" />
<use xlink:href="#f0_20" transform="matrix(14,0,0,14,437.3,452.1)" />
<use xlink:href="#f0_22" transform="matrix(14,0,0,14,449.2,452.1)" />
<use xlink:href="#f0_13" transform="matrix(14,0,0,14,15.3,491.2)" />
<use xlink:href="#f0_24" transform="matrix(14,0,0,14,30.7,491.2)" />
<use xlink:href="#f0_1x" transform="matrix(14,0,0,14,42.6,491.2)" />
<use xlink:href="#f0_2c" transform="matrix(14,0,0,14,54.5,491.2)" />
<use xlink:href="#f0_2g" transform="matrix(14,0,0,14,66.4,491.2)" />
<use xlink:href="#f0_21" transform="matrix(14,0,0,14,72.3,491.2)" />
<use xlink:href="#f0_2e" transform="matrix(14,0,0,14,84.2,491.2)" />
<use xlink:href="#f0_l" transform="matrix(14,0,0,14,97.3,491.2)" />
<use xlink:href="#f0_m" transform="matrix(14,0,0,14,109.2,491.2)" />
<use xlink:href="#f0_h" transform="matrix(14,0,0,14,127,491.2)" />
<use xlink:href="#f0_11" transform="matrix(14,0,0,14,140.1,491.2)" />
<use xlink:href="#f0_28" transform="matrix(14,0,0,14,154.4,491.2)" />
<use xlink:href="#f0_20" transform="matrix(14,0,0,14,159.1,491.2)" />
<use xlink:href="#f0_21" transform="matrix(14,0,0,14,171,491.2)" />
<use xlink:href="#f0_24" transform="matrix(14,0,0,14,182.9,491.2)" />
<use xlink:href="#f0_2l" transform="matrix(14,0,0,14,194.8,491.2)" />
<use xlink:href="#f0_20" transform="matrix(14,0,0,14,205.5,491.2)" />
<use xlink:href="#f0_21" transform="matrix(14,0,0,14,217.4,491.2)" />
<use xlink:href="#f0_2f" transform="matrix(14,0,0,14,229.3,491.2)" />
<use xlink:href="#f0_g" transform="matrix(14,0,0,14,240,491.2)" />
<use xlink:href="#f0_1b" transform="matrix(14,0,0,14,251.9,491.2)" />
<use xlink:href="#f0_21" transform="matrix(14,0,0,14,266.1,491.2)" />
<use xlink:href="#f0_2g" transform="matrix(14,0,0,14,278,491.2)" />
<use xlink:href="#f0_2b" transform="matrix(14,0,0,14,284,491.2)" />
<use xlink:href="#f0_2a" transform="matrix(14,0,0,14,295.9,491.2)" />
<use xlink:href="#f0_21" transform="matrix(14,0,0,14,307.7,491.2)" />
<use xlink:href="#f0_2f" transform="matrix(14,0,0,14,319.6,491.2)" />
<use xlink:href="#f0_1x" transform="matrix(14,0,0,14,336.3,491.2)" />
<use xlink:href="#f0_2a" transform="matrix(14,0,0,14,348.2,491.2)" />
<use xlink:href="#f0_20" transform="matrix(14,0,0,14,360.1,491.2)" />
<use xlink:href="#f0_13" transform="matrix(14,0,0,14,377.9,491.2)" />
<use xlink:href="#f0_1x" transform="matrix(14,0,0,14,393.3,491.2)" />
<use xlink:href="#f0_2e" transform="matrix(14,0,0,14,405.2,491.2)" />
<use xlink:href="#f0_1y" transform="matrix(14,0,0,14,412.4,491.2)" />
<use xlink:href="#f0_2b" transform="matrix(14,0,0,14,424.3,491.2)" />
<use xlink:href="#f0_2k" transform="matrix(14,0,0,14,436.1,491.2)" />
<use xlink:href="#f0_2l" transform="matrix(14,0,0,14,446.8,491.2)" />
<use xlink:href="#f0_28" transform="matrix(14,0,0,14,457.5,491.2)" />
<use xlink:href="#f0_25" transform="matrix(14,0,0,14,462.3,491.2)" />
<use xlink:href="#f0_1z" transform="matrix(14,0,0,14,467,491.2)" />
<use xlink:href="#f0_11" transform="matrix(14,0,0,14,483.7,491.2)" />
<use xlink:href="#f0_1z" transform="matrix(14,0,0,14,497.9,491.2)" />
<use xlink:href="#f0_25" transform="matrix(14,0,0,14,508.6,491.2)" />
<use xlink:href="#f0_20" transform="matrix(14,0,0,14,513.4,491.2)" />
<use xlink:href="#f0_2f" transform="matrix(14,0,0,14,525.3,491.2)" />
<use xlink:href="#f0_i" transform="matrix(14,0,0,14,536,491.2)" />
<use xlink:href="#f0_2c" transform="matrix(14,0,0,14,541.9,491.2)" />
<use xlink:href="#f0_20" transform="matrix(14,0,0,14,553.8,491.2)" />
<use xlink:href="#f0_22" transform="matrix(14,0,0,14,565.7,491.2)" />
<use xlink:href="#f0_13" transform="matrix(14,0,0,14,15.3,530.4)" />
<use xlink:href="#f0_24" transform="matrix(14,0,0,14,30.7,530.4)" />
<use xlink:href="#f0_1x" transform="matrix(14,0,0,14,42.6,530.4)" />
<use xlink:href="#f0_2c" transform="matrix(14,0,0,14,54.5,530.4)" />
<use xlink:href="#f0_2g" transform="matrix(14,0,0,14,66.4,530.4)" />
<use xlink:href="#f0_21" transform="matrix(14,0,0,14,72.3,530.4)" />
<use xlink:href="#f0_2e" transform="matrix(14,0,0,14,84.2,530.4)" />
<use xlink:href="#f0_l" transform="matrix(14,0,0,14,97.3,530.4)" />
<use xlink:href="#f0_n" transform="matrix(14,0,0,14,109.2,530.4)" />
<use xlink:href="#f0_h" transform="matrix(14,0,0,14,127,530.4)" />
<use xlink:href="#f0_11" transform="matrix(14,0,0,14,140.1,530.4)" />
<use xlink:href="#f0_29" transform="matrix(14,0,0,14,154.4,530.4)" />
<use xlink:href="#f0_25" transform="matrix(14,0,0,14,172.2,530.4)" />
<use xlink:href="#f0_2a" transform="matrix(14,0,0,14,176.9,530.4)" />
<use xlink:href="#f0_21" transform="matrix(14,0,0,14,188.8,530.4)" />
<use xlink:href="#f0_2f" transform="matrix(14,0,0,14,200.7,530.4)" />
<use xlink:href="#f0_i" transform="matrix(14,0,0,14,211.4,530.4)" />
<use xlink:href="#f0_2c" transform="matrix(14,0,0,14,217.4,530.4)" />
<use xlink:href="#f0_20" transform="matrix(14,0,0,14,229.3,530.4)" />
<use xlink:href="#f0_22" transform="matrix(14,0,0,14,241.1,530.4)" />
<use xlink:href="#f0_13" transform="matrix(14,0,0,14,15.3,569.5)" />
<use xlink:href="#f0_24" transform="matrix(14,0,0,14,30.7,569.5)" />
<use xlink:href="#f0_1x" transform="matrix(14,0,0,14,42.6,569.5)" />
<use xlink:href="#f0_2c" transform="matrix(14,0,0,14,54.5,569.5)" />
<use xlink:href="#f0_2g" transform="matrix(14,0,0,14,66.4,569.5)" />
<use xlink:href="#f0_21" transform="matrix(14,0,0,14,72.3,569.5)" />
<use xlink:href="#f0_2e" transform="matrix(14,0,0,14,84.2,569.5)" />
<use xlink:href="#f0_l" transform="matrix(14,0,0,14,97.3,569.5)" />
<use xlink:href="#f0_o" transform="matrix(14,0,0,14,109.2,569.5)" />
<use xlink:href="#f0_h" transform="matrix(14,0,0,14,127,569.5)" />
<use xlink:href="#f0_12" transform="matrix(14,0,0,14,140.1,569.5)" />
<use xlink:href="#f0_25" transform="matrix(14,0,0,14,154.4,569.5)" />
<use xlink:href="#f0_2b" transform="matrix(14,0,0,14,159.1,569.5)" />
<use xlink:href="#f0_29" transform="matrix(14,0,0,14,171,569.5)" />
<use xlink:href="#f0_2b" transform="matrix(14,0,0,14,188.8,569.5)" />
<use xlink:href="#f0_28" transform="matrix(14,0,0,14,200.7,569.5)" />
<use xlink:href="#f0_21" transform="matrix(14,0,0,14,205.5,569.5)" />
<use xlink:href="#f0_1z" transform="matrix(14,0,0,14,217.4,569.5)" />
<use xlink:href="#f0_2h" transform="matrix(14,0,0,14,228.1,569.5)" />
<use xlink:href="#f0_28" transform="matrix(14,0,0,14,239.9,569.5)" />
<use xlink:href="#f0_21" transform="matrix(14,0,0,14,244.7,569.5)" />
<use xlink:href="#f0_2f" transform="matrix(14,0,0,14,256.6,569.5)" />
<use xlink:href="#f0_i" transform="matrix(14,0,0,14,267.3,569.5)" />
<use xlink:href="#f0_2c" transform="matrix(14,0,0,14,273.2,569.5)" />
<use xlink:href="#f0_20" transform="matrix(14,0,0,14,285.1,569.5)" />
<use xlink:href="#f0_22" transform="matrix(14,0,0,14,297,569.5)" />
<use xlink:href="#f0_13" transform="matrix(14,0,0,14,15.3,608.7)" />
<use xlink:href="#f0_24" transform="matrix(14,0,0,14,30.7,608.7)" />
<use xlink:href="#f0_1x" transform="matrix(14,0,0,14,42.6,608.7)" />
<use xlink:href="#f0_2c" transform="matrix(14,0,0,14,54.5,608.7)" />
<use xlink:href="#f0_2g" transform="matrix(14,0,0,14,66.4,608.7)" />
<use xlink:href="#f0_21" transform="matrix(14,0,0,14,72.3,608.7)" />
<use xlink:href="#f0_2e" transform="matrix(14,0,0,14,84.2,608.7)" />
<use xlink:href="#f0_l" transform="matrix(14,0,0,14,97.3,608.7)" />
<use xlink:href="#f0_q" transform="matrix(14,0,0,14,109.2,608.7)" />
<use xlink:href="#f0_h" transform="matrix(14,0,0,14,127,608.7)" />
<use xlink:href="#f0_13" transform="matrix(14,0,0,14,140.1,608.7)" />
<use xlink:href="#f0_24" transform="matrix(14,0,0,14,155.5,608.7)" />
<use xlink:href="#f0_21" transform="matrix(14,0,0,14,167.4,608.7)" />
<use xlink:href="#f0_29" transform="matrix(14,0,0,14,179.3,608.7)" />
<use xlink:href="#f0_25" transform="matrix(14,0,0,14,197.1,608.7)" />
<use xlink:href="#f0_2f" transform="matrix(14,0,0,14,201.9,608.7)" />
<use xlink:href="#f0_2g" transform="matrix(14,0,0,14,212.6,608.7)" />
<use xlink:href="#f0_2e" transform="matrix(14,0,0,14,218.5,608.7)" />
<use xlink:href="#f0_2l" transform="matrix(14,0,0,14,225.7,608.7)" />
<use xlink:href="#f0_25" transform="matrix(14,0,0,14,242.3,608.7)" />
<use xlink:href="#f0_2a" transform="matrix(14,0,0,14,247,608.7)" />
<use xlink:href="#f0_15" transform="matrix(14,0,0,14,264.9,608.7)" />
<use xlink:href="#f0_2i" transform="matrix(14,0,0,14,279.2,608.7)" />
<use xlink:href="#f0_21" transform="matrix(14,0,0,14,289.8,608.7)" />
<use xlink:href="#f0_2e" transform="matrix(14,0,0,14,301.7,608.7)" />
<use xlink:href="#f0_2l" transform="matrix(14,0,0,14,308.9,608.7)" />
<use xlink:href="#f0_20" transform="matrix(14,0,0,14,319.6,608.7)" />
<use xlink:href="#f0_1x" transform="matrix(14,0,0,14,331.4,608.7)" />
<use xlink:href="#f0_2l" transform="matrix(14,0,0,14,343.3,608.7)" />
<use xlink:href="#f0_28" transform="matrix(14,0,0,14,360,608.7)" />
<use xlink:href="#f0_25" transform="matrix(14,0,0,14,364.7,608.7)" />
<use xlink:href="#f0_22" transform="matrix(14,0,0,14,369.5,608.7)" />
<use xlink:href="#f0_21" transform="matrix(14,0,0,14,375.4,608.7)" />
<use xlink:href="#f0_i" transform="matrix(14,0,0,14,387.3,608.7)" />
<use xlink:href="#f0_2c" transform="matrix(14,0,0,14,393.3,608.7)" />
<use xlink:href="#f0_20" transform="matrix(14,0,0,14,405.2,608.7)" />
<use xlink:href="#f0_22" transform="matrix(14,0,0,14,417,608.7)" />
</g>
<defs>
<path d="M590,-14c0,0,-159,0,-275,65c0,0,-116,66,-177,189c0,0,-60,123,-60,291c0,0,0,251,135,393c0,0,136,143,376,143c0,0,168,0,281,-66c0,0,112,-66,165,-195L900,762c0,0,-36,92,-117,141c0,0,-81,48,-192,48c0,0,-175,0,-272,-112c0,0,-97,-112,-97,-308c0,0,0,-193,101,-311c0,0,101,-117,274,-117c0,0,221,0,332,218l116,-58c0,0,-65,-136,-182,-207c0,0,-118,-70,-273,-70Z" 
id="f0_13"
transform="scale(0.001,-0.001)" />

<path d="M615,0V512c0,0,0,85,-15,126c0,0,-16,42,-52,61c0,0,-36,20,-99,20c0,0,-95,0,-152,-66c0,0,-57,-66,-57,-177V0H106V1107H240V819c0,0,0,-45,-2,-94c0,0,-3,-48,-4,-56h2c0,0,44,79,105,116c0,0,60,37,154,37c0,0,131,0,193,-65c0,0,62,-65,62,-219V0Z" 
id="f0_24"
transform="scale(0.001,-0.001)" />

<path d="M339,87c0,0,74,0,132,34c0,0,57,33,90,91c0,0,34,59,34,121v66L448,396c0,0,-95,-2,-144,-19c0,0,-49,-18,-75,-55c0,0,-26,-38,-26,-98c0,0,0,-65,35,-101c0,0,36,-36,101,-36ZM309,-14c0,0,-122,0,-183,64c0,0,-61,64,-61,176c0,0,0,125,82,192c0,0,83,67,266,72l182,3v44c0,0,0,98,-42,141c0,0,-42,43,-132,43c0,0,-90,0,-131,-31c0,0,-41,-31,-49,-98L101,604c0,0,34,218,323,218c0,0,153,0,229,-70c0,0,77,-69,77,-202V202c0,0,0,-59,16,-90c0,0,16,-30,60,-30c0,0,19,0,44,5V4C850,4,799,-7,746,-7c0,0,-75,0,-109,38c0,0,-33,40,-38,124h-4C595,155,543,62,475,24c0,0,-68,-38,-166,-38Z" 
id="f0_1x"
transform="scale(0.001,-0.001)" />

<path d="M453,84c0,0,100,0,146,74c0,0,46,73,46,247c0,0,0,169,-46,241c0,0,-45,73,-145,73c0,0,-80,0,-125,-34c0,0,-45,-34,-68,-105c0,0,-24,-71,-24,-186c0,0,0,-159,51,-234c0,0,51,-76,165,-76ZM103,-316V643c0,0,0,124,-5,165H228c0,0,1,-3,3,-22c0,0,1,-18,3,-56c0,0,2,-38,2,-52h3c0,0,36,75,94,110c0,0,59,34,156,34c0,0,149,0,223,-100c0,0,74,-100,74,-314c0,0,0,-422,-297,-422c0,0,-187,0,-251,140h-4c0,0,3,-6,3,-126V-316Z" 
id="f0_2c"
transform="scale(0.001,-0.001)" />

<path d="M278,-11c0,0,-162,0,-162,182V710H23v98h99l39,181h90V808H400V710H251V200c0,0,0,-58,19,-82c0,0,19,-23,66,-23c0,0,27,0,77,10V6c0,0,-66,-17,-135,-17Z" 
id="f0_2g"
transform="scale(0.001,-0.001)" />

<path d="M643,478c0,0,-11,128,-65,187c0,0,-54,59,-154,59c0,0,-98,0,-155,-66c0,0,-57,-65,-62,-180ZM431,-14c0,0,-179,0,-272,106c0,0,-94,107,-94,317c0,0,0,200,94,307c0,0,93,106,267,106c0,0,356,0,356,-429V375H206c0,0,0,-138,57,-213c0,0,58,-75,168,-75c0,0,87,0,140,35c0,0,53,35,71,88L760,177c0,0,-72,-191,-329,-191Z" 
id="f0_21"
transform="scale(0.001,-0.001)" />

<path d="M106,0V620c0,0,0,85,-5,188H228c0,0,6,-138,6,-165h3c0,0,32,103,74,141c0,0,42,38,118,38c0,0,27,0,54,-7V692c0,0,-26,7,-71,7c0,0,-84,0,-128,-72c0,0,-44,-72,-44,-206V0Z" 
id="f0_2e"
transform="scale(0.001,-0.001)" />

<path d="M116,0V114H384V923L147,754V881l248,170H519V114H775V0Z" 
id="f0_l"
transform="scale(0.001,-0.001)" />

<path d="M68,346V465H441V346Z" 
id="f0_h"
transform="scale(0.001,-0.001)" />

<path d="M395,0V936H34v115H898V936H537V0Z" 
id="f0_1k"
transform="scale(0.001,-0.001)" />

<path d="M515,-14c0,0,-384,0,-446,266l138,28c0,0,24,-95,102,-139c0,0,77,-44,211,-44c0,0,138,0,213,47c0,0,75,47,75,139c0,0,0,51,-24,83c0,0,-23,33,-66,53c0,0,-42,21,-101,35c0,0,-59,15,-131,31c0,0,-124,28,-189,55c0,0,-64,28,-102,62c0,0,-37,34,-57,79c0,0,-19,46,-19,105c0,0,0,135,103,208c0,0,103,73,296,73c0,0,179,0,273,-55c0,0,95,-55,133,-187L784,800c0,0,-23,84,-88,122c0,0,-65,37,-180,37c0,0,-126,0,-192,-42c0,0,-67,-41,-67,-124c0,0,0,-48,26,-80c0,0,26,-32,74,-54c0,0,49,-22,194,-54c0,0,48,-11,96,-23c0,0,48,-11,92,-27c0,0,44,-16,83,-38c0,0,38,-22,66,-53c0,0,29,-31,45,-74c0,0,16,-42,16,-100c0,0,0,-145,-114,-225c0,0,-114,-79,-320,-79Z" 
id="f0_1j"
transform="scale(0.001,-0.001)" />

<path d="M420,84c0,0,121,0,173,78c0,0,52,77,52,243c0,0,0,167,-50,243c0,0,-50,76,-167,76c0,0,-118,0,-170,-78c0,0,-53,-77,-53,-241c0,0,0,-160,52,-241c0,0,52,-80,163,-80Zm1,-98c0,0,-176,0,-267,107c0,0,-90,108,-90,312c0,0,0,417,362,417c0,0,185,0,272,-102c0,0,88,-101,88,-315c0,0,0,-212,-94,-316C692,89,599,-14,421,-14Z" 
id="f0_2b"
transform="scale(0.001,-0.001)" />

<path d="M103,0V1107H237V0Z" 
id="f0_28"
transform="scale(0.001,-0.001)" />

<path d="M102,0V808H236V0Zm0,979v128H236V979Z" 
id="f0_25"
transform="scale(0.001,-0.001)" />

<path d="M395,89c0,0,115,0,166,79c0,0,51,79,51,246c0,0,0,160,-51,235c0,0,-51,75,-164,75c0,0,-102,0,-147,-75c0,0,-45,-75,-45,-244c0,0,0,-170,45,-243c0,0,45,-73,145,-73ZM361,-14c0,0,-153,0,-225,102c0,0,-72,103,-72,312c0,0,0,422,297,422c0,0,92,0,153,-33c0,0,61,-34,98,-107h2l-2,90v335H747V166c0,0,0,-126,4,-166H623c0,0,-2,12,-5,55c0,0,-3,44,-3,75h-3c0,0,-37,-78,-98,-111c0,0,-62,-33,-153,-33Z" 
id="f0_20"
transform="scale(0.001,-0.001)" />

<path d="M140,0V163H285V0Z" 
id="f0_i"
transform="scale(0.001,-0.001)" />

<path d="M135,0V710H22v98H135v91c0,0,0,110,49,158c0,0,48,49,148,49c0,0,56,0,95,-9V994c0,0,-34,6,-60,6c0,0,-51,0,-75,-26c0,0,-23,-26,-23,-94V808H427V710H269V0Z" 
id="f0_22"
transform="scale(0.001,-0.001)" />

<path d="M77,0V95c0,0,38,87,93,154c0,0,55,67,115,121c0,0,60,54,120,100c0,0,59,46,107,93c0,0,47,46,77,97c0,0,29,50,29,114c0,0,0,87,-50,135c0,0,-51,47,-141,47c0,0,-86,0,-142,-46c0,0,-55,-47,-65,-131L83,791c0,0,15,126,107,201c0,0,92,75,237,75c0,0,159,0,244,-75c0,0,85,-75,85,-213c0,0,0,-61,-28,-122c0,0,-28,-60,-83,-120c0,0,-55,-61,-211,-188c0,0,-86,-70,-136,-126c0,0,-51,-56,-73,-109H773V0Z" 
id="f0_m"
transform="scale(0.001,-0.001)" />

<path d="M355,-14c0,0,-133,0,-194,65c0,0,-62,66,-62,219V808H234V296c0,0,0,-80,16,-124c0,0,16,-44,50,-64c0,0,34,-19,101,-19c0,0,97,0,153,66c0,0,55,67,55,185V808H744V172c0,0,0,-141,4,-172H621c0,0,0,4,-1,20c0,0,-1,17,-2,38c0,0,-1,21,-3,80h-2C613,138,567,55,506,20c0,0,-61,-34,-151,-34Z" 
id="f0_2h"
transform="scale(0.001,-0.001)" />

<path d="M106,0V635c0,0,0,141,-5,173H228c0,0,1,-4,2,-21c0,0,1,-16,2,-37c0,0,1,-22,2,-81h2c0,0,47,84,108,119c0,0,60,34,151,34c0,0,132,0,194,-66c0,0,61,-66,61,-218V0H615V512c0,0,0,80,-15,124c0,0,-16,44,-50,63c0,0,-35,20,-101,20c0,0,-97,0,-153,-67c0,0,-56,-66,-56,-184V0Z" 
id="f0_2a"
transform="scale(0.001,-0.001)" />

<path d="M381,-14c0,0,-150,0,-232,49C149,35,67,85,43,190l118,23c0,0,17,-65,71,-96c0,0,54,-30,149,-30c0,0,102,0,150,31c0,0,47,32,47,95c0,0,0,47,-33,77c0,0,-33,30,-106,49l-96,26c0,0,-115,30,-164,58c0,0,-49,29,-77,70c0,0,-27,41,-27,101c0,0,0,110,78,168c0,0,79,57,230,57c0,0,133,0,212,-47c0,0,79,-47,100,-150L574,607c0,0,-12,53,-60,82c0,0,-49,29,-131,29c0,0,-91,0,-135,-28c0,0,-43,-27,-43,-83c0,0,0,-34,18,-57c0,0,18,-22,53,-38c0,0,35,-15,148,-43c0,0,106,-27,153,-50c0,0,47,-22,75,-50c0,0,27,-27,42,-64c0,0,15,-36,15,-82c0,0,0,-114,-86,-176c0,0,-87,-61,-242,-61Z" 
id="f0_2f"
transform="scale(0.001,-0.001)" />

<path d="M426,-14c0,0,-160,0,-255,71c0,0,-95,72,-113,213l139,13c0,0,27,-187,229,-187c0,0,101,0,159,50c0,0,58,50,58,149c0,0,0,86,-66,134c0,0,-66,48,-191,48H310V594h73c0,0,111,0,172,48c0,0,60,48,60,133c0,0,0,84,-49,132c0,0,-50,49,-147,49c0,0,-89,0,-144,-45c0,0,-55,-46,-64,-129L76,793c0,0,15,129,107,201c0,0,92,73,237,73c0,0,158,0,246,-74c0,0,87,-73,87,-204c0,0,0,-101,-56,-164c0,0,-56,-63,-164,-85v-3c0,0,118,-13,184,-79c0,0,66,-67,66,-167c0,0,0,-146,-93,-226c0,0,-92,-79,-264,-79Z" 
id="f0_n"
transform="scale(0.001,-0.001)" />

<path d="M125,0V1051H923V936H268V597H878V482H268V115H953V0Z" 
id="f0_15"
transform="scale(0.001,-0.001)" />

<path d="M413,-14c0,0,-170,0,-259,106c0,0,-89,107,-89,313c0,0,0,203,89,310c0,0,90,107,257,107c0,0,124,0,206,-64c0,0,81,-64,102,-177L581,571c0,0,-10,67,-53,106c0,0,-42,40,-121,40c0,0,-106,0,-154,-71c0,0,-48,-71,-48,-239c0,0,0,-161,51,-238c0,0,51,-78,153,-78c0,0,71,0,120,39c0,0,48,39,59,119l136,-9C724,240,708,124,624,55c0,0,-83,-69,-211,-69Z" 
id="f0_1z"
transform="scale(0.001,-0.001)" />

<path d="M106,0V635c0,0,0,141,-5,173H228c0,0,1,-4,2,-21c0,0,1,-16,2,-37c0,0,1,-22,2,-81h2c0,0,44,86,100,120c0,0,56,33,136,33c0,0,92,0,145,-36c0,0,54,-37,75,-117h2c0,0,42,82,101,117c0,0,59,36,143,36c0,0,123,0,178,-66c0,0,56,-67,56,-218V0H1039V512c0,0,0,117,-32,162c0,0,-32,45,-116,45c0,0,-88,0,-136,-66c0,0,-49,-65,-49,-185V0H573V512c0,0,0,117,-32,162c0,0,-32,45,-116,45c0,0,-86,0,-136,-66c0,0,-50,-66,-50,-185V0Z" 
id="f0_29"
transform="scale(0.001,-0.001)" />

<path d="M142,-316c0,0,-55,0,-92,8v101c0,0,28,-4,63,-4c0,0,125,0,198,184L324,4L4,808H147L317,362c0,0,4,-11,9,-25c0,0,5,-15,34,-98c0,0,28,-83,30,-92l52,147L619,808H761L451,0c0,0,-50,-128,-94,-191c0,0,-43,-63,-96,-94c0,0,-52,-31,-119,-31Z" 
id="f0_2l"
transform="scale(0.001,-0.001)" />

<path d="M530,344V900c0,0,-1,-5,-20,-40c0,0,-20,-35,-30,-49L211,414L171,359L159,344ZM530,0V239H35V343l481,708H657V344H805V239H657V0Z" 
id="f0_o"
transform="scale(0.001,-0.001)" />

<path d="M125,0V1051H268V524l506,527H942L495,595L1002,0H825L405,507L268,403V0Z" 
id="f0_1b"
transform="scale(0.001,-0.001)" />

<path d="M413,-14c0,0,-147,0,-238,64c0,0,-90,64,-114,185l136,16c0,0,42,-155,219,-155c0,0,108,0,169,65c0,0,61,65,61,179c0,0,0,98,-62,159c0,0,-61,61,-165,61c0,0,-55,0,-102,-17c0,0,-47,-17,-94,-58H92l35,566H724V937H249L229,604c0,0,87,67,217,67c0,0,155,0,247,-91c0,0,93,-91,93,-237c0,0,0,-167,-99,-262c0,0,-99,-95,-274,-95Z" 
id="f0_p"
transform="scale(0.001,-0.001)" />

<path d="M439,94c0,0,97,0,152,65c0,0,55,65,55,179c0,0,0,114,-56,176c0,0,-56,62,-156,62c0,0,-94,0,-152,-55c0,0,-57,-55,-57,-151c0,0,0,-121,60,-199c0,0,60,-77,154,-77Zm4,-108c0,0,-177,0,-271,131c0,0,-94,132,-94,384c0,0,0,273,97,420c0,0,98,146,279,146c0,0,238,0,299,-214L625,830c0,0,-39,128,-173,128c0,0,-115,0,-178,-107c0,0,-63,-107,-63,-310c0,0,37,68,103,103c0,0,66,36,152,36c0,0,146,0,231,-91c0,0,86,-91,86,-245c0,0,0,-166,-91,-262c0,0,-90,-96,-249,-96Z" 
id="f0_q"
transform="scale(0.001,-0.001)" />

<path d="M606,-14c0,0,-164,0,-284,65c0,0,-119,66,-182,189c0,0,-63,123,-63,291c0,0,0,255,137,396c0,0,137,140,386,140c0,0,174,0,283,-59c0,0,109,-59,168,-189L915,779c0,0,-44,90,-123,131c0,0,-79,41,-196,41c0,0,-182,0,-278,-110c0,0,-96,-110,-96,-310c0,0,0,-200,102,-315c0,0,102,-115,282,-115c0,0,103,0,193,31c0,0,89,31,144,85V407H629V526h445V164c0,0,-83,-85,-205,-132c0,0,-121,-46,-263,-46Z" 
id="f0_17"
transform="scale(0.001,-0.001)" />

<path d="M557,522c0,0,238,0,238,211c0,0,0,204,-244,204H268V522ZM125,0V1051H568c0,0,176,0,273,-83c0,0,97,-82,97,-233c0,0,0,-149,-97,-237c0,0,-97,-88,-264,-88H268V0Z" 
id="f0_1g"
transform="scale(0.001,-0.001)" />

<path d="M141,0V1051H283V0Z" 
id="f0_19"
transform="scale(0.001,-0.001)" />

<path d="M272,0c0,0,0,201,86,424c0,0,85,223,285,513H78v114H773V942C773,942,612,696,545,556c0,0,-66,-139,-99,-275C446,281,413,145,413,0Z" 
id="f0_r"
transform="scale(0.001,-0.001)" />

<path d="M545,114c0,0,130,0,190,49c0,0,59,48,59,144c0,0,0,186,-261,186H268V114ZM507,604c0,0,114,0,171,43c0,0,56,43,56,132c0,0,0,85,-58,121c0,0,-58,37,-169,37H268V604ZM125,0V1051H507c0,0,370,0,370,-255c0,0,0,-93,-52,-157c0,0,-52,-63,-148,-85c0,0,126,-15,194,-84c0,0,67,-69,67,-174c0,0,0,-140,-102,-218C836,78,734,0,552,0Z" 
id="f0_12"
transform="scale(0.001,-0.001)" />

<path d="M103,0V1107H237V416L592,808H749L421,461L766,0H609L336,369L237,287V0Z" 
id="f0_27"
transform="scale(0.001,-0.001)" />

<path d="M427,86c0,0,109,0,163,53c0,0,54,52,54,167c0,0,0,97,-58,147c0,0,-59,50,-164,50c0,0,-102,0,-159,-54c0,0,-58,-53,-58,-146c0,0,0,-217,222,-217Zm-3,517c0,0,94,0,144,44c0,0,50,43,50,141c0,0,0,178,-196,178c0,0,-95,0,-144,-45c0,0,-50,-44,-50,-133c0,0,0,-90,51,-137c0,0,51,-48,145,-48Zm1,-617c0,0,-168,0,-263,79c0,0,-96,80,-96,227c0,0,0,103,59,173c0,0,59,70,151,85v3c0,0,-86,20,-135,87c0,0,-50,67,-50,157c0,0,0,121,90,195c0,0,90,75,241,75c0,0,155,0,245,-73c0,0,90,-74,90,-198c0,0,0,-90,-50,-158c0,0,-50,-67,-136,-84v-3c0,0,100,-16,156,-85c0,0,56,-69,56,-173c0,0,0,-145,-92,-226c0,0,-93,-81,-266,-81Z" 
id="f0_s"
transform="scale(0.001,-0.001)" />

<path d="M416,464c0,0,58,0,108,27c0,0,50,26,78,75c0,0,29,49,29,111c0,0,0,127,-58,204c0,0,-58,77,-156,77c0,0,-97,0,-153,-66c0,0,-56,-66,-56,-179c0,0,0,-115,56,-182c0,0,56,-67,152,-67ZM397,-14c0,0,-123,0,-197,51c0,0,-75,52,-107,168l129,20c0,0,40,-131,177,-131c0,0,116,0,179,107c0,0,64,107,67,306c0,0,-30,-67,-103,-108c0,0,-72,-40,-159,-40c0,0,-141,0,-226,97c0,0,-85,97,-85,257c0,0,0,165,92,259c0,0,93,95,257,95c0,0,176,0,266,-130c0,0,90,-130,90,-390c0,0,0,-271,-99,-416c0,0,-98,-145,-281,-145Z" 
id="f0_t"
transform="scale(0.001,-0.001)" />

<path d="M424,96c0,0,119,0,174,106c0,0,55,106,55,325c0,0,0,227,-52,329c0,0,-53,102,-174,102c0,0,-123,0,-177,-100c0,0,-55,-101,-55,-331c0,0,0,-224,55,-328c0,0,55,-103,174,-103ZM423,-14c0,0,-181,0,-272,137c0,0,-91,138,-91,403c0,0,0,271,88,406c0,0,88,135,279,135c0,0,186,0,275,-137c0,0,88,-136,88,-404c0,0,0,-263,-93,-402c0,0,-93,-138,-274,-138Z" 
id="f0_k"
transform="scale(0.001,-0.001)" />

<path d="M125,0V1051H268V606H836v445H979V0H836V487H268V0Z" 
id="f0_18"
transform="scale(0.001,-0.001)" />

<path d="M708,418L573,765c0,0,-21,52,-42,117l-20,62l-7,-21c0,0,-18,-62,-55,-159L315,418ZM3,0L432,1051H594L1016,0H871L750,307H272L151,0Z" 
id="f0_11"
transform="scale(0.001,-0.001)" />

<path d="M137,-195c0,0,70,102,70,195H142V163H287V38c0,0,0,-78,-14,-131c0,0,-14,-53,-44,-102Z" 
id="f0_g"
transform="scale(0.001,-0.001)" />

<path d="M453,84c0,0,101,0,146,75c0,0,46,75,46,244c0,0,0,169,-45,243c0,0,-45,73,-146,73c0,0,-113,0,-165,-78c0,0,-52,-78,-52,-246c0,0,0,-159,51,-235c0,0,51,-76,165,-76Zm36,-98c0,0,-92,0,-153,33c0,0,-61,33,-99,107h-1c0,0,0,-24,-3,-71c0,0,-3,-48,-5,-55H98c0,0,5,40,5,166v941H237V792c0,0,0,-49,-3,-114h3c0,0,38,77,99,111c0,0,62,33,153,33c0,0,153,0,225,-103c0,0,72,-103,72,-311c0,0,0,-422,-297,-422Z" 
id="f0_1y"
transform="scale(0.001,-0.001)" />

<path d="M17,0L304,415L31,808H179L380,493L580,808H730L457,417L747,0H598L380,331L162,0Z" 
id="f0_2k"
transform="scale(0.001,-0.001)" />

<path d="M298,0L5,808H148L326,282c0,0,10,-29,51,-176l27,87l29,88L616,808H759L457,0Z" 
id="f0_2i"
transform="scale(0.001,-0.001)" />


</defs>
</svg>