<?xml version="1.0" encoding="UTF-8" standalone="no"?>
<!DOCTYPE svg PUBLIC "-//W3C//DTD SVG 1.1//EN"
"http://www.w3.org/Graphics/SVG/1.1/DTD/svg11.dtd">
<svg viewBox="0 0 734 1091" version="1.1" xmlns="http://www.w3.org/2000/svg" xmlns:xlink="http://www.w3.org/1999/xlink">
<defs>
</defs>
<g fill="#D4D4D4" fill-opacity="0.36" >
<use xlink:href="#f0_1f" transform="matrix(50.9,-50.9,50.9,50.9,123.1,814.1)" />
<use xlink:href="#f0_2a" transform="matrix(50.9,-50.9,50.9,50.9,183.6,753.6)" />
<use xlink:href="#f0_28" transform="matrix(50.9,-50.9,50.9,50.9,226.8,710.3)" />
<use xlink:href="#f0_25" transform="matrix(50.9,-50.9,50.9,50.9,244.1,693.1)" />
<use xlink:href="#f0_2a" transform="matrix(50.9,-50.9,50.9,50.9,261.4,675.8)" />
<use xlink:href="#f0_21" transform="matrix(50.9,-50.9,50.9,50.9,304.6,632.5)" />
<use xlink:href="#f0_2k" transform="matrix(50.9,-50.9,50.9,50.9,347.8,589.3)" />
<use xlink:href="#f0_1x" transform="matrix(50.9,-50.9,50.9,50.9,386.7,550.4)" />
<use xlink:href="#f0_29" transform="matrix(50.9,-50.9,50.9,50.9,430,507.2)" />
<use xlink:href="#f0_2c" transform="matrix(50.9,-50.9,50.9,50.9,494.8,442.4)" />
<use xlink:href="#f0_2b" transform="matrix(50.9,-50.9,50.9,50.9,538,399.1)" />
<use xlink:href="#f0_25" transform="matrix(50.9,-50.9,50.9,50.9,581.3,355.9)" />
<use xlink:href="#f0_2a" transform="matrix(50.9,-50.9,50.9,50.9,598.5,338.6)" />
<use xlink:href="#f0_2g" transform="matrix(50.9,-50.9,50.9,50.9,641.8,295.4)" />
</g>
<g fill="#000000" >
<use xlink:href="#f1_c" transform="matrix(10.4,0,0,10.4,75.7,349.6)" />
<use xlink:href="#f1_25" transform="matrix(10.4,0,0,10.4,81.1,349.6)" />
<use xlink:href="#f1_2k" transform="matrix(10.4,0,0,10.4,84.4,349.6)" />
<use xlink:href="#f1_d" transform="matrix(10.4,0,0,10.4,92.2,349.6)" />
<use xlink:href="#f1_13" transform="matrix(10.4,0,0,10.4,119,349.6)" />
<use xlink:href="#f1_q" transform="matrix(7.4,0,0,7.4,130.6,354.9)" />
<use xlink:href="#f1_18" transform="matrix(10.4,0,0,10.4,136.8,349.6)" />
<use xlink:href="#f1_p" transform="matrix(7.4,0,0,7.4,148.3,354.9)" />
<use xlink:href="#f1_1f" transform="matrix(10.4,0,0,10.4,154.6,349.6)" />
<use xlink:href="#f1_13" transform="matrix(10.4,0,0,10.4,167,349.6)" />
<use xlink:href="#f1_n" transform="matrix(7.4,0,0,7.4,178.6,354.9)" />
<use xlink:href="#f1_18" transform="matrix(10.4,0,0,10.4,184.8,349.6)" />
<use xlink:href="#f1_r" transform="matrix(7.4,0,0,7.4,196.4,354.9)" />
<use xlink:href="#f1_c" transform="matrix(10.4,0,0,10.4,75.7,379.7)" />
<use xlink:href="#f1_2k" transform="matrix(10.4,0,0,10.4,80.9,379.7)" />
<use xlink:href="#f1_d" transform="matrix(10.4,0,0,10.4,88.8,379.7)" />
<use xlink:href="#f1_13" transform="matrix(10.4,0,0,10.4,119,379.7)" />
<use xlink:href="#f1_18" transform="matrix(10.4,0,0,10.4,130.4,379.7)" />
<use xlink:href="#f1_n" transform="matrix(7.4,0,0,7.4,141.7,385)" />
<use xlink:href="#f1_13" transform="matrix(10.4,0,0,10.4,147.8,379.7)" />
<use xlink:href="#f1_18" transform="matrix(10.4,0,0,10.4,159.2,379.7)" />
<use xlink:href="#f1_m" transform="matrix(7.4,0,0,7.4,170.5,385)" />
<use xlink:href="#f1_1f" transform="matrix(10.4,0,0,10.4,176.6,379.7)" />
<use xlink:href="#f1_13" transform="matrix(10.4,0,0,10.4,188.9,379.7)" />
<use xlink:href="#f1_18" transform="matrix(10.4,0,0,10.4,200,379.7)" />
<use xlink:href="#f1_m" transform="matrix(7.4,0,0,7.4,211.4,385)" />
<use xlink:href="#f1_13" transform="matrix(10.4,0,0,10.4,217.5,379.7)" />
<use xlink:href="#f1_18" transform="matrix(10.4,0,0,10.4,228.8,379.7)" />
<use xlink:href="#f1_m" transform="matrix(7.4,0,0,7.4,240.2,385)" />
<use xlink:href="#f1_13" transform="matrix(10.4,0,0,10.4,246.2,379.7)" />
<use xlink:href="#f1_18" transform="matrix(10.4,0,0,10.4,257.6,379.7)" />
<use xlink:href="#f1_m" transform="matrix(7.4,0,0,7.4,269,385)" />
<use xlink:href="#f1_13" transform="matrix(10.4,0,0,10.4,275,379.7)" />
<use xlink:href="#f1_28" transform="matrix(10.4,0,0,10.4,286.2,379.7)" />
<use xlink:href="#f1_m" transform="matrix(10.4,0,0,10.4,32.5,409.6)" />
<use xlink:href="#f1_i" transform="matrix(10.4,0,0,10.4,41.8,409.6)" />
<use xlink:href="#f1_1n" transform="matrix(10.4,0,0,10.4,75.7,409.6)" />
<use xlink:href="#f1_2e" transform="matrix(10.4,0,0,10.4,91.7,409.6)" />
<use xlink:href="#f1_25" transform="matrix(10.4,0,0,10.4,97,409.6)" />
<use xlink:href="#f1_2g" transform="matrix(10.4,0,0,10.4,100.5,409.6)" />
<use xlink:href="#f1_21" transform="matrix(10.4,0,0,10.4,104.9,409.6)" />
<use xlink:href="#f1_2g" transform="matrix(10.4,0,0,10.4,121.4,409.6)" />
<use xlink:href="#f1_24" transform="matrix(10.4,0,0,10.4,125.8,409.6)" />
<use xlink:href="#f1_21" transform="matrix(10.4,0,0,10.4,134.6,409.6)" />
<use xlink:href="#f1_2f" transform="matrix(10.4,0,0,10.4,150.9,409.6)" />
<use xlink:href="#f1_2g" transform="matrix(10.4,0,0,10.4,159,409.6)" />
<use xlink:href="#f1_2e" transform="matrix(10.4,0,0,10.4,163.4,409.6)" />
<use xlink:href="#f1_2h" transform="matrix(10.4,0,0,10.4,168.7,409.6)" />
<use xlink:href="#f1_1z" transform="matrix(10.4,0,0,10.4,177.5,409.6)" />
<use xlink:href="#f1_2g" transform="matrix(10.4,0,0,10.4,185.6,409.6)" />
<use xlink:href="#f1_2h" transform="matrix(10.4,0,0,10.4,190,409.6)" />
<use xlink:href="#f1_2e" transform="matrix(10.4,0,0,10.4,198.8,409.6)" />
<use xlink:href="#f1_21" transform="matrix(10.4,0,0,10.4,204.1,409.6)" />
<use xlink:href="#f1_2f" transform="matrix(10.4,0,0,10.4,212.9,409.6)" />
<use xlink:href="#f1_2b" transform="matrix(10.4,0,0,10.4,228.6,409.6)" />
<use xlink:href="#f1_22" transform="matrix(10.4,0,0,10.4,237.4,409.6)" />
<use xlink:href="#f1_2g" transform="matrix(10.4,0,0,10.4,249.7,409.6)" />
<use xlink:href="#f1_24" transform="matrix(10.4,0,0,10.4,254.1,409.6)" />
<use xlink:href="#f1_21" transform="matrix(10.4,0,0,10.4,262.9,409.6)" />
<use xlink:href="#f1_1z" transform="matrix(10.4,0,0,10.4,279.2,409.6)" />
<use xlink:href="#f1_2b" transform="matrix(10.4,0,0,10.4,287.3,409.6)" />
<use xlink:href="#f1_29" transform="matrix(10.4,0,0,10.4,296.1,409.6)" />
<use xlink:href="#f1_2c" transform="matrix(10.4,0,0,10.4,309.7,409.6)" />
<use xlink:href="#f1_2b" transform="matrix(10.4,0,0,10.4,318.5,409.6)" />
<use xlink:href="#f1_2h" transform="matrix(10.4,0,0,10.4,327.3,409.6)" />
<use xlink:href="#f1_2a" transform="matrix(10.4,0,0,10.4,336.1,409.6)" />
<use xlink:href="#f1_20" transform="matrix(10.4,0,0,10.4,344.9,409.6)" />
<use xlink:href="#f1_2f" transform="matrix(10.4,0,0,10.4,353.7,409.6)" />
<use xlink:href="#f1_2j" transform="matrix(10.4,0,0,10.4,369.4,409.6)" />
<use xlink:href="#f1_24" transform="matrix(10.4,0,0,10.4,380.6,409.6)" />
<use xlink:href="#f1_2b" transform="matrix(10.4,0,0,10.4,389.4,409.6)" />
<use xlink:href="#f1_2f" transform="matrix(10.4,0,0,10.4,398.2,409.6)" />
<use xlink:href="#f1_21" transform="matrix(10.4,0,0,10.4,406.3,409.6)" />
<use xlink:href="#f1_2a" transform="matrix(10.4,0,0,10.4,422.6,409.6)" />
<use xlink:href="#f1_1x" transform="matrix(10.4,0,0,10.4,431.4,409.6)" />
<use xlink:href="#f1_29" transform="matrix(10.4,0,0,10.4,440.2,409.6)" />
<use xlink:href="#f1_21" transform="matrix(10.4,0,0,10.4,453.7,409.6)" />
<use xlink:href="#f1_2f" transform="matrix(10.4,0,0,10.4,462.5,409.6)" />
<use xlink:href="#f1_1x" transform="matrix(10.4,0,0,10.4,478.3,409.6)" />
<use xlink:href="#f1_2e" transform="matrix(10.4,0,0,10.4,487.1,409.6)" />
<use xlink:href="#f1_21" transform="matrix(10.4,0,0,10.4,492.4,409.6)" />
<use xlink:href="#f1_23" transform="matrix(10.4,0,0,10.4,508.9,409.6)" />
<use xlink:href="#f1_25" transform="matrix(10.4,0,0,10.4,517.7,409.6)" />
<use xlink:href="#f1_2i" transform="matrix(10.4,0,0,10.4,521.2,409.6)" />
<use xlink:href="#f1_21" transform="matrix(10.4,0,0,10.4,529.1,409.6)" />
<use xlink:href="#f1_2a" transform="matrix(10.4,0,0,10.4,537.9,409.6)" />
<use xlink:href="#f1_1y" transform="matrix(10.4,0,0,10.4,554.2,409.6)" />
<use xlink:href="#f1_21" transform="matrix(10.4,0,0,10.4,563,409.6)" />
<use xlink:href="#f1_28" transform="matrix(10.4,0,0,10.4,571.8,409.6)" />
<use xlink:href="#f1_2b" transform="matrix(10.4,0,0,10.4,575.3,409.6)" />
<use xlink:href="#f1_2j" transform="matrix(10.4,0,0,10.4,584.1,409.6)" />
<use xlink:href="#f1_u" transform="matrix(10.4,0,0,10.4,603,409.6)" />
<use xlink:href="#f1_c" transform="matrix(10.4,0,0,10.4,75.7,439.6)" />
<use xlink:href="#f1_25" transform="matrix(10.4,0,0,10.4,81.4,439.6)" />
<use xlink:href="#f1_d" transform="matrix(10.4,0,0,10.4,85.3,439.6)" />
<use xlink:href="#f1_n" transform="matrix(10.4,0,0,10.4,119,439.6)" />
<use xlink:href="#f1_g" transform="matrix(10.4,0,0,10.4,127.8,439.6)" />
<use xlink:href="#f1_p" transform="matrix(10.4,0,0,10.4,140.8,439.6)" />
<use xlink:href="#f1_h" transform="matrix(10.4,0,0,10.4,149.6,439.6)" />
<use xlink:href="#f1_20" transform="matrix(10.4,0,0,10.4,154.9,439.6)" />
<use xlink:href="#f1_25" transform="matrix(10.4,0,0,10.4,163.7,439.6)" />
<use xlink:href="#f1_29" transform="matrix(10.4,0,0,10.4,167.2,439.6)" />
<use xlink:href="#f1_21" transform="matrix(10.4,0,0,10.4,180.8,439.6)" />
<use xlink:href="#f1_2g" transform="matrix(10.4,0,0,10.4,189.6,439.6)" />
<use xlink:href="#f1_24" transform="matrix(10.4,0,0,10.4,194,439.6)" />
<use xlink:href="#f1_2b" transform="matrix(10.4,0,0,10.4,202.8,439.6)" />
<use xlink:href="#f1_2k" transform="matrix(10.4,0,0,10.4,211.6,439.6)" />
<use xlink:href="#f1_2l" transform="matrix(10.4,0,0,10.4,219.5,439.6)" />
<use xlink:href="#f1_24" transform="matrix(10.4,0,0,10.4,227,439.6)" />
<use xlink:href="#f1_21" transform="matrix(10.4,0,0,10.4,235.8,439.6)" />
<use xlink:href="#f1_2k" transform="matrix(10.4,0,0,10.4,244.6,439.6)" />
<use xlink:href="#f1_1x" transform="matrix(10.4,0,0,10.4,252.5,439.6)" />
<use xlink:href="#f1_2a" transform="matrix(10.4,0,0,10.4,261.3,439.6)" />
<use xlink:href="#f1_21" transform="matrix(10.4,0,0,10.4,270.1,439.6)" />
<use xlink:href="#f1_h" transform="matrix(10.4,0,0,10.4,278.9,439.6)" />
<use xlink:href="#f1_l" transform="matrix(10.4,0,0,10.4,284.2,439.6)" />
<use xlink:href="#f1_g" transform="matrix(10.4,0,0,10.4,293,439.6)" />
<use xlink:href="#f1_n" transform="matrix(10.4,0,0,10.4,306.2,439.6)" />
<use xlink:href="#f1_g" transform="matrix(10.4,0,0,10.4,315,439.6)" />
<use xlink:href="#f1_p" transform="matrix(10.4,0,0,10.4,328,439.6)" />
<use xlink:href="#f1_h" transform="matrix(10.4,0,0,10.4,336.8,439.6)" />
<use xlink:href="#f1_2g" transform="matrix(10.4,0,0,10.4,342.1,439.6)" />
<use xlink:href="#f1_2e" transform="matrix(10.4,0,0,10.4,346.5,439.6)" />
<use xlink:href="#f1_25" transform="matrix(10.4,0,0,10.4,351.8,439.6)" />
<use xlink:href="#f1_2b" transform="matrix(10.4,0,0,10.4,355.3,439.6)" />
<use xlink:href="#f1_28" transform="matrix(10.4,0,0,10.4,364.1,439.6)" />
<use xlink:href="#f1_c" transform="matrix(10.4,0,0,10.4,75.7,469.7)" />
<use xlink:href="#f1_25" transform="matrix(10.4,0,0,10.4,81.2,469.7)" />
<use xlink:href="#f1_25" transform="matrix(10.4,0,0,10.4,85.1,469.7)" />
<use xlink:href="#f1_d" transform="matrix(10.4,0,0,10.4,88.8,469.7)" />
<use xlink:href="#f1_1z" transform="matrix(10.4,0,0,10.4,119,469.7)" />
<use xlink:href="#f1_2l" transform="matrix(10.4,0,0,10.4,127.3,469.7)" />
<use xlink:href="#f1_1z" transform="matrix(10.4,0,0,10.4,134.8,469.7)" />
<use xlink:href="#f1_28" transform="matrix(10.4,0,0,10.4,143,469.7)" />
<use xlink:href="#f1_2b" transform="matrix(10.4,0,0,10.4,146.7,469.7)" />
<use xlink:href="#f1_24" transform="matrix(10.4,0,0,10.4,155.5,469.7)" />
<use xlink:href="#f1_21" transform="matrix(10.4,0,0,10.4,164.5,469.7)" />
<use xlink:href="#f1_2k" transform="matrix(10.4,0,0,10.4,173.5,469.7)" />
<use xlink:href="#f1_2l" transform="matrix(10.4,0,0,10.4,181.3,469.7)" />
<use xlink:href="#f1_28" transform="matrix(10.4,0,0,10.4,189,469.7)" />
<use xlink:href="#f1_29" transform="matrix(10.4,0,0,10.4,192.5,469.7)" />
<use xlink:href="#f1_21" transform="matrix(10.4,0,0,10.4,206.3,469.7)" />
<use xlink:href="#f1_2g" transform="matrix(10.4,0,0,10.4,215.2,469.7)" />
<use xlink:href="#f1_24" transform="matrix(10.4,0,0,10.4,219.7,469.7)" />
<use xlink:href="#f1_1x" transform="matrix(10.4,0,0,10.4,228.6,469.7)" />
<use xlink:href="#f1_2a" transform="matrix(10.4,0,0,10.4,237.6,469.7)" />
<use xlink:href="#f1_2b" transform="matrix(10.4,0,0,10.4,246.4,469.7)" />
<use xlink:href="#f1_28" transform="matrix(10.4,0,0,10.4,255.4,469.7)" />
<use xlink:href="#f1_c" transform="matrix(10.4,0,0,10.4,75.7,499.8)" />
<use xlink:href="#f1_25" transform="matrix(10.4,0,0,10.4,81.2,499.8)" />
<use xlink:href="#f1_25" transform="matrix(10.4,0,0,10.4,84.9,499.8)" />
<use xlink:href="#f1_25" transform="matrix(10.4,0,0,10.4,88.6,499.8)" />
<use xlink:href="#f1_d" transform="matrix(10.4,0,0,10.4,92.2,499.8)" />
<use xlink:href="#f1_m" transform="matrix(10.4,0,0,10.4,119,499.8)" />
<use xlink:href="#f1_h" transform="matrix(10.4,0,0,10.4,128,499.8)" />
<use xlink:href="#f1_21" transform="matrix(10.4,0,0,10.4,133.7,499.8)" />
<use xlink:href="#f1_2g" transform="matrix(10.4,0,0,10.4,142.7,499.8)" />
<use xlink:href="#f1_24" transform="matrix(10.4,0,0,10.4,147.2,499.8)" />
<use xlink:href="#f1_2b" transform="matrix(10.4,0,0,10.4,156.4,499.8)" />
<use xlink:href="#f1_2k" transform="matrix(10.4,0,0,10.4,165.4,499.8)" />
<use xlink:href="#f1_2l" transform="matrix(10.4,0,0,10.4,173.5,499.8)" />
<use xlink:href="#f1_h" transform="matrix(10.4,0,0,10.4,181.2,499.8)" />
<use xlink:href="#f1_n" transform="matrix(10.4,0,0,10.4,186.8,499.8)" />
<use xlink:href="#f1_h" transform="matrix(10.4,0,0,10.4,195.8,499.8)" />
<use xlink:href="#f1_29" transform="matrix(10.4,0,0,10.4,201.3,499.8)" />
<use xlink:href="#f1_21" transform="matrix(10.4,0,0,10.4,215.2,499.8)" />
<use xlink:href="#f1_2g" transform="matrix(10.4,0,0,10.4,224.2,499.8)" />
<use xlink:href="#f1_24" transform="matrix(10.4,0,0,10.4,228.8,499.8)" />
<use xlink:href="#f1_2l" transform="matrix(10.4,0,0,10.4,238,499.8)" />
<use xlink:href="#f1_28" transform="matrix(10.4,0,0,10.4,245.7,499.8)" />
<use xlink:href="#f1_2c" transform="matrix(10.4,0,0,10.4,249.3,499.8)" />
<use xlink:href="#f1_21" transform="matrix(10.4,0,0,10.4,258.3,499.8)" />
<use xlink:href="#f1_2a" transform="matrix(10.4,0,0,10.4,267.5,499.8)" />
<use xlink:href="#f1_2g" transform="matrix(10.4,0,0,10.4,276.5,499.8)" />
<use xlink:href="#f1_1x" transform="matrix(10.4,0,0,10.4,281,499.8)" />
<use xlink:href="#f1_2a" transform="matrix(10.4,0,0,10.4,290.2,499.8)" />
<use xlink:href="#f1_21" transform="matrix(10.4,0,0,10.4,299.2,499.8)" />
<use xlink:href="#f1_c" transform="matrix(10.4,0,0,10.4,75.7,529.7)" />
<use xlink:href="#f1_25" transform="matrix(10.4,0,0,10.4,81.4,529.7)" />
<use xlink:href="#f1_2i" transform="matrix(10.4,0,0,10.4,85.1,529.7)" />
<use xlink:href="#f1_d" transform="matrix(10.4,0,0,10.4,93.3,529.7)" />
<use xlink:href="#f1_n" transform="matrix(10.4,0,0,10.4,119,529.7)" />
<use xlink:href="#f1_h" transform="matrix(10.4,0,0,10.4,128,529.7)" />
<use xlink:href="#f1_1z" transform="matrix(10.4,0,0,10.4,133.7,529.7)" />
<use xlink:href="#f1_24" transform="matrix(10.4,0,0,10.4,141.9,529.7)" />
<use xlink:href="#f1_28" transform="matrix(10.4,0,0,10.4,151.1,529.7)" />
<use xlink:href="#f1_2b" transform="matrix(10.4,0,0,10.4,154.8,529.7)" />
<use xlink:href="#f1_2e" transform="matrix(10.4,0,0,10.4,163.7,529.7)" />
<use xlink:href="#f1_2b" transform="matrix(10.4,0,0,10.4,169.4,529.7)" />
<use xlink:href="#f1_29" transform="matrix(10.4,0,0,10.4,178.4,529.7)" />
<use xlink:href="#f1_21" transform="matrix(10.4,0,0,10.4,192.3,529.7)" />
<use xlink:href="#f1_2g" transform="matrix(10.4,0,0,10.4,201.3,529.7)" />
<use xlink:href="#f1_24" transform="matrix(10.4,0,0,10.4,206.1,529.7)" />
<use xlink:href="#f1_2l" transform="matrix(10.4,0,0,10.4,215.1,529.7)" />
<use xlink:href="#f1_28" transform="matrix(10.4,0,0,10.4,222.8,529.7)" />
<use xlink:href="#f1_2c" transform="matrix(10.4,0,0,10.4,226.6,529.7)" />
<use xlink:href="#f1_21" transform="matrix(10.4,0,0,10.4,235.6,529.7)" />
<use xlink:href="#f1_2a" transform="matrix(10.4,0,0,10.4,244.8,529.7)" />
<use xlink:href="#f1_2g" transform="matrix(10.4,0,0,10.4,253.7,529.7)" />
<use xlink:href="#f1_1x" transform="matrix(10.4,0,0,10.4,258.3,529.7)" />
<use xlink:href="#f1_2a" transform="matrix(10.4,0,0,10.4,267.5,529.7)" />
<use xlink:href="#f1_h" transform="matrix(10.4,0,0,10.4,276.5,529.7)" />
<use xlink:href="#f1_m" transform="matrix(10.4,0,0,10.4,282.1,529.7)" />
<use xlink:href="#f1_h" transform="matrix(10.4,0,0,10.4,291.1,529.7)" />
<use xlink:href="#f1_2b" transform="matrix(10.4,0,0,10.4,296.8,529.7)" />
<use xlink:href="#f1_28" transform="matrix(10.4,0,0,10.4,305.8,529.7)" />
<use xlink:href="#f1_c" transform="matrix(10.4,0,0,10.4,75.7,559.7)" />
<use xlink:href="#f1_2i" transform="matrix(10.4,0,0,10.4,81.4,559.7)" />
<use xlink:href="#f1_d" transform="matrix(10.4,0,0,10.4,89.9,559.7)" />
<use xlink:href="#f1_2c" transform="matrix(10.4,0,0,10.4,119,559.7)" />
<use xlink:href="#f1_h" transform="matrix(10.4,0,0,10.4,128,559.7)" />
<use xlink:href="#f1_2a" transform="matrix(10.4,0,0,10.4,133.7,559.7)" />
<use xlink:href="#f1_25" transform="matrix(10.4,0,0,10.4,142.7,559.7)" />
<use xlink:href="#f1_2g" transform="matrix(10.4,0,0,10.4,146.5,559.7)" />
<use xlink:href="#f1_2e" transform="matrix(10.4,0,0,10.4,151.1,559.7)" />
<use xlink:href="#f1_2b" transform="matrix(10.4,0,0,10.4,156.8,559.7)" />
<use xlink:href="#f1_1x" transform="matrix(10.4,0,0,10.4,165.8,559.7)" />
<use xlink:href="#f1_2a" transform="matrix(10.4,0,0,10.4,174.9,559.7)" />
<use xlink:href="#f1_25" transform="matrix(10.4,0,0,10.4,183.9,559.7)" />
<use xlink:href="#f1_2f" transform="matrix(10.4,0,0,10.4,187.7,559.7)" />
<use xlink:href="#f1_2b" transform="matrix(10.4,0,0,10.4,196,559.7)" />
<use xlink:href="#f1_28" transform="matrix(10.4,0,0,10.4,205.2,559.7)" />
<use xlink:href="#f1_21" transform="matrix(10.4,0,0,10.4,208.8,559.7)" />
<use xlink:href="#f1_n" transform="matrix(10.4,0,0,10.4,32.5,589.8)" />
<use xlink:href="#f1_i" transform="matrix(10.4,0,0,10.4,41.8,589.8)" />
<use xlink:href="#f1_14" transform="matrix(10.4,0,0,10.4,75.7,589.8)" />
<use xlink:href="#f1_21" transform="matrix(10.4,0,0,10.4,87.3,589.8)" />
<use xlink:href="#f1_2f" transform="matrix(10.4,0,0,10.4,96.1,589.8)" />
<use xlink:href="#f1_1z" transform="matrix(10.4,0,0,10.4,104.2,589.8)" />
<use xlink:href="#f1_2e" transform="matrix(10.4,0,0,10.4,112.2,589.8)" />
<use xlink:href="#f1_25" transform="matrix(10.4,0,0,10.4,117.5,589.8)" />
<use xlink:href="#f1_1y" transform="matrix(10.4,0,0,10.4,121,589.8)" />
<use xlink:href="#f1_21" transform="matrix(10.4,0,0,10.4,129.8,589.8)" />
<use xlink:href="#f1_2g" transform="matrix(10.4,0,0,10.4,146.1,589.8)" />
<use xlink:href="#f1_24" transform="matrix(10.4,0,0,10.4,150.5,589.8)" />
<use xlink:href="#f1_21" transform="matrix(10.4,0,0,10.4,159.3,589.8)" />
<use xlink:href="#f1_22" transform="matrix(10.4,0,0,10.4,175.7,589.8)" />
<use xlink:href="#f1_2b" transform="matrix(10.4,0,0,10.4,180.2,589.8)" />
<use xlink:href="#f1_28" transform="matrix(10.4,0,0,10.4,189,589.8)" />
<use xlink:href="#f1_28" transform="matrix(10.4,0,0,10.4,192.5,589.8)" />
<use xlink:href="#f1_2b" transform="matrix(10.4,0,0,10.4,196,589.8)" />
<use xlink:href="#f1_2j" transform="matrix(10.4,0,0,10.4,204.8,589.8)" />
<use xlink:href="#f1_25" transform="matrix(10.4,0,0,10.4,216,589.8)" />
<use xlink:href="#f1_2a" transform="matrix(10.4,0,0,10.4,219.5,589.8)" />
<use xlink:href="#f1_23" transform="matrix(10.4,0,0,10.4,228.3,589.8)" />
<use xlink:href="#f1_2e" transform="matrix(10.4,0,0,10.4,244.6,589.8)" />
<use xlink:href="#f1_21" transform="matrix(10.4,0,0,10.4,249.9,589.8)" />
<use xlink:href="#f1_1x" transform="matrix(10.4,0,0,10.4,258.7,589.8)" />
<use xlink:href="#f1_1z" transform="matrix(10.4,0,0,10.4,267.5,589.8)" />
<use xlink:href="#f1_2g" transform="matrix(10.4,0,0,10.4,275.6,589.8)" />
<use xlink:href="#f1_25" transform="matrix(10.4,0,0,10.4,280,589.8)" />
<use xlink:href="#f1_2b" transform="matrix(10.4,0,0,10.4,283.4,589.8)" />
<use xlink:href="#f1_2a" transform="matrix(10.4,0,0,10.4,292.2,589.8)" />
<use xlink:href="#f1_2f" transform="matrix(10.4,0,0,10.4,301,589.8)" />
<use xlink:href="#f1_2j" transform="matrix(10.4,0,0,10.4,316.6,589.8)" />
<use xlink:href="#f1_25" transform="matrix(10.4,0,0,10.4,327.8,589.8)" />
<use xlink:href="#f1_2g" transform="matrix(10.4,0,0,10.4,331.3,589.8)" />
<use xlink:href="#f1_24" transform="matrix(10.4,0,0,10.4,335.7,589.8)" />
<use xlink:href="#f1_21" transform="matrix(10.4,0,0,10.4,352,589.8)" />
<use xlink:href="#f1_2k" transform="matrix(10.4,0,0,10.4,360.8,589.8)" />
<use xlink:href="#f1_1x" transform="matrix(10.4,0,0,10.4,368.7,589.8)" />
<use xlink:href="#f1_29" transform="matrix(10.4,0,0,10.4,377.5,589.8)" />
<use xlink:href="#f1_2c" transform="matrix(10.4,0,0,10.4,391,589.8)" />
<use xlink:href="#f1_28" transform="matrix(10.4,0,0,10.4,399.8,589.8)" />
<use xlink:href="#f1_21" transform="matrix(10.4,0,0,10.4,403.3,589.8)" />
<use xlink:href="#f1_u" transform="matrix(10.4,0,0,10.4,419.6,589.8)" />
<use xlink:href="#f1_c" transform="matrix(10.4,0,0,10.4,75.7,619.9)" />
<use xlink:href="#f1_25" transform="matrix(10.4,0,0,10.4,81.4,619.9)" />
<use xlink:href="#f1_d" transform="matrix(10.4,0,0,10.4,85.3,619.9)" />
<use xlink:href="#f1_18" transform="matrix(10.4,0,0,10.4,119,619.9)" />
<use xlink:href="#f1_2l" transform="matrix(10.4,0,0,10.4,130.6,619.9)" />
<use xlink:href="#f1_20" transform="matrix(10.4,0,0,10.4,138.1,619.9)" />
<use xlink:href="#f1_2e" transform="matrix(10.4,0,0,10.4,146.9,619.9)" />
<use xlink:href="#f1_2b" transform="matrix(10.4,0,0,10.4,152.2,619.9)" />
<use xlink:href="#f1_1y" transform="matrix(10.4,0,0,10.4,161,619.9)" />
<use xlink:href="#f1_2b" transform="matrix(10.4,0,0,10.4,169.8,619.9)" />
<use xlink:href="#f1_2e" transform="matrix(10.4,0,0,10.4,178.6,619.9)" />
<use xlink:href="#f1_1x" transform="matrix(10.4,0,0,10.4,183.9,619.9)" />
<use xlink:href="#f1_2g" transform="matrix(10.4,0,0,10.4,192.7,619.9)" />
<use xlink:href="#f1_25" transform="matrix(10.4,0,0,10.4,197.1,619.9)" />
<use xlink:href="#f1_2b" transform="matrix(10.4,0,0,10.4,200.6,619.9)" />
<use xlink:href="#f1_2a" transform="matrix(10.4,0,0,10.4,209.4,619.9)" />
<use xlink:href="#f1_2b" transform="matrix(10.4,0,0,10.4,226.8,619.9)" />
<use xlink:href="#f1_2k" transform="matrix(10.4,0,0,10.4,235.6,619.9)" />
<use xlink:href="#f1_25" transform="matrix(10.4,0,0,10.4,243.5,619.9)" />
<use xlink:href="#f1_20" transform="matrix(10.4,0,0,10.4,247,619.9)" />
<use xlink:href="#f1_1x" transform="matrix(10.4,0,0,10.4,255.8,619.9)" />
<use xlink:href="#f1_2g" transform="matrix(10.4,0,0,10.4,264.6,619.9)" />
<use xlink:href="#f1_25" transform="matrix(10.4,0,0,10.4,269,619.9)" />
<use xlink:href="#f1_2b" transform="matrix(10.4,0,0,10.4,272.5,619.9)" />
<use xlink:href="#f1_2a" transform="matrix(10.4,0,0,10.4,281.3,619.9)" />
<use xlink:href="#f1_2b" transform="matrix(10.4,0,0,10.4,298.9,619.9)" />
<use xlink:href="#f1_22" transform="matrix(10.4,0,0,10.4,307.7,619.9)" />
<use xlink:href="#f1_1x" transform="matrix(10.4,0,0,10.4,320.9,619.9)" />
<use xlink:href="#f1_28" transform="matrix(10.4,0,0,10.4,329.7,619.9)" />
<use xlink:href="#f1_27" transform="matrix(10.4,0,0,10.4,333.1,619.9)" />
<use xlink:href="#f1_21" transform="matrix(10.4,0,0,10.4,341.2,619.9)" />
<use xlink:href="#f1_2a" transform="matrix(10.4,0,0,10.4,350,619.9)" />
<use xlink:href="#f1_21" transform="matrix(10.4,0,0,10.4,358.8,619.9)" />
<use xlink:href="#f1_2f" transform="matrix(10.4,0,0,10.4,367.6,619.9)" />
<use xlink:href="#f1_c" transform="matrix(10.4,0,0,10.4,75.7,649.7)" />
<use xlink:href="#f1_25" transform="matrix(10.4,0,0,10.4,81.2,649.7)" />
<use xlink:href="#f1_25" transform="matrix(10.4,0,0,10.4,85.1,649.7)" />
<use xlink:href="#f1_d" transform="matrix(10.4,0,0,10.4,88.8,649.7)" />
<use xlink:href="#f1_11" transform="matrix(10.4,0,0,10.4,119,649.7)" />
<use xlink:href="#f1_1z" transform="matrix(10.4,0,0,10.4,129.7,649.7)" />
<use xlink:href="#f1_25" transform="matrix(10.4,0,0,10.4,137.7,649.7)" />
<use xlink:href="#f1_20" transform="matrix(10.4,0,0,10.4,141.2,649.7)" />
<use xlink:href="#f1_1z" transform="matrix(10.4,0,0,10.4,158.2,649.7)" />
<use xlink:href="#f1_1x" transform="matrix(10.4,0,0,10.4,166.3,649.7)" />
<use xlink:href="#f1_2g" transform="matrix(10.4,0,0,10.4,175.1,649.7)" />
<use xlink:href="#f1_1x" transform="matrix(10.4,0,0,10.4,179.5,649.7)" />
<use xlink:href="#f1_28" transform="matrix(10.4,0,0,10.4,188.3,649.7)" />
<use xlink:href="#f1_2l" transform="matrix(10.4,0,0,10.4,191.8,649.7)" />
<use xlink:href="#f1_2f" transform="matrix(10.4,0,0,10.4,199.3,649.7)" />
<use xlink:href="#f1_21" transform="matrix(10.4,0,0,10.4,207.4,649.7)" />
<use xlink:href="#f1_20" transform="matrix(10.4,0,0,10.4,216.2,649.7)" />
<use xlink:href="#f1_20" transform="matrix(10.4,0,0,10.4,233.4,649.7)" />
<use xlink:href="#f1_21" transform="matrix(10.4,0,0,10.4,242.2,649.7)" />
<use xlink:href="#f1_24" transform="matrix(10.4,0,0,10.4,251,649.7)" />
<use xlink:href="#f1_2l" transform="matrix(10.4,0,0,10.4,259.8,649.7)" />
<use xlink:href="#f1_20" transform="matrix(10.4,0,0,10.4,267.3,649.7)" />
<use xlink:href="#f1_2e" transform="matrix(10.4,0,0,10.4,276.1,649.7)" />
<use xlink:href="#f1_1x" transform="matrix(10.4,0,0,10.4,281.4,649.7)" />
<use xlink:href="#f1_2g" transform="matrix(10.4,0,0,10.4,290.2,649.7)" />
<use xlink:href="#f1_25" transform="matrix(10.4,0,0,10.4,294.6,649.7)" />
<use xlink:href="#f1_2b" transform="matrix(10.4,0,0,10.4,298.1,649.7)" />
<use xlink:href="#f1_2a" transform="matrix(10.4,0,0,10.4,306.9,649.7)" />
<use xlink:href="#f1_2b" transform="matrix(10.4,0,0,10.4,324,649.7)" />
<use xlink:href="#f1_22" transform="matrix(10.4,0,0,10.4,332.8,649.7)" />
<use xlink:href="#f1_1x" transform="matrix(10.4,0,0,10.4,345.8,649.7)" />
<use xlink:href="#f1_28" transform="matrix(10.4,0,0,10.4,354.6,649.7)" />
<use xlink:href="#f1_1z" transform="matrix(10.4,0,0,10.4,358.1,649.7)" />
<use xlink:href="#f1_2b" transform="matrix(10.4,0,0,10.4,366.1,649.7)" />
<use xlink:href="#f1_24" transform="matrix(10.4,0,0,10.4,374.9,649.7)" />
<use xlink:href="#f1_2b" transform="matrix(10.4,0,0,10.4,383.7,649.7)" />
<use xlink:href="#f1_28" transform="matrix(10.4,0,0,10.4,392.5,649.7)" />
<use xlink:href="#f1_2f" transform="matrix(10.4,0,0,10.4,396,649.7)" />
<use xlink:href="#f1_1x" transform="matrix(10.4,0,0,10.4,412.3,649.7)" />
<use xlink:href="#f1_2g" transform="matrix(10.4,0,0,10.4,421.1,649.7)" />
<use xlink:href="#f1_o" transform="matrix(10.4,0,0,10.4,434,649.7)" />
<use xlink:href="#f1_o" transform="matrix(10.4,0,0,10.4,442.8,649.7)" />
<use xlink:href="#f1_n" transform="matrix(10.4,0,0,10.4,451.6,649.7)" />
<use xlink:href="#f1_1b" transform="matrix(10.4,0,0,10.4,460.3,649.7)" />
<use xlink:href="#f1_i" transform="matrix(10.4,0,0,10.4,471,649.7)" />
<use xlink:href="#f1_c" transform="matrix(10.4,0,0,10.4,75.7,679.8)" />
<use xlink:href="#f1_25" transform="matrix(10.4,0,0,10.4,81.2,679.8)" />
<use xlink:href="#f1_25" transform="matrix(10.4,0,0,10.4,84.9,679.8)" />
<use xlink:href="#f1_25" transform="matrix(10.4,0,0,10.4,88.6,679.8)" />
<use xlink:href="#f1_d" transform="matrix(10.4,0,0,10.4,92.2,679.8)" />
<use xlink:href="#f1_1n" transform="matrix(10.4,0,0,10.4,119,679.8)" />
<use xlink:href="#f1_25" transform="matrix(10.4,0,0,10.4,135,679.8)" />
<use xlink:href="#f1_28" transform="matrix(10.4,0,0,10.4,138.4,679.8)" />
<use xlink:href="#f1_28" transform="matrix(10.4,0,0,10.4,141.9,679.8)" />
<use xlink:href="#f1_25" transform="matrix(10.4,0,0,10.4,145.4,679.8)" />
<use xlink:href="#f1_1x" transform="matrix(10.4,0,0,10.4,148.9,679.8)" />
<use xlink:href="#f1_29" transform="matrix(10.4,0,0,10.4,157.7,679.8)" />
<use xlink:href="#f1_2f" transform="matrix(10.4,0,0,10.4,171.3,679.8)" />
<use xlink:href="#f1_2b" transform="matrix(10.4,0,0,10.4,179.3,679.8)" />
<use xlink:href="#f1_2a" transform="matrix(10.4,0,0,10.4,188.1,679.8)" />
<use xlink:href="#f1_2f" transform="matrix(10.4,0,0,10.4,204.3,679.8)" />
<use xlink:href="#f1_2l" transform="matrix(10.4,0,0,10.4,212.3,679.8)" />
<use xlink:href="#f1_2a" transform="matrix(10.4,0,0,10.4,219.8,679.8)" />
<use xlink:href="#f1_2g" transform="matrix(10.4,0,0,10.4,228.6,679.8)" />
<use xlink:href="#f1_24" transform="matrix(10.4,0,0,10.4,233,679.8)" />
<use xlink:href="#f1_21" transform="matrix(10.4,0,0,10.4,241.8,679.8)" />
<use xlink:href="#f1_2f" transform="matrix(10.4,0,0,10.4,250.6,679.8)" />
<use xlink:href="#f1_25" transform="matrix(10.4,0,0,10.4,258.7,679.8)" />
<use xlink:href="#f1_2f" transform="matrix(10.4,0,0,10.4,262.2,679.8)" />
<use xlink:href="#f1_c" transform="matrix(10.4,0,0,10.4,75.7,709.9)" />
<use xlink:href="#f1_25" transform="matrix(10.4,0,0,10.4,81.4,709.9)" />
<use xlink:href="#f1_2i" transform="matrix(10.4,0,0,10.4,85.1,709.9)" />
<use xlink:href="#f1_d" transform="matrix(10.4,0,0,10.4,93.3,709.9)" />
<use xlink:href="#f1_1i" transform="matrix(10.4,0,0,10.4,119,709.9)" />
<use xlink:href="#f1_21" transform="matrix(10.4,0,0,10.4,130.6,709.9)" />
<use xlink:href="#f1_25" transform="matrix(10.4,0,0,10.4,139.4,709.9)" />
<use xlink:href="#f1_29" transform="matrix(10.4,0,0,10.4,143,709.9)" />
<use xlink:href="#f1_21" transform="matrix(10.4,0,0,10.4,156.6,709.9)" />
<use xlink:href="#f1_2e" transform="matrix(10.4,0,0,10.4,165.4,709.9)" />
<use xlink:href="#f1_h" transform="matrix(10.4,0,0,10.4,170.7,709.9)" />
<use xlink:href="#f1_1k" transform="matrix(10.4,0,0,10.4,176.2,709.9)" />
<use xlink:href="#f1_25" transform="matrix(10.4,0,0,10.4,185.6,709.9)" />
<use xlink:href="#f1_21" transform="matrix(10.4,0,0,10.4,189,709.9)" />
<use xlink:href="#f1_29" transform="matrix(10.4,0,0,10.4,197.8,709.9)" />
<use xlink:href="#f1_1x" transform="matrix(10.4,0,0,10.4,211.4,709.9)" />
<use xlink:href="#f1_2a" transform="matrix(10.4,0,0,10.4,220.4,709.9)" />
<use xlink:href="#f1_2a" transform="matrix(10.4,0,0,10.4,229.2,709.9)" />
<use xlink:href="#f1_2e" transform="matrix(10.4,0,0,10.4,246.8,709.9)" />
<use xlink:href="#f1_21" transform="matrix(10.4,0,0,10.4,252.1,709.9)" />
<use xlink:href="#f1_1x" transform="matrix(10.4,0,0,10.4,261.1,709.9)" />
<use xlink:href="#f1_1z" transform="matrix(10.4,0,0,10.4,269.9,709.9)" />
<use xlink:href="#f1_2g" transform="matrix(10.4,0,0,10.4,277.9,709.9)" />
<use xlink:href="#f1_25" transform="matrix(10.4,0,0,10.4,282.3,709.9)" />
<use xlink:href="#f1_2b" transform="matrix(10.4,0,0,10.4,286,709.9)" />
<use xlink:href="#f1_2a" transform="matrix(10.4,0,0,10.4,294.8,709.9)" />
<use xlink:href="#f1_i" transform="matrix(10.4,0,0,10.4,303.6,709.9)" />
<use xlink:href="#f1_c" transform="matrix(10.4,0,0,10.4,75.7,739.9)" />
<use xlink:href="#f1_2i" transform="matrix(10.4,0,0,10.4,81.4,739.9)" />
<use xlink:href="#f1_d" transform="matrix(10.4,0,0,10.4,89.9,739.9)" />
<use xlink:href="#f1_1b" transform="matrix(10.4,0,0,10.4,119,739.9)" />
<use xlink:href="#f1_2b" transform="matrix(10.4,0,0,10.4,129.7,739.9)" />
<use xlink:href="#f1_28" transform="matrix(10.4,0,0,10.4,138.6,739.9)" />
<use xlink:href="#f1_1y" transform="matrix(10.4,0,0,10.4,142.1,739.9)" />
<use xlink:href="#f1_21" transform="matrix(10.4,0,0,10.4,150.9,739.9)" />
<use xlink:href="#f1_1k5" transform="matrix(10.4,0,0,10.4,159.7,739.9)" />
<use xlink:href="#f1_2f" transform="matrix(10.4,0,0,10.4,163.4,739.9)" />
<use xlink:href="#f1_2e" transform="matrix(10.4,0,0,10.4,180.2,739.9)" />
<use xlink:href="#f1_21" transform="matrix(10.4,0,0,10.4,185.6,739.9)" />
<use xlink:href="#f1_1x" transform="matrix(10.4,0,0,10.4,194.5,739.9)" />
<use xlink:href="#f1_1z" transform="matrix(10.4,0,0,10.4,203.3,739.9)" />
<use xlink:href="#f1_2g" transform="matrix(10.4,0,0,10.4,211.4,739.9)" />
<use xlink:href="#f1_25" transform="matrix(10.4,0,0,10.4,215.8,739.9)" />
<use xlink:href="#f1_2b" transform="matrix(10.4,0,0,10.4,219.5,739.9)" />
<use xlink:href="#f1_2a" transform="matrix(10.4,0,0,10.4,228.3,739.9)" />
<use xlink:href="#f1_c" transform="matrix(10.4,0,0,10.4,75.7,769.8)" />
<use xlink:href="#f1_2i" transform="matrix(10.4,0,0,10.4,81.4,769.8)" />
<use xlink:href="#f1_25" transform="matrix(10.4,0,0,10.4,89.5,769.8)" />
<use xlink:href="#f1_d" transform="matrix(10.4,0,0,10.4,93.3,769.8)" />
<use xlink:href="#f1_16" transform="matrix(10.4,0,0,10.4,119,769.8)" />
<use xlink:href="#f1_2e" transform="matrix(10.4,0,0,10.4,128.7,769.8)" />
<use xlink:href="#f1_25" transform="matrix(10.4,0,0,10.4,134,769.8)" />
<use xlink:href="#f1_21" transform="matrix(10.4,0,0,10.4,137.5,769.8)" />
<use xlink:href="#f1_20" transform="matrix(10.4,0,0,10.4,146.5,769.8)" />
<use xlink:href="#f1_21" transform="matrix(10.4,0,0,10.4,155.3,769.8)" />
<use xlink:href="#f1_28" transform="matrix(10.4,0,0,10.4,164.1,769.8)" />
<use xlink:href="#f1_h" transform="matrix(10.4,0,0,10.4,167.6,769.8)" />
<use xlink:href="#f1_13" transform="matrix(10.4,0,0,10.4,172.9,769.8)" />
<use xlink:href="#f1_2e" transform="matrix(10.4,0,0,10.4,184.5,769.8)" />
<use xlink:href="#f1_1x" transform="matrix(10.4,0,0,10.4,189.8,769.8)" />
<use xlink:href="#f1_22" transform="matrix(10.4,0,0,10.4,198.8,769.8)" />
<use xlink:href="#f1_2g" transform="matrix(10.4,0,0,10.4,203.2,769.8)" />
<use xlink:href="#f1_2f" transform="matrix(10.4,0,0,10.4,207.4,769.8)" />
<use xlink:href="#f1_1x" transform="matrix(10.4,0,0,10.4,224.2,769.8)" />
<use xlink:href="#f1_1z" transform="matrix(10.4,0,0,10.4,233,769.8)" />
<use xlink:href="#f1_2l" transform="matrix(10.4,0,0,10.4,241.1,769.8)" />
<use xlink:href="#f1_28" transform="matrix(10.4,0,0,10.4,248.8,769.8)" />
<use xlink:href="#f1_1x" transform="matrix(10.4,0,0,10.4,252.3,769.8)" />
<use xlink:href="#f1_2g" transform="matrix(10.4,0,0,10.4,261.1,769.8)" />
<use xlink:href="#f1_25" transform="matrix(10.4,0,0,10.4,265.5,769.8)" />
<use xlink:href="#f1_2b" transform="matrix(10.4,0,0,10.4,269,769.8)" />
<use xlink:href="#f1_2a" transform="matrix(10.4,0,0,10.4,277.8,769.8)" />
<use xlink:href="#f1_2b" transform="matrix(10.4,0,0,10.4,295.5,769.8)" />
<use xlink:href="#f1_22" transform="matrix(10.4,0,0,10.4,304.3,769.8)" />
<use xlink:href="#f1_11" transform="matrix(10.4,0,0,10.4,316.8,769.8)" />
<use xlink:href="#f1_2a" transform="matrix(10.4,0,0,10.4,327.5,769.8)" />
<use xlink:href="#f1_25" transform="matrix(10.4,0,0,10.4,336.2,769.8)" />
<use xlink:href="#f1_2f" transform="matrix(10.4,0,0,10.4,339.7,769.8)" />
<use xlink:href="#f1_2b" transform="matrix(10.4,0,0,10.4,348,769.8)" />
<use xlink:href="#f1_28" transform="matrix(10.4,0,0,10.4,356.8,769.8)" />
<use xlink:href="#f1_21" transform="matrix(10.4,0,0,10.4,360.3,769.8)" />
<use xlink:href="#f1_i" transform="matrix(10.4,0,0,10.4,369.1,769.8)" />
<use xlink:href="#f1_o" transform="matrix(10.4,0,0,10.4,32.5,799.9)" />
<use xlink:href="#f1_i" transform="matrix(10.4,0,0,10.4,41.8,799.9)" />
<use xlink:href="#f1_13" transform="matrix(10.4,0,0,10.4,75.7,799.9)" />
<use xlink:href="#f1_2b" transform="matrix(10.4,0,0,10.4,87.3,799.9)" />
<use xlink:href="#f1_29" transform="matrix(10.4,0,0,10.4,96.1,799.9)" />
<use xlink:href="#f1_2c" transform="matrix(10.4,0,0,10.4,109.7,799.9)" />
<use xlink:href="#f1_28" transform="matrix(10.4,0,0,10.4,118.5,799.9)" />
<use xlink:href="#f1_21" transform="matrix(10.4,0,0,10.4,121.9,799.9)" />
<use xlink:href="#f1_2g" transform="matrix(10.4,0,0,10.4,130.7,799.9)" />
<use xlink:href="#f1_21" transform="matrix(10.4,0,0,10.4,135.1,799.9)" />
<use xlink:href="#f1_2g" transform="matrix(10.4,0,0,10.4,151.8,799.9)" />
<use xlink:href="#f1_24" transform="matrix(10.4,0,0,10.4,156.2,799.9)" />
<use xlink:href="#f1_21" transform="matrix(10.4,0,0,10.4,165,799.9)" />
<use xlink:href="#f1_22" transform="matrix(10.4,0,0,10.4,181.7,799.9)" />
<use xlink:href="#f1_2b" transform="matrix(10.4,0,0,10.4,186.3,799.9)" />
<use xlink:href="#f1_28" transform="matrix(10.4,0,0,10.4,195.1,799.9)" />
<use xlink:href="#f1_28" transform="matrix(10.4,0,0,10.4,198.6,799.9)" />
<use xlink:href="#f1_2b" transform="matrix(10.4,0,0,10.4,202.1,799.9)" />
<use xlink:href="#f1_2j" transform="matrix(10.4,0,0,10.4,210.9,799.9)" />
<use xlink:href="#f1_25" transform="matrix(10.4,0,0,10.4,222,799.9)" />
<use xlink:href="#f1_2a" transform="matrix(10.4,0,0,10.4,225.5,799.9)" />
<use xlink:href="#f1_23" transform="matrix(10.4,0,0,10.4,234.3,799.9)" />
<use xlink:href="#f1_2e" transform="matrix(10.4,0,0,10.4,251,799.9)" />
<use xlink:href="#f1_21" transform="matrix(10.4,0,0,10.4,256.3,799.9)" />
<use xlink:href="#f1_1x" transform="matrix(10.4,0,0,10.4,265.1,799.9)" />
<use xlink:href="#f1_1z" transform="matrix(10.4,0,0,10.4,273.9,799.9)" />
<use xlink:href="#f1_2g" transform="matrix(10.4,0,0,10.4,282,799.9)" />
<use xlink:href="#f1_25" transform="matrix(10.4,0,0,10.4,286.4,799.9)" />
<use xlink:href="#f1_2b" transform="matrix(10.4,0,0,10.4,289.9,799.9)" />
<use xlink:href="#f1_2a" transform="matrix(10.4,0,0,10.4,298.7,799.9)" />
<use xlink:href="#f1_2f" transform="matrix(10.4,0,0,10.4,307.5,799.9)" />
<use xlink:href="#f1_u" transform="matrix(10.4,0,0,10.4,323.4,799.9)" />
</g>
<image preserveAspectRatio="none" x="76" y="829" width="266" height="29" xlink:href="img/1.png" />
<image preserveAspectRatio="none" x="76" y="857" width="266" height="29" xlink:href="img/2.png" />
<image preserveAspectRatio="none" x="76" y="886" width="266" height="28" xlink:href="img/3.png" />
<image preserveAspectRatio="none" x="77" y="87" width="149" height="47" xlink:href="img/4.png" />
<image preserveAspectRatio="none" x="77" y="134" width="149" height="46" xlink:href="img/5.png" />
<image preserveAspectRatio="none" x="77" y="180" width="149" height="46" xlink:href="img/6.png" />
<image preserveAspectRatio="none" x="77" y="226" width="149" height="47" xlink:href="img/7.png" />
<image preserveAspectRatio="none" x="77" y="272" width="149" height="46" xlink:href="img/8.png" />
<g fill="#000000" >
<use xlink:href="#f2_m" transform="matrix(12,0,0,12,656.3,1049.3)" />
</g>
<g fill="#0080FF" fill-opacity="0.5" >
<use xlink:href="#f0_1c" transform="matrix(38.3,0,0,38.3,183.7,1050)" />
<use xlink:href="#f0_21" transform="matrix(38.3,0,0,38.3,216.2,1050)" />
<use xlink:href="#f0_1x" transform="matrix(38.3,0,0,38.3,248.7,1050)" />
<use xlink:href="#f0_2e" transform="matrix(38.3,0,0,38.3,281.2,1050)" />
<use xlink:href="#f0_2a" transform="matrix(38.3,0,0,38.3,300.7,1050)" />
<use xlink:href="#f0_17" transform="matrix(38.3,0,0,38.3,333.3,1050)" />
<use xlink:href="#f0_2h" transform="matrix(38.3,0,0,38.3,378.8,1050)" />
<use xlink:href="#f0_25" transform="matrix(38.3,0,0,38.3,411.3,1050)" />
<use xlink:href="#f0_20" transform="matrix(38.3,0,0,38.3,424.3,1050)" />
<use xlink:href="#f0_21" transform="matrix(38.3,0,0,38.3,456.8,1050)" />
<use xlink:href="#f0_i" transform="matrix(38.3,0,0,38.3,489.3,1050)" />
<use xlink:href="#f0_25" transform="matrix(38.3,0,0,38.3,505.6,1050)" />
<use xlink:href="#f0_2a" transform="matrix(38.3,0,0,38.3,518.6,1050)" />
</g>
<defs>
<path d="M593,101c0,0,182,0,279,112c0,0,98,113,98,318c0,0,0,196,-98,308c0,0,-98,112,-277,112c0,0,-181,0,-279,-110c0,0,-99,-111,-99,-310c0,0,0,-198,100,-314c0,0,99,-116,276,-116Zm0,-115c0,0,-162,0,-279,65c0,0,-118,66,-180,190c0,0,-62,124,-62,290c0,0,0,252,138,394c0,0,138,142,385,142c0,0,160,0,278,-64c0,0,118,-64,180,-185c0,0,62,-122,62,-287c0,0,0,-165,-63,-289c0,0,-63,-124,-181,-190c0,0,-118,-66,-278,-66Z" 
id="f0_1f"
transform="scale(0.001,-0.001)" />

<path d="M106,0V635c0,0,0,141,-5,173H228c0,0,1,-4,2,-21c0,0,1,-16,2,-37c0,0,1,-22,2,-81h2c0,0,47,84,108,119c0,0,60,34,151,34c0,0,132,0,194,-66c0,0,61,-66,61,-218V0H615V512c0,0,0,80,-15,124c0,0,-16,44,-50,63c0,0,-35,20,-101,20c0,0,-97,0,-153,-67c0,0,-56,-66,-56,-184V0Z" 
id="f0_2a"
transform="scale(0.001,-0.001)" />

<path d="M103,0V1107H237V0Z" 
id="f0_28"
transform="scale(0.001,-0.001)" />

<path d="M102,0V808H236V0Zm0,979v128H236V979Z" 
id="f0_25"
transform="scale(0.001,-0.001)" />

<path d="M643,478c0,0,-11,128,-65,187c0,0,-54,59,-154,59c0,0,-98,0,-155,-66c0,0,-57,-65,-62,-180ZM431,-14c0,0,-179,0,-272,106c0,0,-94,107,-94,317c0,0,0,200,94,307c0,0,93,106,267,106c0,0,356,0,356,-429V375H206c0,0,0,-138,57,-213c0,0,58,-75,168,-75c0,0,87,0,140,35c0,0,53,35,71,88L760,177c0,0,-72,-191,-329,-191Z" 
id="f0_21"
transform="scale(0.001,-0.001)" />

<path d="M17,0L304,415L31,808H179L380,493L580,808H730L457,417L747,0H598L380,331L162,0Z" 
id="f0_2k"
transform="scale(0.001,-0.001)" />

<path d="M339,87c0,0,74,0,132,34c0,0,57,33,90,91c0,0,34,59,34,121v66L448,396c0,0,-95,-2,-144,-19c0,0,-49,-18,-75,-55c0,0,-26,-38,-26,-98c0,0,0,-65,35,-101c0,0,36,-36,101,-36ZM309,-14c0,0,-122,0,-183,64c0,0,-61,64,-61,176c0,0,0,125,82,192c0,0,83,67,266,72l182,3v44c0,0,0,98,-42,141c0,0,-42,43,-132,43c0,0,-90,0,-131,-31c0,0,-41,-31,-49,-98L101,604c0,0,34,218,323,218c0,0,153,0,229,-70c0,0,77,-69,77,-202V202c0,0,0,-59,16,-90c0,0,16,-30,60,-30c0,0,19,0,44,5V4C850,4,799,-7,746,-7c0,0,-75,0,-109,38c0,0,-33,40,-38,124h-4C595,155,543,62,475,24c0,0,-68,-38,-166,-38Z" 
id="f0_1x"
transform="scale(0.001,-0.001)" />

<path d="M106,0V635c0,0,0,141,-5,173H228c0,0,1,-4,2,-21c0,0,1,-16,2,-37c0,0,1,-22,2,-81h2c0,0,44,86,100,120c0,0,56,33,136,33c0,0,92,0,145,-36c0,0,54,-37,75,-117h2c0,0,42,82,101,117c0,0,59,36,143,36c0,0,123,0,178,-66c0,0,56,-67,56,-218V0H1039V512c0,0,0,117,-32,162c0,0,-32,45,-116,45c0,0,-88,0,-136,-66c0,0,-49,-65,-49,-185V0H573V512c0,0,0,117,-32,162c0,0,-32,45,-116,45c0,0,-86,0,-136,-66c0,0,-50,-66,-50,-185V0Z" 
id="f0_29"
transform="scale(0.001,-0.001)" />

<path d="M453,84c0,0,100,0,146,74c0,0,46,73,46,247c0,0,0,169,-46,241c0,0,-45,73,-145,73c0,0,-80,0,-125,-34c0,0,-45,-34,-68,-105c0,0,-24,-71,-24,-186c0,0,0,-159,51,-234c0,0,51,-76,165,-76ZM103,-316V643c0,0,0,124,-5,165H228c0,0,1,-3,3,-22c0,0,1,-18,3,-56c0,0,2,-38,2,-52h3c0,0,36,75,94,110c0,0,59,34,156,34c0,0,149,0,223,-100c0,0,74,-100,74,-314c0,0,0,-422,-297,-422c0,0,-187,0,-251,140h-4c0,0,3,-6,3,-126V-316Z" 
id="f0_2c"
transform="scale(0.001,-0.001)" />

<path d="M420,84c0,0,121,0,173,78c0,0,52,77,52,243c0,0,0,167,-50,243c0,0,-50,76,-167,76c0,0,-118,0,-170,-78c0,0,-53,-77,-53,-241c0,0,0,-160,52,-241c0,0,52,-80,163,-80Zm1,-98c0,0,-176,0,-267,107c0,0,-90,108,-90,312c0,0,0,417,362,417c0,0,185,0,272,-102c0,0,88,-101,88,-315c0,0,0,-212,-94,-316C692,89,599,-14,421,-14Z" 
id="f0_2b"
transform="scale(0.001,-0.001)" />

<path d="M278,-11c0,0,-162,0,-162,182V710H23v98h99l39,181h90V808H400V710H251V200c0,0,0,-58,19,-82c0,0,19,-23,66,-23c0,0,27,0,77,10V6c0,0,-66,-17,-135,-17Z" 
id="f0_2g"
transform="scale(0.001,-0.001)" />

<path d="M370,-316c0,0,-141,152,-208,323C162,7,95,179,95,394v3c0,0,0,215,67,387c0,0,68,171,208,323H500c0,0,-140,-155,-205,-330c0,0,-65,-175,-65,-382c0,0,0,-207,64,-381c0,0,65,-172,206,-330Z" 
id="f1_c"
transform="scale(0.001,-0.001)" />

<path d="M102,0V808H236V0Zm0,979v128H236V979Z" 
id="f1_25"
transform="scale(0.001,-0.001)" />

<path d="M17,0L304,415L31,808H179L380,493L580,808H730L457,417L747,0H598L380,331L162,0Z" 
id="f1_2k"
transform="scale(0.001,-0.001)" />

<path d="M9,-316c0,0,140,157,205,329c0,0,65,174,65,382c0,0,0,208,-65,382c0,0,-66,174,-205,330H139c0,0,141,-152,208,-324c0,0,67,-172,67,-386v-3c0,0,0,-216,-67,-388c0,0,-68,-170,-208,-322Z" 
id="f1_d"
transform="scale(0.001,-0.001)" />

<path d="M590,-14c0,0,-159,0,-275,65c0,0,-116,66,-177,189c0,0,-60,123,-60,291c0,0,0,251,135,393c0,0,136,143,376,143c0,0,168,0,281,-66c0,0,112,-66,165,-195L900,762c0,0,-36,92,-117,141c0,0,-81,48,-192,48c0,0,-175,0,-272,-112c0,0,-97,-112,-97,-308c0,0,0,-193,101,-311c0,0,101,-117,274,-117c0,0,221,0,332,218l116,-58c0,0,-65,-136,-182,-207c0,0,-118,-70,-273,-70Z" 
id="f1_13"
transform="scale(0.001,-0.001)" />

<path d="M439,94c0,0,97,0,152,65c0,0,55,65,55,179c0,0,0,114,-56,176c0,0,-56,62,-156,62c0,0,-94,0,-152,-55c0,0,-57,-55,-57,-151c0,0,0,-121,60,-199c0,0,60,-77,154,-77Zm4,-108c0,0,-177,0,-271,131c0,0,-94,132,-94,384c0,0,0,273,97,420c0,0,98,146,279,146c0,0,238,0,299,-214L625,830c0,0,-39,128,-173,128c0,0,-115,0,-178,-107c0,0,-63,-107,-63,-310c0,0,37,68,103,103c0,0,66,36,152,36c0,0,146,0,231,-91c0,0,86,-91,86,-245c0,0,0,-166,-91,-262c0,0,-90,-96,-249,-96Z" 
id="f1_q"
transform="scale(0.001,-0.001)" />

<path d="M125,0V1051H268V606H836v445H979V0H836V487H268V0Z" 
id="f1_18"
transform="scale(0.001,-0.001)" />

<path d="M413,-14c0,0,-147,0,-238,64c0,0,-90,64,-114,185l136,16c0,0,42,-155,219,-155c0,0,108,0,169,65c0,0,61,65,61,179c0,0,0,98,-62,159c0,0,-61,61,-165,61c0,0,-55,0,-102,-17c0,0,-47,-17,-94,-58H92l35,566H724V937H249L229,604c0,0,87,67,217,67c0,0,155,0,247,-91c0,0,93,-91,93,-237c0,0,0,-167,-99,-262c0,0,-99,-95,-274,-95Z" 
id="f1_p"
transform="scale(0.001,-0.001)" />

<path d="M593,101c0,0,182,0,279,112c0,0,98,113,98,318c0,0,0,196,-98,308c0,0,-98,112,-277,112c0,0,-181,0,-279,-110c0,0,-99,-111,-99,-310c0,0,0,-198,100,-314c0,0,99,-116,276,-116Zm0,-115c0,0,-162,0,-279,65c0,0,-118,66,-180,190c0,0,-62,124,-62,290c0,0,0,252,138,394c0,0,138,142,385,142c0,0,160,0,278,-64c0,0,118,-64,180,-185c0,0,62,-122,62,-287c0,0,0,-165,-63,-289c0,0,-63,-124,-181,-190c0,0,-118,-66,-278,-66Z" 
id="f1_1f"
transform="scale(0.001,-0.001)" />

<path d="M426,-14c0,0,-160,0,-255,71c0,0,-95,72,-113,213l139,13c0,0,27,-187,229,-187c0,0,101,0,159,50c0,0,58,50,58,149c0,0,0,86,-66,134c0,0,-66,48,-191,48H310V594h73c0,0,111,0,172,48c0,0,60,48,60,133c0,0,0,84,-49,132c0,0,-50,49,-147,49c0,0,-89,0,-144,-45c0,0,-55,-46,-64,-129L76,793c0,0,15,129,107,201c0,0,92,73,237,73c0,0,158,0,246,-74c0,0,87,-73,87,-204c0,0,0,-101,-56,-164c0,0,-56,-63,-164,-85v-3c0,0,118,-13,184,-79c0,0,66,-67,66,-167c0,0,0,-146,-93,-226c0,0,-92,-79,-264,-79Z" 
id="f1_n"
transform="scale(0.001,-0.001)" />

<path d="M272,0c0,0,0,201,86,424c0,0,85,223,285,513H78v114H773V942C773,942,612,696,545,556c0,0,-66,-139,-99,-275C446,281,413,145,413,0Z" 
id="f1_r"
transform="scale(0.001,-0.001)" />

<path d="M77,0V95c0,0,38,87,93,154c0,0,55,67,115,121c0,0,60,54,120,100c0,0,59,46,107,93c0,0,47,46,77,97c0,0,29,50,29,114c0,0,0,87,-50,135c0,0,-51,47,-141,47c0,0,-86,0,-142,-46c0,0,-55,-47,-65,-131L83,791c0,0,15,126,107,201c0,0,92,75,237,75c0,0,159,0,244,-75c0,0,85,-75,85,-213c0,0,0,-61,-28,-122c0,0,-28,-60,-83,-120c0,0,-55,-61,-211,-188c0,0,-86,-70,-136,-126c0,0,-51,-56,-73,-109H773V0Z" 
id="f1_m"
transform="scale(0.001,-0.001)" />

<path d="M103,0V1107H237V0Z" 
id="f1_28"
transform="scale(0.001,-0.001)" />

<path d="M140,0V163H285V0Z" 
id="f1_i"
transform="scale(0.001,-0.001)" />

<path d="M316,0L7,1051H155L344,383c0,0,33,-125,62,-258c0,0,18,82,41,179c0,0,24,97,207,747H791L974,397c0,0,41,-160,65,-272l7,26c0,0,20,86,33,140c0,0,12,54,209,760h149L1127,0H957L775,668c0,0,-18,62,-52,224c0,0,-20,-86,-33,-145C690,747,677,689,486,0Z" 
id="f1_1n"
transform="scale(0.001,-0.001)" />

<path d="M106,0V620c0,0,0,85,-5,188H228c0,0,6,-138,6,-165h3c0,0,32,103,74,141c0,0,42,38,118,38c0,0,27,0,54,-7V692c0,0,-26,7,-71,7c0,0,-84,0,-128,-72c0,0,-44,-72,-44,-206V0Z" 
id="f1_2e"
transform="scale(0.001,-0.001)" />

<path d="M278,-11c0,0,-162,0,-162,182V710H23v98h99l39,181h90V808H400V710H251V200c0,0,0,-58,19,-82c0,0,19,-23,66,-23c0,0,27,0,77,10V6c0,0,-66,-17,-135,-17Z" 
id="f1_2g"
transform="scale(0.001,-0.001)" />

<path d="M643,478c0,0,-11,128,-65,187c0,0,-54,59,-154,59c0,0,-98,0,-155,-66c0,0,-57,-65,-62,-180ZM431,-14c0,0,-179,0,-272,106c0,0,-94,107,-94,317c0,0,0,200,94,307c0,0,93,106,267,106c0,0,356,0,356,-429V375H206c0,0,0,-138,57,-213c0,0,58,-75,168,-75c0,0,87,0,140,35c0,0,53,35,71,88L760,177c0,0,-72,-191,-329,-191Z" 
id="f1_21"
transform="scale(0.001,-0.001)" />

<path d="M615,0V512c0,0,0,85,-15,126c0,0,-16,42,-52,61c0,0,-36,20,-99,20c0,0,-95,0,-152,-66c0,0,-57,-66,-57,-177V0H106V1107H240V819c0,0,0,-45,-2,-94c0,0,-3,-48,-4,-56h2c0,0,44,79,105,116c0,0,60,37,154,37c0,0,131,0,193,-65c0,0,62,-65,62,-219V0Z" 
id="f1_24"
transform="scale(0.001,-0.001)" />

<path d="M381,-14c0,0,-150,0,-232,49C149,35,67,85,43,190l118,23c0,0,17,-65,71,-96c0,0,54,-30,149,-30c0,0,102,0,150,31c0,0,47,32,47,95c0,0,0,47,-33,77c0,0,-33,30,-106,49l-96,26c0,0,-115,30,-164,58c0,0,-49,29,-77,70c0,0,-27,41,-27,101c0,0,0,110,78,168c0,0,79,57,230,57c0,0,133,0,212,-47c0,0,79,-47,100,-150L574,607c0,0,-12,53,-60,82c0,0,-49,29,-131,29c0,0,-91,0,-135,-28c0,0,-43,-27,-43,-83c0,0,0,-34,18,-57c0,0,18,-22,53,-38c0,0,35,-15,148,-43c0,0,106,-27,153,-50c0,0,47,-22,75,-50c0,0,27,-27,42,-64c0,0,15,-36,15,-82c0,0,0,-114,-86,-176c0,0,-87,-61,-242,-61Z" 
id="f1_2f"
transform="scale(0.001,-0.001)" />

<path d="M355,-14c0,0,-133,0,-194,65c0,0,-62,66,-62,219V808H234V296c0,0,0,-80,16,-124c0,0,16,-44,50,-64c0,0,34,-19,101,-19c0,0,97,0,153,66c0,0,55,67,55,185V808H744V172c0,0,0,-141,4,-172H621c0,0,0,4,-1,20c0,0,-1,17,-2,38c0,0,-1,21,-3,80h-2C613,138,567,55,506,20c0,0,-61,-34,-151,-34Z" 
id="f1_2h"
transform="scale(0.001,-0.001)" />

<path d="M413,-14c0,0,-170,0,-259,106c0,0,-89,107,-89,313c0,0,0,203,89,310c0,0,90,107,257,107c0,0,124,0,206,-64c0,0,81,-64,102,-177L581,571c0,0,-10,67,-53,106c0,0,-42,40,-121,40c0,0,-106,0,-154,-71c0,0,-48,-71,-48,-239c0,0,0,-161,51,-238c0,0,51,-78,153,-78c0,0,71,0,120,39c0,0,48,39,59,119l136,-9C724,240,708,124,624,55c0,0,-83,-69,-211,-69Z" 
id="f1_1z"
transform="scale(0.001,-0.001)" />

<path d="M420,84c0,0,121,0,173,78c0,0,52,77,52,243c0,0,0,167,-50,243c0,0,-50,76,-167,76c0,0,-118,0,-170,-78c0,0,-53,-77,-53,-241c0,0,0,-160,52,-241c0,0,52,-80,163,-80Zm1,-98c0,0,-176,0,-267,107c0,0,-90,108,-90,312c0,0,0,417,362,417c0,0,185,0,272,-102c0,0,88,-101,88,-315c0,0,0,-212,-94,-316C692,89,599,-14,421,-14Z" 
id="f1_2b"
transform="scale(0.001,-0.001)" />

<path d="M135,0V710H22v98H135v91c0,0,0,110,49,158c0,0,48,49,148,49c0,0,56,0,95,-9V994c0,0,-34,6,-60,6c0,0,-51,0,-75,-26c0,0,-23,-26,-23,-94V808H427V710H269V0Z" 
id="f1_22"
transform="scale(0.001,-0.001)" />

<path d="M106,0V635c0,0,0,141,-5,173H228c0,0,1,-4,2,-21c0,0,1,-16,2,-37c0,0,1,-22,2,-81h2c0,0,44,86,100,120c0,0,56,33,136,33c0,0,92,0,145,-36c0,0,54,-37,75,-117h2c0,0,42,82,101,117c0,0,59,36,143,36c0,0,123,0,178,-66c0,0,56,-67,56,-218V0H1039V512c0,0,0,117,-32,162c0,0,-32,45,-116,45c0,0,-88,0,-136,-66c0,0,-49,-65,-49,-185V0H573V512c0,0,0,117,-32,162c0,0,-32,45,-116,45c0,0,-86,0,-136,-66c0,0,-50,-66,-50,-185V0Z" 
id="f1_29"
transform="scale(0.001,-0.001)" />

<path d="M453,84c0,0,100,0,146,74c0,0,46,73,46,247c0,0,0,169,-46,241c0,0,-45,73,-145,73c0,0,-80,0,-125,-34c0,0,-45,-34,-68,-105c0,0,-24,-71,-24,-186c0,0,0,-159,51,-234c0,0,51,-76,165,-76ZM103,-316V643c0,0,0,124,-5,165H228c0,0,1,-3,3,-22c0,0,1,-18,3,-56c0,0,2,-38,2,-52h3c0,0,36,75,94,110c0,0,59,34,156,34c0,0,149,0,223,-100c0,0,74,-100,74,-314c0,0,0,-422,-297,-422c0,0,-187,0,-251,140h-4c0,0,3,-6,3,-126V-316Z" 
id="f1_2c"
transform="scale(0.001,-0.001)" />

<path d="M106,0V635c0,0,0,141,-5,173H228c0,0,1,-4,2,-21c0,0,1,-16,2,-37c0,0,1,-22,2,-81h2c0,0,47,84,108,119c0,0,60,34,151,34c0,0,132,0,194,-66c0,0,61,-66,61,-218V0H615V512c0,0,0,80,-15,124c0,0,-16,44,-50,63c0,0,-35,20,-101,20c0,0,-97,0,-153,-67c0,0,-56,-66,-56,-184V0Z" 
id="f1_2a"
transform="scale(0.001,-0.001)" />

<path d="M395,89c0,0,115,0,166,79c0,0,51,79,51,246c0,0,0,160,-51,235c0,0,-51,75,-164,75c0,0,-102,0,-147,-75c0,0,-45,-75,-45,-244c0,0,0,-170,45,-243c0,0,45,-73,145,-73ZM361,-14c0,0,-153,0,-225,102c0,0,-72,103,-72,312c0,0,0,422,297,422c0,0,92,0,153,-33c0,0,61,-34,98,-107h2l-2,90v335H747V166c0,0,0,-126,4,-166H623c0,0,-2,12,-5,55c0,0,-3,44,-3,75h-3c0,0,-37,-78,-98,-111c0,0,-62,-33,-153,-33Z" 
id="f1_20"
transform="scale(0.001,-0.001)" />

<path d="M224,0L-1,808H131L267,259c0,0,5,-18,32,-147l13,55L480,808H624L765,253L800,112l23,103L976,808h131L876,0H720L579,571L552,697c0,0,-7,-33,-21,-96C531,601,517,537,379,0Z" 
id="f1_2j"
transform="scale(0.001,-0.001)" />

<path d="M339,87c0,0,74,0,132,34c0,0,57,33,90,91c0,0,34,59,34,121v66L448,396c0,0,-95,-2,-144,-19c0,0,-49,-18,-75,-55c0,0,-26,-38,-26,-98c0,0,0,-65,35,-101c0,0,36,-36,101,-36ZM309,-14c0,0,-122,0,-183,64c0,0,-61,64,-61,176c0,0,0,125,82,192c0,0,83,67,266,72l182,3v44c0,0,0,98,-42,141c0,0,-42,43,-132,43c0,0,-90,0,-131,-31c0,0,-41,-31,-49,-98L101,604c0,0,34,218,323,218c0,0,153,0,229,-70c0,0,77,-69,77,-202V202c0,0,0,-59,16,-90c0,0,16,-30,60,-30c0,0,19,0,44,5V4C850,4,799,-7,746,-7c0,0,-75,0,-109,38c0,0,-33,40,-38,124h-4C595,155,543,62,475,24c0,0,-68,-38,-166,-38Z" 
id="f1_1x"
transform="scale(0.001,-0.001)" />

<path d="M398,93c0,0,63,0,112,37c0,0,49,38,76,107c0,0,27,70,27,166c0,0,0,99,-27,170c0,0,-27,71,-75,109c0,0,-49,38,-111,38c0,0,-103,0,-150,-75c0,0,-47,-75,-47,-242c0,0,0,-165,44,-238c0,0,44,-72,151,-72Zm11,-409c0,0,-132,0,-211,52c0,0,-78,52,-100,147l135,20c0,0,13,-56,59,-87c0,0,46,-30,121,-30c0,0,200,0,200,234V150h-1C612,150,574,72,507,33C507,33,441,-5,352,-5c0,0,-148,0,-218,98c0,0,-70,98,-70,309c0,0,0,214,75,316c0,0,75,101,228,101c0,0,86,0,149,-39c0,0,63,-39,97,-111h2c0,0,0,22,3,78c0,0,3,55,6,61H751c0,0,-4,-41,-4,-167V23c0,0,0,-339,-338,-339Z" 
id="f1_23"
transform="scale(0.001,-0.001)" />

<path d="M298,0L5,808H148L326,282c0,0,10,-29,51,-176l27,87l29,88L616,808H759L457,0Z" 
id="f1_2i"
transform="scale(0.001,-0.001)" />

<path d="M453,84c0,0,101,0,146,75c0,0,46,75,46,244c0,0,0,169,-45,243c0,0,-45,73,-146,73c0,0,-113,0,-165,-78c0,0,-52,-78,-52,-246c0,0,0,-159,51,-235c0,0,51,-76,165,-76Zm36,-98c0,0,-92,0,-153,33c0,0,-61,33,-99,107h-1c0,0,0,-24,-3,-71c0,0,-3,-48,-5,-55H98c0,0,5,40,5,166v941H237V792c0,0,0,-49,-3,-114h3c0,0,38,77,99,111c0,0,62,33,153,33c0,0,153,0,225,-103c0,0,72,-103,72,-311c0,0,0,-422,-297,-422Z" 
id="f1_1y"
transform="scale(0.001,-0.001)" />

<path d="M140,0V154H285V0Zm0,653V808H285V653Z" 
id="f1_u"
transform="scale(0.001,-0.001)" />

<path d="M137,-195c0,0,70,102,70,195H142V163H287V38c0,0,0,-78,-14,-131c0,0,-14,-53,-44,-102Z" 
id="f1_g"
transform="scale(0.001,-0.001)" />

<path d="M68,346V465H441V346Z" 
id="f1_h"
transform="scale(0.001,-0.001)" />

<path d="M142,-316c0,0,-55,0,-92,8v101c0,0,28,-4,63,-4c0,0,125,0,198,184L324,4L4,808H147L317,362c0,0,4,-11,9,-25c0,0,5,-15,34,-98c0,0,28,-83,30,-92l52,147L619,808H761L451,0c0,0,-50,-128,-94,-191c0,0,-43,-63,-96,-94c0,0,-52,-31,-119,-31Z" 
id="f1_2l"
transform="scale(0.001,-0.001)" />

<path d="M116,0V114H384V923L147,754V881l248,170H519V114H775V0Z" 
id="f1_l"
transform="scale(0.001,-0.001)" />

<path d="M502,114c0,0,116,0,203,51c0,0,88,51,135,146c0,0,47,96,47,225c0,0,0,196,-107,298c0,0,-107,103,-310,103H268V114ZM125,0V1051H473c0,0,267,0,412,-134c0,0,145,-134,145,-381c0,0,0,-162,-63,-284C967,252,903,130,787,65C787,65,671,0,518,0Z" 
id="f1_14"
transform="scale(0.001,-0.001)" />

<path d="M103,0V1107H237V416L592,808H749L421,461L766,0H609L336,369L237,287V0Z" 
id="f1_27"
transform="scale(0.001,-0.001)" />

<path d="M708,418L573,765c0,0,-21,52,-42,117l-20,62l-7,-21c0,0,-18,-62,-55,-159L315,418ZM3,0L432,1051H594L1016,0H871L750,307H272L151,0Z" 
id="f1_11"
transform="scale(0.001,-0.001)" />

<path d="M530,344V900c0,0,-1,-5,-20,-40c0,0,-20,-35,-30,-49L211,414L171,359L159,344ZM530,0V239H35V343l481,708H657V344H805V239H657V0Z" 
id="f1_o"
transform="scale(0.001,-0.001)" />

<path d="M125,0V1051H268V524l506,527H942L495,595L1002,0H825L405,507L268,403V0Z" 
id="f1_1b"
transform="scale(0.001,-0.001)" />

<path d="M612,550c0,0,112,0,174,52c0,0,61,52,61,147c0,0,0,92,-62,140c0,0,-62,48,-179,48H268V550ZM125,0V1051H620c0,0,177,0,274,-79c0,0,97,-80,97,-221c0,0,0,-117,-69,-197c0,0,-68,-80,-188,-100L1032,0H868L595,437H268V0Z" 
id="f1_1i"
transform="scale(0.001,-0.001)" />

<path d="M395,0V936H34v115H898V936H537V0Z" 
id="f1_1k"
transform="scale(0.001,-0.001)" />

<path d="M95,710c0,0,70,102,70,194H99v147H245V943c0,0,0,-79,-14,-132c0,0,-15,-53,-45,-101Z" 
id="f1_1k5"
transform="scale(0.001,-0.001)" />

<path d="M125,0V1051H872V936H268V544H854V425H268V0Z" 
id="f1_16"
transform="scale(0.001,-0.001)" />

<path d="M46,0c0,0,-2,48,16,93c0,0,27,74,88,146c0,0,61,71,176,165c0,0,178,146,241,232c0,0,63,85,63,161c0,0,0,80,-57,135c0,0,-58,55,-149,55c0,0,-98,0,-156,-59c0,0,-58,-58,-59,-160L71,782c0,0,15,154,107,235c0,0,93,81,249,81c0,0,157,0,249,-87c0,0,92,-88,92,-217c0,0,0,-65,-27,-129c0,0,-27,-63,-89,-133c0,0,-62,-70,-207,-193C445,339,324,238,290,202c0,0,-35,-36,-57,-73H770V0Z" 
id="f2_m"
transform="scale(0.001,-0.001)" />

<path d="M125,0V1051H268V115H799V0Z" 
id="f0_1c"
transform="scale(0.001,-0.001)" />

<path d="M106,0V620c0,0,0,85,-5,188H228c0,0,6,-138,6,-165h3c0,0,32,103,74,141c0,0,42,38,118,38c0,0,27,0,54,-7V692c0,0,-26,7,-71,7c0,0,-84,0,-128,-72c0,0,-44,-72,-44,-206V0Z" 
id="f0_2e"
transform="scale(0.001,-0.001)" />

<path d="M606,-14c0,0,-164,0,-284,65c0,0,-119,66,-182,189c0,0,-63,123,-63,291c0,0,0,255,137,396c0,0,137,140,386,140c0,0,174,0,283,-59c0,0,109,-59,168,-189L915,779c0,0,-44,90,-123,131c0,0,-79,41,-196,41c0,0,-182,0,-278,-110c0,0,-96,-110,-96,-310c0,0,0,-200,102,-315c0,0,102,-115,282,-115c0,0,103,0,193,31c0,0,89,31,144,85V407H629V526h445V164c0,0,-83,-85,-205,-132c0,0,-121,-46,-263,-46Z" 
id="f0_17"
transform="scale(0.001,-0.001)" />

<path d="M355,-14c0,0,-133,0,-194,65c0,0,-62,66,-62,219V808H234V296c0,0,0,-80,16,-124c0,0,16,-44,50,-64c0,0,34,-19,101,-19c0,0,97,0,153,66c0,0,55,67,55,185V808H744V172c0,0,0,-141,4,-172H621c0,0,0,4,-1,20c0,0,-1,17,-2,38c0,0,-1,21,-3,80h-2C613,138,567,55,506,20c0,0,-61,-34,-151,-34Z" 
id="f0_2h"
transform="scale(0.001,-0.001)" />

<path d="M395,89c0,0,115,0,166,79c0,0,51,79,51,246c0,0,0,160,-51,235c0,0,-51,75,-164,75c0,0,-102,0,-147,-75c0,0,-45,-75,-45,-244c0,0,0,-170,45,-243c0,0,45,-73,145,-73ZM361,-14c0,0,-153,0,-225,102c0,0,-72,103,-72,312c0,0,0,422,297,422c0,0,92,0,153,-33c0,0,61,-34,98,-107h2l-2,90v335H747V166c0,0,0,-126,4,-166H623c0,0,-2,12,-5,55c0,0,-3,44,-3,75h-3c0,0,-37,-78,-98,-111c0,0,-62,-33,-153,-33Z" 
id="f0_20"
transform="scale(0.001,-0.001)" />

<path d="M140,0V163H285V0Z" 
id="f0_i"
transform="scale(0.001,-0.001)" />


</defs>
</svg>