<?xml version="1.0" encoding="UTF-8" standalone="no"?>
<!DOCTYPE svg PUBLIC "-//W3C//DTD SVG 1.1//EN"
"http://www.w3.org/Graphics/SVG/1.1/DTD/svg11.dtd">
<svg viewBox="0 0 734 1091" version="1.1" xmlns="http://www.w3.org/2000/svg" xmlns:xlink="http://www.w3.org/1999/xlink">
<defs>
</defs>
<g fill="#D4D4D4" fill-opacity="0.36" >
<use xlink:href="#f0_1f" transform="matrix(50.9,-50.9,50.9,50.9,123.1,814.1)" />
<use xlink:href="#f0_2a" transform="matrix(50.9,-50.9,50.9,50.9,183.6,753.6)" />
<use xlink:href="#f0_28" transform="matrix(50.9,-50.9,50.9,50.9,226.8,710.3)" />
<use xlink:href="#f0_25" transform="matrix(50.9,-50.9,50.9,50.9,244.1,693.1)" />
<use xlink:href="#f0_2a" transform="matrix(50.9,-50.9,50.9,50.9,261.4,675.8)" />
<use xlink:href="#f0_21" transform="matrix(50.9,-50.9,50.9,50.9,304.6,632.5)" />
<use xlink:href="#f0_2k" transform="matrix(50.9,-50.9,50.9,50.9,347.8,589.3)" />
<use xlink:href="#f0_1x" transform="matrix(50.9,-50.9,50.9,50.9,386.7,550.4)" />
<use xlink:href="#f0_29" transform="matrix(50.9,-50.9,50.9,50.9,430,507.2)" />
<use xlink:href="#f0_2c" transform="matrix(50.9,-50.9,50.9,50.9,494.8,442.4)" />
<use xlink:href="#f0_2b" transform="matrix(50.9,-50.9,50.9,50.9,538,399.1)" />
<use xlink:href="#f0_25" transform="matrix(50.9,-50.9,50.9,50.9,581.3,355.9)" />
<use xlink:href="#f0_2a" transform="matrix(50.9,-50.9,50.9,50.9,598.5,338.6)" />
<use xlink:href="#f0_2g" transform="matrix(50.9,-50.9,50.9,50.9,641.8,295.4)" />
</g>
<g fill="#000000" >
<use xlink:href="#f1_1r" transform="matrix(10.4,0,0,10.4,75.7,135.1)" />
<use xlink:href="#f2_11" transform="matrix(10.4,0,0,10.4,80.1,135.1)" />
<use xlink:href="#f2_2a" transform="matrix(10.4,0,0,10.4,91,135.1)" />
<use xlink:href="#f2_2f" transform="matrix(10.4,0,0,10.4,100.7,135.1)" />
<use xlink:href="#f2_i" transform="matrix(10.4,0,0,10.4,109.5,135.1)" />
<use xlink:href="#f2_u" transform="matrix(10.4,0,0,10.4,120.7,135.1)" />
<use xlink:href="#f1_c" transform="matrix(10.4,0,0,10.4,136.4,135.1)" />
<use xlink:href="#f1_11" transform="matrix(10.4,0,0,10.4,141.9,135.1)" />
<use xlink:href="#f1_d" transform="matrix(10.4,0,0,10.4,152.9,135.1)" />
</g>
<image preserveAspectRatio="none" x="175" y="97" width="144" height="33" xlink:href="img/1.png" />
<image preserveAspectRatio="none" x="175" y="129" width="144" height="33" xlink:href="img/2.png" />
<g fill="#000000" >
<use xlink:href="#f1_c" transform="matrix(10.4,0,0,10.4,136.4,185.4)" />
<use xlink:href="#f1_12" transform="matrix(10.4,0,0,10.4,141.9,185.4)" />
<use xlink:href="#f1_d" transform="matrix(10.4,0,0,10.4,152.9,185.4)" />
<use xlink:href="#f1_13" transform="matrix(10.4,0,0,10.4,175.3,185.4)" />
<use xlink:href="#f1_18" transform="matrix(10.4,0,0,10.4,186.5,185.4)" />
<use xlink:href="#f1_n" transform="matrix(7.4,0,0,7.4,197.7,190.7)" />
<use xlink:href="#f1_13" transform="matrix(10.4,0,0,10.4,203.7,185.4)" />
<use xlink:href="#f1_18" transform="matrix(10.4,0,0,10.4,214.9,185.4)" />
<use xlink:href="#f1_m" transform="matrix(7.4,0,0,7.4,226.1,190.7)" />
<use xlink:href="#f1_1f" transform="matrix(10.4,0,0,10.4,232.1,185.4)" />
<use xlink:href="#f1_18" transform="matrix(10.4,0,0,10.4,244,185.4)" />
<use xlink:href="#f1_c" transform="matrix(10.4,0,0,10.4,136.4,215.4)" />
<use xlink:href="#f1_13" transform="matrix(10.4,0,0,10.4,142.1,215.4)" />
<use xlink:href="#f1_d" transform="matrix(10.4,0,0,10.4,154,215.4)" />
<use xlink:href="#f1_13" transform="matrix(10.4,0,0,10.4,175.3,215.4)" />
<use xlink:href="#f1_18" transform="matrix(10.4,0,0,10.4,186.5,215.4)" />
<use xlink:href="#f1_n" transform="matrix(7.4,0,0,7.4,197.7,220.7)" />
<use xlink:href="#f1_13" transform="matrix(10.4,0,0,10.4,203.5,215.4)" />
<use xlink:href="#f1_18" transform="matrix(10.4,0,0,10.4,214.5,215.4)" />
<use xlink:href="#f1_1f" transform="matrix(10.4,0,0,10.4,225.7,215.4)" />
<use xlink:href="#f1_18" transform="matrix(10.4,0,0,10.4,237.6,215.4)" />
<use xlink:href="#f1_13" transform="matrix(10.4,0,0,10.4,248.8,215.4)" />
<use xlink:href="#f1_18" transform="matrix(10.4,0,0,10.4,259.8,215.4)" />
<use xlink:href="#f1_n" transform="matrix(7.4,0,0,7.4,271,220.7)" />
<use xlink:href="#f1_c" transform="matrix(10.4,0,0,10.4,136.4,245.5)" />
<use xlink:href="#f1_14" transform="matrix(10.4,0,0,10.4,142.1,245.5)" />
<use xlink:href="#f1_d" transform="matrix(10.4,0,0,10.4,154,245.5)" />
<use xlink:href="#f1_13" transform="matrix(10.4,0,0,10.4,175.3,245.5)" />
<use xlink:href="#f1_18" transform="matrix(10.4,0,0,10.4,186.5,245.5)" />
<use xlink:href="#f1_n" transform="matrix(7.4,0,0,7.4,197.8,250.8)" />
<use xlink:href="#f1_13" transform="matrix(10.4,0,0,10.4,203.9,245.5)" />
<use xlink:href="#f1_1f" transform="matrix(10.4,0,0,10.4,215.1,245.5)" />
<use xlink:href="#f1_1f" transform="matrix(10.4,0,0,10.4,227.4,245.5)" />
<use xlink:href="#f1_18" transform="matrix(10.4,0,0,10.4,239.5,245.5)" />
<use xlink:href="#f1_c" transform="matrix(10.4,0,0,10.4,136.4,275.6)" />
<use xlink:href="#f1_15" transform="matrix(10.4,0,0,10.4,141.9,275.6)" />
<use xlink:href="#f1_d" transform="matrix(10.4,0,0,10.4,152.9,275.6)" />
<use xlink:href="#f1_13" transform="matrix(10.4,0,0,10.4,175.3,275.6)" />
<use xlink:href="#f1_18" transform="matrix(10.4,0,0,10.4,186.7,275.6)" />
<use xlink:href="#f1_n" transform="matrix(7.4,0,0,7.4,198,280.9)" />
<use xlink:href="#f1_13" transform="matrix(10.4,0,0,10.4,204.3,275.6)" />
<use xlink:href="#f1_1f" transform="matrix(10.4,0,0,10.4,215.6,275.6)" />
<use xlink:href="#f1_13" transform="matrix(10.4,0,0,10.4,227.7,275.6)" />
<use xlink:href="#f1_18" transform="matrix(10.4,0,0,10.4,239.1,275.6)" />
<use xlink:href="#f1_n" transform="matrix(7.4,0,0,7.4,250.5,280.9)" />
<use xlink:href="#f1_m" transform="matrix(10.4,0,0,10.4,32.5,305.4)" />
<use xlink:href="#f1_k" transform="matrix(10.4,0,0,10.4,41.6,305.4)" />
<use xlink:href="#f1_i" transform="matrix(10.4,0,0,10.4,51,305.4)" />
<use xlink:href="#f1_1g" transform="matrix(10.4,0,0,10.4,75.7,305.4)" />
<use xlink:href="#f1_24" transform="matrix(10.4,0,0,10.4,86.4,305.4)" />
<use xlink:href="#f1_21" transform="matrix(10.4,0,0,10.4,95.2,305.4)" />
<use xlink:href="#f1_2a" transform="matrix(10.4,0,0,10.4,104,305.4)" />
<use xlink:href="#f1_2b" transform="matrix(10.4,0,0,10.4,112.8,305.4)" />
<use xlink:href="#f1_28" transform="matrix(10.4,0,0,10.4,121.6,305.4)" />
<use xlink:href="#f1_g" transform="matrix(10.4,0,0,10.4,125.1,305.4)" />
<use xlink:href="#f1_13" transform="matrix(10.4,0,0,10.4,134.4,305.4)" />
<use xlink:href="#f1_q" transform="matrix(7.4,0,0,7.4,146,310.8)" />
<use xlink:href="#f1_18" transform="matrix(10.4,0,0,10.4,152.2,305.4)" />
<use xlink:href="#f1_p" transform="matrix(7.4,0,0,7.4,163.7,310.8)" />
<use xlink:href="#f1_1f" transform="matrix(10.4,0,0,10.4,170,305.4)" />
<use xlink:href="#f1_18" transform="matrix(10.4,0,0,10.4,182.4,305.4)" />
<use xlink:href="#f1_2j" transform="matrix(10.4,0,0,10.4,199.1,305.4)" />
<use xlink:href="#f1_24" transform="matrix(10.4,0,0,10.4,210.3,305.4)" />
<use xlink:href="#f1_21" transform="matrix(10.4,0,0,10.4,219.1,305.4)" />
<use xlink:href="#f1_2a" transform="matrix(10.4,0,0,10.4,227.9,305.4)" />
<use xlink:href="#f1_25" transform="matrix(10.4,0,0,10.4,241.8,305.4)" />
<use xlink:href="#f1_2g" transform="matrix(10.4,0,0,10.4,245.3,305.4)" />
<use xlink:href="#f1_22" transform="matrix(10.4,0,0,10.4,254.9,305.4)" />
<use xlink:href="#f1_25" transform="matrix(10.4,0,0,10.4,259.4,305.4)" />
<use xlink:href="#f1_2e" transform="matrix(10.4,0,0,10.4,262.9,305.4)" />
<use xlink:href="#f1_2f" transform="matrix(10.4,0,0,10.4,268.2,305.4)" />
<use xlink:href="#f1_2g" transform="matrix(10.4,0,0,10.4,276.3,305.4)" />
<use xlink:href="#f1_2e" transform="matrix(10.4,0,0,10.4,285.8,305.4)" />
<use xlink:href="#f1_21" transform="matrix(10.4,0,0,10.4,291.1,305.4)" />
<use xlink:href="#f1_1x" transform="matrix(10.4,0,0,10.4,299.9,305.4)" />
<use xlink:href="#f1_1z" transform="matrix(10.4,0,0,10.4,308.7,305.4)" />
<use xlink:href="#f1_2g" transform="matrix(10.4,0,0,10.4,316.8,305.4)" />
<use xlink:href="#f1_2f" transform="matrix(10.4,0,0,10.4,321.2,305.4)" />
<use xlink:href="#f1_2j" transform="matrix(10.4,0,0,10.4,334.2,305.4)" />
<use xlink:href="#f1_25" transform="matrix(10.4,0,0,10.4,345.4,305.4)" />
<use xlink:href="#f1_2g" transform="matrix(10.4,0,0,10.4,348.9,305.4)" />
<use xlink:href="#f1_24" transform="matrix(10.4,0,0,10.4,353.3,305.4)" />
<use xlink:href="#f1_1z" transform="matrix(10.4,0,0,10.4,367.2,305.4)" />
<use xlink:href="#f1_2b" transform="matrix(10.4,0,0,10.4,375.3,305.4)" />
<use xlink:href="#f1_2a" transform="matrix(10.4,0,0,10.4,384.1,305.4)" />
<use xlink:href="#f1_1z" transform="matrix(10.4,0,0,10.4,392.9,305.4)" />
<use xlink:href="#f1_21" transform="matrix(10.4,0,0,10.4,401,305.4)" />
<use xlink:href="#f1_2a" transform="matrix(10.4,0,0,10.4,409.8,305.4)" />
<use xlink:href="#f1_2g" transform="matrix(10.4,0,0,10.4,418.6,305.4)" />
<use xlink:href="#f1_2e" transform="matrix(10.4,0,0,10.4,423,305.4)" />
<use xlink:href="#f1_1x" transform="matrix(10.4,0,0,10.4,428.3,305.4)" />
<use xlink:href="#f1_2g" transform="matrix(10.4,0,0,10.4,437.1,305.4)" />
<use xlink:href="#f1_21" transform="matrix(10.4,0,0,10.4,441.5,305.4)" />
<use xlink:href="#f1_20" transform="matrix(10.4,0,0,10.4,450.3,305.4)" />
<use xlink:href="#f1_2f" transform="matrix(10.4,0,0,10.4,464.2,305.4)" />
<use xlink:href="#f1_2h" transform="matrix(10.4,0,0,10.4,472.3,305.4)" />
<use xlink:href="#f1_28" transform="matrix(10.4,0,0,10.4,481.1,305.4)" />
<use xlink:href="#f1_2c" transform="matrix(10.4,0,0,10.4,484.5,305.4)" />
<use xlink:href="#f1_24" transform="matrix(10.4,0,0,10.4,493.3,305.4)" />
<use xlink:href="#f1_2h" transform="matrix(10.4,0,0,10.4,502.1,305.4)" />
<use xlink:href="#f1_2e" transform="matrix(10.4,0,0,10.4,510.9,305.4)" />
<use xlink:href="#f1_25" transform="matrix(10.4,0,0,10.4,516.3,305.4)" />
<use xlink:href="#f1_1z" transform="matrix(10.4,0,0,10.4,519.7,305.4)" />
<use xlink:href="#f1_1x" transform="matrix(10.4,0,0,10.4,532.9,305.4)" />
<use xlink:href="#f1_1z" transform="matrix(10.4,0,0,10.4,541.7,305.4)" />
<use xlink:href="#f1_25" transform="matrix(10.4,0,0,10.4,549.8,305.4)" />
<use xlink:href="#f1_20" transform="matrix(10.4,0,0,10.4,553.3,305.4)" />
<use xlink:href="#f1_g" transform="matrix(10.4,0,0,10.4,562.1,305.4)" />
<use xlink:href="#f1_22" transform="matrix(10.4,0,0,10.4,571.6,305.4)" />
<use xlink:href="#f1_2b" transform="matrix(10.4,0,0,10.4,576.2,305.4)" />
<use xlink:href="#f1_2e" transform="matrix(10.4,0,0,10.4,585,305.4)" />
<use xlink:href="#f1_29" transform="matrix(10.4,0,0,10.4,590.3,305.4)" />
<use xlink:href="#f1_2f" transform="matrix(10.4,0,0,10.4,603.9,305.4)" />
<use xlink:href="#f1_1p" transform="matrix(10.4,0,0,10.4,75.7,326.5)" />
<use xlink:href="#f1_i" transform="matrix(10.4,0,0,10.4,84,326.5)" />
<use xlink:href="#f1_1p" transform="matrix(10.4,0,0,10.4,88.4,326.5)" />
<use xlink:href="#f1_25" transform="matrix(10.4,0,0,10.4,104.3,326.5)" />
<use xlink:href="#f1_2f" transform="matrix(10.4,0,0,10.4,107.8,326.5)" />
<use xlink:href="#f1_2e" transform="matrix(10.4,0,0,10.4,121.9,326.5)" />
<use xlink:href="#f1_21" transform="matrix(10.4,0,0,10.4,127.3,326.5)" />
<use xlink:href="#f1_1x" transform="matrix(10.4,0,0,10.4,136.1,326.5)" />
<use xlink:href="#f1_1z" transform="matrix(10.4,0,0,10.4,144.9,326.5)" />
<use xlink:href="#f1_2g" transform="matrix(10.4,0,0,10.4,152.9,326.5)" />
<use xlink:href="#f1_21" transform="matrix(10.4,0,0,10.4,157.3,326.5)" />
<use xlink:href="#f1_20" transform="matrix(10.4,0,0,10.4,166.1,326.5)" />
<use xlink:href="#f1_2j" transform="matrix(10.4,0,0,10.4,181,326.5)" />
<use xlink:href="#f1_25" transform="matrix(10.4,0,0,10.4,192.2,326.5)" />
<use xlink:href="#f1_2g" transform="matrix(10.4,0,0,10.4,195.6,326.5)" />
<use xlink:href="#f1_24" transform="matrix(10.4,0,0,10.4,200,326.5)" />
<use xlink:href="#f1_1z" transform="matrix(10.4,0,0,10.4,214.7,326.5)" />
<use xlink:href="#f1_2b" transform="matrix(10.4,0,0,10.4,222.8,326.5)" />
<use xlink:href="#f1_2a" transform="matrix(10.4,0,0,10.4,231.6,326.5)" />
<use xlink:href="#f1_1z" transform="matrix(10.4,0,0,10.4,240.4,326.5)" />
<use xlink:href="#f1_21" transform="matrix(10.4,0,0,10.4,248.4,326.5)" />
<use xlink:href="#f1_2a" transform="matrix(10.4,0,0,10.4,257.2,326.5)" />
<use xlink:href="#f1_2g" transform="matrix(10.4,0,0,10.4,266,326.5)" />
<use xlink:href="#f1_2e" transform="matrix(10.4,0,0,10.4,270.4,326.5)" />
<use xlink:href="#f1_1x" transform="matrix(10.4,0,0,10.4,275.7,326.5)" />
<use xlink:href="#f1_2g" transform="matrix(10.4,0,0,10.4,284.5,326.5)" />
<use xlink:href="#f1_21" transform="matrix(10.4,0,0,10.4,288.9,326.5)" />
<use xlink:href="#f1_20" transform="matrix(10.4,0,0,10.4,297.7,326.5)" />
<use xlink:href="#f1_2a" transform="matrix(10.4,0,0,10.4,312.6,326.5)" />
<use xlink:href="#f1_25" transform="matrix(10.4,0,0,10.4,321.4,326.5)" />
<use xlink:href="#f1_2g" transform="matrix(10.4,0,0,10.4,324.9,326.5)" />
<use xlink:href="#f1_2e" transform="matrix(10.4,0,0,10.4,329.3,326.5)" />
<use xlink:href="#f1_25" transform="matrix(10.4,0,0,10.4,334.6,326.5)" />
<use xlink:href="#f1_1z" transform="matrix(10.4,0,0,10.4,338.1,326.5)" />
<use xlink:href="#f1_1x" transform="matrix(10.4,0,0,10.4,352.2,326.5)" />
<use xlink:href="#f1_1z" transform="matrix(10.4,0,0,10.4,361,326.5)" />
<use xlink:href="#f1_25" transform="matrix(10.4,0,0,10.4,369.1,326.5)" />
<use xlink:href="#f1_20" transform="matrix(10.4,0,0,10.4,372.5,326.5)" />
<use xlink:href="#f1_2g" transform="matrix(10.4,0,0,10.4,387.4,326.5)" />
<use xlink:href="#f1_2b" transform="matrix(10.4,0,0,10.4,391.8,326.5)" />
<use xlink:href="#f1_22" transform="matrix(10.4,0,0,10.4,406.6,326.5)" />
<use xlink:href="#f1_2b" transform="matrix(10.4,0,0,10.4,411.2,326.5)" />
<use xlink:href="#f1_2e" transform="matrix(10.4,0,0,10.4,420,326.5)" />
<use xlink:href="#f1_29" transform="matrix(10.4,0,0,10.4,425.3,326.5)" />
<use xlink:href="#f1_1q" transform="matrix(10.4,0,0,10.4,444.9,326.5)" />
<use xlink:href="#f1_i" transform="matrix(10.4,0,0,10.4,454.7,326.5)" />
<use xlink:href="#f1_19" transform="matrix(10.4,0,0,10.4,465.1,326.5)" />
<use xlink:href="#f1_20" transform="matrix(10.4,0,0,10.4,469.5,326.5)" />
<use xlink:href="#f1_21" transform="matrix(10.4,0,0,10.4,478.3,326.5)" />
<use xlink:href="#f1_2a" transform="matrix(10.4,0,0,10.4,487.1,326.5)" />
<use xlink:href="#f1_2g" transform="matrix(10.4,0,0,10.4,495.9,326.5)" />
<use xlink:href="#f1_25" transform="matrix(10.4,0,0,10.4,500.3,326.5)" />
<use xlink:href="#f1_22" transform="matrix(10.4,0,0,10.4,503.8,326.5)" />
<use xlink:href="#f1_2l" transform="matrix(10.4,0,0,10.4,508.4,326.5)" />
<use xlink:href="#f1_1p" transform="matrix(10.4,0,0,10.4,521.4,326.5)" />
<use xlink:href="#f1_1x" transform="matrix(10.4,0,0,10.4,537.3,326.5)" />
<use xlink:href="#f1_2a" transform="matrix(10.4,0,0,10.4,546.1,326.5)" />
<use xlink:href="#f1_20" transform="matrix(10.4,0,0,10.4,554.9,326.5)" />
<use xlink:href="#f1_1q" transform="matrix(10.4,0,0,10.4,569.8,326.5)" />
<use xlink:href="#f1_1x" transform="matrix(10.4,0,0,10.4,585.5,326.5)" />
<use xlink:href="#f1_2a" transform="matrix(10.4,0,0,10.4,594.3,326.5)" />
<use xlink:href="#f1_20" transform="matrix(10.4,0,0,10.4,603.1,326.5)" />
<use xlink:href="#f1_21" transform="matrix(10.4,0,0,10.4,75.7,347.4)" />
<use xlink:href="#f1_2k" transform="matrix(10.4,0,0,10.4,84.5,347.4)" />
<use xlink:href="#f1_2c" transform="matrix(10.4,0,0,10.4,92.4,347.4)" />
<use xlink:href="#f1_28" transform="matrix(10.4,0,0,10.4,101.2,347.4)" />
<use xlink:href="#f1_1x" transform="matrix(10.4,0,0,10.4,104.7,347.4)" />
<use xlink:href="#f1_25" transform="matrix(10.4,0,0,10.4,113.5,347.4)" />
<use xlink:href="#f1_2a" transform="matrix(10.4,0,0,10.4,117,347.4)" />
<use xlink:href="#f1_2j" transform="matrix(10.4,0,0,10.4,132.8,347.4)" />
<use xlink:href="#f1_24" transform="matrix(10.4,0,0,10.4,143.9,347.4)" />
<use xlink:href="#f1_2l" transform="matrix(10.4,0,0,10.4,152.7,347.4)" />
<use xlink:href="#f1_2c" transform="matrix(10.4,0,0,10.4,167.2,347.4)" />
<use xlink:href="#f1_24" transform="matrix(10.4,0,0,10.4,176,347.4)" />
<use xlink:href="#f1_21" transform="matrix(10.4,0,0,10.4,184.8,347.4)" />
<use xlink:href="#f1_2a" transform="matrix(10.4,0,0,10.4,193.6,347.4)" />
<use xlink:href="#f1_2b" transform="matrix(10.4,0,0,10.4,202.4,347.4)" />
<use xlink:href="#f1_28" transform="matrix(10.4,0,0,10.4,211.2,347.4)" />
<use xlink:href="#f1_25" transform="matrix(10.4,0,0,10.4,221.7,347.4)" />
<use xlink:href="#f1_2f" transform="matrix(10.4,0,0,10.4,225.2,347.4)" />
<use xlink:href="#f1_2a" transform="matrix(10.4,0,0,10.4,240.2,347.4)" />
<use xlink:href="#f1_2b" transform="matrix(10.4,0,0,10.4,249,347.4)" />
<use xlink:href="#f1_2g" transform="matrix(10.4,0,0,10.4,257.8,347.4)" />
<use xlink:href="#f1_1z" transform="matrix(10.4,0,0,10.4,269.1,347.4)" />
<use xlink:href="#f1_2b" transform="matrix(10.4,0,0,10.4,277.2,347.4)" />
<use xlink:href="#f1_2a" transform="matrix(10.4,0,0,10.4,286,347.4)" />
<use xlink:href="#f1_2i" transform="matrix(10.4,0,0,10.4,294.8,347.4)" />
<use xlink:href="#f1_21" transform="matrix(10.4,0,0,10.4,302.7,347.4)" />
<use xlink:href="#f1_2e" transform="matrix(10.4,0,0,10.4,311.5,347.4)" />
<use xlink:href="#f1_2g" transform="matrix(10.4,0,0,10.4,316.8,347.4)" />
<use xlink:href="#f1_21" transform="matrix(10.4,0,0,10.4,321.2,347.4)" />
<use xlink:href="#f1_20" transform="matrix(10.4,0,0,10.4,330,347.4)" />
<use xlink:href="#f1_1z" transform="matrix(10.4,0,0,10.4,345.8,347.4)" />
<use xlink:href="#f1_2b" transform="matrix(10.4,0,0,10.4,353.8,347.4)" />
<use xlink:href="#f1_29" transform="matrix(10.4,0,0,10.4,362.6,347.4)" />
<use xlink:href="#f1_29" transform="matrix(10.4,0,0,10.4,376.2,347.4)" />
<use xlink:href="#f1_21" transform="matrix(10.4,0,0,10.4,389.8,347.4)" />
<use xlink:href="#f1_2e" transform="matrix(10.4,0,0,10.4,398.6,347.4)" />
<use xlink:href="#f1_1z" transform="matrix(10.4,0,0,10.4,403.9,347.4)" />
<use xlink:href="#f1_25" transform="matrix(10.4,0,0,10.4,411.9,347.4)" />
<use xlink:href="#f1_1x" transform="matrix(10.4,0,0,10.4,415.4,347.4)" />
<use xlink:href="#f1_28" transform="matrix(10.4,0,0,10.4,424.2,347.4)" />
<use xlink:href="#f1_28" transform="matrix(10.4,0,0,10.4,427.7,347.4)" />
<use xlink:href="#f1_2l" transform="matrix(10.4,0,0,10.4,431.2,347.4)" />
<use xlink:href="#f1_2g" transform="matrix(10.4,0,0,10.4,445.7,347.4)" />
<use xlink:href="#f1_2b" transform="matrix(10.4,0,0,10.4,450.1,347.4)" />
<use xlink:href="#f1_1q" transform="matrix(10.4,0,0,10.4,465.8,347.4)" />
<use xlink:href="#f1_1y" transform="matrix(10.4,0,0,10.4,482.5,347.4)" />
<use xlink:href="#f1_2l" transform="matrix(10.4,0,0,10.4,491.3,347.4)" />
<use xlink:href="#f1_2e" transform="matrix(10.4,0,0,10.4,505.8,347.4)" />
<use xlink:href="#f1_21" transform="matrix(10.4,0,0,10.4,511.1,347.4)" />
<use xlink:href="#f1_1x" transform="matrix(10.4,0,0,10.4,519.9,347.4)" />
<use xlink:href="#f1_1z" transform="matrix(10.4,0,0,10.4,528.7,347.4)" />
<use xlink:href="#f1_2g" transform="matrix(10.4,0,0,10.4,536.8,347.4)" />
<use xlink:href="#f1_25" transform="matrix(10.4,0,0,10.4,541.2,347.4)" />
<use xlink:href="#f1_2a" transform="matrix(10.4,0,0,10.4,544.7,347.4)" />
<use xlink:href="#f1_23" transform="matrix(10.4,0,0,10.4,553.5,347.4)" />
<use xlink:href="#f1_25" transform="matrix(10.4,0,0,10.4,569.2,347.4)" />
<use xlink:href="#f1_2g" transform="matrix(10.4,0,0,10.4,572.7,347.4)" />
<use xlink:href="#f1_2j" transform="matrix(10.4,0,0,10.4,584.1,347.4)" />
<use xlink:href="#f1_25" transform="matrix(10.4,0,0,10.4,595.3,347.4)" />
<use xlink:href="#f1_2g" transform="matrix(10.4,0,0,10.4,598.7,347.4)" />
<use xlink:href="#f1_24" transform="matrix(10.4,0,0,10.4,603.1,347.4)" />
<use xlink:href="#f1_1z" transform="matrix(10.4,0,0,10.4,75.7,368.3)" />
<use xlink:href="#f1_2b" transform="matrix(10.4,0,0,10.4,83.8,368.3)" />
<use xlink:href="#f1_2a" transform="matrix(10.4,0,0,10.4,92.6,368.3)" />
<use xlink:href="#f1_1z" transform="matrix(10.4,0,0,10.4,101.4,368.3)" />
<use xlink:href="#f1_i" transform="matrix(10.4,0,0,10.4,109.5,368.3)" />
<use xlink:href="#f1_18" transform="matrix(10.4,0,0,10.4,120.1,368.3)" />
<use xlink:href="#f1_1e" transform="matrix(10.4,0,0,10.4,131.7,368.3)" />
<use xlink:href="#f1_1f" transform="matrix(10.4,0,0,10.4,143.2,368.3)" />
<use xlink:href="#f1_n" transform="matrix(7.4,0,0,7.4,155.7,373.6)" />
<use xlink:href="#f1_i" transform="matrix(10.4,0,0,10.4,161.9,368.3)" />
<use xlink:href="#f1_1r" transform="matrix(10.4,0,0,10.4,75.7,398.4)" />
<use xlink:href="#f2_11" transform="matrix(10.4,0,0,10.4,80.1,398.4)" />
<use xlink:href="#f2_2a" transform="matrix(10.4,0,0,10.4,91,398.4)" />
<use xlink:href="#f2_2f" transform="matrix(10.4,0,0,10.4,100.7,398.4)" />
<use xlink:href="#f2_i" transform="matrix(10.4,0,0,10.4,109.5,398.4)" />
<use xlink:href="#f2_u" transform="matrix(10.4,0,0,10.4,120.7,398.4)" />
</g>
<image preserveAspectRatio="none" x="76" y="415" width="522" height="13" xlink:href="img/3.png" />
<image preserveAspectRatio="none" x="76" y="428" width="522" height="14" xlink:href="img/4.png" />
<image preserveAspectRatio="none" x="76" y="442" width="522" height="14" xlink:href="img/5.png" />
<image preserveAspectRatio="none" x="76" y="455" width="522" height="14" xlink:href="img/6.png" />
<image preserveAspectRatio="none" x="76" y="469" width="522" height="14" xlink:href="img/7.png" />
<image preserveAspectRatio="none" x="76" y="482" width="522" height="14" xlink:href="img/8.png" />
<image preserveAspectRatio="none" x="76" y="496" width="522" height="14" xlink:href="img/9.png" />
<image preserveAspectRatio="none" x="76" y="510" width="522" height="13" xlink:href="img/10.png" />
<image preserveAspectRatio="none" x="76" y="523" width="522" height="14" xlink:href="img/11.png" />
<g fill="#000000" >
<use xlink:href="#f1_1g" transform="matrix(10.4,0,0,10.4,75.7,559.7)" />
<use xlink:href="#f1_24" transform="matrix(10.4,0,0,10.4,86.4,559.7)" />
<use xlink:href="#f1_21" transform="matrix(10.4,0,0,10.4,95.2,559.7)" />
<use xlink:href="#f1_2a" transform="matrix(10.4,0,0,10.4,104,559.7)" />
<use xlink:href="#f1_2b" transform="matrix(10.4,0,0,10.4,112.8,559.7)" />
<use xlink:href="#f1_28" transform="matrix(10.4,0,0,10.4,121.6,559.7)" />
<use xlink:href="#f1_25" transform="matrix(10.4,0,0,10.4,131.5,559.7)" />
<use xlink:href="#f1_2f" transform="matrix(10.4,0,0,10.4,135,559.7)" />
<use xlink:href="#f1_2a" transform="matrix(10.4,0,0,10.4,149.6,559.7)" />
<use xlink:href="#f1_2b" transform="matrix(10.4,0,0,10.4,158.4,559.7)" />
<use xlink:href="#f1_2g" transform="matrix(10.4,0,0,10.4,167.2,559.7)" />
<use xlink:href="#f1_2e" transform="matrix(10.4,0,0,10.4,178,559.7)" />
<use xlink:href="#f1_21" transform="matrix(10.4,0,0,10.4,183.4,559.7)" />
<use xlink:href="#f1_1x" transform="matrix(10.4,0,0,10.4,192.2,559.7)" />
<use xlink:href="#f1_1z" transform="matrix(10.4,0,0,10.4,201,559.7)" />
<use xlink:href="#f1_2g" transform="matrix(10.4,0,0,10.4,209,559.7)" />
<use xlink:href="#f1_21" transform="matrix(10.4,0,0,10.4,213.4,559.7)" />
<use xlink:href="#f1_20" transform="matrix(10.4,0,0,10.4,222.2,559.7)" />
<use xlink:href="#f1_20" transform="matrix(10.4,0,0,10.4,237.4,559.7)" />
<use xlink:href="#f1_25" transform="matrix(10.4,0,0,10.4,246.2,559.7)" />
<use xlink:href="#f1_2e" transform="matrix(10.4,0,0,10.4,249.7,559.7)" />
<use xlink:href="#f1_21" transform="matrix(10.4,0,0,10.4,255,559.7)" />
<use xlink:href="#f1_1z" transform="matrix(10.4,0,0,10.4,263.8,559.7)" />
<use xlink:href="#f1_2g" transform="matrix(10.4,0,0,10.4,271.9,559.7)" />
<use xlink:href="#f1_28" transform="matrix(10.4,0,0,10.4,276.3,559.7)" />
<use xlink:href="#f1_2l" transform="matrix(10.4,0,0,10.4,279.8,559.7)" />
<use xlink:href="#f1_2j" transform="matrix(10.4,0,0,10.4,293.7,559.7)" />
<use xlink:href="#f1_25" transform="matrix(10.4,0,0,10.4,304.9,559.7)" />
<use xlink:href="#f1_2g" transform="matrix(10.4,0,0,10.4,308.4,559.7)" />
<use xlink:href="#f1_24" transform="matrix(10.4,0,0,10.4,312.8,559.7)" />
<use xlink:href="#f1_1z" transform="matrix(10.4,0,0,10.4,328.2,559.7)" />
<use xlink:href="#f1_2b" transform="matrix(10.4,0,0,10.4,336.2,559.7)" />
<use xlink:href="#f1_2a" transform="matrix(10.4,0,0,10.4,345,559.7)" />
<use xlink:href="#f1_1z" transform="matrix(10.4,0,0,10.4,353.8,559.7)" />
<use xlink:href="#f1_i" transform="matrix(10.4,0,0,10.4,361.9,559.7)" />
<use xlink:href="#f1_18" transform="matrix(10.4,0,0,10.4,372.7,559.7)" />
<use xlink:href="#f1_1e" transform="matrix(10.4,0,0,10.4,384.3,559.7)" />
<use xlink:href="#f1_1f" transform="matrix(10.4,0,0,10.4,395.8,559.7)" />
<use xlink:href="#f1_n" transform="matrix(7.4,0,0,7.4,408.3,565)" />
<use xlink:href="#f1_1y" transform="matrix(10.4,0,0,10.4,421.1,559.7)" />
<use xlink:href="#f1_21" transform="matrix(10.4,0,0,10.4,429.9,559.7)" />
<use xlink:href="#f1_1z" transform="matrix(10.4,0,0,10.4,438.7,559.7)" />
<use xlink:href="#f1_1x" transform="matrix(10.4,0,0,10.4,446.8,559.7)" />
<use xlink:href="#f1_2h" transform="matrix(10.4,0,0,10.4,455.6,559.7)" />
<use xlink:href="#f1_2f" transform="matrix(10.4,0,0,10.4,464.4,559.7)" />
<use xlink:href="#f1_21" transform="matrix(10.4,0,0,10.4,472.5,559.7)" />
<use xlink:href="#f1_2g" transform="matrix(10.4,0,0,10.4,487.7,559.7)" />
<use xlink:href="#f1_24" transform="matrix(10.4,0,0,10.4,492.1,559.7)" />
<use xlink:href="#f1_21" transform="matrix(10.4,0,0,10.4,500.9,559.7)" />
<use xlink:href="#f1_2l" transform="matrix(10.4,0,0,10.4,516.3,559.7)" />
<use xlink:href="#f1_25" transform="matrix(10.4,0,0,10.4,523.8,559.7)" />
<use xlink:href="#f1_21" transform="matrix(10.4,0,0,10.4,527.3,559.7)" />
<use xlink:href="#f1_28" transform="matrix(10.4,0,0,10.4,536.1,559.7)" />
<use xlink:href="#f1_20" transform="matrix(10.4,0,0,10.4,539.6,559.7)" />
<use xlink:href="#f1_2b" transform="matrix(10.4,0,0,10.4,554.8,559.7)" />
<use xlink:href="#f1_22" transform="matrix(10.4,0,0,10.4,563.6,559.7)" />
<use xlink:href="#f1_2c" transform="matrix(10.4,0,0,10.4,574.8,559.7)" />
<use xlink:href="#f1_25" transform="matrix(10.4,0,0,10.4,583.6,559.7)" />
<use xlink:href="#f1_1z" transform="matrix(10.4,0,0,10.4,587,559.7)" />
<use xlink:href="#f1_2e" transform="matrix(10.4,0,0,10.4,595.1,559.7)" />
<use xlink:href="#f1_25" transform="matrix(10.4,0,0,10.4,600.4,559.7)" />
<use xlink:href="#f1_1z" transform="matrix(10.4,0,0,10.4,603.9,559.7)" />
<use xlink:href="#f1_1x" transform="matrix(10.4,0,0,10.4,75.7,580.6)" />
<use xlink:href="#f1_1z" transform="matrix(10.4,0,0,10.4,84.5,580.6)" />
<use xlink:href="#f1_25" transform="matrix(10.4,0,0,10.4,92.6,580.6)" />
<use xlink:href="#f1_20" transform="matrix(10.4,0,0,10.4,96.1,580.6)" />
<use xlink:href="#f1_25" transform="matrix(10.4,0,0,10.4,113,580.6)" />
<use xlink:href="#f1_2f" transform="matrix(10.4,0,0,10.4,116.4,580.6)" />
<use xlink:href="#f1_2i" transform="matrix(10.4,0,0,10.4,132.8,580.6)" />
<use xlink:href="#f1_21" transform="matrix(10.4,0,0,10.4,140.6,580.6)" />
<use xlink:href="#f1_2e" transform="matrix(10.4,0,0,10.4,149.4,580.6)" />
<use xlink:href="#f1_2l" transform="matrix(10.4,0,0,10.4,154.8,580.6)" />
<use xlink:href="#f1_2c" transform="matrix(10.4,0,0,10.4,170.3,580.6)" />
<use xlink:href="#f1_2b" transform="matrix(10.4,0,0,10.4,179.1,580.6)" />
<use xlink:href="#f1_2b" transform="matrix(10.4,0,0,10.4,187.9,580.6)" />
<use xlink:href="#f1_2e" transform="matrix(10.4,0,0,10.4,196.7,580.6)" />
<use xlink:href="#f1_1t" transform="matrix(10.4,0,0,10.4,202,580.6)" />
<use xlink:href="#f1_m" transform="matrix(10.4,0,0,10.4,32.5,610.7)" />
<use xlink:href="#f1_l" transform="matrix(10.4,0,0,10.4,41.6,610.7)" />
<use xlink:href="#f1_i" transform="matrix(10.4,0,0,10.4,51,610.7)" />
<use xlink:href="#f1_1j" transform="matrix(10.4,0,0,10.4,75.7,610.7)" />
<use xlink:href="#f1_2l" transform="matrix(10.4,0,0,10.4,86.4,610.7)" />
<use xlink:href="#f1_2a" transform="matrix(10.4,0,0,10.4,93.9,610.7)" />
<use xlink:href="#f1_2g" transform="matrix(10.4,0,0,10.4,102.7,610.7)" />
<use xlink:href="#f1_24" transform="matrix(10.4,0,0,10.4,107.1,610.7)" />
<use xlink:href="#f1_21" transform="matrix(10.4,0,0,10.4,115.9,610.7)" />
<use xlink:href="#f1_2f" transform="matrix(10.4,0,0,10.4,124.7,610.7)" />
<use xlink:href="#f1_25" transform="matrix(10.4,0,0,10.4,132.8,610.7)" />
<use xlink:href="#f1_2f" transform="matrix(10.4,0,0,10.4,136.2,610.7)" />
<use xlink:href="#f1_21" transform="matrix(10.4,0,0,10.4,144.3,610.7)" />
<use xlink:href="#f1_2g" transform="matrix(10.4,0,0,10.4,161.2,610.7)" />
<use xlink:href="#f1_24" transform="matrix(10.4,0,0,10.4,165.6,610.7)" />
<use xlink:href="#f1_21" transform="matrix(10.4,0,0,10.4,174.4,610.7)" />
<use xlink:href="#f1_22" transform="matrix(10.4,0,0,10.4,191.2,610.7)" />
<use xlink:href="#f1_2b" transform="matrix(10.4,0,0,10.4,195.8,610.7)" />
<use xlink:href="#f1_28" transform="matrix(10.4,0,0,10.4,204.6,610.7)" />
<use xlink:href="#f1_28" transform="matrix(10.4,0,0,10.4,208.1,610.7)" />
<use xlink:href="#f1_2b" transform="matrix(10.4,0,0,10.4,211.6,610.7)" />
<use xlink:href="#f1_2j" transform="matrix(10.4,0,0,10.4,220.4,610.7)" />
<use xlink:href="#f1_25" transform="matrix(10.4,0,0,10.4,231.6,610.7)" />
<use xlink:href="#f1_2a" transform="matrix(10.4,0,0,10.4,235.1,610.7)" />
<use xlink:href="#f1_23" transform="matrix(10.4,0,0,10.4,243.9,610.7)" />
<use xlink:href="#f1_1x" transform="matrix(10.4,0,0,10.4,260.7,610.7)" />
<use xlink:href="#f1_28" transform="matrix(10.4,0,0,10.4,269.5,610.7)" />
<use xlink:href="#f1_1z" transform="matrix(10.4,0,0,10.4,273,610.7)" />
<use xlink:href="#f1_2b" transform="matrix(10.4,0,0,10.4,281.1,610.7)" />
<use xlink:href="#f1_24" transform="matrix(10.4,0,0,10.4,289.9,610.7)" />
<use xlink:href="#f1_2b" transform="matrix(10.4,0,0,10.4,298.7,610.7)" />
<use xlink:href="#f1_28" transform="matrix(10.4,0,0,10.4,307.5,610.7)" />
<use xlink:href="#f1_2f" transform="matrix(10.4,0,0,10.4,310.9,610.7)" />
<use xlink:href="#f1_22" transform="matrix(10.4,0,0,10.4,327.1,610.7)" />
<use xlink:href="#f1_2e" transform="matrix(10.4,0,0,10.4,331.7,610.7)" />
<use xlink:href="#f1_2b" transform="matrix(10.4,0,0,10.4,337,610.7)" />
<use xlink:href="#f1_29" transform="matrix(10.4,0,0,10.4,345.8,610.7)" />
<use xlink:href="#f1_2f" transform="matrix(10.4,0,0,10.4,367.4,610.7)" />
<use xlink:href="#f1_2h" transform="matrix(10.4,0,0,10.4,375.5,610.7)" />
<use xlink:href="#f1_25" transform="matrix(10.4,0,0,10.4,384.3,610.7)" />
<use xlink:href="#f1_2g" transform="matrix(10.4,0,0,10.4,387.8,610.7)" />
<use xlink:href="#f1_1x" transform="matrix(10.4,0,0,10.4,392.2,610.7)" />
<use xlink:href="#f1_1y" transform="matrix(10.4,0,0,10.4,401,610.7)" />
<use xlink:href="#f1_28" transform="matrix(10.4,0,0,10.4,409.7,610.7)" />
<use xlink:href="#f1_21" transform="matrix(10.4,0,0,10.4,413.2,610.7)" />
<use xlink:href="#f1_1x" transform="matrix(10.4,0,0,10.4,430.1,610.7)" />
<use xlink:href="#f1_28" transform="matrix(10.4,0,0,10.4,438.9,610.7)" />
<use xlink:href="#f1_27" transform="matrix(10.4,0,0,10.4,442.4,610.7)" />
<use xlink:href="#f1_21" transform="matrix(10.4,0,0,10.4,450.4,610.7)" />
<use xlink:href="#f1_2a" transform="matrix(10.4,0,0,10.4,459.2,610.7)" />
<use xlink:href="#f1_21" transform="matrix(10.4,0,0,10.4,468,610.7)" />
<use xlink:href="#f1_2f" transform="matrix(10.4,0,0,10.4,476.8,610.7)" />
<use xlink:href="#f1_i" transform="matrix(10.4,0,0,10.4,484.9,610.7)" />
</g>
<image preserveAspectRatio="none" x="76" y="637" width="442" height="15" xlink:href="img/12.png" />
<image preserveAspectRatio="none" x="76" y="651" width="442" height="15" xlink:href="img/13.png" />
<image preserveAspectRatio="none" x="76" y="665" width="442" height="15" xlink:href="img/14.png" />
<image preserveAspectRatio="none" x="76" y="679" width="442" height="15" xlink:href="img/15.png" />
<image preserveAspectRatio="none" x="76" y="693" width="442" height="13" xlink:href="img/16.png" />
<g fill="#000000" >
<use xlink:href="#f1_m" transform="matrix(10.4,0,0,10.4,32.5,739.9)" />
<use xlink:href="#f1_m" transform="matrix(10.4,0,0,10.4,41.6,739.9)" />
<use xlink:href="#f1_i" transform="matrix(10.4,0,0,10.4,51,739.9)" />
<use xlink:href="#f1_18" transform="matrix(10.4,0,0,10.4,75.7,739.9)" />
<use xlink:href="#f1_2b" transform="matrix(10.4,0,0,10.4,87.3,739.9)" />
<use xlink:href="#f1_2j" transform="matrix(10.4,0,0,10.4,96.1,739.9)" />
<use xlink:href="#f1_1x" transform="matrix(10.4,0,0,10.4,115,739.9)" />
<use xlink:href="#f1_2e" transform="matrix(10.4,0,0,10.4,123.8,739.9)" />
<use xlink:href="#f1_21" transform="matrix(10.4,0,0,10.4,129.1,739.9)" />
<use xlink:href="#f1_2g" transform="matrix(10.4,0,0,10.4,145.8,739.9)" />
<use xlink:href="#f1_24" transform="matrix(10.4,0,0,10.4,150.2,739.9)" />
<use xlink:href="#f1_21" transform="matrix(10.4,0,0,10.4,159,739.9)" />
<use xlink:href="#f1_22" transform="matrix(10.4,0,0,10.4,175.5,739.9)" />
<use xlink:href="#f1_2b" transform="matrix(10.4,0,0,10.4,180.1,739.9)" />
<use xlink:href="#f1_28" transform="matrix(10.4,0,0,10.4,188.9,739.9)" />
<use xlink:href="#f1_28" transform="matrix(10.4,0,0,10.4,192.3,739.9)" />
<use xlink:href="#f1_2b" transform="matrix(10.4,0,0,10.4,195.8,739.9)" />
<use xlink:href="#f1_2j" transform="matrix(10.4,0,0,10.4,204.6,739.9)" />
<use xlink:href="#f1_25" transform="matrix(10.4,0,0,10.4,215.8,739.9)" />
<use xlink:href="#f1_2a" transform="matrix(10.4,0,0,10.4,219.3,739.9)" />
<use xlink:href="#f1_23" transform="matrix(10.4,0,0,10.4,228.1,739.9)" />
<use xlink:href="#f1_21" transform="matrix(10.4,0,0,10.4,244.8,739.9)" />
<use xlink:href="#f1_2g" transform="matrix(10.4,0,0,10.4,253.6,739.9)" />
<use xlink:href="#f1_24" transform="matrix(10.4,0,0,10.4,258,739.9)" />
<use xlink:href="#f1_21" transform="matrix(10.4,0,0,10.4,266.8,739.9)" />
<use xlink:href="#f1_2e" transform="matrix(10.4,0,0,10.4,275.6,739.9)" />
<use xlink:href="#f1_2f" transform="matrix(10.4,0,0,10.4,280.9,739.9)" />
<use xlink:href="#f1_2c" transform="matrix(10.4,0,0,10.4,296.6,739.9)" />
<use xlink:href="#f1_2e" transform="matrix(10.4,0,0,10.4,305.4,739.9)" />
<use xlink:href="#f1_21" transform="matrix(10.4,0,0,10.4,310.8,739.9)" />
<use xlink:href="#f1_2c" transform="matrix(10.4,0,0,10.4,319.6,739.9)" />
<use xlink:href="#f1_1x" transform="matrix(10.4,0,0,10.4,328.4,739.9)" />
<use xlink:href="#f1_2e" transform="matrix(10.4,0,0,10.4,337.2,739.9)" />
<use xlink:href="#f1_21" transform="matrix(10.4,0,0,10.4,342.5,739.9)" />
<use xlink:href="#f1_20" transform="matrix(10.4,0,0,10.4,351.3,739.9)" />
<use xlink:href="#f1_1y" transform="matrix(10.4,0,0,10.4,368,739.9)" />
<use xlink:href="#f1_2l" transform="matrix(10.4,0,0,10.4,376.8,739.9)" />
<use xlink:href="#f1_2j" transform="matrix(10.4,0,0,10.4,392,739.9)" />
<use xlink:href="#f1_25" transform="matrix(10.4,0,0,10.4,403.1,739.9)" />
<use xlink:href="#f1_28" transform="matrix(10.4,0,0,10.4,406.6,739.9)" />
<use xlink:href="#f1_28" transform="matrix(10.4,0,0,10.4,410.1,739.9)" />
<use xlink:href="#f1_25" transform="matrix(10.4,0,0,10.4,413.6,739.9)" />
<use xlink:href="#f1_2h" transform="matrix(10.4,0,0,10.4,417.1,739.9)" />
<use xlink:href="#f1_29" transform="matrix(10.4,0,0,10.4,425.9,739.9)" />
<use xlink:href="#f1_2f" transform="matrix(10.4,0,0,10.4,439.4,739.9)" />
<use xlink:href="#f1_2b" transform="matrix(10.4,0,0,10.4,447.5,739.9)" />
<use xlink:href="#f1_2a" transform="matrix(10.4,0,0,10.4,456.3,739.9)" />
<use xlink:href="#f1_2f" transform="matrix(10.4,0,0,10.4,473,739.9)" />
<use xlink:href="#f1_2l" transform="matrix(10.4,0,0,10.4,481.1,739.9)" />
<use xlink:href="#f1_2a" transform="matrix(10.4,0,0,10.4,488.6,739.9)" />
<use xlink:href="#f1_2g" transform="matrix(10.4,0,0,10.4,497.4,739.9)" />
<use xlink:href="#f1_24" transform="matrix(10.4,0,0,10.4,501.8,739.9)" />
<use xlink:href="#f1_21" transform="matrix(10.4,0,0,10.4,510.6,739.9)" />
<use xlink:href="#f1_2f" transform="matrix(10.4,0,0,10.4,519.4,739.9)" />
<use xlink:href="#f1_25" transform="matrix(10.4,0,0,10.4,527.4,739.9)" />
<use xlink:href="#f1_2f" transform="matrix(10.4,0,0,10.4,530.9,739.9)" />
<use xlink:href="#f1_z" transform="matrix(10.4,0,0,10.4,539,739.9)" />
<use xlink:href="#f1_c" transform="matrix(10.4,0,0,10.4,75.7,769.8)" />
<use xlink:href="#f1_1x" transform="matrix(10.4,0,0,10.4,81.6,769.8)" />
<use xlink:href="#f1_d" transform="matrix(10.4,0,0,10.4,91.1,769.8)" />
<use xlink:href="#f1_15" transform="matrix(10.4,0,0,10.4,119,769.8)" />
<use xlink:href="#f1_2g" transform="matrix(10.4,0,0,10.4,129.8,769.8)" />
<use xlink:href="#f1_24" transform="matrix(10.4,0,0,10.4,134.2,769.8)" />
<use xlink:href="#f1_2b" transform="matrix(10.4,0,0,10.4,143.2,769.8)" />
<use xlink:href="#f1_2k" transform="matrix(10.4,0,0,10.4,152.2,769.8)" />
<use xlink:href="#f1_2l" transform="matrix(10.4,0,0,10.4,160.1,769.8)" />
<use xlink:href="#f1_1y" transform="matrix(10.4,0,0,10.4,167.8,769.8)" />
<use xlink:href="#f1_21" transform="matrix(10.4,0,0,10.4,176.8,769.8)" />
<use xlink:href="#f1_2a" transform="matrix(10.4,0,0,10.4,185.6,769.8)" />
<use xlink:href="#f1_2m" transform="matrix(10.4,0,0,10.4,194.5,769.8)" />
<use xlink:href="#f1_21" transform="matrix(10.4,0,0,10.4,202.4,769.8)" />
<use xlink:href="#f1_2a" transform="matrix(10.4,0,0,10.4,211.2,769.8)" />
<use xlink:href="#f1_21" transform="matrix(10.4,0,0,10.4,220.2,769.8)" />
<use xlink:href="#f1_c" transform="matrix(10.4,0,0,10.4,313.9,769.8)" />
<use xlink:href="#f1_1y" transform="matrix(10.4,0,0,10.4,319.8,769.8)" />
<use xlink:href="#f1_d" transform="matrix(10.4,0,0,10.4,329.3,769.8)" />
<use xlink:href="#f1_m" transform="matrix(10.4,0,0,10.4,352,769.8)" />
<use xlink:href="#f1_1jz" transform="matrix(10.4,0,0,10.4,361,769.8)" />
<use xlink:href="#f1_29" transform="matrix(10.4,0,0,10.4,370,769.8)" />
<use xlink:href="#f1_21" transform="matrix(10.4,0,0,10.4,383.7,769.8)" />
<use xlink:href="#f1_2g" transform="matrix(10.4,0,0,10.4,392.7,769.8)" />
<use xlink:href="#f1_24" transform="matrix(10.4,0,0,10.4,397.3,769.8)" />
<use xlink:href="#f1_2b" transform="matrix(10.4,0,0,10.4,406.3,769.8)" />
<use xlink:href="#f1_2k" transform="matrix(10.4,0,0,10.4,415.5,769.8)" />
<use xlink:href="#f1_2l" transform="matrix(10.4,0,0,10.4,423.5,769.8)" />
<use xlink:href="#f1_1jz" transform="matrix(10.4,0,0,10.4,431.2,769.8)" />
<use xlink:href="#f1_m" transform="matrix(10.4,0,0,10.4,440.2,769.8)" />
<use xlink:href="#f1_1jz" transform="matrix(10.4,0,0,10.4,449.2,769.8)" />
<use xlink:href="#f1_29" transform="matrix(10.4,0,0,10.4,458.2,769.8)" />
<use xlink:href="#f1_21" transform="matrix(10.4,0,0,10.4,471.9,769.8)" />
<use xlink:href="#f1_2g" transform="matrix(10.4,0,0,10.4,480.9,769.8)" />
<use xlink:href="#f1_24" transform="matrix(10.4,0,0,10.4,485.5,769.8)" />
<use xlink:href="#f1_2l" transform="matrix(10.4,0,0,10.4,494.5,769.8)" />
<use xlink:href="#f1_28" transform="matrix(10.4,0,0,10.4,502.2,769.8)" />
<use xlink:href="#f1_2c" transform="matrix(10.4,0,0,10.4,505.8,769.8)" />
<use xlink:href="#f1_2e" transform="matrix(10.4,0,0,10.4,515,769.8)" />
<use xlink:href="#f1_2b" transform="matrix(10.4,0,0,10.4,520.5,769.8)" />
<use xlink:href="#f1_2c" transform="matrix(10.4,0,0,10.4,529.5,769.8)" />
<use xlink:href="#f1_1x" transform="matrix(10.4,0,0,10.4,538.4,769.8)" />
<use xlink:href="#f1_2a" transform="matrix(10.4,0,0,10.4,547.4,769.8)" />
<use xlink:href="#f1_21" transform="matrix(10.4,0,0,10.4,556.4,769.8)" />
<use xlink:href="#f3_t" transform="matrix(12,0,0,12,656.3,1049.3)" />
</g>
<g fill="#0080FF" fill-opacity="0.5" >
<use xlink:href="#f0_1c" transform="matrix(38.3,0,0,38.3,183.7,1050)" />
<use xlink:href="#f0_21" transform="matrix(38.3,0,0,38.3,216.2,1050)" />
<use xlink:href="#f0_1x" transform="matrix(38.3,0,0,38.3,248.7,1050)" />
<use xlink:href="#f0_2e" transform="matrix(38.3,0,0,38.3,281.2,1050)" />
<use xlink:href="#f0_2a" transform="matrix(38.3,0,0,38.3,300.7,1050)" />
<use xlink:href="#f0_17" transform="matrix(38.3,0,0,38.3,333.3,1050)" />
<use xlink:href="#f0_2h" transform="matrix(38.3,0,0,38.3,378.8,1050)" />
<use xlink:href="#f0_25" transform="matrix(38.3,0,0,38.3,411.3,1050)" />
<use xlink:href="#f0_20" transform="matrix(38.3,0,0,38.3,424.3,1050)" />
<use xlink:href="#f0_21" transform="matrix(38.3,0,0,38.3,456.8,1050)" />
<use xlink:href="#f0_i" transform="matrix(38.3,0,0,38.3,489.3,1050)" />
<use xlink:href="#f0_25" transform="matrix(38.3,0,0,38.3,505.6,1050)" />
<use xlink:href="#f0_2a" transform="matrix(38.3,0,0,38.3,518.6,1050)" />
</g>
<defs>
<path d="M593,101c0,0,182,0,279,112c0,0,98,113,98,318c0,0,0,196,-98,308c0,0,-98,112,-277,112c0,0,-181,0,-279,-110c0,0,-99,-111,-99,-310c0,0,0,-198,100,-314c0,0,99,-116,276,-116Zm0,-115c0,0,-162,0,-279,65c0,0,-118,66,-180,190c0,0,-62,124,-62,290c0,0,0,252,138,394c0,0,138,142,385,142c0,0,160,0,278,-64c0,0,118,-64,180,-185c0,0,62,-122,62,-287c0,0,0,-165,-63,-289c0,0,-63,-124,-181,-190c0,0,-118,-66,-278,-66Z" 
id="f0_1f"
transform="scale(0.001,-0.001)" />

<path d="M106,0V635c0,0,0,141,-5,173H228c0,0,1,-4,2,-21c0,0,1,-16,2,-37c0,0,1,-22,2,-81h2c0,0,47,84,108,119c0,0,60,34,151,34c0,0,132,0,194,-66c0,0,61,-66,61,-218V0H615V512c0,0,0,80,-15,124c0,0,-16,44,-50,63c0,0,-35,20,-101,20c0,0,-97,0,-153,-67c0,0,-56,-66,-56,-184V0Z" 
id="f0_2a"
transform="scale(0.001,-0.001)" />

<path d="M103,0V1107H237V0Z" 
id="f0_28"
transform="scale(0.001,-0.001)" />

<path d="M102,0V808H236V0Zm0,979v128H236V979Z" 
id="f0_25"
transform="scale(0.001,-0.001)" />

<path d="M643,478c0,0,-11,128,-65,187c0,0,-54,59,-154,59c0,0,-98,0,-155,-66c0,0,-57,-65,-62,-180ZM431,-14c0,0,-179,0,-272,106c0,0,-94,107,-94,317c0,0,0,200,94,307c0,0,93,106,267,106c0,0,356,0,356,-429V375H206c0,0,0,-138,57,-213c0,0,58,-75,168,-75c0,0,87,0,140,35c0,0,53,35,71,88L760,177c0,0,-72,-191,-329,-191Z" 
id="f0_21"
transform="scale(0.001,-0.001)" />

<path d="M17,0L304,415L31,808H179L380,493L580,808H730L457,417L747,0H598L380,331L162,0Z" 
id="f0_2k"
transform="scale(0.001,-0.001)" />

<path d="M339,87c0,0,74,0,132,34c0,0,57,33,90,91c0,0,34,59,34,121v66L448,396c0,0,-95,-2,-144,-19c0,0,-49,-18,-75,-55c0,0,-26,-38,-26,-98c0,0,0,-65,35,-101c0,0,36,-36,101,-36ZM309,-14c0,0,-122,0,-183,64c0,0,-61,64,-61,176c0,0,0,125,82,192c0,0,83,67,266,72l182,3v44c0,0,0,98,-42,141c0,0,-42,43,-132,43c0,0,-90,0,-131,-31c0,0,-41,-31,-49,-98L101,604c0,0,34,218,323,218c0,0,153,0,229,-70c0,0,77,-69,77,-202V202c0,0,0,-59,16,-90c0,0,16,-30,60,-30c0,0,19,0,44,5V4C850,4,799,-7,746,-7c0,0,-75,0,-109,38c0,0,-33,40,-38,124h-4C595,155,543,62,475,24c0,0,-68,-38,-166,-38Z" 
id="f0_1x"
transform="scale(0.001,-0.001)" />

<path d="M106,0V635c0,0,0,141,-5,173H228c0,0,1,-4,2,-21c0,0,1,-16,2,-37c0,0,1,-22,2,-81h2c0,0,44,86,100,120c0,0,56,33,136,33c0,0,92,0,145,-36c0,0,54,-37,75,-117h2c0,0,42,82,101,117c0,0,59,36,143,36c0,0,123,0,178,-66c0,0,56,-67,56,-218V0H1039V512c0,0,0,117,-32,162c0,0,-32,45,-116,45c0,0,-88,0,-136,-66c0,0,-49,-65,-49,-185V0H573V512c0,0,0,117,-32,162c0,0,-32,45,-116,45c0,0,-86,0,-136,-66c0,0,-50,-66,-50,-185V0Z" 
id="f0_29"
transform="scale(0.001,-0.001)" />

<path d="M453,84c0,0,100,0,146,74c0,0,46,73,46,247c0,0,0,169,-46,241c0,0,-45,73,-145,73c0,0,-80,0,-125,-34c0,0,-45,-34,-68,-105c0,0,-24,-71,-24,-186c0,0,0,-159,51,-234c0,0,51,-76,165,-76ZM103,-316V643c0,0,0,124,-5,165H228c0,0,1,-3,3,-22c0,0,1,-18,3,-56c0,0,2,-38,2,-52h3c0,0,36,75,94,110c0,0,59,34,156,34c0,0,149,0,223,-100c0,0,74,-100,74,-314c0,0,0,-422,-297,-422c0,0,-187,0,-251,140h-4c0,0,3,-6,3,-126V-316Z" 
id="f0_2c"
transform="scale(0.001,-0.001)" />

<path d="M420,84c0,0,121,0,173,78c0,0,52,77,52,243c0,0,0,167,-50,243c0,0,-50,76,-167,76c0,0,-118,0,-170,-78c0,0,-53,-77,-53,-241c0,0,0,-160,52,-241c0,0,52,-80,163,-80Zm1,-98c0,0,-176,0,-267,107c0,0,-90,108,-90,312c0,0,0,417,362,417c0,0,185,0,272,-102c0,0,88,-101,88,-315c0,0,0,-212,-94,-316C692,89,599,-14,421,-14Z" 
id="f0_2b"
transform="scale(0.001,-0.001)" />

<path d="M278,-11c0,0,-162,0,-162,182V710H23v98h99l39,181h90V808H400V710H251V200c0,0,0,-58,19,-82c0,0,19,-23,66,-23c0,0,27,0,77,10V6c0,0,-66,-17,-135,-17Z" 
id="f0_2g"
transform="scale(0.001,-0.001)" />

<path d="M109,-316V1107H413v-96H239V-220H413v-96Z" 
id="f1_1r"
transform="scale(0.001,-0.001)" />

<path d="M703,434L599,736L567,838l-16,51l-4,-16c0,0,-8,-27,-18,-61c0,0,-11,-35,-128,-378ZM38,0L421,1051H681L1063,0H845L752,269H351L258,0Z" 
id="f2_11"
transform="scale(0.001,-0.001)" />

<path d="M107,0V627c0,0,0,65,-2,106c0,0,-2,42,-4,75H301c0,0,2,-15,6,-77c0,0,3,-61,3,-85h3c0,0,43,93,107,135c0,0,64,41,153,41c0,0,128,0,197,-79c0,0,68,-79,68,-231V0H630V452c0,0,0,213,-144,213c0,0,-76,0,-123,-65c0,0,-47,-66,-47,-168V0Z" 
id="f2_2a"
transform="scale(0.001,-0.001)" />

<path d="M426,-14c0,0,-166,0,-255,52C171,38,83,90,54,201l184,28c0,0,16,-57,54,-81c0,0,38,-24,134,-24c0,0,88,0,128,22c0,0,41,23,41,70c0,0,0,39,-33,62c0,0,-32,23,-110,38c0,0,-177,35,-239,65c0,0,-62,31,-95,79c0,0,-32,48,-32,118c0,0,0,115,89,180c0,0,89,64,252,64c0,0,144,0,232,-56c0,0,88,-56,109,-162L583,585c0,0,-9,49,-44,74c0,0,-35,24,-112,24c0,0,-74,0,-111,-19c0,0,-38,-19,-38,-64c0,0,0,-35,29,-55c0,0,29,-21,97,-34c0,0,94,-20,168,-40c0,0,73,-21,118,-49c0,0,44,-28,71,-73c0,0,26,-44,26,-113c0,0,0,-117,-96,-184c0,0,-96,-66,-265,-66Z" 
id="f2_2f"
transform="scale(0.001,-0.001)" />

<path d="M104,0V228H319V0Z" 
id="f2_i"
transform="scale(0.001,-0.001)" />

<path d="M147,0V209H362V0Zm0,562V771H362V562Z" 
id="f2_u"
transform="scale(0.001,-0.001)" />

<path d="M370,-316c0,0,-141,152,-208,323C162,7,95,179,95,394v3c0,0,0,215,67,387c0,0,68,171,208,323H500c0,0,-140,-155,-205,-330c0,0,-65,-175,-65,-382c0,0,0,-207,64,-381c0,0,65,-172,206,-330Z" 
id="f1_c"
transform="scale(0.001,-0.001)" />

<path d="M708,418L573,765c0,0,-21,52,-42,117l-20,62l-7,-21c0,0,-18,-62,-55,-159L315,418ZM3,0L432,1051H594L1016,0H871L750,307H272L151,0Z" 
id="f1_11"
transform="scale(0.001,-0.001)" />

<path d="M9,-316c0,0,140,157,205,329c0,0,65,174,65,382c0,0,0,208,-65,382c0,0,-66,174,-205,330H139c0,0,141,-152,208,-324c0,0,67,-172,67,-386v-3c0,0,0,-216,-67,-388c0,0,-68,-170,-208,-322Z" 
id="f1_d"
transform="scale(0.001,-0.001)" />

<path d="M545,114c0,0,130,0,190,49c0,0,59,48,59,144c0,0,0,186,-261,186H268V114ZM507,604c0,0,114,0,171,43c0,0,56,43,56,132c0,0,0,85,-58,121c0,0,-58,37,-169,37H268V604ZM125,0V1051H507c0,0,370,0,370,-255c0,0,0,-93,-52,-157c0,0,-52,-63,-148,-85c0,0,126,-15,194,-84c0,0,67,-69,67,-174c0,0,0,-140,-102,-218C836,78,734,0,552,0Z" 
id="f1_12"
transform="scale(0.001,-0.001)" />

<path d="M590,-14c0,0,-159,0,-275,65c0,0,-116,66,-177,189c0,0,-60,123,-60,291c0,0,0,251,135,393c0,0,136,143,376,143c0,0,168,0,281,-66c0,0,112,-66,165,-195L900,762c0,0,-36,92,-117,141c0,0,-81,48,-192,48c0,0,-175,0,-272,-112c0,0,-97,-112,-97,-308c0,0,0,-193,101,-311c0,0,101,-117,274,-117c0,0,221,0,332,218l116,-58c0,0,-65,-136,-182,-207c0,0,-118,-70,-273,-70Z" 
id="f1_13"
transform="scale(0.001,-0.001)" />

<path d="M125,0V1051H268V606H836v445H979V0H836V487H268V0Z" 
id="f1_18"
transform="scale(0.001,-0.001)" />

<path d="M426,-14c0,0,-160,0,-255,71c0,0,-95,72,-113,213l139,13c0,0,27,-187,229,-187c0,0,101,0,159,50c0,0,58,50,58,149c0,0,0,86,-66,134c0,0,-66,48,-191,48H310V594h73c0,0,111,0,172,48c0,0,60,48,60,133c0,0,0,84,-49,132c0,0,-50,49,-147,49c0,0,-89,0,-144,-45c0,0,-55,-46,-64,-129L76,793c0,0,15,129,107,201c0,0,92,73,237,73c0,0,158,0,246,-74c0,0,87,-73,87,-204c0,0,0,-101,-56,-164c0,0,-56,-63,-164,-85v-3c0,0,118,-13,184,-79c0,0,66,-67,66,-167c0,0,0,-146,-93,-226c0,0,-92,-79,-264,-79Z" 
id="f1_n"
transform="scale(0.001,-0.001)" />

<path d="M77,0V95c0,0,38,87,93,154c0,0,55,67,115,121c0,0,60,54,120,100c0,0,59,46,107,93c0,0,47,46,77,97c0,0,29,50,29,114c0,0,0,87,-50,135c0,0,-51,47,-141,47c0,0,-86,0,-142,-46c0,0,-55,-47,-65,-131L83,791c0,0,15,126,107,201c0,0,92,75,237,75c0,0,159,0,244,-75c0,0,85,-75,85,-213c0,0,0,-61,-28,-122c0,0,-28,-60,-83,-120c0,0,-55,-61,-211,-188c0,0,-86,-70,-136,-126c0,0,-51,-56,-73,-109H773V0Z" 
id="f1_m"
transform="scale(0.001,-0.001)" />

<path d="M593,101c0,0,182,0,279,112c0,0,98,113,98,318c0,0,0,196,-98,308c0,0,-98,112,-277,112c0,0,-181,0,-279,-110c0,0,-99,-111,-99,-310c0,0,0,-198,100,-314c0,0,99,-116,276,-116Zm0,-115c0,0,-162,0,-279,65c0,0,-118,66,-180,190c0,0,-62,124,-62,290c0,0,0,252,138,394c0,0,138,142,385,142c0,0,160,0,278,-64c0,0,118,-64,180,-185c0,0,62,-122,62,-287c0,0,0,-165,-63,-289c0,0,-63,-124,-181,-190c0,0,-118,-66,-278,-66Z" 
id="f1_1f"
transform="scale(0.001,-0.001)" />

<path d="M502,114c0,0,116,0,203,51c0,0,88,51,135,146c0,0,47,96,47,225c0,0,0,196,-107,298c0,0,-107,103,-310,103H268V114ZM125,0V1051H473c0,0,267,0,412,-134c0,0,145,-134,145,-381c0,0,0,-162,-63,-284C967,252,903,130,787,65C787,65,671,0,518,0Z" 
id="f1_14"
transform="scale(0.001,-0.001)" />

<path d="M125,0V1051H923V936H268V597H878V482H268V115H953V0Z" 
id="f1_15"
transform="scale(0.001,-0.001)" />

<path d="M424,96c0,0,119,0,174,106c0,0,55,106,55,325c0,0,0,227,-52,329c0,0,-53,102,-174,102c0,0,-123,0,-177,-100c0,0,-55,-101,-55,-331c0,0,0,-224,55,-328c0,0,55,-103,174,-103ZM423,-14c0,0,-181,0,-272,137c0,0,-91,138,-91,403c0,0,0,271,88,406c0,0,88,135,279,135c0,0,186,0,275,-137c0,0,88,-136,88,-404c0,0,0,-263,-93,-402c0,0,-93,-138,-274,-138Z" 
id="f1_k"
transform="scale(0.001,-0.001)" />

<path d="M140,0V163H285V0Z" 
id="f1_i"
transform="scale(0.001,-0.001)" />

<path d="M557,522c0,0,238,0,238,211c0,0,0,204,-244,204H268V522ZM125,0V1051H568c0,0,176,0,273,-83c0,0,97,-82,97,-233c0,0,0,-149,-97,-237c0,0,-97,-88,-264,-88H268V0Z" 
id="f1_1g"
transform="scale(0.001,-0.001)" />

<path d="M615,0V512c0,0,0,85,-15,126c0,0,-16,42,-52,61c0,0,-36,20,-99,20c0,0,-95,0,-152,-66c0,0,-57,-66,-57,-177V0H106V1107H240V819c0,0,0,-45,-2,-94c0,0,-3,-48,-4,-56h2c0,0,44,79,105,116c0,0,60,37,154,37c0,0,131,0,193,-65c0,0,62,-65,62,-219V0Z" 
id="f1_24"
transform="scale(0.001,-0.001)" />

<path d="M643,478c0,0,-11,128,-65,187c0,0,-54,59,-154,59c0,0,-98,0,-155,-66c0,0,-57,-65,-62,-180ZM431,-14c0,0,-179,0,-272,106c0,0,-94,107,-94,317c0,0,0,200,94,307c0,0,93,106,267,106c0,0,356,0,356,-429V375H206c0,0,0,-138,57,-213c0,0,58,-75,168,-75c0,0,87,0,140,35c0,0,53,35,71,88L760,177c0,0,-72,-191,-329,-191Z" 
id="f1_21"
transform="scale(0.001,-0.001)" />

<path d="M106,0V635c0,0,0,141,-5,173H228c0,0,1,-4,2,-21c0,0,1,-16,2,-37c0,0,1,-22,2,-81h2c0,0,47,84,108,119c0,0,60,34,151,34c0,0,132,0,194,-66c0,0,61,-66,61,-218V0H615V512c0,0,0,80,-15,124c0,0,-16,44,-50,63c0,0,-35,20,-101,20c0,0,-97,0,-153,-67c0,0,-56,-66,-56,-184V0Z" 
id="f1_2a"
transform="scale(0.001,-0.001)" />

<path d="M420,84c0,0,121,0,173,78c0,0,52,77,52,243c0,0,0,167,-50,243c0,0,-50,76,-167,76c0,0,-118,0,-170,-78c0,0,-53,-77,-53,-241c0,0,0,-160,52,-241c0,0,52,-80,163,-80Zm1,-98c0,0,-176,0,-267,107c0,0,-90,108,-90,312c0,0,0,417,362,417c0,0,185,0,272,-102c0,0,88,-101,88,-315c0,0,0,-212,-94,-316C692,89,599,-14,421,-14Z" 
id="f1_2b"
transform="scale(0.001,-0.001)" />

<path d="M103,0V1107H237V0Z" 
id="f1_28"
transform="scale(0.001,-0.001)" />

<path d="M137,-195c0,0,70,102,70,195H142V163H287V38c0,0,0,-78,-14,-131c0,0,-14,-53,-44,-102Z" 
id="f1_g"
transform="scale(0.001,-0.001)" />

<path d="M439,94c0,0,97,0,152,65c0,0,55,65,55,179c0,0,0,114,-56,176c0,0,-56,62,-156,62c0,0,-94,0,-152,-55c0,0,-57,-55,-57,-151c0,0,0,-121,60,-199c0,0,60,-77,154,-77Zm4,-108c0,0,-177,0,-271,131c0,0,-94,132,-94,384c0,0,0,273,97,420c0,0,98,146,279,146c0,0,238,0,299,-214L625,830c0,0,-39,128,-173,128c0,0,-115,0,-178,-107c0,0,-63,-107,-63,-310c0,0,37,68,103,103c0,0,66,36,152,36c0,0,146,0,231,-91c0,0,86,-91,86,-245c0,0,0,-166,-91,-262c0,0,-90,-96,-249,-96Z" 
id="f1_q"
transform="scale(0.001,-0.001)" />

<path d="M413,-14c0,0,-147,0,-238,64c0,0,-90,64,-114,185l136,16c0,0,42,-155,219,-155c0,0,108,0,169,65c0,0,61,65,61,179c0,0,0,98,-62,159c0,0,-61,61,-165,61c0,0,-55,0,-102,-17c0,0,-47,-17,-94,-58H92l35,566H724V937H249L229,604c0,0,87,67,217,67c0,0,155,0,247,-91c0,0,93,-91,93,-237c0,0,0,-167,-99,-262c0,0,-99,-95,-274,-95Z" 
id="f1_p"
transform="scale(0.001,-0.001)" />

<path d="M224,0L-1,808H131L267,259c0,0,5,-18,32,-147l13,55L480,808H624L765,253L800,112l23,103L976,808h131L876,0H720L579,571L552,697c0,0,-7,-33,-21,-96C531,601,517,537,379,0Z" 
id="f1_2j"
transform="scale(0.001,-0.001)" />

<path d="M102,0V808H236V0Zm0,979v128H236V979Z" 
id="f1_25"
transform="scale(0.001,-0.001)" />

<path d="M278,-11c0,0,-162,0,-162,182V710H23v98h99l39,181h90V808H400V710H251V200c0,0,0,-58,19,-82c0,0,19,-23,66,-23c0,0,27,0,77,10V6c0,0,-66,-17,-135,-17Z" 
id="f1_2g"
transform="scale(0.001,-0.001)" />

<path d="M135,0V710H22v98H135v91c0,0,0,110,49,158c0,0,48,49,148,49c0,0,56,0,95,-9V994c0,0,-34,6,-60,6c0,0,-51,0,-75,-26c0,0,-23,-26,-23,-94V808H427V710H269V0Z" 
id="f1_22"
transform="scale(0.001,-0.001)" />

<path d="M106,0V620c0,0,0,85,-5,188H228c0,0,6,-138,6,-165h3c0,0,32,103,74,141c0,0,42,38,118,38c0,0,27,0,54,-7V692c0,0,-26,7,-71,7c0,0,-84,0,-128,-72c0,0,-44,-72,-44,-206V0Z" 
id="f1_2e"
transform="scale(0.001,-0.001)" />

<path d="M381,-14c0,0,-150,0,-232,49C149,35,67,85,43,190l118,23c0,0,17,-65,71,-96c0,0,54,-30,149,-30c0,0,102,0,150,31c0,0,47,32,47,95c0,0,0,47,-33,77c0,0,-33,30,-106,49l-96,26c0,0,-115,30,-164,58c0,0,-49,29,-77,70c0,0,-27,41,-27,101c0,0,0,110,78,168c0,0,79,57,230,57c0,0,133,0,212,-47c0,0,79,-47,100,-150L574,607c0,0,-12,53,-60,82c0,0,-49,29,-131,29c0,0,-91,0,-135,-28c0,0,-43,-27,-43,-83c0,0,0,-34,18,-57c0,0,18,-22,53,-38c0,0,35,-15,148,-43c0,0,106,-27,153,-50c0,0,47,-22,75,-50c0,0,27,-27,42,-64c0,0,15,-36,15,-82c0,0,0,-114,-86,-176c0,0,-87,-61,-242,-61Z" 
id="f1_2f"
transform="scale(0.001,-0.001)" />

<path d="M339,87c0,0,74,0,132,34c0,0,57,33,90,91c0,0,34,59,34,121v66L448,396c0,0,-95,-2,-144,-19c0,0,-49,-18,-75,-55c0,0,-26,-38,-26,-98c0,0,0,-65,35,-101c0,0,36,-36,101,-36ZM309,-14c0,0,-122,0,-183,64c0,0,-61,64,-61,176c0,0,0,125,82,192c0,0,83,67,266,72l182,3v44c0,0,0,98,-42,141c0,0,-42,43,-132,43c0,0,-90,0,-131,-31c0,0,-41,-31,-49,-98L101,604c0,0,34,218,323,218c0,0,153,0,229,-70c0,0,77,-69,77,-202V202c0,0,0,-59,16,-90c0,0,16,-30,60,-30c0,0,19,0,44,5V4C850,4,799,-7,746,-7c0,0,-75,0,-109,38c0,0,-33,40,-38,124h-4C595,155,543,62,475,24c0,0,-68,-38,-166,-38Z" 
id="f1_1x"
transform="scale(0.001,-0.001)" />

<path d="M413,-14c0,0,-170,0,-259,106c0,0,-89,107,-89,313c0,0,0,203,89,310c0,0,90,107,257,107c0,0,124,0,206,-64c0,0,81,-64,102,-177L581,571c0,0,-10,67,-53,106c0,0,-42,40,-121,40c0,0,-106,0,-154,-71c0,0,-48,-71,-48,-239c0,0,0,-161,51,-238c0,0,51,-78,153,-78c0,0,71,0,120,39c0,0,48,39,59,119l136,-9C724,240,708,124,624,55c0,0,-83,-69,-211,-69Z" 
id="f1_1z"
transform="scale(0.001,-0.001)" />

<path d="M395,89c0,0,115,0,166,79c0,0,51,79,51,246c0,0,0,160,-51,235c0,0,-51,75,-164,75c0,0,-102,0,-147,-75c0,0,-45,-75,-45,-244c0,0,0,-170,45,-243c0,0,45,-73,145,-73ZM361,-14c0,0,-153,0,-225,102c0,0,-72,103,-72,312c0,0,0,422,297,422c0,0,92,0,153,-33c0,0,61,-34,98,-107h2l-2,90v335H747V166c0,0,0,-126,4,-166H623c0,0,-2,12,-5,55c0,0,-3,44,-3,75h-3c0,0,-37,-78,-98,-111c0,0,-62,-33,-153,-33Z" 
id="f1_20"
transform="scale(0.001,-0.001)" />

<path d="M355,-14c0,0,-133,0,-194,65c0,0,-62,66,-62,219V808H234V296c0,0,0,-80,16,-124c0,0,16,-44,50,-64c0,0,34,-19,101,-19c0,0,97,0,153,66c0,0,55,67,55,185V808H744V172c0,0,0,-141,4,-172H621c0,0,0,4,-1,20c0,0,-1,17,-2,38c0,0,-1,21,-3,80h-2C613,138,567,55,506,20c0,0,-61,-34,-151,-34Z" 
id="f1_2h"
transform="scale(0.001,-0.001)" />

<path d="M453,84c0,0,100,0,146,74c0,0,46,73,46,247c0,0,0,169,-46,241c0,0,-45,73,-145,73c0,0,-80,0,-125,-34c0,0,-45,-34,-68,-105c0,0,-24,-71,-24,-186c0,0,0,-159,51,-234c0,0,51,-76,165,-76ZM103,-316V643c0,0,0,124,-5,165H228c0,0,1,-3,3,-22c0,0,1,-18,3,-56c0,0,2,-38,2,-52h3c0,0,36,75,94,110c0,0,59,34,156,34c0,0,149,0,223,-100c0,0,74,-100,74,-314c0,0,0,-422,-297,-422c0,0,-187,0,-251,140h-4c0,0,3,-6,3,-126V-316Z" 
id="f1_2c"
transform="scale(0.001,-0.001)" />

<path d="M106,0V635c0,0,0,141,-5,173H228c0,0,1,-4,2,-21c0,0,1,-16,2,-37c0,0,1,-22,2,-81h2c0,0,44,86,100,120c0,0,56,33,136,33c0,0,92,0,145,-36c0,0,54,-37,75,-117h2c0,0,42,82,101,117c0,0,59,36,143,36c0,0,123,0,178,-66c0,0,56,-67,56,-218V0H1039V512c0,0,0,117,-32,162c0,0,-32,45,-116,45c0,0,-88,0,-136,-66c0,0,-49,-65,-49,-185V0H573V512c0,0,0,117,-32,162c0,0,-32,45,-116,45c0,0,-86,0,-136,-66c0,0,-50,-66,-50,-185V0Z" 
id="f1_29"
transform="scale(0.001,-0.001)" />

<path d="M438,0V436L34,1051H190L510,551l319,500H985L580,436V0Z" 
id="f1_1p"
transform="scale(0.001,-0.001)" />

<path d="M48,0V106L689,936H103v115H850V948L210,115H885V0Z" 
id="f1_1q"
transform="scale(0.001,-0.001)" />

<path d="M141,0V1051H283V0Z" 
id="f1_19"
transform="scale(0.001,-0.001)" />

<path d="M142,-316c0,0,-55,0,-92,8v101c0,0,28,-4,63,-4c0,0,125,0,198,184L324,4L4,808H147L317,362c0,0,4,-11,9,-25c0,0,5,-15,34,-98c0,0,28,-83,30,-92l52,147L619,808H761L451,0c0,0,-50,-128,-94,-191c0,0,-43,-63,-96,-94c0,0,-52,-31,-119,-31Z" 
id="f1_2l"
transform="scale(0.001,-0.001)" />

<path d="M17,0L304,415L31,808H179L380,493L580,808H730L457,417L747,0H598L380,331L162,0Z" 
id="f1_2k"
transform="scale(0.001,-0.001)" />

<path d="M298,0L5,808H148L326,282c0,0,10,-29,51,-176l27,87l29,88L616,808H759L457,0Z" 
id="f1_2i"
transform="scale(0.001,-0.001)" />

<path d="M453,84c0,0,101,0,146,75c0,0,46,75,46,244c0,0,0,169,-45,243c0,0,-45,73,-146,73c0,0,-113,0,-165,-78c0,0,-52,-78,-52,-246c0,0,0,-159,51,-235c0,0,51,-76,165,-76Zm36,-98c0,0,-92,0,-153,33c0,0,-61,33,-99,107h-1c0,0,0,-24,-3,-71c0,0,-3,-48,-5,-55H98c0,0,5,40,5,166v941H237V792c0,0,0,-49,-3,-114h3c0,0,38,77,99,111c0,0,62,33,153,33c0,0,153,0,225,-103c0,0,72,-103,72,-311c0,0,0,-422,-297,-422Z" 
id="f1_1y"
transform="scale(0.001,-0.001)" />

<path d="M398,93c0,0,63,0,112,37c0,0,49,38,76,107c0,0,27,70,27,166c0,0,0,99,-27,170c0,0,-27,71,-75,109c0,0,-49,38,-111,38c0,0,-103,0,-150,-75c0,0,-47,-75,-47,-242c0,0,0,-165,44,-238c0,0,44,-72,151,-72Zm11,-409c0,0,-132,0,-211,52c0,0,-78,52,-100,147l135,20c0,0,13,-56,59,-87c0,0,46,-30,121,-30c0,0,200,0,200,234V150h-1C612,150,574,72,507,33C507,33,441,-5,352,-5c0,0,-148,0,-218,98c0,0,-70,98,-70,309c0,0,0,214,75,316c0,0,75,101,228,101c0,0,86,0,149,-39c0,0,63,-39,97,-111h2c0,0,0,22,3,78c0,0,3,55,6,61H751c0,0,-4,-41,-4,-167V23c0,0,0,-339,-338,-339Z" 
id="f1_23"
transform="scale(0.001,-0.001)" />

<path d="M125,0V1051H291L859,150c0,0,-9,146,-9,212v689H979V0H807L245,895l3,-72l4,-125V0Z" 
id="f1_1e"
transform="scale(0.001,-0.001)" />

<path d="M12,-316v96H186V1011H12v96H316V-316Z" 
id="f1_1t"
transform="scale(0.001,-0.001)" />

<path d="M116,0V114H384V923L147,754V881l248,170H519V114H775V0Z" 
id="f1_l"
transform="scale(0.001,-0.001)" />

<path d="M515,-14c0,0,-384,0,-446,266l138,28c0,0,24,-95,102,-139c0,0,77,-44,211,-44c0,0,138,0,213,47c0,0,75,47,75,139c0,0,0,51,-24,83c0,0,-23,33,-66,53c0,0,-42,21,-101,35c0,0,-59,15,-131,31c0,0,-124,28,-189,55c0,0,-64,28,-102,62c0,0,-37,34,-57,79c0,0,-19,46,-19,105c0,0,0,135,103,208c0,0,103,73,296,73c0,0,179,0,273,-55c0,0,95,-55,133,-187L784,800c0,0,-23,84,-88,122c0,0,-65,37,-180,37c0,0,-126,0,-192,-42c0,0,-67,-41,-67,-124c0,0,0,-48,26,-80c0,0,26,-32,74,-54c0,0,49,-22,194,-54c0,0,48,-11,96,-23c0,0,48,-11,92,-27c0,0,44,-16,83,-38c0,0,38,-22,66,-53c0,0,29,-31,45,-74c0,0,16,-42,16,-100c0,0,0,-145,-114,-225c0,0,-114,-79,-320,-79Z" 
id="f1_1j"
transform="scale(0.001,-0.001)" />

<path d="M103,0V1107H237V416L592,808H749L421,461L766,0H609L336,369L237,287V0Z" 
id="f1_27"
transform="scale(0.001,-0.001)" />

<path d="M327,0V150H472V0Zm6,281c0,0,1,51,16,90c0,0,14,39,37,69c0,0,24,30,53,53c0,0,29,24,59,45c0,0,29,21,58,42c0,0,29,22,51,48c0,0,23,26,36,59c0,0,14,33,14,77c0,0,0,85,-58,134c0,0,-57,49,-162,49c0,0,-104,0,-165,-52c0,0,-62,-52,-72,-143L63,761c0,0,19,148,116,227c0,0,97,79,257,79c0,0,166,0,261,-79c0,0,96,-79,96,-218c0,0,0,-56,-16,-100c0,0,-17,-44,-47,-82c0,0,-31,-37,-100,-88L570,456c0,0,-54,-39,-80,-82c0,0,-26,-43,-27,-93Z" 
id="f1_z"
transform="scale(0.001,-0.001)" />

<path d="M62,0V102L513,704H87V808H672V706L220,104H688V0Z" 
id="f1_2m"
transform="scale(0.001,-0.001)" />

<path d="M0,336V439H849V336Z" 
id="f1_1jz"
transform="scale(0.001,-0.001)" />

<path d="M420,489c0,0,93,0,153,65c0,0,60,65,60,181c0,0,0,116,-62,184c0,0,-61,68,-148,68c0,0,-90,0,-156,-74c0,0,-66,-73,-66,-189c0,0,0,-105,63,-170c0,0,63,-65,156,-65ZM391,-18c0,0,-128,0,-209,71c0,0,-82,71,-98,200l129,12c0,0,17,-91,63,-132c0,0,46,-41,118,-41c0,0,62,0,109,28c0,0,47,29,76,76c0,0,30,47,50,128c0,0,20,80,20,164c0,0,0,9,-1,27c0,0,-40,-65,-110,-105c0,0,-69,-39,-151,-39c0,0,-135,0,-229,98c0,0,-94,99,-94,260c0,0,0,166,98,268c0,0,98,101,245,101c0,0,107,0,195,-57c0,0,89,-58,134,-164c0,0,46,-106,46,-308c0,0,0,-209,-45,-334C737,235,691,111,602,46c0,0,-90,-64,-211,-64Z" 
id="f3_t"
transform="scale(0.001,-0.001)" />

<path d="M125,0V1051H268V115H799V0Z" 
id="f0_1c"
transform="scale(0.001,-0.001)" />

<path d="M106,0V620c0,0,0,85,-5,188H228c0,0,6,-138,6,-165h3c0,0,32,103,74,141c0,0,42,38,118,38c0,0,27,0,54,-7V692c0,0,-26,7,-71,7c0,0,-84,0,-128,-72c0,0,-44,-72,-44,-206V0Z" 
id="f0_2e"
transform="scale(0.001,-0.001)" />

<path d="M606,-14c0,0,-164,0,-284,65c0,0,-119,66,-182,189c0,0,-63,123,-63,291c0,0,0,255,137,396c0,0,137,140,386,140c0,0,174,0,283,-59c0,0,109,-59,168,-189L915,779c0,0,-44,90,-123,131c0,0,-79,41,-196,41c0,0,-182,0,-278,-110c0,0,-96,-110,-96,-310c0,0,0,-200,102,-315c0,0,102,-115,282,-115c0,0,103,0,193,31c0,0,89,31,144,85V407H629V526h445V164c0,0,-83,-85,-205,-132c0,0,-121,-46,-263,-46Z" 
id="f0_17"
transform="scale(0.001,-0.001)" />

<path d="M355,-14c0,0,-133,0,-194,65c0,0,-62,66,-62,219V808H234V296c0,0,0,-80,16,-124c0,0,16,-44,50,-64c0,0,34,-19,101,-19c0,0,97,0,153,66c0,0,55,67,55,185V808H744V172c0,0,0,-141,4,-172H621c0,0,0,4,-1,20c0,0,-1,17,-2,38c0,0,-1,21,-3,80h-2C613,138,567,55,506,20c0,0,-61,-34,-151,-34Z" 
id="f0_2h"
transform="scale(0.001,-0.001)" />

<path d="M395,89c0,0,115,0,166,79c0,0,51,79,51,246c0,0,0,160,-51,235c0,0,-51,75,-164,75c0,0,-102,0,-147,-75c0,0,-45,-75,-45,-244c0,0,0,-170,45,-243c0,0,45,-73,145,-73ZM361,-14c0,0,-153,0,-225,102c0,0,-72,103,-72,312c0,0,0,422,297,422c0,0,92,0,153,-33c0,0,61,-34,98,-107h2l-2,90v335H747V166c0,0,0,-126,4,-166H623c0,0,-2,12,-5,55c0,0,-3,44,-3,75h-3c0,0,-37,-78,-98,-111c0,0,-62,-33,-153,-33Z" 
id="f0_20"
transform="scale(0.001,-0.001)" />

<path d="M140,0V163H285V0Z" 
id="f0_i"
transform="scale(0.001,-0.001)" />


</defs>
</svg>