<?xml version="1.0" encoding="UTF-8" standalone="no"?>
<!DOCTYPE svg PUBLIC "-//W3C//DTD SVG 1.1//EN"
"http://www.w3.org/Graphics/SVG/1.1/DTD/svg11.dtd">
<svg viewBox="0 0 740 1092" version="1.1" xmlns="http://www.w3.org/2000/svg" xmlns:xlink="http://www.w3.org/1999/xlink">
<defs>
</defs>
<g fill="#D4D4D4" fill-opacity="0.36" >
<use xlink:href="#f0_1f" transform="matrix(50.9,-50.9,50.9,50.9,129.3,814.1)" />
<use xlink:href="#f0_2a" transform="matrix(50.9,-50.9,50.9,50.9,189.9,753.6)" />
<use xlink:href="#f0_28" transform="matrix(50.9,-50.9,50.9,50.9,233.1,710.3)" />
<use xlink:href="#f0_25" transform="matrix(50.9,-50.9,50.9,50.9,250.4,693.1)" />
<use xlink:href="#f0_2a" transform="matrix(50.9,-50.9,50.9,50.9,267.6,675.8)" />
<use xlink:href="#f0_21" transform="matrix(50.9,-50.9,50.9,50.9,310.9,632.5)" />
<use xlink:href="#f0_2k" transform="matrix(50.9,-50.9,50.9,50.9,354.1,589.3)" />
<use xlink:href="#f0_1x" transform="matrix(50.9,-50.9,50.9,50.9,393,550.4)" />
<use xlink:href="#f0_29" transform="matrix(50.9,-50.9,50.9,50.9,436.3,507.2)" />
<use xlink:href="#f0_2c" transform="matrix(50.9,-50.9,50.9,50.9,501.1,442.4)" />
<use xlink:href="#f0_2b" transform="matrix(50.9,-50.9,50.9,50.9,544.3,399.1)" />
<use xlink:href="#f0_25" transform="matrix(50.9,-50.9,50.9,50.9,587.6,355.9)" />
<use xlink:href="#f0_2a" transform="matrix(50.9,-50.9,50.9,50.9,604.8,338.6)" />
<use xlink:href="#f0_2g" transform="matrix(50.9,-50.9,50.9,50.9,648.1,295.4)" />
</g>
<g fill="#000000" >
<use xlink:href="#f1_e" transform="matrix(10.4,0,0,10.4,41.9,84.5)" />
<use xlink:href="#f1_m" transform="matrix(10.4,0,0,10.4,48.3,84.5)" />
<use xlink:href="#f1_l" transform="matrix(10.4,0,0,10.4,57.1,84.5)" />
<use xlink:href="#f1_i" transform="matrix(10.4,0,0,10.4,66.1,84.5)" />
<use xlink:href="#f1_11" transform="matrix(10.4,0,0,10.4,85.2,84.5)" />
<use xlink:href="#f1_2a" transform="matrix(10.4,0,0,10.4,95.8,84.5)" />
<use xlink:href="#f1_2b" transform="matrix(10.4,0,0,10.4,113,84.5)" />
<use xlink:href="#f1_2e" transform="matrix(10.4,0,0,10.4,121.8,84.5)" />
<use xlink:href="#f1_23" transform="matrix(10.4,0,0,10.4,127.1,84.5)" />
<use xlink:href="#f1_1x" transform="matrix(10.4,0,0,10.4,135.9,84.5)" />
<use xlink:href="#f1_2a" transform="matrix(10.4,0,0,10.4,144.7,84.5)" />
<use xlink:href="#f1_25" transform="matrix(10.4,0,0,10.4,153.5,84.5)" />
<use xlink:href="#f1_1z" transform="matrix(10.4,0,0,10.4,157,84.5)" />
<use xlink:href="#f1_1z" transform="matrix(10.4,0,0,10.4,173.3,84.5)" />
<use xlink:href="#f1_2b" transform="matrix(10.4,0,0,10.4,181.4,84.5)" />
<use xlink:href="#f1_29" transform="matrix(10.4,0,0,10.4,190.2,84.5)" />
<use xlink:href="#f1_2c" transform="matrix(10.4,0,0,10.4,203.8,84.5)" />
<use xlink:href="#f1_2b" transform="matrix(10.4,0,0,10.4,212.6,84.5)" />
<use xlink:href="#f1_2h" transform="matrix(10.4,0,0,10.4,221.4,84.5)" />
<use xlink:href="#f1_2a" transform="matrix(10.4,0,0,10.4,230.2,84.5)" />
<use xlink:href="#f1_20" transform="matrix(10.4,0,0,10.4,239,84.5)" />
<use xlink:href="#f1_c" transform="matrix(10.4,0,0,10.4,256.2,84.5)" />
<use xlink:href="#f1_11" transform="matrix(10.4,0,0,10.4,261.5,84.5)" />
<use xlink:href="#f1_d" transform="matrix(10.4,0,0,10.4,272.1,84.5)" />
<use xlink:href="#f1_24" transform="matrix(10.4,0,0,10.4,285.7,84.5)" />
<use xlink:href="#f1_1x" transform="matrix(10.4,0,0,10.4,294.5,84.5)" />
<use xlink:href="#f1_2i" transform="matrix(10.4,0,0,10.4,303.3,84.5)" />
<use xlink:href="#f1_25" transform="matrix(10.4,0,0,10.4,311.2,84.5)" />
<use xlink:href="#f1_2a" transform="matrix(10.4,0,0,10.4,314.7,84.5)" />
<use xlink:href="#f1_23" transform="matrix(10.4,0,0,10.4,323.5,84.5)" />
<use xlink:href="#f1_29" transform="matrix(10.4,0,0,10.4,340.7,84.5)" />
<use xlink:href="#f1_2b" transform="matrix(10.4,0,0,10.4,354.3,84.5)" />
<use xlink:href="#f1_28" transform="matrix(10.4,0,0,10.4,363.1,84.5)" />
<use xlink:href="#f1_21" transform="matrix(10.4,0,0,10.4,366.6,84.5)" />
<use xlink:href="#f1_1z" transform="matrix(10.4,0,0,10.4,375.4,84.5)" />
<use xlink:href="#f1_2h" transform="matrix(10.4,0,0,10.4,383.4,84.5)" />
<use xlink:href="#f1_28" transform="matrix(10.4,0,0,10.4,392.2,84.5)" />
<use xlink:href="#f1_1x" transform="matrix(10.4,0,0,10.4,395.7,84.5)" />
<use xlink:href="#f1_2e" transform="matrix(10.4,0,0,10.4,404.5,84.5)" />
<use xlink:href="#f1_22" transform="matrix(10.4,0,0,10.4,418.1,84.5)" />
<use xlink:href="#f1_2b" transform="matrix(10.4,0,0,10.4,422.6,84.5)" />
<use xlink:href="#f1_2e" transform="matrix(10.4,0,0,10.4,431.4,84.5)" />
<use xlink:href="#f1_29" transform="matrix(10.4,0,0,10.4,436.8,84.5)" />
<use xlink:href="#f1_2h" transform="matrix(10.4,0,0,10.4,450.3,84.5)" />
<use xlink:href="#f1_28" transform="matrix(10.4,0,0,10.4,459.1,84.5)" />
<use xlink:href="#f1_1x" transform="matrix(10.4,0,0,10.4,462.6,84.5)" />
<use xlink:href="#f1_13" transform="matrix(10.4,0,0,10.4,479.8,84.5)" />
<use xlink:href="#f1_n" transform="matrix(7.4,0,0,7.4,491.4,89.8)" />
<use xlink:href="#f1_18" transform="matrix(10.4,0,0,10.4,497.7,84.5)" />
<use xlink:href="#f1_r" transform="matrix(7.4,0,0,7.4,509.2,89.8)" />
<use xlink:href="#f1_13" transform="matrix(10.4,0,0,10.4,515.5,84.5)" />
<use xlink:href="#f1_28" transform="matrix(10.4,0,0,10.4,527,84.5)" />
<use xlink:href="#f1_2b" transform="matrix(10.4,0,0,10.4,538.9,84.5)" />
<use xlink:href="#f1_2a" transform="matrix(10.4,0,0,10.4,547.7,84.5)" />
<use xlink:href="#f1_2e" transform="matrix(10.4,0,0,10.4,564.9,84.5)" />
<use xlink:href="#f1_21" transform="matrix(10.4,0,0,10.4,570.3,84.5)" />
<use xlink:href="#f1_1x" transform="matrix(10.4,0,0,10.4,579.1,84.5)" />
<use xlink:href="#f1_1z" transform="matrix(10.4,0,0,10.4,587.9,84.5)" />
<use xlink:href="#f1_2g" transform="matrix(10.4,0,0,10.4,595.9,84.5)" />
<use xlink:href="#f1_25" transform="matrix(10.4,0,0,10.4,600.3,84.5)" />
<use xlink:href="#f1_2b" transform="matrix(10.4,0,0,10.4,603.8,84.5)" />
<use xlink:href="#f1_2a" transform="matrix(10.4,0,0,10.4,612.6,84.5)" />
<use xlink:href="#f1_2j" transform="matrix(10.4,0,0,10.4,85.2,105.4)" />
<use xlink:href="#f1_25" transform="matrix(10.4,0,0,10.4,96.4,105.4)" />
<use xlink:href="#f1_2g" transform="matrix(10.4,0,0,10.4,99.8,105.4)" />
<use xlink:href="#f1_24" transform="matrix(10.4,0,0,10.4,104.2,105.4)" />
<use xlink:href="#f1_1x" transform="matrix(10.4,0,0,10.4,121.1,105.4)" />
<use xlink:href="#f1_28" transform="matrix(10.4,0,0,10.4,129.9,105.4)" />
<use xlink:href="#f1_1z" transform="matrix(10.4,0,0,10.4,133.4,105.4)" />
<use xlink:href="#f1_2b" transform="matrix(10.4,0,0,10.4,141.4,105.4)" />
<use xlink:href="#f1_24" transform="matrix(10.4,0,0,10.4,150.2,105.4)" />
<use xlink:href="#f1_2b" transform="matrix(10.4,0,0,10.4,159,105.4)" />
<use xlink:href="#f1_28" transform="matrix(10.4,0,0,10.4,167.8,105.4)" />
<use xlink:href="#f1_25" transform="matrix(10.4,0,0,10.4,171.3,105.4)" />
<use xlink:href="#f1_1z" transform="matrix(10.4,0,0,10.4,174.8,105.4)" />
<use xlink:href="#f1_2f" transform="matrix(10.4,0,0,10.4,190.8,105.4)" />
<use xlink:href="#f1_2b" transform="matrix(10.4,0,0,10.4,198.8,105.4)" />
<use xlink:href="#f1_28" transform="matrix(10.4,0,0,10.4,207.6,105.4)" />
<use xlink:href="#f1_2h" transform="matrix(10.4,0,0,10.4,211.1,105.4)" />
<use xlink:href="#f1_2g" transform="matrix(10.4,0,0,10.4,219.9,105.4)" />
<use xlink:href="#f1_25" transform="matrix(10.4,0,0,10.4,224.3,105.4)" />
<use xlink:href="#f1_2b" transform="matrix(10.4,0,0,10.4,227.8,105.4)" />
<use xlink:href="#f1_2a" transform="matrix(10.4,0,0,10.4,236.6,105.4)" />
<use xlink:href="#f1_2b" transform="matrix(10.4,0,0,10.4,253.5,105.4)" />
<use xlink:href="#f1_22" transform="matrix(10.4,0,0,10.4,262.3,105.4)" />
<use xlink:href="#f1_1b" transform="matrix(10.4,0,0,10.4,274.9,105.4)" />
<use xlink:href="#f1_13" transform="matrix(10.4,0,0,10.4,285.5,105.4)" />
<use xlink:href="#f1_1e" transform="matrix(10.4,0,0,10.4,297.1,105.4)" />
<use xlink:href="#f1_23" transform="matrix(10.4,0,0,10.4,316.7,105.4)" />
<use xlink:href="#f1_25" transform="matrix(10.4,0,0,10.4,325.5,105.4)" />
<use xlink:href="#f1_2i" transform="matrix(10.4,0,0,10.4,329,105.4)" />
<use xlink:href="#f1_21" transform="matrix(10.4,0,0,10.4,336.9,105.4)" />
<use xlink:href="#f1_2f" transform="matrix(10.4,0,0,10.4,345.7,105.4)" />
<use xlink:href="#f1_1z" transform="matrix(10.4,0,0,10.4,361.6,105.4)" />
<use xlink:href="#f1_2b" transform="matrix(10.4,0,0,10.4,369.7,105.4)" />
<use xlink:href="#f1_29" transform="matrix(10.4,0,0,10.4,378.5,105.4)" />
<use xlink:href="#f1_2c" transform="matrix(10.4,0,0,10.4,392,105.4)" />
<use xlink:href="#f1_2b" transform="matrix(10.4,0,0,10.4,400.8,105.4)" />
<use xlink:href="#f1_2h" transform="matrix(10.4,0,0,10.4,409.6,105.4)" />
<use xlink:href="#f1_2a" transform="matrix(10.4,0,0,10.4,418.4,105.4)" />
<use xlink:href="#f1_20" transform="matrix(10.4,0,0,10.4,427.2,105.4)" />
<use xlink:href="#f1_12" transform="matrix(10.4,0,0,10.4,444.1,105.4)" />
<use xlink:href="#f1_i" transform="matrix(10.4,0,0,10.4,454.7,105.4)" />
<use xlink:href="#f1_1k" transform="matrix(10.4,0,0,10.4,467.2,105.4)" />
<use xlink:href="#f1_24" transform="matrix(10.4,0,0,10.4,477.1,105.4)" />
<use xlink:href="#f1_21" transform="matrix(10.4,0,0,10.4,485.9,105.4)" />
<use xlink:href="#f1_1z" transform="matrix(10.4,0,0,10.4,502.8,105.4)" />
<use xlink:href="#f1_2b" transform="matrix(10.4,0,0,10.4,510.8,105.4)" />
<use xlink:href="#f1_29" transform="matrix(10.4,0,0,10.4,519.6,105.4)" />
<use xlink:href="#f1_2c" transform="matrix(10.4,0,0,10.4,533.2,105.4)" />
<use xlink:href="#f1_2b" transform="matrix(10.4,0,0,10.4,542,105.4)" />
<use xlink:href="#f1_2h" transform="matrix(10.4,0,0,10.4,550.8,105.4)" />
<use xlink:href="#f1_2a" transform="matrix(10.4,0,0,10.4,559.6,105.4)" />
<use xlink:href="#f1_20" transform="matrix(10.4,0,0,10.4,568.4,105.4)" />
<use xlink:href="#f1_12" transform="matrix(10.4,0,0,10.4,585.1,105.4)" />
<use xlink:href="#f1_2b" transform="matrix(10.4,0,0,10.4,603.8,105.4)" />
<use xlink:href="#f1_2a" transform="matrix(10.4,0,0,10.4,612.6,105.4)" />
<use xlink:href="#f1_24" transform="matrix(10.4,0,0,10.4,85.2,126.3)" />
<use xlink:href="#f1_2l" transform="matrix(10.4,0,0,10.4,94.5,126.3)" />
<use xlink:href="#f1_20" transform="matrix(10.4,0,0,10.4,102.6,126.3)" />
<use xlink:href="#f1_2e" transform="matrix(10.4,0,0,10.4,111.9,126.3)" />
<use xlink:href="#f1_2b" transform="matrix(10.4,0,0,10.4,118,126.3)" />
<use xlink:href="#f1_28" transform="matrix(10.4,0,0,10.4,127.3,126.3)" />
<use xlink:href="#f1_2l" transform="matrix(10.4,0,0,10.4,131.4,126.3)" />
<use xlink:href="#f1_2f" transform="matrix(10.4,0,0,10.4,139.4,126.3)" />
<use xlink:href="#f1_25" transform="matrix(10.4,0,0,10.4,148,126.3)" />
<use xlink:href="#f1_2f" transform="matrix(10.4,0,0,10.4,152.1,126.3)" />
<use xlink:href="#f1_2j" transform="matrix(10.4,0,0,10.4,170.2,126.3)" />
<use xlink:href="#f1_25" transform="matrix(10.4,0,0,10.4,181.9,126.3)" />
<use xlink:href="#f1_2g" transform="matrix(10.4,0,0,10.4,186,126.3)" />
<use xlink:href="#f1_24" transform="matrix(10.4,0,0,10.4,190.9,126.3)" />
<use xlink:href="#f1_20" transform="matrix(10.4,0,0,10.4,209.8,126.3)" />
<use xlink:href="#f1_25" transform="matrix(10.4,0,0,10.4,219.2,126.3)" />
<use xlink:href="#f1_28" transform="matrix(10.4,0,0,10.4,223.2,126.3)" />
<use xlink:href="#f1_2h" transform="matrix(10.4,0,0,10.4,227.2,126.3)" />
<use xlink:href="#f1_2g" transform="matrix(10.4,0,0,10.4,236.6,126.3)" />
<use xlink:href="#f1_21" transform="matrix(10.4,0,0,10.4,241.5,126.3)" />
<use xlink:href="#f1_18" transform="matrix(10.4,0,0,10.4,260.4,126.3)" />
<use xlink:href="#f1_13" transform="matrix(10.4,0,0,10.4,272.5,126.3)" />
<use xlink:href="#f1_28" transform="matrix(10.4,0,0,10.4,284.6,126.3)" />
<use xlink:href="#f1_23" transform="matrix(10.4,0,0,10.4,298,126.3)" />
<use xlink:href="#f1_25" transform="matrix(10.4,0,0,10.4,307.3,126.3)" />
<use xlink:href="#f1_2i" transform="matrix(10.4,0,0,10.4,311.5,126.3)" />
<use xlink:href="#f1_21" transform="matrix(10.4,0,0,10.4,320,126.3)" />
<use xlink:href="#f1_2f" transform="matrix(10.4,0,0,10.4,329.3,126.3)" />
<use xlink:href="#f1_1z" transform="matrix(10.4,0,0,10.4,347.3,126.3)" />
<use xlink:href="#f1_2b" transform="matrix(10.4,0,0,10.4,355.9,126.3)" />
<use xlink:href="#f1_29" transform="matrix(10.4,0,0,10.4,365.4,126.3)" />
<use xlink:href="#f1_2c" transform="matrix(10.4,0,0,10.4,379.5,126.3)" />
<use xlink:href="#f1_2b" transform="matrix(10.4,0,0,10.4,388.9,126.3)" />
<use xlink:href="#f1_2h" transform="matrix(10.4,0,0,10.4,398.2,126.3)" />
<use xlink:href="#f1_2a" transform="matrix(10.4,0,0,10.4,407.6,126.3)" />
<use xlink:href="#f1_20" transform="matrix(10.4,0,0,10.4,416.9,126.3)" />
<use xlink:href="#f1_13" transform="matrix(10.4,0,0,10.4,435.8,126.3)" />
<use xlink:href="#f1_i" transform="matrix(10.4,0,0,10.4,447.9,126.3)" />
<use xlink:href="#f1_13" transform="matrix(10.4,0,0,10.4,462.2,126.3)" />
<use xlink:href="#f1_2b" transform="matrix(10.4,0,0,10.4,483.7,126.3)" />
<use xlink:href="#f1_2a" transform="matrix(10.4,0,0,10.4,493.2,126.3)" />
<use xlink:href="#f1_2e" transform="matrix(10.4,0,0,10.4,511.9,126.3)" />
<use xlink:href="#f1_21" transform="matrix(10.4,0,0,10.4,517.8,126.3)" />
<use xlink:href="#f1_20" transform="matrix(10.4,0,0,10.4,527.1,126.3)" />
<use xlink:href="#f1_2h" transform="matrix(10.4,0,0,10.4,536.4,126.3)" />
<use xlink:href="#f1_1z" transform="matrix(10.4,0,0,10.4,546,126.3)" />
<use xlink:href="#f1_2g" transform="matrix(10.4,0,0,10.4,554.6,126.3)" />
<use xlink:href="#f1_25" transform="matrix(10.4,0,0,10.4,559.5,126.3)" />
<use xlink:href="#f1_2b" transform="matrix(10.4,0,0,10.4,563.6,126.3)" />
<use xlink:href="#f1_2a" transform="matrix(10.4,0,0,10.4,572.9,126.3)" />
<use xlink:href="#f1_2j" transform="matrix(10.4,0,0,10.4,591.8,126.3)" />
<use xlink:href="#f1_25" transform="matrix(10.4,0,0,10.4,603.5,126.3)" />
<use xlink:href="#f1_2g" transform="matrix(10.4,0,0,10.4,607.6,126.3)" />
<use xlink:href="#f1_24" transform="matrix(10.4,0,0,10.4,612.5,126.3)" />
<use xlink:href="#f1_18" transform="matrix(10.4,0,0,10.4,85.2,147.4)" />
<use xlink:href="#f1_m" transform="matrix(7.4,0,0,7.4,96.7,152.7)" />
<use xlink:href="#f1_j" transform="matrix(10.4,0,0,10.4,103,147.4)" />
<use xlink:href="#f1_1e" transform="matrix(10.4,0,0,10.4,114.7,147.4)" />
<use xlink:href="#f1_25" transform="matrix(10.4,0,0,10.4,126.2,147.4)" />
<use xlink:href="#f1_23" transform="matrix(10.4,0,0,10.4,137,147.4)" />
<use xlink:href="#f1_25" transform="matrix(10.4,0,0,10.4,145.8,147.4)" />
<use xlink:href="#f1_2i" transform="matrix(10.4,0,0,10.4,149.3,147.4)" />
<use xlink:href="#f1_21" transform="matrix(10.4,0,0,10.4,157.2,147.4)" />
<use xlink:href="#f1_2f" transform="matrix(10.4,0,0,10.4,166,147.4)" />
<use xlink:href="#f1_l" transform="matrix(10.4,0,0,10.4,181.4,147.4)" />
<use xlink:href="#f1_h" transform="matrix(10.4,0,0,10.4,190.2,147.4)" />
<use xlink:href="#f1_1x" transform="matrix(10.4,0,0,10.4,195.5,147.4)" />
<use xlink:href="#f1_29" transform="matrix(10.4,0,0,10.4,204.3,147.4)" />
<use xlink:href="#f1_25" transform="matrix(10.4,0,0,10.4,217.9,147.4)" />
<use xlink:href="#f1_2a" transform="matrix(10.4,0,0,10.4,221.4,147.4)" />
<use xlink:href="#f1_2b" transform="matrix(10.4,0,0,10.4,230.2,147.4)" />
<use xlink:href="#f1_1y" transform="matrix(10.4,0,0,10.4,239,147.4)" />
<use xlink:href="#f1_2h" transform="matrix(10.4,0,0,10.4,247.8,147.4)" />
<use xlink:href="#f1_2g" transform="matrix(10.4,0,0,10.4,256.6,147.4)" />
<use xlink:href="#f1_1x" transform="matrix(10.4,0,0,10.4,260.8,147.4)" />
<use xlink:href="#f1_2a" transform="matrix(10.4,0,0,10.4,269.6,147.4)" />
<use xlink:href="#f1_21" transform="matrix(10.4,0,0,10.4,278.4,147.4)" />
<use xlink:href="#f1_i" transform="matrix(10.4,0,0,10.4,287.2,147.4)" />
<use xlink:href="#f1_19" transform="matrix(10.4,0,0,10.4,298.9,147.4)" />
<use xlink:href="#f1_20" transform="matrix(10.4,0,0,10.4,303.3,147.4)" />
<use xlink:href="#f1_21" transform="matrix(10.4,0,0,10.4,312.1,147.4)" />
<use xlink:href="#f1_2a" transform="matrix(10.4,0,0,10.4,320.9,147.4)" />
<use xlink:href="#f1_2g" transform="matrix(10.4,0,0,10.4,329.7,147.4)" />
<use xlink:href="#f1_25" transform="matrix(10.4,0,0,10.4,334.1,147.4)" />
<use xlink:href="#f1_22" transform="matrix(10.4,0,0,10.4,337.6,147.4)" />
<use xlink:href="#f1_2l" transform="matrix(10.4,0,0,10.4,342.2,147.4)" />
<use xlink:href="#f1_11" transform="matrix(10.4,0,0,10.4,356.1,147.4)" />
<use xlink:href="#f1_g" transform="matrix(10.4,0,0,10.4,366.8,147.4)" />
<use xlink:href="#f1_12" transform="matrix(10.4,0,0,10.4,378.5,147.4)" />
<use xlink:href="#f1_1x" transform="matrix(10.4,0,0,10.4,396.4,147.4)" />
<use xlink:href="#f1_2a" transform="matrix(10.4,0,0,10.4,405.2,147.4)" />
<use xlink:href="#f1_20" transform="matrix(10.4,0,0,10.4,414,147.4)" />
<use xlink:href="#f1_13" transform="matrix(10.4,0,0,10.4,430.2,147.4)" />
<use xlink:href="#f1_i" transform="matrix(10.4,0,0,10.4,441.7,147.4)" />
<use xlink:href="#f1_1r" transform="matrix(10.4,0,0,10.4,85.2,177.3)" />
<use xlink:href="#f2_11" transform="matrix(10.4,0,0,10.4,89.6,177.3)" />
<use xlink:href="#f2_2a" transform="matrix(10.4,0,0,10.4,100.4,177.3)" />
<use xlink:href="#f2_2f" transform="matrix(10.4,0,0,10.4,110.1,177.3)" />
<use xlink:href="#f2_i" transform="matrix(10.4,0,0,10.4,118.9,177.3)" />
<use xlink:href="#f2_u" transform="matrix(10.4,0,0,10.4,129,177.3)" />
<use xlink:href="#f1_c" transform="matrix(10.4,0,0,10.4,140.4,177.3)" />
<use xlink:href="#f1_11" transform="matrix(10.4,0,0,10.4,145.7,177.3)" />
<use xlink:href="#f1_d" transform="matrix(10.4,0,0,10.4,156.3,177.3)" />
<use xlink:href="#f1_13" transform="matrix(10.4,0,0,10.4,167.5,177.3)" />
<use xlink:href="#f1_18" transform="matrix(10.4,0,0,10.4,179,177.3)" />
<use xlink:href="#f1_n" transform="matrix(7.4,0,0,7.4,190.6,182.6)" />
<use xlink:href="#f1_13" transform="matrix(10.4,0,0,10.4,196.8,177.3)" />
<use xlink:href="#f1_18" transform="matrix(10.4,0,0,10.4,208.4,177.3)" />
<use xlink:href="#f1_m" transform="matrix(7.4,0,0,7.4,219.9,182.6)" />
<use xlink:href="#f1_13" transform="matrix(10.4,0,0,10.4,226.2,177.3)" />
<use xlink:href="#f1_18" transform="matrix(10.4,0,0,10.4,237.7,177.3)" />
<use xlink:href="#f1_m" transform="matrix(7.4,0,0,7.4,249.3,182.6)" />
<use xlink:href="#f1_13" transform="matrix(10.4,0,0,10.4,255.5,177.3)" />
<use xlink:href="#f1_28" transform="matrix(10.4,0,0,10.4,267,177.3)" />
<use xlink:href="#f1_g" transform="matrix(10.4,0,0,10.4,270.5,177.3)" />
<use xlink:href="#f1_c" transform="matrix(10.4,0,0,10.4,280.6,177.3)" />
<use xlink:href="#f1_12" transform="matrix(10.4,0,0,10.4,285.9,177.3)" />
<use xlink:href="#f1_d" transform="matrix(10.4,0,0,10.4,296.5,177.3)" />
<use xlink:href="#f1_13" transform="matrix(10.4,0,0,10.4,307.7,177.3)" />
<use xlink:href="#f1_18" transform="matrix(10.4,0,0,10.4,319.3,177.3)" />
<use xlink:href="#f1_n" transform="matrix(7.4,0,0,7.4,330.8,182.6)" />
<use xlink:href="#f1_13" transform="matrix(10.4,0,0,10.4,337.1,177.3)" />
<use xlink:href="#f1_18" transform="matrix(10.4,0,0,10.4,348.6,177.3)" />
<use xlink:href="#f1_m" transform="matrix(7.4,0,0,7.4,360.2,182.6)" />
<use xlink:href="#f1_13" transform="matrix(10.4,0,0,10.4,366.4,177.3)" />
<use xlink:href="#f1_18" transform="matrix(10.4,0,0,10.4,378,177.3)" />
<use xlink:href="#f1_m" transform="matrix(7.4,0,0,7.4,389.5,182.6)" />
<use xlink:href="#f1_13" transform="matrix(10.4,0,0,10.4,395.7,177.3)" />
<use xlink:href="#f1_1e" transform="matrix(10.4,0,0,10.4,407.3,177.3)" />
<use xlink:href="#f1_g" transform="matrix(10.4,0,0,10.4,418.8,177.3)" />
<use xlink:href="#f1_c" transform="matrix(10.4,0,0,10.4,429.1,177.3)" />
<use xlink:href="#f1_13" transform="matrix(10.4,0,0,10.4,434.4,177.3)" />
<use xlink:href="#f1_d" transform="matrix(10.4,0,0,10.4,446,177.3)" />
<use xlink:href="#f1_13" transform="matrix(10.4,0,0,10.4,457.1,177.3)" />
<use xlink:href="#f1_18" transform="matrix(10.4,0,0,10.4,468.7,177.3)" />
<use xlink:href="#f1_n" transform="matrix(7.4,0,0,7.4,480.3,182.6)" />
<use xlink:href="#f1_13" transform="matrix(10.4,0,0,10.4,486.5,177.3)" />
<use xlink:href="#f1_18" transform="matrix(10.4,0,0,10.4,498,177.3)" />
<use xlink:href="#f1_m" transform="matrix(7.4,0,0,7.4,509.6,182.6)" />
<use xlink:href="#f1_13" transform="matrix(10.4,0,0,10.4,515.8,177.3)" />
<use xlink:href="#f1_18" transform="matrix(10.4,0,0,10.4,527.4,177.3)" />
<use xlink:href="#f1_m" transform="matrix(7.4,0,0,7.4,538.9,182.6)" />
<use xlink:href="#f1_13" transform="matrix(10.4,0,0,10.4,545.2,177.3)" />
<use xlink:href="#f1_1f" transform="matrix(10.4,0,0,10.4,556.7,177.3)" />
<use xlink:href="#f1_1e" transform="matrix(10.4,0,0,10.4,569.2,177.3)" />
<use xlink:href="#f1_18" transform="matrix(10.4,0,0,10.4,580.7,177.3)" />
<use xlink:href="#f1_m" transform="matrix(7.4,0,0,7.4,592.3,182.6)" />
<use xlink:href="#f1_e" transform="matrix(10.4,0,0,10.4,41.9,207.3)" />
<use xlink:href="#f1_m" transform="matrix(10.4,0,0,10.4,48.3,207.3)" />
<use xlink:href="#f1_m" transform="matrix(10.4,0,0,10.4,57.1,207.3)" />
<use xlink:href="#f1_i" transform="matrix(10.4,0,0,10.4,66.1,207.3)" />
<use xlink:href="#f1_19" transform="matrix(10.4,0,0,10.4,85.2,207.3)" />
<use xlink:href="#f1_20" transform="matrix(10.4,0,0,10.4,89.6,207.3)" />
<use xlink:href="#f1_21" transform="matrix(10.4,0,0,10.4,98.4,207.3)" />
<use xlink:href="#f1_2a" transform="matrix(10.4,0,0,10.4,107.2,207.3)" />
<use xlink:href="#f1_2g" transform="matrix(10.4,0,0,10.4,116,207.3)" />
<use xlink:href="#f1_25" transform="matrix(10.4,0,0,10.4,120.4,207.3)" />
<use xlink:href="#f1_22" transform="matrix(10.4,0,0,10.4,123.9,207.3)" />
<use xlink:href="#f1_2l" transform="matrix(10.4,0,0,10.4,128.4,207.3)" />
<use xlink:href="#f1_11" transform="matrix(10.4,0,0,10.4,142.2,207.3)" />
<use xlink:href="#f1_g" transform="matrix(10.4,0,0,10.4,152.8,207.3)" />
<use xlink:href="#f1_12" transform="matrix(10.4,0,0,10.4,164.4,207.3)" />
<use xlink:href="#f1_g" transform="matrix(10.4,0,0,10.4,175,207.3)" />
<use xlink:href="#f1_13" transform="matrix(10.4,0,0,10.4,186.5,207.3)" />
<use xlink:href="#f1_g" transform="matrix(10.4,0,0,10.4,198.1,207.3)" />
<use xlink:href="#f1_14" transform="matrix(10.4,0,0,10.4,209.8,207.3)" />
<use xlink:href="#f1_g" transform="matrix(10.4,0,0,10.4,221.4,207.3)" />
<use xlink:href="#f1_15" transform="matrix(10.4,0,0,10.4,232.9,207.3)" />
<use xlink:href="#f1_g" transform="matrix(10.4,0,0,10.4,243.6,207.3)" />
<use xlink:href="#f1_1i" transform="matrix(10.4,0,0,10.4,255.1,207.3)" />
<use xlink:href="#f1_1x" transform="matrix(10.4,0,0,10.4,273.8,207.3)" />
<use xlink:href="#f1_2a" transform="matrix(10.4,0,0,10.4,282.6,207.3)" />
<use xlink:href="#f1_20" transform="matrix(10.4,0,0,10.4,291.4,207.3)" />
<use xlink:href="#f1_1i" transform="matrix(10.4,0,0,10.4,307.3,207.3)" />
<use xlink:href="#f1_3b" transform="matrix(10.4,0,0,10.4,318.9,207.3)" />
<use xlink:href="#f1_25" transform="matrix(10.4,0,0,10.4,331.4,207.3)" />
<use xlink:href="#f1_2a" transform="matrix(10.4,0,0,10.4,334.8,207.3)" />
<use xlink:href="#f1_2g" transform="matrix(10.4,0,0,10.4,350.8,207.3)" />
<use xlink:href="#f1_24" transform="matrix(10.4,0,0,10.4,355.2,207.3)" />
<use xlink:href="#f1_21" transform="matrix(10.4,0,0,10.4,364,207.3)" />
<use xlink:href="#f1_22" transform="matrix(10.4,0,0,10.4,379.9,207.3)" />
<use xlink:href="#f1_2b" transform="matrix(10.4,0,0,10.4,384.5,207.3)" />
<use xlink:href="#f1_28" transform="matrix(10.4,0,0,10.4,393.3,207.3)" />
<use xlink:href="#f1_28" transform="matrix(10.4,0,0,10.4,396.8,207.3)" />
<use xlink:href="#f1_2b" transform="matrix(10.4,0,0,10.4,400.3,207.3)" />
<use xlink:href="#f1_2j" transform="matrix(10.4,0,0,10.4,409.1,207.3)" />
<use xlink:href="#f1_25" transform="matrix(10.4,0,0,10.4,420.3,207.3)" />
<use xlink:href="#f1_2a" transform="matrix(10.4,0,0,10.4,423.7,207.3)" />
<use xlink:href="#f1_23" transform="matrix(10.4,0,0,10.4,432.5,207.3)" />
<use xlink:href="#f1_2f" transform="matrix(10.4,0,0,10.4,448.7,207.3)" />
<use xlink:href="#f1_21" transform="matrix(10.4,0,0,10.4,456.7,207.3)" />
<use xlink:href="#f1_2d" transform="matrix(10.4,0,0,10.4,465.5,207.3)" />
<use xlink:href="#f1_2h" transform="matrix(10.4,0,0,10.4,474.3,207.3)" />
<use xlink:href="#f1_21" transform="matrix(10.4,0,0,10.4,483.1,207.3)" />
<use xlink:href="#f1_2a" transform="matrix(10.4,0,0,10.4,491.9,207.3)" />
<use xlink:href="#f1_1z" transform="matrix(10.4,0,0,10.4,500.7,207.3)" />
<use xlink:href="#f1_21" transform="matrix(10.4,0,0,10.4,508.8,207.3)" />
<use xlink:href="#f1_2b" transform="matrix(10.4,0,0,10.4,524.7,207.3)" />
<use xlink:href="#f1_22" transform="matrix(10.4,0,0,10.4,533.5,207.3)" />
<use xlink:href="#f1_2e" transform="matrix(10.4,0,0,10.4,545.3,207.3)" />
<use xlink:href="#f1_21" transform="matrix(10.4,0,0,10.4,550.6,207.3)" />
<use xlink:href="#f1_1x" transform="matrix(10.4,0,0,10.4,559.4,207.3)" />
<use xlink:href="#f1_1z" transform="matrix(10.4,0,0,10.4,568.2,207.3)" />
<use xlink:href="#f1_2g" transform="matrix(10.4,0,0,10.4,576.3,207.3)" />
<use xlink:href="#f1_25" transform="matrix(10.4,0,0,10.4,580.7,207.3)" />
<use xlink:href="#f1_2b" transform="matrix(10.4,0,0,10.4,584.1,207.3)" />
<use xlink:href="#f1_2a" transform="matrix(10.4,0,0,10.4,592.9,207.3)" />
<use xlink:href="#f1_2f" transform="matrix(10.4,0,0,10.4,601.7,207.3)" />
<use xlink:href="#f1_u" transform="matrix(10.4,0,0,10.4,617,207.3)" />
</g>
<image preserveAspectRatio="none" x="88" y="233" width="487" height="16" xlink:href="img/1.png" />
<image preserveAspectRatio="none" x="88" y="249" width="487" height="16" xlink:href="img/2.png" />
<image preserveAspectRatio="none" x="88" y="264" width="487" height="16" xlink:href="img/3.png" />
<image preserveAspectRatio="none" x="88" y="280" width="487" height="15" xlink:href="img/4.png" />
<image preserveAspectRatio="none" x="88" y="295" width="487" height="16" xlink:href="img/5.png" />
<image preserveAspectRatio="none" x="88" y="310" width="487" height="16" xlink:href="img/6.png" />
<image preserveAspectRatio="none" x="88" y="326" width="487" height="16" xlink:href="img/7.png" />
<image preserveAspectRatio="none" x="88" y="341" width="487" height="16" xlink:href="img/8.png" />
<image preserveAspectRatio="none" x="88" y="357" width="487" height="15" xlink:href="img/9.png" />
<image preserveAspectRatio="none" x="88" y="372" width="487" height="16" xlink:href="img/10.png" />
<image preserveAspectRatio="none" x="88" y="387" width="487" height="16" xlink:href="img/11.png" />
<image preserveAspectRatio="none" x="88" y="403" width="487" height="16" xlink:href="img/12.png" />
<image preserveAspectRatio="none" x="88" y="418" width="487" height="14" xlink:href="img/13.png" />
<g fill="#000000" >
<use xlink:href="#f1_m" transform="matrix(10.4,0,0,10.4,41.9,460.3)" />
<use xlink:href="#f1_n" transform="matrix(10.4,0,0,10.4,51.1,460.3)" />
<use xlink:href="#f1_i" transform="matrix(10.4,0,0,10.4,60.4,460.3)" />
<use xlink:href="#f1_1n" transform="matrix(10.4,0,0,10.4,85.2,460.3)" />
<use xlink:href="#f1_24" transform="matrix(10.4,0,0,10.4,101.1,460.3)" />
<use xlink:href="#f1_25" transform="matrix(10.4,0,0,10.4,109.9,460.3)" />
<use xlink:href="#f1_1z" transform="matrix(10.4,0,0,10.4,113.4,460.3)" />
<use xlink:href="#f1_24" transform="matrix(10.4,0,0,10.4,121.5,460.3)" />
<use xlink:href="#f1_2a" transform="matrix(10.4,0,0,10.4,137.4,460.3)" />
<use xlink:href="#f1_2b" transform="matrix(10.4,0,0,10.4,146.2,460.3)" />
<use xlink:href="#f1_29" transform="matrix(10.4,0,0,10.4,155,460.3)" />
<use xlink:href="#f1_21" transform="matrix(10.4,0,0,10.4,168.6,460.3)" />
<use xlink:href="#f1_2a" transform="matrix(10.4,0,0,10.4,177.4,460.3)" />
<use xlink:href="#f1_1z" transform="matrix(10.4,0,0,10.4,186.2,460.3)" />
<use xlink:href="#f1_28" transform="matrix(10.4,0,0,10.4,194.2,460.3)" />
<use xlink:href="#f1_1x" transform="matrix(10.4,0,0,10.4,197.7,460.3)" />
<use xlink:href="#f1_2g" transform="matrix(10.4,0,0,10.4,206.5,460.3)" />
<use xlink:href="#f1_2h" transform="matrix(10.4,0,0,10.4,210.9,460.3)" />
<use xlink:href="#f1_2e" transform="matrix(10.4,0,0,10.4,219.7,460.3)" />
<use xlink:href="#f1_21" transform="matrix(10.4,0,0,10.4,225,460.3)" />
<use xlink:href="#f1_25" transform="matrix(10.4,0,0,10.4,241.2,460.3)" />
<use xlink:href="#f1_2f" transform="matrix(10.4,0,0,10.4,244.6,460.3)" />
<use xlink:href="#f1_2a" transform="matrix(10.4,0,0,10.4,259.9,460.3)" />
<use xlink:href="#f1_2b" transform="matrix(10.4,0,0,10.4,268.7,460.3)" />
<use xlink:href="#f1_2g" transform="matrix(10.4,0,0,10.4,277.5,460.3)" />
<use xlink:href="#f1_2b" transform="matrix(10.4,0,0,10.4,289.2,460.3)" />
<use xlink:href="#f1_1z" transform="matrix(10.4,0,0,10.4,298,460.3)" />
<use xlink:href="#f1_1z" transform="matrix(10.4,0,0,10.4,306.1,460.3)" />
<use xlink:href="#f1_2b" transform="matrix(10.4,0,0,10.4,314.1,460.3)" />
<use xlink:href="#f1_2e" transform="matrix(10.4,0,0,10.4,322.9,460.3)" />
<use xlink:href="#f1_20" transform="matrix(10.4,0,0,10.4,328.2,460.3)" />
<use xlink:href="#f1_25" transform="matrix(10.4,0,0,10.4,337,460.3)" />
<use xlink:href="#f1_2a" transform="matrix(10.4,0,0,10.4,340.5,460.3)" />
<use xlink:href="#f1_23" transform="matrix(10.4,0,0,10.4,349.3,460.3)" />
<use xlink:href="#f1_2g" transform="matrix(10.4,0,0,10.4,365.3,460.3)" />
<use xlink:href="#f1_2b" transform="matrix(10.4,0,0,10.4,369.7,460.3)" />
<use xlink:href="#f1_19" transform="matrix(10.4,0,0,10.4,385.8,460.3)" />
<use xlink:href="#f1_1l" transform="matrix(10.4,0,0,10.4,390.2,460.3)" />
<use xlink:href="#f1_1g" transform="matrix(10.4,0,0,10.4,401.7,460.3)" />
<use xlink:href="#f1_11" transform="matrix(10.4,0,0,10.4,411.3,460.3)" />
<use xlink:href="#f1_13" transform="matrix(10.4,0,0,10.4,421.9,460.3)" />
<use xlink:href="#f1_2f" transform="matrix(10.4,0,0,10.4,440.6,460.3)" />
<use xlink:href="#f1_2l" transform="matrix(10.4,0,0,10.4,448.7,460.3)" />
<use xlink:href="#f1_2f" transform="matrix(10.4,0,0,10.4,456.2,460.3)" />
<use xlink:href="#f1_2g" transform="matrix(10.4,0,0,10.4,464.3,460.3)" />
<use xlink:href="#f1_21" transform="matrix(10.4,0,0,10.4,468.7,460.3)" />
<use xlink:href="#f1_29" transform="matrix(10.4,0,0,10.4,477.5,460.3)" />
<use xlink:href="#f1_i" transform="matrix(10.4,0,0,10.4,491,460.3)" />
<use xlink:href="#f1_c" transform="matrix(10.4,0,0,10.4,85.2,490.4)" />
<use xlink:href="#f1_25" transform="matrix(10.4,0,0,10.4,90.9,490.4)" />
<use xlink:href="#f1_d" transform="matrix(10.4,0,0,10.4,94.7,490.4)" />
<use xlink:href="#f1_12" transform="matrix(10.4,0,0,10.4,128.4,490.4)" />
<use xlink:href="#f1_2e" transform="matrix(10.4,0,0,10.4,139.1,490.4)" />
<use xlink:href="#f1_1jz" transform="matrix(10.4,0,0,10.4,151.7,490.4)" />
<use xlink:href="#f1_13" transform="matrix(10.4,0,0,10.4,167.8,490.4)" />
<use xlink:href="#f1_18" transform="matrix(10.4,0,0,10.4,179.4,490.4)" />
<use xlink:href="#f1_m" transform="matrix(7.4,0,0,7.4,191,495.7)" />
<use xlink:href="#f1_13" transform="matrix(10.4,0,0,10.4,204.5,490.4)" />
<use xlink:href="#f1_18" transform="matrix(10.4,0,0,10.4,216.1,490.4)" />
<use xlink:href="#f1_x" transform="matrix(10.4,0,0,10.4,234.9,490.4)" />
<use xlink:href="#f1_13" transform="matrix(10.4,0,0,10.4,251.6,490.4)" />
<use xlink:href="#f1_18" transform="matrix(10.4,0,0,10.4,263.2,490.4)" />
<use xlink:href="#f1_m" transform="matrix(7.4,0,0,7.4,274.7,495.7)" />
<use xlink:href="#f1_v" transform="matrix(10.4,0,0,10.4,281,490.4)" />
<use xlink:href="#f1_l" transform="matrix(10.4,0,0,10.4,292.9,490.4)" />
<use xlink:href="#f1_1jz" transform="matrix(10.4,0,0,10.4,301.7,490.4)" />
<use xlink:href="#f1_1y" transform="matrix(10.4,0,0,10.4,310.5,490.4)" />
<use xlink:href="#f1_2e" transform="matrix(10.4,0,0,10.4,319.3,490.4)" />
<use xlink:href="#f1_2b" transform="matrix(10.4,0,0,10.4,324.6,490.4)" />
<use xlink:href="#f1_29" transform="matrix(10.4,0,0,10.4,333.4,490.4)" />
<use xlink:href="#f1_2b" transform="matrix(10.4,0,0,10.4,347,490.4)" />
<use xlink:href="#f1_2c" transform="matrix(10.4,0,0,10.4,355.8,490.4)" />
<use xlink:href="#f1_2e" transform="matrix(10.4,0,0,10.4,364.6,490.4)" />
<use xlink:href="#f1_2b" transform="matrix(10.4,0,0,10.4,369.9,490.4)" />
<use xlink:href="#f1_2c" transform="matrix(10.4,0,0,10.4,378.7,490.4)" />
<use xlink:href="#f1_h" transform="matrix(10.4,0,0,10.4,387.5,490.4)" />
<use xlink:href="#f1_m" transform="matrix(10.4,0,0,10.4,392.8,490.4)" />
<use xlink:href="#f1_h" transform="matrix(10.4,0,0,10.4,401.6,490.4)" />
<use xlink:href="#f1_21" transform="matrix(10.4,0,0,10.4,406.9,490.4)" />
<use xlink:href="#f1_2a" transform="matrix(10.4,0,0,10.4,415.7,490.4)" />
<use xlink:href="#f1_21" transform="matrix(10.4,0,0,10.4,424.5,490.4)" />
<use xlink:href="#f1_c" transform="matrix(10.4,0,0,10.4,85.2,559.9)" />
<use xlink:href="#f1_25" transform="matrix(10.4,0,0,10.4,90.7,559.9)" />
<use xlink:href="#f1_25" transform="matrix(10.4,0,0,10.4,94.5,559.9)" />
<use xlink:href="#f1_d" transform="matrix(10.4,0,0,10.4,98.2,559.9)" />
</g>
<image preserveAspectRatio="none" x="128" y="517" width="238" height="25" xlink:href="img/14.png" />
<image preserveAspectRatio="none" x="128" y="542" width="238" height="24" xlink:href="img/15.png" />
<image preserveAspectRatio="none" x="128" y="566" width="238" height="24" xlink:href="img/16.png" />
<g fill="#000000" >
<use xlink:href="#f1_o" transform="matrix(10.4,0,0,10.4,375.2,559.9)" />
<use xlink:href="#f1_1jz" transform="matrix(10.4,0,0,10.4,384,559.9)" />
<use xlink:href="#f1_1y" transform="matrix(10.4,0,0,10.4,393,559.9)" />
<use xlink:href="#f1_2e" transform="matrix(10.4,0,0,10.4,401.8,559.9)" />
<use xlink:href="#f1_2b" transform="matrix(10.4,0,0,10.4,407.1,559.9)" />
<use xlink:href="#f1_29" transform="matrix(10.4,0,0,10.4,415.9,559.9)" />
<use xlink:href="#f1_2b" transform="matrix(10.4,0,0,10.4,429.6,559.9)" />
<use xlink:href="#f1_h" transform="matrix(10.4,0,0,10.4,438.4,559.9)" />
<use xlink:href="#f1_m" transform="matrix(10.4,0,0,10.4,443.8,559.9)" />
<use xlink:href="#f1_g" transform="matrix(10.4,0,0,10.4,452.6,559.9)" />
<use xlink:href="#f1_o" transform="matrix(10.4,0,0,10.4,465.9,559.9)" />
<use xlink:href="#f1_h" transform="matrix(10.4,0,0,10.4,474.7,559.9)" />
<use xlink:href="#f1_20" transform="matrix(10.4,0,0,10.4,480.1,559.9)" />
<use xlink:href="#f1_25" transform="matrix(10.4,0,0,10.4,488.9,559.9)" />
<use xlink:href="#f1_29" transform="matrix(10.4,0,0,10.4,492.5,559.9)" />
<use xlink:href="#f1_21" transform="matrix(10.4,0,0,10.4,506.1,559.9)" />
<use xlink:href="#f1_2g" transform="matrix(10.4,0,0,10.4,514.9,559.9)" />
<use xlink:href="#f1_24" transform="matrix(10.4,0,0,10.4,519.3,559.9)" />
<use xlink:href="#f1_2l" transform="matrix(10.4,0,0,10.4,528.1,559.9)" />
<use xlink:href="#f1_28" transform="matrix(10.4,0,0,10.4,535.8,559.9)" />
<use xlink:href="#f1_24" transform="matrix(10.4,0,0,10.4,539.3,559.9)" />
<use xlink:href="#f1_21" transform="matrix(10.4,0,0,10.4,548.1,559.9)" />
<use xlink:href="#f1_2k" transform="matrix(10.4,0,0,10.4,556.9,559.9)" />
<use xlink:href="#f1_1x" transform="matrix(10.4,0,0,10.4,564.9,559.9)" />
<use xlink:href="#f1_2a" transform="matrix(10.4,0,0,10.4,573.7,559.9)" />
<use xlink:href="#f1_21" transform="matrix(10.4,0,0,10.4,582.5,559.9)" />
<use xlink:href="#f1_c" transform="matrix(10.4,0,0,10.4,85.2,632.3)" />
<use xlink:href="#f1_25" transform="matrix(10.4,0,0,10.4,90.7,632.3)" />
<use xlink:href="#f1_25" transform="matrix(10.4,0,0,10.4,94.3,632.3)" />
<use xlink:href="#f1_25" transform="matrix(10.4,0,0,10.4,98,632.3)" />
<use xlink:href="#f1_d" transform="matrix(10.4,0,0,10.4,101.7,632.3)" />
</g>
<image preserveAspectRatio="none" x="128" y="618" width="194" height="28" xlink:href="img/17.png" />
<image preserveAspectRatio="none" x="128" y="646" width="194" height="28" xlink:href="img/18.png" />
<g fill="#000000" >
<use xlink:href="#f1_g" transform="matrix(10.4,0,0,10.4,321.9,632.3)" />
<use xlink:href="#f1_m" transform="matrix(10.4,0,0,10.4,335.4,632.3)" />
<use xlink:href="#f1_1jz" transform="matrix(10.4,0,0,10.4,344.4,632.3)" />
<use xlink:href="#f1_29" transform="matrix(10.4,0,0,10.4,353.4,632.3)" />
<use xlink:href="#f1_21" transform="matrix(10.4,0,0,10.4,367.3,632.3)" />
<use xlink:href="#f1_2g" transform="matrix(10.4,0,0,10.4,376.3,632.3)" />
<use xlink:href="#f1_24" transform="matrix(10.4,0,0,10.4,380.9,632.3)" />
<use xlink:href="#f1_2l" transform="matrix(10.4,0,0,10.4,389.9,632.3)" />
<use xlink:href="#f1_28" transform="matrix(10.4,0,0,10.4,397.6,632.3)" />
<use xlink:href="#f1_1jz" transform="matrix(10.4,0,0,10.4,401.2,632.3)" />
<use xlink:href="#f1_n" transform="matrix(10.4,0,0,10.4,410.2,632.3)" />
<use xlink:href="#f1_1jz" transform="matrix(10.4,0,0,10.4,419.2,632.3)" />
<use xlink:href="#f1_2c" transform="matrix(10.4,0,0,10.4,428.3,632.3)" />
<use xlink:href="#f1_24" transform="matrix(10.4,0,0,10.4,437.3,632.3)" />
<use xlink:href="#f1_21" transform="matrix(10.4,0,0,10.4,446.3,632.3)" />
<use xlink:href="#f1_2a" transform="matrix(10.4,0,0,10.4,455.3,632.3)" />
<use xlink:href="#f1_2l" transform="matrix(10.4,0,0,10.4,464.3,632.3)" />
<use xlink:href="#f1_28" transform="matrix(10.4,0,0,10.4,472,632.3)" />
<use xlink:href="#f1_2c" transform="matrix(10.4,0,0,10.4,475.6,632.3)" />
<use xlink:href="#f1_21" transform="matrix(10.4,0,0,10.4,484.6,632.3)" />
<use xlink:href="#f1_2a" transform="matrix(10.4,0,0,10.4,493.8,632.3)" />
<use xlink:href="#f1_2g" transform="matrix(10.4,0,0,10.4,502.8,632.3)" />
<use xlink:href="#f1_1x" transform="matrix(10.4,0,0,10.4,507.3,632.3)" />
<use xlink:href="#f1_2a" transform="matrix(10.4,0,0,10.4,516.3,632.3)" />
<use xlink:href="#f1_21" transform="matrix(10.4,0,0,10.4,525.3,632.3)" />
<use xlink:href="#f1_c" transform="matrix(10.4,0,0,10.4,85.2,709.5)" />
<use xlink:href="#f1_25" transform="matrix(10.4,0,0,10.4,90.9,709.5)" />
<use xlink:href="#f1_2i" transform="matrix(10.4,0,0,10.4,94.5,709.5)" />
<use xlink:href="#f1_d" transform="matrix(10.4,0,0,10.4,102.8,709.5)" />
</g>
<image preserveAspectRatio="none" x="128" y="697" width="235" height="22" xlink:href="img/19.png" />
<image preserveAspectRatio="none" x="128" y="719" width="235" height="21" xlink:href="img/20.png" />
<g fill="#000000" >
<use xlink:href="#f1_g" transform="matrix(10.4,0,0,10.4,363.5,709.5)" />
<use xlink:href="#f1_p" transform="matrix(10.4,0,0,10.4,375.6,709.5)" />
<use xlink:href="#f1_1jz" transform="matrix(10.4,0,0,10.4,384.4,709.5)" />
<use xlink:href="#f1_2b" transform="matrix(10.4,0,0,10.4,393.2,709.5)" />
<use xlink:href="#f1_2k" transform="matrix(10.4,0,0,10.4,402,709.5)" />
<use xlink:href="#f1_2b" transform="matrix(10.4,0,0,10.4,409.8,709.5)" />
<use xlink:href="#f1_24" transform="matrix(10.4,0,0,10.4,418.6,709.5)" />
<use xlink:href="#f1_21" transform="matrix(10.4,0,0,10.4,427.4,709.5)" />
<use xlink:href="#f1_2k" transform="matrix(10.4,0,0,10.4,436.2,709.5)" />
<use xlink:href="#f1_1x" transform="matrix(10.4,0,0,10.4,444.1,709.5)" />
<use xlink:href="#f1_2a" transform="matrix(10.4,0,0,10.4,452.9,709.5)" />
<use xlink:href="#f1_2b" transform="matrix(10.4,0,0,10.4,461.7,709.5)" />
<use xlink:href="#f1_25" transform="matrix(10.4,0,0,10.4,470.5,709.5)" />
<use xlink:href="#f1_1z" transform="matrix(10.4,0,0,10.4,474,709.5)" />
<use xlink:href="#f1_1x" transform="matrix(10.4,0,0,10.4,490,709.5)" />
<use xlink:href="#f1_1z" transform="matrix(10.4,0,0,10.4,498.8,709.5)" />
<use xlink:href="#f1_25" transform="matrix(10.4,0,0,10.4,506.8,709.5)" />
<use xlink:href="#f1_20" transform="matrix(10.4,0,0,10.4,510.3,709.5)" />
<use xlink:href="#f3_l" transform="matrix(12,0,0,12,655.5,1032.4)" />
<use xlink:href="#f3_k" transform="matrix(12,0,0,12,665.7,1032.4)" />
</g>
<g fill="#0080FF" fill-opacity="0.5" >
<use xlink:href="#f0_1c" transform="matrix(38.6,0,0,38.6,185.2,1050.5)" />
<use xlink:href="#f0_21" transform="matrix(38.6,0,0,38.6,218,1050.5)" />
<use xlink:href="#f0_1x" transform="matrix(38.6,0,0,38.6,250.8,1050.5)" />
<use xlink:href="#f0_2e" transform="matrix(38.6,0,0,38.6,283.7,1050.5)" />
<use xlink:href="#f0_2a" transform="matrix(38.6,0,0,38.6,303.3,1050.5)" />
<use xlink:href="#f0_17" transform="matrix(38.6,0,0,38.6,336.1,1050.5)" />
<use xlink:href="#f0_2h" transform="matrix(38.6,0,0,38.6,382,1050.5)" />
<use xlink:href="#f0_25" transform="matrix(38.6,0,0,38.6,414.8,1050.5)" />
<use xlink:href="#f0_20" transform="matrix(38.6,0,0,38.6,427.9,1050.5)" />
<use xlink:href="#f0_21" transform="matrix(38.6,0,0,38.6,460.7,1050.5)" />
<use xlink:href="#f0_i" transform="matrix(38.6,0,0,38.6,493.5,1050.5)" />
<use xlink:href="#f0_25" transform="matrix(38.6,0,0,38.6,509.9,1050.5)" />
<use xlink:href="#f0_2a" transform="matrix(38.6,0,0,38.6,523,1050.5)" />
</g>
<defs>
<path d="M593,101c0,0,182,0,279,112c0,0,98,113,98,318c0,0,0,196,-98,308c0,0,-98,112,-277,112c0,0,-181,0,-279,-110c0,0,-99,-111,-99,-310c0,0,0,-198,100,-314c0,0,99,-116,276,-116Zm0,-115c0,0,-162,0,-279,65c0,0,-118,66,-180,190c0,0,-62,124,-62,290c0,0,0,252,138,394c0,0,138,142,385,142c0,0,160,0,278,-64c0,0,118,-64,180,-185c0,0,62,-122,62,-287c0,0,0,-165,-63,-289c0,0,-63,-124,-181,-190c0,0,-118,-66,-278,-66Z" 
id="f0_1f"
transform="scale(0.001,-0.001)" />

<path d="M106,0V635c0,0,0,141,-5,173H228c0,0,1,-4,2,-21c0,0,1,-16,2,-37c0,0,1,-22,2,-81h2c0,0,47,84,108,119c0,0,60,34,151,34c0,0,132,0,194,-66c0,0,61,-66,61,-218V0H615V512c0,0,0,80,-15,124c0,0,-16,44,-50,63c0,0,-35,20,-101,20c0,0,-97,0,-153,-67c0,0,-56,-66,-56,-184V0Z" 
id="f0_2a"
transform="scale(0.001,-0.001)" />

<path d="M103,0V1107H237V0Z" 
id="f0_28"
transform="scale(0.001,-0.001)" />

<path d="M102,0V808H236V0Zm0,979v128H236V979Z" 
id="f0_25"
transform="scale(0.001,-0.001)" />

<path d="M643,478c0,0,-11,128,-65,187c0,0,-54,59,-154,59c0,0,-98,0,-155,-66c0,0,-57,-65,-62,-180ZM431,-14c0,0,-179,0,-272,106c0,0,-94,107,-94,317c0,0,0,200,94,307c0,0,93,106,267,106c0,0,356,0,356,-429V375H206c0,0,0,-138,57,-213c0,0,58,-75,168,-75c0,0,87,0,140,35c0,0,53,35,71,88L760,177c0,0,-72,-191,-329,-191Z" 
id="f0_21"
transform="scale(0.001,-0.001)" />

<path d="M17,0L304,415L31,808H179L380,493L580,808H730L457,417L747,0H598L380,331L162,0Z" 
id="f0_2k"
transform="scale(0.001,-0.001)" />

<path d="M339,87c0,0,74,0,132,34c0,0,57,33,90,91c0,0,34,59,34,121v66L448,396c0,0,-95,-2,-144,-19c0,0,-49,-18,-75,-55c0,0,-26,-38,-26,-98c0,0,0,-65,35,-101c0,0,36,-36,101,-36ZM309,-14c0,0,-122,0,-183,64c0,0,-61,64,-61,176c0,0,0,125,82,192c0,0,83,67,266,72l182,3v44c0,0,0,98,-42,141c0,0,-42,43,-132,43c0,0,-90,0,-131,-31c0,0,-41,-31,-49,-98L101,604c0,0,34,218,323,218c0,0,153,0,229,-70c0,0,77,-69,77,-202V202c0,0,0,-59,16,-90c0,0,16,-30,60,-30c0,0,19,0,44,5V4C850,4,799,-7,746,-7c0,0,-75,0,-109,38c0,0,-33,40,-38,124h-4C595,155,543,62,475,24c0,0,-68,-38,-166,-38Z" 
id="f0_1x"
transform="scale(0.001,-0.001)" />

<path d="M106,0V635c0,0,0,141,-5,173H228c0,0,1,-4,2,-21c0,0,1,-16,2,-37c0,0,1,-22,2,-81h2c0,0,44,86,100,120c0,0,56,33,136,33c0,0,92,0,145,-36c0,0,54,-37,75,-117h2c0,0,42,82,101,117c0,0,59,36,143,36c0,0,123,0,178,-66c0,0,56,-67,56,-218V0H1039V512c0,0,0,117,-32,162c0,0,-32,45,-116,45c0,0,-88,0,-136,-66c0,0,-49,-65,-49,-185V0H573V512c0,0,0,117,-32,162c0,0,-32,45,-116,45c0,0,-86,0,-136,-66c0,0,-50,-66,-50,-185V0Z" 
id="f0_29"
transform="scale(0.001,-0.001)" />

<path d="M453,84c0,0,100,0,146,74c0,0,46,73,46,247c0,0,0,169,-46,241c0,0,-45,73,-145,73c0,0,-80,0,-125,-34c0,0,-45,-34,-68,-105c0,0,-24,-71,-24,-186c0,0,0,-159,51,-234c0,0,51,-76,165,-76ZM103,-316V643c0,0,0,124,-5,165H228c0,0,1,-3,3,-22c0,0,1,-18,3,-56c0,0,2,-38,2,-52h3c0,0,36,75,94,110c0,0,59,34,156,34c0,0,149,0,223,-100c0,0,74,-100,74,-314c0,0,0,-422,-297,-422c0,0,-187,0,-251,140h-4c0,0,3,-6,3,-126V-316Z" 
id="f0_2c"
transform="scale(0.001,-0.001)" />

<path d="M420,84c0,0,121,0,173,78c0,0,52,77,52,243c0,0,0,167,-50,243c0,0,-50,76,-167,76c0,0,-118,0,-170,-78c0,0,-53,-77,-53,-241c0,0,0,-160,52,-241c0,0,52,-80,163,-80Zm1,-98c0,0,-176,0,-267,107c0,0,-90,108,-90,312c0,0,0,417,362,417c0,0,185,0,272,-102c0,0,88,-101,88,-315c0,0,0,-212,-94,-316C692,89,599,-14,421,-14Z" 
id="f0_2b"
transform="scale(0.001,-0.001)" />

<path d="M278,-11c0,0,-162,0,-162,182V710H23v98h99l39,181h90V808H400V710H251V200c0,0,0,-58,19,-82c0,0,19,-23,66,-23c0,0,27,0,77,10V6c0,0,-66,-17,-135,-17Z" 
id="f0_2g"
transform="scale(0.001,-0.001)" />

<path d="M410,514L298,707L181,516L93,570L233,755L25,809L58,909L257,829l-9,222H350L340,831l197,77l34,-99L360,755L498,568L410,514Z" 
id="f1_e"
transform="scale(0.001,-0.001)" />

<path d="M77,0V95c0,0,38,87,93,154c0,0,55,67,115,121c0,0,60,54,120,100c0,0,59,46,107,93c0,0,47,46,77,97c0,0,29,50,29,114c0,0,0,87,-50,135c0,0,-51,47,-141,47c0,0,-86,0,-142,-46c0,0,-55,-47,-65,-131L83,791c0,0,15,126,107,201c0,0,92,75,237,75c0,0,159,0,244,-75c0,0,85,-75,85,-213c0,0,0,-61,-28,-122c0,0,-28,-60,-83,-120c0,0,-55,-61,-211,-188c0,0,-86,-70,-136,-126c0,0,-51,-56,-73,-109H773V0Z" 
id="f1_m"
transform="scale(0.001,-0.001)" />

<path d="M116,0V114H384V923L147,754V881l248,170H519V114H775V0Z" 
id="f1_l"
transform="scale(0.001,-0.001)" />

<path d="M140,0V163H285V0Z" 
id="f1_i"
transform="scale(0.001,-0.001)" />

<path d="M708,418L573,765c0,0,-21,52,-42,117l-20,62l-7,-21c0,0,-18,-62,-55,-159L315,418ZM3,0L432,1051H594L1016,0H871L750,307H272L151,0Z" 
id="f1_11"
transform="scale(0.001,-0.001)" />

<path d="M106,0V635c0,0,0,141,-5,173H228c0,0,1,-4,2,-21c0,0,1,-16,2,-37c0,0,1,-22,2,-81h2c0,0,47,84,108,119c0,0,60,34,151,34c0,0,132,0,194,-66c0,0,61,-66,61,-218V0H615V512c0,0,0,80,-15,124c0,0,-16,44,-50,63c0,0,-35,20,-101,20c0,0,-97,0,-153,-67c0,0,-56,-66,-56,-184V0Z" 
id="f1_2a"
transform="scale(0.001,-0.001)" />

<path d="M420,84c0,0,121,0,173,78c0,0,52,77,52,243c0,0,0,167,-50,243c0,0,-50,76,-167,76c0,0,-118,0,-170,-78c0,0,-53,-77,-53,-241c0,0,0,-160,52,-241c0,0,52,-80,163,-80Zm1,-98c0,0,-176,0,-267,107c0,0,-90,108,-90,312c0,0,0,417,362,417c0,0,185,0,272,-102c0,0,88,-101,88,-315c0,0,0,-212,-94,-316C692,89,599,-14,421,-14Z" 
id="f1_2b"
transform="scale(0.001,-0.001)" />

<path d="M106,0V620c0,0,0,85,-5,188H228c0,0,6,-138,6,-165h3c0,0,32,103,74,141c0,0,42,38,118,38c0,0,27,0,54,-7V692c0,0,-26,7,-71,7c0,0,-84,0,-128,-72c0,0,-44,-72,-44,-206V0Z" 
id="f1_2e"
transform="scale(0.001,-0.001)" />

<path d="M398,93c0,0,63,0,112,37c0,0,49,38,76,107c0,0,27,70,27,166c0,0,0,99,-27,170c0,0,-27,71,-75,109c0,0,-49,38,-111,38c0,0,-103,0,-150,-75c0,0,-47,-75,-47,-242c0,0,0,-165,44,-238c0,0,44,-72,151,-72Zm11,-409c0,0,-132,0,-211,52c0,0,-78,52,-100,147l135,20c0,0,13,-56,59,-87c0,0,46,-30,121,-30c0,0,200,0,200,234V150h-1C612,150,574,72,507,33C507,33,441,-5,352,-5c0,0,-148,0,-218,98c0,0,-70,98,-70,309c0,0,0,214,75,316c0,0,75,101,228,101c0,0,86,0,149,-39c0,0,63,-39,97,-111h2c0,0,0,22,3,78c0,0,3,55,6,61H751c0,0,-4,-41,-4,-167V23c0,0,0,-339,-338,-339Z" 
id="f1_23"
transform="scale(0.001,-0.001)" />

<path d="M339,87c0,0,74,0,132,34c0,0,57,33,90,91c0,0,34,59,34,121v66L448,396c0,0,-95,-2,-144,-19c0,0,-49,-18,-75,-55c0,0,-26,-38,-26,-98c0,0,0,-65,35,-101c0,0,36,-36,101,-36ZM309,-14c0,0,-122,0,-183,64c0,0,-61,64,-61,176c0,0,0,125,82,192c0,0,83,67,266,72l182,3v44c0,0,0,98,-42,141c0,0,-42,43,-132,43c0,0,-90,0,-131,-31c0,0,-41,-31,-49,-98L101,604c0,0,34,218,323,218c0,0,153,0,229,-70c0,0,77,-69,77,-202V202c0,0,0,-59,16,-90c0,0,16,-30,60,-30c0,0,19,0,44,5V4C850,4,799,-7,746,-7c0,0,-75,0,-109,38c0,0,-33,40,-38,124h-4C595,155,543,62,475,24c0,0,-68,-38,-166,-38Z" 
id="f1_1x"
transform="scale(0.001,-0.001)" />

<path d="M102,0V808H236V0Zm0,979v128H236V979Z" 
id="f1_25"
transform="scale(0.001,-0.001)" />

<path d="M413,-14c0,0,-170,0,-259,106c0,0,-89,107,-89,313c0,0,0,203,89,310c0,0,90,107,257,107c0,0,124,0,206,-64c0,0,81,-64,102,-177L581,571c0,0,-10,67,-53,106c0,0,-42,40,-121,40c0,0,-106,0,-154,-71c0,0,-48,-71,-48,-239c0,0,0,-161,51,-238c0,0,51,-78,153,-78c0,0,71,0,120,39c0,0,48,39,59,119l136,-9C724,240,708,124,624,55c0,0,-83,-69,-211,-69Z" 
id="f1_1z"
transform="scale(0.001,-0.001)" />

<path d="M106,0V635c0,0,0,141,-5,173H228c0,0,1,-4,2,-21c0,0,1,-16,2,-37c0,0,1,-22,2,-81h2c0,0,44,86,100,120c0,0,56,33,136,33c0,0,92,0,145,-36c0,0,54,-37,75,-117h2c0,0,42,82,101,117c0,0,59,36,143,36c0,0,123,0,178,-66c0,0,56,-67,56,-218V0H1039V512c0,0,0,117,-32,162c0,0,-32,45,-116,45c0,0,-88,0,-136,-66c0,0,-49,-65,-49,-185V0H573V512c0,0,0,117,-32,162c0,0,-32,45,-116,45c0,0,-86,0,-136,-66c0,0,-50,-66,-50,-185V0Z" 
id="f1_29"
transform="scale(0.001,-0.001)" />

<path d="M453,84c0,0,100,0,146,74c0,0,46,73,46,247c0,0,0,169,-46,241c0,0,-45,73,-145,73c0,0,-80,0,-125,-34c0,0,-45,-34,-68,-105c0,0,-24,-71,-24,-186c0,0,0,-159,51,-234c0,0,51,-76,165,-76ZM103,-316V643c0,0,0,124,-5,165H228c0,0,1,-3,3,-22c0,0,1,-18,3,-56c0,0,2,-38,2,-52h3c0,0,36,75,94,110c0,0,59,34,156,34c0,0,149,0,223,-100c0,0,74,-100,74,-314c0,0,0,-422,-297,-422c0,0,-187,0,-251,140h-4c0,0,3,-6,3,-126V-316Z" 
id="f1_2c"
transform="scale(0.001,-0.001)" />

<path d="M355,-14c0,0,-133,0,-194,65c0,0,-62,66,-62,219V808H234V296c0,0,0,-80,16,-124c0,0,16,-44,50,-64c0,0,34,-19,101,-19c0,0,97,0,153,66c0,0,55,67,55,185V808H744V172c0,0,0,-141,4,-172H621c0,0,0,4,-1,20c0,0,-1,17,-2,38c0,0,-1,21,-3,80h-2C613,138,567,55,506,20c0,0,-61,-34,-151,-34Z" 
id="f1_2h"
transform="scale(0.001,-0.001)" />

<path d="M395,89c0,0,115,0,166,79c0,0,51,79,51,246c0,0,0,160,-51,235c0,0,-51,75,-164,75c0,0,-102,0,-147,-75c0,0,-45,-75,-45,-244c0,0,0,-170,45,-243c0,0,45,-73,145,-73ZM361,-14c0,0,-153,0,-225,102c0,0,-72,103,-72,312c0,0,0,422,297,422c0,0,92,0,153,-33c0,0,61,-34,98,-107h2l-2,90v335H747V166c0,0,0,-126,4,-166H623c0,0,-2,12,-5,55c0,0,-3,44,-3,75h-3c0,0,-37,-78,-98,-111c0,0,-62,-33,-153,-33Z" 
id="f1_20"
transform="scale(0.001,-0.001)" />

<path d="M370,-316c0,0,-141,152,-208,323C162,7,95,179,95,394v3c0,0,0,215,67,387c0,0,68,171,208,323H500c0,0,-140,-155,-205,-330c0,0,-65,-175,-65,-382c0,0,0,-207,64,-381c0,0,65,-172,206,-330Z" 
id="f1_c"
transform="scale(0.001,-0.001)" />

<path d="M9,-316c0,0,140,157,205,329c0,0,65,174,65,382c0,0,0,208,-65,382c0,0,-66,174,-205,330H139c0,0,141,-152,208,-324c0,0,67,-172,67,-386v-3c0,0,0,-216,-67,-388c0,0,-68,-170,-208,-322Z" 
id="f1_d"
transform="scale(0.001,-0.001)" />

<path d="M615,0V512c0,0,0,85,-15,126c0,0,-16,42,-52,61c0,0,-36,20,-99,20c0,0,-95,0,-152,-66c0,0,-57,-66,-57,-177V0H106V1107H240V819c0,0,0,-45,-2,-94c0,0,-3,-48,-4,-56h2c0,0,44,79,105,116c0,0,60,37,154,37c0,0,131,0,193,-65c0,0,62,-65,62,-219V0Z" 
id="f1_24"
transform="scale(0.001,-0.001)" />

<path d="M298,0L5,808H148L326,282c0,0,10,-29,51,-176l27,87l29,88L616,808H759L457,0Z" 
id="f1_2i"
transform="scale(0.001,-0.001)" />

<path d="M103,0V1107H237V0Z" 
id="f1_28"
transform="scale(0.001,-0.001)" />

<path d="M643,478c0,0,-11,128,-65,187c0,0,-54,59,-154,59c0,0,-98,0,-155,-66c0,0,-57,-65,-62,-180ZM431,-14c0,0,-179,0,-272,106c0,0,-94,107,-94,317c0,0,0,200,94,307c0,0,93,106,267,106c0,0,356,0,356,-429V375H206c0,0,0,-138,57,-213c0,0,58,-75,168,-75c0,0,87,0,140,35c0,0,53,35,71,88L760,177c0,0,-72,-191,-329,-191Z" 
id="f1_21"
transform="scale(0.001,-0.001)" />

<path d="M135,0V710H22v98H135v91c0,0,0,110,49,158c0,0,48,49,148,49c0,0,56,0,95,-9V994c0,0,-34,6,-60,6c0,0,-51,0,-75,-26c0,0,-23,-26,-23,-94V808H427V710H269V0Z" 
id="f1_22"
transform="scale(0.001,-0.001)" />

<path d="M590,-14c0,0,-159,0,-275,65c0,0,-116,66,-177,189c0,0,-60,123,-60,291c0,0,0,251,135,393c0,0,136,143,376,143c0,0,168,0,281,-66c0,0,112,-66,165,-195L900,762c0,0,-36,92,-117,141c0,0,-81,48,-192,48c0,0,-175,0,-272,-112c0,0,-97,-112,-97,-308c0,0,0,-193,101,-311c0,0,101,-117,274,-117c0,0,221,0,332,218l116,-58c0,0,-65,-136,-182,-207c0,0,-118,-70,-273,-70Z" 
id="f1_13"
transform="scale(0.001,-0.001)" />

<path d="M426,-14c0,0,-160,0,-255,71c0,0,-95,72,-113,213l139,13c0,0,27,-187,229,-187c0,0,101,0,159,50c0,0,58,50,58,149c0,0,0,86,-66,134c0,0,-66,48,-191,48H310V594h73c0,0,111,0,172,48c0,0,60,48,60,133c0,0,0,84,-49,132c0,0,-50,49,-147,49c0,0,-89,0,-144,-45c0,0,-55,-46,-64,-129L76,793c0,0,15,129,107,201c0,0,92,73,237,73c0,0,158,0,246,-74c0,0,87,-73,87,-204c0,0,0,-101,-56,-164c0,0,-56,-63,-164,-85v-3c0,0,118,-13,184,-79c0,0,66,-67,66,-167c0,0,0,-146,-93,-226c0,0,-92,-79,-264,-79Z" 
id="f1_n"
transform="scale(0.001,-0.001)" />

<path d="M125,0V1051H268V606H836v445H979V0H836V487H268V0Z" 
id="f1_18"
transform="scale(0.001,-0.001)" />

<path d="M272,0c0,0,0,201,86,424c0,0,85,223,285,513H78v114H773V942C773,942,612,696,545,556c0,0,-66,-139,-99,-275C446,281,413,145,413,0Z" 
id="f1_r"
transform="scale(0.001,-0.001)" />

<path d="M278,-11c0,0,-162,0,-162,182V710H23v98h99l39,181h90V808H400V710H251V200c0,0,0,-58,19,-82c0,0,19,-23,66,-23c0,0,27,0,77,10V6c0,0,-66,-17,-135,-17Z" 
id="f1_2g"
transform="scale(0.001,-0.001)" />

<path d="M224,0L-1,808H131L267,259c0,0,5,-18,32,-147l13,55L480,808H624L765,253L800,112l23,103L976,808h131L876,0H720L579,571L552,697c0,0,-7,-33,-21,-96C531,601,517,537,379,0Z" 
id="f1_2j"
transform="scale(0.001,-0.001)" />

<path d="M381,-14c0,0,-150,0,-232,49C149,35,67,85,43,190l118,23c0,0,17,-65,71,-96c0,0,54,-30,149,-30c0,0,102,0,150,31c0,0,47,32,47,95c0,0,0,47,-33,77c0,0,-33,30,-106,49l-96,26c0,0,-115,30,-164,58c0,0,-49,29,-77,70c0,0,-27,41,-27,101c0,0,0,110,78,168c0,0,79,57,230,57c0,0,133,0,212,-47c0,0,79,-47,100,-150L574,607c0,0,-12,53,-60,82c0,0,-49,29,-131,29c0,0,-91,0,-135,-28c0,0,-43,-27,-43,-83c0,0,0,-34,18,-57c0,0,18,-22,53,-38c0,0,35,-15,148,-43c0,0,106,-27,153,-50c0,0,47,-22,75,-50c0,0,27,-27,42,-64c0,0,15,-36,15,-82c0,0,0,-114,-86,-176c0,0,-87,-61,-242,-61Z" 
id="f1_2f"
transform="scale(0.001,-0.001)" />

<path d="M125,0V1051H268V524l506,527H942L495,595L1002,0H825L405,507L268,403V0Z" 
id="f1_1b"
transform="scale(0.001,-0.001)" />

<path d="M125,0V1051H291L859,150c0,0,-9,146,-9,212v689H979V0H807L245,895l3,-72l4,-125V0Z" 
id="f1_1e"
transform="scale(0.001,-0.001)" />

<path d="M545,114c0,0,130,0,190,49c0,0,59,48,59,144c0,0,0,186,-261,186H268V114ZM507,604c0,0,114,0,171,43c0,0,56,43,56,132c0,0,0,85,-58,121c0,0,-58,37,-169,37H268V604ZM125,0V1051H507c0,0,370,0,370,-255c0,0,0,-93,-52,-157c0,0,-52,-63,-148,-85c0,0,126,-15,194,-84c0,0,67,-69,67,-174c0,0,0,-140,-102,-218C836,78,734,0,552,0Z" 
id="f1_12"
transform="scale(0.001,-0.001)" />

<path d="M395,0V936H34v115H898V936H537V0Z" 
id="f1_1k"
transform="scale(0.001,-0.001)" />

<path d="M142,-316c0,0,-55,0,-92,8v101c0,0,28,-4,63,-4c0,0,125,0,198,184L324,4L4,808H147L317,362c0,0,4,-11,9,-25c0,0,5,-15,34,-98c0,0,28,-83,30,-92l52,147L619,808H761L451,0c0,0,-50,-128,-94,-191c0,0,-43,-63,-96,-94c0,0,-52,-31,-119,-31Z" 
id="f1_2l"
transform="scale(0.001,-0.001)" />

<path d="M0,-14L307,1107H424L121,-14Z" 
id="f1_j"
transform="scale(0.001,-0.001)" />

<path d="M68,346V465H441V346Z" 
id="f1_h"
transform="scale(0.001,-0.001)" />

<path d="M453,84c0,0,101,0,146,75c0,0,46,75,46,244c0,0,0,169,-45,243c0,0,-45,73,-146,73c0,0,-113,0,-165,-78c0,0,-52,-78,-52,-246c0,0,0,-159,51,-235c0,0,51,-76,165,-76Zm36,-98c0,0,-92,0,-153,33c0,0,-61,33,-99,107h-1c0,0,0,-24,-3,-71c0,0,-3,-48,-5,-55H98c0,0,5,40,5,166v941H237V792c0,0,0,-49,-3,-114h3c0,0,38,77,99,111c0,0,62,33,153,33c0,0,153,0,225,-103c0,0,72,-103,72,-311c0,0,0,-422,-297,-422Z" 
id="f1_1y"
transform="scale(0.001,-0.001)" />

<path d="M141,0V1051H283V0Z" 
id="f1_19"
transform="scale(0.001,-0.001)" />

<path d="M137,-195c0,0,70,102,70,195H142V163H287V38c0,0,0,-78,-14,-131c0,0,-14,-53,-44,-102Z" 
id="f1_g"
transform="scale(0.001,-0.001)" />

<path d="M109,-316V1107H413v-96H239V-220H413v-96Z" 
id="f1_1r"
transform="scale(0.001,-0.001)" />

<path d="M703,434L599,736L567,838l-16,51l-4,-16c0,0,-8,-27,-18,-61c0,0,-11,-35,-128,-378ZM38,0L421,1051H681L1063,0H845L752,269H351L258,0Z" 
id="f2_11"
transform="scale(0.001,-0.001)" />

<path d="M107,0V627c0,0,0,65,-2,106c0,0,-2,42,-4,75H301c0,0,2,-15,6,-77c0,0,3,-61,3,-85h3c0,0,43,93,107,135c0,0,64,41,153,41c0,0,128,0,197,-79c0,0,68,-79,68,-231V0H630V452c0,0,0,213,-144,213c0,0,-76,0,-123,-65c0,0,-47,-66,-47,-168V0Z" 
id="f2_2a"
transform="scale(0.001,-0.001)" />

<path d="M426,-14c0,0,-166,0,-255,52C171,38,83,90,54,201l184,28c0,0,16,-57,54,-81c0,0,38,-24,134,-24c0,0,88,0,128,22c0,0,41,23,41,70c0,0,0,39,-33,62c0,0,-32,23,-110,38c0,0,-177,35,-239,65c0,0,-62,31,-95,79c0,0,-32,48,-32,118c0,0,0,115,89,180c0,0,89,64,252,64c0,0,144,0,232,-56c0,0,88,-56,109,-162L583,585c0,0,-9,49,-44,74c0,0,-35,24,-112,24c0,0,-74,0,-111,-19c0,0,-38,-19,-38,-64c0,0,0,-35,29,-55c0,0,29,-21,97,-34c0,0,94,-20,168,-40c0,0,73,-21,118,-49c0,0,44,-28,71,-73c0,0,26,-44,26,-113c0,0,0,-117,-96,-184c0,0,-96,-66,-265,-66Z" 
id="f2_2f"
transform="scale(0.001,-0.001)" />

<path d="M104,0V228H319V0Z" 
id="f2_i"
transform="scale(0.001,-0.001)" />

<path d="M147,0V209H362V0Zm0,562V771H362V562Z" 
id="f2_u"
transform="scale(0.001,-0.001)" />

<path d="M593,101c0,0,182,0,279,112c0,0,98,113,98,318c0,0,0,196,-98,308c0,0,-98,112,-277,112c0,0,-181,0,-279,-110c0,0,-99,-111,-99,-310c0,0,0,-198,100,-314c0,0,99,-116,276,-116Zm0,-115c0,0,-162,0,-279,65c0,0,-118,66,-180,190c0,0,-62,124,-62,290c0,0,0,252,138,394c0,0,138,142,385,142c0,0,160,0,278,-64c0,0,118,-64,180,-185c0,0,62,-122,62,-287c0,0,0,-165,-63,-289c0,0,-63,-124,-181,-190c0,0,-118,-66,-278,-66Z" 
id="f1_1f"
transform="scale(0.001,-0.001)" />

<path d="M502,114c0,0,116,0,203,51c0,0,88,51,135,146c0,0,47,96,47,225c0,0,0,196,-107,298c0,0,-107,103,-310,103H268V114ZM125,0V1051H473c0,0,267,0,412,-134c0,0,145,-134,145,-381c0,0,0,-162,-63,-284C967,252,903,130,787,65C787,65,671,0,518,0Z" 
id="f1_14"
transform="scale(0.001,-0.001)" />

<path d="M125,0V1051H923V936H268V597H878V482H268V115H953V0Z" 
id="f1_15"
transform="scale(0.001,-0.001)" />

<path d="M612,550c0,0,112,0,174,52c0,0,61,52,61,147c0,0,0,92,-62,140c0,0,-62,48,-179,48H268V550ZM125,0V1051H620c0,0,177,0,274,-79c0,0,97,-80,97,-221c0,0,0,-117,-69,-197c0,0,-68,-80,-188,-100L1032,0H868L595,437H268V0Z" 
id="f1_1i"
transform="scale(0.001,-0.001)" />

<path d="M54,896v15l162,213H370v-21L124,896Z" 
id="f1_3b"
transform="scale(0.001,-0.001)" />

<path d="M395,89c0,0,115,0,166,81c0,0,51,82,51,244c0,0,0,157,-51,233c0,0,-51,77,-164,77c0,0,-102,0,-147,-77c0,0,-45,-76,-45,-242c0,0,0,-170,45,-243c0,0,45,-73,145,-73ZM612,-316V11l3,122h-1c0,0,-40,-80,-99,-114c0,0,-59,-33,-154,-33c0,0,-154,0,-225,103c0,0,-72,104,-72,311c0,0,0,422,297,422c0,0,92,0,151,-32c0,0,60,-33,100,-108h2c0,0,0,22,3,77c0,0,3,55,6,58H752c0,0,-5,-44,-5,-220V-316Z" 
id="f1_2d"
transform="scale(0.001,-0.001)" />

<path d="M140,0V154H285V0Zm0,653V808H285V653Z" 
id="f1_u"
transform="scale(0.001,-0.001)" />

<path d="M316,0L7,1051H155L344,383c0,0,33,-125,62,-258c0,0,18,82,41,179c0,0,24,97,207,747H791L974,397c0,0,41,-160,65,-272l7,26c0,0,20,86,33,140c0,0,12,54,209,760h149L1127,0H957L775,668c0,0,-18,62,-52,224c0,0,-20,-86,-33,-145C690,747,677,689,486,0Z" 
id="f1_1n"
transform="scale(0.001,-0.001)" />

<path d="M545,-14c0,0,-129,0,-225,46c0,0,-96,47,-149,137c0,0,-53,89,-53,213v669H260V394c0,0,0,-144,73,-219c0,0,74,-74,212,-74c0,0,141,0,220,77c0,0,79,77,79,226v647H985V396c0,0,0,-128,-54,-220C931,176,877,83,778,34c0,0,-98,-48,-233,-48Z" 
id="f1_1l"
transform="scale(0.001,-0.001)" />

<path d="M557,522c0,0,238,0,238,211c0,0,0,204,-244,204H268V522ZM125,0V1051H568c0,0,176,0,273,-83c0,0,97,-82,97,-233c0,0,0,-149,-97,-237c0,0,-97,-88,-264,-88H268V0Z" 
id="f1_1g"
transform="scale(0.001,-0.001)" />

<path d="M0,336V439H849V336Z" 
id="f1_1jz"
transform="scale(0.001,-0.001)" />

<path d="M75,256V367H817V256Zm0,383V749H817V639Z" 
id="f1_x"
transform="scale(0.001,-0.001)" />

<path d="M137,-195c0,0,70,102,70,195H142V154H287V38c0,0,0,-78,-14,-131c0,0,-14,-53,-44,-102Zm5,848V808H287V653Z" 
id="f1_v"
transform="scale(0.001,-0.001)" />

<path d="M530,344V900c0,0,-1,-5,-20,-40c0,0,-20,-35,-30,-49L211,414L171,359L159,344ZM530,0V239H35V343l481,708H657V344H805V239H657V0Z" 
id="f1_o"
transform="scale(0.001,-0.001)" />

<path d="M17,0L304,415L31,808H179L380,493L580,808H730L457,417L747,0H598L380,331L162,0Z" 
id="f1_2k"
transform="scale(0.001,-0.001)" />

<path d="M413,-14c0,0,-147,0,-238,64c0,0,-90,64,-114,185l136,16c0,0,42,-155,219,-155c0,0,108,0,169,65c0,0,61,65,61,179c0,0,0,98,-62,159c0,0,-61,61,-165,61c0,0,-55,0,-102,-17c0,0,-47,-17,-94,-58H92l35,566H724V937H249L229,604c0,0,87,67,217,67c0,0,155,0,247,-91c0,0,93,-91,93,-237c0,0,0,-167,-99,-262c0,0,-99,-95,-274,-95Z" 
id="f1_p"
transform="scale(0.001,-0.001)" />

<path d="M435,0V856c0,0,-48,-47,-127,-93c0,0,-79,-46,-142,-69V824c0,0,113,52,197,128c0,0,85,75,120,146h86V0Z" 
id="f3_l"
transform="scale(0.001,-0.001)" />

<path d="M420,92c0,0,92,0,155,89c0,0,64,89,64,358c0,0,0,270,-63,359c0,0,-63,89,-158,89c0,0,-92,0,-147,-79c0,0,-70,-100,-70,-369c0,0,0,-269,63,-358c0,0,63,-89,156,-89Zm0,-110c0,0,-158,0,-248,112C172,94,64,231,64,539c0,0,0,194,39,313c0,0,40,118,119,182c0,0,79,64,198,64c0,0,88,0,155,-35c0,0,66,-36,109,-103c0,0,43,-66,68,-162c0,0,24,-96,24,-259c0,0,0,-192,-39,-311C737,228,697,110,619,46c0,0,-79,-64,-199,-64Z" 
id="f3_k"
transform="scale(0.001,-0.001)" />

<path d="M125,0V1051H268V115H799V0Z" 
id="f0_1c"
transform="scale(0.001,-0.001)" />

<path d="M106,0V620c0,0,0,85,-5,188H228c0,0,6,-138,6,-165h3c0,0,32,103,74,141c0,0,42,38,118,38c0,0,27,0,54,-7V692c0,0,-26,7,-71,7c0,0,-84,0,-128,-72c0,0,-44,-72,-44,-206V0Z" 
id="f0_2e"
transform="scale(0.001,-0.001)" />

<path d="M606,-14c0,0,-164,0,-284,65c0,0,-119,66,-182,189c0,0,-63,123,-63,291c0,0,0,255,137,396c0,0,137,140,386,140c0,0,174,0,283,-59c0,0,109,-59,168,-189L915,779c0,0,-44,90,-123,131c0,0,-79,41,-196,41c0,0,-182,0,-278,-110c0,0,-96,-110,-96,-310c0,0,0,-200,102,-315c0,0,102,-115,282,-115c0,0,103,0,193,31c0,0,89,31,144,85V407H629V526h445V164c0,0,-83,-85,-205,-132c0,0,-121,-46,-263,-46Z" 
id="f0_17"
transform="scale(0.001,-0.001)" />

<path d="M355,-14c0,0,-133,0,-194,65c0,0,-62,66,-62,219V808H234V296c0,0,0,-80,16,-124c0,0,16,-44,50,-64c0,0,34,-19,101,-19c0,0,97,0,153,66c0,0,55,67,55,185V808H744V172c0,0,0,-141,4,-172H621c0,0,0,4,-1,20c0,0,-1,17,-2,38c0,0,-1,21,-3,80h-2C613,138,567,55,506,20c0,0,-61,-34,-151,-34Z" 
id="f0_2h"
transform="scale(0.001,-0.001)" />

<path d="M395,89c0,0,115,0,166,79c0,0,51,79,51,246c0,0,0,160,-51,235c0,0,-51,75,-164,75c0,0,-102,0,-147,-75c0,0,-45,-75,-45,-244c0,0,0,-170,45,-243c0,0,45,-73,145,-73ZM361,-14c0,0,-153,0,-225,102c0,0,-72,103,-72,312c0,0,0,422,297,422c0,0,92,0,153,-33c0,0,61,-34,98,-107h2l-2,90v335H747V166c0,0,0,-126,4,-166H623c0,0,-2,12,-5,55c0,0,-3,44,-3,75h-3c0,0,-37,-78,-98,-111c0,0,-62,-33,-153,-33Z" 
id="f0_20"
transform="scale(0.001,-0.001)" />

<path d="M140,0V163H285V0Z" 
id="f0_i"
transform="scale(0.001,-0.001)" />


</defs>
</svg>