<?xml version="1.0" encoding="UTF-8" standalone="no"?>
<!DOCTYPE svg PUBLIC "-//W3C//DTD SVG 1.1//EN"
"http://www.w3.org/Graphics/SVG/1.1/DTD/svg11.dtd">
<svg viewBox="0 0 730 1112" version="1.1" xmlns="http://www.w3.org/2000/svg" xmlns:xlink="http://www.w3.org/1999/xlink">
<defs>
<clipPath id="c0_47"><path d="M223.6,144.4v-29h97.3v29Z" /></clipPath>
<clipPath id="c1_47"><path d="M167.9,517.8V505.2h6.2v12.6Z" /></clipPath>
<clipPath id="c2_47"><path d="M217,744.4V716h90.2v28.4Z" /></clipPath>
</defs>
<g fill="#D4D4D4" fill-opacity="0.36" >
<use xlink:href="#f0_1f" transform="matrix(50.9,-50.9,50.9,50.9,118.4,814.1)" />
<use xlink:href="#f0_2a" transform="matrix(50.9,-50.9,50.9,50.9,178.9,753.6)" />
<use xlink:href="#f0_28" transform="matrix(50.9,-50.9,50.9,50.9,222.2,710.3)" />
<use xlink:href="#f0_25" transform="matrix(50.9,-50.9,50.9,50.9,239.4,693.1)" />
<use xlink:href="#f0_2a" transform="matrix(50.9,-50.9,50.9,50.9,256.7,675.8)" />
<use xlink:href="#f0_21" transform="matrix(50.9,-50.9,50.9,50.9,299.9,632.5)" />
<use xlink:href="#f0_2k" transform="matrix(50.9,-50.9,50.9,50.9,343.2,589.3)" />
<use xlink:href="#f0_1x" transform="matrix(50.9,-50.9,50.9,50.9,382.1,550.4)" />
<use xlink:href="#f0_29" transform="matrix(50.9,-50.9,50.9,50.9,425.3,507.2)" />
<use xlink:href="#f0_2c" transform="matrix(50.9,-50.9,50.9,50.9,490.1,442.4)" />
<use xlink:href="#f0_2b" transform="matrix(50.9,-50.9,50.9,50.9,533.4,399.1)" />
<use xlink:href="#f0_25" transform="matrix(50.9,-50.9,50.9,50.9,576.6,355.9)" />
<use xlink:href="#f0_2a" transform="matrix(50.9,-50.9,50.9,50.9,593.9,338.6)" />
<use xlink:href="#f0_2g" transform="matrix(50.9,-50.9,50.9,50.9,637.1,295.4)" />
</g>
<g fill="#000000" >
<use xlink:href="#f1_l" transform="matrix(10.4,0,0,10.4,51.1,82.2)" />
<use xlink:href="#f1_o" transform="matrix(10.4,0,0,10.4,60.2,82.2)" />
<use xlink:href="#f1_i" transform="matrix(10.4,0,0,10.4,69.6,82.2)" />
<use xlink:href="#f1_c" transform="matrix(10.4,0,0,10.4,94.3,82.2)" />
<use xlink:href="#f1_25" transform="matrix(10.4,0,0,10.4,100,82.2)" />
<use xlink:href="#f1_d" transform="matrix(10.4,0,0,10.4,103.9,82.2)" />
<use xlink:href="#f1_11" transform="matrix(10.4,0,0,10.4,137.6,82.2)" />
<use xlink:href="#f1_28" transform="matrix(10.4,0,0,10.4,148.3,82.2)" />
<use xlink:href="#f1_m" transform="matrix(7.4,0,0,7.4,151.7,87.5)" />
<use xlink:href="#f1_1f" transform="matrix(10.4,0,0,10.4,158,82.2)" />
<use xlink:href="#f1_n" transform="matrix(7.4,0,0,7.4,170.4,87.5)" />
<use xlink:href="#f1_c" transform="matrix(10.4,0,0,10.4,176.7,82.2)" />
<use xlink:href="#f1_2f" transform="matrix(10.4,0,0,10.4,182,82.2)" />
<use xlink:href="#f1_d" transform="matrix(10.4,0,0,10.4,190,82.2)" />
<use xlink:href="#f1_f" transform="matrix(10.4,0,0,10.4,202.5,82.2)" />
<use xlink:href="#f1_1e" transform="matrix(10.4,0,0,10.4,218.8,82.2)" />
<use xlink:href="#f1_1x" transform="matrix(10.4,0,0,10.4,230.4,82.2)" />
<use xlink:href="#f1_1f" transform="matrix(10.4,0,0,10.4,239.2,82.2)" />
<use xlink:href="#f1_18" transform="matrix(10.4,0,0,10.4,251.6,82.2)" />
<use xlink:href="#f1_c" transform="matrix(10.4,0,0,10.4,270.3,82.2)" />
<use xlink:href="#f1_1x" transform="matrix(10.4,0,0,10.4,275.6,82.2)" />
<use xlink:href="#f1_2d" transform="matrix(10.4,0,0,10.4,284.4,82.2)" />
<use xlink:href="#f1_d" transform="matrix(10.4,0,0,10.4,293.2,82.2)" />
<use xlink:href="#f1_f" transform="matrix(10.4,0,0,10.4,305.5,82.2)" />
<use xlink:href="#f1_18" transform="matrix(10.4,0,0,10.4,322,82.2)" />
<use xlink:href="#f1_m" transform="matrix(7.4,0,0,7.4,333.6,87.5)" />
<use xlink:href="#f1_1f" transform="matrix(10.4,0,0,10.4,339.8,82.2)" />
<use xlink:href="#f1_c" transform="matrix(10.4,0,0,10.4,352.3,82.2)" />
<use xlink:href="#f1_28" transform="matrix(10.4,0,0,10.4,357.6,82.2)" />
<use xlink:href="#f1_d" transform="matrix(10.4,0,0,10.4,361.1,82.2)" />
<use xlink:href="#f2_1mh" transform="matrix(17.7,0,0,17.7,420.5,87.2)" />
<use xlink:href="#f1_c" transform="matrix(10.4,0,0,10.4,94.3,131.9)" />
<use xlink:href="#f1_25" transform="matrix(10.4,0,0,10.4,99.8,131.9)" />
<use xlink:href="#f1_25" transform="matrix(10.4,0,0,10.4,103.7,131.9)" />
<use xlink:href="#f1_d" transform="matrix(10.4,0,0,10.4,107.4,131.9)" />
<use xlink:href="#f1_18" transform="matrix(10.4,0,0,10.4,137.6,131.9)" />
<use xlink:href="#f1_13" transform="matrix(10.4,0,0,10.4,149.2,131.9)" />
<use xlink:href="#f1_28" transform="matrix(10.4,0,0,10.4,160.7,131.9)" />
<use xlink:href="#f1_f" transform="matrix(10.4,0,0,10.4,170.8,131.9)" />
<use xlink:href="#f1_1f" transform="matrix(10.4,0,0,10.4,186.9,131.9)" />
<use xlink:href="#f1_m" transform="matrix(7.4,0,0,7.4,199.4,137.2)" />
<use xlink:href="#f1_m" transform="matrix(8.3,0,0,8.3,282.1,130.6)" />
<use xlink:href="#f1_13" transform="matrix(9.7,0,0,9.7,248.9,121.6)" />
<use xlink:href="#f1_2h" transform="matrix(9.7,0,0,9.7,259.7,121.6)" />
<use xlink:href="#f1_13" transform="matrix(9.7,0,0,9.7,268.3,121.6)" />
<use xlink:href="#f1_28" transform="matrix(9.7,0,0,9.7,279.1,121.6)" />
</g>
<g clip-path="url(#c0_47)">
<g fill="#000000" >
<use xlink:href="#f2_1mh" transform="matrix(14.6,0,0,14.6,294.5,137.9)" />
</g>
</g>
<g fill="#000000" >
<use xlink:href="#f1_l" transform="matrix(10.4,0,0,10.4,51.1,191.3)" />
<use xlink:href="#f1_p" transform="matrix(10.4,0,0,10.4,60.2,191.3)" />
<use xlink:href="#f1_i" transform="matrix(10.4,0,0,10.4,69.6,191.3)" />
<use xlink:href="#f1_c" transform="matrix(10.4,0,0,10.4,94.3,191.3)" />
<use xlink:href="#f1_25" transform="matrix(10.4,0,0,10.4,100,191.3)" />
<use xlink:href="#f1_d" transform="matrix(10.4,0,0,10.4,103.9,191.3)" />
<use xlink:href="#f1_13" transform="matrix(10.4,0,0,10.4,137.6,191.3)" />
<use xlink:href="#f1_1x" transform="matrix(10.4,0,0,10.4,149.2,191.3)" />
<use xlink:href="#f1_c" transform="matrix(10.4,0,0,10.4,158,191.3)" />
<use xlink:href="#f1_1f" transform="matrix(10.4,0,0,10.4,163.3,191.3)" />
<use xlink:href="#f1_18" transform="matrix(10.4,0,0,10.4,175.7,191.3)" />
<use xlink:href="#f1_d" transform="matrix(10.4,0,0,10.4,187.3,191.3)" />
<use xlink:href="#f1_m" transform="matrix(7.4,0,0,7.4,192.6,196.6)" />
<use xlink:href="#f1_f" transform="matrix(10.4,0,0,10.4,206.2,191.3)" />
<use xlink:href="#f1_13" transform="matrix(10.4,0,0,10.4,223,191.3)" />
<use xlink:href="#f1_28" transform="matrix(10.4,0,0,10.4,234.6,191.3)" />
<use xlink:href="#f1_m" transform="matrix(7.4,0,0,7.4,238.1,196.6)" />
<use xlink:href="#f2_1mh" transform="matrix(17.7,0,0,17.7,296.7,196.2)" />
<use xlink:href="#f1_c" transform="matrix(10.4,0,0,10.4,94.3,241.5)" />
<use xlink:href="#f1_25" transform="matrix(10.4,0,0,10.4,99.8,241.5)" />
<use xlink:href="#f1_25" transform="matrix(10.4,0,0,10.4,103.7,241.5)" />
<use xlink:href="#f1_d" transform="matrix(10.4,0,0,10.4,107.4,241.5)" />
<use xlink:href="#f1_1o" transform="matrix(10.4,0,0,10.4,137.6,241.5)" />
<use xlink:href="#f1_21" transform="matrix(10.4,0,0,10.4,148.3,241.5)" />
<use xlink:href="#f1_16" transform="matrix(10.4,0,0,10.4,157,241.5)" />
<use xlink:href="#f1_o" transform="matrix(7.4,0,0,7.4,166.8,246.8)" />
<use xlink:href="#f1_f" transform="matrix(10.4,0,0,10.4,179.6,241.5)" />
<use xlink:href="#f1_18" transform="matrix(10.4,0,0,10.4,195.5,241.5)" />
<use xlink:href="#f1_m" transform="matrix(7.4,0,0,7.4,207.1,246.8)" />
<use xlink:href="#f1_1f" transform="matrix(10.4,0,0,10.4,213.3,241.5)" />
<use xlink:href="#f2_1mh" transform="matrix(17.7,0,0,17.7,279.5,246.5)" />
<use xlink:href="#f1_l" transform="matrix(10.4,0,0,10.4,51.1,300.9)" />
<use xlink:href="#f1_q" transform="matrix(10.4,0,0,10.4,60.2,300.9)" />
<use xlink:href="#f1_i" transform="matrix(10.4,0,0,10.4,69.6,300.9)" />
<use xlink:href="#f1_c" transform="matrix(10.4,0,0,10.4,94.3,300.9)" />
<use xlink:href="#f1_25" transform="matrix(10.4,0,0,10.4,100,300.9)" />
<use xlink:href="#f1_d" transform="matrix(10.4,0,0,10.4,103.9,300.9)" />
<use xlink:href="#f1_1e" transform="matrix(10.4,0,0,10.4,137.6,300.9)" />
<use xlink:href="#f1_1x" transform="matrix(10.4,0,0,10.4,149.2,300.9)" />
<use xlink:href="#f1_m" transform="matrix(7.4,0,0,7.4,158,306.2)" />
<use xlink:href="#f1_1j" transform="matrix(10.4,0,0,10.4,164.2,300.9)" />
<use xlink:href="#f1_1f" transform="matrix(10.4,0,0,10.4,174.8,300.9)" />
<use xlink:href="#f1_n" transform="matrix(7.4,0,0,7.4,187.3,306.2)" />
<use xlink:href="#f1_f" transform="matrix(10.4,0,0,10.4,200.3,300.9)" />
<use xlink:href="#f1_13" transform="matrix(10.4,0,0,10.4,216.4,300.9)" />
<use xlink:href="#f1_28" transform="matrix(10.4,0,0,10.4,228,300.9)" />
<use xlink:href="#f1_m" transform="matrix(7.4,0,0,7.4,231.5,306.2)" />
<use xlink:href="#f1_f" transform="matrix(10.4,0,0,10.4,244.5,300.9)" />
<use xlink:href="#f1_18" transform="matrix(10.4,0,0,10.4,260.6,300.9)" />
<use xlink:href="#f1_m" transform="matrix(7.4,0,0,7.4,272.2,306.2)" />
<use xlink:href="#f1_1f" transform="matrix(10.4,0,0,10.4,278.4,300.9)" />
<use xlink:href="#f2_1mh" transform="matrix(17.7,0,0,17.7,344.8,305.9)" />
<use xlink:href="#f1_c" transform="matrix(10.4,0,0,10.4,94.3,351.2)" />
<use xlink:href="#f1_25" transform="matrix(10.4,0,0,10.4,99.8,351.2)" />
<use xlink:href="#f1_25" transform="matrix(10.4,0,0,10.4,103.7,351.2)" />
<use xlink:href="#f1_d" transform="matrix(10.4,0,0,10.4,107.4,351.2)" />
<use xlink:href="#f1_1e" transform="matrix(10.4,0,0,10.4,137.6,351.2)" />
<use xlink:href="#f1_1x" transform="matrix(10.4,0,0,10.4,149.2,351.2)" />
<use xlink:href="#f1_18" transform="matrix(10.4,0,0,10.4,158,351.2)" />
<use xlink:href="#f1_13" transform="matrix(10.4,0,0,10.4,169.5,351.2)" />
<use xlink:href="#f1_1f" transform="matrix(10.4,0,0,10.4,181.1,351.2)" />
<use xlink:href="#f1_n" transform="matrix(7.4,0,0,7.4,193.5,356.5)" />
<use xlink:href="#f1_f" transform="matrix(10.4,0,0,10.4,205.6,351.2)" />
<use xlink:href="#f1_18" transform="matrix(10.4,0,0,10.4,220.8,351.2)" />
<use xlink:href="#f1_13" transform="matrix(10.4,0,0,10.4,232.4,351.2)" />
<use xlink:href="#f1_28" transform="matrix(10.4,0,0,10.4,243.9,351.2)" />
<use xlink:href="#f2_1mh" transform="matrix(17.7,0,0,17.7,300.2,356.1)" />
<use xlink:href="#f1_l" transform="matrix(10.4,0,0,10.4,51.1,410.9)" />
<use xlink:href="#f1_r" transform="matrix(10.4,0,0,10.4,60.2,410.9)" />
<use xlink:href="#f1_i" transform="matrix(10.4,0,0,10.4,69.6,410.9)" />
<use xlink:href="#f1_c" transform="matrix(10.4,0,0,10.4,94.3,410.9)" />
<use xlink:href="#f1_25" transform="matrix(10.4,0,0,10.4,100,410.9)" />
<use xlink:href="#f1_d" transform="matrix(10.4,0,0,10.4,103.9,410.9)" />
<use xlink:href="#f1_1o" transform="matrix(10.4,0,0,10.4,137.6,410.9)" />
<use xlink:href="#f1_21" transform="matrix(10.4,0,0,10.4,148.3,410.9)" />
<use xlink:href="#f1_16" transform="matrix(10.4,0,0,10.4,157,410.9)" />
<use xlink:href="#f1_q" transform="matrix(7.4,0,0,7.4,166.8,416.2)" />
<use xlink:href="#f1_f" transform="matrix(10.4,0,0,10.4,179.8,410.9)" />
<use xlink:href="#f1_18" transform="matrix(10.4,0,0,10.4,195.9,410.9)" />
<use xlink:href="#f1_m" transform="matrix(7.4,0,0,7.4,207.5,416.2)" />
<use xlink:href="#f1_1f" transform="matrix(10.4,0,0,10.4,213.7,410.9)" />
<use xlink:href="#f1_13" transform="matrix(8.2,0,0,8.2,262.5,399.2)" />
<use xlink:href="#f1_2b" transform="matrix(8.2,0,0,8.2,271.6,399.2)" />
<use xlink:href="#f1_29" transform="matrix(8.2,0,0,8.2,278.9,399.2)" />
<use xlink:href="#f1_2c" transform="matrix(8.2,0,0,8.2,289.9,399.2)" />
<use xlink:href="#f1_28" transform="matrix(8.2,0,0,8.2,297.1,399.2)" />
<use xlink:href="#f1_21" transform="matrix(8.2,0,0,8.2,299.8,399.2)" />
<use xlink:href="#f1_2g" transform="matrix(8.2,0,0,8.2,307,399.2)" />
<use xlink:href="#f1_21" transform="matrix(8.2,0,0,8.2,310.6,399.2)" />
<use xlink:href="#f1_24" transform="matrix(8.2,0,0,8.2,261.7,416.1)" />
<use xlink:href="#f1_2l" transform="matrix(8.2,0,0,8.2,269.1,416.1)" />
<use xlink:href="#f1_20" transform="matrix(8.2,0,0,8.2,275.1,416.1)" />
<use xlink:href="#f1_2e" transform="matrix(8.2,0,0,8.2,282.4,416.1)" />
<use xlink:href="#f1_2b" transform="matrix(8.2,0,0,8.2,286.6,416.1)" />
<use xlink:href="#f1_28" transform="matrix(8.2,0,0,8.2,293.8,416.1)" />
<use xlink:href="#f1_2l" transform="matrix(8.2,0,0,8.2,296.5,416.1)" />
<use xlink:href="#f1_2f" transform="matrix(8.2,0,0,8.2,302.8,416.1)" />
<use xlink:href="#f1_25" transform="matrix(8.2,0,0,8.2,309.2,416.1)" />
<use xlink:href="#f1_2f" transform="matrix(8.2,0,0,8.2,311.9,416.1)" />
<use xlink:href="#f2_1mh" transform="matrix(14.2,0,0,14.2,321.9,409.3)" />
<use xlink:href="#f1_c" transform="matrix(10.4,0,0,10.4,94.3,461.3)" />
<use xlink:href="#f1_25" transform="matrix(10.4,0,0,10.4,99.8,461.3)" />
<use xlink:href="#f1_25" transform="matrix(10.4,0,0,10.4,103.7,461.3)" />
<use xlink:href="#f1_d" transform="matrix(10.4,0,0,10.4,107.4,461.3)" />
<use xlink:href="#f1_1o" transform="matrix(10.4,0,0,10.4,137.6,461.3)" />
<use xlink:href="#f1_21" transform="matrix(10.4,0,0,10.4,148.3,461.3)" />
<use xlink:href="#f1_16" transform="matrix(10.4,0,0,10.4,157,461.3)" />
<use xlink:href="#f1_q" transform="matrix(7.4,0,0,7.4,166.8,466.7)" />
<use xlink:href="#f1_f" transform="matrix(10.4,0,0,10.4,179.6,461.3)" />
<use xlink:href="#f1_18" transform="matrix(10.4,0,0,10.4,195.5,461.3)" />
<use xlink:href="#f1_m" transform="matrix(7.4,0,0,7.4,207.1,466.7)" />
<use xlink:href="#f1_1f" transform="matrix(10.4,0,0,10.4,213.3,461.3)" />
<use xlink:href="#f1_1g" transform="matrix(8.1,0,0,8.1,270.9,449.8)" />
<use xlink:href="#f1_1x" transform="matrix(8.1,0,0,8.1,279.3,449.8)" />
<use xlink:href="#f1_2e" transform="matrix(8.1,0,0,8.1,286.3,449.8)" />
<use xlink:href="#f1_2g" transform="matrix(8.1,0,0,8.1,290.5,449.8)" />
<use xlink:href="#f1_25" transform="matrix(8.1,0,0,8.1,294,449.8)" />
<use xlink:href="#f1_1x" transform="matrix(8.1,0,0,8.1,296.7,449.8)" />
<use xlink:href="#f1_28" transform="matrix(8.1,0,0,8.1,303.7,449.8)" />
<use xlink:href="#f1_24" transform="matrix(8.1,0,0,8.1,261,466.5)" />
<use xlink:href="#f1_2l" transform="matrix(8.1,0,0,8.1,268,466.5)" />
<use xlink:href="#f1_20" transform="matrix(8.1,0,0,8.1,274,466.5)" />
<use xlink:href="#f1_2e" transform="matrix(8.1,0,0,8.1,281.1,466.5)" />
<use xlink:href="#f1_2b" transform="matrix(8.1,0,0,8.1,285.2,466.5)" />
<use xlink:href="#f1_28" transform="matrix(8.1,0,0,8.1,292.3,466.5)" />
<use xlink:href="#f1_2l" transform="matrix(8.1,0,0,8.1,295.1,466.5)" />
<use xlink:href="#f1_2f" transform="matrix(8.1,0,0,8.1,301.1,466.5)" />
<use xlink:href="#f1_25" transform="matrix(8.1,0,0,8.1,307.3,466.5)" />
<use xlink:href="#f1_2f" transform="matrix(8.1,0,0,8.1,310.1,466.5)" />
<use xlink:href="#f2_1mh" transform="matrix(14,0,0,14,320,459.7)" />
<use xlink:href="#f1_l" transform="matrix(10.4,0,0,10.4,51.1,520.7)" />
<use xlink:href="#f1_s" transform="matrix(10.4,0,0,10.4,60.2,520.7)" />
<use xlink:href="#f1_i" transform="matrix(10.4,0,0,10.4,69.6,520.7)" />
<use xlink:href="#f1_c" transform="matrix(10.4,0,0,10.4,94.3,520.7)" />
<use xlink:href="#f1_25" transform="matrix(10.4,0,0,10.4,100,520.7)" />
<use xlink:href="#f1_d" transform="matrix(10.4,0,0,10.4,103.9,520.7)" />
<use xlink:href="#f1_1e" transform="matrix(10.4,0,0,10.4,137.6,520.7)" />
<use xlink:href="#f1_1f" transform="matrix(10.4,0,0,10.4,149.2,520.7)" />
<use xlink:href="#f1_n" transform="matrix(7.4,0,0,7.4,161.6,526.1)" />
</g>
<g clip-path="url(#c1_47)">
<g fill="#000000" >
<use xlink:href="#f1_4y" transform="matrix(7.4,0,0,7.4,167.9,515.4)" />
</g>
</g>
<g fill="#000000" >
<use xlink:href="#f1_f" transform="matrix(10.4,0,0,10.4,181.2,520.7)" />
<use xlink:href="#f1_16" transform="matrix(10.4,0,0,10.4,197.7,520.7)" />
<use xlink:href="#f1_21" transform="matrix(10.4,0,0,10.4,207.5,520.7)" />
<use xlink:href="#f1_m" transform="matrix(7.4,0,0,7.4,216.3,515.4)" />
<use xlink:href="#f1_f" transform="matrix(7.4,0,0,7.4,222.5,515.4)" />
<use xlink:href="#f1_f" transform="matrix(10.4,0,0,10.4,236.2,520.7)" />
<use xlink:href="#f1_18" transform="matrix(10.4,0,0,10.4,252.9,520.7)" />
<use xlink:href="#f1_f" transform="matrix(7.4,0,0,7.4,264.5,515.4)" />
<use xlink:href="#f2_1mh" transform="matrix(17.7,0,0,17.7,323.1,525.7)" />
<use xlink:href="#f1_c" transform="matrix(10.4,0,0,10.4,94.3,571)" />
<use xlink:href="#f1_25" transform="matrix(10.4,0,0,10.4,99.8,571)" />
<use xlink:href="#f1_25" transform="matrix(10.4,0,0,10.4,103.7,571)" />
<use xlink:href="#f1_d" transform="matrix(10.4,0,0,10.4,107.4,571)" />
<use xlink:href="#f1_1q" transform="matrix(10.4,0,0,10.4,137.6,571)" />
<use xlink:href="#f1_2a" transform="matrix(10.4,0,0,10.4,147.3,571)" />
<use xlink:href="#f1_f" transform="matrix(10.4,0,0,10.4,162.7,571)" />
<use xlink:href="#f1_18" transform="matrix(10.4,0,0,10.4,178.7,571)" />
<use xlink:href="#f1_1e" transform="matrix(10.4,0,0,10.4,190.2,571)" />
<use xlink:href="#f1_1f" transform="matrix(10.4,0,0,10.4,201.8,571)" />
<use xlink:href="#f1_n" transform="matrix(7.4,0,0,7.4,214.2,576.3)" />
<use xlink:href="#f1_c" transform="matrix(10.4,0,0,10.4,227.1,571)" />
<use xlink:href="#f1_20" transform="matrix(10.4,0,0,10.4,232.4,571)" />
<use xlink:href="#f1_25" transform="matrix(10.4,0,0,10.4,241.2,571)" />
<use xlink:href="#f1_28" transform="matrix(10.4,0,0,10.4,244.7,571)" />
<use xlink:href="#f1_d" transform="matrix(10.4,0,0,10.4,248.2,571)" />
<use xlink:href="#f2_1mh" transform="matrix(17.7,0,0,17.7,307,575.9)" />
<use xlink:href="#f1_l" transform="matrix(10.4,0,0,10.4,51.1,630.4)" />
<use xlink:href="#f1_t" transform="matrix(10.4,0,0,10.4,60.2,630.4)" />
<use xlink:href="#f1_i" transform="matrix(10.4,0,0,10.4,69.6,630.4)" />
<use xlink:href="#f1_c" transform="matrix(10.4,0,0,10.4,94.3,630.4)" />
<use xlink:href="#f1_25" transform="matrix(10.4,0,0,10.4,100,630.4)" />
<use xlink:href="#f1_d" transform="matrix(10.4,0,0,10.4,103.9,630.4)" />
<use xlink:href="#f1_1q" transform="matrix(10.4,0,0,10.4,137.6,630.4)" />
<use xlink:href="#f1_2a" transform="matrix(10.4,0,0,10.4,147.3,630.4)" />
<use xlink:href="#f1_f" transform="matrix(10.4,0,0,10.4,162.7,630.4)" />
<use xlink:href="#f1_18" transform="matrix(10.4,0,0,10.4,178.9,630.4)" />
<use xlink:href="#f1_1e" transform="matrix(10.4,0,0,10.4,190.4,630.4)" />
<use xlink:href="#f1_1f" transform="matrix(10.4,0,0,10.4,202,630.4)" />
<use xlink:href="#f1_n" transform="matrix(7.4,0,0,7.4,214.4,635.7)" />
<use xlink:href="#f1_c" transform="matrix(10.4,0,0,10.4,227.3,630.4)" />
<use xlink:href="#f1_1z" transform="matrix(10.4,0,0,10.4,232.6,630.4)" />
<use xlink:href="#f1_2b" transform="matrix(10.4,0,0,10.4,240.6,630.4)" />
<use xlink:href="#f1_2a" transform="matrix(10.4,0,0,10.4,249.4,630.4)" />
<use xlink:href="#f1_1z" transform="matrix(10.4,0,0,10.4,258.2,630.4)" />
<use xlink:href="#f1_d" transform="matrix(10.4,0,0,10.4,266.3,630.4)" />
<use xlink:href="#f2_1mh" transform="matrix(17.7,0,0,17.7,325.3,635.3)" />
<use xlink:href="#f1_c" transform="matrix(10.4,0,0,10.4,94.3,680.6)" />
<use xlink:href="#f1_25" transform="matrix(10.4,0,0,10.4,99.8,680.6)" />
<use xlink:href="#f1_25" transform="matrix(10.4,0,0,10.4,103.7,680.6)" />
<use xlink:href="#f1_d" transform="matrix(10.4,0,0,10.4,107.4,680.6)" />
<use xlink:href="#f1_1g" transform="matrix(10.4,0,0,10.4,137.6,680.6)" />
<use xlink:href="#f1_o" transform="matrix(7.4,0,0,7.4,148.2,685.9)" />
<use xlink:href="#f1_f" transform="matrix(10.4,0,0,10.4,161.3,680.6)" />
<use xlink:href="#f1_18" transform="matrix(10.4,0,0,10.4,177.4,680.6)" />
<use xlink:href="#f1_1e" transform="matrix(10.4,0,0,10.4,188.9,680.6)" />
<use xlink:href="#f1_1f" transform="matrix(10.4,0,0,10.4,200.5,680.6)" />
<use xlink:href="#f1_n" transform="matrix(7.4,0,0,7.4,213,685.9)" />
<use xlink:href="#f1_c" transform="matrix(10.4,0,0,10.4,226,680.6)" />
<use xlink:href="#f1_1z" transform="matrix(10.4,0,0,10.4,231.3,680.6)" />
<use xlink:href="#f1_2b" transform="matrix(10.4,0,0,10.4,239.4,680.6)" />
<use xlink:href="#f1_2a" transform="matrix(10.4,0,0,10.4,248.2,680.6)" />
<use xlink:href="#f1_1z" transform="matrix(10.4,0,0,10.4,257,680.6)" />
<use xlink:href="#f1_d" transform="matrix(10.4,0,0,10.4,265,680.6)" />
<use xlink:href="#f2_1mh" transform="matrix(17.7,0,0,17.7,324.2,685.6)" />
<use xlink:href="#f1_m" transform="matrix(10.4,0,0,10.4,51.1,734.1)" />
<use xlink:href="#f1_k" transform="matrix(10.4,0,0,10.4,60.2,734.1)" />
<use xlink:href="#f1_i" transform="matrix(10.4,0,0,10.4,69.6,734.1)" />
<use xlink:href="#f1_c" transform="matrix(10.4,0,0,10.4,94.3,734.1)" />
<use xlink:href="#f1_25" transform="matrix(10.4,0,0,10.4,100,734.1)" />
<use xlink:href="#f1_d" transform="matrix(10.4,0,0,10.4,103.9,734.1)" />
<use xlink:href="#f1_1e" transform="matrix(10.4,0,0,10.4,137.6,734.1)" />
<use xlink:href="#f1_18" transform="matrix(10.4,0,0,10.4,149.2,734.1)" />
<use xlink:href="#f1_n" transform="matrix(7.4,0,0,7.4,160.7,739.5)" />
<use xlink:href="#f1_f" transform="matrix(10.4,0,0,10.4,173.4,734.1)" />
<use xlink:href="#f1_1f" transform="matrix(10.4,0,0,10.4,189.3,734.1)" />
<use xlink:href="#f1_m" transform="matrix(7.4,0,0,7.4,201.8,739.5)" />
<use xlink:href="#f1_1g" transform="matrix(9.6,0,0,9.6,241,727.9)" />
<use xlink:href="#f1_2g" transform="matrix(9.6,0,0,9.6,250.9,727.9)" />
<use xlink:href="#f1_j" transform="matrix(9.6,0,0,9.6,254.9,727.9)" />
<use xlink:href="#f1_1i" transform="matrix(9.6,0,0,9.6,259.1,727.9)" />
<use xlink:href="#f1_24" transform="matrix(9.6,0,0,9.6,269.6,727.9)" />
</g>
<g clip-path="url(#c2_47)">
<g fill="#000000" >
<use xlink:href="#f2_1mh" transform="matrix(14.4,0,0,14.4,281.2,738.2)" />
</g>
</g>
<g fill="#000000" >
<use xlink:href="#f1_c" transform="matrix(10.4,0,0,10.4,94.3,780.9)" />
<use xlink:href="#f1_25" transform="matrix(10.4,0,0,10.4,99.8,780.9)" />
<use xlink:href="#f1_25" transform="matrix(10.4,0,0,10.4,103.7,780.9)" />
<use xlink:href="#f1_d" transform="matrix(10.4,0,0,10.4,107.4,780.9)" />
<use xlink:href="#f1_1g" transform="matrix(10.4,0,0,10.4,137.6,780.9)" />
<use xlink:href="#f1_o" transform="matrix(7.4,0,0,7.4,148.2,786.2)" />
<use xlink:href="#f1_f" transform="matrix(10.4,0,0,10.4,160.7,780.9)" />
<use xlink:href="#f1_1e" transform="matrix(10.4,0,0,10.4,176.5,780.9)" />
<use xlink:href="#f1_1x" transform="matrix(10.4,0,0,10.4,188,780.9)" />
<use xlink:href="#f1_1f" transform="matrix(10.4,0,0,10.4,196.8,780.9)" />
<use xlink:href="#f1_18" transform="matrix(10.4,0,0,10.4,209.3,780.9)" />
<use xlink:href="#f1_f" transform="matrix(10.4,0,0,10.4,227.1,780.9)" />
<use xlink:href="#f1_18" transform="matrix(10.4,0,0,10.4,242.8,780.9)" />
<use xlink:href="#f1_m" transform="matrix(7.4,0,0,7.4,254.4,786.2)" />
<use xlink:href="#f1_1f" transform="matrix(10.4,0,0,10.4,260.6,780.9)" />
<use xlink:href="#f2_1mh" transform="matrix(17.7,0,0,17.7,326.4,785.8)" />
<use xlink:href="#f1_m" transform="matrix(10.4,0,0,10.4,51.1,840.3)" />
<use xlink:href="#f1_l" transform="matrix(10.4,0,0,10.4,60.2,840.3)" />
<use xlink:href="#f1_i" transform="matrix(10.4,0,0,10.4,69.6,840.3)" />
<use xlink:href="#f1_c" transform="matrix(10.4,0,0,10.4,94.3,840.3)" />
<use xlink:href="#f1_25" transform="matrix(10.4,0,0,10.4,100,840.3)" />
<use xlink:href="#f1_d" transform="matrix(10.4,0,0,10.4,103.9,840.3)" />
<use xlink:href="#f1_1g" transform="matrix(10.4,0,0,10.4,137.6,840.3)" />
<use xlink:href="#f1_o" transform="matrix(7.4,0,0,7.4,148.2,845.6)" />
<use xlink:href="#f1_f" transform="matrix(10.4,0,0,10.4,161.6,840.3)" />
<use xlink:href="#f1_1j" transform="matrix(10.4,0,0,10.4,178.3,840.3)" />
<use xlink:href="#f1_1f" transform="matrix(10.4,0,0,10.4,189,840.3)" />
<use xlink:href="#f1_13" transform="matrix(10.4,0,0,10.4,201.4,840.3)" />
<use xlink:href="#f1_28" transform="matrix(10.4,0,0,10.4,213,840.3)" />
<use xlink:href="#f1_m" transform="matrix(7.4,0,0,7.4,216.4,845.6)" />
<use xlink:href="#f2_1mh" transform="matrix(17.7,0,0,17.7,274.9,845.2)" />
<use xlink:href="#f1_c" transform="matrix(10.4,0,0,10.4,94.3,890.5)" />
<use xlink:href="#f1_25" transform="matrix(10.4,0,0,10.4,99.8,890.5)" />
<use xlink:href="#f1_25" transform="matrix(10.4,0,0,10.4,103.7,890.5)" />
<use xlink:href="#f1_d" transform="matrix(10.4,0,0,10.4,107.4,890.5)" />
<use xlink:href="#f1_1g" transform="matrix(10.4,0,0,10.4,137.6,890.5)" />
<use xlink:href="#f1_o" transform="matrix(7.4,0,0,7.4,148.2,895.8)" />
<use xlink:href="#f1_f" transform="matrix(10.4,0,0,10.4,162,890.5)" />
<use xlink:href="#f1_1j" transform="matrix(10.4,0,0,10.4,178.9,890.5)" />
<use xlink:href="#f1_1f" transform="matrix(10.4,0,0,10.4,189.5,890.5)" />
<use xlink:href="#f1_m" transform="matrix(7.4,0,0,7.4,202,895.8)" />
<use xlink:href="#f1_13" transform="matrix(10.4,0,0,10.4,208.2,890.5)" />
<use xlink:href="#f1_28" transform="matrix(10.4,0,0,10.4,219.7,890.5)" />
<use xlink:href="#f1_m" transform="matrix(7.4,0,0,7.4,223.2,895.8)" />
<use xlink:href="#f2_1mh" transform="matrix(17.7,0,0,17.7,281.9,895.5)" />
<use xlink:href="#f3_q" transform="matrix(8,0,0,8,678.3,1105.8)" />
</g>
<g fill="#0080FF" fill-opacity="0.5" >
<use xlink:href="#f0_1c" transform="matrix(38,0,0,38,182.5,1060.3)" />
<use xlink:href="#f0_21" transform="matrix(38,0,0,38,214.8,1060.3)" />
<use xlink:href="#f0_1x" transform="matrix(38,0,0,38,247.1,1060.3)" />
<use xlink:href="#f0_2e" transform="matrix(38,0,0,38,279.5,1060.3)" />
<use xlink:href="#f0_2a" transform="matrix(38,0,0,38,298.8,1060.3)" />
<use xlink:href="#f0_17" transform="matrix(38,0,0,38,331.1,1060.3)" />
<use xlink:href="#f0_2h" transform="matrix(38,0,0,38,376.4,1060.3)" />
<use xlink:href="#f0_25" transform="matrix(38,0,0,38,408.7,1060.3)" />
<use xlink:href="#f0_20" transform="matrix(38,0,0,38,421.6,1060.3)" />
<use xlink:href="#f0_21" transform="matrix(38,0,0,38,453.9,1060.3)" />
<use xlink:href="#f0_i" transform="matrix(38,0,0,38,486.2,1060.3)" />
<use xlink:href="#f0_25" transform="matrix(38,0,0,38,502.4,1060.3)" />
<use xlink:href="#f0_2a" transform="matrix(38,0,0,38,515.3,1060.3)" />
</g>
<defs>
<path d="M593,101c0,0,182,0,279,112c0,0,98,113,98,318c0,0,0,196,-98,308c0,0,-98,112,-277,112c0,0,-181,0,-279,-110c0,0,-99,-111,-99,-310c0,0,0,-198,100,-314c0,0,99,-116,276,-116Zm0,-115c0,0,-162,0,-279,65c0,0,-118,66,-180,190c0,0,-62,124,-62,290c0,0,0,252,138,394c0,0,138,142,385,142c0,0,160,0,278,-64c0,0,118,-64,180,-185c0,0,62,-122,62,-287c0,0,0,-165,-63,-289c0,0,-63,-124,-181,-190c0,0,-118,-66,-278,-66Z" 
id="f0_1f"
transform="scale(0.001,-0.001)" />

<path d="M106,0V635c0,0,0,141,-5,173H228c0,0,1,-4,2,-21c0,0,1,-16,2,-37c0,0,1,-22,2,-81h2c0,0,47,84,108,119c0,0,60,34,151,34c0,0,132,0,194,-66c0,0,61,-66,61,-218V0H615V512c0,0,0,80,-15,124c0,0,-16,44,-50,63c0,0,-35,20,-101,20c0,0,-97,0,-153,-67c0,0,-56,-66,-56,-184V0Z" 
id="f0_2a"
transform="scale(0.001,-0.001)" />

<path d="M103,0V1107H237V0Z" 
id="f0_28"
transform="scale(0.001,-0.001)" />

<path d="M102,0V808H236V0Zm0,979v128H236V979Z" 
id="f0_25"
transform="scale(0.001,-0.001)" />

<path d="M643,478c0,0,-11,128,-65,187c0,0,-54,59,-154,59c0,0,-98,0,-155,-66c0,0,-57,-65,-62,-180ZM431,-14c0,0,-179,0,-272,106c0,0,-94,107,-94,317c0,0,0,200,94,307c0,0,93,106,267,106c0,0,356,0,356,-429V375H206c0,0,0,-138,57,-213c0,0,58,-75,168,-75c0,0,87,0,140,35c0,0,53,35,71,88L760,177c0,0,-72,-191,-329,-191Z" 
id="f0_21"
transform="scale(0.001,-0.001)" />

<path d="M17,0L304,415L31,808H179L380,493L580,808H730L457,417L747,0H598L380,331L162,0Z" 
id="f0_2k"
transform="scale(0.001,-0.001)" />

<path d="M339,87c0,0,74,0,132,34c0,0,57,33,90,91c0,0,34,59,34,121v66L448,396c0,0,-95,-2,-144,-19c0,0,-49,-18,-75,-55c0,0,-26,-38,-26,-98c0,0,0,-65,35,-101c0,0,36,-36,101,-36ZM309,-14c0,0,-122,0,-183,64c0,0,-61,64,-61,176c0,0,0,125,82,192c0,0,83,67,266,72l182,3v44c0,0,0,98,-42,141c0,0,-42,43,-132,43c0,0,-90,0,-131,-31c0,0,-41,-31,-49,-98L101,604c0,0,34,218,323,218c0,0,153,0,229,-70c0,0,77,-69,77,-202V202c0,0,0,-59,16,-90c0,0,16,-30,60,-30c0,0,19,0,44,5V4C850,4,799,-7,746,-7c0,0,-75,0,-109,38c0,0,-33,40,-38,124h-4C595,155,543,62,475,24c0,0,-68,-38,-166,-38Z" 
id="f0_1x"
transform="scale(0.001,-0.001)" />

<path d="M106,0V635c0,0,0,141,-5,173H228c0,0,1,-4,2,-21c0,0,1,-16,2,-37c0,0,1,-22,2,-81h2c0,0,44,86,100,120c0,0,56,33,136,33c0,0,92,0,145,-36c0,0,54,-37,75,-117h2c0,0,42,82,101,117c0,0,59,36,143,36c0,0,123,0,178,-66c0,0,56,-67,56,-218V0H1039V512c0,0,0,117,-32,162c0,0,-32,45,-116,45c0,0,-88,0,-136,-66c0,0,-49,-65,-49,-185V0H573V512c0,0,0,117,-32,162c0,0,-32,45,-116,45c0,0,-86,0,-136,-66c0,0,-50,-66,-50,-185V0Z" 
id="f0_29"
transform="scale(0.001,-0.001)" />

<path d="M453,84c0,0,100,0,146,74c0,0,46,73,46,247c0,0,0,169,-46,241c0,0,-45,73,-145,73c0,0,-80,0,-125,-34c0,0,-45,-34,-68,-105c0,0,-24,-71,-24,-186c0,0,0,-159,51,-234c0,0,51,-76,165,-76ZM103,-316V643c0,0,0,124,-5,165H228c0,0,1,-3,3,-22c0,0,1,-18,3,-56c0,0,2,-38,2,-52h3c0,0,36,75,94,110c0,0,59,34,156,34c0,0,149,0,223,-100c0,0,74,-100,74,-314c0,0,0,-422,-297,-422c0,0,-187,0,-251,140h-4c0,0,3,-6,3,-126V-316Z" 
id="f0_2c"
transform="scale(0.001,-0.001)" />

<path d="M420,84c0,0,121,0,173,78c0,0,52,77,52,243c0,0,0,167,-50,243c0,0,-50,76,-167,76c0,0,-118,0,-170,-78c0,0,-53,-77,-53,-241c0,0,0,-160,52,-241c0,0,52,-80,163,-80Zm1,-98c0,0,-176,0,-267,107c0,0,-90,108,-90,312c0,0,0,417,362,417c0,0,185,0,272,-102c0,0,88,-101,88,-315c0,0,0,-212,-94,-316C692,89,599,-14,421,-14Z" 
id="f0_2b"
transform="scale(0.001,-0.001)" />

<path d="M278,-11c0,0,-162,0,-162,182V710H23v98h99l39,181h90V808H400V710H251V200c0,0,0,-58,19,-82c0,0,19,-23,66,-23c0,0,27,0,77,10V6c0,0,-66,-17,-135,-17Z" 
id="f0_2g"
transform="scale(0.001,-0.001)" />

<path d="M435,0V856c0,0,-48,-47,-127,-93c0,0,-79,-46,-142,-69V824c0,0,113,52,197,128c0,0,85,75,120,146h86V0Z" 
id="f1_l"
transform="scale(0.001,-0.001)" />

<path d="M494,385V878L152,385ZM494,0V262H20V385l498,708H628V385H775V262H628V0Z" 
id="f1_o"
transform="scale(0.001,-0.001)" />

<path d="M139,0V153H291V0Z" 
id="f1_i"
transform="scale(0.001,-0.001)" />

<path d="M358,-321c0,0,-111,141,-188,328C170,7,93,195,93,396c0,0,0,178,57,341c0,0,68,188,208,376h96c0,0,-91,-156,-120,-222c0,0,-45,-103,-71,-215c0,0,-32,-139,-32,-281c0,0,0,-358,223,-716Z" 
id="f1_c"
transform="scale(0.001,-0.001)" />

<path d="M102,0V792H236V0Zm0,939v154H236V939Z" 
id="f1_25"
transform="scale(0.001,-0.001)" />

<path d="M93,-321c0,0,223,358,223,716c0,0,0,141,-32,279c0,0,-25,112,-71,215c0,0,-29,67,-120,224h96c0,0,140,-188,208,-376c0,0,57,-163,57,-341c0,0,0,-201,-77,-389c0,0,-77,-187,-188,-328Z" 
id="f1_d"
transform="scale(0.001,-0.001)" />

<path d="M684,450L570,752c0,0,-52,138,-78,227c0,0,-21,-105,-59,-209L313,450ZM-1,0L417,1093H574L1021,0H857L729,331H271L152,0Z" 
id="f1_11"
transform="scale(0.001,-0.001)" />

<path d="M98,0V1093H232V0Z" 
id="f1_28"
transform="scale(0.001,-0.001)" />

<path d="M46,0c0,0,-2,48,16,93c0,0,27,74,88,146c0,0,61,71,176,165c0,0,178,146,241,232c0,0,63,85,63,161c0,0,0,80,-57,135c0,0,-58,55,-149,55c0,0,-98,0,-156,-59c0,0,-58,-58,-59,-160L71,782c0,0,15,154,107,235c0,0,93,81,249,81c0,0,157,0,249,-87c0,0,92,-88,92,-217c0,0,0,-65,-27,-129c0,0,-27,-63,-89,-133c0,0,-62,-70,-207,-193C445,339,324,238,290,202c0,0,-35,-36,-57,-73H770V0Z" 
id="f1_m"
transform="scale(0.001,-0.001)" />

<path d="M596,106c0,0,164,0,269,114c0,0,105,115,105,326c0,0,0,134,-45,233c0,0,-45,100,-132,155c0,0,-86,55,-194,55c0,0,-154,0,-264,-106C335,883,224,778,224,531c0,0,0,-198,106,-312c0,0,106,-113,266,-113Zm1,-124c0,0,-154,0,-276,74c0,0,-121,75,-184,204c0,0,-63,129,-63,273c0,0,0,272,146,426c0,0,147,154,378,154c0,0,151,0,273,-73c0,0,121,-72,185,-201c0,0,64,-130,64,-294c0,0,0,-166,-67,-297c0,0,-67,-132,-190,-199c0,0,-123,-67,-266,-67Z" 
id="f1_1f"
transform="scale(0.001,-0.001)" />

<path d="M412,-18c0,0,-144,0,-239,85c0,0,-95,86,-108,222l133,18c0,0,24,-114,79,-164c0,0,55,-50,135,-50c0,0,96,0,161,65c0,0,65,66,65,163c0,0,0,92,-61,152c0,0,-60,60,-153,60c0,0,-38,0,-95,-15l15,119c0,0,13,-2,21,-2c0,0,86,0,155,45c0,0,69,44,69,137c0,0,0,74,-50,122c0,0,-50,49,-129,49c0,0,-79,0,-131,-50c0,0,-52,-49,-67,-147L78,815c0,0,25,135,112,209c0,0,87,74,217,74c0,0,89,0,164,-38c0,0,76,-39,116,-105c0,0,40,-66,40,-141c0,0,0,-70,-39,-129c0,0,-38,-58,-112,-92c0,0,97,-22,151,-93c0,0,53,-70,53,-176c0,0,0,-143,-104,-243c0,0,-105,-99,-264,-99Z" 
id="f1_n"
transform="scale(0.001,-0.001)" />

<path d="M386,-17c0,0,-155,0,-236,64c0,0,-81,64,-103,190l133,20c0,0,11,-79,62,-122c0,0,51,-42,143,-42c0,0,93,0,138,37c0,0,44,38,44,89c0,0,0,45,-39,71c0,0,-28,18,-138,46c0,0,-147,37,-204,64c0,0,-58,27,-87,75c0,0,-30,48,-30,107c0,0,0,52,25,98c0,0,24,45,66,74c0,0,31,24,85,40c0,0,54,16,116,16c0,0,93,0,164,-27c0,0,70,-27,104,-73c0,0,33,-46,46,-122L544,570c0,0,-9,61,-52,95c0,0,-43,34,-121,34c0,0,-93,0,-132,-30c0,0,-40,-31,-40,-72c0,0,0,-26,17,-47c0,0,16,-21,51,-35c0,0,20,-8,119,-35c0,0,142,-38,199,-62c0,0,56,-24,88,-70c0,0,32,-47,32,-115c0,0,0,-67,-39,-126c0,0,-39,-60,-113,-92c0,0,-74,-32,-167,-32Z" 
id="f1_2f"
transform="scale(0.001,-0.001)" />

<path d="M382,177V477H85V602H382V900H509V602H807V477H509V177Z" 
id="f1_f"
transform="scale(0.001,-0.001)" />

<path d="M116,0V1093H265L839,235v858H978V0H830L255,858V0Z" 
id="f1_1e"
transform="scale(0.001,-0.001)" />

<path d="M358,88c0,0,78,0,139,34c0,0,60,34,89,92c0,0,21,46,21,134l1,49c0,0,-73,-30,-221,-51c0,0,-83,-11,-117,-26c0,0,-35,-15,-54,-44c0,0,-18,-28,-18,-63c0,0,0,-54,40,-89c0,0,41,-36,120,-36ZM326,-17c0,0,-131,0,-201,63c0,0,-70,64,-70,163c0,0,0,58,26,106c0,0,27,48,70,77c0,0,43,29,97,44c0,0,39,11,119,20c0,0,163,20,240,47c0,0,1,27,1,35c0,0,0,81,-38,115c0,0,-52,45,-153,45c0,0,-95,0,-141,-33c0,0,-45,-33,-67,-116L78,566c0,0,18,84,59,136c0,0,41,52,119,80c0,0,78,28,180,28c0,0,102,0,165,-24c0,0,64,-24,94,-60c0,0,29,-36,41,-91c0,0,7,-35,7,-124V332c0,0,0,-187,9,-236c0,0,8,-50,33,-96H645c0,0,-20,42,-26,98C619,98,544,34,475,8c0,0,-70,-25,-149,-25Z" 
id="f1_1x"
transform="scale(0.001,-0.001)" />

<path d="M123,0V1093H268V644H835v449H980V0H835V515H268V0Z" 
id="f1_18"
transform="scale(0.001,-0.001)" />

<path d="M409,93c0,0,86,0,148,73c0,0,62,72,62,221c0,0,0,158,-65,237c0,0,-65,80,-154,80c0,0,-87,0,-148,-74c0,0,-61,-74,-61,-232c0,0,0,-152,64,-229c0,0,65,-76,154,-76ZM606,-303V85c0,0,-32,-44,-88,-73c0,0,-56,-29,-120,-29c0,0,-141,0,-243,112C155,95,53,207,53,403c0,0,0,120,42,214c0,0,41,95,120,144c0,0,79,49,173,49c0,0,147,0,231,-124V792H740V-303Z" 
id="f1_2d"
transform="scale(0.001,-0.001)" />

<path d="M961,74c0,0,46,97,89,147H312v65h738c0,0,-43,50,-89,146h54c0,0,94,-111,201,-165V240c0,0,-107,-55,-201,-166Z" 
id="f2_1mh"
transform="scale(0.001,-0.001)" />

<path d="M590,-18c0,0,-177,0,-287,71c0,0,-111,72,-169,209c0,0,-58,137,-58,293c0,0,0,171,66,298c0,0,65,128,185,194c0,0,121,66,265,66c0,0,164,0,276,-84c0,0,112,-84,156,-235L881,760c0,0,-38,120,-110,174c0,0,-72,55,-182,55c0,0,-126,0,-210,-61c0,0,-85,-60,-119,-162c0,0,-34,-102,-34,-210c0,0,0,-139,40,-243c0,0,41,-104,127,-156c0,0,85,-51,185,-51c0,0,122,0,206,70c0,0,84,70,114,208l145,-37c0,0,-46,-178,-164,-272c0,0,-118,-93,-289,-93Z" 
id="f1_13"
transform="scale(0.001,-0.001)" />

<path d="M369,-17c0,0,-70,0,-131,26c0,0,-61,27,-91,68c0,0,-29,40,-41,99c0,0,-8,40,-8,125V792H232V353c0,0,0,-105,8,-142c0,0,13,-53,54,-83c0,0,41,-30,101,-30c0,0,61,0,114,31c0,0,53,31,75,84c0,0,22,53,22,155V792H740V0H621V116c0,0,-93,-133,-252,-133Z" 
id="f1_2h"
transform="scale(0.001,-0.001)" />

<path d="M415,-18c0,0,-149,0,-244,83c0,0,-94,84,-107,222l140,11c0,0,16,-103,73,-154c0,0,56,-52,137,-52c0,0,98,0,165,73c0,0,66,73,66,194c0,0,0,115,-64,182c0,0,-64,66,-169,66c0,0,-65,0,-117,-29c0,0,-52,-30,-82,-77L87,517l106,562H736V951H300L241,657c0,0,99,69,207,69c0,0,143,0,242,-100c0,0,98,-99,98,-255c0,0,0,-149,-86,-257C702,114,597,-18,415,-18Z" 
id="f1_p"
transform="scale(0.001,-0.001)" />

<path d="M7,0L429,567L57,1093H230L429,814c0,0,62,-87,88,-134c0,0,36,58,85,123l219,290H979L599,574L1009,0H830L554,390c0,0,-23,33,-45,67c0,0,-35,-55,-51,-78L181,0Z" 
id="f1_1o"
transform="scale(0.001,-0.001)" />

<path d="M644,472c0,0,-9,100,-50,150c0,0,-65,77,-167,77c0,0,-93,0,-156,-62c0,0,-63,-61,-70,-165ZM433,-17c0,0,-174,0,-275,106C158,89,56,196,56,389c0,0,0,200,103,310c0,0,103,111,267,111c0,0,159,0,259,-108c0,0,101,-109,101,-304c0,0,0,-12,-1,-36H194c0,0,7,-131,74,-200c0,0,66,-69,166,-69c0,0,74,0,126,39c0,0,52,39,83,124L782,239C782,239,749,117,660,50c0,0,-89,-67,-227,-67Z" 
id="f1_21"
transform="scale(0.001,-0.001)" />

<path d="M125,0V1093H863V964H270V626H783V497H270V0Z" 
id="f1_16"
transform="scale(0.001,-0.001)" />

<path d="M435,92c0,0,86,0,147,69c0,0,60,68,60,186c0,0,0,114,-60,179c0,0,-60,66,-152,66c0,0,-91,0,-154,-66c0,0,-64,-65,-64,-171c0,0,0,-70,30,-133c0,0,29,-64,82,-97c0,0,52,-33,111,-33Zm3,-110c0,0,-168,0,-274,123C164,105,58,228,58,512c0,0,0,317,117,461c0,0,102,125,275,125c0,0,129,0,212,-72c0,0,82,-72,99,-200L627,815c0,0,-18,79,-51,115c0,0,-54,58,-134,58c0,0,-64,0,-113,-36c0,0,-63,-46,-99,-135c0,0,-37,-89,-38,-253c0,0,48,74,118,110c0,0,70,36,147,36c0,0,135,0,229,-99c0,0,94,-99,94,-256c0,0,0,-103,-44,-191C736,164,691,75,614,28c0,0,-78,-46,-176,-46Z" 
id="f1_q"
transform="scale(0.001,-0.001)" />

<path d="M535,-18c0,0,-149,0,-249,43c0,0,-100,43,-158,130c0,0,-57,87,-60,197l137,12c0,0,10,-83,45,-135c0,0,36,-53,110,-86c0,0,75,-32,168,-32c0,0,83,0,146,24c0,0,63,25,94,68c0,0,31,43,31,94c0,0,0,51,-30,90c0,0,-30,38,-98,64c0,0,-44,17,-195,54c0,0,-151,36,-211,68c0,0,-79,41,-117,102c0,0,-38,61,-38,136c0,0,0,83,47,155c0,0,47,72,137,109c0,0,90,38,200,38c0,0,122,0,215,-39c0,0,93,-40,143,-116c0,0,50,-76,54,-172L767,775c0,0,-11,104,-76,158c0,0,-64,53,-190,53c0,0,-132,0,-192,-49c0,0,-60,-48,-60,-116c0,0,0,-59,43,-97c0,0,42,-38,218,-78c0,0,176,-40,242,-70c0,0,96,-44,141,-111c0,0,46,-68,46,-156c0,0,0,-87,-50,-165C889,144,839,67,745,24c0,0,-93,-42,-210,-42Z" 
id="f1_1j"
transform="scale(0.001,-0.001)" />

<path d="M225,0c0,0,2,129,51,312c0,0,48,183,139,352c0,0,91,170,193,286H72v129H780V975C780,975,676,864,573,680C573,680,470,495,414,301C414,301,374,163,363,0Z" 
id="f1_r"
transform="scale(0.001,-0.001)" />

<path d="M422,93c0,0,100,0,167,76c0,0,66,76,66,231c0,0,0,147,-67,223c0,0,-66,75,-166,75c0,0,-100,0,-167,-75c0,0,-66,-75,-66,-227c0,0,0,-152,66,-228c0,0,67,-75,167,-75Zm0,-110c0,0,-166,0,-269,106C153,89,51,196,51,396c0,0,0,220,122,326c0,0,102,88,249,88c0,0,164,0,267,-107c0,0,104,-107,104,-296c0,0,0,-153,-46,-240C747,167,701,79,614,31c0,0,-88,-48,-192,-48Z" 
id="f1_2b"
transform="scale(0.001,-0.001)" />

<path d="M101,0V792H220V681c0,0,37,58,99,93c0,0,62,36,141,36c0,0,88,0,145,-37c0,0,56,-36,79,-102c0,0,94,139,245,139c0,0,118,0,182,-66c0,0,63,-65,63,-201V0H1040V499c0,0,0,80,-13,116c0,0,-13,35,-47,57c0,0,-35,21,-81,21c0,0,-83,0,-139,-55c0,0,-55,-56,-55,-178V0H571V514c0,0,0,90,-33,135c0,0,-33,44,-107,44c0,0,-57,0,-105,-30c0,0,-48,-29,-70,-87c0,0,-21,-57,-21,-165V0Z" 
id="f1_29"
transform="scale(0.001,-0.001)" />

<path d="M433,93c0,0,90,0,154,75c0,0,63,76,63,235c0,0,0,151,-62,226c0,0,-62,75,-149,75c0,0,-85,0,-151,-80c0,0,-66,-80,-66,-233c0,0,0,-152,62,-225c0,0,62,-73,149,-73ZM101,-303V792H223V688c0,0,43,61,98,91c0,0,54,31,132,31c0,0,101,0,179,-53c0,0,77,-52,117,-147c0,0,39,-95,39,-208c0,0,0,-122,-44,-219C744,183,701,86,618,34c0,0,-84,-51,-175,-51c0,0,-67,0,-121,28c0,0,-53,28,-87,71V-303Z" 
id="f1_2c"
transform="scale(0.001,-0.001)" />

<path d="M312,-10c0,0,-73,0,-114,22c0,0,-40,23,-56,61c0,0,-17,38,-17,159V687H26V792h99V988l134,81V792H394V687H259V224c0,0,0,-57,7,-74c0,0,7,-16,23,-26c0,0,16,-10,46,-10c0,0,23,0,59,6L414,1c0,0,-57,-11,-102,-11Z" 
id="f1_2g"
transform="scale(0.001,-0.001)" />

<path d="M101,0V1093H235V701c0,0,94,109,237,109c0,0,88,0,153,-35c0,0,65,-35,93,-96c0,0,28,-61,28,-177V0H612V502c0,0,0,101,-44,146c0,0,-43,46,-123,46c0,0,-60,0,-113,-31c0,0,-52,-31,-75,-84c0,0,-22,-53,-22,-146V0Z" 
id="f1_24"
transform="scale(0.001,-0.001)" />

<path d="M182,-321c0,0,-39,0,-87,17L80,-178c0,0,44,-12,77,-12c0,0,45,0,72,15c0,0,26,15,44,42c0,0,12,20,41,100c0,0,3,11,12,33L24,792H169L334,334c0,0,32,-87,58,-183c0,0,23,91,55,179L616,792H750L450,-13c0,0,-49,-130,-75,-179c0,0,-36,-67,-83,-98c0,0,-46,-31,-110,-31Z" 
id="f1_2l"
transform="scale(0.001,-0.001)" />

<path d="M406,93c0,0,88,0,149,72c0,0,62,72,62,219c0,0,0,162,-63,238c0,0,-63,76,-154,76c0,0,-90,0,-150,-73c0,0,-60,-73,-60,-230c0,0,0,-152,64,-227c0,0,64,-75,152,-75ZM393,-17c0,0,-95,0,-174,52c0,0,-80,52,-123,145c0,0,-44,94,-44,215c0,0,0,119,39,215c0,0,40,97,119,148c0,0,79,52,177,52c0,0,71,0,127,-31c0,0,56,-30,91,-79v393H739V0H615V100c0,0,-75,-117,-222,-117Z" 
id="f1_20"
transform="scale(0.001,-0.001)" />

<path d="M99,0V792H219V672c0,0,46,84,86,111c0,0,39,27,86,27c0,0,68,0,138,-43L482,642c0,0,-49,29,-98,29c0,0,-44,0,-79,-27c0,0,-35,-26,-50,-73c0,0,-22,-72,-22,-157V0Z" 
id="f1_2e"
transform="scale(0.001,-0.001)" />

<path d="M545,573c0,0,140,0,199,52c0,0,59,52,59,147c0,0,0,69,-35,118c0,0,-34,49,-91,64c0,0,-36,10,-135,10H263V573ZM118,0V1093H531c0,0,108,0,166,-10c0,0,80,-14,135,-51c0,0,54,-38,87,-106c0,0,34,-68,34,-149c0,0,0,-140,-89,-236c0,0,-89,-97,-321,-97H263V0Z" 
id="f1_1g"
transform="scale(0.001,-0.001)" />

<path d="M423,92c0,0,97,0,159,62c0,0,62,62,62,157c0,0,0,97,-64,160c0,0,-64,64,-161,64c0,0,-96,0,-158,-63c0,0,-62,-62,-62,-156c0,0,0,-58,27,-111c0,0,27,-54,81,-84c0,0,54,-29,116,-29Zm0,552c0,0,78,0,127,49c0,0,49,49,49,120c0,0,0,74,-50,124c0,0,-51,51,-128,51c0,0,-77,0,-127,-50c0,0,-51,-49,-51,-118c0,0,0,-77,50,-126c0,0,50,-50,130,-50ZM422,-18c0,0,-162,0,-261,95c0,0,-99,96,-99,239c0,0,0,107,54,179c0,0,54,72,154,98c0,0,-84,31,-124,87c0,0,-40,57,-40,136c0,0,0,119,85,201c0,0,86,81,229,81c0,0,143,0,230,-83c0,0,87,-83,87,-203c0,0,0,-76,-40,-132c0,0,-39,-56,-121,-87c0,0,101,-33,154,-106c0,0,52,-73,52,-174c0,0,0,-141,-99,-236c0,0,-99,-95,-261,-95Z" 
id="f1_s"
transform="scale(0.001,-0.001)" />

<path d="M-2,341V450H847V341Z" 
id="f1_4y"
transform="scale(0.001,-0.001)" />

<path d="M30,0V134L592,834c0,0,60,75,114,130H94v129H878V964L263,206L197,129H895V0Z" 
id="f1_1q"
transform="scale(0.001,-0.001)" />

<path d="M101,0V792H221V679c0,0,87,131,252,131c0,0,72,0,132,-26c0,0,60,-26,90,-68c0,0,30,-41,42,-99c0,0,7,-37,7,-130V0H610V482c0,0,0,82,-16,122c0,0,-15,41,-55,65c0,0,-40,24,-94,24c0,0,-86,0,-148,-54c0,0,-62,-55,-62,-207V0Z" 
id="f1_2a"
transform="scale(0.001,-0.001)" />

<path d="M420,489c0,0,93,0,153,65c0,0,60,65,60,181c0,0,0,116,-62,184c0,0,-61,68,-148,68c0,0,-90,0,-156,-74c0,0,-66,-73,-66,-189c0,0,0,-105,63,-170c0,0,63,-65,156,-65ZM391,-18c0,0,-128,0,-209,71c0,0,-82,71,-98,200l129,12c0,0,17,-91,63,-132c0,0,46,-41,118,-41c0,0,62,0,109,28c0,0,47,29,76,76c0,0,30,47,50,128c0,0,20,80,20,164c0,0,0,9,-1,27c0,0,-40,-65,-110,-105c0,0,-69,-39,-151,-39c0,0,-135,0,-229,98c0,0,-94,99,-94,260c0,0,0,166,98,268c0,0,98,101,245,101c0,0,107,0,195,-57c0,0,89,-58,134,-164c0,0,46,-106,46,-308c0,0,0,-209,-45,-334C737,235,691,111,602,46c0,0,-90,-64,-211,-64Z" 
id="f1_t"
transform="scale(0.001,-0.001)" />

<path d="M420,-17c0,0,-163,0,-262,106c0,0,-98,106,-98,304c0,0,0,128,42,224c0,0,43,96,129,145c0,0,87,48,189,48c0,0,129,0,211,-66c0,0,82,-65,106,-185L606,539c0,0,-19,80,-66,120c0,0,-48,40,-115,40c0,0,-101,0,-164,-72c0,0,-63,-73,-63,-230c0,0,0,-160,61,-232c0,0,61,-72,159,-72c0,0,79,0,132,48c0,0,53,49,67,149L749,273C749,273,728,137,639,59c0,0,-90,-76,-219,-76Z" 
id="f1_1z"
transform="scale(0.001,-0.001)" />

<path d="M420,92c0,0,92,0,155,89c0,0,64,89,64,358c0,0,0,270,-63,359c0,0,-63,89,-158,89c0,0,-92,0,-147,-79c0,0,-70,-100,-70,-369c0,0,0,-269,63,-358c0,0,63,-89,156,-89Zm0,-110c0,0,-158,0,-248,112C172,94,64,231,64,539c0,0,0,194,39,313c0,0,40,118,119,182c0,0,79,64,198,64c0,0,88,0,155,-35c0,0,66,-36,109,-103c0,0,43,-66,68,-162c0,0,24,-96,24,-259c0,0,0,-192,-39,-311C737,228,697,110,619,46c0,0,-79,-64,-199,-64Z" 
id="f1_k"
transform="scale(0.001,-0.001)" />

<path d="M0,-18L317,1113H425L108,-18Z" 
id="f1_j"
transform="scale(0.001,-0.001)" />

<path d="M576,610c0,0,99,0,155,21c0,0,56,20,85,65c0,0,29,45,29,98c0,0,0,78,-56,128c0,0,-56,50,-178,50H265V610ZM120,0V1093H605c0,0,147,0,223,-29c0,0,76,-30,121,-104c0,0,46,-75,46,-165c0,0,0,-117,-76,-197c0,0,-75,-80,-232,-101c0,0,57,-28,87,-55c0,0,63,-58,120,-145L1084,0H902L757,227c0,0,-63,98,-104,151c0,0,-41,52,-73,73c0,0,-33,21,-67,29c0,0,-24,5,-80,5H265V0Z" 
id="f1_1i"
transform="scale(0.001,-0.001)" />

<path d="M415,-18c0,0,-149,0,-244,83c0,0,-94,84,-107,222l140,11c0,0,16,-103,73,-154c0,0,56,-52,137,-52c0,0,98,0,165,73c0,0,66,73,66,194c0,0,0,115,-64,182c0,0,-64,66,-169,66c0,0,-65,0,-117,-29c0,0,-52,-30,-82,-77L87,517l106,562H736V951H300L241,657c0,0,99,69,207,69c0,0,143,0,242,-100c0,0,98,-99,98,-255c0,0,0,-149,-86,-257C702,114,597,-18,415,-18Z" 
id="f3_q"
transform="scale(0.001,-0.001)" />

<path d="M125,0V1051H268V115H799V0Z" 
id="f0_1c"
transform="scale(0.001,-0.001)" />

<path d="M106,0V620c0,0,0,85,-5,188H228c0,0,6,-138,6,-165h3c0,0,32,103,74,141c0,0,42,38,118,38c0,0,27,0,54,-7V692c0,0,-26,7,-71,7c0,0,-84,0,-128,-72c0,0,-44,-72,-44,-206V0Z" 
id="f0_2e"
transform="scale(0.001,-0.001)" />

<path d="M606,-14c0,0,-164,0,-284,65c0,0,-119,66,-182,189c0,0,-63,123,-63,291c0,0,0,255,137,396c0,0,137,140,386,140c0,0,174,0,283,-59c0,0,109,-59,168,-189L915,779c0,0,-44,90,-123,131c0,0,-79,41,-196,41c0,0,-182,0,-278,-110c0,0,-96,-110,-96,-310c0,0,0,-200,102,-315c0,0,102,-115,282,-115c0,0,103,0,193,31c0,0,89,31,144,85V407H629V526h445V164c0,0,-83,-85,-205,-132c0,0,-121,-46,-263,-46Z" 
id="f0_17"
transform="scale(0.001,-0.001)" />

<path d="M355,-14c0,0,-133,0,-194,65c0,0,-62,66,-62,219V808H234V296c0,0,0,-80,16,-124c0,0,16,-44,50,-64c0,0,34,-19,101,-19c0,0,97,0,153,66c0,0,55,67,55,185V808H744V172c0,0,0,-141,4,-172H621c0,0,0,4,-1,20c0,0,-1,17,-2,38c0,0,-1,21,-3,80h-2C613,138,567,55,506,20c0,0,-61,-34,-151,-34Z" 
id="f0_2h"
transform="scale(0.001,-0.001)" />

<path d="M395,89c0,0,115,0,166,79c0,0,51,79,51,246c0,0,0,160,-51,235c0,0,-51,75,-164,75c0,0,-102,0,-147,-75c0,0,-45,-75,-45,-244c0,0,0,-170,45,-243c0,0,45,-73,145,-73ZM361,-14c0,0,-153,0,-225,102c0,0,-72,103,-72,312c0,0,0,422,297,422c0,0,92,0,153,-33c0,0,61,-34,98,-107h2l-2,90v335H747V166c0,0,0,-126,4,-166H623c0,0,-2,12,-5,55c0,0,-3,44,-3,75h-3c0,0,-37,-78,-98,-111c0,0,-62,-33,-153,-33Z" 
id="f0_20"
transform="scale(0.001,-0.001)" />

<path d="M140,0V163H285V0Z" 
id="f0_i"
transform="scale(0.001,-0.001)" />


</defs>
</svg>