<?xml version="1.0" encoding="UTF-8" standalone="no"?>
<!DOCTYPE svg PUBLIC "-//W3C//DTD SVG 1.1//EN"
"http://www.w3.org/Graphics/SVG/1.1/DTD/svg11.dtd">
<svg viewBox="0 0 734 1091" version="1.1" xmlns="http://www.w3.org/2000/svg" xmlns:xlink="http://www.w3.org/1999/xlink">
<defs>
</defs>
<g fill="#D4D4D4" fill-opacity="0.36" >
<use xlink:href="#f0_1f" transform="matrix(50.9,-50.9,50.9,50.9,123.1,814.1)" />
<use xlink:href="#f0_2a" transform="matrix(50.9,-50.9,50.9,50.9,183.6,753.6)" />
<use xlink:href="#f0_28" transform="matrix(50.9,-50.9,50.9,50.9,226.8,710.3)" />
<use xlink:href="#f0_25" transform="matrix(50.9,-50.9,50.9,50.9,244.1,693.1)" />
<use xlink:href="#f0_2a" transform="matrix(50.9,-50.9,50.9,50.9,261.4,675.8)" />
<use xlink:href="#f0_21" transform="matrix(50.9,-50.9,50.9,50.9,304.6,632.5)" />
<use xlink:href="#f0_2k" transform="matrix(50.9,-50.9,50.9,50.9,347.8,589.3)" />
<use xlink:href="#f0_1x" transform="matrix(50.9,-50.9,50.9,50.9,386.7,550.4)" />
<use xlink:href="#f0_29" transform="matrix(50.9,-50.9,50.9,50.9,430,507.2)" />
<use xlink:href="#f0_2c" transform="matrix(50.9,-50.9,50.9,50.9,494.8,442.4)" />
<use xlink:href="#f0_2b" transform="matrix(50.9,-50.9,50.9,50.9,538,399.1)" />
<use xlink:href="#f0_25" transform="matrix(50.9,-50.9,50.9,50.9,581.3,355.9)" />
<use xlink:href="#f0_2a" transform="matrix(50.9,-50.9,50.9,50.9,598.5,338.6)" />
<use xlink:href="#f0_2g" transform="matrix(50.9,-50.9,50.9,50.9,641.8,295.4)" />
</g>
<g fill="#000000" >
<use xlink:href="#f1_p" transform="matrix(10.4,0,0,10.4,32.5,286.4)" />
<use xlink:href="#f1_i" transform="matrix(10.4,0,0,10.4,41.8,286.4)" />
<use xlink:href="#f1_1n" transform="matrix(10.4,0,0,10.4,75.7,286.4)" />
<use xlink:href="#f1_24" transform="matrix(10.4,0,0,10.4,91.7,286.4)" />
<use xlink:href="#f1_1x" transform="matrix(10.4,0,0,10.4,100.5,286.4)" />
<use xlink:href="#f1_2g" transform="matrix(10.4,0,0,10.4,109.3,286.4)" />
<use xlink:href="#f1_24" transform="matrix(10.4,0,0,10.4,121.4,286.4)" />
<use xlink:href="#f1_1x" transform="matrix(10.4,0,0,10.4,130.2,286.4)" />
<use xlink:href="#f1_2c" transform="matrix(10.4,0,0,10.4,139,286.4)" />
<use xlink:href="#f1_2c" transform="matrix(10.4,0,0,10.4,147.8,286.4)" />
<use xlink:href="#f1_21" transform="matrix(10.4,0,0,10.4,156.6,286.4)" />
<use xlink:href="#f1_2a" transform="matrix(10.4,0,0,10.4,165.4,286.4)" />
<use xlink:href="#f1_2f" transform="matrix(10.4,0,0,10.4,174.2,286.4)" />
<use xlink:href="#f1_2j" transform="matrix(10.4,0,0,10.4,190,286.4)" />
<use xlink:href="#f1_24" transform="matrix(10.4,0,0,10.4,201.1,286.4)" />
<use xlink:href="#f1_21" transform="matrix(10.4,0,0,10.4,209.9,286.4)" />
<use xlink:href="#f1_2a" transform="matrix(10.4,0,0,10.4,218.7,286.4)" />
<use xlink:href="#f1_u" transform="matrix(10.4,0,0,10.4,235.2,286.4)" />
<use xlink:href="#f1_c" transform="matrix(10.4,0,0,10.4,75.7,316.4)" />
<use xlink:href="#f1_25" transform="matrix(10.4,0,0,10.4,81.4,316.4)" />
<use xlink:href="#f1_d" transform="matrix(10.4,0,0,10.4,85.3,316.4)" />
<use xlink:href="#f1_1x" transform="matrix(10.4,0,0,10.4,119,316.4)" />
<use xlink:href="#f1_28" transform="matrix(10.4,0,0,10.4,127.8,316.4)" />
<use xlink:href="#f1_2h" transform="matrix(10.4,0,0,10.4,131.3,316.4)" />
<use xlink:href="#f1_29" transform="matrix(10.4,0,0,10.4,140.1,316.4)" />
<use xlink:href="#f1_25" transform="matrix(10.4,0,0,10.4,153.7,316.4)" />
<use xlink:href="#f1_2a" transform="matrix(10.4,0,0,10.4,157.1,316.4)" />
<use xlink:href="#f1_25" transform="matrix(10.4,0,0,10.4,165.9,316.4)" />
<use xlink:href="#f1_2h" transform="matrix(10.4,0,0,10.4,169.4,316.4)" />
<use xlink:href="#f1_29" transform="matrix(10.4,0,0,10.4,178.2,316.4)" />
<use xlink:href="#f1_2e" transform="matrix(10.4,0,0,10.4,199.9,316.4)" />
<use xlink:href="#f1_21" transform="matrix(10.4,0,0,10.4,205.2,316.4)" />
<use xlink:href="#f1_1x" transform="matrix(10.4,0,0,10.4,214,316.4)" />
<use xlink:href="#f1_1z" transform="matrix(10.4,0,0,10.4,222.8,316.4)" />
<use xlink:href="#f1_2g" transform="matrix(10.4,0,0,10.4,230.8,316.4)" />
<use xlink:href="#f1_2f" transform="matrix(10.4,0,0,10.4,235.2,316.4)" />
<use xlink:href="#f1_2j" transform="matrix(10.4,0,0,10.4,251.2,316.4)" />
<use xlink:href="#f1_25" transform="matrix(10.4,0,0,10.4,262.4,316.4)" />
<use xlink:href="#f1_2g" transform="matrix(10.4,0,0,10.4,265.9,316.4)" />
<use xlink:href="#f1_24" transform="matrix(10.4,0,0,10.4,270.3,316.4)" />
<use xlink:href="#f1_2g" transform="matrix(10.4,0,0,10.4,287.1,316.4)" />
<use xlink:href="#f1_21" transform="matrix(10.4,0,0,10.4,291.5,316.4)" />
<use xlink:href="#f1_2e" transform="matrix(10.4,0,0,10.4,300.3,316.4)" />
<use xlink:href="#f1_2g" transform="matrix(10.4,0,0,10.4,305.6,316.4)" />
<use xlink:href="#f1_h" transform="matrix(10.4,0,0,10.4,310,316.4)" />
<use xlink:href="#f1_1y" transform="matrix(10.4,0,0,10.4,315.3,316.4)" />
<use xlink:href="#f1_2h" transform="matrix(10.4,0,0,10.4,324.1,316.4)" />
<use xlink:href="#f1_2g" transform="matrix(10.4,0,0,10.4,332.9,316.4)" />
<use xlink:href="#f1_2l" transform="matrix(10.4,0,0,10.4,337.3,316.4)" />
<use xlink:href="#f1_28" transform="matrix(10.4,0,0,10.4,344.9,316.4)" />
<use xlink:href="#f1_1x" transform="matrix(10.4,0,0,10.4,356.4,316.4)" />
<use xlink:href="#f1_28" transform="matrix(10.4,0,0,10.4,365.2,316.4)" />
<use xlink:href="#f1_1z" transform="matrix(10.4,0,0,10.4,368.7,316.4)" />
<use xlink:href="#f1_2b" transform="matrix(10.4,0,0,10.4,376.8,316.4)" />
<use xlink:href="#f1_24" transform="matrix(10.4,0,0,10.4,385.6,316.4)" />
<use xlink:href="#f1_2b" transform="matrix(10.4,0,0,10.4,394.4,316.4)" />
<use xlink:href="#f1_28" transform="matrix(10.4,0,0,10.4,403.2,316.4)" />
<use xlink:href="#f1_c" transform="matrix(10.4,0,0,10.4,75.7,346.3)" />
<use xlink:href="#f1_25" transform="matrix(10.4,0,0,10.4,81.2,346.3)" />
<use xlink:href="#f1_25" transform="matrix(10.4,0,0,10.4,85.1,346.3)" />
<use xlink:href="#f1_d" transform="matrix(10.4,0,0,10.4,88.8,346.3)" />
<use xlink:href="#f1_2c" transform="matrix(10.4,0,0,10.4,119,346.3)" />
<use xlink:href="#f1_24" transform="matrix(10.4,0,0,10.4,127.8,346.3)" />
<use xlink:href="#f1_21" transform="matrix(10.4,0,0,10.4,136.6,346.3)" />
<use xlink:href="#f1_2a" transform="matrix(10.4,0,0,10.4,145.4,346.3)" />
<use xlink:href="#f1_2b" transform="matrix(10.4,0,0,10.4,154.2,346.3)" />
<use xlink:href="#f1_28" transform="matrix(10.4,0,0,10.4,163,346.3)" />
<use xlink:href="#f1_25" transform="matrix(10.4,0,0,10.4,173.8,346.3)" />
<use xlink:href="#f1_2f" transform="matrix(10.4,0,0,10.4,177.3,346.3)" />
<use xlink:href="#f1_2b" transform="matrix(10.4,0,0,10.4,192.7,346.3)" />
<use xlink:href="#f1_2k" transform="matrix(10.4,0,0,10.4,201.5,346.3)" />
<use xlink:href="#f1_25" transform="matrix(10.4,0,0,10.4,209.4,346.3)" />
<use xlink:href="#f1_20" transform="matrix(10.4,0,0,10.4,212.9,346.3)" />
<use xlink:href="#f1_25" transform="matrix(10.4,0,0,10.4,221.7,346.3)" />
<use xlink:href="#f1_2f" transform="matrix(10.4,0,0,10.4,225.2,346.3)" />
<use xlink:href="#f1_21" transform="matrix(10.4,0,0,10.4,233.2,346.3)" />
<use xlink:href="#f1_20" transform="matrix(10.4,0,0,10.4,242,346.3)" />
<use xlink:href="#f1_2j" transform="matrix(10.4,0,0,10.4,258.2,346.3)" />
<use xlink:href="#f1_25" transform="matrix(10.4,0,0,10.4,269.3,346.3)" />
<use xlink:href="#f1_2g" transform="matrix(10.4,0,0,10.4,272.8,346.3)" />
<use xlink:href="#f1_24" transform="matrix(10.4,0,0,10.4,277.2,346.3)" />
<use xlink:href="#f1_1z" transform="matrix(10.4,0,0,10.4,293.3,346.3)" />
<use xlink:href="#f1_24" transform="matrix(10.4,0,0,10.4,301.4,346.3)" />
<use xlink:href="#f1_2e" transform="matrix(10.4,0,0,10.4,310.2,346.3)" />
<use xlink:href="#f1_2b" transform="matrix(10.4,0,0,10.4,315.5,346.3)" />
<use xlink:href="#f1_29" transform="matrix(10.4,0,0,10.4,324.3,346.3)" />
<use xlink:href="#f1_25" transform="matrix(10.4,0,0,10.4,337.9,346.3)" />
<use xlink:href="#f1_1z" transform="matrix(10.4,0,0,10.4,341.4,346.3)" />
<use xlink:href="#f1_1x" transform="matrix(10.4,0,0,10.4,356.8,346.3)" />
<use xlink:href="#f1_1z" transform="matrix(10.4,0,0,10.4,365.6,346.3)" />
<use xlink:href="#f1_25" transform="matrix(10.4,0,0,10.4,373.6,346.3)" />
<use xlink:href="#f1_20" transform="matrix(10.4,0,0,10.4,377.1,346.3)" />
<use xlink:href="#f1_c" transform="matrix(10.4,0,0,10.4,75.7,376.4)" />
<use xlink:href="#f1_25" transform="matrix(10.4,0,0,10.4,81.2,376.4)" />
<use xlink:href="#f1_25" transform="matrix(10.4,0,0,10.4,84.9,376.4)" />
<use xlink:href="#f1_25" transform="matrix(10.4,0,0,10.4,88.6,376.4)" />
<use xlink:href="#f1_d" transform="matrix(10.4,0,0,10.4,92.2,376.4)" />
<use xlink:href="#f1_1z" transform="matrix(10.4,0,0,10.4,119,376.4)" />
<use xlink:href="#f1_2h" transform="matrix(10.4,0,0,10.4,127.1,376.4)" />
<use xlink:href="#f1_29" transform="matrix(10.4,0,0,10.4,135.9,376.4)" />
<use xlink:href="#f1_21" transform="matrix(10.4,0,0,10.4,149.4,376.4)" />
<use xlink:href="#f1_2a" transform="matrix(10.4,0,0,10.4,158.2,376.4)" />
<use xlink:href="#f1_21" transform="matrix(10.4,0,0,10.4,167,376.4)" />
<use xlink:href="#f1_25" transform="matrix(10.4,0,0,10.4,183.5,376.4)" />
<use xlink:href="#f1_2f" transform="matrix(10.4,0,0,10.4,187,376.4)" />
<use xlink:href="#f1_2b" transform="matrix(10.4,0,0,10.4,202.8,376.4)" />
<use xlink:href="#f1_2k" transform="matrix(10.4,0,0,10.4,211.6,376.4)" />
<use xlink:href="#f1_25" transform="matrix(10.4,0,0,10.4,219.5,376.4)" />
<use xlink:href="#f1_20" transform="matrix(10.4,0,0,10.4,223,376.4)" />
<use xlink:href="#f1_25" transform="matrix(10.4,0,0,10.4,231.8,376.4)" />
<use xlink:href="#f1_2f" transform="matrix(10.4,0,0,10.4,235.2,376.4)" />
<use xlink:href="#f1_21" transform="matrix(10.4,0,0,10.4,243.3,376.4)" />
<use xlink:href="#f1_20" transform="matrix(10.4,0,0,10.4,252.1,376.4)" />
<use xlink:href="#f1_25" transform="matrix(10.4,0,0,10.4,268.4,376.4)" />
<use xlink:href="#f1_2a" transform="matrix(10.4,0,0,10.4,271.9,376.4)" />
<use xlink:href="#f1_2g" transform="matrix(10.4,0,0,10.4,288.4,376.4)" />
<use xlink:href="#f1_24" transform="matrix(10.4,0,0,10.4,292.8,376.4)" />
<use xlink:href="#f1_21" transform="matrix(10.4,0,0,10.4,301.6,376.4)" />
<use xlink:href="#f1_2c" transform="matrix(10.4,0,0,10.4,318.1,376.4)" />
<use xlink:href="#f1_2e" transform="matrix(10.4,0,0,10.4,326.9,376.4)" />
<use xlink:href="#f1_21" transform="matrix(10.4,0,0,10.4,332.2,376.4)" />
<use xlink:href="#f1_2f" transform="matrix(10.4,0,0,10.4,341,376.4)" />
<use xlink:href="#f1_21" transform="matrix(10.4,0,0,10.4,349.1,376.4)" />
<use xlink:href="#f1_2a" transform="matrix(10.4,0,0,10.4,357.9,376.4)" />
<use xlink:href="#f1_1z" transform="matrix(10.4,0,0,10.4,366.7,376.4)" />
<use xlink:href="#f1_21" transform="matrix(10.4,0,0,10.4,374.7,376.4)" />
<use xlink:href="#f1_2b" transform="matrix(10.4,0,0,10.4,391.2,376.4)" />
<use xlink:href="#f1_22" transform="matrix(10.4,0,0,10.4,400,376.4)" />
<use xlink:href="#f1_1x" transform="matrix(10.4,0,0,10.4,412.3,376.4)" />
<use xlink:href="#f1_25" transform="matrix(10.4,0,0,10.4,421.1,376.4)" />
<use xlink:href="#f1_2e" transform="matrix(10.4,0,0,10.4,424.6,376.4)" />
<use xlink:href="#f1_1x" transform="matrix(10.4,0,0,10.4,437.6,376.4)" />
<use xlink:href="#f1_2a" transform="matrix(10.4,0,0,10.4,446.4,376.4)" />
<use xlink:href="#f1_20" transform="matrix(10.4,0,0,10.4,455.2,376.4)" />
<use xlink:href="#f1_2g" transform="matrix(10.4,0,0,10.4,471.5,376.4)" />
<use xlink:href="#f1_24" transform="matrix(10.4,0,0,10.4,475.9,376.4)" />
<use xlink:href="#f1_21" transform="matrix(10.4,0,0,10.4,484.7,376.4)" />
<use xlink:href="#f1_2c" transform="matrix(10.4,0,0,10.4,501.2,376.4)" />
<use xlink:href="#f1_2e" transform="matrix(10.4,0,0,10.4,510,376.4)" />
<use xlink:href="#f1_2b" transform="matrix(10.4,0,0,10.4,515.3,376.4)" />
<use xlink:href="#f1_20" transform="matrix(10.4,0,0,10.4,524.1,376.4)" />
<use xlink:href="#f1_2h" transform="matrix(10.4,0,0,10.4,532.9,376.4)" />
<use xlink:href="#f1_1z" transform="matrix(10.4,0,0,10.4,541.7,376.4)" />
<use xlink:href="#f1_2g" transform="matrix(10.4,0,0,10.4,549.8,376.4)" />
<use xlink:href="#f1_22" transform="matrix(10.4,0,0,10.4,561.9,376.4)" />
<use xlink:href="#f1_2b" transform="matrix(10.4,0,0,10.4,566.5,376.4)" />
<use xlink:href="#f1_2e" transform="matrix(10.4,0,0,10.4,575.3,376.4)" />
<use xlink:href="#f1_29" transform="matrix(10.4,0,0,10.4,580.6,376.4)" />
<use xlink:href="#f1_21" transform="matrix(10.4,0,0,10.4,594.2,376.4)" />
<use xlink:href="#f1_20" transform="matrix(10.4,0,0,10.4,603,376.4)" />
<use xlink:href="#f1_25" transform="matrix(10.4,0,0,10.4,75.7,397.3)" />
<use xlink:href="#f1_2f" transform="matrix(10.4,0,0,10.4,79.2,397.3)" />
<use xlink:href="#f1_2g" transform="matrix(10.4,0,0,10.4,95.2,397.3)" />
<use xlink:href="#f1_2e" transform="matrix(10.4,0,0,10.4,99.6,397.3)" />
<use xlink:href="#f1_21" transform="matrix(10.4,0,0,10.4,104.9,397.3)" />
<use xlink:href="#f1_1x" transform="matrix(10.4,0,0,10.4,113.7,397.3)" />
<use xlink:href="#f1_2g" transform="matrix(10.4,0,0,10.4,122.5,397.3)" />
<use xlink:href="#f1_21" transform="matrix(10.4,0,0,10.4,126.9,397.3)" />
<use xlink:href="#f1_20" transform="matrix(10.4,0,0,10.4,135.7,397.3)" />
<use xlink:href="#f1_2j" transform="matrix(10.4,0,0,10.4,152.2,397.3)" />
<use xlink:href="#f1_25" transform="matrix(10.4,0,0,10.4,163.4,397.3)" />
<use xlink:href="#f1_2g" transform="matrix(10.4,0,0,10.4,166.9,397.3)" />
<use xlink:href="#f1_24" transform="matrix(10.4,0,0,10.4,171.3,397.3)" />
<use xlink:href="#f1_20" transform="matrix(10.4,0,0,10.4,187.9,397.3)" />
<use xlink:href="#f1_25" transform="matrix(10.4,0,0,10.4,196.7,397.3)" />
<use xlink:href="#f1_28" transform="matrix(10.4,0,0,10.4,200.2,397.3)" />
<use xlink:href="#f1_2h" transform="matrix(10.4,0,0,10.4,203.7,397.3)" />
<use xlink:href="#f1_2g" transform="matrix(10.4,0,0,10.4,212.5,397.3)" />
<use xlink:href="#f1_21" transform="matrix(10.4,0,0,10.4,216.9,397.3)" />
<use xlink:href="#f1_1x" transform="matrix(10.4,0,0,10.4,233.6,397.3)" />
<use xlink:href="#f1_1z" transform="matrix(10.4,0,0,10.4,242.4,397.3)" />
<use xlink:href="#f1_25" transform="matrix(10.4,0,0,10.4,250.5,397.3)" />
<use xlink:href="#f1_20" transform="matrix(10.4,0,0,10.4,253.9,397.3)" />
<use xlink:href="#f1_i" transform="matrix(10.4,0,0,10.4,262.7,397.3)" />
<use xlink:href="#f1_c" transform="matrix(10.4,0,0,10.4,75.7,427.4)" />
<use xlink:href="#f1_25" transform="matrix(10.4,0,0,10.4,81.4,427.4)" />
<use xlink:href="#f1_2i" transform="matrix(10.4,0,0,10.4,85.1,427.4)" />
<use xlink:href="#f1_d" transform="matrix(10.4,0,0,10.4,93.3,427.4)" />
<use xlink:href="#f1_2c" transform="matrix(10.4,0,0,10.4,119,427.4)" />
<use xlink:href="#f1_24" transform="matrix(10.4,0,0,10.4,127.8,427.4)" />
<use xlink:href="#f1_21" transform="matrix(10.4,0,0,10.4,136.6,427.4)" />
<use xlink:href="#f1_2a" transform="matrix(10.4,0,0,10.4,145.4,427.4)" />
<use xlink:href="#f1_2b" transform="matrix(10.4,0,0,10.4,154.2,427.4)" />
<use xlink:href="#f1_28" transform="matrix(10.4,0,0,10.4,163,427.4)" />
<use xlink:href="#f1_25" transform="matrix(10.4,0,0,10.4,174,427.4)" />
<use xlink:href="#f1_2f" transform="matrix(10.4,0,0,10.4,177.5,427.4)" />
<use xlink:href="#f1_2g" transform="matrix(10.4,0,0,10.4,192.9,427.4)" />
<use xlink:href="#f1_2e" transform="matrix(10.4,0,0,10.4,197.3,427.4)" />
<use xlink:href="#f1_21" transform="matrix(10.4,0,0,10.4,202.6,427.4)" />
<use xlink:href="#f1_1x" transform="matrix(10.4,0,0,10.4,211.4,427.4)" />
<use xlink:href="#f1_2g" transform="matrix(10.4,0,0,10.4,220.2,427.4)" />
<use xlink:href="#f1_21" transform="matrix(10.4,0,0,10.4,224.6,427.4)" />
<use xlink:href="#f1_20" transform="matrix(10.4,0,0,10.4,233.4,427.4)" />
<use xlink:href="#f1_2j" transform="matrix(10.4,0,0,10.4,249.7,427.4)" />
<use xlink:href="#f1_25" transform="matrix(10.4,0,0,10.4,260.9,427.4)" />
<use xlink:href="#f1_2g" transform="matrix(10.4,0,0,10.4,264.4,427.4)" />
<use xlink:href="#f1_24" transform="matrix(10.4,0,0,10.4,268.8,427.4)" />
<use xlink:href="#f1_1z" transform="matrix(10.4,0,0,10.4,284.9,427.4)" />
<use xlink:href="#f1_2b" transform="matrix(10.4,0,0,10.4,293,427.4)" />
<use xlink:href="#f1_2a" transform="matrix(10.4,0,0,10.4,301.8,427.4)" />
<use xlink:href="#f1_1z" transform="matrix(10.4,0,0,10.4,310.6,427.4)" />
<use xlink:href="#f1_i" transform="matrix(10.4,0,0,10.4,318.6,427.4)" />
<use xlink:href="#f1_18" transform="matrix(10.4,0,0,10.4,330.6,427.4)" />
<use xlink:href="#f1_1e" transform="matrix(10.4,0,0,10.4,342.1,427.4)" />
<use xlink:href="#f1_1f" transform="matrix(10.4,0,0,10.4,353.7,427.4)" />
<use xlink:href="#f1_n" transform="matrix(7.4,0,0,7.4,366.1,432.7)" />
<use xlink:href="#f1_i" transform="matrix(10.4,0,0,10.4,372.4,427.4)" />
<use xlink:href="#f1_c" transform="matrix(10.4,0,0,10.4,75.7,457.4)" />
<use xlink:href="#f1_2i" transform="matrix(10.4,0,0,10.4,81.4,457.4)" />
<use xlink:href="#f1_d" transform="matrix(10.4,0,0,10.4,89.9,457.4)" />
<use xlink:href="#f1_2c" transform="matrix(10.4,0,0,10.4,119,457.4)" />
<use xlink:href="#f1_24" transform="matrix(10.4,0,0,10.4,127.8,457.4)" />
<use xlink:href="#f1_21" transform="matrix(10.4,0,0,10.4,136.6,457.4)" />
<use xlink:href="#f1_2a" transform="matrix(10.4,0,0,10.4,145.4,457.4)" />
<use xlink:href="#f1_2b" transform="matrix(10.4,0,0,10.4,154.2,457.4)" />
<use xlink:href="#f1_28" transform="matrix(10.4,0,0,10.4,163,457.4)" />
<use xlink:href="#f1_25" transform="matrix(10.4,0,0,10.4,174.2,457.4)" />
<use xlink:href="#f1_2f" transform="matrix(10.4,0,0,10.4,177.7,457.4)" />
<use xlink:href="#f1_2g" transform="matrix(10.4,0,0,10.4,193.4,457.4)" />
<use xlink:href="#f1_2e" transform="matrix(10.4,0,0,10.4,197.8,457.4)" />
<use xlink:href="#f1_21" transform="matrix(10.4,0,0,10.4,203.2,457.4)" />
<use xlink:href="#f1_1x" transform="matrix(10.4,0,0,10.4,212,457.4)" />
<use xlink:href="#f1_2g" transform="matrix(10.4,0,0,10.4,220.8,457.4)" />
<use xlink:href="#f1_21" transform="matrix(10.4,0,0,10.4,225.2,457.4)" />
<use xlink:href="#f1_20" transform="matrix(10.4,0,0,10.4,234,457.4)" />
<use xlink:href="#f1_2j" transform="matrix(10.4,0,0,10.4,250.3,457.4)" />
<use xlink:href="#f1_25" transform="matrix(10.4,0,0,10.4,261.5,457.4)" />
<use xlink:href="#f1_2g" transform="matrix(10.4,0,0,10.4,264.9,457.4)" />
<use xlink:href="#f1_24" transform="matrix(10.4,0,0,10.4,269.3,457.4)" />
<use xlink:href="#f1_1z" transform="matrix(10.4,0,0,10.4,285.8,457.4)" />
<use xlink:href="#f1_24" transform="matrix(10.4,0,0,10.4,293.9,457.4)" />
<use xlink:href="#f1_28" transform="matrix(10.4,0,0,10.4,302.7,457.4)" />
<use xlink:href="#f1_2b" transform="matrix(10.4,0,0,10.4,306.2,457.4)" />
<use xlink:href="#f1_2e" transform="matrix(10.4,0,0,10.4,315,457.4)" />
<use xlink:href="#f1_2b" transform="matrix(10.4,0,0,10.4,320.3,457.4)" />
<use xlink:href="#f1_22" transform="matrix(10.4,0,0,10.4,329.1,457.4)" />
<use xlink:href="#f1_2b" transform="matrix(10.4,0,0,10.4,333.7,457.4)" />
<use xlink:href="#f1_2e" transform="matrix(10.4,0,0,10.4,342.5,457.4)" />
<use xlink:href="#f1_29" transform="matrix(10.4,0,0,10.4,347.8,457.4)" />
<use xlink:href="#f1_25" transform="matrix(10.4,0,0,10.4,369.1,457.4)" />
<use xlink:href="#f1_2a" transform="matrix(10.4,0,0,10.4,372.5,457.4)" />
<use xlink:href="#f1_2c" transform="matrix(10.4,0,0,10.4,389,457.4)" />
<use xlink:href="#f1_2e" transform="matrix(10.4,0,0,10.4,397.8,457.4)" />
<use xlink:href="#f1_21" transform="matrix(10.4,0,0,10.4,403.2,457.4)" />
<use xlink:href="#f1_2f" transform="matrix(10.4,0,0,10.4,412,457.4)" />
<use xlink:href="#f1_21" transform="matrix(10.4,0,0,10.4,420,457.4)" />
<use xlink:href="#f1_2a" transform="matrix(10.4,0,0,10.4,428.8,457.4)" />
<use xlink:href="#f1_1z" transform="matrix(10.4,0,0,10.4,437.6,457.4)" />
<use xlink:href="#f1_21" transform="matrix(10.4,0,0,10.4,445.7,457.4)" />
<use xlink:href="#f1_2b" transform="matrix(10.4,0,0,10.4,462,457.4)" />
<use xlink:href="#f1_22" transform="matrix(10.4,0,0,10.4,470.8,457.4)" />
<use xlink:href="#f1_20" transform="matrix(10.4,0,0,10.4,483.1,457.4)" />
<use xlink:href="#f1_25" transform="matrix(10.4,0,0,10.4,491.9,457.4)" />
<use xlink:href="#f1_28" transform="matrix(10.4,0,0,10.4,495.4,457.4)" />
<use xlink:href="#f1_2h" transform="matrix(10.4,0,0,10.4,498.8,457.4)" />
<use xlink:href="#f1_2g" transform="matrix(10.4,0,0,10.4,507.6,457.4)" />
<use xlink:href="#f1_21" transform="matrix(10.4,0,0,10.4,512,457.4)" />
<use xlink:href="#f1_1e" transform="matrix(10.4,0,0,10.4,528.5,457.4)" />
<use xlink:href="#f1_1x" transform="matrix(10.4,0,0,10.4,540.1,457.4)" />
<use xlink:href="#f1_1f" transform="matrix(10.4,0,0,10.4,548.9,457.4)" />
<use xlink:href="#f1_18" transform="matrix(10.4,0,0,10.4,561.4,457.4)" />
<use xlink:href="#f1_i" transform="matrix(10.4,0,0,10.4,572.9,457.4)" />
<use xlink:href="#f1_q" transform="matrix(10.4,0,0,10.4,32.5,487.3)" />
<use xlink:href="#f1_i" transform="matrix(10.4,0,0,10.4,41.8,487.3)" />
<use xlink:href="#f1_18" transform="matrix(10.4,0,0,10.4,75.7,487.3)" />
<use xlink:href="#f1_2b" transform="matrix(10.4,0,0,10.4,87.3,487.3)" />
<use xlink:href="#f1_2j" transform="matrix(10.4,0,0,10.4,96.1,487.3)" />
<use xlink:href="#f1_2j" transform="matrix(10.4,0,0,10.4,114.2,487.3)" />
<use xlink:href="#f1_25" transform="matrix(10.4,0,0,10.4,125.4,487.3)" />
<use xlink:href="#f1_28" transform="matrix(10.4,0,0,10.4,128.9,487.3)" />
<use xlink:href="#f1_28" transform="matrix(10.4,0,0,10.4,132.4,487.3)" />
<use xlink:href="#f1_2l" transform="matrix(10.4,0,0,10.4,142.8,487.3)" />
<use xlink:href="#f1_2b" transform="matrix(10.4,0,0,10.4,150.4,487.3)" />
<use xlink:href="#f1_2h" transform="matrix(10.4,0,0,10.4,159.2,487.3)" />
<use xlink:href="#f1_1z" transform="matrix(10.4,0,0,10.4,174.9,487.3)" />
<use xlink:href="#f1_2b" transform="matrix(10.4,0,0,10.4,183,487.3)" />
<use xlink:href="#f1_2a" transform="matrix(10.4,0,0,10.4,191.8,487.3)" />
<use xlink:href="#f1_2i" transform="matrix(10.4,0,0,10.4,200.6,487.3)" />
<use xlink:href="#f1_21" transform="matrix(10.4,0,0,10.4,208.5,487.3)" />
<use xlink:href="#f1_2e" transform="matrix(10.4,0,0,10.4,217.3,487.3)" />
<use xlink:href="#f1_2g" transform="matrix(10.4,0,0,10.4,222.6,487.3)" />
<use xlink:href="#f1_c" transform="matrix(10.4,0,0,10.4,75.7,517.4)" />
<use xlink:href="#f1_25" transform="matrix(10.4,0,0,10.4,81.4,517.4)" />
<use xlink:href="#f1_d" transform="matrix(10.4,0,0,10.4,85.3,517.4)" />
<use xlink:href="#f1_2c" transform="matrix(10.4,0,0,10.4,119,517.4)" />
<use xlink:href="#f1_2e" transform="matrix(10.4,0,0,10.4,128,517.4)" />
<use xlink:href="#f1_2b" transform="matrix(10.4,0,0,10.4,133.3,517.4)" />
<use xlink:href="#f1_2c" transform="matrix(10.4,0,0,10.4,142.3,517.4)" />
<use xlink:href="#f1_21" transform="matrix(10.4,0,0,10.4,151.3,517.4)" />
<use xlink:href="#f1_2a" transform="matrix(10.4,0,0,10.4,160.3,517.4)" />
<use xlink:href="#f1_21" transform="matrix(10.4,0,0,10.4,169.1,517.4)" />
<use xlink:href="#f1_2g" transform="matrix(10.4,0,0,10.4,187,517.4)" />
<use xlink:href="#f1_2b" transform="matrix(10.4,0,0,10.4,191.6,517.4)" />
<use xlink:href="#f1_2c" transform="matrix(10.4,0,0,10.4,209.4,517.4)" />
<use xlink:href="#f1_2e" transform="matrix(10.4,0,0,10.4,218.4,517.4)" />
<use xlink:href="#f1_2b" transform="matrix(10.4,0,0,10.4,223.7,517.4)" />
<use xlink:href="#f1_2c" transform="matrix(10.4,0,0,10.4,232.7,517.4)" />
<use xlink:href="#f1_1x" transform="matrix(10.4,0,0,10.4,241.6,517.4)" />
<use xlink:href="#f1_2a" transform="matrix(10.4,0,0,10.4,250.6,517.4)" />
<use xlink:href="#f1_h" transform="matrix(10.4,0,0,10.4,259.4,517.4)" />
<use xlink:href="#f1_28" transform="matrix(10.4,0,0,10.4,264.9,517.4)" />
<use xlink:href="#f1_h" transform="matrix(10.4,0,0,10.4,268.6,517.4)" />
<use xlink:href="#f1_2b" transform="matrix(10.4,0,0,10.4,274.1,517.4)" />
<use xlink:href="#f1_28" transform="matrix(10.4,0,0,10.4,282.9,517.4)" />
<use xlink:href="#f1_i" transform="matrix(10.4,0,0,10.4,286.5,517.4)" />
<use xlink:href="#f1_c" transform="matrix(10.4,0,0,10.4,75.7,547.4)" />
<use xlink:href="#f1_25" transform="matrix(10.4,0,0,10.4,81.2,547.4)" />
<use xlink:href="#f1_25" transform="matrix(10.4,0,0,10.4,85.1,547.4)" />
<use xlink:href="#f1_d" transform="matrix(10.4,0,0,10.4,88.8,547.4)" />
<use xlink:href="#f1_1x" transform="matrix(10.4,0,0,10.4,119,547.4)" />
<use xlink:href="#f1_2a" transform="matrix(10.4,0,0,10.4,127.8,547.4)" />
<use xlink:href="#f1_25" transform="matrix(10.4,0,0,10.4,136.6,547.4)" />
<use xlink:href="#f1_2f" transform="matrix(10.4,0,0,10.4,140.1,547.4)" />
<use xlink:href="#f1_2b" transform="matrix(10.4,0,0,10.4,148.2,547.4)" />
<use xlink:href="#f1_28" transform="matrix(10.4,0,0,10.4,157,547.4)" />
<use xlink:href="#f1_21" transform="matrix(10.4,0,0,10.4,160.4,547.4)" />
<use xlink:href="#f1_2g" transform="matrix(10.4,0,0,10.4,177.9,547.4)" />
<use xlink:href="#f1_2b" transform="matrix(10.4,0,0,10.4,182.3,547.4)" />
<use xlink:href="#f1_2c" transform="matrix(10.4,0,0,10.4,199.9,547.4)" />
<use xlink:href="#f1_24" transform="matrix(10.4,0,0,10.4,208.7,547.4)" />
<use xlink:href="#f1_21" transform="matrix(10.4,0,0,10.4,217.5,547.4)" />
<use xlink:href="#f1_2a" transform="matrix(10.4,0,0,10.4,226.3,547.4)" />
<use xlink:href="#f1_2b" transform="matrix(10.4,0,0,10.4,235.1,547.4)" />
<use xlink:href="#f1_28" transform="matrix(10.4,0,0,10.4,243.9,547.4)" />
<use xlink:href="#f1_c" transform="matrix(10.4,0,0,10.4,75.7,577.5)" />
<use xlink:href="#f1_25" transform="matrix(10.4,0,0,10.4,81.2,577.5)" />
<use xlink:href="#f1_25" transform="matrix(10.4,0,0,10.4,84.9,577.5)" />
<use xlink:href="#f1_25" transform="matrix(10.4,0,0,10.4,88.6,577.5)" />
<use xlink:href="#f1_d" transform="matrix(10.4,0,0,10.4,92.2,577.5)" />
<use xlink:href="#f1_1y" transform="matrix(10.4,0,0,10.4,119,577.5)" />
<use xlink:href="#f1_2h" transform="matrix(10.4,0,0,10.4,128,577.5)" />
<use xlink:href="#f1_2g" transform="matrix(10.4,0,0,10.4,137,577.5)" />
<use xlink:href="#f1_1x" transform="matrix(10.4,0,0,10.4,141.6,577.5)" />
<use xlink:href="#f1_2a" transform="matrix(10.4,0,0,10.4,150.4,577.5)" />
<use xlink:href="#f1_h" transform="matrix(10.4,0,0,10.4,159.3,577.5)" />
<use xlink:href="#f1_m" transform="matrix(10.4,0,0,10.4,164.8,577.5)" />
<use xlink:href="#f1_h" transform="matrix(10.4,0,0,10.4,173.8,577.5)" />
<use xlink:href="#f1_2b" transform="matrix(10.4,0,0,10.4,179.3,577.5)" />
<use xlink:href="#f1_2a" transform="matrix(10.4,0,0,10.4,188.3,577.5)" />
<use xlink:href="#f1_21" transform="matrix(10.4,0,0,10.4,197.3,577.5)" />
<use xlink:href="#f1_2g" transform="matrix(10.4,0,0,10.4,215.1,577.5)" />
<use xlink:href="#f1_2b" transform="matrix(10.4,0,0,10.4,219.6,577.5)" />
<use xlink:href="#f1_1y" transform="matrix(10.4,0,0,10.4,237.6,577.5)" />
<use xlink:href="#f1_2h" transform="matrix(10.4,0,0,10.4,246.6,577.5)" />
<use xlink:href="#f1_2g" transform="matrix(10.4,0,0,10.4,255.6,577.5)" />
<use xlink:href="#f1_1x" transform="matrix(10.4,0,0,10.4,260.2,577.5)" />
<use xlink:href="#f1_2a" transform="matrix(10.4,0,0,10.4,269.1,577.5)" />
<use xlink:href="#f1_h" transform="matrix(10.4,0,0,10.4,277.9,577.5)" />
<use xlink:href="#f1_m" transform="matrix(10.4,0,0,10.4,283.4,577.5)" />
<use xlink:href="#f1_h" transform="matrix(10.4,0,0,10.4,292.4,577.5)" />
<use xlink:href="#f1_2b" transform="matrix(10.4,0,0,10.4,297.9,577.5)" />
<use xlink:href="#f1_28" transform="matrix(10.4,0,0,10.4,306.9,577.5)" />
<use xlink:href="#f1_c" transform="matrix(10.4,0,0,10.4,75.7,607.6)" />
<use xlink:href="#f1_25" transform="matrix(10.4,0,0,10.4,81.4,607.6)" />
<use xlink:href="#f1_2i" transform="matrix(10.4,0,0,10.4,85.1,607.6)" />
<use xlink:href="#f1_d" transform="matrix(10.4,0,0,10.4,93.3,607.6)" />
<use xlink:href="#f1_21" transform="matrix(10.4,0,0,10.4,119,607.6)" />
<use xlink:href="#f1_2g" transform="matrix(10.4,0,0,10.4,127.8,607.6)" />
<use xlink:href="#f1_24" transform="matrix(10.4,0,0,10.4,132.2,607.6)" />
<use xlink:href="#f1_1x" transform="matrix(10.4,0,0,10.4,141.2,607.6)" />
<use xlink:href="#f1_2a" transform="matrix(10.4,0,0,10.4,150,607.6)" />
<use xlink:href="#f1_1x" transform="matrix(10.4,0,0,10.4,158.8,607.6)" />
<use xlink:href="#f1_28" transform="matrix(10.4,0,0,10.4,167.6,607.6)" />
<use xlink:href="#f1_2g" transform="matrix(10.4,0,0,10.4,180.1,607.6)" />
<use xlink:href="#f1_2b" transform="matrix(10.4,0,0,10.4,184.5,607.6)" />
<use xlink:href="#f1_21" transform="matrix(10.4,0,0,10.4,202.2,607.6)" />
<use xlink:href="#f1_2g" transform="matrix(10.4,0,0,10.4,211,607.6)" />
<use xlink:href="#f1_24" transform="matrix(10.4,0,0,10.4,215.4,607.6)" />
<use xlink:href="#f1_1x" transform="matrix(10.4,0,0,10.4,224.2,607.6)" />
<use xlink:href="#f1_2a" transform="matrix(10.4,0,0,10.4,233.2,607.6)" />
<use xlink:href="#f1_2b" transform="matrix(10.4,0,0,10.4,242,607.6)" />
<use xlink:href="#f1_28" transform="matrix(10.4,0,0,10.4,250.8,607.6)" />
<use xlink:href="#f1_c" transform="matrix(10.4,0,0,10.4,75.7,637.5)" />
<use xlink:href="#f1_2i" transform="matrix(10.4,0,0,10.4,81.4,637.5)" />
<use xlink:href="#f1_d" transform="matrix(10.4,0,0,10.4,89.9,637.5)" />
<use xlink:href="#f1_2c" transform="matrix(10.4,0,0,10.4,119,637.5)" />
<use xlink:href="#f1_24" transform="matrix(10.4,0,0,10.4,127.8,637.5)" />
<use xlink:href="#f1_21" transform="matrix(10.4,0,0,10.4,136.6,637.5)" />
<use xlink:href="#f1_2a" transform="matrix(10.4,0,0,10.4,145.6,637.5)" />
<use xlink:href="#f1_2b" transform="matrix(10.4,0,0,10.4,154.4,637.5)" />
<use xlink:href="#f1_28" transform="matrix(10.4,0,0,10.4,163.2,637.5)" />
<use xlink:href="#f1_2g" transform="matrix(10.4,0,0,10.4,175.5,637.5)" />
<use xlink:href="#f1_2b" transform="matrix(10.4,0,0,10.4,179.9,637.5)" />
<use xlink:href="#f1_21" transform="matrix(10.4,0,0,10.4,197.7,637.5)" />
<use xlink:href="#f1_2g" transform="matrix(10.4,0,0,10.4,206.5,637.5)" />
<use xlink:href="#f1_24" transform="matrix(10.4,0,0,10.4,210.9,637.5)" />
<use xlink:href="#f1_2b" transform="matrix(10.4,0,0,10.4,219.7,637.5)" />
<use xlink:href="#f1_2k" transform="matrix(10.4,0,0,10.4,228.6,637.5)" />
<use xlink:href="#f1_2l" transform="matrix(10.4,0,0,10.4,236.5,637.5)" />
<use xlink:href="#f1_1y" transform="matrix(10.4,0,0,10.4,244,637.5)" />
<use xlink:href="#f1_21" transform="matrix(10.4,0,0,10.4,252.8,637.5)" />
<use xlink:href="#f1_2a" transform="matrix(10.4,0,0,10.4,261.6,637.5)" />
<use xlink:href="#f1_2m" transform="matrix(10.4,0,0,10.4,270.4,637.5)" />
<use xlink:href="#f1_21" transform="matrix(10.4,0,0,10.4,278.3,637.5)" />
<use xlink:href="#f1_2a" transform="matrix(10.4,0,0,10.4,287.1,637.5)" />
<use xlink:href="#f1_21" transform="matrix(10.4,0,0,10.4,295.9,637.5)" />
<use xlink:href="#f1_c" transform="matrix(10.4,0,0,10.4,75.7,667.5)" />
<use xlink:href="#f1_2i" transform="matrix(10.4,0,0,10.4,81.4,667.5)" />
<use xlink:href="#f1_25" transform="matrix(10.4,0,0,10.4,89.5,667.5)" />
<use xlink:href="#f1_d" transform="matrix(10.4,0,0,10.4,93.3,667.5)" />
<use xlink:href="#f1_l" transform="matrix(10.4,0,0,10.4,119,667.5)" />
<use xlink:href="#f1_h" transform="matrix(10.4,0,0,10.4,128,667.5)" />
<use xlink:href="#f1_2c" transform="matrix(10.4,0,0,10.4,133.5,667.5)" />
<use xlink:href="#f1_24" transform="matrix(10.4,0,0,10.4,142.5,667.5)" />
<use xlink:href="#f1_21" transform="matrix(10.4,0,0,10.4,151.5,667.5)" />
<use xlink:href="#f1_2a" transform="matrix(10.4,0,0,10.4,160.4,667.5)" />
<use xlink:href="#f1_2l" transform="matrix(10.4,0,0,10.4,169.4,667.5)" />
<use xlink:href="#f1_28" transform="matrix(10.4,0,0,10.4,177.1,667.5)" />
<use xlink:href="#f1_21" transform="matrix(10.4,0,0,10.4,180.8,667.5)" />
<use xlink:href="#f1_2g" transform="matrix(10.4,0,0,10.4,189.8,667.5)" />
<use xlink:href="#f1_24" transform="matrix(10.4,0,0,10.4,194.3,667.5)" />
<use xlink:href="#f1_21" transform="matrix(10.4,0,0,10.4,203.3,667.5)" />
<use xlink:href="#f1_2a" transform="matrix(10.4,0,0,10.4,212.3,667.5)" />
<use xlink:href="#f1_21" transform="matrix(10.4,0,0,10.4,221.3,667.5)" />
<use xlink:href="#f1_2g" transform="matrix(10.4,0,0,10.4,239.3,667.5)" />
<use xlink:href="#f1_2b" transform="matrix(10.4,0,0,10.4,243.8,667.5)" />
<use xlink:href="#f1_l" transform="matrix(10.4,0,0,10.4,262,667.5)" />
<use xlink:href="#f1_h" transform="matrix(10.4,0,0,10.4,271,667.5)" />
<use xlink:href="#f1_2c" transform="matrix(10.4,0,0,10.4,276.5,667.5)" />
<use xlink:href="#f1_24" transform="matrix(10.4,0,0,10.4,285.4,667.5)" />
<use xlink:href="#f1_21" transform="matrix(10.4,0,0,10.4,294.4,667.5)" />
<use xlink:href="#f1_2a" transform="matrix(10.4,0,0,10.4,303.4,667.5)" />
<use xlink:href="#f1_2l" transform="matrix(10.4,0,0,10.4,312.4,667.5)" />
<use xlink:href="#f1_28" transform="matrix(10.4,0,0,10.4,320.1,667.5)" />
<use xlink:href="#f1_21" transform="matrix(10.4,0,0,10.4,323.8,667.5)" />
<use xlink:href="#f1_2g" transform="matrix(10.4,0,0,10.4,332.7,667.5)" />
<use xlink:href="#f1_24" transform="matrix(10.4,0,0,10.4,337.3,667.5)" />
<use xlink:href="#f1_1x" transform="matrix(10.4,0,0,10.4,346.3,667.5)" />
<use xlink:href="#f1_2a" transform="matrix(10.4,0,0,10.4,355.3,667.5)" />
<use xlink:href="#f1_2b" transform="matrix(10.4,0,0,10.4,364.3,667.5)" />
<use xlink:href="#f1_28" transform="matrix(10.4,0,0,10.4,373.2,667.5)" />
<use xlink:href="#f1_c" transform="matrix(10.4,0,0,10.4,75.7,697.6)" />
<use xlink:href="#f1_2i" transform="matrix(10.4,0,0,10.4,81.2,697.6)" />
<use xlink:href="#f1_25" transform="matrix(10.4,0,0,10.4,89.3,697.6)" />
<use xlink:href="#f1_25" transform="matrix(10.4,0,0,10.4,93.2,697.6)" />
<use xlink:href="#f1_d" transform="matrix(10.4,0,0,10.4,96.8,697.6)" />
<use xlink:href="#f1_22" transform="matrix(10.4,0,0,10.4,119,697.6)" />
<use xlink:href="#f1_2b" transform="matrix(10.4,0,0,10.4,123.6,697.6)" />
<use xlink:href="#f1_2e" transform="matrix(10.4,0,0,10.4,132.4,697.6)" />
<use xlink:href="#f1_29" transform="matrix(10.4,0,0,10.4,137.9,697.6)" />
<use xlink:href="#f1_1x" transform="matrix(10.4,0,0,10.4,151.5,697.6)" />
<use xlink:href="#f1_28" transform="matrix(10.4,0,0,10.4,160.3,697.6)" />
<use xlink:href="#f1_20" transform="matrix(10.4,0,0,10.4,163.7,697.6)" />
<use xlink:href="#f1_21" transform="matrix(10.4,0,0,10.4,172.5,697.6)" />
<use xlink:href="#f1_24" transform="matrix(10.4,0,0,10.4,181.3,697.6)" />
<use xlink:href="#f1_2l" transform="matrix(10.4,0,0,10.4,190.3,697.6)" />
<use xlink:href="#f1_20" transform="matrix(10.4,0,0,10.4,197.8,697.6)" />
<use xlink:href="#f1_21" transform="matrix(10.4,0,0,10.4,206.6,697.6)" />
<use xlink:href="#f1_2g" transform="matrix(10.4,0,0,10.4,224.2,697.6)" />
<use xlink:href="#f1_2b" transform="matrix(10.4,0,0,10.4,228.8,697.6)" />
<use xlink:href="#f1_1z" transform="matrix(10.4,0,0,10.4,246.4,697.6)" />
<use xlink:href="#f1_2l" transform="matrix(10.4,0,0,10.4,254.5,697.6)" />
<use xlink:href="#f1_1z" transform="matrix(10.4,0,0,10.4,262,697.6)" />
<use xlink:href="#f1_28" transform="matrix(10.4,0,0,10.4,270.1,697.6)" />
<use xlink:href="#f1_2b" transform="matrix(10.4,0,0,10.4,273.7,697.6)" />
<use xlink:href="#f1_24" transform="matrix(10.4,0,0,10.4,282.5,697.6)" />
<use xlink:href="#f1_21" transform="matrix(10.4,0,0,10.4,291.3,697.6)" />
<use xlink:href="#f1_2k" transform="matrix(10.4,0,0,10.4,300.1,697.6)" />
<use xlink:href="#f1_2l" transform="matrix(10.4,0,0,10.4,308,697.6)" />
<use xlink:href="#f1_28" transform="matrix(10.4,0,0,10.4,315.7,697.6)" />
<use xlink:href="#f1_29" transform="matrix(10.4,0,0,10.4,319.2,697.6)" />
<use xlink:href="#f1_21" transform="matrix(10.4,0,0,10.4,332.8,697.6)" />
<use xlink:href="#f1_2g" transform="matrix(10.4,0,0,10.4,341.6,697.6)" />
<use xlink:href="#f1_24" transform="matrix(10.4,0,0,10.4,346,697.6)" />
<use xlink:href="#f1_1x" transform="matrix(10.4,0,0,10.4,354.8,697.6)" />
<use xlink:href="#f1_2a" transform="matrix(10.4,0,0,10.4,363.7,697.6)" />
<use xlink:href="#f1_2b" transform="matrix(10.4,0,0,10.4,372.5,697.6)" />
<use xlink:href="#f1_28" transform="matrix(10.4,0,0,10.4,381.3,697.6)" />
<use xlink:href="#f1_c" transform="matrix(10.4,0,0,10.4,75.7,727.7)" />
<use xlink:href="#f1_2i" transform="matrix(10.4,0,0,10.4,81.2,727.7)" />
<use xlink:href="#f1_25" transform="matrix(10.4,0,0,10.4,89.3,727.7)" />
<use xlink:href="#f1_25" transform="matrix(10.4,0,0,10.4,93,727.7)" />
<use xlink:href="#f1_25" transform="matrix(10.4,0,0,10.4,96.6,727.7)" />
<use xlink:href="#f1_d" transform="matrix(10.4,0,0,10.4,100.3,727.7)" />
<use xlink:href="#f1_1y" transform="matrix(10.4,0,0,10.4,119,727.7)" />
<use xlink:href="#f1_2h" transform="matrix(10.4,0,0,10.4,127.8,727.7)" />
<use xlink:href="#f1_2g" transform="matrix(10.4,0,0,10.4,136.6,727.7)" />
<use xlink:href="#f1_2l" transform="matrix(10.4,0,0,10.4,141,727.7)" />
<use xlink:href="#f1_28" transform="matrix(10.4,0,0,10.4,148.7,727.7)" />
<use xlink:href="#f1_1y" transform="matrix(10.4,0,0,10.4,161,727.7)" />
<use xlink:href="#f1_2e" transform="matrix(10.4,0,0,10.4,169.8,727.7)" />
<use xlink:href="#f1_2b" transform="matrix(10.4,0,0,10.4,175.1,727.7)" />
<use xlink:href="#f1_29" transform="matrix(10.4,0,0,10.4,183.9,727.7)" />
<use xlink:href="#f1_25" transform="matrix(10.4,0,0,10.4,197.5,727.7)" />
<use xlink:href="#f1_20" transform="matrix(10.4,0,0,10.4,201.1,727.7)" />
<use xlink:href="#f1_21" transform="matrix(10.4,0,0,10.4,209.9,727.7)" />
<use xlink:href="#f1_2g" transform="matrix(10.4,0,0,10.4,227.5,727.7)" />
<use xlink:href="#f1_2b" transform="matrix(10.4,0,0,10.4,231.9,727.7)" />
<use xlink:href="#f1_2c" transform="matrix(10.4,0,0,10.4,249.5,727.7)" />
<use xlink:href="#f1_21" transform="matrix(10.4,0,0,10.4,258.5,727.7)" />
<use xlink:href="#f1_2a" transform="matrix(10.4,0,0,10.4,267.3,727.7)" />
<use xlink:href="#f1_2g" transform="matrix(10.4,0,0,10.4,276.1,727.7)" />
<use xlink:href="#f1_1x" transform="matrix(10.4,0,0,10.4,280.5,727.7)" />
<use xlink:href="#f1_2a" transform="matrix(10.4,0,0,10.4,289.3,727.7)" />
<use xlink:href="#f1_h" transform="matrix(10.4,0,0,10.4,298.1,727.7)" />
<use xlink:href="#f1_l" transform="matrix(10.4,0,0,10.4,303.4,727.7)" />
<use xlink:href="#f1_h" transform="matrix(10.4,0,0,10.4,312.4,727.7)" />
<use xlink:href="#f1_2b" transform="matrix(10.4,0,0,10.4,317.7,727.7)" />
<use xlink:href="#f1_28" transform="matrix(10.4,0,0,10.4,326.5,727.7)" />
<use xlink:href="#f1_i" transform="matrix(10.4,0,0,10.4,330,727.7)" />
<use xlink:href="#f1_c" transform="matrix(10.4,0,0,10.4,75.7,757.5)" />
<use xlink:href="#f1_25" transform="matrix(10.4,0,0,10.4,81.1,757.5)" />
<use xlink:href="#f1_2k" transform="matrix(10.4,0,0,10.4,84.4,757.5)" />
<use xlink:href="#f1_d" transform="matrix(10.4,0,0,10.4,92.2,757.5)" />
<use xlink:href="#f1_2g" transform="matrix(10.4,0,0,10.4,119,757.5)" />
<use xlink:href="#f1_2b" transform="matrix(10.4,0,0,10.4,123.4,757.5)" />
<use xlink:href="#f1_28" transform="matrix(10.4,0,0,10.4,132.2,757.5)" />
<use xlink:href="#f1_2h" transform="matrix(10.4,0,0,10.4,135.7,757.5)" />
<use xlink:href="#f1_21" transform="matrix(10.4,0,0,10.4,144.5,757.5)" />
<use xlink:href="#f1_2a" transform="matrix(10.4,0,0,10.4,153.3,757.5)" />
<use xlink:href="#f1_21" transform="matrix(10.4,0,0,10.4,162.1,757.5)" />
<use xlink:href="#f1_2g" transform="matrix(10.4,0,0,10.4,179.3,757.5)" />
<use xlink:href="#f1_2b" transform="matrix(10.4,0,0,10.4,183.7,757.5)" />
<use xlink:href="#f1_1y" transform="matrix(10.4,0,0,10.4,201,757.5)" />
<use xlink:href="#f1_21" transform="matrix(10.4,0,0,10.4,209.8,757.5)" />
<use xlink:href="#f1_2a" transform="matrix(10.4,0,0,10.4,218.6,757.5)" />
<use xlink:href="#f1_2m" transform="matrix(10.4,0,0,10.4,227.4,757.5)" />
<use xlink:href="#f1_2l" transform="matrix(10.4,0,0,10.4,235.1,757.5)" />
<use xlink:href="#f1_28" transform="matrix(10.4,0,0,10.4,242.6,757.5)" />
<use xlink:href="#f1_1x" transform="matrix(10.4,0,0,10.4,254.5,757.5)" />
<use xlink:href="#f1_28" transform="matrix(10.4,0,0,10.4,263.3,757.5)" />
<use xlink:href="#f1_1z" transform="matrix(10.4,0,0,10.4,266.8,757.5)" />
<use xlink:href="#f1_2b" transform="matrix(10.4,0,0,10.4,274.8,757.5)" />
<use xlink:href="#f1_24" transform="matrix(10.4,0,0,10.4,283.6,757.5)" />
<use xlink:href="#f1_2b" transform="matrix(10.4,0,0,10.4,292.4,757.5)" />
<use xlink:href="#f1_28" transform="matrix(10.4,0,0,10.4,301.2,757.5)" />
<use xlink:href="#f1_c" transform="matrix(10.4,0,0,10.4,75.7,787.6)" />
<use xlink:href="#f1_2k" transform="matrix(10.4,0,0,10.4,80.9,787.6)" />
<use xlink:href="#f1_d" transform="matrix(10.4,0,0,10.4,88.8,787.6)" />
<use xlink:href="#f1_l" transform="matrix(10.4,0,0,10.4,119,787.6)" />
<use xlink:href="#f1_h" transform="matrix(10.4,0,0,10.4,127.8,787.6)" />
<use xlink:href="#f1_2c" transform="matrix(10.4,0,0,10.4,133.3,787.6)" />
<use xlink:href="#f1_2e" transform="matrix(10.4,0,0,10.4,142.1,787.6)" />
<use xlink:href="#f1_2b" transform="matrix(10.4,0,0,10.4,147.6,787.6)" />
<use xlink:href="#f1_2c" transform="matrix(10.4,0,0,10.4,156.4,787.6)" />
<use xlink:href="#f1_2b" transform="matrix(10.4,0,0,10.4,165.4,787.6)" />
<use xlink:href="#f1_2k" transform="matrix(10.4,0,0,10.4,174.2,787.6)" />
<use xlink:href="#f1_2l" transform="matrix(10.4,0,0,10.4,182.3,787.6)" />
<use xlink:href="#f1_2c" transform="matrix(10.4,0,0,10.4,189.8,787.6)" />
<use xlink:href="#f1_2e" transform="matrix(10.4,0,0,10.4,198.8,787.6)" />
<use xlink:href="#f1_2b" transform="matrix(10.4,0,0,10.4,204.1,787.6)" />
<use xlink:href="#f1_2c" transform="matrix(10.4,0,0,10.4,213.1,787.6)" />
<use xlink:href="#f1_1x" transform="matrix(10.4,0,0,10.4,221.9,787.6)" />
<use xlink:href="#f1_2a" transform="matrix(10.4,0,0,10.4,230.8,787.6)" />
<use xlink:href="#f1_21" transform="matrix(10.4,0,0,10.4,239.6,787.6)" />
<use xlink:href="#f1_2g" transform="matrix(10.4,0,0,10.4,257.4,787.6)" />
<use xlink:href="#f1_2b" transform="matrix(10.4,0,0,10.4,262,787.6)" />
<use xlink:href="#f1_2c" transform="matrix(10.4,0,0,10.4,279.8,787.6)" />
<use xlink:href="#f1_2e" transform="matrix(10.4,0,0,10.4,288.6,787.6)" />
<use xlink:href="#f1_2b" transform="matrix(10.4,0,0,10.4,294.1,787.6)" />
<use xlink:href="#f1_2c" transform="matrix(10.4,0,0,10.4,302.9,787.6)" />
<use xlink:href="#f1_2l" transform="matrix(10.4,0,0,10.4,311.9,787.6)" />
<use xlink:href="#f1_28" transform="matrix(10.4,0,0,10.4,319.4,787.6)" />
<use xlink:href="#f1_25" transform="matrix(10.4,0,0,10.4,331.8,787.6)" />
<use xlink:href="#f1_2b" transform="matrix(10.4,0,0,10.4,335.5,787.6)" />
<use xlink:href="#f1_20" transform="matrix(10.4,0,0,10.4,344.3,787.6)" />
<use xlink:href="#f1_25" transform="matrix(10.4,0,0,10.4,353.3,787.6)" />
<use xlink:href="#f1_20" transform="matrix(10.4,0,0,10.4,356.8,787.6)" />
<use xlink:href="#f1_21" transform="matrix(10.4,0,0,10.4,365.7,787.6)" />
<use xlink:href="#f1_c" transform="matrix(10.4,0,0,10.4,75.7,817.7)" />
<use xlink:href="#f1_2k" transform="matrix(10.4,0,0,10.4,81.1,817.7)" />
<use xlink:href="#f1_25" transform="matrix(10.4,0,0,10.4,88.8,817.7)" />
<use xlink:href="#f1_d" transform="matrix(10.4,0,0,10.4,92.2,817.7)" />
<use xlink:href="#f1_21" transform="matrix(10.4,0,0,10.4,119,817.7)" />
<use xlink:href="#f1_2g" transform="matrix(10.4,0,0,10.4,127.8,817.7)" />
<use xlink:href="#f1_24" transform="matrix(10.4,0,0,10.4,132.2,817.7)" />
<use xlink:href="#f1_2l" transform="matrix(10.4,0,0,10.4,141,817.7)" />
<use xlink:href="#f1_28" transform="matrix(10.4,0,0,10.4,148.5,817.7)" />
<use xlink:href="#f1_1y" transform="matrix(10.4,0,0,10.4,161,817.7)" />
<use xlink:href="#f1_2e" transform="matrix(10.4,0,0,10.4,169.8,817.7)" />
<use xlink:href="#f1_2b" transform="matrix(10.4,0,0,10.4,175.1,817.7)" />
<use xlink:href="#f1_29" transform="matrix(10.4,0,0,10.4,183.9,817.7)" />
<use xlink:href="#f1_25" transform="matrix(10.4,0,0,10.4,197.5,817.7)" />
<use xlink:href="#f1_20" transform="matrix(10.4,0,0,10.4,201,817.7)" />
<use xlink:href="#f1_21" transform="matrix(10.4,0,0,10.4,209.8,817.7)" />
<use xlink:href="#f1_2g" transform="matrix(10.4,0,0,10.4,227.4,817.7)" />
<use xlink:href="#f1_2b" transform="matrix(10.4,0,0,10.4,231.8,817.7)" />
<use xlink:href="#f1_l" transform="matrix(10.4,0,0,10.4,249.5,817.7)" />
<use xlink:href="#f1_h" transform="matrix(10.4,0,0,10.4,258.3,817.7)" />
<use xlink:href="#f1_21" transform="matrix(10.4,0,0,10.4,263.6,817.7)" />
<use xlink:href="#f1_2g" transform="matrix(10.4,0,0,10.4,272.5,817.7)" />
<use xlink:href="#f1_24" transform="matrix(10.4,0,0,10.4,276.9,817.7)" />
<use xlink:href="#f1_2b" transform="matrix(10.4,0,0,10.4,285.7,817.7)" />
<use xlink:href="#f1_2k" transform="matrix(10.4,0,0,10.4,294.5,817.7)" />
<use xlink:href="#f1_2l" transform="matrix(10.4,0,0,10.4,302.3,817.7)" />
<use xlink:href="#f1_21" transform="matrix(10.4,0,0,10.4,309.9,817.7)" />
<use xlink:href="#f1_2g" transform="matrix(10.4,0,0,10.4,318.8,817.7)" />
<use xlink:href="#f1_24" transform="matrix(10.4,0,0,10.4,323.2,817.7)" />
<use xlink:href="#f1_1x" transform="matrix(10.4,0,0,10.4,332,817.7)" />
<use xlink:href="#f1_2a" transform="matrix(10.4,0,0,10.4,340.8,817.7)" />
<use xlink:href="#f1_21" transform="matrix(10.4,0,0,10.4,349.6,817.7)" />
<use xlink:href="#f1_c" transform="matrix(10.4,0,0,10.4,75.7,847.7)" />
<use xlink:href="#f1_2k" transform="matrix(10.4,0,0,10.4,81.1,847.7)" />
<use xlink:href="#f1_25" transform="matrix(10.4,0,0,10.4,88.8,847.7)" />
<use xlink:href="#f1_25" transform="matrix(10.4,0,0,10.4,92.2,847.7)" />
<use xlink:href="#f1_d" transform="matrix(10.4,0,0,10.4,95.7,847.7)" />
<use xlink:href="#f1_29" transform="matrix(10.4,0,0,10.4,119,847.7)" />
<use xlink:href="#f1_21" transform="matrix(10.4,0,0,10.4,132.6,847.7)" />
<use xlink:href="#f1_2g" transform="matrix(10.4,0,0,10.4,141.4,847.7)" />
<use xlink:href="#f1_24" transform="matrix(10.4,0,0,10.4,145.8,847.7)" />
<use xlink:href="#f1_2l" transform="matrix(10.4,0,0,10.4,154.6,847.7)" />
<use xlink:href="#f1_28" transform="matrix(10.4,0,0,10.4,162.3,847.7)" />
<use xlink:href="#f1_1y" transform="matrix(10.4,0,0,10.4,174.6,847.7)" />
<use xlink:href="#f1_2e" transform="matrix(10.4,0,0,10.4,183.4,847.7)" />
<use xlink:href="#f1_2b" transform="matrix(10.4,0,0,10.4,188.7,847.7)" />
<use xlink:href="#f1_29" transform="matrix(10.4,0,0,10.4,197.5,847.7)" />
<use xlink:href="#f1_25" transform="matrix(10.4,0,0,10.4,211,847.7)" />
<use xlink:href="#f1_20" transform="matrix(10.4,0,0,10.4,214.5,847.7)" />
<use xlink:href="#f1_21" transform="matrix(10.4,0,0,10.4,223.5,847.7)" />
<use xlink:href="#f1_2g" transform="matrix(10.4,0,0,10.4,241.1,847.7)" />
<use xlink:href="#f1_2b" transform="matrix(10.4,0,0,10.4,245.5,847.7)" />
<use xlink:href="#f1_m" transform="matrix(10.4,0,0,10.4,263.1,847.7)" />
<use xlink:href="#f1_h" transform="matrix(10.4,0,0,10.4,271.9,847.7)" />
<use xlink:href="#f1_29" transform="matrix(10.4,0,0,10.4,277.2,847.7)" />
<use xlink:href="#f1_21" transform="matrix(10.4,0,0,10.4,290.8,847.7)" />
<use xlink:href="#f1_2g" transform="matrix(10.4,0,0,10.4,299.8,847.7)" />
<use xlink:href="#f1_24" transform="matrix(10.4,0,0,10.4,304.2,847.7)" />
<use xlink:href="#f1_2b" transform="matrix(10.4,0,0,10.4,313,847.7)" />
<use xlink:href="#f1_2k" transform="matrix(10.4,0,0,10.4,321.8,847.7)" />
<use xlink:href="#f1_2l" transform="matrix(10.4,0,0,10.4,329.6,847.7)" />
<use xlink:href="#f1_h" transform="matrix(10.4,0,0,10.4,337.2,847.7)" />
<use xlink:href="#f1_m" transform="matrix(10.4,0,0,10.4,342.5,847.7)" />
<use xlink:href="#f1_h" transform="matrix(10.4,0,0,10.4,351.3,847.7)" />
<use xlink:href="#f1_29" transform="matrix(10.4,0,0,10.4,356.8,847.7)" />
<use xlink:href="#f1_21" transform="matrix(10.4,0,0,10.4,370.3,847.7)" />
<use xlink:href="#f1_2g" transform="matrix(10.4,0,0,10.4,379.1,847.7)" />
<use xlink:href="#f1_24" transform="matrix(10.4,0,0,10.4,383.5,847.7)" />
<use xlink:href="#f1_2l" transform="matrix(10.4,0,0,10.4,392.3,847.7)" />
<use xlink:href="#f1_28" transform="matrix(10.4,0,0,10.4,399.9,847.7)" />
<use xlink:href="#f1_2c" transform="matrix(10.4,0,0,10.4,403.3,847.7)" />
<use xlink:href="#f1_2e" transform="matrix(10.4,0,0,10.4,412.1,847.7)" />
<use xlink:href="#f1_2b" transform="matrix(10.4,0,0,10.4,417.6,847.7)" />
<use xlink:href="#f1_2c" transform="matrix(10.4,0,0,10.4,426.4,847.7)" />
<use xlink:href="#f1_1x" transform="matrix(10.4,0,0,10.4,435.2,847.7)" />
<use xlink:href="#f1_2a" transform="matrix(10.4,0,0,10.4,444,847.7)" />
<use xlink:href="#f1_21" transform="matrix(10.4,0,0,10.4,452.8,847.7)" />
<use xlink:href="#f1_c" transform="matrix(10.4,0,0,10.4,75.7,877.6)" />
<use xlink:href="#f1_2k" transform="matrix(10.4,0,0,10.4,81.1,877.6)" />
<use xlink:href="#f1_25" transform="matrix(10.4,0,0,10.4,88.8,877.6)" />
<use xlink:href="#f1_25" transform="matrix(10.4,0,0,10.4,92.2,877.6)" />
<use xlink:href="#f1_25" transform="matrix(10.4,0,0,10.4,95.5,877.6)" />
<use xlink:href="#f1_d" transform="matrix(10.4,0,0,10.4,99,877.6)" />
<use xlink:href="#f1_21" transform="matrix(10.4,0,0,10.4,119,877.6)" />
<use xlink:href="#f1_2g" transform="matrix(10.4,0,0,10.4,127.8,877.6)" />
<use xlink:href="#f1_24" transform="matrix(10.4,0,0,10.4,132.2,877.6)" />
<use xlink:href="#f1_2l" transform="matrix(10.4,0,0,10.4,141,877.6)" />
<use xlink:href="#f1_28" transform="matrix(10.4,0,0,10.4,148.5,877.6)" />
<use xlink:href="#f1_1y" transform="matrix(10.4,0,0,10.4,160.6,877.6)" />
<use xlink:href="#f1_2e" transform="matrix(10.4,0,0,10.4,169.4,877.6)" />
<use xlink:href="#f1_2b" transform="matrix(10.4,0,0,10.4,174.7,877.6)" />
<use xlink:href="#f1_29" transform="matrix(10.4,0,0,10.4,183.5,877.6)" />
<use xlink:href="#f1_25" transform="matrix(10.4,0,0,10.4,197.1,877.6)" />
<use xlink:href="#f1_20" transform="matrix(10.4,0,0,10.4,200.6,877.6)" />
<use xlink:href="#f1_21" transform="matrix(10.4,0,0,10.4,209.4,877.6)" />
<use xlink:href="#f1_2g" transform="matrix(10.4,0,0,10.4,226.6,877.6)" />
<use xlink:href="#f1_2b" transform="matrix(10.4,0,0,10.4,231,877.6)" />
<use xlink:href="#f1_21" transform="matrix(10.4,0,0,10.4,248.4,877.6)" />
<use xlink:href="#f1_2g" transform="matrix(10.4,0,0,10.4,257.2,877.6)" />
<use xlink:href="#f1_24" transform="matrix(10.4,0,0,10.4,261.6,877.6)" />
<use xlink:href="#f1_2b" transform="matrix(10.4,0,0,10.4,270.4,877.6)" />
<use xlink:href="#f1_2k" transform="matrix(10.4,0,0,10.4,279.2,877.6)" />
<use xlink:href="#f1_2l" transform="matrix(10.4,0,0,10.4,287.1,877.6)" />
<use xlink:href="#f1_1y" transform="matrix(10.4,0,0,10.4,294.6,877.6)" />
<use xlink:href="#f1_21" transform="matrix(10.4,0,0,10.4,303.4,877.6)" />
<use xlink:href="#f1_2a" transform="matrix(10.4,0,0,10.4,312.2,877.6)" />
<use xlink:href="#f1_2m" transform="matrix(10.4,0,0,10.4,321,877.6)" />
<use xlink:href="#f1_21" transform="matrix(10.4,0,0,10.4,328.7,877.6)" />
<use xlink:href="#f1_2a" transform="matrix(10.4,0,0,10.4,337.5,877.6)" />
<use xlink:href="#f1_21" transform="matrix(10.4,0,0,10.4,346.3,877.6)" />
<use xlink:href="#f1_c" transform="matrix(10.4,0,0,10.4,75.7,907.7)" />
<use xlink:href="#f1_2k" transform="matrix(10.4,0,0,10.4,81.1,907.7)" />
<use xlink:href="#f1_25" transform="matrix(10.4,0,0,10.4,88.9,907.7)" />
<use xlink:href="#f1_2i" transform="matrix(10.4,0,0,10.4,92.4,907.7)" />
<use xlink:href="#f1_d" transform="matrix(10.4,0,0,10.4,100.3,907.7)" />
<use xlink:href="#f1_21" transform="matrix(10.4,0,0,10.4,119,907.7)" />
<use xlink:href="#f1_2g" transform="matrix(10.4,0,0,10.4,127.8,907.7)" />
<use xlink:href="#f1_24" transform="matrix(10.4,0,0,10.4,132.2,907.7)" />
<use xlink:href="#f1_1x" transform="matrix(10.4,0,0,10.4,141,907.7)" />
<use xlink:href="#f1_2a" transform="matrix(10.4,0,0,10.4,149.8,907.7)" />
<use xlink:href="#f1_2b" transform="matrix(10.4,0,0,10.4,158.6,907.7)" />
<use xlink:href="#f1_28" transform="matrix(10.4,0,0,10.4,167.4,907.7)" />
<use xlink:href="#f1_2g" transform="matrix(10.4,0,0,10.4,179.3,907.7)" />
<use xlink:href="#f1_2b" transform="matrix(10.4,0,0,10.4,183.7,907.7)" />
<use xlink:href="#f1_1y" transform="matrix(10.4,0,0,10.4,201,907.7)" />
<use xlink:href="#f1_21" transform="matrix(10.4,0,0,10.4,209.8,907.7)" />
<use xlink:href="#f1_2a" transform="matrix(10.4,0,0,10.4,218.6,907.7)" />
<use xlink:href="#f1_2m" transform="matrix(10.4,0,0,10.4,227.4,907.7)" />
<use xlink:href="#f1_2l" transform="matrix(10.4,0,0,10.4,235.1,907.7)" />
<use xlink:href="#f1_28" transform="matrix(10.4,0,0,10.4,242.6,907.7)" />
<use xlink:href="#f1_21" transform="matrix(10.4,0,0,10.4,254.5,907.7)" />
<use xlink:href="#f1_2g" transform="matrix(10.4,0,0,10.4,263.3,907.7)" />
<use xlink:href="#f1_24" transform="matrix(10.4,0,0,10.4,267.7,907.7)" />
<use xlink:href="#f1_2l" transform="matrix(10.4,0,0,10.4,276.5,907.7)" />
<use xlink:href="#f1_28" transform="matrix(10.4,0,0,10.4,284,907.7)" />
<use xlink:href="#f1_21" transform="matrix(10.4,0,0,10.4,295.9,907.7)" />
<use xlink:href="#f1_2g" transform="matrix(10.4,0,0,10.4,304.7,907.7)" />
<use xlink:href="#f1_24" transform="matrix(10.4,0,0,10.4,309.1,907.7)" />
<use xlink:href="#f1_21" transform="matrix(10.4,0,0,10.4,317.9,907.7)" />
<use xlink:href="#f1_2e" transform="matrix(10.4,0,0,10.4,326.7,907.7)" />
<use xlink:href="#f1_i" transform="matrix(10.4,0,0,10.4,331.1,907.7)" />
</g>
<image preserveAspectRatio="none" x="76" y="87" width="237" height="30" xlink:href="img/1.png" />
<image preserveAspectRatio="none" x="76" y="116" width="237" height="30" xlink:href="img/2.png" />
<image preserveAspectRatio="none" x="76" y="145" width="237" height="30" xlink:href="img/3.png" />
<image preserveAspectRatio="none" x="76" y="174" width="237" height="30" xlink:href="img/4.png" />
<image preserveAspectRatio="none" x="76" y="203" width="237" height="30" xlink:href="img/5.png" />
<image preserveAspectRatio="none" x="76" y="232" width="237" height="28" xlink:href="img/6.png" />
<g fill="#000000" >
<use xlink:href="#f2_o" transform="matrix(12,0,0,12,656.3,1049.3)" />
</g>
<g fill="#0080FF" fill-opacity="0.5" >
<use xlink:href="#f0_1c" transform="matrix(38.3,0,0,38.3,183.7,1050)" />
<use xlink:href="#f0_21" transform="matrix(38.3,0,0,38.3,216.2,1050)" />
<use xlink:href="#f0_1x" transform="matrix(38.3,0,0,38.3,248.7,1050)" />
<use xlink:href="#f0_2e" transform="matrix(38.3,0,0,38.3,281.2,1050)" />
<use xlink:href="#f0_2a" transform="matrix(38.3,0,0,38.3,300.7,1050)" />
<use xlink:href="#f0_17" transform="matrix(38.3,0,0,38.3,333.3,1050)" />
<use xlink:href="#f0_2h" transform="matrix(38.3,0,0,38.3,378.8,1050)" />
<use xlink:href="#f0_25" transform="matrix(38.3,0,0,38.3,411.3,1050)" />
<use xlink:href="#f0_20" transform="matrix(38.3,0,0,38.3,424.3,1050)" />
<use xlink:href="#f0_21" transform="matrix(38.3,0,0,38.3,456.8,1050)" />
<use xlink:href="#f0_i" transform="matrix(38.3,0,0,38.3,489.3,1050)" />
<use xlink:href="#f0_25" transform="matrix(38.3,0,0,38.3,505.6,1050)" />
<use xlink:href="#f0_2a" transform="matrix(38.3,0,0,38.3,518.6,1050)" />
</g>
<defs>
<path d="M593,101c0,0,182,0,279,112c0,0,98,113,98,318c0,0,0,196,-98,308c0,0,-98,112,-277,112c0,0,-181,0,-279,-110c0,0,-99,-111,-99,-310c0,0,0,-198,100,-314c0,0,99,-116,276,-116Zm0,-115c0,0,-162,0,-279,65c0,0,-118,66,-180,190c0,0,-62,124,-62,290c0,0,0,252,138,394c0,0,138,142,385,142c0,0,160,0,278,-64c0,0,118,-64,180,-185c0,0,62,-122,62,-287c0,0,0,-165,-63,-289c0,0,-63,-124,-181,-190c0,0,-118,-66,-278,-66Z" 
id="f0_1f"
transform="scale(0.001,-0.001)" />

<path d="M106,0V635c0,0,0,141,-5,173H228c0,0,1,-4,2,-21c0,0,1,-16,2,-37c0,0,1,-22,2,-81h2c0,0,47,84,108,119c0,0,60,34,151,34c0,0,132,0,194,-66c0,0,61,-66,61,-218V0H615V512c0,0,0,80,-15,124c0,0,-16,44,-50,63c0,0,-35,20,-101,20c0,0,-97,0,-153,-67c0,0,-56,-66,-56,-184V0Z" 
id="f0_2a"
transform="scale(0.001,-0.001)" />

<path d="M103,0V1107H237V0Z" 
id="f0_28"
transform="scale(0.001,-0.001)" />

<path d="M102,0V808H236V0Zm0,979v128H236V979Z" 
id="f0_25"
transform="scale(0.001,-0.001)" />

<path d="M643,478c0,0,-11,128,-65,187c0,0,-54,59,-154,59c0,0,-98,0,-155,-66c0,0,-57,-65,-62,-180ZM431,-14c0,0,-179,0,-272,106c0,0,-94,107,-94,317c0,0,0,200,94,307c0,0,93,106,267,106c0,0,356,0,356,-429V375H206c0,0,0,-138,57,-213c0,0,58,-75,168,-75c0,0,87,0,140,35c0,0,53,35,71,88L760,177c0,0,-72,-191,-329,-191Z" 
id="f0_21"
transform="scale(0.001,-0.001)" />

<path d="M17,0L304,415L31,808H179L380,493L580,808H730L457,417L747,0H598L380,331L162,0Z" 
id="f0_2k"
transform="scale(0.001,-0.001)" />

<path d="M339,87c0,0,74,0,132,34c0,0,57,33,90,91c0,0,34,59,34,121v66L448,396c0,0,-95,-2,-144,-19c0,0,-49,-18,-75,-55c0,0,-26,-38,-26,-98c0,0,0,-65,35,-101c0,0,36,-36,101,-36ZM309,-14c0,0,-122,0,-183,64c0,0,-61,64,-61,176c0,0,0,125,82,192c0,0,83,67,266,72l182,3v44c0,0,0,98,-42,141c0,0,-42,43,-132,43c0,0,-90,0,-131,-31c0,0,-41,-31,-49,-98L101,604c0,0,34,218,323,218c0,0,153,0,229,-70c0,0,77,-69,77,-202V202c0,0,0,-59,16,-90c0,0,16,-30,60,-30c0,0,19,0,44,5V4C850,4,799,-7,746,-7c0,0,-75,0,-109,38c0,0,-33,40,-38,124h-4C595,155,543,62,475,24c0,0,-68,-38,-166,-38Z" 
id="f0_1x"
transform="scale(0.001,-0.001)" />

<path d="M106,0V635c0,0,0,141,-5,173H228c0,0,1,-4,2,-21c0,0,1,-16,2,-37c0,0,1,-22,2,-81h2c0,0,44,86,100,120c0,0,56,33,136,33c0,0,92,0,145,-36c0,0,54,-37,75,-117h2c0,0,42,82,101,117c0,0,59,36,143,36c0,0,123,0,178,-66c0,0,56,-67,56,-218V0H1039V512c0,0,0,117,-32,162c0,0,-32,45,-116,45c0,0,-88,0,-136,-66c0,0,-49,-65,-49,-185V0H573V512c0,0,0,117,-32,162c0,0,-32,45,-116,45c0,0,-86,0,-136,-66c0,0,-50,-66,-50,-185V0Z" 
id="f0_29"
transform="scale(0.001,-0.001)" />

<path d="M453,84c0,0,100,0,146,74c0,0,46,73,46,247c0,0,0,169,-46,241c0,0,-45,73,-145,73c0,0,-80,0,-125,-34c0,0,-45,-34,-68,-105c0,0,-24,-71,-24,-186c0,0,0,-159,51,-234c0,0,51,-76,165,-76ZM103,-316V643c0,0,0,124,-5,165H228c0,0,1,-3,3,-22c0,0,1,-18,3,-56c0,0,2,-38,2,-52h3c0,0,36,75,94,110c0,0,59,34,156,34c0,0,149,0,223,-100c0,0,74,-100,74,-314c0,0,0,-422,-297,-422c0,0,-187,0,-251,140h-4c0,0,3,-6,3,-126V-316Z" 
id="f0_2c"
transform="scale(0.001,-0.001)" />

<path d="M420,84c0,0,121,0,173,78c0,0,52,77,52,243c0,0,0,167,-50,243c0,0,-50,76,-167,76c0,0,-118,0,-170,-78c0,0,-53,-77,-53,-241c0,0,0,-160,52,-241c0,0,52,-80,163,-80Zm1,-98c0,0,-176,0,-267,107c0,0,-90,108,-90,312c0,0,0,417,362,417c0,0,185,0,272,-102c0,0,88,-101,88,-315c0,0,0,-212,-94,-316C692,89,599,-14,421,-14Z" 
id="f0_2b"
transform="scale(0.001,-0.001)" />

<path d="M278,-11c0,0,-162,0,-162,182V710H23v98h99l39,181h90V808H400V710H251V200c0,0,0,-58,19,-82c0,0,19,-23,66,-23c0,0,27,0,77,10V6c0,0,-66,-17,-135,-17Z" 
id="f0_2g"
transform="scale(0.001,-0.001)" />

<path d="M413,-14c0,0,-147,0,-238,64c0,0,-90,64,-114,185l136,16c0,0,42,-155,219,-155c0,0,108,0,169,65c0,0,61,65,61,179c0,0,0,98,-62,159c0,0,-61,61,-165,61c0,0,-55,0,-102,-17c0,0,-47,-17,-94,-58H92l35,566H724V937H249L229,604c0,0,87,67,217,67c0,0,155,0,247,-91c0,0,93,-91,93,-237c0,0,0,-167,-99,-262c0,0,-99,-95,-274,-95Z" 
id="f1_p"
transform="scale(0.001,-0.001)" />

<path d="M140,0V163H285V0Z" 
id="f1_i"
transform="scale(0.001,-0.001)" />

<path d="M316,0L7,1051H155L344,383c0,0,33,-125,62,-258c0,0,18,82,41,179c0,0,24,97,207,747H791L974,397c0,0,41,-160,65,-272l7,26c0,0,20,86,33,140c0,0,12,54,209,760h149L1127,0H957L775,668c0,0,-18,62,-52,224c0,0,-20,-86,-33,-145C690,747,677,689,486,0Z" 
id="f1_1n"
transform="scale(0.001,-0.001)" />

<path d="M615,0V512c0,0,0,85,-15,126c0,0,-16,42,-52,61c0,0,-36,20,-99,20c0,0,-95,0,-152,-66c0,0,-57,-66,-57,-177V0H106V1107H240V819c0,0,0,-45,-2,-94c0,0,-3,-48,-4,-56h2c0,0,44,79,105,116c0,0,60,37,154,37c0,0,131,0,193,-65c0,0,62,-65,62,-219V0Z" 
id="f1_24"
transform="scale(0.001,-0.001)" />

<path d="M339,87c0,0,74,0,132,34c0,0,57,33,90,91c0,0,34,59,34,121v66L448,396c0,0,-95,-2,-144,-19c0,0,-49,-18,-75,-55c0,0,-26,-38,-26,-98c0,0,0,-65,35,-101c0,0,36,-36,101,-36ZM309,-14c0,0,-122,0,-183,64c0,0,-61,64,-61,176c0,0,0,125,82,192c0,0,83,67,266,72l182,3v44c0,0,0,98,-42,141c0,0,-42,43,-132,43c0,0,-90,0,-131,-31c0,0,-41,-31,-49,-98L101,604c0,0,34,218,323,218c0,0,153,0,229,-70c0,0,77,-69,77,-202V202c0,0,0,-59,16,-90c0,0,16,-30,60,-30c0,0,19,0,44,5V4C850,4,799,-7,746,-7c0,0,-75,0,-109,38c0,0,-33,40,-38,124h-4C595,155,543,62,475,24c0,0,-68,-38,-166,-38Z" 
id="f1_1x"
transform="scale(0.001,-0.001)" />

<path d="M278,-11c0,0,-162,0,-162,182V710H23v98h99l39,181h90V808H400V710H251V200c0,0,0,-58,19,-82c0,0,19,-23,66,-23c0,0,27,0,77,10V6c0,0,-66,-17,-135,-17Z" 
id="f1_2g"
transform="scale(0.001,-0.001)" />

<path d="M453,84c0,0,100,0,146,74c0,0,46,73,46,247c0,0,0,169,-46,241c0,0,-45,73,-145,73c0,0,-80,0,-125,-34c0,0,-45,-34,-68,-105c0,0,-24,-71,-24,-186c0,0,0,-159,51,-234c0,0,51,-76,165,-76ZM103,-316V643c0,0,0,124,-5,165H228c0,0,1,-3,3,-22c0,0,1,-18,3,-56c0,0,2,-38,2,-52h3c0,0,36,75,94,110c0,0,59,34,156,34c0,0,149,0,223,-100c0,0,74,-100,74,-314c0,0,0,-422,-297,-422c0,0,-187,0,-251,140h-4c0,0,3,-6,3,-126V-316Z" 
id="f1_2c"
transform="scale(0.001,-0.001)" />

<path d="M643,478c0,0,-11,128,-65,187c0,0,-54,59,-154,59c0,0,-98,0,-155,-66c0,0,-57,-65,-62,-180ZM431,-14c0,0,-179,0,-272,106c0,0,-94,107,-94,317c0,0,0,200,94,307c0,0,93,106,267,106c0,0,356,0,356,-429V375H206c0,0,0,-138,57,-213c0,0,58,-75,168,-75c0,0,87,0,140,35c0,0,53,35,71,88L760,177c0,0,-72,-191,-329,-191Z" 
id="f1_21"
transform="scale(0.001,-0.001)" />

<path d="M106,0V635c0,0,0,141,-5,173H228c0,0,1,-4,2,-21c0,0,1,-16,2,-37c0,0,1,-22,2,-81h2c0,0,47,84,108,119c0,0,60,34,151,34c0,0,132,0,194,-66c0,0,61,-66,61,-218V0H615V512c0,0,0,80,-15,124c0,0,-16,44,-50,63c0,0,-35,20,-101,20c0,0,-97,0,-153,-67c0,0,-56,-66,-56,-184V0Z" 
id="f1_2a"
transform="scale(0.001,-0.001)" />

<path d="M381,-14c0,0,-150,0,-232,49C149,35,67,85,43,190l118,23c0,0,17,-65,71,-96c0,0,54,-30,149,-30c0,0,102,0,150,31c0,0,47,32,47,95c0,0,0,47,-33,77c0,0,-33,30,-106,49l-96,26c0,0,-115,30,-164,58c0,0,-49,29,-77,70c0,0,-27,41,-27,101c0,0,0,110,78,168c0,0,79,57,230,57c0,0,133,0,212,-47c0,0,79,-47,100,-150L574,607c0,0,-12,53,-60,82c0,0,-49,29,-131,29c0,0,-91,0,-135,-28c0,0,-43,-27,-43,-83c0,0,0,-34,18,-57c0,0,18,-22,53,-38c0,0,35,-15,148,-43c0,0,106,-27,153,-50c0,0,47,-22,75,-50c0,0,27,-27,42,-64c0,0,15,-36,15,-82c0,0,0,-114,-86,-176c0,0,-87,-61,-242,-61Z" 
id="f1_2f"
transform="scale(0.001,-0.001)" />

<path d="M224,0L-1,808H131L267,259c0,0,5,-18,32,-147l13,55L480,808H624L765,253L800,112l23,103L976,808h131L876,0H720L579,571L552,697c0,0,-7,-33,-21,-96C531,601,517,537,379,0Z" 
id="f1_2j"
transform="scale(0.001,-0.001)" />

<path d="M140,0V154H285V0Zm0,653V808H285V653Z" 
id="f1_u"
transform="scale(0.001,-0.001)" />

<path d="M370,-316c0,0,-141,152,-208,323C162,7,95,179,95,394v3c0,0,0,215,67,387c0,0,68,171,208,323H500c0,0,-140,-155,-205,-330c0,0,-65,-175,-65,-382c0,0,0,-207,64,-381c0,0,65,-172,206,-330Z" 
id="f1_c"
transform="scale(0.001,-0.001)" />

<path d="M102,0V808H236V0Zm0,979v128H236V979Z" 
id="f1_25"
transform="scale(0.001,-0.001)" />

<path d="M9,-316c0,0,140,157,205,329c0,0,65,174,65,382c0,0,0,208,-65,382c0,0,-66,174,-205,330H139c0,0,141,-152,208,-324c0,0,67,-172,67,-386v-3c0,0,0,-216,-67,-388c0,0,-68,-170,-208,-322Z" 
id="f1_d"
transform="scale(0.001,-0.001)" />

<path d="M103,0V1107H237V0Z" 
id="f1_28"
transform="scale(0.001,-0.001)" />

<path d="M355,-14c0,0,-133,0,-194,65c0,0,-62,66,-62,219V808H234V296c0,0,0,-80,16,-124c0,0,16,-44,50,-64c0,0,34,-19,101,-19c0,0,97,0,153,66c0,0,55,67,55,185V808H744V172c0,0,0,-141,4,-172H621c0,0,0,4,-1,20c0,0,-1,17,-2,38c0,0,-1,21,-3,80h-2C613,138,567,55,506,20c0,0,-61,-34,-151,-34Z" 
id="f1_2h"
transform="scale(0.001,-0.001)" />

<path d="M106,0V635c0,0,0,141,-5,173H228c0,0,1,-4,2,-21c0,0,1,-16,2,-37c0,0,1,-22,2,-81h2c0,0,44,86,100,120c0,0,56,33,136,33c0,0,92,0,145,-36c0,0,54,-37,75,-117h2c0,0,42,82,101,117c0,0,59,36,143,36c0,0,123,0,178,-66c0,0,56,-67,56,-218V0H1039V512c0,0,0,117,-32,162c0,0,-32,45,-116,45c0,0,-88,0,-136,-66c0,0,-49,-65,-49,-185V0H573V512c0,0,0,117,-32,162c0,0,-32,45,-116,45c0,0,-86,0,-136,-66c0,0,-50,-66,-50,-185V0Z" 
id="f1_29"
transform="scale(0.001,-0.001)" />

<path d="M106,0V620c0,0,0,85,-5,188H228c0,0,6,-138,6,-165h3c0,0,32,103,74,141c0,0,42,38,118,38c0,0,27,0,54,-7V692c0,0,-26,7,-71,7c0,0,-84,0,-128,-72c0,0,-44,-72,-44,-206V0Z" 
id="f1_2e"
transform="scale(0.001,-0.001)" />

<path d="M413,-14c0,0,-170,0,-259,106c0,0,-89,107,-89,313c0,0,0,203,89,310c0,0,90,107,257,107c0,0,124,0,206,-64c0,0,81,-64,102,-177L581,571c0,0,-10,67,-53,106c0,0,-42,40,-121,40c0,0,-106,0,-154,-71c0,0,-48,-71,-48,-239c0,0,0,-161,51,-238c0,0,51,-78,153,-78c0,0,71,0,120,39c0,0,48,39,59,119l136,-9C724,240,708,124,624,55c0,0,-83,-69,-211,-69Z" 
id="f1_1z"
transform="scale(0.001,-0.001)" />

<path d="M68,346V465H441V346Z" 
id="f1_h"
transform="scale(0.001,-0.001)" />

<path d="M453,84c0,0,101,0,146,75c0,0,46,75,46,244c0,0,0,169,-45,243c0,0,-45,73,-146,73c0,0,-113,0,-165,-78c0,0,-52,-78,-52,-246c0,0,0,-159,51,-235c0,0,51,-76,165,-76Zm36,-98c0,0,-92,0,-153,33c0,0,-61,33,-99,107h-1c0,0,0,-24,-3,-71c0,0,-3,-48,-5,-55H98c0,0,5,40,5,166v941H237V792c0,0,0,-49,-3,-114h3c0,0,38,77,99,111c0,0,62,33,153,33c0,0,153,0,225,-103c0,0,72,-103,72,-311c0,0,0,-422,-297,-422Z" 
id="f1_1y"
transform="scale(0.001,-0.001)" />

<path d="M142,-316c0,0,-55,0,-92,8v101c0,0,28,-4,63,-4c0,0,125,0,198,184L324,4L4,808H147L317,362c0,0,4,-11,9,-25c0,0,5,-15,34,-98c0,0,28,-83,30,-92l52,147L619,808H761L451,0c0,0,-50,-128,-94,-191c0,0,-43,-63,-96,-94c0,0,-52,-31,-119,-31Z" 
id="f1_2l"
transform="scale(0.001,-0.001)" />

<path d="M420,84c0,0,121,0,173,78c0,0,52,77,52,243c0,0,0,167,-50,243c0,0,-50,76,-167,76c0,0,-118,0,-170,-78c0,0,-53,-77,-53,-241c0,0,0,-160,52,-241c0,0,52,-80,163,-80Zm1,-98c0,0,-176,0,-267,107c0,0,-90,108,-90,312c0,0,0,417,362,417c0,0,185,0,272,-102c0,0,88,-101,88,-315c0,0,0,-212,-94,-316C692,89,599,-14,421,-14Z" 
id="f1_2b"
transform="scale(0.001,-0.001)" />

<path d="M17,0L304,415L31,808H179L380,493L580,808H730L457,417L747,0H598L380,331L162,0Z" 
id="f1_2k"
transform="scale(0.001,-0.001)" />

<path d="M395,89c0,0,115,0,166,79c0,0,51,79,51,246c0,0,0,160,-51,235c0,0,-51,75,-164,75c0,0,-102,0,-147,-75c0,0,-45,-75,-45,-244c0,0,0,-170,45,-243c0,0,45,-73,145,-73ZM361,-14c0,0,-153,0,-225,102c0,0,-72,103,-72,312c0,0,0,422,297,422c0,0,92,0,153,-33c0,0,61,-34,98,-107h2l-2,90v335H747V166c0,0,0,-126,4,-166H623c0,0,-2,12,-5,55c0,0,-3,44,-3,75h-3c0,0,-37,-78,-98,-111c0,0,-62,-33,-153,-33Z" 
id="f1_20"
transform="scale(0.001,-0.001)" />

<path d="M135,0V710H22v98H135v91c0,0,0,110,49,158c0,0,48,49,148,49c0,0,56,0,95,-9V994c0,0,-34,6,-60,6c0,0,-51,0,-75,-26c0,0,-23,-26,-23,-94V808H427V710H269V0Z" 
id="f1_22"
transform="scale(0.001,-0.001)" />

<path d="M298,0L5,808H148L326,282c0,0,10,-29,51,-176l27,87l29,88L616,808H759L457,0Z" 
id="f1_2i"
transform="scale(0.001,-0.001)" />

<path d="M125,0V1051H268V606H836v445H979V0H836V487H268V0Z" 
id="f1_18"
transform="scale(0.001,-0.001)" />

<path d="M125,0V1051H291L859,150c0,0,-9,146,-9,212v689H979V0H807L245,895l3,-72l4,-125V0Z" 
id="f1_1e"
transform="scale(0.001,-0.001)" />

<path d="M593,101c0,0,182,0,279,112c0,0,98,113,98,318c0,0,0,196,-98,308c0,0,-98,112,-277,112c0,0,-181,0,-279,-110c0,0,-99,-111,-99,-310c0,0,0,-198,100,-314c0,0,99,-116,276,-116Zm0,-115c0,0,-162,0,-279,65c0,0,-118,66,-180,190c0,0,-62,124,-62,290c0,0,0,252,138,394c0,0,138,142,385,142c0,0,160,0,278,-64c0,0,118,-64,180,-185c0,0,62,-122,62,-287c0,0,0,-165,-63,-289c0,0,-63,-124,-181,-190c0,0,-118,-66,-278,-66Z" 
id="f1_1f"
transform="scale(0.001,-0.001)" />

<path d="M426,-14c0,0,-160,0,-255,71c0,0,-95,72,-113,213l139,13c0,0,27,-187,229,-187c0,0,101,0,159,50c0,0,58,50,58,149c0,0,0,86,-66,134c0,0,-66,48,-191,48H310V594h73c0,0,111,0,172,48c0,0,60,48,60,133c0,0,0,84,-49,132c0,0,-50,49,-147,49c0,0,-89,0,-144,-45c0,0,-55,-46,-64,-129L76,793c0,0,15,129,107,201c0,0,92,73,237,73c0,0,158,0,246,-74c0,0,87,-73,87,-204c0,0,0,-101,-56,-164c0,0,-56,-63,-164,-85v-3c0,0,118,-13,184,-79c0,0,66,-67,66,-167c0,0,0,-146,-93,-226c0,0,-92,-79,-264,-79Z" 
id="f1_n"
transform="scale(0.001,-0.001)" />

<path d="M439,94c0,0,97,0,152,65c0,0,55,65,55,179c0,0,0,114,-56,176c0,0,-56,62,-156,62c0,0,-94,0,-152,-55c0,0,-57,-55,-57,-151c0,0,0,-121,60,-199c0,0,60,-77,154,-77Zm4,-108c0,0,-177,0,-271,131c0,0,-94,132,-94,384c0,0,0,273,97,420c0,0,98,146,279,146c0,0,238,0,299,-214L625,830c0,0,-39,128,-173,128c0,0,-115,0,-178,-107c0,0,-63,-107,-63,-310c0,0,37,68,103,103c0,0,66,36,152,36c0,0,146,0,231,-91c0,0,86,-91,86,-245c0,0,0,-166,-91,-262c0,0,-90,-96,-249,-96Z" 
id="f1_q"
transform="scale(0.001,-0.001)" />

<path d="M77,0V95c0,0,38,87,93,154c0,0,55,67,115,121c0,0,60,54,120,100c0,0,59,46,107,93c0,0,47,46,77,97c0,0,29,50,29,114c0,0,0,87,-50,135c0,0,-51,47,-141,47c0,0,-86,0,-142,-46c0,0,-55,-47,-65,-131L83,791c0,0,15,126,107,201c0,0,92,75,237,75c0,0,159,0,244,-75c0,0,85,-75,85,-213c0,0,0,-61,-28,-122c0,0,-28,-60,-83,-120c0,0,-55,-61,-211,-188c0,0,-86,-70,-136,-126c0,0,-51,-56,-73,-109H773V0Z" 
id="f1_m"
transform="scale(0.001,-0.001)" />

<path d="M62,0V102L513,704H87V808H672V706L220,104H688V0Z" 
id="f1_2m"
transform="scale(0.001,-0.001)" />

<path d="M116,0V114H384V923L147,754V881l248,170H519V114H775V0Z" 
id="f1_l"
transform="scale(0.001,-0.001)" />

<path d="M494,385V878L152,385ZM494,0V262H20V385l498,708H628V385H775V262H628V0Z" 
id="f2_o"
transform="scale(0.001,-0.001)" />

<path d="M125,0V1051H268V115H799V0Z" 
id="f0_1c"
transform="scale(0.001,-0.001)" />

<path d="M106,0V620c0,0,0,85,-5,188H228c0,0,6,-138,6,-165h3c0,0,32,103,74,141c0,0,42,38,118,38c0,0,27,0,54,-7V692c0,0,-26,7,-71,7c0,0,-84,0,-128,-72c0,0,-44,-72,-44,-206V0Z" 
id="f0_2e"
transform="scale(0.001,-0.001)" />

<path d="M606,-14c0,0,-164,0,-284,65c0,0,-119,66,-182,189c0,0,-63,123,-63,291c0,0,0,255,137,396c0,0,137,140,386,140c0,0,174,0,283,-59c0,0,109,-59,168,-189L915,779c0,0,-44,90,-123,131c0,0,-79,41,-196,41c0,0,-182,0,-278,-110c0,0,-96,-110,-96,-310c0,0,0,-200,102,-315c0,0,102,-115,282,-115c0,0,103,0,193,31c0,0,89,31,144,85V407H629V526h445V164c0,0,-83,-85,-205,-132c0,0,-121,-46,-263,-46Z" 
id="f0_17"
transform="scale(0.001,-0.001)" />

<path d="M355,-14c0,0,-133,0,-194,65c0,0,-62,66,-62,219V808H234V296c0,0,0,-80,16,-124c0,0,16,-44,50,-64c0,0,34,-19,101,-19c0,0,97,0,153,66c0,0,55,67,55,185V808H744V172c0,0,0,-141,4,-172H621c0,0,0,4,-1,20c0,0,-1,17,-2,38c0,0,-1,21,-3,80h-2C613,138,567,55,506,20c0,0,-61,-34,-151,-34Z" 
id="f0_2h"
transform="scale(0.001,-0.001)" />

<path d="M395,89c0,0,115,0,166,79c0,0,51,79,51,246c0,0,0,160,-51,235c0,0,-51,75,-164,75c0,0,-102,0,-147,-75c0,0,-45,-75,-45,-244c0,0,0,-170,45,-243c0,0,45,-73,145,-73ZM361,-14c0,0,-153,0,-225,102c0,0,-72,103,-72,312c0,0,0,422,297,422c0,0,92,0,153,-33c0,0,61,-34,98,-107h2l-2,90v335H747V166c0,0,0,-126,4,-166H623c0,0,-2,12,-5,55c0,0,-3,44,-3,75h-3c0,0,-37,-78,-98,-111c0,0,-62,-33,-153,-33Z" 
id="f0_20"
transform="scale(0.001,-0.001)" />

<path d="M140,0V163H285V0Z" 
id="f0_i"
transform="scale(0.001,-0.001)" />


</defs>
</svg>