<?xml version="1.0" encoding="UTF-8" standalone="no"?>
<!DOCTYPE svg PUBLIC "-//W3C//DTD SVG 1.1//EN"
"http://www.w3.org/Graphics/SVG/1.1/DTD/svg11.dtd">
<svg viewBox="0 0 731 1042" version="1.1" xmlns="http://www.w3.org/2000/svg" xmlns:xlink="http://www.w3.org/1999/xlink">
<defs>
<clipPath id="c0_42"><path d="M97,397.2V379.4H282.7v17.8Z" /></clipPath>
<clipPath id="c1_42"><path d="M371.5,416.1V403.4h6.2v12.7Z" /></clipPath>
</defs>
<g fill="#D4D4D4" fill-opacity="0.36" >
<use xlink:href="#f0_1f" transform="matrix(50.9,-50.9,50.9,50.9,119.9,814.1)" />
<use xlink:href="#f0_2a" transform="matrix(50.9,-50.9,50.9,50.9,180.4,753.6)" />
<use xlink:href="#f0_28" transform="matrix(50.9,-50.9,50.9,50.9,223.6,710.3)" />
<use xlink:href="#f0_25" transform="matrix(50.9,-50.9,50.9,50.9,240.9,693.1)" />
<use xlink:href="#f0_2a" transform="matrix(50.9,-50.9,50.9,50.9,258.2,675.8)" />
<use xlink:href="#f0_21" transform="matrix(50.9,-50.9,50.9,50.9,301.4,632.5)" />
<use xlink:href="#f0_2k" transform="matrix(50.9,-50.9,50.9,50.9,344.7,589.3)" />
<use xlink:href="#f0_1x" transform="matrix(50.9,-50.9,50.9,50.9,383.6,550.4)" />
<use xlink:href="#f0_29" transform="matrix(50.9,-50.9,50.9,50.9,426.8,507.2)" />
<use xlink:href="#f0_2c" transform="matrix(50.9,-50.9,50.9,50.9,491.6,442.4)" />
<use xlink:href="#f0_2b" transform="matrix(50.9,-50.9,50.9,50.9,534.8,399.1)" />
<use xlink:href="#f0_25" transform="matrix(50.9,-50.9,50.9,50.9,578.1,355.9)" />
<use xlink:href="#f0_2a" transform="matrix(50.9,-50.9,50.9,50.9,595.4,338.6)" />
<use xlink:href="#f0_2g" transform="matrix(50.9,-50.9,50.9,50.9,638.6,295.4)" />
</g>
<g fill="#000000" >
<use xlink:href="#f1_1j" transform="matrix(11,0,0,11,134.4,68.1)" />
<use xlink:href="#f1_11" transform="matrix(11,0,0,11,145.6,68.1)" />
<use xlink:href="#f1_c" transform="matrix(11,0,0,11,165.2,68.1)" />
<use xlink:href="#f1_19" transform="matrix(11,0,0,11,170.9,68.1)" />
<use xlink:href="#f1_19" transform="matrix(11,0,0,11,175.6,68.1)" />
<use xlink:href="#f1_d" transform="matrix(11,0,0,11,180.4,68.1)" />
<use xlink:href="#f1_1k" transform="matrix(11,0,0,11,194.1,68.1)" />
<use xlink:href="#f1_1p" transform="matrix(11,0,0,11,204.2,68.1)" />
<use xlink:href="#f1_1g" transform="matrix(11,0,0,11,215.4,68.1)" />
<use xlink:href="#f1_15" transform="matrix(11,0,0,11,226.5,68.1)" />
<use xlink:href="#f1_1h" transform="matrix(11,0,0,11,245.8,68.1)" />
<use xlink:href="#f1_1l" transform="matrix(11,0,0,11,259,68.1)" />
<use xlink:href="#f1_15" transform="matrix(11,0,0,11,271.1,68.1)" />
<use xlink:href="#f1_1j" transform="matrix(11,0,0,11,282.2,68.1)" />
<use xlink:href="#f1_1k" transform="matrix(11,0,0,11,293.4,68.1)" />
<use xlink:href="#f1_19" transform="matrix(11,0,0,11,303.5,68.1)" />
<use xlink:href="#f1_1f" transform="matrix(11,0,0,11,308.2,68.1)" />
<use xlink:href="#f1_1e" transform="matrix(11,0,0,11,321.4,68.1)" />
<use xlink:href="#f1_1j" transform="matrix(11,0,0,11,333.5,68.1)" />
<use xlink:href="#f1_c" transform="matrix(11,0,0,11,352.9,68.1)" />
<use xlink:href="#f1_n" transform="matrix(11,0,0,11,358.6,68.1)" />
<use xlink:href="#f1_h" transform="matrix(11,0,0,11,376,68.1)" />
<use xlink:href="#f1_1d" transform="matrix(11,0,0,11,389.8,68.1)" />
<use xlink:href="#f1_11" transform="matrix(11,0,0,11,403.9,68.1)" />
<use xlink:href="#f1_1i" transform="matrix(11,0,0,11,415.4,68.1)" />
<use xlink:href="#f1_1b" transform="matrix(11,0,0,11,427.5,68.1)" />
<use xlink:href="#f1_1h" transform="matrix(11,0,0,11,447.6,68.1)" />
<use xlink:href="#f1_1l" transform="matrix(11,0,0,11,460.8,68.1)" />
<use xlink:href="#f1_15" transform="matrix(11,0,0,11,472.9,68.1)" />
<use xlink:href="#f1_1j" transform="matrix(11,0,0,11,484.1,68.1)" />
<use xlink:href="#f1_1k" transform="matrix(11,0,0,11,495.3,68.1)" />
<use xlink:href="#f1_19" transform="matrix(11,0,0,11,505.3,68.1)" />
<use xlink:href="#f1_1f" transform="matrix(11,0,0,11,510.1,68.1)" />
<use xlink:href="#f1_1e" transform="matrix(11,0,0,11,523.3,68.1)" />
<use xlink:href="#f1_1j" transform="matrix(11,0,0,11,535.4,68.1)" />
<use xlink:href="#f1_d" transform="matrix(11,0,0,11,546.6,68.1)" />
<use xlink:href="#f2_e" transform="matrix(10.4,0,0,10.4,53.7,97.8)" />
<use xlink:href="#f2_o" transform="matrix(10.4,0,0,10.4,60.2,97.8)" />
<use xlink:href="#f2_k" transform="matrix(10.4,0,0,10.4,69,97.8)" />
<use xlink:href="#f2_i" transform="matrix(10.4,0,0,10.4,77.9,97.8)" />
<use xlink:href="#f2_1j" transform="matrix(10.4,0,0,10.4,97,97.8)" />
<use xlink:href="#f2_2g" transform="matrix(10.4,0,0,10.4,106.9,97.8)" />
<use xlink:href="#f2_1x" transform="matrix(10.4,0,0,10.4,111.1,97.8)" />
<use xlink:href="#f2_2g" transform="matrix(10.4,0,0,10.4,119.9,97.8)" />
<use xlink:href="#f2_21" transform="matrix(10.4,0,0,10.4,124.3,97.8)" />
<use xlink:href="#f2_2g" transform="matrix(10.4,0,0,10.4,140.8,97.8)" />
<use xlink:href="#f2_24" transform="matrix(10.4,0,0,10.4,145.2,97.8)" />
<use xlink:href="#f2_21" transform="matrix(10.4,0,0,10.4,154,97.8)" />
<use xlink:href="#f2_2c" transform="matrix(10.4,0,0,10.4,170.7,97.8)" />
<use xlink:href="#f2_2e" transform="matrix(10.4,0,0,10.4,179.5,97.8)" />
<use xlink:href="#f2_25" transform="matrix(10.4,0,0,10.4,184.8,97.8)" />
<use xlink:href="#f2_2a" transform="matrix(10.4,0,0,10.4,188.3,97.8)" />
<use xlink:href="#f2_1z" transform="matrix(10.4,0,0,10.4,197.1,97.8)" />
<use xlink:href="#f2_25" transform="matrix(10.4,0,0,10.4,205.2,97.8)" />
<use xlink:href="#f2_2c" transform="matrix(10.4,0,0,10.4,208.6,97.8)" />
<use xlink:href="#f2_28" transform="matrix(10.4,0,0,10.4,217.4,97.8)" />
<use xlink:href="#f2_21" transform="matrix(10.4,0,0,10.4,220.9,97.8)" />
<use xlink:href="#f2_2f" transform="matrix(10.4,0,0,10.4,229.7,97.8)" />
<use xlink:href="#f2_2b" transform="matrix(10.4,0,0,10.4,245.5,97.8)" />
<use xlink:href="#f2_22" transform="matrix(10.4,0,0,10.4,254.3,97.8)" />
<use xlink:href="#f2_2e" transform="matrix(10.4,0,0,10.4,266.6,97.8)" />
<use xlink:href="#f2_21" transform="matrix(10.4,0,0,10.4,271.9,97.8)" />
<use xlink:href="#f2_22" transform="matrix(10.4,0,0,10.4,280.7,97.8)" />
<use xlink:href="#f2_25" transform="matrix(10.4,0,0,10.4,285.3,97.8)" />
<use xlink:href="#f2_2a" transform="matrix(10.4,0,0,10.4,288.8,97.8)" />
<use xlink:href="#f2_25" transform="matrix(10.4,0,0,10.4,297.6,97.8)" />
<use xlink:href="#f2_2a" transform="matrix(10.4,0,0,10.4,301,97.8)" />
<use xlink:href="#f2_23" transform="matrix(10.4,0,0,10.4,309.8,97.8)" />
<use xlink:href="#f2_2b" transform="matrix(10.4,0,0,10.4,326.3,97.8)" />
<use xlink:href="#f2_22" transform="matrix(10.4,0,0,10.4,335.1,97.8)" />
<use xlink:href="#f2_29" transform="matrix(10.4,0,0,10.4,347.6,97.8)" />
<use xlink:href="#f2_21" transform="matrix(10.4,0,0,10.4,361.2,97.8)" />
<use xlink:href="#f2_2g" transform="matrix(10.4,0,0,10.4,370,97.8)" />
<use xlink:href="#f2_1x" transform="matrix(10.4,0,0,10.4,374.2,97.8)" />
<use xlink:href="#f2_28" transform="matrix(10.4,0,0,10.4,383,97.8)" />
<use xlink:href="#f2_1y" transform="matrix(10.4,0,0,10.4,394.2,97.8)" />
<use xlink:href="#f2_2l" transform="matrix(10.4,0,0,10.4,403,97.8)" />
<use xlink:href="#f2_2g" transform="matrix(10.4,0,0,10.4,418.2,97.8)" />
<use xlink:href="#f2_24" transform="matrix(10.4,0,0,10.4,422.6,97.8)" />
<use xlink:href="#f2_21" transform="matrix(10.4,0,0,10.4,431.4,97.8)" />
<use xlink:href="#f2_22" transform="matrix(10.4,0,0,10.4,448.1,97.8)" />
<use xlink:href="#f2_2b" transform="matrix(10.4,0,0,10.4,452.6,97.8)" />
<use xlink:href="#f2_28" transform="matrix(10.4,0,0,10.4,461.4,97.8)" />
<use xlink:href="#f2_28" transform="matrix(10.4,0,0,10.4,464.9,97.8)" />
<use xlink:href="#f2_2b" transform="matrix(10.4,0,0,10.4,468.4,97.8)" />
<use xlink:href="#f2_2j" transform="matrix(10.4,0,0,10.4,477.2,97.8)" />
<use xlink:href="#f2_25" transform="matrix(10.4,0,0,10.4,488.4,97.8)" />
<use xlink:href="#f2_2a" transform="matrix(10.4,0,0,10.4,491.9,97.8)" />
<use xlink:href="#f2_23" transform="matrix(10.4,0,0,10.4,500.7,97.8)" />
<use xlink:href="#f2_29" transform="matrix(10.4,0,0,10.4,517.2,97.8)" />
<use xlink:href="#f2_21" transform="matrix(10.4,0,0,10.4,530.7,97.8)" />
<use xlink:href="#f2_2g" transform="matrix(10.4,0,0,10.4,539.5,97.8)" />
<use xlink:href="#f2_24" transform="matrix(10.4,0,0,10.4,543.9,97.8)" />
<use xlink:href="#f2_2b" transform="matrix(10.4,0,0,10.4,552.7,97.8)" />
<use xlink:href="#f2_20" transform="matrix(10.4,0,0,10.4,561.5,97.8)" />
<use xlink:href="#f2_2f" transform="matrix(10.4,0,0,10.4,570.3,97.8)" />
<use xlink:href="#f2_i" transform="matrix(10.4,0,0,10.4,578.4,97.8)" />
<use xlink:href="#f2_c" transform="matrix(10.4,0,0,10.4,97,123.1)" />
<use xlink:href="#f2_1x" transform="matrix(10.4,0,0,10.4,102.9,123.1)" />
<use xlink:href="#f2_d" transform="matrix(10.4,0,0,10.4,112.4,123.1)" />
<use xlink:href="#f2_1q" transform="matrix(10.4,0,0,10.4,140.3,123.1)" />
<use xlink:href="#f2_2b" transform="matrix(10.4,0,0,10.4,150,123.1)" />
<use xlink:href="#f2_2a" transform="matrix(10.4,0,0,10.4,158.8,123.1)" />
<use xlink:href="#f2_21" transform="matrix(10.4,0,0,10.4,167.6,123.1)" />
<use xlink:href="#f2_2e" transform="matrix(10.4,0,0,10.4,184.8,123.1)" />
<use xlink:href="#f2_21" transform="matrix(10.4,0,0,10.4,190.1,123.1)" />
<use xlink:href="#f2_22" transform="matrix(10.4,0,0,10.4,198.9,123.1)" />
<use xlink:href="#f2_25" transform="matrix(10.4,0,0,10.4,203.5,123.1)" />
<use xlink:href="#f2_2a" transform="matrix(10.4,0,0,10.4,207,123.1)" />
<use xlink:href="#f2_25" transform="matrix(10.4,0,0,10.4,215.8,123.1)" />
<use xlink:href="#f2_2a" transform="matrix(10.4,0,0,10.4,219.3,123.1)" />
<use xlink:href="#f2_23" transform="matrix(10.4,0,0,10.4,228.1,123.1)" />
<use xlink:href="#f2_c" transform="matrix(10.4,0,0,10.4,245.3,123.1)" />
<use xlink:href="#f2_1y" transform="matrix(10.4,0,0,10.4,250.6,123.1)" />
<use xlink:href="#f2_d" transform="matrix(10.4,0,0,10.4,259.4,123.1)" />
<use xlink:href="#f2_15" transform="matrix(10.4,0,0,10.4,273.2,123.1)" />
<use xlink:href="#f2_28" transform="matrix(10.4,0,0,10.4,283.8,123.1)" />
<use xlink:href="#f2_21" transform="matrix(10.4,0,0,10.4,287.3,123.1)" />
<use xlink:href="#f2_1z" transform="matrix(10.4,0,0,10.4,296.1,123.1)" />
<use xlink:href="#f2_2g" transform="matrix(10.4,0,0,10.4,304.2,123.1)" />
<use xlink:href="#f2_2e" transform="matrix(10.4,0,0,10.4,308.6,123.1)" />
<use xlink:href="#f2_2b" transform="matrix(10.4,0,0,10.4,313.9,123.1)" />
<use xlink:href="#f2_28" transform="matrix(10.4,0,0,10.4,322.7,123.1)" />
<use xlink:href="#f2_2l" transform="matrix(10.4,0,0,10.4,326.2,123.1)" />
<use xlink:href="#f2_2g" transform="matrix(10.4,0,0,10.4,333.7,123.1)" />
<use xlink:href="#f2_25" transform="matrix(10.4,0,0,10.4,338.1,123.1)" />
<use xlink:href="#f2_1z" transform="matrix(10.4,0,0,10.4,341.6,123.1)" />
<use xlink:href="#f2_2e" transform="matrix(10.4,0,0,10.4,358.1,123.1)" />
<use xlink:href="#f2_21" transform="matrix(10.4,0,0,10.4,363.4,123.1)" />
<use xlink:href="#f2_22" transform="matrix(10.4,0,0,10.4,372.2,123.1)" />
<use xlink:href="#f2_25" transform="matrix(10.4,0,0,10.4,376.8,123.1)" />
<use xlink:href="#f2_2a" transform="matrix(10.4,0,0,10.4,380.2,123.1)" />
<use xlink:href="#f2_25" transform="matrix(10.4,0,0,10.4,389,123.1)" />
<use xlink:href="#f2_2a" transform="matrix(10.4,0,0,10.4,392.5,123.1)" />
<use xlink:href="#f2_23" transform="matrix(10.4,0,0,10.4,401.3,123.1)" />
<use xlink:href="#f2_c" transform="matrix(10.4,0,0,10.4,418.6,123.1)" />
<use xlink:href="#f2_1z" transform="matrix(10.4,0,0,10.4,423.9,123.1)" />
<use xlink:href="#f2_d" transform="matrix(10.4,0,0,10.4,431.9,123.1)" />
<use xlink:href="#f2_1m" transform="matrix(10.4,0,0,10.4,445.7,123.1)" />
<use xlink:href="#f2_1x" transform="matrix(10.4,0,0,10.4,455.2,123.1)" />
<use xlink:href="#f2_2c" transform="matrix(10.4,0,0,10.4,464,123.1)" />
<use xlink:href="#f2_2b" transform="matrix(10.4,0,0,10.4,472.8,123.1)" />
<use xlink:href="#f2_2h" transform="matrix(10.4,0,0,10.4,481.6,123.1)" />
<use xlink:href="#f2_2e" transform="matrix(10.4,0,0,10.4,490.4,123.1)" />
<use xlink:href="#f2_2c" transform="matrix(10.4,0,0,10.4,504.2,123.1)" />
<use xlink:href="#f2_24" transform="matrix(10.4,0,0,10.4,513,123.1)" />
<use xlink:href="#f2_1x" transform="matrix(10.4,0,0,10.4,521.8,123.1)" />
<use xlink:href="#f2_2f" transform="matrix(10.4,0,0,10.4,530.6,123.1)" />
<use xlink:href="#f2_21" transform="matrix(10.4,0,0,10.4,538.6,123.1)" />
<use xlink:href="#f2_2e" transform="matrix(10.4,0,0,10.4,555.9,123.1)" />
<use xlink:href="#f2_21" transform="matrix(10.4,0,0,10.4,561.2,123.1)" />
<use xlink:href="#f2_22" transform="matrix(10.4,0,0,10.4,570,123.1)" />
<use xlink:href="#f2_25" transform="matrix(10.4,0,0,10.4,574.6,123.1)" />
<use xlink:href="#f2_2a" transform="matrix(10.4,0,0,10.4,578,123.1)" />
<use xlink:href="#f2_25" transform="matrix(10.4,0,0,10.4,586.8,123.1)" />
<use xlink:href="#f2_2a" transform="matrix(10.4,0,0,10.4,590.3,123.1)" />
<use xlink:href="#f2_23" transform="matrix(10.4,0,0,10.4,599.1,123.1)" />
<use xlink:href="#f2_i" transform="matrix(10.4,0,0,10.4,607.9,123.1)" />
<use xlink:href="#f2_o" transform="matrix(10.4,0,0,10.4,53.7,153.2)" />
<use xlink:href="#f2_l" transform="matrix(10.4,0,0,10.4,62.9,153.2)" />
<use xlink:href="#f2_i" transform="matrix(10.4,0,0,10.4,72.3,153.2)" />
<use xlink:href="#f2_18" transform="matrix(10.4,0,0,10.4,97,153.2)" />
<use xlink:href="#f2_2b" transform="matrix(10.4,0,0,10.4,108.6,153.2)" />
<use xlink:href="#f2_2j" transform="matrix(10.4,0,0,10.4,117.4,153.2)" />
<use xlink:href="#f2_25" transform="matrix(10.4,0,0,10.4,136.8,153.2)" />
<use xlink:href="#f2_2f" transform="matrix(10.4,0,0,10.4,140.3,153.2)" />
<use xlink:href="#f2_2c" transform="matrix(10.4,0,0,10.4,156.4,153.2)" />
<use xlink:href="#f2_2h" transform="matrix(10.4,0,0,10.4,165.2,153.2)" />
<use xlink:href="#f2_2e" transform="matrix(10.4,0,0,10.4,174,153.2)" />
<use xlink:href="#f2_21" transform="matrix(10.4,0,0,10.4,179.3,153.2)" />
<use xlink:href="#f2_1z" transform="matrix(10.4,0,0,10.4,196.4,153.2)" />
<use xlink:href="#f2_2b" transform="matrix(10.4,0,0,10.4,204.4,153.2)" />
<use xlink:href="#f2_2c" transform="matrix(10.4,0,0,10.4,213.2,153.2)" />
<use xlink:href="#f2_2c" transform="matrix(10.4,0,0,10.4,222,153.2)" />
<use xlink:href="#f2_21" transform="matrix(10.4,0,0,10.4,230.8,153.2)" />
<use xlink:href="#f2_2e" transform="matrix(10.4,0,0,10.4,239.6,153.2)" />
<use xlink:href="#f2_2b" transform="matrix(10.4,0,0,10.4,253.2,153.2)" />
<use xlink:href="#f2_1y" transform="matrix(10.4,0,0,10.4,262,153.2)" />
<use xlink:href="#f2_2g" transform="matrix(10.4,0,0,10.4,270.8,153.2)" />
<use xlink:href="#f2_1x" transform="matrix(10.4,0,0,10.4,275.2,153.2)" />
<use xlink:href="#f2_25" transform="matrix(10.4,0,0,10.4,284,153.2)" />
<use xlink:href="#f2_2a" transform="matrix(10.4,0,0,10.4,287.5,153.2)" />
<use xlink:href="#f2_21" transform="matrix(10.4,0,0,10.4,296.3,153.2)" />
<use xlink:href="#f2_20" transform="matrix(10.4,0,0,10.4,305.1,153.2)" />
<use xlink:href="#f2_22" transform="matrix(10.4,0,0,10.4,322.1,153.2)" />
<use xlink:href="#f2_2e" transform="matrix(10.4,0,0,10.4,326.7,153.2)" />
<use xlink:href="#f2_2b" transform="matrix(10.4,0,0,10.4,332,153.2)" />
<use xlink:href="#f2_29" transform="matrix(10.4,0,0,10.4,340.8,153.2)" />
<use xlink:href="#f2_25" transform="matrix(10.4,0,0,10.4,362.4,153.2)" />
<use xlink:href="#f2_2g" transform="matrix(10.4,0,0,10.4,365.9,153.2)" />
<use xlink:href="#f2_2f" transform="matrix(10.4,0,0,10.4,370.3,153.2)" />
<use xlink:href="#f2_2c" transform="matrix(10.4,0,0,10.4,386.6,153.2)" />
<use xlink:href="#f2_2e" transform="matrix(10.4,0,0,10.4,395.4,153.2)" />
<use xlink:href="#f2_25" transform="matrix(10.4,0,0,10.4,400.8,153.2)" />
<use xlink:href="#f2_2a" transform="matrix(10.4,0,0,10.4,404.2,153.2)" />
<use xlink:href="#f2_1z" transform="matrix(10.4,0,0,10.4,413,153.2)" />
<use xlink:href="#f2_25" transform="matrix(10.4,0,0,10.4,421.1,153.2)" />
<use xlink:href="#f2_2c" transform="matrix(10.4,0,0,10.4,424.6,153.2)" />
<use xlink:href="#f2_28" transform="matrix(10.4,0,0,10.4,433.4,153.2)" />
<use xlink:href="#f2_21" transform="matrix(10.4,0,0,10.4,436.9,153.2)" />
<use xlink:href="#f2_2b" transform="matrix(10.4,0,0,10.4,453.9,153.2)" />
<use xlink:href="#f2_2e" transform="matrix(10.4,0,0,10.4,462.7,153.2)" />
<use xlink:href="#f2_21" transform="matrix(10.4,0,0,10.4,468,153.2)" />
<use xlink:href="#f2_z" transform="matrix(10.4,0,0,10.4,476.8,153.2)" />
<use xlink:href="#f2_1n" transform="matrix(10.4,0,0,10.4,493.9,153.2)" />
<use xlink:href="#f2_2e" transform="matrix(10.4,0,0,10.4,509.8,153.2)" />
<use xlink:href="#f2_25" transform="matrix(10.4,0,0,10.4,515.1,153.2)" />
<use xlink:href="#f2_2g" transform="matrix(10.4,0,0,10.4,518.6,153.2)" />
<use xlink:href="#f2_21" transform="matrix(10.4,0,0,10.4,523,153.2)" />
<use xlink:href="#f2_2g" transform="matrix(10.4,0,0,10.4,539.9,153.2)" />
<use xlink:href="#f2_24" transform="matrix(10.4,0,0,10.4,544.3,153.2)" />
<use xlink:href="#f2_21" transform="matrix(10.4,0,0,10.4,553.1,153.2)" />
<use xlink:href="#f2_1z" transform="matrix(10.4,0,0,10.4,570.1,153.2)" />
<use xlink:href="#f2_24" transform="matrix(10.4,0,0,10.4,578.2,153.2)" />
<use xlink:href="#f2_21" transform="matrix(10.4,0,0,10.4,587,153.2)" />
<use xlink:href="#f2_29" transform="matrix(10.4,0,0,10.4,595.8,153.2)" />
<use xlink:href="#f2_25" transform="matrix(10.4,0,0,10.4,609.4,153.2)" />
<use xlink:href="#f2_1z" transform="matrix(10.4,0,0,10.4,612.9,153.2)" />
<use xlink:href="#f2_1x" transform="matrix(10.4,0,0,10.4,620.9,153.2)" />
<use xlink:href="#f2_28" transform="matrix(10.4,0,0,10.4,629.7,153.2)" />
<use xlink:href="#f2_2e" transform="matrix(10.4,0,0,10.4,97,174.1)" />
<use xlink:href="#f2_21" transform="matrix(10.4,0,0,10.4,102.3,174.1)" />
<use xlink:href="#f2_1x" transform="matrix(10.4,0,0,10.4,111.1,174.1)" />
<use xlink:href="#f2_1z" transform="matrix(10.4,0,0,10.4,119.9,174.1)" />
<use xlink:href="#f2_2g" transform="matrix(10.4,0,0,10.4,128,174.1)" />
<use xlink:href="#f2_25" transform="matrix(10.4,0,0,10.4,132.4,174.1)" />
<use xlink:href="#f2_2b" transform="matrix(10.4,0,0,10.4,135.9,174.1)" />
<use xlink:href="#f2_2a" transform="matrix(10.4,0,0,10.4,144.9,174.1)" />
<use xlink:href="#f2_2f" transform="matrix(10.4,0,0,10.4,153.7,174.1)" />
<use xlink:href="#f2_2b" transform="matrix(10.4,0,0,10.4,170.5,174.1)" />
<use xlink:href="#f2_1z" transform="matrix(10.4,0,0,10.4,179.3,174.1)" />
<use xlink:href="#f2_1z" transform="matrix(10.4,0,0,10.4,187.4,174.1)" />
<use xlink:href="#f2_2h" transform="matrix(10.4,0,0,10.4,195.4,174.1)" />
<use xlink:href="#f2_2e" transform="matrix(10.4,0,0,10.4,204.2,174.1)" />
<use xlink:href="#f2_2e" transform="matrix(10.4,0,0,10.4,209.6,174.1)" />
<use xlink:href="#f2_25" transform="matrix(10.4,0,0,10.4,214.9,174.1)" />
<use xlink:href="#f2_2a" transform="matrix(10.4,0,0,10.4,218.4,174.1)" />
<use xlink:href="#f2_23" transform="matrix(10.4,0,0,10.4,227.2,174.1)" />
<use xlink:href="#f2_20" transform="matrix(10.4,0,0,10.4,244.8,174.1)" />
<use xlink:href="#f2_2h" transform="matrix(10.4,0,0,10.4,253.7,174.1)" />
<use xlink:href="#f2_2e" transform="matrix(10.4,0,0,10.4,262.5,174.1)" />
<use xlink:href="#f2_25" transform="matrix(10.4,0,0,10.4,267.8,174.1)" />
<use xlink:href="#f2_2a" transform="matrix(10.4,0,0,10.4,271.3,174.1)" />
<use xlink:href="#f2_23" transform="matrix(10.4,0,0,10.4,280.1,174.1)" />
<use xlink:href="#f2_2g" transform="matrix(10.4,0,0,10.4,297.7,174.1)" />
<use xlink:href="#f2_24" transform="matrix(10.4,0,0,10.4,302.1,174.1)" />
<use xlink:href="#f2_21" transform="matrix(10.4,0,0,10.4,310.9,174.1)" />
<use xlink:href="#f2_21" transform="matrix(10.4,0,0,10.4,328.5,174.1)" />
<use xlink:href="#f2_2k" transform="matrix(10.4,0,0,10.4,337.3,174.1)" />
<use xlink:href="#f2_2g" transform="matrix(10.4,0,0,10.4,345.2,174.1)" />
<use xlink:href="#f2_2e" transform="matrix(10.4,0,0,10.4,349.6,174.1)" />
<use xlink:href="#f2_1x" transform="matrix(10.4,0,0,10.4,355.1,174.1)" />
<use xlink:href="#f2_1z" transform="matrix(10.4,0,0,10.4,363.9,174.1)" />
<use xlink:href="#f2_2g" transform="matrix(10.4,0,0,10.4,372,174.1)" />
<use xlink:href="#f2_25" transform="matrix(10.4,0,0,10.4,376.4,174.1)" />
<use xlink:href="#f2_2b" transform="matrix(10.4,0,0,10.4,379.9,174.1)" />
<use xlink:href="#f2_2a" transform="matrix(10.4,0,0,10.4,388.7,174.1)" />
<use xlink:href="#f2_i" transform="matrix(10.4,0,0,10.4,397.5,174.1)" />
<use xlink:href="#f2_o" transform="matrix(10.4,0,0,10.4,53.7,204.1)" />
<use xlink:href="#f2_m" transform="matrix(10.4,0,0,10.4,62.9,204.1)" />
<use xlink:href="#f2_i" transform="matrix(10.4,0,0,10.4,72.3,204.1)" />
<use xlink:href="#f2_1e" transform="matrix(10.4,0,0,10.4,97,204.1)" />
<use xlink:href="#f2_1x" transform="matrix(10.4,0,0,10.4,108.6,204.1)" />
<use xlink:href="#f2_29" transform="matrix(10.4,0,0,10.4,117.4,204.1)" />
<use xlink:href="#f2_21" transform="matrix(10.4,0,0,10.4,130.9,204.1)" />
<use xlink:href="#f2_2g" transform="matrix(10.4,0,0,10.4,147,204.1)" />
<use xlink:href="#f2_24" transform="matrix(10.4,0,0,10.4,151.4,204.1)" />
<use xlink:href="#f2_21" transform="matrix(10.4,0,0,10.4,160.2,204.1)" />
<use xlink:href="#f2_29" transform="matrix(10.4,0,0,10.4,176.4,204.1)" />
<use xlink:href="#f2_21" transform="matrix(10.4,0,0,10.4,189.9,204.1)" />
<use xlink:href="#f2_2g" transform="matrix(10.4,0,0,10.4,198.7,204.1)" />
<use xlink:href="#f2_24" transform="matrix(10.4,0,0,10.4,203.1,204.1)" />
<use xlink:href="#f2_2b" transform="matrix(10.4,0,0,10.4,211.9,204.1)" />
<use xlink:href="#f2_20" transform="matrix(10.4,0,0,10.4,220.7,204.1)" />
<use xlink:href="#f2_2b" transform="matrix(10.4,0,0,10.4,236.9,204.1)" />
<use xlink:href="#f2_22" transform="matrix(10.4,0,0,10.4,245.7,204.1)" />
<use xlink:href="#f2_2e" transform="matrix(10.4,0,0,10.4,257.6,204.1)" />
<use xlink:href="#f2_21" transform="matrix(10.4,0,0,10.4,262.9,204.1)" />
<use xlink:href="#f2_22" transform="matrix(10.4,0,0,10.4,271.7,204.1)" />
<use xlink:href="#f2_25" transform="matrix(10.4,0,0,10.4,276.3,204.1)" />
<use xlink:href="#f2_2a" transform="matrix(10.4,0,0,10.4,279.8,204.1)" />
<use xlink:href="#f2_25" transform="matrix(10.4,0,0,10.4,288.6,204.1)" />
<use xlink:href="#f2_2a" transform="matrix(10.4,0,0,10.4,292.1,204.1)" />
<use xlink:href="#f2_23" transform="matrix(10.4,0,0,10.4,300.9,204.1)" />
<use xlink:href="#f2_2b" transform="matrix(10.4,0,0,10.4,317.2,204.1)" />
<use xlink:href="#f2_22" transform="matrix(10.4,0,0,10.4,326,204.1)" />
<use xlink:href="#f2_2g" transform="matrix(10.4,0,0,10.4,337.9,204.1)" />
<use xlink:href="#f2_24" transform="matrix(10.4,0,0,10.4,342.3,204.1)" />
<use xlink:href="#f2_21" transform="matrix(10.4,0,0,10.4,351.1,204.1)" />
<use xlink:href="#f2_22" transform="matrix(10.4,0,0,10.4,367.2,204.1)" />
<use xlink:href="#f2_2b" transform="matrix(10.4,0,0,10.4,371.8,204.1)" />
<use xlink:href="#f2_28" transform="matrix(10.4,0,0,10.4,380.6,204.1)" />
<use xlink:href="#f2_28" transform="matrix(10.4,0,0,10.4,384.1,204.1)" />
<use xlink:href="#f2_2b" transform="matrix(10.4,0,0,10.4,387.6,204.1)" />
<use xlink:href="#f2_2j" transform="matrix(10.4,0,0,10.4,396.4,204.1)" />
<use xlink:href="#f2_25" transform="matrix(10.4,0,0,10.4,407.5,204.1)" />
<use xlink:href="#f2_2a" transform="matrix(10.4,0,0,10.4,411,204.1)" />
<use xlink:href="#f2_23" transform="matrix(10.4,0,0,10.4,419.8,204.1)" />
<use xlink:href="#f2_29" transform="matrix(10.4,0,0,10.4,436,204.1)" />
<use xlink:href="#f2_21" transform="matrix(10.4,0,0,10.4,449.5,204.1)" />
<use xlink:href="#f2_2g" transform="matrix(10.4,0,0,10.4,458.3,204.1)" />
<use xlink:href="#f2_1x" transform="matrix(10.4,0,0,10.4,462.7,204.1)" />
<use xlink:href="#f2_28" transform="matrix(10.4,0,0,10.4,471.5,204.1)" />
<use xlink:href="#f2_2f" transform="matrix(10.4,0,0,10.4,475,204.1)" />
<use xlink:href="#f2_1jz" transform="matrix(10.4,0,0,10.4,490.4,204.1)" />
<use xlink:href="#f2_c" transform="matrix(10.4,0,0,10.4,97,229.3)" />
<use xlink:href="#f2_1x" transform="matrix(10.4,0,0,10.4,102.9,229.3)" />
<use xlink:href="#f2_d" transform="matrix(10.4,0,0,10.4,112.4,229.3)" />
<use xlink:href="#f2_18" transform="matrix(10.4,0,0,10.4,140.3,229.3)" />
<use xlink:href="#f2_23" transform="matrix(10.4,0,0,10.4,151.8,229.3)" />
<use xlink:href="#f2_c" transform="matrix(10.4,0,0,10.4,188.5,229.3)" />
<use xlink:href="#f2_1y" transform="matrix(10.4,0,0,10.4,193.8,229.3)" />
<use xlink:href="#f2_d" transform="matrix(10.4,0,0,10.4,202.6,229.3)" />
<use xlink:href="#f2_1j" transform="matrix(10.4,0,0,10.4,228.8,229.3)" />
<use xlink:href="#f2_2a" transform="matrix(10.4,0,0,10.4,239.4,229.3)" />
<use xlink:href="#f2_c" transform="matrix(10.4,0,0,10.4,283.1,229.3)" />
<use xlink:href="#f2_1z" transform="matrix(10.4,0,0,10.4,288.4,229.3)" />
<use xlink:href="#f2_d" transform="matrix(10.4,0,0,10.4,296.4,229.3)" />
<use xlink:href="#f2_13" transform="matrix(10.4,0,0,10.4,322.7,229.3)" />
<use xlink:href="#f2_2h" transform="matrix(10.4,0,0,10.4,334.2,229.3)" />
<use xlink:href="#f2_c" transform="matrix(10.4,0,0,10.4,378,229.3)" />
<use xlink:href="#f2_20" transform="matrix(10.4,0,0,10.4,383.3,229.3)" />
<use xlink:href="#f2_d" transform="matrix(10.4,0,0,10.4,392.1,229.3)" />
<use xlink:href="#f2_17" transform="matrix(10.4,0,0,10.4,418.3,229.3)" />
<use xlink:href="#f2_21" transform="matrix(10.4,0,0,10.4,430.8,229.3)" />
<use xlink:href="#f2_c" transform="matrix(10.4,0,0,10.4,474.4,229.3)" />
<use xlink:href="#f2_21" transform="matrix(10.4,0,0,10.4,479.7,229.3)" />
<use xlink:href="#f2_d" transform="matrix(10.4,0,0,10.4,488.6,229.3)" />
<use xlink:href="#f2_1e" transform="matrix(10.4,0,0,10.4,514.8,229.3)" />
<use xlink:href="#f2_25" transform="matrix(10.4,0,0,10.4,526.3,229.3)" />
<use xlink:href="#f2_c" transform="matrix(10.4,0,0,10.4,564.6,229.3)" />
<use xlink:href="#f2_22" transform="matrix(10.4,0,0,10.4,569.9,229.3)" />
<use xlink:href="#f2_d" transform="matrix(10.4,0,0,10.4,574.5,229.3)" />
<use xlink:href="#f2_1q" transform="matrix(10.4,0,0,10.4,600.7,229.3)" />
<use xlink:href="#f2_2e" transform="matrix(10.4,0,0,10.4,610.5,229.3)" />
<use xlink:href="#f2_1r" transform="matrix(10.4,0,0,10.4,193.1,254.6)" />
<use xlink:href="#f1_11" transform="matrix(10.4,0,0,10.4,197.5,254.6)" />
<use xlink:href="#f1_2a" transform="matrix(10.4,0,0,10.4,208.3,254.6)" />
<use xlink:href="#f1_2f" transform="matrix(10.4,0,0,10.4,218,254.6)" />
<use xlink:href="#f1_i" transform="matrix(10.4,0,0,10.4,226.8,254.6)" />
<use xlink:href="#f1_u" transform="matrix(10.4,0,0,10.4,239.3,254.6)" />
<use xlink:href="#f2_c" transform="matrix(10.4,0,0,10.4,252.8,254.6)" />
<use xlink:href="#f2_1x" transform="matrix(10.4,0,0,10.4,258.2,254.6)" />
<use xlink:href="#f2_d" transform="matrix(10.4,0,0,10.4,267,254.6)" />
<use xlink:href="#f2_14" transform="matrix(10.4,0,0,10.4,280.5,254.6)" />
<use xlink:href="#f2_25" transform="matrix(10.4,0,0,10.4,292.1,254.6)" />
<use xlink:href="#f2_2f" transform="matrix(10.4,0,0,10.4,295.6,254.6)" />
<use xlink:href="#f2_2g" transform="matrix(10.4,0,0,10.4,303.6,254.6)" />
<use xlink:href="#f2_25" transform="matrix(10.4,0,0,10.4,308,254.6)" />
<use xlink:href="#f2_28" transform="matrix(10.4,0,0,10.4,311.5,254.6)" />
<use xlink:href="#f2_28" transform="matrix(10.4,0,0,10.4,315,254.6)" />
<use xlink:href="#f2_1x" transform="matrix(10.4,0,0,10.4,318.5,254.6)" />
<use xlink:href="#f2_2g" transform="matrix(10.4,0,0,10.4,327.3,254.6)" />
<use xlink:href="#f2_25" transform="matrix(10.4,0,0,10.4,331.7,254.6)" />
<use xlink:href="#f2_2b" transform="matrix(10.4,0,0,10.4,335.1,254.6)" />
<use xlink:href="#f2_2a" transform="matrix(10.4,0,0,10.4,343.9,254.6)" />
<use xlink:href="#f2_g" transform="matrix(10.4,0,0,10.4,352.7,254.6)" />
<use xlink:href="#f2_c" transform="matrix(10.4,0,0,10.4,365.2,254.6)" />
<use xlink:href="#f2_1y" transform="matrix(10.4,0,0,10.4,370.5,254.6)" />
<use xlink:href="#f2_d" transform="matrix(10.4,0,0,10.4,379.3,254.6)" />
<use xlink:href="#f2_1c" transform="matrix(10.4,0,0,10.4,392.9,254.6)" />
<use xlink:href="#f2_25" transform="matrix(10.4,0,0,10.4,401.7,254.6)" />
<use xlink:href="#f2_2d" transform="matrix(10.4,0,0,10.4,405.2,254.6)" />
<use xlink:href="#f2_2h" transform="matrix(10.4,0,0,10.4,414,254.6)" />
<use xlink:href="#f2_1x" transform="matrix(10.4,0,0,10.4,422.8,254.6)" />
<use xlink:href="#f2_2g" transform="matrix(10.4,0,0,10.4,431.6,254.6)" />
<use xlink:href="#f2_25" transform="matrix(10.4,0,0,10.4,436,254.6)" />
<use xlink:href="#f2_2b" transform="matrix(10.4,0,0,10.4,439.5,254.6)" />
<use xlink:href="#f2_2a" transform="matrix(10.4,0,0,10.4,448.3,254.6)" />
<use xlink:href="#f2_v" transform="matrix(10.4,0,0,10.4,457.1,254.6)" />
<use xlink:href="#f2_c" transform="matrix(10.4,0,0,10.4,469.5,254.6)" />
<use xlink:href="#f2_1z" transform="matrix(10.4,0,0,10.4,474.8,254.6)" />
<use xlink:href="#f2_d" transform="matrix(10.4,0,0,10.4,482.9,254.6)" />
<use xlink:href="#f2_15" transform="matrix(10.4,0,0,10.4,496.5,254.6)" />
<use xlink:href="#f2_28" transform="matrix(10.4,0,0,10.4,507.1,254.6)" />
<use xlink:href="#f2_21" transform="matrix(10.4,0,0,10.4,510.6,254.6)" />
<use xlink:href="#f2_1z" transform="matrix(10.4,0,0,10.4,519.4,254.6)" />
<use xlink:href="#f2_2g" transform="matrix(10.4,0,0,10.4,527.4,254.6)" />
<use xlink:href="#f2_2e" transform="matrix(10.4,0,0,10.4,531.8,254.6)" />
<use xlink:href="#f2_2b" transform="matrix(10.4,0,0,10.4,537.2,254.6)" />
<use xlink:href="#f2_28" transform="matrix(10.4,0,0,10.4,546,254.6)" />
<use xlink:href="#f2_2l" transform="matrix(10.4,0,0,10.4,549.4,254.6)" />
<use xlink:href="#f2_2g" transform="matrix(10.4,0,0,10.4,557,254.6)" />
<use xlink:href="#f2_25" transform="matrix(10.4,0,0,10.4,561.4,254.6)" />
<use xlink:href="#f2_1z" transform="matrix(10.4,0,0,10.4,564.8,254.6)" />
<use xlink:href="#f2_2e" transform="matrix(10.4,0,0,10.4,581,254.6)" />
<use xlink:href="#f2_21" transform="matrix(10.4,0,0,10.4,586.3,254.6)" />
<use xlink:href="#f2_22" transform="matrix(10.4,0,0,10.4,595.1,254.6)" />
<use xlink:href="#f2_25" transform="matrix(10.4,0,0,10.4,599.7,254.6)" />
<use xlink:href="#f2_2a" transform="matrix(10.4,0,0,10.4,603.2,254.6)" />
<use xlink:href="#f2_25" transform="matrix(10.4,0,0,10.4,612,254.6)" />
<use xlink:href="#f2_2a" transform="matrix(10.4,0,0,10.4,615.4,254.6)" />
<use xlink:href="#f2_23" transform="matrix(10.4,0,0,10.4,624.2,254.6)" />
<use xlink:href="#f2_c" transform="matrix(10.4,0,0,10.4,190.9,279.9)" />
<use xlink:href="#f2_20" transform="matrix(10.4,0,0,10.4,196.2,279.9)" />
<use xlink:href="#f2_d" transform="matrix(10.4,0,0,10.4,205,279.9)" />
<use xlink:href="#f2_1q" transform="matrix(10.4,0,0,10.4,218.2,279.9)" />
<use xlink:href="#f2_2b" transform="matrix(10.4,0,0,10.4,227.9,279.9)" />
<use xlink:href="#f2_2a" transform="matrix(10.4,0,0,10.4,236.7,279.9)" />
<use xlink:href="#f2_21" transform="matrix(10.4,0,0,10.4,245.5,279.9)" />
<use xlink:href="#f2_2e" transform="matrix(10.4,0,0,10.4,262,279.9)" />
<use xlink:href="#f2_21" transform="matrix(10.4,0,0,10.4,267.3,279.9)" />
<use xlink:href="#f2_22" transform="matrix(10.4,0,0,10.4,276.1,279.9)" />
<use xlink:href="#f2_25" transform="matrix(10.4,0,0,10.4,280.7,279.9)" />
<use xlink:href="#f2_2a" transform="matrix(10.4,0,0,10.4,284.2,279.9)" />
<use xlink:href="#f2_25" transform="matrix(10.4,0,0,10.4,293,279.9)" />
<use xlink:href="#f2_2a" transform="matrix(10.4,0,0,10.4,296.5,279.9)" />
<use xlink:href="#f2_23" transform="matrix(10.4,0,0,10.4,305.3,279.9)" />
<use xlink:href="#f2_v" transform="matrix(10.4,0,0,10.4,314.1,279.9)" />
<use xlink:href="#f2_c" transform="matrix(10.4,0,0,10.4,326.3,279.9)" />
<use xlink:href="#f2_21" transform="matrix(10.4,0,0,10.4,331.7,279.9)" />
<use xlink:href="#f2_d" transform="matrix(10.4,0,0,10.4,340.5,279.9)" />
<use xlink:href="#f2_1d" transform="matrix(10.4,0,0,10.4,353.7,279.9)" />
<use xlink:href="#f2_2b" transform="matrix(10.4,0,0,10.4,366.7,279.9)" />
<use xlink:href="#f2_2a" transform="matrix(10.4,0,0,10.4,375.5,279.9)" />
<use xlink:href="#f2_20" transform="matrix(10.4,0,0,10.4,384.3,279.9)" />
<use xlink:href="#f2_1g" transform="matrix(10.4,0,0,10.4,400.8,279.9)" />
<use xlink:href="#f2_2e" transform="matrix(10.4,0,0,10.4,411.4,279.9)" />
<use xlink:href="#f2_2b" transform="matrix(10.4,0,0,10.4,416.7,279.9)" />
<use xlink:href="#f2_1z" transform="matrix(10.4,0,0,10.4,425.5,279.9)" />
<use xlink:href="#f2_21" transform="matrix(10.4,0,0,10.4,433.6,279.9)" />
<use xlink:href="#f2_2f" transform="matrix(10.4,0,0,10.4,442.4,279.9)" />
<use xlink:href="#f2_2f" transform="matrix(10.4,0,0,10.4,450.4,279.9)" />
<use xlink:href="#f2_c" transform="matrix(10.4,0,0,10.4,466.4,279.9)" />
<use xlink:href="#f2_22" transform="matrix(10.4,0,0,10.4,471.7,279.9)" />
<use xlink:href="#f2_d" transform="matrix(10.4,0,0,10.4,476.3,279.9)" />
<use xlink:href="#f2_1m" transform="matrix(10.4,0,0,10.4,489.5,279.9)" />
<use xlink:href="#f2_1x" transform="matrix(10.4,0,0,10.4,499,279.9)" />
<use xlink:href="#f2_2a" transform="matrix(10.4,0,0,10.4,507.8,279.9)" />
<use xlink:href="#f2_11" transform="matrix(10.4,0,0,10.4,523.4,279.9)" />
<use xlink:href="#f2_2e" transform="matrix(10.4,0,0,10.4,534,279.9)" />
<use xlink:href="#f2_27" transform="matrix(10.4,0,0,10.4,539.4,279.9)" />
<use xlink:href="#f2_21" transform="matrix(10.4,0,0,10.4,547.4,279.9)" />
<use xlink:href="#f2_28" transform="matrix(10.4,0,0,10.4,556.2,279.9)" />
<use xlink:href="#f2_1g" transform="matrix(10.4,0,0,10.4,567.6,279.9)" />
<use xlink:href="#f2_2e" transform="matrix(10.4,0,0,10.4,578.2,279.9)" />
<use xlink:href="#f2_2b" transform="matrix(10.4,0,0,10.4,583.5,279.9)" />
<use xlink:href="#f2_1z" transform="matrix(10.4,0,0,10.4,592.3,279.9)" />
<use xlink:href="#f2_21" transform="matrix(10.4,0,0,10.4,600.4,279.9)" />
<use xlink:href="#f2_2f" transform="matrix(10.4,0,0,10.4,609.2,279.9)" />
<use xlink:href="#f2_2f" transform="matrix(10.4,0,0,10.4,617.3,279.9)" />
<use xlink:href="#f2_28" transform="matrix(10.4,0,0,10.4,625.3,279.9)" />
<use xlink:href="#f2_1t" transform="matrix(10.4,0,0,10.4,628.8,279.9)" />
<use xlink:href="#f2_e" transform="matrix(10.4,0,0,10.4,53.7,309.9)" />
<use xlink:href="#f2_o" transform="matrix(10.4,0,0,10.4,60.2,309.9)" />
<use xlink:href="#f2_o" transform="matrix(10.4,0,0,10.4,69,309.9)" />
<use xlink:href="#f2_i" transform="matrix(10.4,0,0,10.4,77.9,309.9)" />
<use xlink:href="#f2_1k" transform="matrix(10.4,0,0,10.4,97,309.9)" />
<use xlink:href="#f2_24" transform="matrix(10.4,0,0,10.4,106.9,309.9)" />
<use xlink:href="#f2_21" transform="matrix(10.4,0,0,10.4,115.7,309.9)" />
<use xlink:href="#f2_2a" transform="matrix(10.4,0,0,10.4,130.7,309.9)" />
<use xlink:href="#f2_1x" transform="matrix(10.4,0,0,10.4,139.5,309.9)" />
<use xlink:href="#f2_2g" transform="matrix(10.4,0,0,10.4,148.3,309.9)" />
<use xlink:href="#f2_25" transform="matrix(10.4,0,0,10.4,152.7,309.9)" />
<use xlink:href="#f2_2i" transform="matrix(10.4,0,0,10.4,156.2,309.9)" />
<use xlink:href="#f2_21" transform="matrix(10.4,0,0,10.4,164.1,309.9)" />
<use xlink:href="#f2_2f" transform="matrix(10.4,0,0,10.4,179.3,309.9)" />
<use xlink:href="#f2_25" transform="matrix(10.4,0,0,10.4,187.4,309.9)" />
<use xlink:href="#f2_28" transform="matrix(10.4,0,0,10.4,190.9,309.9)" />
<use xlink:href="#f2_2i" transform="matrix(10.4,0,0,10.4,194.3,309.9)" />
<use xlink:href="#f2_21" transform="matrix(10.4,0,0,10.4,202.2,309.9)" />
<use xlink:href="#f2_2e" transform="matrix(10.4,0,0,10.4,211,309.9)" />
<use xlink:href="#f2_22" transform="matrix(10.4,0,0,10.4,222.6,309.9)" />
<use xlink:href="#f2_2b" transform="matrix(10.4,0,0,10.4,227.2,309.9)" />
<use xlink:href="#f2_2e" transform="matrix(10.4,0,0,10.4,236,309.9)" />
<use xlink:href="#f2_29" transform="matrix(10.4,0,0,10.4,241.3,309.9)" />
<use xlink:href="#f2_2f" transform="matrix(10.4,0,0,10.4,254.8,309.9)" />
<use xlink:href="#f2_1x" transform="matrix(10.4,0,0,10.4,269.3,309.9)" />
<use xlink:href="#f2_2j" transform="matrix(10.4,0,0,10.4,284.4,309.9)" />
<use xlink:href="#f2_1x" transform="matrix(10.4,0,0,10.4,295.5,309.9)" />
<use xlink:href="#f2_2g" transform="matrix(10.4,0,0,10.4,304.3,309.9)" />
<use xlink:href="#f2_21" transform="matrix(10.4,0,0,10.4,308.7,309.9)" />
<use xlink:href="#f2_2e" transform="matrix(10.4,0,0,10.4,317.5,309.9)" />
<use xlink:href="#f2_2f" transform="matrix(10.4,0,0,10.4,329.3,309.9)" />
<use xlink:href="#f2_2b" transform="matrix(10.4,0,0,10.4,337.3,309.9)" />
<use xlink:href="#f2_28" transform="matrix(10.4,0,0,10.4,346.1,309.9)" />
<use xlink:href="#f2_2h" transform="matrix(10.4,0,0,10.4,349.6,309.9)" />
<use xlink:href="#f2_1y" transform="matrix(10.4,0,0,10.4,358.4,309.9)" />
<use xlink:href="#f2_28" transform="matrix(10.4,0,0,10.4,367.2,309.9)" />
<use xlink:href="#f2_21" transform="matrix(10.4,0,0,10.4,370.7,309.9)" />
<use xlink:href="#f2_1z" transform="matrix(10.4,0,0,10.4,385.7,309.9)" />
<use xlink:href="#f2_2b" transform="matrix(10.4,0,0,10.4,393.8,309.9)" />
<use xlink:href="#f2_29" transform="matrix(10.4,0,0,10.4,402.6,309.9)" />
<use xlink:href="#f2_2c" transform="matrix(10.4,0,0,10.4,416.2,309.9)" />
<use xlink:href="#f2_2b" transform="matrix(10.4,0,0,10.4,425,309.9)" />
<use xlink:href="#f2_2h" transform="matrix(10.4,0,0,10.4,433.8,309.9)" />
<use xlink:href="#f2_2a" transform="matrix(10.4,0,0,10.4,442.6,309.9)" />
<use xlink:href="#f2_20" transform="matrix(10.4,0,0,10.4,451.4,309.9)" />
<use xlink:href="#f2_c" transform="matrix(10.4,0,0,10.4,466.6,309.9)" />
<use xlink:href="#f2_12" transform="matrix(10.4,0,0,10.4,471.9,309.9)" />
<use xlink:href="#f2_d" transform="matrix(10.4,0,0,10.4,482.5,309.9)" />
<use xlink:href="#f2_2j" transform="matrix(10.4,0,0,10.4,494.1,309.9)" />
<use xlink:href="#f2_25" transform="matrix(10.4,0,0,10.4,505.2,309.9)" />
<use xlink:href="#f2_2g" transform="matrix(10.4,0,0,10.4,508.7,309.9)" />
<use xlink:href="#f2_24" transform="matrix(10.4,0,0,10.4,513.1,309.9)" />
<use xlink:href="#f2_20" transform="matrix(10.4,0,0,10.4,528.3,309.9)" />
<use xlink:href="#f2_25" transform="matrix(10.4,0,0,10.4,537.1,309.9)" />
<use xlink:href="#f2_28" transform="matrix(10.4,0,0,10.4,540.6,309.9)" />
<use xlink:href="#f2_2h" transform="matrix(10.4,0,0,10.4,544.1,309.9)" />
<use xlink:href="#f2_2g" transform="matrix(10.4,0,0,10.4,552.9,309.9)" />
<use xlink:href="#f2_21" transform="matrix(10.4,0,0,10.4,557.3,309.9)" />
<use xlink:href="#f2_1x" transform="matrix(10.4,0,0,10.4,572.3,309.9)" />
<use xlink:href="#f2_2d" transform="matrix(10.4,0,0,10.4,581.1,309.9)" />
<use xlink:href="#f2_2h" transform="matrix(10.4,0,0,10.4,589.9,309.9)" />
<use xlink:href="#f2_21" transform="matrix(10.4,0,0,10.4,598.7,309.9)" />
<use xlink:href="#f2_2b" transform="matrix(10.4,0,0,10.4,607.5,309.9)" />
<use xlink:href="#f2_2h" transform="matrix(10.4,0,0,10.4,616.3,309.9)" />
<use xlink:href="#f2_2f" transform="matrix(10.4,0,0,10.4,625.1,309.9)" />
<use xlink:href="#f2_2f" transform="matrix(10.4,0,0,10.4,97,330.8)" />
<use xlink:href="#f2_2b" transform="matrix(10.4,0,0,10.4,105.1,330.8)" />
<use xlink:href="#f2_28" transform="matrix(10.4,0,0,10.4,113.9,330.8)" />
<use xlink:href="#f2_2h" transform="matrix(10.4,0,0,10.4,117.4,330.8)" />
<use xlink:href="#f2_2g" transform="matrix(10.4,0,0,10.4,126.2,330.8)" />
<use xlink:href="#f2_25" transform="matrix(10.4,0,0,10.4,130.6,330.8)" />
<use xlink:href="#f2_2b" transform="matrix(10.4,0,0,10.4,134,330.8)" />
<use xlink:href="#f2_2a" transform="matrix(10.4,0,0,10.4,142.8,330.8)" />
<use xlink:href="#f2_2b" transform="matrix(10.4,0,0,10.4,157,330.8)" />
<use xlink:href="#f2_22" transform="matrix(10.4,0,0,10.4,165.8,330.8)" />
<use xlink:href="#f2_1e" transform="matrix(10.4,0,0,10.4,175.8,330.8)" />
<use xlink:href="#f2_1x" transform="matrix(10.4,0,0,10.4,187.4,330.8)" />
<use xlink:href="#f2_13" transform="matrix(10.4,0,0,10.4,196.2,330.8)" />
<use xlink:href="#f2_1e" transform="matrix(10.4,0,0,10.4,207.7,330.8)" />
<use xlink:href="#f2_25" transform="matrix(10.4,0,0,10.4,224.6,330.8)" />
<use xlink:href="#f2_2a" transform="matrix(10.4,0,0,10.4,228.1,330.8)" />
<use xlink:href="#f2_2g" transform="matrix(10.4,0,0,10.4,242.4,330.8)" />
<use xlink:href="#f2_24" transform="matrix(10.4,0,0,10.4,246.8,330.8)" />
<use xlink:href="#f2_21" transform="matrix(10.4,0,0,10.4,255.6,330.8)" />
<use xlink:href="#f2_2c" transform="matrix(10.4,0,0,10.4,269.7,330.8)" />
<use xlink:href="#f2_2e" transform="matrix(10.4,0,0,10.4,278.5,330.8)" />
<use xlink:href="#f2_21" transform="matrix(10.4,0,0,10.4,283.8,330.8)" />
<use xlink:href="#f2_2f" transform="matrix(10.4,0,0,10.4,292.6,330.8)" />
<use xlink:href="#f2_21" transform="matrix(10.4,0,0,10.4,300.7,330.8)" />
<use xlink:href="#f2_2a" transform="matrix(10.4,0,0,10.4,309.5,330.8)" />
<use xlink:href="#f2_1z" transform="matrix(10.4,0,0,10.4,318.3,330.8)" />
<use xlink:href="#f2_21" transform="matrix(10.4,0,0,10.4,326.3,330.8)" />
<use xlink:href="#f2_2b" transform="matrix(10.4,0,0,10.4,340.6,330.8)" />
<use xlink:href="#f2_22" transform="matrix(10.4,0,0,10.4,349.4,330.8)" />
<use xlink:href="#f2_1x" transform="matrix(10.4,0,0,10.4,359.3,330.8)" />
<use xlink:href="#f2_23" transform="matrix(10.4,0,0,10.4,373.6,330.8)" />
<use xlink:href="#f2_1x" transform="matrix(10.4,0,0,10.4,382.4,330.8)" />
<use xlink:href="#f2_2f" transform="matrix(10.4,0,0,10.4,391.2,330.8)" />
<use xlink:href="#f2_c" transform="matrix(10.4,0,0,10.4,404.6,330.8)" />
<use xlink:href="#f2_11" transform="matrix(10.4,0,0,10.4,409.9,330.8)" />
<use xlink:href="#f2_d" transform="matrix(10.4,0,0,10.4,420.6,330.8)" />
<use xlink:href="#f2_i" transform="matrix(10.4,0,0,10.4,425.9,330.8)" />
<use xlink:href="#f2_1k" transform="matrix(10.4,0,0,10.4,435.8,330.8)" />
<use xlink:href="#f2_24" transform="matrix(10.4,0,0,10.4,445.7,330.8)" />
<use xlink:href="#f2_21" transform="matrix(10.4,0,0,10.4,454.5,330.8)" />
<use xlink:href="#f2_2f" transform="matrix(10.4,0,0,10.4,468.6,330.8)" />
<use xlink:href="#f2_25" transform="matrix(10.4,0,0,10.4,476.6,330.8)" />
<use xlink:href="#f2_28" transform="matrix(10.4,0,0,10.4,480.1,330.8)" />
<use xlink:href="#f2_2i" transform="matrix(10.4,0,0,10.4,483.6,330.8)" />
<use xlink:href="#f2_21" transform="matrix(10.4,0,0,10.4,491.5,330.8)" />
<use xlink:href="#f2_2e" transform="matrix(10.4,0,0,10.4,500.3,330.8)" />
<use xlink:href="#f2_29" transform="matrix(10.4,0,0,10.4,511.1,330.8)" />
<use xlink:href="#f2_21" transform="matrix(10.4,0,0,10.4,524.7,330.8)" />
<use xlink:href="#f2_2g" transform="matrix(10.4,0,0,10.4,533.5,330.8)" />
<use xlink:href="#f2_1x" transform="matrix(10.4,0,0,10.4,537.9,330.8)" />
<use xlink:href="#f2_28" transform="matrix(10.4,0,0,10.4,546.7,330.8)" />
<use xlink:href="#f2_25" transform="matrix(10.4,0,0,10.4,555.5,330.8)" />
<use xlink:href="#f2_2f" transform="matrix(10.4,0,0,10.4,558.9,330.8)" />
<use xlink:href="#f2_2b" transform="matrix(10.4,0,0,10.4,572.5,330.8)" />
<use xlink:href="#f2_1y" transform="matrix(10.4,0,0,10.4,581.3,330.8)" />
<use xlink:href="#f2_2g" transform="matrix(10.4,0,0,10.4,590.1,330.8)" />
<use xlink:href="#f2_1x" transform="matrix(10.4,0,0,10.4,594.5,330.8)" />
<use xlink:href="#f2_25" transform="matrix(10.4,0,0,10.4,603.3,330.8)" />
<use xlink:href="#f2_2a" transform="matrix(10.4,0,0,10.4,606.8,330.8)" />
<use xlink:href="#f2_21" transform="matrix(10.4,0,0,10.4,615.6,330.8)" />
<use xlink:href="#f2_20" transform="matrix(10.4,0,0,10.4,624.4,330.8)" />
<use xlink:href="#f2_1y" transform="matrix(10.4,0,0,10.4,97,351.7)" />
<use xlink:href="#f2_2l" transform="matrix(10.4,0,0,10.4,105.8,351.7)" />
<use xlink:href="#f2_2g" transform="matrix(10.4,0,0,10.4,121.9,351.7)" />
<use xlink:href="#f2_24" transform="matrix(10.4,0,0,10.4,126.3,351.7)" />
<use xlink:href="#f2_21" transform="matrix(10.4,0,0,10.4,135.1,351.7)" />
<use xlink:href="#f2_1x" transform="matrix(10.4,0,0,10.4,152.6,351.7)" />
<use xlink:href="#f2_20" transform="matrix(10.4,0,0,10.4,161.4,351.7)" />
<use xlink:href="#f2_20" transform="matrix(10.4,0,0,10.4,170.1,351.7)" />
<use xlink:href="#f2_25" transform="matrix(10.4,0,0,10.4,178.9,351.7)" />
<use xlink:href="#f2_2g" transform="matrix(10.4,0,0,10.4,182.4,351.7)" />
<use xlink:href="#f2_25" transform="matrix(10.4,0,0,10.4,186.8,351.7)" />
<use xlink:href="#f2_2b" transform="matrix(10.4,0,0,10.4,190.3,351.7)" />
<use xlink:href="#f2_2a" transform="matrix(10.4,0,0,10.4,199.1,351.7)" />
<use xlink:href="#f2_2b" transform="matrix(10.4,0,0,10.4,216.5,351.7)" />
<use xlink:href="#f2_22" transform="matrix(10.4,0,0,10.4,225.3,351.7)" />
<use xlink:href="#f2_1x" transform="matrix(10.4,0,0,10.4,238.7,351.7)" />
<use xlink:href="#f2_29" transform="matrix(10.4,0,0,10.4,256.1,351.7)" />
<use xlink:href="#f2_21" transform="matrix(10.4,0,0,10.4,269.7,351.7)" />
<use xlink:href="#f2_2g" transform="matrix(10.4,0,0,10.4,278.5,351.7)" />
<use xlink:href="#f2_1x" transform="matrix(10.4,0,0,10.4,282.9,351.7)" />
<use xlink:href="#f2_28" transform="matrix(10.4,0,0,10.4,291.7,351.7)" />
<use xlink:href="#f2_c" transform="matrix(10.4,0,0,10.4,303.8,351.7)" />
<use xlink:href="#f2_13" transform="matrix(10.4,0,0,10.4,309.1,351.7)" />
<use xlink:href="#f2_d" transform="matrix(10.4,0,0,10.4,320.7,351.7)" />
<use xlink:href="#f2_2g" transform="matrix(10.4,0,0,10.4,334.6,351.7)" />
<use xlink:href="#f2_2b" transform="matrix(10.4,0,0,10.4,339,351.7)" />
<use xlink:href="#f2_c" transform="matrix(10.4,0,0,10.4,356.4,351.7)" />
<use xlink:href="#f2_12" transform="matrix(10.4,0,0,10.4,361.7,351.7)" />
<use xlink:href="#f2_d" transform="matrix(10.4,0,0,10.4,372.3,351.7)" />
<use xlink:href="#f2_1x" transform="matrix(10.4,0,0,10.4,386.3,351.7)" />
<use xlink:href="#f2_2a" transform="matrix(10.4,0,0,10.4,395.1,351.7)" />
<use xlink:href="#f2_20" transform="matrix(10.4,0,0,10.4,403.9,351.7)" />
<use xlink:href="#f2_1z" transform="matrix(10.4,0,0,10.4,421.3,351.7)" />
<use xlink:href="#f2_2b" transform="matrix(10.4,0,0,10.4,429.4,351.7)" />
<use xlink:href="#f2_29" transform="matrix(10.4,0,0,10.4,438.2,351.7)" />
<use xlink:href="#f2_2c" transform="matrix(10.4,0,0,10.4,451.7,351.7)" />
<use xlink:href="#f2_28" transform="matrix(10.4,0,0,10.4,460.5,351.7)" />
<use xlink:href="#f2_21" transform="matrix(10.4,0,0,10.4,464,351.7)" />
<use xlink:href="#f2_2k" transform="matrix(10.4,0,0,10.4,472.8,351.7)" />
<use xlink:href="#f2_c" transform="matrix(10.4,0,0,10.4,489.3,351.7)" />
<use xlink:href="#f2_14" transform="matrix(10.4,0,0,10.4,494.6,351.7)" />
<use xlink:href="#f2_d" transform="matrix(10.4,0,0,10.4,506.2,351.7)" />
<use xlink:href="#f2_25" transform="matrix(10.4,0,0,10.4,520.3,351.7)" />
<use xlink:href="#f2_2f" transform="matrix(10.4,0,0,10.4,523.8,351.7)" />
<use xlink:href="#f2_22" transform="matrix(10.4,0,0,10.4,540.4,351.7)" />
<use xlink:href="#f2_2b" transform="matrix(10.4,0,0,10.4,545,351.7)" />
<use xlink:href="#f2_2e" transform="matrix(10.4,0,0,10.4,553.8,351.7)" />
<use xlink:href="#f2_29" transform="matrix(10.4,0,0,10.4,559.1,351.7)" />
<use xlink:href="#f2_21" transform="matrix(10.4,0,0,10.4,572.7,351.7)" />
<use xlink:href="#f2_20" transform="matrix(10.4,0,0,10.4,581.5,351.7)" />
<use xlink:href="#f2_1x" transform="matrix(10.4,0,0,10.4,598.9,351.7)" />
<use xlink:href="#f2_2f" transform="matrix(10.4,0,0,10.4,607.7,351.7)" />
<use xlink:href="#f2_1x" transform="matrix(10.4,0,0,10.4,624.4,351.7)" />
<use xlink:href="#f2_1y" transform="matrix(10.4,0,0,10.4,97,372.8)" />
<use xlink:href="#f2_2l" transform="matrix(10.4,0,0,10.4,105.8,372.8)" />
<use xlink:href="#f2_2c" transform="matrix(10.4,0,0,10.4,113.3,372.8)" />
<use xlink:href="#f2_2e" transform="matrix(10.4,0,0,10.4,122.1,372.8)" />
<use xlink:href="#f2_2b" transform="matrix(10.4,0,0,10.4,127.4,372.8)" />
<use xlink:href="#f2_20" transform="matrix(10.4,0,0,10.4,136.2,372.8)" />
<use xlink:href="#f2_2h" transform="matrix(10.4,0,0,10.4,145,372.8)" />
<use xlink:href="#f2_1z" transform="matrix(10.4,0,0,10.4,153.8,372.8)" />
<use xlink:href="#f2_2g" transform="matrix(10.4,0,0,10.4,161.9,372.8)" />
<use xlink:href="#f2_i" transform="matrix(10.4,0,0,10.4,166.3,372.8)" />
<use xlink:href="#f2_1n" transform="matrix(10.4,0,0,10.4,177.7,372.8)" />
<use xlink:href="#f2_2e" transform="matrix(10.4,0,0,10.4,193.6,372.8)" />
<use xlink:href="#f2_25" transform="matrix(10.4,0,0,10.4,198.9,372.8)" />
<use xlink:href="#f2_2g" transform="matrix(10.4,0,0,10.4,202.4,372.8)" />
<use xlink:href="#f2_21" transform="matrix(10.4,0,0,10.4,206.8,372.8)" />
<use xlink:href="#f2_2g" transform="matrix(10.4,0,0,10.4,222.6,372.8)" />
<use xlink:href="#f2_24" transform="matrix(10.4,0,0,10.4,227,372.8)" />
<use xlink:href="#f2_21" transform="matrix(10.4,0,0,10.4,235.8,372.8)" />
<use xlink:href="#f2_2f" transform="matrix(10.4,0,0,10.4,251.5,372.8)" />
<use xlink:href="#f2_2g" transform="matrix(10.4,0,0,10.4,259.6,372.8)" />
<use xlink:href="#f2_2e" transform="matrix(10.4,0,0,10.4,264,372.8)" />
<use xlink:href="#f2_2h" transform="matrix(10.4,0,0,10.4,269.3,372.8)" />
<use xlink:href="#f2_1z" transform="matrix(10.4,0,0,10.4,278.1,372.8)" />
<use xlink:href="#f2_2g" transform="matrix(10.4,0,0,10.4,286.2,372.8)" />
<use xlink:href="#f2_2h" transform="matrix(10.4,0,0,10.4,290.6,372.8)" />
<use xlink:href="#f2_2e" transform="matrix(10.4,0,0,10.4,299.4,372.8)" />
<use xlink:href="#f2_21" transform="matrix(10.4,0,0,10.4,304.7,372.8)" />
<use xlink:href="#f2_2f" transform="matrix(10.4,0,0,10.4,313.5,372.8)" />
<use xlink:href="#f2_2b" transform="matrix(10.4,0,0,10.4,328.7,372.8)" />
<use xlink:href="#f2_22" transform="matrix(10.4,0,0,10.4,337.5,372.8)" />
<use xlink:href="#f2_c" transform="matrix(10.4,0,0,10.4,349.1,372.8)" />
<use xlink:href="#f2_13" transform="matrix(10.4,0,0,10.4,354.4,372.8)" />
<use xlink:href="#f2_d" transform="matrix(10.4,0,0,10.4,365.9,372.8)" />
<use xlink:href="#f2_1x" transform="matrix(10.4,0,0,10.4,378.2,372.8)" />
<use xlink:href="#f2_2a" transform="matrix(10.4,0,0,10.4,387,372.8)" />
<use xlink:href="#f2_20" transform="matrix(10.4,0,0,10.4,395.8,372.8)" />
<use xlink:href="#f2_c" transform="matrix(10.4,0,0,10.4,411.6,372.8)" />
<use xlink:href="#f2_14" transform="matrix(10.4,0,0,10.4,416.9,372.8)" />
<use xlink:href="#f2_d" transform="matrix(10.4,0,0,10.4,428.4,372.8)" />
<use xlink:href="#f2_1x" transform="matrix(10.4,0,0,10.4,440.7,372.8)" />
<use xlink:href="#f2_2a" transform="matrix(10.4,0,0,10.4,449.5,372.8)" />
<use xlink:href="#f2_20" transform="matrix(10.4,0,0,10.4,458.3,372.8)" />
<use xlink:href="#f2_25" transform="matrix(10.4,0,0,10.4,474.1,372.8)" />
<use xlink:href="#f2_20" transform="matrix(10.4,0,0,10.4,477.6,372.8)" />
<use xlink:href="#f2_21" transform="matrix(10.4,0,0,10.4,486.4,372.8)" />
<use xlink:href="#f2_2a" transform="matrix(10.4,0,0,10.4,495.2,372.8)" />
<use xlink:href="#f2_2g" transform="matrix(10.4,0,0,10.4,504,372.8)" />
<use xlink:href="#f2_25" transform="matrix(10.4,0,0,10.4,508.4,372.8)" />
<use xlink:href="#f2_22" transform="matrix(10.4,0,0,10.4,511.8,372.8)" />
<use xlink:href="#f2_2l" transform="matrix(10.4,0,0,10.4,516.4,372.8)" />
<use xlink:href="#f2_c" transform="matrix(10.4,0,0,10.4,531.1,372.8)" />
<use xlink:href="#f2_11" transform="matrix(10.4,0,0,10.4,536.4,372.8)" />
<use xlink:href="#f2_d" transform="matrix(10.4,0,0,10.4,547,372.8)" />
<use xlink:href="#f2_1x" transform="matrix(10.4,0,0,10.4,559.3,372.8)" />
<use xlink:href="#f2_2a" transform="matrix(10.4,0,0,10.4,568.1,372.8)" />
<use xlink:href="#f2_20" transform="matrix(10.4,0,0,10.4,576.9,372.8)" />
<use xlink:href="#f2_c" transform="matrix(10.4,0,0,10.4,592.7,372.8)" />
<use xlink:href="#f2_12" transform="matrix(10.4,0,0,10.4,598,372.8)" />
<use xlink:href="#f2_d" transform="matrix(10.4,0,0,10.4,608.6,372.8)" />
<use xlink:href="#f2_25" transform="matrix(10.4,0,0,10.4,620.9,372.8)" />
<use xlink:href="#f2_2a" transform="matrix(10.4,0,0,10.4,624.4,372.8)" />
</g>
<g clip-path="url(#c0_42)">
<g fill="#000000" >
<use xlink:href="#f2_2g" transform="matrix(10.4,0,0,10.4,97,393.7)" />
<use xlink:href="#f2_24" transform="matrix(10.4,0,0,10.4,101.4,393.7)" />
<use xlink:href="#f2_21" transform="matrix(10.4,0,0,10.4,110.2,393.7)" />
<use xlink:href="#f2_22" transform="matrix(10.4,0,0,10.4,127.3,393.7)" />
<use xlink:href="#f2_2b" transform="matrix(10.4,0,0,10.4,131.8,393.7)" />
<use xlink:href="#f2_28" transform="matrix(10.4,0,0,10.4,140.6,393.7)" />
<use xlink:href="#f2_28" transform="matrix(10.4,0,0,10.4,144.1,393.7)" />
<use xlink:href="#f2_2b" transform="matrix(10.4,0,0,10.4,147.6,393.7)" />
<use xlink:href="#f2_2j" transform="matrix(10.4,0,0,10.4,156.4,393.7)" />
<use xlink:href="#f2_25" transform="matrix(10.4,0,0,10.4,167.6,393.7)" />
<use xlink:href="#f2_2a" transform="matrix(10.4,0,0,10.4,171.1,393.7)" />
<use xlink:href="#f2_23" transform="matrix(10.4,0,0,10.4,179.9,393.7)" />
<use xlink:href="#f2_2f" transform="matrix(10.4,0,0,10.4,196.7,393.7)" />
<use xlink:href="#f2_21" transform="matrix(10.4,0,0,10.4,204.8,393.7)" />
<use xlink:href="#f2_2d" transform="matrix(10.4,0,0,10.4,213.6,393.7)" />
<use xlink:href="#f2_2h" transform="matrix(10.4,0,0,10.4,222.4,393.7)" />
<use xlink:href="#f2_21" transform="matrix(10.4,0,0,10.4,231.2,393.7)" />
<use xlink:href="#f2_2a" transform="matrix(10.4,0,0,10.4,240,393.7)" />
<use xlink:href="#f2_1z" transform="matrix(10.4,0,0,10.4,248.8,393.7)" />
<use xlink:href="#f2_21" transform="matrix(10.4,0,0,10.4,256.9,393.7)" />
<use xlink:href="#f2_1jz" transform="matrix(10.4,0,0,10.4,273.9,393.7)" />
</g>
</g>
<g fill="#000000" >
<use xlink:href="#f2_11" transform="matrix(10.4,0,0,10.4,97,419)" />
<use xlink:href="#f2_23" transform="matrix(10.4,0,0,10.4,107.6,419)" />
<use xlink:href="#f2_f" transform="matrix(10.4,0,0,10.4,123,419)" />
<use xlink:href="#f2_1e" transform="matrix(10.4,0,0,10.4,139,419)" />
<use xlink:href="#f2_1x" transform="matrix(10.4,0,0,10.4,150.5,419)" />
<use xlink:href="#f2_13" transform="matrix(10.4,0,0,10.4,159.3,419)" />
<use xlink:href="#f2_1e" transform="matrix(10.4,0,0,10.4,170.9,419)" />
<use xlink:href="#f2_f" transform="matrix(10.4,0,0,10.4,188.8,419)" />
<use xlink:href="#f2_1r" transform="matrix(10.4,0,0,10.4,204.8,419)" />
<use xlink:href="#f2_11" transform="matrix(10.4,0,0,10.4,209.2,419)" />
<use xlink:href="#f2_1t" transform="matrix(10.4,0,0,10.4,219.8,419)" />
<use xlink:href="#f2_f" transform="matrix(10.4,0,0,10.4,230.8,419)" />
<use xlink:href="#f2_18" transform="matrix(10.4,0,0,10.4,246.8,419)" />
<use xlink:href="#f2_m" transform="matrix(7.4,0,0,7.4,258.3,424.3)" />
<use xlink:href="#f2_1f" transform="matrix(10.4,0,0,10.4,264.6,419)" />
<use xlink:href="#f3_34" transform="matrix(10.4,0,0,10.4,283.6,419)" />
<use xlink:href="#f2_1r" transform="matrix(10.4,0,0,10.4,305.5,419)" />
<use xlink:href="#f2_12" transform="matrix(10.4,0,0,10.4,309.9,419)" />
<use xlink:href="#f2_1t" transform="matrix(10.4,0,0,10.4,320.5,419)" />
<use xlink:href="#f2_f" transform="matrix(10.4,0,0,10.4,331.5,419)" />
<use xlink:href="#f2_1f" transform="matrix(10.4,0,0,10.4,347.4,419)" />
<use xlink:href="#f2_18" transform="matrix(10.4,0,0,10.4,359.9,419)" />
</g>
<g clip-path="url(#c1_42)">
<g fill="#000000" >
<use xlink:href="#f2_1jz" transform="matrix(7.4,0,0,7.4,371.5,413.7)" />
</g>
</g>
<g fill="#000000" >
<use xlink:href="#f2_f" transform="matrix(10.4,0,0,10.4,384.3,419)" />
<use xlink:href="#f2_1e" transform="matrix(10.4,0,0,10.4,400.2,419)" />
<use xlink:href="#f2_1x" transform="matrix(10.4,0,0,10.4,411.8,419)" />
<use xlink:href="#f2_f" transform="matrix(7.4,0,0,7.4,420.6,413.7)" />
<use xlink:href="#f2_i" transform="matrix(10.4,0,0,10.4,427.2,419)" />
<use xlink:href="#f2_1r" transform="matrix(10.4,0,0,10.4,97,444.3)" />
<use xlink:href="#f2_13" transform="matrix(10.4,0,0,10.4,101.4,444.3)" />
<use xlink:href="#f2_1t" transform="matrix(10.4,0,0,10.4,113,444.3)" />
<use xlink:href="#f2_f" transform="matrix(10.4,0,0,10.4,124.3,444.3)" />
<use xlink:href="#f2_1r" transform="matrix(10.4,0,0,10.4,140.8,444.3)" />
<use xlink:href="#f2_12" transform="matrix(10.4,0,0,10.4,145.2,444.3)" />
<use xlink:href="#f2_1t" transform="matrix(10.4,0,0,10.4,155.9,444.3)" />
<use xlink:href="#f3_34" transform="matrix(10.4,0,0,10.4,167.2,444.3)" />
<use xlink:href="#f2_1r" transform="matrix(10.4,0,0,10.4,189.4,444.3)" />
<use xlink:href="#f2_14" transform="matrix(10.4,0,0,10.4,193.8,444.3)" />
<use xlink:href="#f2_1t" transform="matrix(10.4,0,0,10.4,205.4,444.3)" />
<use xlink:href="#f2_f" transform="matrix(10.4,0,0,10.4,216.9,444.3)" />
<use xlink:href="#f2_11" transform="matrix(10.4,0,0,10.4,232.5,444.3)" />
<use xlink:href="#f2_23" transform="matrix(10.4,0,0,10.4,243.1,444.3)" />
<use xlink:href="#f2_i" transform="matrix(10.4,0,0,10.4,251.9,444.3)" />
<use xlink:href="#f2_1r" transform="matrix(10.4,0,0,10.4,97,474.2)" />
<use xlink:href="#f1_11" transform="matrix(10.4,0,0,10.4,101.4,474.2)" />
<use xlink:href="#f1_2a" transform="matrix(10.4,0,0,10.4,112.2,474.2)" />
<use xlink:href="#f1_2f" transform="matrix(10.4,0,0,10.4,121.9,474.2)" />
<use xlink:href="#f1_i" transform="matrix(10.4,0,0,10.4,130.7,474.2)" />
<use xlink:href="#f1_u" transform="matrix(10.4,0,0,10.4,141.9,474.2)" />
<use xlink:href="#f2_1r" transform="matrix(10.4,0,0,10.4,183.5,474.2)" />
<use xlink:href="#f2_11" transform="matrix(10.4,0,0,10.4,187.9,474.2)" />
<use xlink:href="#f2_1t" transform="matrix(10.4,0,0,10.4,198.6,474.2)" />
<use xlink:href="#f2_x" transform="matrix(10.4,0,0,10.4,210.1,474.2)" />
<use xlink:href="#f2_1f" transform="matrix(10.4,0,0,10.4,226.8,474.2)" />
<use xlink:href="#f2_m" transform="matrix(7.4,0,0,7.4,239.3,479.5)" />
<use xlink:href="#f2_1r" transform="matrix(10.4,0,0,10.4,183.5,499.5)" />
<use xlink:href="#f2_12" transform="matrix(10.4,0,0,10.4,187.9,499.5)" />
<use xlink:href="#f2_1t" transform="matrix(10.4,0,0,10.4,198.6,499.5)" />
<use xlink:href="#f2_x" transform="matrix(10.4,0,0,10.4,209.8,499.5)" />
<use xlink:href="#f2_1e" transform="matrix(10.4,0,0,10.4,225.7,499.5)" />
<use xlink:href="#f2_1x" transform="matrix(10.4,0,0,10.4,237.2,499.5)" />
<use xlink:href="#f2_1r" transform="matrix(10.4,0,0,10.4,252.8,499.5)" />
<use xlink:href="#f2_11" transform="matrix(10.4,0,0,10.4,257.2,499.5)" />
<use xlink:href="#f2_23" transform="matrix(10.4,0,0,10.4,267.9,499.5)" />
<use xlink:href="#f2_c" transform="matrix(10.4,0,0,10.4,276.7,499.5)" />
<use xlink:href="#f2_13" transform="matrix(10.4,0,0,10.4,282,499.5)" />
<use xlink:href="#f2_1e" transform="matrix(10.4,0,0,10.4,293.5,499.5)" />
<use xlink:href="#f2_d" transform="matrix(10.4,0,0,10.4,305.1,499.5)" />
<use xlink:href="#f2_m" transform="matrix(7.4,0,0,7.4,310.4,504.8)" />
<use xlink:href="#f2_1t" transform="matrix(10.4,0,0,10.4,316.6,499.5)" />
<use xlink:href="#f2_1r" transform="matrix(10.4,0,0,10.4,183.5,524.8)" />
<use xlink:href="#f2_13" transform="matrix(10.4,0,0,10.4,187.9,524.8)" />
<use xlink:href="#f2_1t" transform="matrix(10.4,0,0,10.4,199.5,524.8)" />
<use xlink:href="#f2_x" transform="matrix(10.4,0,0,10.4,210.7,524.8)" />
<use xlink:href="#f2_1q" transform="matrix(10.4,0,0,10.4,227,524.8)" />
<use xlink:href="#f2_2a" transform="matrix(10.4,0,0,10.4,236.7,524.8)" />
<use xlink:href="#f2_1r" transform="matrix(10.4,0,0,10.4,183.5,550.1)" />
<use xlink:href="#f2_14" transform="matrix(10.4,0,0,10.4,187.9,550.1)" />
<use xlink:href="#f2_1t" transform="matrix(10.4,0,0,10.4,199.5,550.1)" />
<use xlink:href="#f2_x" transform="matrix(10.4,0,0,10.4,210.9,550.1)" />
<use xlink:href="#f2_1e" transform="matrix(10.4,0,0,10.4,227.2,550.1)" />
<use xlink:href="#f2_1x" transform="matrix(10.4,0,0,10.4,238.7,550.1)" />
<use xlink:href="#f2_m" transform="matrix(7.4,0,0,7.4,247.5,555.4)" />
<use xlink:href="#f2_1r" transform="matrix(10.4,0,0,10.4,260.7,550.1)" />
<use xlink:href="#f2_1q" transform="matrix(10.4,0,0,10.4,265.1,550.1)" />
<use xlink:href="#f2_2a" transform="matrix(10.4,0,0,10.4,274.8,550.1)" />
<use xlink:href="#f2_c" transform="matrix(10.4,0,0,10.4,290.6,550.1)" />
<use xlink:href="#f2_13" transform="matrix(10.4,0,0,10.4,295.9,550.1)" />
<use xlink:href="#f2_1e" transform="matrix(10.4,0,0,10.4,307.5,550.1)" />
<use xlink:href="#f2_d" transform="matrix(10.4,0,0,10.4,319,550.1)" />
<use xlink:href="#f2_o" transform="matrix(7.4,0,0,7.4,324.3,555.4)" />
<use xlink:href="#f2_1t" transform="matrix(10.4,0,0,10.4,330.6,550.1)" />
<use xlink:href="#f2_1t" transform="matrix(10.4,0,0,10.4,342.1,550.1)" />
<use xlink:href="#f2_i" transform="matrix(10.4,0,0,10.4,346.5,550.1)" />
<use xlink:href="#f2_o" transform="matrix(10.4,0,0,10.4,53.7,580.2)" />
<use xlink:href="#f2_p" transform="matrix(10.4,0,0,10.4,62.9,580.2)" />
<use xlink:href="#f2_i" transform="matrix(10.4,0,0,10.4,72.3,580.2)" />
<use xlink:href="#f2_19" transform="matrix(10.4,0,0,10.4,97,580.2)" />
<use xlink:href="#f2_2a" transform="matrix(10.4,0,0,10.4,101.4,580.2)" />
<use xlink:href="#f2_2g" transform="matrix(10.4,0,0,10.4,117.5,580.2)" />
<use xlink:href="#f2_24" transform="matrix(10.4,0,0,10.4,121.9,580.2)" />
<use xlink:href="#f2_21" transform="matrix(10.4,0,0,10.4,130.7,580.2)" />
<use xlink:href="#f2_1z" transform="matrix(10.4,0,0,10.4,146.9,580.2)" />
<use xlink:href="#f2_2l" transform="matrix(10.4,0,0,10.4,154.9,580.2)" />
<use xlink:href="#f2_2a" transform="matrix(10.4,0,0,10.4,162.4,580.2)" />
<use xlink:href="#f2_1x" transform="matrix(10.4,0,0,10.4,171.2,580.2)" />
<use xlink:href="#f2_29" transform="matrix(10.4,0,0,10.4,180,580.2)" />
<use xlink:href="#f2_25" transform="matrix(10.4,0,0,10.4,193.6,580.2)" />
<use xlink:href="#f2_20" transform="matrix(10.4,0,0,10.4,197.1,580.2)" />
<use xlink:href="#f2_21" transform="matrix(10.4,0,0,10.4,205.9,580.2)" />
<use xlink:href="#f2_21" transform="matrix(10.4,0,0,10.4,222,580.2)" />
<use xlink:href="#f2_2k" transform="matrix(10.4,0,0,10.4,230.8,580.2)" />
<use xlink:href="#f2_2g" transform="matrix(10.4,0,0,10.4,238.7,580.2)" />
<use xlink:href="#f2_2e" transform="matrix(10.4,0,0,10.4,243.1,580.2)" />
<use xlink:href="#f2_1x" transform="matrix(10.4,0,0,10.4,248.4,580.2)" />
<use xlink:href="#f2_1z" transform="matrix(10.4,0,0,10.4,257.2,580.2)" />
<use xlink:href="#f2_2g" transform="matrix(10.4,0,0,10.4,265.3,580.2)" />
<use xlink:href="#f2_25" transform="matrix(10.4,0,0,10.4,269.7,580.2)" />
<use xlink:href="#f2_2b" transform="matrix(10.4,0,0,10.4,273.2,580.2)" />
<use xlink:href="#f2_2a" transform="matrix(10.4,0,0,10.4,282,580.2)" />
<use xlink:href="#f2_2c" transform="matrix(10.4,0,0,10.4,298.1,580.2)" />
<use xlink:href="#f2_2e" transform="matrix(10.4,0,0,10.4,306.9,580.2)" />
<use xlink:href="#f2_2b" transform="matrix(10.4,0,0,10.4,312.2,580.2)" />
<use xlink:href="#f2_1z" transform="matrix(10.4,0,0,10.4,321,580.2)" />
<use xlink:href="#f2_21" transform="matrix(10.4,0,0,10.4,329.1,580.2)" />
<use xlink:href="#f2_2f" transform="matrix(10.4,0,0,10.4,337.9,580.2)" />
<use xlink:href="#f2_2f" transform="matrix(10.4,0,0,10.4,345.9,580.2)" />
<use xlink:href="#f2_2b" transform="matrix(10.4,0,0,10.4,361.3,580.2)" />
<use xlink:href="#f2_22" transform="matrix(10.4,0,0,10.4,370.1,580.2)" />
<use xlink:href="#f2_2f" transform="matrix(10.4,0,0,10.4,382.2,580.2)" />
<use xlink:href="#f2_25" transform="matrix(10.4,0,0,10.4,390.3,580.2)" />
<use xlink:href="#f2_28" transform="matrix(10.4,0,0,10.4,393.8,580.2)" />
<use xlink:href="#f2_2i" transform="matrix(10.4,0,0,10.4,397.3,580.2)" />
<use xlink:href="#f2_21" transform="matrix(10.4,0,0,10.4,405.2,580.2)" />
<use xlink:href="#f2_2e" transform="matrix(10.4,0,0,10.4,414,580.2)" />
<use xlink:href="#f2_2c" transform="matrix(10.4,0,0,10.4,426.6,580.2)" />
<use xlink:href="#f2_2b" transform="matrix(10.4,0,0,10.4,435.4,580.2)" />
<use xlink:href="#f2_2a" transform="matrix(10.4,0,0,10.4,444.2,580.2)" />
<use xlink:href="#f2_1x" transform="matrix(10.4,0,0,10.4,460.3,580.2)" />
<use xlink:href="#f2_2e" transform="matrix(10.4,0,0,10.4,469.1,580.2)" />
<use xlink:href="#f2_23" transform="matrix(10.4,0,0,10.4,474.4,580.2)" />
<use xlink:href="#f2_21" transform="matrix(10.4,0,0,10.4,483.2,580.2)" />
<use xlink:href="#f2_2a" transform="matrix(10.4,0,0,10.4,492,580.2)" />
<use xlink:href="#f2_2g" transform="matrix(10.4,0,0,10.4,500.8,580.2)" />
<use xlink:href="#f2_25" transform="matrix(10.4,0,0,10.4,505.2,580.2)" />
<use xlink:href="#f2_2g" transform="matrix(10.4,0,0,10.4,508.7,580.2)" />
<use xlink:href="#f2_21" transform="matrix(10.4,0,0,10.4,513.1,580.2)" />
<use xlink:href="#f2_2b" transform="matrix(10.4,0,0,10.4,529.3,580.2)" />
<use xlink:href="#f2_2e" transform="matrix(10.4,0,0,10.4,538.1,580.2)" />
<use xlink:href="#f2_21" transform="matrix(10.4,0,0,10.4,543.4,580.2)" />
<use xlink:href="#f2_g" transform="matrix(10.4,0,0,10.4,552.2,580.2)" />
<use xlink:href="#f2_2a" transform="matrix(10.4,0,0,10.4,563.9,580.2)" />
<use xlink:href="#f2_1x" transform="matrix(10.4,0,0,10.4,572.7,580.2)" />
<use xlink:href="#f2_29" transform="matrix(10.4,0,0,10.4,581.5,580.2)" />
<use xlink:href="#f2_21" transform="matrix(10.4,0,0,10.4,595.1,580.2)" />
<use xlink:href="#f2_2g" transform="matrix(10.4,0,0,10.4,611.2,580.2)" />
<use xlink:href="#f2_24" transform="matrix(10.4,0,0,10.4,615.6,580.2)" />
<use xlink:href="#f2_21" transform="matrix(10.4,0,0,10.4,624.4,580.2)" />
<use xlink:href="#f2_2b" transform="matrix(10.4,0,0,10.4,97,601.1)" />
<use xlink:href="#f2_2k" transform="matrix(10.4,0,0,10.4,105.8,601.1)" />
<use xlink:href="#f2_25" transform="matrix(10.4,0,0,10.4,113.7,601.1)" />
<use xlink:href="#f2_20" transform="matrix(10.4,0,0,10.4,117.2,601.1)" />
<use xlink:href="#f2_25" transform="matrix(10.4,0,0,10.4,126,601.1)" />
<use xlink:href="#f2_2f" transform="matrix(10.4,0,0,10.4,129.5,601.1)" />
<use xlink:href="#f2_25" transform="matrix(10.4,0,0,10.4,137.5,601.1)" />
<use xlink:href="#f2_2a" transform="matrix(10.4,0,0,10.4,141,601.1)" />
<use xlink:href="#f2_23" transform="matrix(10.4,0,0,10.4,149.8,601.1)" />
<use xlink:href="#f2_1x" transform="matrix(10.4,0,0,10.4,163,601.1)" />
<use xlink:href="#f2_2a" transform="matrix(10.4,0,0,10.4,171.8,601.1)" />
<use xlink:href="#f2_20" transform="matrix(10.4,0,0,10.4,180.6,601.1)" />
<use xlink:href="#f2_2e" transform="matrix(10.4,0,0,10.4,193.8,601.1)" />
<use xlink:href="#f2_21" transform="matrix(10.4,0,0,10.4,199.1,601.1)" />
<use xlink:href="#f2_20" transform="matrix(10.4,0,0,10.4,207.9,601.1)" />
<use xlink:href="#f2_2h" transform="matrix(10.4,0,0,10.4,216.7,601.1)" />
<use xlink:href="#f2_1z" transform="matrix(10.4,0,0,10.4,225.5,601.1)" />
<use xlink:href="#f2_25" transform="matrix(10.4,0,0,10.4,233.4,601.1)" />
<use xlink:href="#f2_2a" transform="matrix(10.4,0,0,10.4,236.9,601.1)" />
<use xlink:href="#f2_23" transform="matrix(10.4,0,0,10.4,245.7,601.1)" />
<use xlink:href="#f2_1x" transform="matrix(10.4,0,0,10.4,258.9,601.1)" />
<use xlink:href="#f2_23" transform="matrix(10.4,0,0,10.4,267.7,601.1)" />
<use xlink:href="#f2_21" transform="matrix(10.4,0,0,10.4,276.5,601.1)" />
<use xlink:href="#f2_2a" transform="matrix(10.4,0,0,10.4,285.3,601.1)" />
<use xlink:href="#f2_2g" transform="matrix(10.4,0,0,10.4,294.1,601.1)" />
<use xlink:href="#f2_2f" transform="matrix(10.4,0,0,10.4,298.5,601.1)" />
<use xlink:href="#f2_i" transform="matrix(10.4,0,0,10.4,306.5,601.1)" />
<use xlink:href="#f2_1n" transform="matrix(10.4,0,0,10.4,315.3,601.1)" />
<use xlink:href="#f2_2e" transform="matrix(10.4,0,0,10.4,331.3,601.1)" />
<use xlink:href="#f2_25" transform="matrix(10.4,0,0,10.4,336.6,601.1)" />
<use xlink:href="#f2_2g" transform="matrix(10.4,0,0,10.4,340.1,601.1)" />
<use xlink:href="#f2_21" transform="matrix(10.4,0,0,10.4,344.5,601.1)" />
<use xlink:href="#f2_2g" transform="matrix(10.4,0,0,10.4,357.7,601.1)" />
<use xlink:href="#f2_24" transform="matrix(10.4,0,0,10.4,362.1,601.1)" />
<use xlink:href="#f2_21" transform="matrix(10.4,0,0,10.4,370.9,601.1)" />
<use xlink:href="#f2_1z" transform="matrix(10.4,0,0,10.4,384.1,601.1)" />
<use xlink:href="#f2_24" transform="matrix(10.4,0,0,10.4,392.1,601.1)" />
<use xlink:href="#f2_21" transform="matrix(10.4,0,0,10.4,400.9,601.1)" />
<use xlink:href="#f2_29" transform="matrix(10.4,0,0,10.4,409.7,601.1)" />
<use xlink:href="#f2_25" transform="matrix(10.4,0,0,10.4,423.3,601.1)" />
<use xlink:href="#f2_1z" transform="matrix(10.4,0,0,10.4,426.8,601.1)" />
<use xlink:href="#f2_1x" transform="matrix(10.4,0,0,10.4,434.8,601.1)" />
<use xlink:href="#f2_28" transform="matrix(10.4,0,0,10.4,443.6,601.1)" />
<use xlink:href="#f2_21" transform="matrix(10.4,0,0,10.4,451.5,601.1)" />
<use xlink:href="#f2_2d" transform="matrix(10.4,0,0,10.4,460.3,601.1)" />
<use xlink:href="#f2_2h" transform="matrix(10.4,0,0,10.4,469.1,601.1)" />
<use xlink:href="#f2_1x" transform="matrix(10.4,0,0,10.4,477.9,601.1)" />
<use xlink:href="#f2_2g" transform="matrix(10.4,0,0,10.4,486.7,601.1)" />
<use xlink:href="#f2_25" transform="matrix(10.4,0,0,10.4,491.1,601.1)" />
<use xlink:href="#f2_2b" transform="matrix(10.4,0,0,10.4,494.6,601.1)" />
<use xlink:href="#f2_2a" transform="matrix(10.4,0,0,10.4,503.2,601.1)" />
<use xlink:href="#f2_2f" transform="matrix(10.4,0,0,10.4,512,601.1)" />
<use xlink:href="#f2_2b" transform="matrix(10.4,0,0,10.4,524.5,601.1)" />
<use xlink:href="#f2_22" transform="matrix(10.4,0,0,10.4,533.3,601.1)" />
<use xlink:href="#f2_2g" transform="matrix(10.4,0,0,10.4,542.3,601.1)" />
<use xlink:href="#f2_24" transform="matrix(10.4,0,0,10.4,546.7,601.1)" />
<use xlink:href="#f2_21" transform="matrix(10.4,0,0,10.4,555.5,601.1)" />
<use xlink:href="#f2_2e" transform="matrix(10.4,0,0,10.4,568.7,601.1)" />
<use xlink:href="#f2_21" transform="matrix(10.4,0,0,10.4,574,601.1)" />
<use xlink:href="#f2_1x" transform="matrix(10.4,0,0,10.4,582.8,601.1)" />
<use xlink:href="#f2_1z" transform="matrix(10.4,0,0,10.4,591.6,601.1)" />
<use xlink:href="#f2_2g" transform="matrix(10.4,0,0,10.4,599.7,601.1)" />
<use xlink:href="#f2_25" transform="matrix(10.4,0,0,10.4,604.1,601.1)" />
<use xlink:href="#f2_2b" transform="matrix(10.4,0,0,10.4,607.5,601.1)" />
<use xlink:href="#f2_2a" transform="matrix(10.4,0,0,10.4,616.3,601.1)" />
<use xlink:href="#f2_2f" transform="matrix(10.4,0,0,10.4,625.1,601.1)" />
<use xlink:href="#f2_25" transform="matrix(10.4,0,0,10.4,97,622)" />
<use xlink:href="#f2_2a" transform="matrix(10.4,0,0,10.4,100.7,622)" />
<use xlink:href="#f2_2i" transform="matrix(10.4,0,0,10.4,109.7,622)" />
<use xlink:href="#f2_2b" transform="matrix(10.4,0,0,10.4,117.9,622)" />
<use xlink:href="#f2_28" transform="matrix(10.4,0,0,10.4,126.9,622)" />
<use xlink:href="#f2_2i" transform="matrix(10.4,0,0,10.4,130.5,622)" />
<use xlink:href="#f2_21" transform="matrix(10.4,0,0,10.4,138.6,622)" />
<use xlink:href="#f2_20" transform="matrix(10.4,0,0,10.4,147.8,622)" />
<use xlink:href="#f2_i" transform="matrix(10.4,0,0,10.4,156.8,622)" />
<use xlink:href="#f4_p" transform="matrix(12,0,0,12,677.6,1015.9)" />
</g>
<g fill="#0080FF" fill-opacity="0.5" >
<use xlink:href="#f0_1c" transform="matrix(38.1,0,0,38.1,182.9,1025.4)" />
<use xlink:href="#f0_21" transform="matrix(38.1,0,0,38.1,215.3,1025.4)" />
<use xlink:href="#f0_1x" transform="matrix(38.1,0,0,38.1,247.6,1025.4)" />
<use xlink:href="#f0_2e" transform="matrix(38.1,0,0,38.1,280,1025.4)" />
<use xlink:href="#f0_2a" transform="matrix(38.1,0,0,38.1,299.4,1025.4)" />
<use xlink:href="#f0_17" transform="matrix(38.1,0,0,38.1,331.8,1025.4)" />
<use xlink:href="#f0_2h" transform="matrix(38.1,0,0,38.1,377.1,1025.4)" />
<use xlink:href="#f0_25" transform="matrix(38.1,0,0,38.1,409.5,1025.4)" />
<use xlink:href="#f0_20" transform="matrix(38.1,0,0,38.1,422.4,1025.4)" />
<use xlink:href="#f0_21" transform="matrix(38.1,0,0,38.1,454.8,1025.4)" />
<use xlink:href="#f0_i" transform="matrix(38.1,0,0,38.1,487.2,1025.4)" />
<use xlink:href="#f0_25" transform="matrix(38.1,0,0,38.1,503.4,1025.4)" />
<use xlink:href="#f0_2a" transform="matrix(38.1,0,0,38.1,516.3,1025.4)" />
</g>
<defs>
<path d="M593,101c0,0,182,0,279,112c0,0,98,113,98,318c0,0,0,196,-98,308c0,0,-98,112,-277,112c0,0,-181,0,-279,-110c0,0,-99,-111,-99,-310c0,0,0,-198,100,-314c0,0,99,-116,276,-116Zm0,-115c0,0,-162,0,-279,65c0,0,-118,66,-180,190c0,0,-62,124,-62,290c0,0,0,252,138,394c0,0,138,142,385,142c0,0,160,0,278,-64c0,0,118,-64,180,-185c0,0,62,-122,62,-287c0,0,0,-165,-63,-289c0,0,-63,-124,-181,-190c0,0,-118,-66,-278,-66Z" 
id="f0_1f"
transform="scale(0.001,-0.001)" />

<path d="M106,0V635c0,0,0,141,-5,173H228c0,0,1,-4,2,-21c0,0,1,-16,2,-37c0,0,1,-22,2,-81h2c0,0,47,84,108,119c0,0,60,34,151,34c0,0,132,0,194,-66c0,0,61,-66,61,-218V0H615V512c0,0,0,80,-15,124c0,0,-16,44,-50,63c0,0,-35,20,-101,20c0,0,-97,0,-153,-67c0,0,-56,-66,-56,-184V0Z" 
id="f0_2a"
transform="scale(0.001,-0.001)" />

<path d="M103,0V1107H237V0Z" 
id="f0_28"
transform="scale(0.001,-0.001)" />

<path d="M102,0V808H236V0Zm0,979v128H236V979Z" 
id="f0_25"
transform="scale(0.001,-0.001)" />

<path d="M643,478c0,0,-11,128,-65,187c0,0,-54,59,-154,59c0,0,-98,0,-155,-66c0,0,-57,-65,-62,-180ZM431,-14c0,0,-179,0,-272,106c0,0,-94,107,-94,317c0,0,0,200,94,307c0,0,93,106,267,106c0,0,356,0,356,-429V375H206c0,0,0,-138,57,-213c0,0,58,-75,168,-75c0,0,87,0,140,35c0,0,53,35,71,88L760,177c0,0,-72,-191,-329,-191Z" 
id="f0_21"
transform="scale(0.001,-0.001)" />

<path d="M17,0L304,415L31,808H179L380,493L580,808H730L457,417L747,0H598L380,331L162,0Z" 
id="f0_2k"
transform="scale(0.001,-0.001)" />

<path d="M339,87c0,0,74,0,132,34c0,0,57,33,90,91c0,0,34,59,34,121v66L448,396c0,0,-95,-2,-144,-19c0,0,-49,-18,-75,-55c0,0,-26,-38,-26,-98c0,0,0,-65,35,-101c0,0,36,-36,101,-36ZM309,-14c0,0,-122,0,-183,64c0,0,-61,64,-61,176c0,0,0,125,82,192c0,0,83,67,266,72l182,3v44c0,0,0,98,-42,141c0,0,-42,43,-132,43c0,0,-90,0,-131,-31c0,0,-41,-31,-49,-98L101,604c0,0,34,218,323,218c0,0,153,0,229,-70c0,0,77,-69,77,-202V202c0,0,0,-59,16,-90c0,0,16,-30,60,-30c0,0,19,0,44,5V4C850,4,799,-7,746,-7c0,0,-75,0,-109,38c0,0,-33,40,-38,124h-4C595,155,543,62,475,24c0,0,-68,-38,-166,-38Z" 
id="f0_1x"
transform="scale(0.001,-0.001)" />

<path d="M106,0V635c0,0,0,141,-5,173H228c0,0,1,-4,2,-21c0,0,1,-16,2,-37c0,0,1,-22,2,-81h2c0,0,44,86,100,120c0,0,56,33,136,33c0,0,92,0,145,-36c0,0,54,-37,75,-117h2c0,0,42,82,101,117c0,0,59,36,143,36c0,0,123,0,178,-66c0,0,56,-67,56,-218V0H1039V512c0,0,0,117,-32,162c0,0,-32,45,-116,45c0,0,-88,0,-136,-66c0,0,-49,-65,-49,-185V0H573V512c0,0,0,117,-32,162c0,0,-32,45,-116,45c0,0,-86,0,-136,-66c0,0,-50,-66,-50,-185V0Z" 
id="f0_29"
transform="scale(0.001,-0.001)" />

<path d="M453,84c0,0,100,0,146,74c0,0,46,73,46,247c0,0,0,169,-46,241c0,0,-45,73,-145,73c0,0,-80,0,-125,-34c0,0,-45,-34,-68,-105c0,0,-24,-71,-24,-186c0,0,0,-159,51,-234c0,0,51,-76,165,-76ZM103,-316V643c0,0,0,124,-5,165H228c0,0,1,-3,3,-22c0,0,1,-18,3,-56c0,0,2,-38,2,-52h3c0,0,36,75,94,110c0,0,59,34,156,34c0,0,149,0,223,-100c0,0,74,-100,74,-314c0,0,0,-422,-297,-422c0,0,-187,0,-251,140h-4c0,0,3,-6,3,-126V-316Z" 
id="f0_2c"
transform="scale(0.001,-0.001)" />

<path d="M420,84c0,0,121,0,173,78c0,0,52,77,52,243c0,0,0,167,-50,243c0,0,-50,76,-167,76c0,0,-118,0,-170,-78c0,0,-53,-77,-53,-241c0,0,0,-160,52,-241c0,0,52,-80,163,-80Zm1,-98c0,0,-176,0,-267,107c0,0,-90,108,-90,312c0,0,0,417,362,417c0,0,185,0,272,-102c0,0,88,-101,88,-315c0,0,0,-212,-94,-316C692,89,599,-14,421,-14Z" 
id="f0_2b"
transform="scale(0.001,-0.001)" />

<path d="M278,-11c0,0,-162,0,-162,182V710H23v98h99l39,181h90V808H400V710H251V200c0,0,0,-58,19,-82c0,0,19,-23,66,-23c0,0,27,0,77,10V6c0,0,-66,-17,-135,-17Z" 
id="f0_2g"
transform="scale(0.001,-0.001)" />

<path d="M509,-14c0,0,-202,0,-317,71C192,57,77,129,44,274l213,35c0,0,21,-83,84,-121c0,0,63,-37,174,-37c0,0,230,0,230,139c0,0,0,45,-26,74c0,0,-27,29,-75,49c0,0,-48,19,-184,47c0,0,-118,27,-165,44c0,0,-46,17,-83,40c0,0,-37,22,-64,54c0,0,-26,32,-40,76c0,0,-15,43,-15,99c0,0,0,142,107,218c0,0,107,76,312,76c0,0,195,0,293,-61c0,0,98,-62,127,-203L718,774c0,0,-16,68,-66,103c0,0,-51,34,-145,34c0,0,-200,0,-200,-125c0,0,0,-41,22,-68c0,0,21,-26,63,-44c0,0,41,-18,169,-46c0,0,151,-32,217,-59c0,0,65,-27,103,-63c0,0,38,-37,58,-87c0,0,20,-50,20,-116c0,0,0,-154,-114,-236c0,0,-115,-81,-336,-81Z" 
id="f1_1j"
transform="scale(0.001,-0.001)" />

<path d="M703,434L599,736L567,838l-16,51l-4,-16c0,0,-8,-27,-18,-61c0,0,-11,-35,-128,-378ZM38,0L421,1051H681L1063,0H845L752,269H351L258,0Z" 
id="f1_11"
transform="scale(0.001,-0.001)" />

<path d="M298,-316c0,0,-117,169,-170,336c0,0,-52,167,-52,376c0,0,0,208,52,376c0,0,53,167,170,335H507c0,0,-118,-170,-171,-339c0,0,-53,-168,-53,-373c0,0,0,-203,53,-371c0,0,53,-166,171,-340Z" 
id="f1_c"
transform="scale(0.001,-0.001)" />

<path d="M102,0V1051H322V0Z" 
id="f1_19"
transform="scale(0.001,-0.001)" />

<path d="M1,-316c0,0,120,175,172,340c0,0,53,167,53,371c0,0,0,205,-54,374c0,0,-53,169,-171,338H211c0,0,118,-169,170,-337c0,0,52,-168,52,-374c0,0,0,-207,-52,-375c0,0,-52,-167,-170,-337Z" 
id="f1_d"
transform="scale(0.001,-0.001)" />

<path d="M357,0V881H17v170H917V881H577V0Z" 
id="f1_1k"
transform="scale(0.001,-0.001)" />

<path d="M401,0V431L26,1051H257L509,606l255,445H994L620,431V0Z" 
id="f1_1p"
transform="scale(0.001,-0.001)" />

<path d="M556,540c0,0,91,0,140,45c0,0,49,45,49,130c0,0,0,166,-195,166H322V540ZM102,0V1051H574c0,0,189,0,291,-87c0,0,102,-87,102,-246c0,0,0,-101,-46,-181c0,0,-47,-80,-133,-124c0,0,-86,-43,-205,-43H322V0Z" 
id="f1_1g"
transform="scale(0.001,-0.001)" />

<path d="M102,0V1051H929V881H322V617H883V447H322V170H959V0Z" 
id="f1_15"
transform="scale(0.001,-0.001)" />

<path d="M592,157c0,0,147,0,227,97c0,0,81,97,81,276c0,0,0,171,-81,267c0,0,-80,97,-226,97c0,0,-148,0,-228,-96c0,0,-81,-96,-81,-268c0,0,0,-173,82,-273c0,0,82,-100,226,-100ZM840,-300c0,0,-122,0,-201,68c0,0,-80,68,-129,225c0,0,-212,19,-330,161C180,154,63,297,63,530c0,0,0,253,140,395c0,0,140,142,390,142c0,0,250,0,391,-143c0,0,140,-144,140,-394c0,0,0,-210,-103,-350C1021,180,918,40,733,3c0,0,26,-73,72,-106c0,0,45,-33,128,-33c0,0,44,0,89,8l-1,-151c0,0,-94,-21,-181,-21Z" 
id="f1_1h"
transform="scale(0.001,-0.001)" />

<path d="M539,-14c0,0,-217,0,-332,105C207,91,92,197,92,394v657H312V411c0,0,0,-125,59,-189c0,0,59,-65,174,-65c0,0,118,0,182,68c0,0,63,67,63,194v632h220V405c0,0,0,-200,-123,-310C887,95,763,-14,539,-14Z" 
id="f1_1l"
transform="scale(0.001,-0.001)" />

<path d="M592,158c0,0,147,0,227,97c0,0,81,97,81,276c0,0,0,170,-81,266c0,0,-80,97,-226,97c0,0,-148,0,-228,-96c0,0,-81,-96,-81,-267c0,0,0,-173,83,-273c0,0,82,-100,225,-100Zm0,-172c0,0,-248,0,-389,145C203,131,63,277,63,531c0,0,0,252,140,394c0,0,140,142,390,142c0,0,250,0,391,-143c0,0,140,-144,140,-393c0,0,0,-165,-65,-289c0,0,-65,-125,-185,-191c0,0,-121,-65,-282,-65Z" 
id="f1_1f"
transform="scale(0.001,-0.001)" />

<path d="M102,0V1051H354L818,235c0,0,-13,113,-13,205v611h195V0H742L284,809c0,0,14,-117,14,-189V0Z" 
id="f1_1e"
transform="scale(0.001,-0.001)" />

<path d="M421,-17c0,0,-169,0,-269,77C152,60,52,138,35,285l213,19c0,0,21,-151,173,-151c0,0,75,0,117,37c0,0,42,37,42,114c0,0,0,70,-51,107c0,0,-51,38,-151,38H305V618h69c0,0,90,0,135,37c0,0,46,37,46,106c0,0,0,65,-36,102c0,0,-36,38,-106,38c0,0,-65,0,-105,-36c0,0,-39,-36,-45,-102L53,778c0,0,16,135,113,212c0,0,96,77,251,77c0,0,165,0,258,-75c0,0,93,-74,93,-205c0,0,0,-99,-58,-162c0,0,-58,-64,-167,-85v-3c0,0,121,-14,186,-79c0,0,65,-65,65,-167c0,0,0,-147,-96,-228c0,0,-97,-80,-277,-80Z" 
id="f1_n"
transform="scale(0.001,-0.001)" />

<path d="M60,305V487H448V305Z" 
id="f1_h"
transform="scale(0.001,-0.001)" />

<path d="M102,0V1051H397L585,463l16,-56L637,266l47,168l193,617h293V0H975V637c0,0,0,22,0,43c0,0,1,22,7,186c0,0,-52,-201,-78,-280L715,0H558L369,586L289,866c0,0,9,-173,9,-229V0Z" 
id="f1_1d"
transform="scale(0.001,-0.001)" />

<path d="M610,569c0,0,93,0,140,42c0,0,48,42,48,118c0,0,0,152,-194,152H322V569ZM102,0V1051H627c0,0,188,0,291,-81c0,0,102,-81,102,-232c0,0,0,-111,-63,-191c0,0,-63,-80,-169,-106L1072,0H824L580,399H322V0Z" 
id="f1_1i"
transform="scale(0.001,-0.001)" />

<path d="M102,0V1051H322V574l474,477h257L604,606L1089,0H830L452,483L322,383V0Z" 
id="f1_1b"
transform="scale(0.001,-0.001)" />

<path d="M410,514L298,707L181,516L93,570L233,755L25,809L58,909L257,829l-9,222H350L340,831l197,77l34,-99L360,755L498,568L410,514Z" 
id="f2_e"
transform="scale(0.001,-0.001)" />

<path d="M530,344V900c0,0,-1,-5,-20,-40c0,0,-20,-35,-30,-49L211,414L171,359L159,344ZM530,0V239H35V343l481,708H657V344H805V239H657V0Z" 
id="f2_o"
transform="scale(0.001,-0.001)" />

<path d="M424,96c0,0,119,0,174,106c0,0,55,106,55,325c0,0,0,227,-52,329c0,0,-53,102,-174,102c0,0,-123,0,-177,-100c0,0,-55,-101,-55,-331c0,0,0,-224,55,-328c0,0,55,-103,174,-103ZM423,-14c0,0,-181,0,-272,137c0,0,-91,138,-91,403c0,0,0,271,88,406c0,0,88,135,279,135c0,0,186,0,275,-137c0,0,88,-136,88,-404c0,0,0,-263,-93,-402c0,0,-93,-138,-274,-138Z" 
id="f2_k"
transform="scale(0.001,-0.001)" />

<path d="M140,0V163H285V0Z" 
id="f2_i"
transform="scale(0.001,-0.001)" />

<path d="M515,-14c0,0,-384,0,-446,266l138,28c0,0,24,-95,102,-139c0,0,77,-44,211,-44c0,0,138,0,213,47c0,0,75,47,75,139c0,0,0,51,-24,83c0,0,-23,33,-66,53c0,0,-42,21,-101,35c0,0,-59,15,-131,31c0,0,-124,28,-189,55c0,0,-64,28,-102,62c0,0,-37,34,-57,79c0,0,-19,46,-19,105c0,0,0,135,103,208c0,0,103,73,296,73c0,0,179,0,273,-55c0,0,95,-55,133,-187L784,800c0,0,-23,84,-88,122c0,0,-65,37,-180,37c0,0,-126,0,-192,-42c0,0,-67,-41,-67,-124c0,0,0,-48,26,-80c0,0,26,-32,74,-54c0,0,49,-22,194,-54c0,0,48,-11,96,-23c0,0,48,-11,92,-27c0,0,44,-16,83,-38c0,0,38,-22,66,-53c0,0,29,-31,45,-74c0,0,16,-42,16,-100c0,0,0,-145,-114,-225c0,0,-114,-79,-320,-79Z" 
id="f2_1j"
transform="scale(0.001,-0.001)" />

<path d="M278,-11c0,0,-162,0,-162,182V710H23v98h99l39,181h90V808H400V710H251V200c0,0,0,-58,19,-82c0,0,19,-23,66,-23c0,0,27,0,77,10V6c0,0,-66,-17,-135,-17Z" 
id="f2_2g"
transform="scale(0.001,-0.001)" />

<path d="M339,87c0,0,74,0,132,34c0,0,57,33,90,91c0,0,34,59,34,121v66L448,396c0,0,-95,-2,-144,-19c0,0,-49,-18,-75,-55c0,0,-26,-38,-26,-98c0,0,0,-65,35,-101c0,0,36,-36,101,-36ZM309,-14c0,0,-122,0,-183,64c0,0,-61,64,-61,176c0,0,0,125,82,192c0,0,83,67,266,72l182,3v44c0,0,0,98,-42,141c0,0,-42,43,-132,43c0,0,-90,0,-131,-31c0,0,-41,-31,-49,-98L101,604c0,0,34,218,323,218c0,0,153,0,229,-70c0,0,77,-69,77,-202V202c0,0,0,-59,16,-90c0,0,16,-30,60,-30c0,0,19,0,44,5V4C850,4,799,-7,746,-7c0,0,-75,0,-109,38c0,0,-33,40,-38,124h-4C595,155,543,62,475,24c0,0,-68,-38,-166,-38Z" 
id="f2_1x"
transform="scale(0.001,-0.001)" />

<path d="M643,478c0,0,-11,128,-65,187c0,0,-54,59,-154,59c0,0,-98,0,-155,-66c0,0,-57,-65,-62,-180ZM431,-14c0,0,-179,0,-272,106c0,0,-94,107,-94,317c0,0,0,200,94,307c0,0,93,106,267,106c0,0,356,0,356,-429V375H206c0,0,0,-138,57,-213c0,0,58,-75,168,-75c0,0,87,0,140,35c0,0,53,35,71,88L760,177c0,0,-72,-191,-329,-191Z" 
id="f2_21"
transform="scale(0.001,-0.001)" />

<path d="M615,0V512c0,0,0,85,-15,126c0,0,-16,42,-52,61c0,0,-36,20,-99,20c0,0,-95,0,-152,-66c0,0,-57,-66,-57,-177V0H106V1107H240V819c0,0,0,-45,-2,-94c0,0,-3,-48,-4,-56h2c0,0,44,79,105,116c0,0,60,37,154,37c0,0,131,0,193,-65c0,0,62,-65,62,-219V0Z" 
id="f2_24"
transform="scale(0.001,-0.001)" />

<path d="M453,84c0,0,100,0,146,74c0,0,46,73,46,247c0,0,0,169,-46,241c0,0,-45,73,-145,73c0,0,-80,0,-125,-34c0,0,-45,-34,-68,-105c0,0,-24,-71,-24,-186c0,0,0,-159,51,-234c0,0,51,-76,165,-76ZM103,-316V643c0,0,0,124,-5,165H228c0,0,1,-3,3,-22c0,0,1,-18,3,-56c0,0,2,-38,2,-52h3c0,0,36,75,94,110c0,0,59,34,156,34c0,0,149,0,223,-100c0,0,74,-100,74,-314c0,0,0,-422,-297,-422c0,0,-187,0,-251,140h-4c0,0,3,-6,3,-126V-316Z" 
id="f2_2c"
transform="scale(0.001,-0.001)" />

<path d="M106,0V620c0,0,0,85,-5,188H228c0,0,6,-138,6,-165h3c0,0,32,103,74,141c0,0,42,38,118,38c0,0,27,0,54,-7V692c0,0,-26,7,-71,7c0,0,-84,0,-128,-72c0,0,-44,-72,-44,-206V0Z" 
id="f2_2e"
transform="scale(0.001,-0.001)" />

<path d="M102,0V808H236V0Zm0,979v128H236V979Z" 
id="f2_25"
transform="scale(0.001,-0.001)" />

<path d="M106,0V635c0,0,0,141,-5,173H228c0,0,1,-4,2,-21c0,0,1,-16,2,-37c0,0,1,-22,2,-81h2c0,0,47,84,108,119c0,0,60,34,151,34c0,0,132,0,194,-66c0,0,61,-66,61,-218V0H615V512c0,0,0,80,-15,124c0,0,-16,44,-50,63c0,0,-35,20,-101,20c0,0,-97,0,-153,-67c0,0,-56,-66,-56,-184V0Z" 
id="f2_2a"
transform="scale(0.001,-0.001)" />

<path d="M413,-14c0,0,-170,0,-259,106c0,0,-89,107,-89,313c0,0,0,203,89,310c0,0,90,107,257,107c0,0,124,0,206,-64c0,0,81,-64,102,-177L581,571c0,0,-10,67,-53,106c0,0,-42,40,-121,40c0,0,-106,0,-154,-71c0,0,-48,-71,-48,-239c0,0,0,-161,51,-238c0,0,51,-78,153,-78c0,0,71,0,120,39c0,0,48,39,59,119l136,-9C724,240,708,124,624,55c0,0,-83,-69,-211,-69Z" 
id="f2_1z"
transform="scale(0.001,-0.001)" />

<path d="M103,0V1107H237V0Z" 
id="f2_28"
transform="scale(0.001,-0.001)" />

<path d="M381,-14c0,0,-150,0,-232,49C149,35,67,85,43,190l118,23c0,0,17,-65,71,-96c0,0,54,-30,149,-30c0,0,102,0,150,31c0,0,47,32,47,95c0,0,0,47,-33,77c0,0,-33,30,-106,49l-96,26c0,0,-115,30,-164,58c0,0,-49,29,-77,70c0,0,-27,41,-27,101c0,0,0,110,78,168c0,0,79,57,230,57c0,0,133,0,212,-47c0,0,79,-47,100,-150L574,607c0,0,-12,53,-60,82c0,0,-49,29,-131,29c0,0,-91,0,-135,-28c0,0,-43,-27,-43,-83c0,0,0,-34,18,-57c0,0,18,-22,53,-38c0,0,35,-15,148,-43c0,0,106,-27,153,-50c0,0,47,-22,75,-50c0,0,27,-27,42,-64c0,0,15,-36,15,-82c0,0,0,-114,-86,-176c0,0,-87,-61,-242,-61Z" 
id="f2_2f"
transform="scale(0.001,-0.001)" />

<path d="M420,84c0,0,121,0,173,78c0,0,52,77,52,243c0,0,0,167,-50,243c0,0,-50,76,-167,76c0,0,-118,0,-170,-78c0,0,-53,-77,-53,-241c0,0,0,-160,52,-241c0,0,52,-80,163,-80Zm1,-98c0,0,-176,0,-267,107c0,0,-90,108,-90,312c0,0,0,417,362,417c0,0,185,0,272,-102c0,0,88,-101,88,-315c0,0,0,-212,-94,-316C692,89,599,-14,421,-14Z" 
id="f2_2b"
transform="scale(0.001,-0.001)" />

<path d="M135,0V710H22v98H135v91c0,0,0,110,49,158c0,0,48,49,148,49c0,0,56,0,95,-9V994c0,0,-34,6,-60,6c0,0,-51,0,-75,-26c0,0,-23,-26,-23,-94V808H427V710H269V0Z" 
id="f2_22"
transform="scale(0.001,-0.001)" />

<path d="M398,93c0,0,63,0,112,37c0,0,49,38,76,107c0,0,27,70,27,166c0,0,0,99,-27,170c0,0,-27,71,-75,109c0,0,-49,38,-111,38c0,0,-103,0,-150,-75c0,0,-47,-75,-47,-242c0,0,0,-165,44,-238c0,0,44,-72,151,-72Zm11,-409c0,0,-132,0,-211,52c0,0,-78,52,-100,147l135,20c0,0,13,-56,59,-87c0,0,46,-30,121,-30c0,0,200,0,200,234V150h-1C612,150,574,72,507,33C507,33,441,-5,352,-5c0,0,-148,0,-218,98c0,0,-70,98,-70,309c0,0,0,214,75,316c0,0,75,101,228,101c0,0,86,0,149,-39c0,0,63,-39,97,-111h2c0,0,0,22,3,78c0,0,3,55,6,61H751c0,0,-4,-41,-4,-167V23c0,0,0,-339,-338,-339Z" 
id="f2_23"
transform="scale(0.001,-0.001)" />

<path d="M106,0V635c0,0,0,141,-5,173H228c0,0,1,-4,2,-21c0,0,1,-16,2,-37c0,0,1,-22,2,-81h2c0,0,44,86,100,120c0,0,56,33,136,33c0,0,92,0,145,-36c0,0,54,-37,75,-117h2c0,0,42,82,101,117c0,0,59,36,143,36c0,0,123,0,178,-66c0,0,56,-67,56,-218V0H1039V512c0,0,0,117,-32,162c0,0,-32,45,-116,45c0,0,-88,0,-136,-66c0,0,-49,-65,-49,-185V0H573V512c0,0,0,117,-32,162c0,0,-32,45,-116,45c0,0,-86,0,-136,-66c0,0,-50,-66,-50,-185V0Z" 
id="f2_29"
transform="scale(0.001,-0.001)" />

<path d="M453,84c0,0,101,0,146,75c0,0,46,75,46,244c0,0,0,169,-45,243c0,0,-45,73,-146,73c0,0,-113,0,-165,-78c0,0,-52,-78,-52,-246c0,0,0,-159,51,-235c0,0,51,-76,165,-76Zm36,-98c0,0,-92,0,-153,33c0,0,-61,33,-99,107h-1c0,0,0,-24,-3,-71c0,0,-3,-48,-5,-55H98c0,0,5,40,5,166v941H237V792c0,0,0,-49,-3,-114h3c0,0,38,77,99,111c0,0,62,33,153,33c0,0,153,0,225,-103c0,0,72,-103,72,-311c0,0,0,-422,-297,-422Z" 
id="f2_1y"
transform="scale(0.001,-0.001)" />

<path d="M142,-316c0,0,-55,0,-92,8v101c0,0,28,-4,63,-4c0,0,125,0,198,184L324,4L4,808H147L317,362c0,0,4,-11,9,-25c0,0,5,-15,34,-98c0,0,28,-83,30,-92l52,147L619,808H761L451,0c0,0,-50,-128,-94,-191c0,0,-43,-63,-96,-94c0,0,-52,-31,-119,-31Z" 
id="f2_2l"
transform="scale(0.001,-0.001)" />

<path d="M224,0L-1,808H131L267,259c0,0,5,-18,32,-147l13,55L480,808H624L765,253L800,112l23,103L976,808h131L876,0H720L579,571L552,697c0,0,-7,-33,-21,-96C531,601,517,537,379,0Z" 
id="f2_2j"
transform="scale(0.001,-0.001)" />

<path d="M395,89c0,0,115,0,166,79c0,0,51,79,51,246c0,0,0,160,-51,235c0,0,-51,75,-164,75c0,0,-102,0,-147,-75c0,0,-45,-75,-45,-244c0,0,0,-170,45,-243c0,0,45,-73,145,-73ZM361,-14c0,0,-153,0,-225,102c0,0,-72,103,-72,312c0,0,0,422,297,422c0,0,92,0,153,-33c0,0,61,-34,98,-107h2l-2,90v335H747V166c0,0,0,-126,4,-166H623c0,0,-2,12,-5,55c0,0,-3,44,-3,75h-3c0,0,-37,-78,-98,-111c0,0,-62,-33,-153,-33Z" 
id="f2_20"
transform="scale(0.001,-0.001)" />

<path d="M370,-316c0,0,-141,152,-208,323C162,7,95,179,95,394v3c0,0,0,215,67,387c0,0,68,171,208,323H500c0,0,-140,-155,-205,-330c0,0,-65,-175,-65,-382c0,0,0,-207,64,-381c0,0,65,-172,206,-330Z" 
id="f2_c"
transform="scale(0.001,-0.001)" />

<path d="M9,-316c0,0,140,157,205,329c0,0,65,174,65,382c0,0,0,208,-65,382c0,0,-66,174,-205,330H139c0,0,141,-152,208,-324c0,0,67,-172,67,-386v-3c0,0,0,-216,-67,-388c0,0,-68,-170,-208,-322Z" 
id="f2_d"
transform="scale(0.001,-0.001)" />

<path d="M48,0V106L689,936H103v115H850V948L210,115H885V0Z" 
id="f2_1q"
transform="scale(0.001,-0.001)" />

<path d="M125,0V1051H923V936H268V597H878V482H268V115H953V0Z" 
id="f2_15"
transform="scale(0.001,-0.001)" />

<path d="M436,0L7,1051H157L448,311L510,125l63,186l289,740h150L583,0Z" 
id="f2_1m"
transform="scale(0.001,-0.001)" />

<path d="M355,-14c0,0,-133,0,-194,65c0,0,-62,66,-62,219V808H234V296c0,0,0,-80,16,-124c0,0,16,-44,50,-64c0,0,34,-19,101,-19c0,0,97,0,153,66c0,0,55,67,55,185V808H744V172c0,0,0,-141,4,-172H621c0,0,0,4,-1,20c0,0,-1,17,-2,38c0,0,-1,21,-3,80h-2C613,138,567,55,506,20c0,0,-61,-34,-151,-34Z" 
id="f2_2h"
transform="scale(0.001,-0.001)" />

<path d="M116,0V114H384V923L147,754V881l248,170H519V114H775V0Z" 
id="f2_l"
transform="scale(0.001,-0.001)" />

<path d="M125,0V1051H268V606H836v445H979V0H836V487H268V0Z" 
id="f2_18"
transform="scale(0.001,-0.001)" />

<path d="M327,0V150H472V0Zm6,281c0,0,1,51,16,90c0,0,14,39,37,69c0,0,24,30,53,53c0,0,29,24,59,45c0,0,29,21,58,42c0,0,29,22,51,48c0,0,23,26,36,59c0,0,14,33,14,77c0,0,0,85,-58,134c0,0,-57,49,-162,49c0,0,-104,0,-165,-52c0,0,-62,-52,-72,-143L63,761c0,0,19,148,116,227c0,0,97,79,257,79c0,0,166,0,261,-79c0,0,96,-79,96,-218c0,0,0,-56,-16,-100c0,0,-17,-44,-47,-82c0,0,-31,-37,-100,-88L570,456c0,0,-54,-39,-80,-82c0,0,-26,-43,-27,-93Z" 
id="f2_z"
transform="scale(0.001,-0.001)" />

<path d="M316,0L7,1051H155L344,383c0,0,33,-125,62,-258c0,0,18,82,41,179c0,0,24,97,207,747H791L974,397c0,0,41,-160,65,-272l7,26c0,0,20,86,33,140c0,0,12,54,209,760h149L1127,0H957L775,668c0,0,-18,62,-52,224c0,0,-20,-86,-33,-145C690,747,677,689,486,0Z" 
id="f2_1n"
transform="scale(0.001,-0.001)" />

<path d="M17,0L304,415L31,808H179L380,493L580,808H730L457,417L747,0H598L380,331L162,0Z" 
id="f2_2k"
transform="scale(0.001,-0.001)" />

<path d="M77,0V95c0,0,38,87,93,154c0,0,55,67,115,121c0,0,60,54,120,100c0,0,59,46,107,93c0,0,47,46,77,97c0,0,29,50,29,114c0,0,0,87,-50,135c0,0,-51,47,-141,47c0,0,-86,0,-142,-46c0,0,-55,-47,-65,-131L83,791c0,0,15,126,107,201c0,0,92,75,237,75c0,0,159,0,244,-75c0,0,85,-75,85,-213c0,0,0,-61,-28,-122c0,0,-28,-60,-83,-120c0,0,-55,-61,-211,-188c0,0,-86,-70,-136,-126c0,0,-51,-56,-73,-109H773V0Z" 
id="f2_m"
transform="scale(0.001,-0.001)" />

<path d="M125,0V1051H291L859,150c0,0,-9,146,-9,212v689H979V0H807L245,895l3,-72l4,-125V0Z" 
id="f2_1e"
transform="scale(0.001,-0.001)" />

<path d="M0,336V439H849V336Z" 
id="f2_1jz"
transform="scale(0.001,-0.001)" />

<path d="M590,-14c0,0,-159,0,-275,65c0,0,-116,66,-177,189c0,0,-60,123,-60,291c0,0,0,251,135,393c0,0,136,143,376,143c0,0,168,0,281,-66c0,0,112,-66,165,-195L900,762c0,0,-36,92,-117,141c0,0,-81,48,-192,48c0,0,-175,0,-272,-112c0,0,-97,-112,-97,-308c0,0,0,-193,101,-311c0,0,101,-117,274,-117c0,0,221,0,332,218l116,-58c0,0,-65,-136,-182,-207c0,0,-118,-70,-273,-70Z" 
id="f2_13"
transform="scale(0.001,-0.001)" />

<path d="M606,-14c0,0,-164,0,-284,65c0,0,-119,66,-182,189c0,0,-63,123,-63,291c0,0,0,255,137,396c0,0,137,140,386,140c0,0,174,0,283,-59c0,0,109,-59,168,-189L915,779c0,0,-44,90,-123,131c0,0,-79,41,-196,41c0,0,-182,0,-278,-110c0,0,-96,-110,-96,-310c0,0,0,-200,102,-315c0,0,102,-115,282,-115c0,0,103,0,193,31c0,0,89,31,144,85V407H629V526h445V164c0,0,-83,-85,-205,-132c0,0,-121,-46,-263,-46Z" 
id="f2_17"
transform="scale(0.001,-0.001)" />

<path d="M109,-316V1107H413v-96H239V-220H413v-96Z" 
id="f2_1r"
transform="scale(0.001,-0.001)" />

<path d="M107,0V627c0,0,0,65,-2,106c0,0,-2,42,-4,75H301c0,0,2,-15,6,-77c0,0,3,-61,3,-85h3c0,0,43,93,107,135c0,0,64,41,153,41c0,0,128,0,197,-79c0,0,68,-79,68,-231V0H630V452c0,0,0,213,-144,213c0,0,-76,0,-123,-65c0,0,-47,-66,-47,-168V0Z" 
id="f1_2a"
transform="scale(0.001,-0.001)" />

<path d="M426,-14c0,0,-166,0,-255,52C171,38,83,90,54,201l184,28c0,0,16,-57,54,-81c0,0,38,-24,134,-24c0,0,88,0,128,22c0,0,41,23,41,70c0,0,0,39,-33,62c0,0,-32,23,-110,38c0,0,-177,35,-239,65c0,0,-62,31,-95,79c0,0,-32,48,-32,118c0,0,0,115,89,180c0,0,89,64,252,64c0,0,144,0,232,-56c0,0,88,-56,109,-162L583,585c0,0,-9,49,-44,74c0,0,-35,24,-112,24c0,0,-74,0,-111,-19c0,0,-38,-19,-38,-64c0,0,0,-35,29,-55c0,0,29,-21,97,-34c0,0,94,-20,168,-40c0,0,73,-21,118,-49c0,0,44,-28,71,-73c0,0,26,-44,26,-113c0,0,0,-117,-96,-184c0,0,-96,-66,-265,-66Z" 
id="f1_2f"
transform="scale(0.001,-0.001)" />

<path d="M104,0V228H319V0Z" 
id="f1_i"
transform="scale(0.001,-0.001)" />

<path d="M147,0V209H362V0Zm0,562V771H362V562Z" 
id="f1_u"
transform="scale(0.001,-0.001)" />

<path d="M502,114c0,0,116,0,203,51c0,0,88,51,135,146c0,0,47,96,47,225c0,0,0,196,-107,298c0,0,-107,103,-310,103H268V114ZM125,0V1051H473c0,0,267,0,412,-134c0,0,145,-134,145,-381c0,0,0,-162,-63,-284C967,252,903,130,787,65C787,65,671,0,518,0Z" 
id="f2_14"
transform="scale(0.001,-0.001)" />

<path d="M137,-195c0,0,70,102,70,195H142V163H287V38c0,0,0,-78,-14,-131c0,0,-14,-53,-44,-102Z" 
id="f2_g"
transform="scale(0.001,-0.001)" />

<path d="M125,0V1051H268V115H799V0Z" 
id="f2_1c"
transform="scale(0.001,-0.001)" />

<path d="M395,89c0,0,115,0,166,81c0,0,51,82,51,244c0,0,0,157,-51,233c0,0,-51,77,-164,77c0,0,-102,0,-147,-77c0,0,-45,-76,-45,-242c0,0,0,-170,45,-243c0,0,45,-73,145,-73ZM612,-316V11l3,122h-1c0,0,-40,-80,-99,-114c0,0,-59,-33,-154,-33c0,0,-154,0,-225,103c0,0,-72,104,-72,311c0,0,0,422,297,422c0,0,92,0,151,-32c0,0,60,-33,100,-108h2c0,0,0,22,3,77c0,0,3,55,6,58H752c0,0,-5,-44,-5,-220V-316Z" 
id="f2_2d"
transform="scale(0.001,-0.001)" />

<path d="M137,-195c0,0,70,102,70,195H142V154H287V38c0,0,0,-78,-14,-131c0,0,-14,-53,-44,-102Zm5,848V808H287V653Z" 
id="f2_v"
transform="scale(0.001,-0.001)" />

<path d="M125,0V1051H313L592,322c0,0,15,-44,29,-94c0,0,14,-50,18,-73c0,0,6,30,25,91c0,0,19,61,26,76l275,729h182V0H1019V701c0,0,0,117,7,224c0,0,-37,-133,-66,-209L689,0H589L313,716L272,843l-25,82l2,-83l3,-141V0Z" 
id="f2_1d"
transform="scale(0.001,-0.001)" />

<path d="M557,522c0,0,238,0,238,211c0,0,0,204,-244,204H268V522ZM125,0V1051H568c0,0,176,0,273,-83c0,0,97,-82,97,-233c0,0,0,-149,-97,-237c0,0,-97,-88,-264,-88H268V0Z" 
id="f2_1g"
transform="scale(0.001,-0.001)" />

<path d="M708,418L573,765c0,0,-21,52,-42,117l-20,62l-7,-21c0,0,-18,-62,-55,-159L315,418ZM3,0L432,1051H594L1016,0H871L750,307H272L151,0Z" 
id="f2_11"
transform="scale(0.001,-0.001)" />

<path d="M103,0V1107H237V416L592,808H749L421,461L766,0H609L336,369L237,287V0Z" 
id="f2_27"
transform="scale(0.001,-0.001)" />

<path d="M12,-316v96H186V1011H12v96H316V-316Z" 
id="f2_1t"
transform="scale(0.001,-0.001)" />

<path d="M395,0V936H34v115H898V936H537V0Z" 
id="f2_1k"
transform="scale(0.001,-0.001)" />

<path d="M298,0L5,808H148L326,282c0,0,10,-29,51,-176l27,87l29,88L616,808H759L457,0Z" 
id="f2_2i"
transform="scale(0.001,-0.001)" />

<path d="M545,114c0,0,130,0,190,49c0,0,59,48,59,144c0,0,0,186,-261,186H268V114ZM507,604c0,0,114,0,171,43c0,0,56,43,56,132c0,0,0,85,-58,121c0,0,-58,37,-169,37H268V604ZM125,0V1051H507c0,0,370,0,370,-255c0,0,0,-93,-52,-157c0,0,-52,-63,-148,-85c0,0,126,-15,194,-84c0,0,67,-69,67,-174c0,0,0,-140,-102,-218C836,78,734,0,552,0Z" 
id="f2_12"
transform="scale(0.001,-0.001)" />

<path d="M391,134V454H75V562H391V882H501V562H817V454H501V134Z" 
id="f2_f"
transform="scale(0.001,-0.001)" />

<path d="M593,101c0,0,182,0,279,112c0,0,98,113,98,318c0,0,0,196,-98,308c0,0,-98,112,-277,112c0,0,-181,0,-279,-110c0,0,-99,-111,-99,-310c0,0,0,-198,100,-314c0,0,99,-116,276,-116Zm0,-115c0,0,-162,0,-279,65c0,0,-118,66,-180,190c0,0,-62,124,-62,290c0,0,0,252,138,394c0,0,138,142,385,142c0,0,160,0,278,-64c0,0,118,-64,180,-185c0,0,62,-122,62,-287c0,0,0,-165,-63,-289c0,0,-63,-124,-181,-190c0,0,-118,-66,-278,-66Z" 
id="f2_1f"
transform="scale(0.001,-0.001)" />

<path d="M968,-20c0,0,42,100,87,170c0,0,45,70,144,184H56v73H1199c0,0,-106,122,-148,189c0,0,-43,67,-83,166h60c0,0,87,-108,217,-218c0,0,130,-110,206,-154V349c0,0,-99,-56,-217,-159c0,0,-117,-102,-206,-210Z" 
id="f3_34"
transform="scale(0.001,-0.001)" />

<path d="M75,256V367H817V256Zm0,383V749H817V639Z" 
id="f2_x"
transform="scale(0.001,-0.001)" />

<path d="M413,-14c0,0,-147,0,-238,64c0,0,-90,64,-114,185l136,16c0,0,42,-155,219,-155c0,0,108,0,169,65c0,0,61,65,61,179c0,0,0,98,-62,159c0,0,-61,61,-165,61c0,0,-55,0,-102,-17c0,0,-47,-17,-94,-58H92l35,566H724V937H249L229,604c0,0,87,67,217,67c0,0,155,0,247,-91c0,0,93,-91,93,-237c0,0,0,-167,-99,-262c0,0,-99,-95,-274,-95Z" 
id="f2_p"
transform="scale(0.001,-0.001)" />

<path d="M141,0V1051H283V0Z" 
id="f2_19"
transform="scale(0.001,-0.001)" />

<path d="M415,-18c0,0,-149,0,-244,83c0,0,-94,84,-107,222l140,11c0,0,16,-103,73,-154c0,0,56,-52,137,-52c0,0,98,0,165,73c0,0,66,73,66,194c0,0,0,115,-64,182c0,0,-64,66,-169,66c0,0,-65,0,-117,-29c0,0,-52,-30,-82,-77L87,517l106,562H736V951H300L241,657c0,0,99,69,207,69c0,0,143,0,242,-100c0,0,98,-99,98,-255c0,0,0,-149,-86,-257C702,114,597,-18,415,-18Z" 
id="f4_p"
transform="scale(0.001,-0.001)" />

<path d="M125,0V1051H268V115H799V0Z" 
id="f0_1c"
transform="scale(0.001,-0.001)" />

<path d="M106,0V620c0,0,0,85,-5,188H228c0,0,6,-138,6,-165h3c0,0,32,103,74,141c0,0,42,38,118,38c0,0,27,0,54,-7V692c0,0,-26,7,-71,7c0,0,-84,0,-128,-72c0,0,-44,-72,-44,-206V0Z" 
id="f0_2e"
transform="scale(0.001,-0.001)" />

<path d="M606,-14c0,0,-164,0,-284,65c0,0,-119,66,-182,189c0,0,-63,123,-63,291c0,0,0,255,137,396c0,0,137,140,386,140c0,0,174,0,283,-59c0,0,109,-59,168,-189L915,779c0,0,-44,90,-123,131c0,0,-79,41,-196,41c0,0,-182,0,-278,-110c0,0,-96,-110,-96,-310c0,0,0,-200,102,-315c0,0,102,-115,282,-115c0,0,103,0,193,31c0,0,89,31,144,85V407H629V526h445V164c0,0,-83,-85,-205,-132c0,0,-121,-46,-263,-46Z" 
id="f0_17"
transform="scale(0.001,-0.001)" />

<path d="M355,-14c0,0,-133,0,-194,65c0,0,-62,66,-62,219V808H234V296c0,0,0,-80,16,-124c0,0,16,-44,50,-64c0,0,34,-19,101,-19c0,0,97,0,153,66c0,0,55,67,55,185V808H744V172c0,0,0,-141,4,-172H621c0,0,0,4,-1,20c0,0,-1,17,-2,38c0,0,-1,21,-3,80h-2C613,138,567,55,506,20c0,0,-61,-34,-151,-34Z" 
id="f0_2h"
transform="scale(0.001,-0.001)" />

<path d="M395,89c0,0,115,0,166,79c0,0,51,79,51,246c0,0,0,160,-51,235c0,0,-51,75,-164,75c0,0,-102,0,-147,-75c0,0,-45,-75,-45,-244c0,0,0,-170,45,-243c0,0,45,-73,145,-73ZM361,-14c0,0,-153,0,-225,102c0,0,-72,103,-72,312c0,0,0,422,297,422c0,0,92,0,153,-33c0,0,61,-34,98,-107h2l-2,90v335H747V166c0,0,0,-126,4,-166H623c0,0,-2,12,-5,55c0,0,-3,44,-3,75h-3c0,0,-37,-78,-98,-111c0,0,-62,-33,-153,-33Z" 
id="f0_20"
transform="scale(0.001,-0.001)" />

<path d="M140,0V163H285V0Z" 
id="f0_i"
transform="scale(0.001,-0.001)" />


</defs>
</svg>