<?xml version="1.0" encoding="UTF-8" standalone="no"?>
<!DOCTYPE svg PUBLIC "-//W3C//DTD SVG 1.1//EN"
"http://www.w3.org/Graphics/SVG/1.1/DTD/svg11.dtd">
<svg viewBox="0 0 935 1210" version="1.1" xmlns="http://www.w3.org/2000/svg" xmlns:xlink="http://www.w3.org/1999/xlink">
<defs>
<style type="text/css"><![CDATA[
.g0_18{
fill-opacity: 0.6;
}
.g1_18{
}
]]></style>
</defs>
<g fill="#D4D4D4" fill-opacity="0.36" >
<use xlink:href="#f0_1f" transform="matrix(50.9,-50.9,50.9,50.9,323.4,814.1)" />
<use xlink:href="#f0_2a" transform="matrix(50.9,-50.9,50.9,50.9,383.9,753.6)" />
<use xlink:href="#f0_28" transform="matrix(50.9,-50.9,50.9,50.9,427.2,710.3)" />
<use xlink:href="#f0_25" transform="matrix(50.9,-50.9,50.9,50.9,444.4,693.1)" />
<use xlink:href="#f0_2a" transform="matrix(50.9,-50.9,50.9,50.9,461.7,675.8)" />
<use xlink:href="#f0_21" transform="matrix(50.9,-50.9,50.9,50.9,504.9,632.5)" />
<use xlink:href="#f0_2k" transform="matrix(50.9,-50.9,50.9,50.9,548.2,589.3)" />
<use xlink:href="#f0_1x" transform="matrix(50.9,-50.9,50.9,50.9,587.1,550.4)" />
<use xlink:href="#f0_29" transform="matrix(50.9,-50.9,50.9,50.9,630.3,507.2)" />
<use xlink:href="#f0_2c" transform="matrix(50.9,-50.9,50.9,50.9,695.1,442.4)" />
<use xlink:href="#f0_2b" transform="matrix(50.9,-50.9,50.9,50.9,738.4,399.1)" />
<use xlink:href="#f0_25" transform="matrix(50.9,-50.9,50.9,50.9,781.6,355.9)" />
<use xlink:href="#f0_2a" transform="matrix(50.9,-50.9,50.9,50.9,798.9,338.6)" />
<use xlink:href="#f0_2g" transform="matrix(50.9,-50.9,50.9,50.9,842.1,295.4)" />
</g>
<g fill="#000000" >
<use xlink:href="#f1_1h" transform="matrix(12,0,0,12,331,306.6)" />
<use xlink:href="#f1_1l" transform="matrix(12,0,0,12,345.3,306.6)" />
<use xlink:href="#f1_15" transform="matrix(12,0,0,12,358.5,306.6)" />
<use xlink:href="#f1_1j" transform="matrix(12,0,0,12,370.7,306.6)" />
<use xlink:href="#f1_1k" transform="matrix(12,0,0,12,382.9,306.6)" />
<use xlink:href="#f1_19" transform="matrix(12,0,0,12,394.1,306.6)" />
<use xlink:href="#f1_1f" transform="matrix(12,0,0,12,399.2,306.6)" />
<use xlink:href="#f1_1e" transform="matrix(12,0,0,12,413.5,306.6)" />
<use xlink:href="#f1_13" transform="matrix(12,0,0,12,431.9,306.6)" />
<use xlink:href="#f1_11" transform="matrix(12,0,0,12,445.1,306.6)" />
<use xlink:href="#f1_1i" transform="matrix(12,0,0,12,458.3,306.6)" />
<use xlink:href="#f1_1i" transform="matrix(12,0,0,12,471.6,306.6)" />
<use xlink:href="#f1_19" transform="matrix(12,0,0,12,484.8,306.6)" />
<use xlink:href="#f1_1e" transform="matrix(12,0,0,12,489.9,306.6)" />
<use xlink:href="#f1_17" transform="matrix(12,0,0,12,503.1,306.6)" />
<use xlink:href="#f1_l" transform="matrix(12,0,0,12,522.5,306.6)" />
<use xlink:href="#f1_1d" transform="matrix(12,0,0,12,537.9,306.6)" />
<use xlink:href="#f1_11" transform="matrix(12,0,0,12,553.1,306.6)" />
<use xlink:href="#f1_1i" transform="matrix(12,0,0,12,566.4,306.6)" />
<use xlink:href="#f1_1b" transform="matrix(12,0,0,12,579.6,306.6)" />
<use xlink:href="#f2_l" transform="matrix(12,0,0,12,165,354.8)" />
<use xlink:href="#f2_i" transform="matrix(12,0,0,12,175.2,354.8)" />
<use xlink:href="#f2_1n" transform="matrix(12,0,0,12,192.5,354.8)" />
<use xlink:href="#f2_24" transform="matrix(12,0,0,12,209.8,354.8)" />
<use xlink:href="#f2_1x" transform="matrix(12,0,0,12,220,354.8)" />
<use xlink:href="#f2_2g" transform="matrix(12,0,0,12,230.2,354.8)" />
<use xlink:href="#f2_25" transform="matrix(12,0,0,12,240.4,354.8)" />
<use xlink:href="#f2_2f" transform="matrix(12,0,0,12,244.5,354.8)" />
<use xlink:href="#f2_2g" transform="matrix(12,0,0,12,258.7,354.8)" />
<use xlink:href="#f2_24" transform="matrix(12,0,0,12,263.8,354.8)" />
<use xlink:href="#f2_21" transform="matrix(12,0,0,12,274,354.8)" />
<use xlink:href="#f2_21" transform="matrix(12,0,0,12,289.3,354.8)" />
<use xlink:href="#f2_22" transform="matrix(12,0,0,12,299.5,354.8)" />
<use xlink:href="#f2_22" transform="matrix(12,0,0,12,304.6,354.8)" />
<use xlink:href="#f2_21" transform="matrix(12,0,0,12,309.7,354.8)" />
<use xlink:href="#f2_1z" transform="matrix(12,0,0,12,319.9,354.8)" />
<use xlink:href="#f2_2g" transform="matrix(12,0,0,12,329.1,354.8)" />
<use xlink:href="#f2_2b" transform="matrix(12,0,0,12,339.3,354.8)" />
<use xlink:href="#f2_22" transform="matrix(12,0,0,12,349.5,354.8)" />
<use xlink:href="#f2_2g" transform="matrix(12,0,0,12,359.7,354.8)" />
<use xlink:href="#f2_21" transform="matrix(12,0,0,12,364.8,354.8)" />
<use xlink:href="#f2_29" transform="matrix(12,0,0,12,374.8,354.8)" />
<use xlink:href="#f2_2c" transform="matrix(12,0,0,12,390.1,354.8)" />
<use xlink:href="#f2_21" transform="matrix(12,0,0,12,400.3,354.8)" />
<use xlink:href="#f2_2e" transform="matrix(12,0,0,12,410.5,354.8)" />
<use xlink:href="#f2_1x" transform="matrix(12,0,0,12,416.6,354.8)" />
<use xlink:href="#f2_2g" transform="matrix(12,0,0,12,426.8,354.8)" />
<use xlink:href="#f2_2h" transform="matrix(12,0,0,12,431.9,354.8)" />
<use xlink:href="#f2_2e" transform="matrix(12,0,0,12,442,354.8)" />
<use xlink:href="#f2_21" transform="matrix(12,0,0,12,448.1,354.8)" />
<use xlink:href="#f2_2b" transform="matrix(12,0,0,12,463.4,354.8)" />
<use xlink:href="#f2_2a" transform="matrix(12,0,0,12,473.6,354.8)" />
<use xlink:href="#f2_29" transform="matrix(12,0,0,12,488.9,354.8)" />
<use xlink:href="#f2_2b" transform="matrix(12,0,0,12,504.2,354.8)" />
<use xlink:href="#f2_28" transform="matrix(12,0,0,12,514.4,354.8)" />
<use xlink:href="#f2_1x" transform="matrix(12,0,0,12,518.5,354.8)" />
<use xlink:href="#f2_2e" transform="matrix(12,0,0,12,528.6,354.8)" />
<use xlink:href="#f2_1z" transform="matrix(12,0,0,12,539.8,354.8)" />
<use xlink:href="#f2_2b" transform="matrix(12,0,0,12,549,354.8)" />
<use xlink:href="#f2_2a" transform="matrix(12,0,0,12,559.2,354.8)" />
<use xlink:href="#f2_20" transform="matrix(12,0,0,12,569.4,354.8)" />
<use xlink:href="#f2_2h" transform="matrix(12,0,0,12,579.6,354.8)" />
<use xlink:href="#f2_1z" transform="matrix(12,0,0,12,589.8,354.8)" />
<use xlink:href="#f2_2g" transform="matrix(12,0,0,12,598.9,354.8)" />
<use xlink:href="#f2_25" transform="matrix(12,0,0,12,604,354.8)" />
<use xlink:href="#f2_2i" transform="matrix(12,0,0,12,608.1,354.8)" />
<use xlink:href="#f2_25" transform="matrix(12,0,0,12,617.3,354.8)" />
<use xlink:href="#f2_2g" transform="matrix(12,0,0,12,621.3,354.8)" />
<use xlink:href="#f2_2l" transform="matrix(12,0,0,12,626.4,354.8)" />
<use xlink:href="#f2_z" transform="matrix(12,0,0,12,635.7,354.8)" />
<use xlink:href="#f2_11" transform="matrix(12,0,0,12,165,375.9)" />
<use xlink:href="#f2_2a" transform="matrix(12,0,0,12,177.2,375.9)" />
<use xlink:href="#f2_2f" transform="matrix(12,0,0,12,187.4,375.9)" />
<use xlink:href="#f2_i" transform="matrix(12,0,0,12,196.6,375.9)" />
<use xlink:href="#f2_1d" transform="matrix(12,0,0,12,211.9,375.9)" />
<use xlink:href="#f2_2b" transform="matrix(12,0,0,12,227.2,375.9)" />
<use xlink:href="#f2_28" transform="matrix(12,0,0,12,237.4,375.9)" />
<use xlink:href="#f2_1x" transform="matrix(12,0,0,12,241.4,375.9)" />
<use xlink:href="#f2_2e" transform="matrix(12,0,0,12,251.6,375.9)" />
<use xlink:href="#f2_1z" transform="matrix(12,0,0,12,262.8,375.9)" />
<use xlink:href="#f2_2b" transform="matrix(12,0,0,12,272,375.9)" />
<use xlink:href="#f2_2a" transform="matrix(12,0,0,12,282.2,375.9)" />
<use xlink:href="#f2_20" transform="matrix(12,0,0,12,292.4,375.9)" />
<use xlink:href="#f2_2h" transform="matrix(12,0,0,12,302.6,375.9)" />
<use xlink:href="#f2_1z" transform="matrix(12,0,0,12,312.7,375.9)" />
<use xlink:href="#f2_2g" transform="matrix(12,0,0,12,321.9,375.9)" />
<use xlink:href="#f2_25" transform="matrix(12,0,0,12,327,375.9)" />
<use xlink:href="#f2_2i" transform="matrix(12,0,0,12,331,375.9)" />
<use xlink:href="#f2_25" transform="matrix(12,0,0,12,340.2,375.9)" />
<use xlink:href="#f2_2g" transform="matrix(12,0,0,12,344.3,375.9)" />
<use xlink:href="#f2_2l" transform="matrix(12,0,0,12,349.4,375.9)" />
<use xlink:href="#f2_2b" transform="matrix(12,0,0,12,363.6,375.9)" />
<use xlink:href="#f2_22" transform="matrix(12,0,0,12,373.8,375.9)" />
<use xlink:href="#f2_1x" transform="matrix(12,0,0,12,384.1,375.9)" />
<use xlink:href="#f2_2a" transform="matrix(12,0,0,12,394.2,375.9)" />
<use xlink:href="#f2_21" transform="matrix(12,0,0,12,409.6,375.9)" />
<use xlink:href="#f2_28" transform="matrix(12,0,0,12,419.7,375.9)" />
<use xlink:href="#f2_21" transform="matrix(12,0,0,12,423.8,375.9)" />
<use xlink:href="#f2_1z" transform="matrix(12,0,0,12,434,375.9)" />
<use xlink:href="#f2_2g" transform="matrix(12,0,0,12,443.1,375.9)" />
<use xlink:href="#f2_2e" transform="matrix(12,0,0,12,448.2,375.9)" />
<use xlink:href="#f2_2b" transform="matrix(12,0,0,12,454.3,375.9)" />
<use xlink:href="#f2_28" transform="matrix(12,0,0,12,464.5,375.9)" />
<use xlink:href="#f2_2l" transform="matrix(12,0,0,12,468.6,375.9)" />
<use xlink:href="#f2_2g" transform="matrix(12,0,0,12,477.7,375.9)" />
<use xlink:href="#f2_21" transform="matrix(12,0,0,12,482.8,375.9)" />
<use xlink:href="#f2_25" transform="matrix(12,0,0,12,498.1,375.9)" />
<use xlink:href="#f2_2a" transform="matrix(12,0,0,12,502.2,375.9)" />
<use xlink:href="#f2_1z" transform="matrix(12,0,0,12,512.4,375.9)" />
<use xlink:href="#f2_2e" transform="matrix(12,0,0,12,521.5,375.9)" />
<use xlink:href="#f2_21" transform="matrix(12,0,0,12,527.6,375.9)" />
<use xlink:href="#f2_1x" transform="matrix(12,0,0,12,537.8,375.9)" />
<use xlink:href="#f2_2f" transform="matrix(12,0,0,12,548,375.9)" />
<use xlink:href="#f2_21" transform="matrix(12,0,0,12,557.2,375.9)" />
<use xlink:href="#f2_2f" transform="matrix(12,0,0,12,567.4,375.9)" />
<use xlink:href="#f2_2j" transform="matrix(12,0,0,12,581.6,375.9)" />
<use xlink:href="#f2_25" transform="matrix(12,0,0,12,594.9,375.9)" />
<use xlink:href="#f2_2g" transform="matrix(12,0,0,12,598.9,375.9)" />
<use xlink:href="#f2_24" transform="matrix(12,0,0,12,604,375.9)" />
<use xlink:href="#f2_25" transform="matrix(12,0,0,12,619.3,375.9)" />
<use xlink:href="#f2_2a" transform="matrix(12,0,0,12,623.4,375.9)" />
<use xlink:href="#f2_1z" transform="matrix(12,0,0,12,633.6,375.9)" />
<use xlink:href="#f2_2e" transform="matrix(12,0,0,12,642.7,375.9)" />
<use xlink:href="#f2_21" transform="matrix(12,0,0,12,648.8,375.9)" />
<use xlink:href="#f2_1x" transform="matrix(12,0,0,12,659,375.9)" />
<use xlink:href="#f2_2f" transform="matrix(12,0,0,12,669.2,375.9)" />
<use xlink:href="#f2_21" transform="matrix(12,0,0,12,678.4,375.9)" />
<use xlink:href="#f2_25" transform="matrix(12,0,0,12,693.7,375.9)" />
<use xlink:href="#f2_2a" transform="matrix(12,0,0,12,697.7,375.9)" />
<use xlink:href="#f2_2g" transform="matrix(12,0,0,12,165,397)" />
<use xlink:href="#f2_21" transform="matrix(12,0,0,12,170.1,397)" />
<use xlink:href="#f2_29" transform="matrix(12,0,0,12,180.3,397)" />
<use xlink:href="#f2_2c" transform="matrix(12,0,0,12,195.6,397)" />
<use xlink:href="#f2_21" transform="matrix(12,0,0,12,205.8,397)" />
<use xlink:href="#f2_2e" transform="matrix(12,0,0,12,215.9,397)" />
<use xlink:href="#f2_1x" transform="matrix(12,0,0,12,222.1,397)" />
<use xlink:href="#f2_2g" transform="matrix(12,0,0,12,232.2,397)" />
<use xlink:href="#f2_2h" transform="matrix(12,0,0,12,237.3,397)" />
<use xlink:href="#f2_2e" transform="matrix(12,0,0,12,247.5,397)" />
<use xlink:href="#f2_21" transform="matrix(12,0,0,12,253.6,397)" />
<use xlink:href="#f2_i" transform="matrix(12,0,0,12,263.8,397)" />
<use xlink:href="#f2_m" transform="matrix(12,0,0,12,165,418.1)" />
<use xlink:href="#f2_i" transform="matrix(12,0,0,12,175.2,418.1)" />
<use xlink:href="#f2_1n" transform="matrix(12,0,0,12,192.5,418.1)" />
<use xlink:href="#f2_24" transform="matrix(12,0,0,12,209.8,418.1)" />
<use xlink:href="#f2_2l" transform="matrix(12,0,0,12,220,418.1)" />
<use xlink:href="#f2_25" transform="matrix(12,0,0,12,234.3,418.1)" />
<use xlink:href="#f2_2f" transform="matrix(12,0,0,12,238.4,418.1)" />
<use xlink:href="#f2_25" transform="matrix(12,0,0,12,252.7,418.1)" />
<use xlink:href="#f2_2g" transform="matrix(12,0,0,12,256.7,418.1)" />
<use xlink:href="#f2_2a" transform="matrix(12,0,0,12,267,418.1)" />
<use xlink:href="#f2_2b" transform="matrix(12,0,0,12,277.2,418.1)" />
<use xlink:href="#f2_2g" transform="matrix(12,0,0,12,287.4,418.1)" />
<use xlink:href="#f2_2c" transform="matrix(12,0,0,12,297.6,418.1)" />
<use xlink:href="#f2_2b" transform="matrix(12,0,0,12,307.8,418.1)" />
<use xlink:href="#f2_2f" transform="matrix(12,0,0,12,318,418.1)" />
<use xlink:href="#f2_2f" transform="matrix(12,0,0,12,327.1,418.1)" />
<use xlink:href="#f2_25" transform="matrix(12,0,0,12,336.3,418.1)" />
<use xlink:href="#f2_1y" transform="matrix(12,0,0,12,340.4,418.1)" />
<use xlink:href="#f2_28" transform="matrix(12,0,0,12,350.6,418.1)" />
<use xlink:href="#f2_21" transform="matrix(12,0,0,12,354.6,418.1)" />
<use xlink:href="#f2_2g" transform="matrix(12,0,0,12,370,418.1)" />
<use xlink:href="#f2_2b" transform="matrix(12,0,0,12,375.1,418.1)" />
<use xlink:href="#f2_29" transform="matrix(12,0,0,12,390.2,418.1)" />
<use xlink:href="#f2_21" transform="matrix(12,0,0,12,405.5,418.1)" />
<use xlink:href="#f2_1x" transform="matrix(12,0,0,12,415.7,418.1)" />
<use xlink:href="#f2_2f" transform="matrix(12,0,0,12,425.8,418.1)" />
<use xlink:href="#f2_2h" transform="matrix(12,0,0,12,435,418.1)" />
<use xlink:href="#f2_2e" transform="matrix(12,0,0,12,445.2,418.1)" />
<use xlink:href="#f2_21" transform="matrix(12,0,0,12,451.2,418.1)" />
<use xlink:href="#f2_2f" transform="matrix(12,0,0,12,466.6,418.1)" />
<use xlink:href="#f2_25" transform="matrix(12,0,0,12,475.7,418.1)" />
<use xlink:href="#f2_2a" transform="matrix(12,0,0,12,479.8,418.1)" />
<use xlink:href="#f2_23" transform="matrix(12,0,0,12,489.9,418.1)" />
<use xlink:href="#f2_28" transform="matrix(12,0,0,12,500.1,418.1)" />
<use xlink:href="#f2_21" transform="matrix(12,0,0,12,504.2,418.1)" />
<use xlink:href="#f2_21" transform="matrix(12,0,0,12,519.5,418.1)" />
<use xlink:href="#f2_28" transform="matrix(12,0,0,12,529.7,418.1)" />
<use xlink:href="#f2_21" transform="matrix(12,0,0,12,533.7,418.1)" />
<use xlink:href="#f2_1z" transform="matrix(12,0,0,12,543.9,418.1)" />
<use xlink:href="#f2_2g" transform="matrix(12,0,0,12,553.2,418.1)" />
<use xlink:href="#f2_2e" transform="matrix(12,0,0,12,558.2,418.1)" />
<use xlink:href="#f2_2b" transform="matrix(12,0,0,12,564.3,418.1)" />
<use xlink:href="#f2_20" transform="matrix(12,0,0,12,574.5,418.1)" />
<use xlink:href="#f2_21" transform="matrix(12,0,0,12,584.7,418.1)" />
<use xlink:href="#f2_2c" transform="matrix(12,0,0,12,600,418.1)" />
<use xlink:href="#f2_2b" transform="matrix(12,0,0,12,610.2,418.1)" />
<use xlink:href="#f2_2g" transform="matrix(12,0,0,12,620.3,418.1)" />
<use xlink:href="#f2_21" transform="matrix(12,0,0,12,625.4,418.1)" />
<use xlink:href="#f2_2a" transform="matrix(12,0,0,12,635.6,418.1)" />
<use xlink:href="#f2_2g" transform="matrix(12,0,0,12,645.8,418.1)" />
<use xlink:href="#f2_25" transform="matrix(12,0,0,12,650.9,418.1)" />
<use xlink:href="#f2_1x" transform="matrix(12,0,0,12,654.9,418.1)" />
<use xlink:href="#f2_28" transform="matrix(12,0,0,12,665.1,418.1)" />
<use xlink:href="#f2_z" transform="matrix(12,0,0,12,669.1,418.1)" />
<use xlink:href="#f2_11" transform="matrix(12,0,0,12,165,439.1)" />
<use xlink:href="#f2_2a" transform="matrix(12,0,0,12,177.2,439.1)" />
<use xlink:href="#f2_2f" transform="matrix(12,0,0,12,187.4,439.1)" />
<use xlink:href="#f2_i" transform="matrix(12,0,0,12,196.6,439.1)" />
<use xlink:href="#f2_c" transform="matrix(12,0,0,12,211.9,439.1)" />
<use xlink:href="#f2_19" transform="matrix(12,0,0,12,218,439.1)" />
<use xlink:href="#f2_2g" transform="matrix(12,0,0,12,223.1,439.1)" />
<use xlink:href="#f2_25" transform="matrix(12,0,0,12,233.3,439.1)" />
<use xlink:href="#f2_2f" transform="matrix(12,0,0,12,237.4,439.1)" />
<use xlink:href="#f2_2a" transform="matrix(12,0,0,12,251.7,439.1)" />
<use xlink:href="#f2_2b" transform="matrix(12,0,0,12,261.9,439.1)" />
<use xlink:href="#f2_2g" transform="matrix(12,0,0,12,272.1,439.1)" />
<use xlink:href="#f2_2c" transform="matrix(12,0,0,12,282.3,439.1)" />
<use xlink:href="#f2_2b" transform="matrix(12,0,0,12,292.5,439.1)" />
<use xlink:href="#f2_2f" transform="matrix(12,0,0,12,302.7,439.1)" />
<use xlink:href="#f2_2f" transform="matrix(12,0,0,12,311.8,439.1)" />
<use xlink:href="#f2_25" transform="matrix(12,0,0,12,321,439.1)" />
<use xlink:href="#f2_1y" transform="matrix(12,0,0,12,325.1,439.1)" />
<use xlink:href="#f2_28" transform="matrix(12,0,0,12,335.3,439.1)" />
<use xlink:href="#f2_21" transform="matrix(12,0,0,12,339.3,439.1)" />
<use xlink:href="#f2_2g" transform="matrix(12,0,0,12,354.6,439.1)" />
<use xlink:href="#f2_2b" transform="matrix(12,0,0,12,359.7,439.1)" />
<use xlink:href="#f2_29" transform="matrix(12,0,0,12,375.1,439.1)" />
<use xlink:href="#f2_21" transform="matrix(12,0,0,12,390.3,439.1)" />
<use xlink:href="#f2_1x" transform="matrix(12,0,0,12,400.5,439.1)" />
<use xlink:href="#f2_2f" transform="matrix(12,0,0,12,410.7,439.1)" />
<use xlink:href="#f2_2h" transform="matrix(12,0,0,12,419.9,439.1)" />
<use xlink:href="#f2_2e" transform="matrix(12,0,0,12,430.1,439.1)" />
<use xlink:href="#f2_21" transform="matrix(12,0,0,12,436.2,439.1)" />
<use xlink:href="#f2_2f" transform="matrix(12,0,0,12,451.4,439.1)" />
<use xlink:href="#f2_25" transform="matrix(12,0,0,12,460.5,439.1)" />
<use xlink:href="#f2_2a" transform="matrix(12,0,0,12,464.6,439.1)" />
<use xlink:href="#f2_23" transform="matrix(12,0,0,12,474.8,439.1)" />
<use xlink:href="#f2_28" transform="matrix(12,0,0,12,485,439.1)" />
<use xlink:href="#f2_21" transform="matrix(12,0,0,12,489,439.1)" />
<use xlink:href="#f2_21" transform="matrix(12,0,0,12,504.3,439.1)" />
<use xlink:href="#f2_28" transform="matrix(12,0,0,12,514.5,439.1)" />
<use xlink:href="#f2_21" transform="matrix(12,0,0,12,518.6,439.1)" />
<use xlink:href="#f2_1z" transform="matrix(12,0,0,12,528.8,439.1)" />
<use xlink:href="#f2_2g" transform="matrix(12,0,0,12,537.9,439.1)" />
<use xlink:href="#f2_2e" transform="matrix(12,0,0,12,543,439.1)" />
<use xlink:href="#f2_2b" transform="matrix(12,0,0,12,549.1,439.1)" />
<use xlink:href="#f2_20" transform="matrix(12,0,0,12,559.3,439.1)" />
<use xlink:href="#f2_21" transform="matrix(12,0,0,12,569.5,439.1)" />
<use xlink:href="#f2_2c" transform="matrix(12,0,0,12,584.8,439.1)" />
<use xlink:href="#f2_2b" transform="matrix(12,0,0,12,595,439.1)" />
<use xlink:href="#f2_2g" transform="matrix(12,0,0,12,605.2,439.1)" />
<use xlink:href="#f2_21" transform="matrix(12,0,0,12,610.3,439.1)" />
<use xlink:href="#f2_2a" transform="matrix(12,0,0,12,620.4,439.1)" />
<use xlink:href="#f2_2g" transform="matrix(12,0,0,12,630.6,439.1)" />
<use xlink:href="#f2_25" transform="matrix(12,0,0,12,635.7,439.1)" />
<use xlink:href="#f2_1x" transform="matrix(12,0,0,12,639.8,439.1)" />
<use xlink:href="#f2_28" transform="matrix(12,0,0,12,650,439.1)" />
<use xlink:href="#f2_1y" transform="matrix(12,0,0,12,659.1,439.1)" />
<use xlink:href="#f2_21" transform="matrix(12,0,0,12,669.3,439.1)" />
<use xlink:href="#f2_1z" transform="matrix(12,0,0,12,679.5,439.1)" />
<use xlink:href="#f2_1x" transform="matrix(12,0,0,12,688.7,439.1)" />
<use xlink:href="#f2_2h" transform="matrix(12,0,0,12,698.9,439.1)" />
<use xlink:href="#f2_2f" transform="matrix(12,0,0,12,709,439.1)" />
<use xlink:href="#f2_21" transform="matrix(12,0,0,12,718.2,439.1)" />
<use xlink:href="#f2_2g" transform="matrix(12,0,0,12,733.5,439.1)" />
<use xlink:href="#f2_24" transform="matrix(12,0,0,12,738.6,439.1)" />
<use xlink:href="#f2_21" transform="matrix(12,0,0,12,748.8,439.1)" />
<use xlink:href="#f2_24" transform="matrix(12,0,0,12,764.1,439.1)" />
<use xlink:href="#f2_1x" transform="matrix(12,0,0,12,774.3,439.1)" />
<use xlink:href="#f2_28" transform="matrix(12,0,0,12,784.5,439.1)" />
<use xlink:href="#f2_22" transform="matrix(12,0,0,12,788.5,439.1)" />
<use xlink:href="#f2_1z" transform="matrix(12,0,0,12,165,460.2)" />
<use xlink:href="#f2_21" transform="matrix(12,0,0,12,174.2,460.2)" />
<use xlink:href="#f2_28" transform="matrix(12,0,0,12,184.3,460.2)" />
<use xlink:href="#f2_28" transform="matrix(12,0,0,12,188.4,460.2)" />
<use xlink:href="#f2_1z" transform="matrix(12,0,0,12,197.6,460.2)" />
<use xlink:href="#f2_2b" transform="matrix(12,0,0,12,206.8,460.2)" />
<use xlink:href="#f2_2a" transform="matrix(12,0,0,12,217,460.2)" />
<use xlink:href="#f2_2g" transform="matrix(12,0,0,12,227.2,460.2)" />
<use xlink:href="#f2_1x" transform="matrix(12,0,0,12,232.2,460.2)" />
<use xlink:href="#f2_25" transform="matrix(12,0,0,12,242.4,460.2)" />
<use xlink:href="#f2_2a" transform="matrix(12,0,0,12,246.5,460.2)" />
<use xlink:href="#f2_25" transform="matrix(12,0,0,12,256.7,460.2)" />
<use xlink:href="#f2_2a" transform="matrix(12,0,0,12,260.7,460.2)" />
<use xlink:href="#f2_23" transform="matrix(12,0,0,12,270.9,460.2)" />
<use xlink:href="#f2_2f" transform="matrix(12,0,0,12,286.3,460.2)" />
<use xlink:href="#f2_25" transform="matrix(12,0,0,12,295.4,460.2)" />
<use xlink:href="#f2_2a" transform="matrix(12,0,0,12,299.5,460.2)" />
<use xlink:href="#f2_23" transform="matrix(12,0,0,12,309.7,460.2)" />
<use xlink:href="#f2_28" transform="matrix(12,0,0,12,319.9,460.2)" />
<use xlink:href="#f2_21" transform="matrix(12,0,0,12,323.9,460.2)" />
<use xlink:href="#f2_21" transform="matrix(12,0,0,12,339.3,460.2)" />
<use xlink:href="#f2_28" transform="matrix(12,0,0,12,349.4,460.2)" />
<use xlink:href="#f2_21" transform="matrix(12,0,0,12,353.5,460.2)" />
<use xlink:href="#f2_1z" transform="matrix(12,0,0,12,363.7,460.2)" />
<use xlink:href="#f2_2g" transform="matrix(12,0,0,12,372.9,460.2)" />
<use xlink:href="#f2_2e" transform="matrix(12,0,0,12,377.9,460.2)" />
<use xlink:href="#f2_2b" transform="matrix(12,0,0,12,384,460.2)" />
<use xlink:href="#f2_20" transform="matrix(12,0,0,12,394.2,460.2)" />
<use xlink:href="#f2_21" transform="matrix(12,0,0,12,404.4,460.2)" />
<use xlink:href="#f2_1z" transform="matrix(12,0,0,12,419.7,460.2)" />
<use xlink:href="#f2_1x" transform="matrix(12,0,0,12,428.9,460.2)" />
<use xlink:href="#f2_2a" transform="matrix(12,0,0,12,439.1,460.2)" />
<use xlink:href="#f2_2a" transform="matrix(12,0,0,12,449.3,460.2)" />
<use xlink:href="#f2_2b" transform="matrix(12,0,0,12,459.5,460.2)" />
<use xlink:href="#f2_2g" transform="matrix(12,0,0,12,469.7,460.2)" />
<use xlink:href="#f2_21" transform="matrix(12,0,0,12,479.9,460.2)" />
<use xlink:href="#f2_2k" transform="matrix(12,0,0,12,490.1,460.2)" />
<use xlink:href="#f2_25" transform="matrix(12,0,0,12,499.2,460.2)" />
<use xlink:href="#f2_2f" transform="matrix(12,0,0,12,503.3,460.2)" />
<use xlink:href="#f2_2g" transform="matrix(12,0,0,12,512.5,460.2)" />
<use xlink:href="#f2_25" transform="matrix(12,0,0,12,522.7,460.2)" />
<use xlink:href="#f2_2a" transform="matrix(12,0,0,12,526.8,460.2)" />
<use xlink:href="#f2_20" transform="matrix(12,0,0,12,537,460.2)" />
<use xlink:href="#f2_21" transform="matrix(12,0,0,12,547.1,460.2)" />
<use xlink:href="#f2_2c" transform="matrix(12,0,0,12,557.3,460.2)" />
<use xlink:href="#f2_21" transform="matrix(12,0,0,12,567.5,460.2)" />
<use xlink:href="#f2_2a" transform="matrix(12,0,0,12,577.7,460.2)" />
<use xlink:href="#f2_20" transform="matrix(12,0,0,12,587.9,460.2)" />
<use xlink:href="#f2_21" transform="matrix(12,0,0,12,598.1,460.2)" />
<use xlink:href="#f2_2a" transform="matrix(12,0,0,12,608.3,460.2)" />
<use xlink:href="#f2_2g" transform="matrix(12,0,0,12,618.5,460.2)" />
<use xlink:href="#f2_28" transform="matrix(12,0,0,12,623.6,460.2)" />
<use xlink:href="#f2_2l" transform="matrix(12,0,0,12,627.7,460.2)" />
<use xlink:href="#f2_g" transform="matrix(12,0,0,12,636.8,460.2)" />
<use xlink:href="#f2_1x" transform="matrix(12,0,0,12,647.1,460.2)" />
<use xlink:href="#f2_2f" transform="matrix(12,0,0,12,657.3,460.2)" />
<use xlink:href="#f2_1z" transform="matrix(12,0,0,12,671.6,460.2)" />
<use xlink:href="#f2_24" transform="matrix(12,0,0,12,680.7,460.2)" />
<use xlink:href="#f2_1x" transform="matrix(12,0,0,12,690.9,460.2)" />
<use xlink:href="#f2_2e" transform="matrix(12,0,0,12,701.1,460.2)" />
<use xlink:href="#f2_23" transform="matrix(12,0,0,12,707.2,460.2)" />
<use xlink:href="#f2_21" transform="matrix(12,0,0,12,717.4,460.2)" />
<use xlink:href="#f2_1z" transform="matrix(12,0,0,12,732.7,460.2)" />
<use xlink:href="#f2_1x" transform="matrix(12,0,0,12,741.9,460.2)" />
<use xlink:href="#f2_2a" transform="matrix(12,0,0,12,752.1,460.2)" />
<use xlink:href="#f2_2a" transform="matrix(12,0,0,12,762.3,460.2)" />
<use xlink:href="#f2_2b" transform="matrix(12,0,0,12,772.5,460.2)" />
<use xlink:href="#f2_2g" transform="matrix(12,0,0,12,782.7,460.2)" />
<use xlink:href="#f2_22" transform="matrix(12,0,0,12,165,481.3)" />
<use xlink:href="#f2_28" transform="matrix(12,0,0,12,170.1,481.3)" />
<use xlink:href="#f2_2b" transform="matrix(12,0,0,12,174.2,481.3)" />
<use xlink:href="#f2_2j" transform="matrix(12,0,0,12,184.3,481.3)" />
<use xlink:href="#f2_2b" transform="matrix(12,0,0,12,202.7,481.3)" />
<use xlink:href="#f2_2a" transform="matrix(12,0,0,12,212.9,481.3)" />
<use xlink:href="#f2_25" transform="matrix(12,0,0,12,228.2,481.3)" />
<use xlink:href="#f2_2g" transform="matrix(12,0,0,12,232.3,481.3)" />
<use xlink:href="#f2_2f" transform="matrix(12,0,0,12,237.4,481.3)" />
<use xlink:href="#f2_2b" transform="matrix(12,0,0,12,251.7,481.3)" />
<use xlink:href="#f2_2j" transform="matrix(12,0,0,12,261.9,481.3)" />
<use xlink:href="#f2_2a" transform="matrix(12,0,0,12,275.1,481.3)" />
<use xlink:href="#f2_25" transform="matrix(12,0,0,12,290.4,481.3)" />
<use xlink:href="#f2_2a" transform="matrix(12,0,0,12,294.5,481.3)" />
<use xlink:href="#f2_1x" transform="matrix(12,0,0,12,309.8,481.3)" />
<use xlink:href="#f2_2f" transform="matrix(12,0,0,12,325.1,481.3)" />
<use xlink:href="#f2_25" transform="matrix(12,0,0,12,334.3,481.3)" />
<use xlink:href="#f2_2a" transform="matrix(12,0,0,12,338.4,481.3)" />
<use xlink:href="#f2_23" transform="matrix(12,0,0,12,348.5,481.3)" />
<use xlink:href="#f2_28" transform="matrix(12,0,0,12,358.7,481.3)" />
<use xlink:href="#f2_21" transform="matrix(12,0,0,12,362.8,481.3)" />
<use xlink:href="#f2_21" transform="matrix(12,0,0,12,378.1,481.3)" />
<use xlink:href="#f2_28" transform="matrix(12,0,0,12,388.3,481.3)" />
<use xlink:href="#f2_21" transform="matrix(12,0,0,12,392.4,481.3)" />
<use xlink:href="#f2_1z" transform="matrix(12,0,0,12,402.6,481.3)" />
<use xlink:href="#f2_2g" transform="matrix(12,0,0,12,411.7,481.3)" />
<use xlink:href="#f2_2e" transform="matrix(12,0,0,12,416.8,481.3)" />
<use xlink:href="#f2_2b" transform="matrix(12,0,0,12,422.9,481.3)" />
<use xlink:href="#f2_20" transform="matrix(12,0,0,12,433.1,481.3)" />
<use xlink:href="#f2_21" transform="matrix(12,0,0,12,443.3,481.3)" />
<use xlink:href="#f2_i" transform="matrix(12,0,0,12,453.5,481.3)" />
<use xlink:href="#f2_d" transform="matrix(12,0,0,12,458.6,481.3)" />
<use xlink:href="#f2_n" transform="matrix(12,0,0,12,165,502.4)" />
<use xlink:href="#f2_i" transform="matrix(12,0,0,12,175.2,502.4)" />
<use xlink:href="#f2_1e" transform="matrix(12,0,0,12,192.5,502.4)" />
<use xlink:href="#f2_1x" transform="matrix(12,0,0,12,205.7,502.4)" />
<use xlink:href="#f2_29" transform="matrix(12,0,0,12,215.9,502.4)" />
<use xlink:href="#f2_21" transform="matrix(12,0,0,12,231.2,502.4)" />
<use xlink:href="#f2_2g" transform="matrix(12,0,0,12,246.5,502.4)" />
<use xlink:href="#f2_24" transform="matrix(12,0,0,12,251.6,502.4)" />
<use xlink:href="#f2_21" transform="matrix(12,0,0,12,261.8,502.4)" />
<use xlink:href="#f2_22" transform="matrix(12,0,0,12,277.1,502.4)" />
<use xlink:href="#f2_1x" transform="matrix(12,0,0,12,282.2,502.4)" />
<use xlink:href="#f2_1z" transform="matrix(12,0,0,12,292.4,502.4)" />
<use xlink:href="#f2_2g" transform="matrix(12,0,0,12,301.5,502.4)" />
<use xlink:href="#f2_2b" transform="matrix(12,0,0,12,306.6,502.4)" />
<use xlink:href="#f2_2e" transform="matrix(12,0,0,12,316.8,502.4)" />
<use xlink:href="#f2_2b" transform="matrix(12,0,0,12,328.1,502.4)" />
<use xlink:href="#f2_2a" transform="matrix(12,0,0,12,338.2,502.4)" />
<use xlink:href="#f2_2j" transform="matrix(12,0,0,12,353.6,502.4)" />
<use xlink:href="#f2_24" transform="matrix(12,0,0,12,366.8,502.4)" />
<use xlink:href="#f2_25" transform="matrix(12,0,0,12,377,502.4)" />
<use xlink:href="#f2_1z" transform="matrix(12,0,0,12,381,502.4)" />
<use xlink:href="#f2_24" transform="matrix(12,0,0,12,390.2,502.4)" />
<use xlink:href="#f2_21" transform="matrix(12,0,0,12,405.5,502.4)" />
<use xlink:href="#f2_29" transform="matrix(12,0,0,12,415.7,502.4)" />
<use xlink:href="#f2_22" transform="matrix(12,0,0,12,431,502.4)" />
<use xlink:href="#f2_2b" transform="matrix(12,0,0,12,441.2,502.4)" />
<use xlink:href="#f2_22" transform="matrix(12,0,0,12,451.4,502.4)" />
<use xlink:href="#f2_1x" transform="matrix(12,0,0,12,461.6,502.4)" />
<use xlink:href="#f2_1z" transform="matrix(12,0,0,12,477,502.4)" />
<use xlink:href="#f2_21" transform="matrix(12,0,0,12,486.1,502.4)" />
<use xlink:href="#f2_28" transform="matrix(12,0,0,12,496.3,502.4)" />
<use xlink:href="#f2_28" transform="matrix(12,0,0,12,500.4,502.4)" />
<use xlink:href="#f2_20" transform="matrix(12,0,0,12,509.6,502.4)" />
<use xlink:href="#f2_21" transform="matrix(12,0,0,12,519.8,502.4)" />
<use xlink:href="#f2_2c" transform="matrix(12,0,0,12,529.9,502.4)" />
<use xlink:href="#f2_21" transform="matrix(12,0,0,12,540.1,502.4)" />
<use xlink:href="#f2_2a" transform="matrix(12,0,0,12,550.3,502.4)" />
<use xlink:href="#f2_20" transform="matrix(12,0,0,12,560.5,502.4)" />
<use xlink:href="#f2_2f" transform="matrix(12,0,0,12,570.7,502.4)" />
<use xlink:href="#f2_u" transform="matrix(12,0,0,12,579.9,502.4)" />
<use xlink:href="#f2_h" transform="matrix(12,0,0,12,585,502.4)" />
<use xlink:href="#f2_11" transform="matrix(12,0,0,12,165,523.5)" />
<use xlink:href="#f2_2a" transform="matrix(12,0,0,12,177.2,523.5)" />
<use xlink:href="#f2_2f" transform="matrix(12,0,0,12,187.4,523.5)" />
<use xlink:href="#f2_i" transform="matrix(12,0,0,12,196.6,523.5)" />
<use xlink:href="#f2_15" transform="matrix(12,0,0,12,211.9,523.5)" />
<use xlink:href="#f2_29" transform="matrix(12,0,0,12,224.1,523.5)" />
<use xlink:href="#f2_22" transform="matrix(12,0,0,12,239.4,523.5)" />
<use xlink:href="#f2_2b" transform="matrix(12,0,0,12,249.6,523.5)" />
<use xlink:href="#f2_22" transform="matrix(12,0,0,12,259.8,523.5)" />
<use xlink:href="#f2_1x" transform="matrix(12,0,0,12,270,523.5)" />
<use xlink:href="#f2_1z" transform="matrix(12,0,0,12,285.3,523.5)" />
<use xlink:href="#f2_21" transform="matrix(12,0,0,12,294.4,523.5)" />
<use xlink:href="#f2_28" transform="matrix(12,0,0,12,304.6,523.5)" />
<use xlink:href="#f2_28" transform="matrix(12,0,0,12,308.7,523.5)" />
<use xlink:href="#f2_20" transform="matrix(12,0,0,12,317.8,523.5)" />
<use xlink:href="#f2_21" transform="matrix(12,0,0,12,328,523.5)" />
<use xlink:href="#f2_2c" transform="matrix(12,0,0,12,338.2,523.5)" />
<use xlink:href="#f2_21" transform="matrix(12,0,0,12,348.4,523.5)" />
<use xlink:href="#f2_2a" transform="matrix(12,0,0,12,358.6,523.5)" />
<use xlink:href="#f2_20" transform="matrix(12,0,0,12,368.8,523.5)" />
<use xlink:href="#f2_2f" transform="matrix(12,0,0,12,379,523.5)" />
<use xlink:href="#f2_2b" transform="matrix(12,0,0,12,393.3,523.5)" />
<use xlink:href="#f2_2a" transform="matrix(12,0,0,12,403.5,523.5)" />
<use xlink:href="#f2_22" transform="matrix(12,0,0,12,418.8,523.5)" />
<use xlink:href="#f2_2b" transform="matrix(12,0,0,12,423.9,523.5)" />
<use xlink:href="#f2_28" transform="matrix(12,0,0,12,434.1,523.5)" />
<use xlink:href="#f2_28" transform="matrix(12,0,0,12,438.1,523.5)" />
<use xlink:href="#f2_2b" transform="matrix(12,0,0,12,442.2,523.5)" />
<use xlink:href="#f2_2j" transform="matrix(12,0,0,12,452.4,523.5)" />
<use xlink:href="#f2_25" transform="matrix(12,0,0,12,465.6,523.5)" />
<use xlink:href="#f2_2a" transform="matrix(12,0,0,12,469.7,523.5)" />
<use xlink:href="#f2_23" transform="matrix(12,0,0,12,479.9,523.5)" />
<use xlink:href="#f2_22" transform="matrix(12,0,0,12,495.2,523.5)" />
<use xlink:href="#f2_1x" transform="matrix(12,0,0,12,500.3,523.5)" />
<use xlink:href="#f2_1z" transform="matrix(12,0,0,12,510.5,523.5)" />
<use xlink:href="#f2_2g" transform="matrix(12,0,0,12,519.7,523.5)" />
<use xlink:href="#f2_2b" transform="matrix(12,0,0,12,524.8,523.5)" />
<use xlink:href="#f2_2e" transform="matrix(12,0,0,12,535,523.5)" />
<use xlink:href="#f2_h" transform="matrix(12,0,0,12,541.1,523.5)" />
<use xlink:href="#f2_1x" transform="matrix(12,0,0,12,204.7,559.8)" />
<use xlink:href="#f2_i" transform="matrix(12,0,0,12,214.9,559.8)" />
<use xlink:href="#f2_1e" transform="matrix(12,0,0,12,235.7,559.8)" />
<use xlink:href="#f2_1x" transform="matrix(12,0,0,12,248.9,559.8)" />
<use xlink:href="#f2_2g" transform="matrix(12,0,0,12,259.1,559.8)" />
<use xlink:href="#f2_2h" transform="matrix(12,0,0,12,264.2,559.8)" />
<use xlink:href="#f2_2e" transform="matrix(12,0,0,12,274.4,559.8)" />
<use xlink:href="#f2_21" transform="matrix(12,0,0,12,280.5,559.8)" />
<use xlink:href="#f2_2b" transform="matrix(12,0,0,12,295.9,559.8)" />
<use xlink:href="#f2_22" transform="matrix(12,0,0,12,306.1,559.8)" />
<use xlink:href="#f2_2e" transform="matrix(12,0,0,12,316.3,559.8)" />
<use xlink:href="#f2_21" transform="matrix(12,0,0,12,322.4,559.8)" />
<use xlink:href="#f2_1x" transform="matrix(12,0,0,12,332.6,559.8)" />
<use xlink:href="#f2_1z" transform="matrix(12,0,0,12,342.8,559.8)" />
<use xlink:href="#f2_2g" transform="matrix(12,0,0,12,352,559.8)" />
<use xlink:href="#f2_1x" transform="matrix(12,0,0,12,357.1,559.8)" />
<use xlink:href="#f2_2a" transform="matrix(12,0,0,12,367.3,559.8)" />
<use xlink:href="#f2_2g" transform="matrix(12,0,0,12,377.5,559.8)" />
<use xlink:href="#f2_2f" transform="matrix(12,0,0,12,382.6,559.8)" />
<use xlink:href="#f2_i" transform="matrix(12,0,0,12,391.7,559.8)" />
<use xlink:href="#f2_1y" transform="matrix(12,0,0,12,204.7,594.7)" />
<use xlink:href="#f2_i" transform="matrix(12,0,0,12,214.9,594.7)" />
<use xlink:href="#f2_13" transform="matrix(12,0,0,12,235.7,594.7)" />
<use xlink:href="#f2_2b" transform="matrix(12,0,0,12,248.9,594.7)" />
<use xlink:href="#f2_2a" transform="matrix(12,0,0,12,259.1,594.7)" />
<use xlink:href="#f2_1z" transform="matrix(12,0,0,12,269.3,594.7)" />
<use xlink:href="#f2_21" transform="matrix(12,0,0,12,278.5,594.7)" />
<use xlink:href="#f2_2a" transform="matrix(12,0,0,12,288.7,594.7)" />
<use xlink:href="#f2_2g" transform="matrix(12,0,0,12,298.8,594.7)" />
<use xlink:href="#f2_2e" transform="matrix(12,0,0,12,303.9,594.7)" />
<use xlink:href="#f2_1x" transform="matrix(12,0,0,12,310,594.7)" />
<use xlink:href="#f2_2g" transform="matrix(12,0,0,12,320.2,594.7)" />
<use xlink:href="#f2_25" transform="matrix(12,0,0,12,325.3,594.7)" />
<use xlink:href="#f2_2b" transform="matrix(12,0,0,12,329.4,594.7)" />
<use xlink:href="#f2_2a" transform="matrix(12,0,0,12,339.6,594.7)" />
<use xlink:href="#f2_2b" transform="matrix(12,0,0,12,354.9,594.7)" />
<use xlink:href="#f2_22" transform="matrix(12,0,0,12,365.1,594.7)" />
<use xlink:href="#f2_2f" transform="matrix(12,0,0,12,375.3,594.7)" />
<use xlink:href="#f2_2b" transform="matrix(12,0,0,12,384.5,594.7)" />
<use xlink:href="#f2_28" transform="matrix(12,0,0,12,394.7,594.7)" />
<use xlink:href="#f2_2h" transform="matrix(12,0,0,12,398.7,594.7)" />
<use xlink:href="#f2_2g" transform="matrix(12,0,0,12,408.9,594.7)" />
<use xlink:href="#f2_25" transform="matrix(12,0,0,12,414,594.7)" />
<use xlink:href="#f2_2b" transform="matrix(12,0,0,12,418.1,594.7)" />
<use xlink:href="#f2_2a" transform="matrix(12,0,0,12,428.3,594.7)" />
<use xlink:href="#f2_25" transform="matrix(12,0,0,12,443.6,594.7)" />
<use xlink:href="#f2_2a" transform="matrix(12,0,0,12,447.7,594.7)" />
<use xlink:href="#f2_2g" transform="matrix(12,0,0,12,463,594.7)" />
<use xlink:href="#f2_2j" transform="matrix(12,0,0,12,468.1,594.7)" />
<use xlink:href="#f2_2b" transform="matrix(12,0,0,12,481.3,594.7)" />
<use xlink:href="#f2_24" transform="matrix(12,0,0,12,496.7,594.7)" />
<use xlink:href="#f2_1x" transform="matrix(12,0,0,12,506.8,594.7)" />
<use xlink:href="#f2_28" transform="matrix(12,0,0,12,517,594.7)" />
<use xlink:href="#f2_22" transform="matrix(12,0,0,12,521.1,594.7)" />
<use xlink:href="#f2_1z" transform="matrix(12,0,0,12,531.3,594.7)" />
<use xlink:href="#f2_21" transform="matrix(12,0,0,12,540.5,594.7)" />
<use xlink:href="#f2_28" transform="matrix(12,0,0,12,550.7,594.7)" />
<use xlink:href="#f2_28" transform="matrix(12,0,0,12,554.8,594.7)" />
<use xlink:href="#f2_2f" transform="matrix(12,0,0,12,558.8,594.7)" />
<use xlink:href="#f2_i" transform="matrix(12,0,0,12,568,594.7)" />
<use xlink:href="#f2_1z" transform="matrix(12,0,0,12,204.7,615.7)" />
<use xlink:href="#f2_i" transform="matrix(12,0,0,12,213.9,615.7)" />
<use xlink:href="#f2_1k" transform="matrix(12,0,0,12,235.7,615.7)" />
<use xlink:href="#f2_21" transform="matrix(12,0,0,12,246.9,615.7)" />
<use xlink:href="#f2_29" transform="matrix(12,0,0,12,257.1,615.7)" />
<use xlink:href="#f2_2c" transform="matrix(12,0,0,12,272.3,615.7)" />
<use xlink:href="#f2_21" transform="matrix(12,0,0,12,282.5,615.7)" />
<use xlink:href="#f2_2e" transform="matrix(12,0,0,12,292.7,615.7)" />
<use xlink:href="#f2_1x" transform="matrix(12,0,0,12,298.8,615.7)" />
<use xlink:href="#f2_2g" transform="matrix(12,0,0,12,309,615.7)" />
<use xlink:href="#f2_2h" transform="matrix(12,0,0,12,314.1,615.7)" />
<use xlink:href="#f2_2e" transform="matrix(12,0,0,12,324.3,615.7)" />
<use xlink:href="#f2_21" transform="matrix(12,0,0,12,330.4,615.7)" />
</g>
<path d="M0,0V0Z" class="g0_18" />
<g fill="#000000" >
<use xlink:href="#f3_13" transform="matrix(14,0,0,14,430,185.1)" />
<use xlink:href="#f3_24" transform="matrix(14,0,0,14,445.5,185.1)" />
<use xlink:href="#f3_1x" transform="matrix(14,0,0,14,458.5,185.1)" />
<use xlink:href="#f3_2c" transform="matrix(14,0,0,14,470.4,185.1)" />
<use xlink:href="#f3_2g" transform="matrix(14,0,0,14,483.4,185.1)" />
<use xlink:href="#f3_21" transform="matrix(14,0,0,14,490.6,185.1)" />
<use xlink:href="#f3_2e" transform="matrix(14,0,0,14,502.4,185.1)" />
<use xlink:href="#f1_h" transform="matrix(14,0,0,14,516.7,185.1)" />
<use xlink:href="#f1_n" transform="matrix(14,0,0,14,529.7,185.1)" />
</g>
<path d="M430.7,190.4H541v-2.2H430.7v2.2Z" class="g1_18" />
<g fill="#000000" >
<use xlink:href="#f4_15" transform="matrix(18,0,0,18,357.7,242.9)" />
<use xlink:href="#f4_28" transform="matrix(18,0,0,18,376.1,242.9)" />
<use xlink:href="#f4_21" transform="matrix(18,0,0,18,383.7,242.9)" />
<use xlink:href="#f4_1z" transform="matrix(18,0,0,18,395.9,242.9)" />
<use xlink:href="#f4_2g" transform="matrix(18,0,0,18,408.1,242.9)" />
<use xlink:href="#f4_2e" transform="matrix(18,0,0,18,417.3,242.9)" />
<use xlink:href="#f4_2b" transform="matrix(18,0,0,18,429.5,242.9)" />
<use xlink:href="#f4_13" transform="matrix(18,0,0,18,450.1,242.9)" />
<use xlink:href="#f4_24" transform="matrix(18,0,0,18,469.9,242.9)" />
<use xlink:href="#f4_21" transform="matrix(18,0,0,18,485.2,242.9)" />
<use xlink:href="#f4_29" transform="matrix(18,0,0,18,497.4,242.9)" />
<use xlink:href="#f4_25" transform="matrix(18,0,0,18,520.3,242.9)" />
<use xlink:href="#f4_2f" transform="matrix(18,0,0,18,528,242.9)" />
<use xlink:href="#f4_2g" transform="matrix(18,0,0,18,538.7,242.9)" />
<use xlink:href="#f4_2e" transform="matrix(18,0,0,18,547.8,242.9)" />
<use xlink:href="#f4_2l" transform="matrix(18,0,0,18,560,242.9)" />
<use xlink:href="#f2_20" transform="matrix(12,0,0,12,205.8,651.3)" />
<use xlink:href="#f2_i" transform="matrix(12,0,0,12,216,651.3)" />
<use xlink:href="#f2_1g" transform="matrix(12,0,0,12,236.8,651.3)" />
<use xlink:href="#f2_2e" transform="matrix(12,0,0,12,249,651.3)" />
<use xlink:href="#f2_21" transform="matrix(12,0,0,12,255.1,651.3)" />
<use xlink:href="#f2_2f" transform="matrix(12,0,0,12,265.3,651.3)" />
<use xlink:href="#f2_2f" transform="matrix(12,0,0,12,274.5,651.3)" />
<use xlink:href="#f2_2h" transform="matrix(12,0,0,12,283.7,651.3)" />
<use xlink:href="#f2_2e" transform="matrix(12,0,0,12,293.9,651.3)" />
<use xlink:href="#f2_21" transform="matrix(12,0,0,12,300,651.3)" />
<use xlink:href="#f2_2b" transform="matrix(12,0,0,12,315.3,651.3)" />
<use xlink:href="#f2_22" transform="matrix(12,0,0,12,325.5,651.3)" />
<use xlink:href="#f2_23" transform="matrix(12,0,0,12,335.8,651.3)" />
<use xlink:href="#f2_1x" transform="matrix(12,0,0,12,346,651.3)" />
<use xlink:href="#f2_2f" transform="matrix(12,0,0,12,356.2,651.3)" />
<use xlink:href="#f2_i" transform="matrix(12,0,0,12,365.4,651.3)" />
<use xlink:href="#f2_o" transform="matrix(12,0,0,12,156.9,695.3)" />
<use xlink:href="#f2_i" transform="matrix(12,0,0,12,167.1,695.3)" />
<use xlink:href="#f2_1n" transform="matrix(12,0,0,12,184.4,695.3)" />
<use xlink:href="#f2_24" transform="matrix(12,0,0,12,201.7,695.3)" />
<use xlink:href="#f2_1x" transform="matrix(12,0,0,12,211.9,695.3)" />
<use xlink:href="#f2_2g" transform="matrix(12,0,0,12,222.1,695.3)" />
<use xlink:href="#f2_1x" transform="matrix(12,0,0,12,232.3,695.3)" />
<use xlink:href="#f2_2e" transform="matrix(12,0,0,12,242.5,695.3)" />
<use xlink:href="#f2_21" transform="matrix(12,0,0,12,248.6,695.3)" />
<use xlink:href="#f2_2g" transform="matrix(12,0,0,12,263.9,695.3)" />
<use xlink:href="#f2_24" transform="matrix(12,0,0,12,269,695.3)" />
<use xlink:href="#f2_21" transform="matrix(12,0,0,12,279.2,695.3)" />
<use xlink:href="#f2_2h" transform="matrix(12,0,0,12,294.5,695.3)" />
<use xlink:href="#f2_2a" transform="matrix(12,0,0,12,304.7,695.3)" />
<use xlink:href="#f2_25" transform="matrix(12,0,0,12,314.8,695.3)" />
<use xlink:href="#f2_2g" transform="matrix(12,0,0,12,318.9,695.3)" />
<use xlink:href="#f2_2f" transform="matrix(12,0,0,12,324,695.3)" />
<use xlink:href="#f2_2b" transform="matrix(12,0,0,12,338.3,695.3)" />
<use xlink:href="#f2_22" transform="matrix(12,0,0,12,348.5,695.3)" />
<use xlink:href="#f2_29" transform="matrix(12,0,0,12,358.7,695.3)" />
<use xlink:href="#f2_2b" transform="matrix(12,0,0,12,373.9,695.3)" />
<use xlink:href="#f2_28" transform="matrix(12,0,0,12,384.1,695.3)" />
<use xlink:href="#f2_1x" transform="matrix(12,0,0,12,388.2,695.3)" />
<use xlink:href="#f2_2e" transform="matrix(12,0,0,12,398.4,695.3)" />
<use xlink:href="#f2_1z" transform="matrix(12,0,0,12,409.6,695.3)" />
<use xlink:href="#f2_2b" transform="matrix(12,0,0,12,418.8,695.3)" />
<use xlink:href="#f2_2a" transform="matrix(12,0,0,12,429,695.3)" />
<use xlink:href="#f2_20" transform="matrix(12,0,0,12,439.1,695.3)" />
<use xlink:href="#f2_2h" transform="matrix(12,0,0,12,449.3,695.3)" />
<use xlink:href="#f2_1z" transform="matrix(12,0,0,12,459.5,695.3)" />
<use xlink:href="#f2_2g" transform="matrix(12,0,0,12,468.7,695.3)" />
<use xlink:href="#f2_25" transform="matrix(12,0,0,12,473.8,695.3)" />
<use xlink:href="#f2_2i" transform="matrix(12,0,0,12,477.8,695.3)" />
<use xlink:href="#f2_25" transform="matrix(12,0,0,12,487,695.3)" />
<use xlink:href="#f2_2g" transform="matrix(12,0,0,12,491.1,695.3)" />
<use xlink:href="#f2_2l" transform="matrix(12,0,0,12,496.2,695.3)" />
<use xlink:href="#f2_z" transform="matrix(12,0,0,12,505.3,695.3)" />
<use xlink:href="#f1_c" transform="matrix(12,0,0,12,184.4,716.5)" />
<use xlink:href="#f1_1z" transform="matrix(12,0,0,12,195.7,716.5)" />
<use xlink:href="#f1_29" transform="matrix(12,0,0,12,205.9,716.5)" />
<use xlink:href="#f1_m" transform="matrix(8,0,0,8,222.2,708)" />
<use xlink:href="#f1_2b" transform="matrix(12,0,0,12,234.1,716.5)" />
<use xlink:href="#f1_24" transform="matrix(12,0,0,12,245.3,716.5)" />
<use xlink:href="#f1_29" transform="matrix(12,0,0,12,256.5,716.5)" />
<use xlink:href="#f1_h" transform="matrix(8,0,0,8,272.8,708)" />
<use xlink:href="#f1_l" transform="matrix(8,0,0,8,276.7,708)" />
<use xlink:href="#f1_29" transform="matrix(12,0,0,12,288.6,716.5)" />
<use xlink:href="#f1_2b" transform="matrix(12,0,0,12,305,716.5)" />
<use xlink:href="#f1_28" transform="matrix(12,0,0,12,316.2,716.5)" />
<use xlink:href="#f1_h" transform="matrix(8,0,0,8,321.3,708)" />
<use xlink:href="#f1_l" transform="matrix(8,0,0,8,325.3,708)" />
<use xlink:href="#f1_2b" transform="matrix(12,0,0,12,337.2,716.5)" />
<use xlink:href="#f1_2e" transform="matrix(12,0,0,12,348.4,716.5)" />
<use xlink:href="#f1_1j" transform="matrix(12,0,0,12,360.6,716.5)" />
<use xlink:href="#f1_1z" transform="matrix(12,0,0,12,372.8,716.5)" />
<use xlink:href="#f1_29" transform="matrix(12,0,0,12,383,716.5)" />
<use xlink:href="#f1_m" transform="matrix(8,0,0,8,399.3,708)" />
<use xlink:href="#f1_29" transform="matrix(12,0,0,12,406.1,716.5)" />
<use xlink:href="#f1_2b" transform="matrix(12,0,0,12,422.4,716.5)" />
<use xlink:href="#f1_28" transform="matrix(12,0,0,12,433.6,716.5)" />
<use xlink:href="#f1_h" transform="matrix(8,0,0,8,438.7,708)" />
<use xlink:href="#f1_l" transform="matrix(8,0,0,8,442.8,708)" />
<use xlink:href="#f1_d" transform="matrix(8,0,0,8,449.5,708)" />
<use xlink:href="#f2_p" transform="matrix(12,0,0,12,156.9,758.6)" />
<use xlink:href="#f2_i" transform="matrix(12,0,0,12,167.1,758.6)" />
<use xlink:href="#f2_1n" transform="matrix(12,0,0,12,184.4,758.6)" />
<use xlink:href="#f2_2e" transform="matrix(12,0,0,12,201.7,758.6)" />
<use xlink:href="#f2_25" transform="matrix(12,0,0,12,207.8,758.6)" />
<use xlink:href="#f2_2g" transform="matrix(12,0,0,12,211.9,758.6)" />
<use xlink:href="#f2_21" transform="matrix(12,0,0,12,217,758.6)" />
<use xlink:href="#f2_1e" transform="matrix(12,0,0,12,232.3,758.6)" />
<use xlink:href="#f2_21" transform="matrix(12,0,0,12,245.5,758.6)" />
<use xlink:href="#f2_2e" transform="matrix(12,0,0,12,255.7,758.6)" />
<use xlink:href="#f2_2a" transform="matrix(12,0,0,12,261.8,758.6)" />
<use xlink:href="#f2_2f" transform="matrix(12,0,0,12,272,758.6)" />
<use xlink:href="#f2_2g" transform="matrix(12,0,0,12,281.2,758.6)" />
<use xlink:href="#f2_21" transform="matrix(12,0,0,12,291.4,758.6)" />
<use xlink:href="#f2_2d" transform="matrix(12,0,0,12,301.6,758.6)" />
<use xlink:href="#f2_2h" transform="matrix(12,0,0,12,311.8,758.6)" />
<use xlink:href="#f2_1x" transform="matrix(12,0,0,12,321.9,758.6)" />
<use xlink:href="#f2_2g" transform="matrix(12,0,0,12,332.1,758.6)" />
<use xlink:href="#f2_25" transform="matrix(12,0,0,12,337.2,758.6)" />
<use xlink:href="#f2_2b" transform="matrix(12,0,0,12,341.3,758.6)" />
<use xlink:href="#f2_2a" transform="matrix(12,0,0,12,351.5,758.6)" />
<use xlink:href="#f2_4y" transform="matrix(12,0,0,12,366.8,758.6)" />
<use xlink:href="#f2_16" transform="matrix(12,0,0,12,184.4,779.6)" />
<use xlink:href="#f2_2b" transform="matrix(12,0,0,12,195.6,779.6)" />
<use xlink:href="#f2_2e" transform="matrix(12,0,0,12,205.8,779.6)" />
<use xlink:href="#f2_2g" transform="matrix(12,0,0,12,217,779.6)" />
<use xlink:href="#f2_24" transform="matrix(12,0,0,12,222.1,779.6)" />
<use xlink:href="#f2_21" transform="matrix(12,0,0,12,232.3,779.6)" />
<use xlink:href="#f2_23" transform="matrix(12,0,0,12,247.6,779.6)" />
<use xlink:href="#f2_21" transform="matrix(12,0,0,12,257.8,779.6)" />
<use xlink:href="#f2_2a" transform="matrix(12,0,0,12,268,779.6)" />
<use xlink:href="#f2_21" transform="matrix(12,0,0,12,278.2,779.6)" />
<use xlink:href="#f2_2e" transform="matrix(12,0,0,12,288.4,779.6)" />
<use xlink:href="#f2_1x" transform="matrix(12,0,0,12,294.5,779.6)" />
<use xlink:href="#f2_28" transform="matrix(12,0,0,12,304.7,779.6)" />
<use xlink:href="#f2_1z" transform="matrix(12,0,0,12,313.9,779.6)" />
<use xlink:href="#f2_21" transform="matrix(12,0,0,12,323,779.6)" />
<use xlink:href="#f2_28" transform="matrix(12,0,0,12,333.2,779.6)" />
<use xlink:href="#f2_28" transform="matrix(12,0,0,12,337.3,779.6)" />
<use xlink:href="#f2_2e" transform="matrix(12,0,0,12,346.5,779.6)" />
<use xlink:href="#f2_21" transform="matrix(12,0,0,12,352.6,779.6)" />
<use xlink:href="#f2_1x" transform="matrix(12,0,0,12,362.8,779.6)" />
<use xlink:href="#f2_1z" transform="matrix(12,0,0,12,373,779.6)" />
<use xlink:href="#f2_2g" transform="matrix(12,0,0,12,382.1,779.6)" />
<use xlink:href="#f2_25" transform="matrix(12,0,0,12,387.2,779.6)" />
<use xlink:href="#f2_2b" transform="matrix(12,0,0,12,391.3,779.6)" />
<use xlink:href="#f2_2a" transform="matrix(12,0,0,12,401.5,779.6)" />
<use xlink:href="#f1_1x" transform="matrix(12,0,0,12,189.5,800.8)" />
<use xlink:href="#f1_11" transform="matrix(12,0,0,12,199.7,800.8)" />
<use xlink:href="#f1_f" transform="matrix(12,0,0,12,213,800.8)" />
<use xlink:href="#f1_1y" transform="matrix(12,0,0,12,223.7,800.8)" />
<use xlink:href="#f1_12" transform="matrix(12,0,0,12,234.9,800.8)" />
<use xlink:href="#f5_8r" transform="matrix(12,0,0,12,248,800.8)" />
<use xlink:href="#f1_1z" transform="matrix(12,0,0,12,266.4,800.8)" />
<use xlink:href="#f1_13" transform="matrix(12,0,0,12,276.6,800.8)" />
<use xlink:href="#f1_f" transform="matrix(12,0,0,12,289.8,800.8)" />
<use xlink:href="#f1_20" transform="matrix(12,0,0,12,300.5,800.8)" />
<use xlink:href="#f1_14" transform="matrix(12,0,0,12,311.8,800.8)" />
</g>
<path d="M344.6,866.3H369v-1.9H344.6v1.9Z" class="g1_18" />
<g fill="#000000" >
<use xlink:href="#f2_11" transform="matrix(12,0,0,12,163,847.2)" />
<use xlink:href="#f2_2a" transform="matrix(12,0,0,12,175.3,847.2)" />
<use xlink:href="#f2_2f" transform="matrix(12,0,0,12,185.5,847.2)" />
<use xlink:href="#f2_i" transform="matrix(12,0,0,12,194.6,847.2)" />
<use xlink:href="#f1_15" transform="matrix(12,0,0,12,210,847.2)" />
<use xlink:href="#f1_1z" transform="matrix(12,0,0,12,222.2,847.2)" />
<use xlink:href="#f1_21" transform="matrix(12,0,0,12,232.4,847.2)" />
<use xlink:href="#f1_28" transform="matrix(12,0,0,12,242.5,847.2)" />
<use xlink:href="#f1_28" transform="matrix(12,0,0,12,247.6,847.2)" />
<use xlink:href="#f1_x" transform="matrix(12,0,0,12,257.9,847.2)" />
<use xlink:href="#f1_15" transform="matrix(12,0,0,12,273.7,847.2)" />
<use xlink:href="#f1_k" transform="matrix(8,0,0,8,285.9,838.7)" />
<use xlink:href="#f1_1z" transform="matrix(12,0,0,12,292.7,847.2)" />
<use xlink:href="#f1_21" transform="matrix(12,0,0,12,302.9,847.2)" />
<use xlink:href="#f1_28" transform="matrix(12,0,0,12,313.1,847.2)" />
<use xlink:href="#f1_28" transform="matrix(12,0,0,12,318.2,847.2)" />
<use xlink:href="#f1_h" transform="matrix(12,0,0,12,323.3,847.2)" />
<use xlink:href="#f1_1i" transform="matrix(12,0,0,12,329.3,847.2)" />
<use xlink:href="#f1_1k" transform="matrix(12,0,0,12,342.5,847.2)" />
<use xlink:href="#f1_28" transform="matrix(12,0,0,12,353.7,847.2)" />
<use xlink:href="#f1_2a" transform="matrix(12,0,0,12,358.8,847.2)" />
<use xlink:href="#f1_1r" transform="matrix(12,0,0,12,370,847.2)" />
<use xlink:href="#f1_13" transform="matrix(12,0,0,12,376.1,847.2)" />
<use xlink:href="#f1_1t" transform="matrix(12,0,0,12,389.4,847.2)" />
<use xlink:href="#f1_1z" transform="matrix(8,0,0,8,395.5,838.7)" />
<use xlink:href="#f1_1r" transform="matrix(12,0,0,12,402.3,847.2)" />
<use xlink:href="#f1_1r" transform="matrix(12,0,0,12,408.4,847.2)" />
<use xlink:href="#f1_14" transform="matrix(12,0,0,12,414.5,847.2)" />
<use xlink:href="#f1_1t" transform="matrix(12,0,0,12,427.8,847.2)" />
<use xlink:href="#f1_20" transform="matrix(8,0,0,8,433.8,838.7)" />
</g>
<path d="M370,851h71.2v-1.9H370V851Z" class="g1_18" />
<g fill="#000000" >
<use xlink:href="#f1_2a" transform="matrix(12,0,0,12,222.7,891.3)" />
<use xlink:href="#f1_16" transform="matrix(12,0,0,12,233.9,891.3)" />
<use xlink:href="#f1_1r" transform="matrix(12,0,0,12,260.4,891.3)" />
<use xlink:href="#f1_11" transform="matrix(12,0,0,12,266.5,891.3)" />
<use xlink:href="#f1_1t" transform="matrix(12,0,0,12,279.8,891.3)" />
<use xlink:href="#f1_1x" transform="matrix(8,0,0,8,285.7,882.8)" />
<use xlink:href="#f1_1r" transform="matrix(12,0,0,12,292.5,891.3)" />
<use xlink:href="#f1_12" transform="matrix(12,0,0,12,298.6,891.3)" />
<use xlink:href="#f1_1t" transform="matrix(12,0,0,12,311.9,891.3)" />
<use xlink:href="#f1_1y" transform="matrix(8,0,0,8,318,882.8)" />
<use xlink:href="#f6_l" transform="matrix(8,0,0,8,818.2,1171.4)" />
</g>
<g fill="#0080FF" fill-opacity="0.5" >
<use xlink:href="#f0_1c" transform="matrix(48.7,0,0,48.7,233.8,1114.8)" />
<use xlink:href="#f0_21" transform="matrix(48.7,0,0,48.7,275.1,1114.8)" />
<use xlink:href="#f0_1x" transform="matrix(48.7,0,0,48.7,316.5,1114.8)" />
<use xlink:href="#f0_2e" transform="matrix(48.7,0,0,48.7,357.9,1114.8)" />
<use xlink:href="#f0_2a" transform="matrix(48.7,0,0,48.7,382.7,1114.8)" />
<use xlink:href="#f0_17" transform="matrix(48.7,0,0,48.7,424.1,1114.8)" />
<use xlink:href="#f0_2h" transform="matrix(48.7,0,0,48.7,482.1,1114.8)" />
<use xlink:href="#f0_25" transform="matrix(48.7,0,0,48.7,523.5,1114.8)" />
<use xlink:href="#f0_20" transform="matrix(48.7,0,0,48.7,540,1114.8)" />
<use xlink:href="#f0_21" transform="matrix(48.7,0,0,48.7,581.4,1114.8)" />
<use xlink:href="#f0_i" transform="matrix(48.7,0,0,48.7,622.8,1114.8)" />
<use xlink:href="#f0_25" transform="matrix(48.7,0,0,48.7,643.5,1114.8)" />
<use xlink:href="#f0_2a" transform="matrix(48.7,0,0,48.7,660,1114.8)" />
</g>
<defs>
<path d="M593,101c0,0,182,0,279,112c0,0,98,113,98,318c0,0,0,196,-98,308c0,0,-98,112,-277,112c0,0,-181,0,-279,-110c0,0,-99,-111,-99,-310c0,0,0,-198,100,-314c0,0,99,-116,276,-116Zm0,-115c0,0,-162,0,-279,65c0,0,-118,66,-180,190c0,0,-62,124,-62,290c0,0,0,252,138,394c0,0,138,142,385,142c0,0,160,0,278,-64c0,0,118,-64,180,-185c0,0,62,-122,62,-287c0,0,0,-165,-63,-289c0,0,-63,-124,-181,-190c0,0,-118,-66,-278,-66Z" 
id="f0_1f"
transform="scale(0.001,-0.001)" />

<path d="M106,0V635c0,0,0,141,-5,173H228c0,0,1,-4,2,-21c0,0,1,-16,2,-37c0,0,1,-22,2,-81h2c0,0,47,84,108,119c0,0,60,34,151,34c0,0,132,0,194,-66c0,0,61,-66,61,-218V0H615V512c0,0,0,80,-15,124c0,0,-16,44,-50,63c0,0,-35,20,-101,20c0,0,-97,0,-153,-67c0,0,-56,-66,-56,-184V0Z" 
id="f0_2a"
transform="scale(0.001,-0.001)" />

<path d="M103,0V1107H237V0Z" 
id="f0_28"
transform="scale(0.001,-0.001)" />

<path d="M102,0V808H236V0Zm0,979v128H236V979Z" 
id="f0_25"
transform="scale(0.001,-0.001)" />

<path d="M643,478c0,0,-11,128,-65,187c0,0,-54,59,-154,59c0,0,-98,0,-155,-66c0,0,-57,-65,-62,-180ZM431,-14c0,0,-179,0,-272,106c0,0,-94,107,-94,317c0,0,0,200,94,307c0,0,93,106,267,106c0,0,356,0,356,-429V375H206c0,0,0,-138,57,-213c0,0,58,-75,168,-75c0,0,87,0,140,35c0,0,53,35,71,88L760,177c0,0,-72,-191,-329,-191Z" 
id="f0_21"
transform="scale(0.001,-0.001)" />

<path d="M17,0L304,415L31,808H179L380,493L580,808H730L457,417L747,0H598L380,331L162,0Z" 
id="f0_2k"
transform="scale(0.001,-0.001)" />

<path d="M339,87c0,0,74,0,132,34c0,0,57,33,90,91c0,0,34,59,34,121v66L448,396c0,0,-95,-2,-144,-19c0,0,-49,-18,-75,-55c0,0,-26,-38,-26,-98c0,0,0,-65,35,-101c0,0,36,-36,101,-36ZM309,-14c0,0,-122,0,-183,64c0,0,-61,64,-61,176c0,0,0,125,82,192c0,0,83,67,266,72l182,3v44c0,0,0,98,-42,141c0,0,-42,43,-132,43c0,0,-90,0,-131,-31c0,0,-41,-31,-49,-98L101,604c0,0,34,218,323,218c0,0,153,0,229,-70c0,0,77,-69,77,-202V202c0,0,0,-59,16,-90c0,0,16,-30,60,-30c0,0,19,0,44,5V4C850,4,799,-7,746,-7c0,0,-75,0,-109,38c0,0,-33,40,-38,124h-4C595,155,543,62,475,24c0,0,-68,-38,-166,-38Z" 
id="f0_1x"
transform="scale(0.001,-0.001)" />

<path d="M106,0V635c0,0,0,141,-5,173H228c0,0,1,-4,2,-21c0,0,1,-16,2,-37c0,0,1,-22,2,-81h2c0,0,44,86,100,120c0,0,56,33,136,33c0,0,92,0,145,-36c0,0,54,-37,75,-117h2c0,0,42,82,101,117c0,0,59,36,143,36c0,0,123,0,178,-66c0,0,56,-67,56,-218V0H1039V512c0,0,0,117,-32,162c0,0,-32,45,-116,45c0,0,-88,0,-136,-66c0,0,-49,-65,-49,-185V0H573V512c0,0,0,117,-32,162c0,0,-32,45,-116,45c0,0,-86,0,-136,-66c0,0,-50,-66,-50,-185V0Z" 
id="f0_29"
transform="scale(0.001,-0.001)" />

<path d="M453,84c0,0,100,0,146,74c0,0,46,73,46,247c0,0,0,169,-46,241c0,0,-45,73,-145,73c0,0,-80,0,-125,-34c0,0,-45,-34,-68,-105c0,0,-24,-71,-24,-186c0,0,0,-159,51,-234c0,0,51,-76,165,-76ZM103,-316V643c0,0,0,124,-5,165H228c0,0,1,-3,3,-22c0,0,1,-18,3,-56c0,0,2,-38,2,-52h3c0,0,36,75,94,110c0,0,59,34,156,34c0,0,149,0,223,-100c0,0,74,-100,74,-314c0,0,0,-422,-297,-422c0,0,-187,0,-251,140h-4c0,0,3,-6,3,-126V-316Z" 
id="f0_2c"
transform="scale(0.001,-0.001)" />

<path d="M420,84c0,0,121,0,173,78c0,0,52,77,52,243c0,0,0,167,-50,243c0,0,-50,76,-167,76c0,0,-118,0,-170,-78c0,0,-53,-77,-53,-241c0,0,0,-160,52,-241c0,0,52,-80,163,-80Zm1,-98c0,0,-176,0,-267,107c0,0,-90,108,-90,312c0,0,0,417,362,417c0,0,185,0,272,-102c0,0,88,-101,88,-315c0,0,0,-212,-94,-316C692,89,599,-14,421,-14Z" 
id="f0_2b"
transform="scale(0.001,-0.001)" />

<path d="M278,-11c0,0,-162,0,-162,182V710H23v98h99l39,181h90V808H400V710H251V200c0,0,0,-58,19,-82c0,0,19,-23,66,-23c0,0,27,0,77,10V6c0,0,-66,-17,-135,-17Z" 
id="f0_2g"
transform="scale(0.001,-0.001)" />

<path d="M590,165c0,0,48,0,90,16c0,0,-67,44,-136,68l62,126c0,0,108,-37,208,-111c0,0,42,50,64,121c0,0,21,70,21,162c0,0,0,190,-84,283c0,0,-83,94,-218,94c0,0,-135,0,-219,-94c0,0,-84,-94,-84,-283c0,0,0,-192,84,-287c0,0,84,-95,212,-95Zm497,-273c0,0,-50,14,-98,41c0,0,-11,5,-147,95c0,0,-107,-46,-238,-46c0,0,-252,0,-395,148C209,130,66,278,66,547c0,0,0,268,144,417c0,0,143,149,388,149c0,0,244,0,386,-149c0,0,143,-149,143,-417c0,0,0,-142,-40,-249c0,0,-30,-83,-96,-159c0,0,81,-59,177,-93l-81,-154Z" 
id="f1_1h"
transform="scale(0.001,-0.001)" />

<path d="M559,-18c0,0,-157,0,-238,36c0,0,-81,36,-128,94c0,0,-47,57,-62,121c0,0,-21,94,-21,277v583H330V501c0,0,0,-141,9,-182c0,0,14,-68,67,-108c0,0,54,-41,146,-41c0,0,94,0,142,39c0,0,48,38,57,94c0,0,10,56,10,185v605H982V519c0,0,0,-197,-18,-278c0,0,-18,-81,-66,-137c0,0,-48,-56,-129,-89c0,0,-80,-33,-210,-33Z" 
id="f1_1l"
transform="scale(0.001,-0.001)" />

<path d="M111,0V1093H922V908H332V666H881V481H332V185H943V0Z" 
id="f1_15"
transform="scale(0.001,-0.001)" />

<path d="M506,-19c0,0,-207,0,-318,95C188,76,76,172,55,356l215,20c0,0,19,-108,79,-158c0,0,59,-51,160,-51c0,0,106,0,161,45c0,0,54,45,54,106c0,0,0,38,-23,66c0,0,-23,27,-80,47c0,0,-38,13,-177,48c0,0,-178,44,-249,108c0,0,-101,90,-101,220c0,0,0,84,47,157c0,0,48,73,137,111c0,0,89,38,216,38c0,0,206,0,310,-91c0,0,104,-90,109,-241L692,771c0,0,-14,85,-60,122c0,0,-47,37,-141,37c0,0,-96,0,-151,-40c0,0,-35,-25,-35,-68c0,0,0,-39,33,-66c0,0,42,-35,203,-73c0,0,162,-38,239,-79c0,0,77,-41,121,-111c0,0,44,-71,44,-175c0,0,0,-94,-53,-176C892,142,840,60,745,20c0,0,-96,-39,-239,-39Z" 
id="f1_1j"
transform="scale(0.001,-0.001)" />

<path d="M359,0V908H34v185H903V908H580V0Z" 
id="f1_1k"
transform="scale(0.001,-0.001)" />

<path d="M105,0V1093H326V0Z" 
id="f1_19"
transform="scale(0.001,-0.001)" />

<path d="M598,170c0,0,132,0,216,95c0,0,85,95,85,286c0,0,0,188,-82,280c0,0,-83,93,-219,93c0,0,-137,0,-220,-94c0,0,-84,-93,-84,-282c0,0,0,-186,86,-282c0,0,86,-96,218,-96Zm0,-188c0,0,-244,0,-388,148C210,130,66,279,66,540c0,0,0,167,50,281c0,0,38,84,102,150c0,0,65,66,142,98c0,0,102,44,235,44c0,0,242,0,387,-150c0,0,145,-150,145,-417c0,0,0,-265,-144,-415C983,131,839,-18,598,-18Z" 
id="f1_1f"
transform="scale(0.001,-0.001)" />

<path d="M113,0V1093H327L777,361v732H981V0H760L318,716V0Z" 
id="f1_1e"
transform="scale(0.001,-0.001)" />

<path d="M571,-18c0,0,-218,0,-358,148C213,130,72,279,72,537c0,0,0,273,141,425c0,0,141,151,371,151c0,0,201,0,326,-119c0,0,75,-70,112,-202L803,740c0,0,-19,85,-81,135c0,0,-61,49,-149,49c0,0,-122,0,-197,-87c0,0,-76,-88,-76,-283c0,0,0,-208,75,-296c0,0,74,-88,194,-88c0,0,88,0,151,56c0,0,63,56,91,177l214,-68c0,0,-49,-179,-164,-266c0,0,-114,-87,-290,-87Z" 
id="f1_13"
transform="scale(0.001,-0.001)" />

<path d="M692,433L540,838L392,433ZM0,0L425,1093H660L1098,0H858L763,248H325L234,0Z" 
id="f1_11"
transform="scale(0.001,-0.001)" />

<path d="M496,632c0,0,159,0,198,13c0,0,40,13,62,46c0,0,23,33,23,82c0,0,0,55,-30,89c0,0,-29,34,-83,43c0,0,-27,3,-161,3H332V632ZM111,0V1093H577c0,0,175,0,254,-29c0,0,80,-30,128,-105c0,0,48,-75,48,-172c0,0,0,-123,-73,-203c0,0,-72,-80,-216,-101c0,0,72,-42,118,-92c0,0,47,-50,126,-178L1096,0H831L672,238c0,0,-85,128,-117,161c0,0,-31,33,-66,45c0,0,-35,13,-112,13H332V0Z" 
id="f1_1i"
transform="scale(0.001,-0.001)" />

<path d="M628,-18c0,0,-171,0,-299,71c0,0,-127,72,-192,206c0,0,-64,134,-64,292c0,0,0,171,72,304c0,0,71,132,209,203c0,0,105,55,262,55c0,0,203,0,318,-86c0,0,114,-85,147,-236L862,750c0,0,-23,81,-87,127c0,0,-64,47,-159,47c0,0,-144,0,-230,-92c0,0,-85,-92,-85,-272c0,0,0,-195,87,-292c0,0,86,-98,226,-98c0,0,69,0,139,27c0,0,70,28,120,66V402H620V587h475V151c0,0,-69,-67,-200,-118c0,0,-132,-51,-267,-51Z" 
id="f1_17"
transform="scale(0.001,-0.001)" />

<path d="M392,0V790C392,790,277,682,121,631V821c0,0,82,27,178,102c0,0,97,75,132,175H601V0Z" 
id="f1_l"
transform="scale(0.001,-0.001)" />

<path d="M109,0V1093H439L637,347l196,746h331V0H959V861L742,0H529L313,861V0Z" 
id="f1_1d"
transform="scale(0.001,-0.001)" />

<path d="M114,0V1093H335V609l446,484h296L666,668L1100,0H814L513,513L335,330V0Z" 
id="f1_1b"
transform="scale(0.001,-0.001)" />

<path d="M435,0V856c0,0,-48,-47,-127,-93c0,0,-79,-46,-142,-69V824c0,0,113,52,197,128c0,0,85,75,120,146h86V0Z" 
id="f2_l"
transform="scale(0.001,-0.001)" />

<path d="M139,0V153H291V0Z" 
id="f2_i"
transform="scale(0.001,-0.001)" />

<path d="M308,0L19,1093H167L333,377c0,0,27,-113,47,-224c0,0,42,175,49,202l209,738H812L968,540c0,0,59,-206,86,-387c0,0,21,103,55,238l170,702h146L1126,0H985L756,834c0,0,-29,104,-35,127c0,0,-18,-75,-32,-128L457,0Z" 
id="f2_1n"
transform="scale(0.001,-0.001)" />

<path d="M101,0V1093H235V701c0,0,94,109,237,109c0,0,88,0,153,-35c0,0,65,-35,93,-96c0,0,28,-61,28,-177V0H612V502c0,0,0,101,-44,146c0,0,-43,46,-123,46c0,0,-60,0,-113,-31c0,0,-52,-31,-75,-84c0,0,-22,-53,-22,-146V0Z" 
id="f2_24"
transform="scale(0.001,-0.001)" />

<path d="M358,88c0,0,78,0,139,34c0,0,60,34,89,92c0,0,21,46,21,134l1,49c0,0,-73,-30,-221,-51c0,0,-83,-11,-117,-26c0,0,-35,-15,-54,-44c0,0,-18,-28,-18,-63c0,0,0,-54,40,-89c0,0,41,-36,120,-36ZM326,-17c0,0,-131,0,-201,63c0,0,-70,64,-70,163c0,0,0,58,26,106c0,0,27,48,70,77c0,0,43,29,97,44c0,0,39,11,119,20c0,0,163,20,240,47c0,0,1,27,1,35c0,0,0,81,-38,115c0,0,-52,45,-153,45c0,0,-95,0,-141,-33c0,0,-45,-33,-67,-116L78,566c0,0,18,84,59,136c0,0,41,52,119,80c0,0,78,28,180,28c0,0,102,0,165,-24c0,0,64,-24,94,-60c0,0,29,-36,41,-91c0,0,7,-35,7,-124V332c0,0,0,-187,9,-236c0,0,8,-50,33,-96H645c0,0,-20,42,-26,98C619,98,544,34,475,8c0,0,-70,-25,-149,-25Z" 
id="f2_1x"
transform="scale(0.001,-0.001)" />

<path d="M312,-10c0,0,-73,0,-114,22c0,0,-40,23,-56,61c0,0,-17,38,-17,159V687H26V792h99V988l134,81V792H394V687H259V224c0,0,0,-57,7,-74c0,0,7,-16,23,-26c0,0,16,-10,46,-10c0,0,23,0,59,6L414,1c0,0,-57,-11,-102,-11Z" 
id="f2_2g"
transform="scale(0.001,-0.001)" />

<path d="M102,0V792H236V0Zm0,939v154H236V939Z" 
id="f2_25"
transform="scale(0.001,-0.001)" />

<path d="M386,-17c0,0,-155,0,-236,64c0,0,-81,64,-103,190l133,20c0,0,11,-79,62,-122c0,0,51,-42,143,-42c0,0,93,0,138,37c0,0,44,38,44,89c0,0,0,45,-39,71c0,0,-28,18,-138,46c0,0,-147,37,-204,64c0,0,-58,27,-87,75c0,0,-30,48,-30,107c0,0,0,52,25,98c0,0,24,45,66,74c0,0,31,24,85,40c0,0,54,16,116,16c0,0,93,0,164,-27c0,0,70,-27,104,-73c0,0,33,-46,46,-122L544,570c0,0,-9,61,-52,95c0,0,-43,34,-121,34c0,0,-93,0,-132,-30c0,0,-40,-31,-40,-72c0,0,0,-26,17,-47c0,0,16,-21,51,-35c0,0,20,-8,119,-35c0,0,142,-38,199,-62c0,0,56,-24,88,-70c0,0,32,-47,32,-115c0,0,0,-67,-39,-126c0,0,-39,-60,-113,-92c0,0,-74,-32,-167,-32Z" 
id="f2_2f"
transform="scale(0.001,-0.001)" />

<path d="M644,472c0,0,-9,100,-50,150c0,0,-65,77,-167,77c0,0,-93,0,-156,-62c0,0,-63,-61,-70,-165ZM433,-17c0,0,-174,0,-275,106C158,89,56,196,56,389c0,0,0,200,103,310c0,0,103,111,267,111c0,0,159,0,259,-108c0,0,101,-109,101,-304c0,0,0,-12,-1,-36H194c0,0,7,-131,74,-200c0,0,66,-69,166,-69c0,0,74,0,126,39c0,0,52,39,83,124L782,239C782,239,749,117,660,50c0,0,-89,-67,-227,-67Z" 
id="f2_21"
transform="scale(0.001,-0.001)" />

<path d="M133,0V687H14V792H133v84c0,0,0,80,14,119c0,0,19,52,68,84c0,0,49,33,138,33c0,0,56,0,125,-14L458,981c0,0,-42,8,-79,8c0,0,-62,0,-87,-27c0,0,-25,-26,-25,-97V792H421V687H267V0Z" 
id="f2_22"
transform="scale(0.001,-0.001)" />

<path d="M420,-17c0,0,-163,0,-262,106c0,0,-98,106,-98,304c0,0,0,128,42,224c0,0,43,96,129,145c0,0,87,48,189,48c0,0,129,0,211,-66c0,0,82,-65,106,-185L606,539c0,0,-19,80,-66,120c0,0,-48,40,-115,40c0,0,-101,0,-164,-72c0,0,-63,-73,-63,-230c0,0,0,-160,61,-232c0,0,61,-72,159,-72c0,0,79,0,132,48c0,0,53,49,67,149L749,273C749,273,728,137,639,59c0,0,-90,-76,-219,-76Z" 
id="f2_1z"
transform="scale(0.001,-0.001)" />

<path d="M422,93c0,0,100,0,167,76c0,0,66,76,66,231c0,0,0,147,-67,223c0,0,-66,75,-166,75c0,0,-100,0,-167,-75c0,0,-66,-75,-66,-227c0,0,0,-152,66,-228c0,0,67,-75,167,-75Zm0,-110c0,0,-166,0,-269,106C153,89,51,196,51,396c0,0,0,220,122,326c0,0,102,88,249,88c0,0,164,0,267,-107c0,0,104,-107,104,-296c0,0,0,-153,-46,-240C747,167,701,79,614,31c0,0,-88,-48,-192,-48Z" 
id="f2_2b"
transform="scale(0.001,-0.001)" />

<path d="M101,0V792H220V681c0,0,37,58,99,93c0,0,62,36,141,36c0,0,88,0,145,-37c0,0,56,-36,79,-102c0,0,94,139,245,139c0,0,118,0,182,-66c0,0,63,-65,63,-201V0H1040V499c0,0,0,80,-13,116c0,0,-13,35,-47,57c0,0,-35,21,-81,21c0,0,-83,0,-139,-55c0,0,-55,-56,-55,-178V0H571V514c0,0,0,90,-33,135c0,0,-33,44,-107,44c0,0,-57,0,-105,-30c0,0,-48,-29,-70,-87c0,0,-21,-57,-21,-165V0Z" 
id="f2_29"
transform="scale(0.001,-0.001)" />

<path d="M433,93c0,0,90,0,154,75c0,0,63,76,63,235c0,0,0,151,-62,226c0,0,-62,75,-149,75c0,0,-85,0,-151,-80c0,0,-66,-80,-66,-233c0,0,0,-152,62,-225c0,0,62,-73,149,-73ZM101,-303V792H223V688c0,0,43,61,98,91c0,0,54,31,132,31c0,0,101,0,179,-53c0,0,77,-52,117,-147c0,0,39,-95,39,-208c0,0,0,-122,-44,-219C744,183,701,86,618,34c0,0,-84,-51,-175,-51c0,0,-67,0,-121,28c0,0,-53,28,-87,71V-303Z" 
id="f2_2c"
transform="scale(0.001,-0.001)" />

<path d="M99,0V792H219V672c0,0,46,84,86,111c0,0,39,27,86,27c0,0,68,0,138,-43L482,642c0,0,-49,29,-98,29c0,0,-44,0,-79,-27c0,0,-35,-26,-50,-73c0,0,-22,-72,-22,-157V0Z" 
id="f2_2e"
transform="scale(0.001,-0.001)" />

<path d="M369,-17c0,0,-70,0,-131,26c0,0,-61,27,-91,68c0,0,-29,40,-41,99c0,0,-8,40,-8,125V792H232V353c0,0,0,-105,8,-142c0,0,13,-53,54,-83c0,0,41,-30,101,-30c0,0,61,0,114,31c0,0,53,31,75,84c0,0,22,53,22,155V792H740V0H621V116c0,0,-93,-133,-252,-133Z" 
id="f2_2h"
transform="scale(0.001,-0.001)" />

<path d="M101,0V792H221V679c0,0,87,131,252,131c0,0,72,0,132,-26c0,0,60,-26,90,-68c0,0,30,-41,42,-99c0,0,7,-37,7,-130V0H610V482c0,0,0,82,-16,122c0,0,-15,41,-55,65c0,0,-40,24,-94,24c0,0,-86,0,-148,-54c0,0,-62,-55,-62,-207V0Z" 
id="f2_2a"
transform="scale(0.001,-0.001)" />

<path d="M98,0V1093H232V0Z" 
id="f2_28"
transform="scale(0.001,-0.001)" />

<path d="M406,93c0,0,88,0,149,72c0,0,62,72,62,219c0,0,0,162,-63,238c0,0,-63,76,-154,76c0,0,-90,0,-150,-73c0,0,-60,-73,-60,-230c0,0,0,-152,64,-227c0,0,64,-75,152,-75ZM393,-17c0,0,-95,0,-174,52c0,0,-80,52,-123,145c0,0,-44,94,-44,215c0,0,0,119,39,215c0,0,40,97,119,148c0,0,79,52,177,52c0,0,71,0,127,-31c0,0,56,-30,91,-79v393H739V0H615V100c0,0,-75,-117,-222,-117Z" 
id="f2_20"
transform="scale(0.001,-0.001)" />

<path d="M320,0L20,792H161L331,318c0,0,28,-77,51,-160c0,0,18,63,50,151L608,792H746L447,0Z" 
id="f2_2i"
transform="scale(0.001,-0.001)" />

<path d="M182,-321c0,0,-39,0,-87,17L80,-178c0,0,44,-12,77,-12c0,0,45,0,72,15c0,0,26,15,44,42c0,0,12,20,41,100c0,0,3,11,12,33L24,792H169L334,334c0,0,32,-87,58,-183c0,0,23,91,55,179L616,792H750L450,-13c0,0,-49,-130,-75,-179c0,0,-36,-67,-83,-98c0,0,-46,-31,-110,-31Z" 
id="f2_2l"
transform="scale(0.001,-0.001)" />

<path d="M329,0V153H481V0Zm23,269c0,0,-1,27,-1,40c0,0,0,79,23,136c0,0,16,43,53,87c0,0,26,32,96,93c0,0,70,62,91,99c0,0,21,36,21,80c0,0,0,78,-62,138c0,0,-61,59,-149,59c0,0,-86,0,-143,-54c0,0,-58,-54,-76,-169L67,796c0,0,19,153,111,234c0,0,92,82,243,82c0,0,161,0,256,-88c0,0,95,-87,95,-211c0,0,0,-72,-33,-133c0,0,-34,-60,-131,-146c0,0,-66,-58,-86,-86c0,0,-20,-27,-30,-63c0,0,-9,-36,-11,-116Z" 
id="f2_z"
transform="scale(0.001,-0.001)" />

<path d="M684,450L570,752c0,0,-52,138,-78,227c0,0,-21,-105,-59,-209L313,450ZM-1,0L417,1093H574L1021,0H857L729,331H271L152,0Z" 
id="f2_11"
transform="scale(0.001,-0.001)" />

<path d="M112,0V1093H330L590,319c0,0,35,-108,52,-162c0,0,19,60,58,175l264,761h194V0H1018V915L699,0H569L252,931V0Z" 
id="f2_1d"
transform="scale(0.001,-0.001)" />

<path d="M247,0L4,792H143L270,335L316,165c0,0,3,12,41,163L484,792H620L740,333L779,181l45,153L960,792h131L843,0H704L578,474L547,609L386,0Z" 
id="f2_2j"
transform="scale(0.001,-0.001)" />

<path d="M46,0c0,0,-2,48,16,93c0,0,27,74,88,146c0,0,61,71,176,165c0,0,178,146,241,232c0,0,63,85,63,161c0,0,0,80,-57,135c0,0,-58,55,-149,55c0,0,-98,0,-156,-59c0,0,-58,-58,-59,-160L71,782c0,0,15,154,107,235c0,0,93,81,249,81c0,0,157,0,249,-87c0,0,92,-88,92,-217c0,0,0,-65,-27,-129c0,0,-27,-63,-89,-133c0,0,-62,-70,-207,-193C445,339,324,238,290,202c0,0,-35,-36,-57,-73H770V0Z" 
id="f2_m"
transform="scale(0.001,-0.001)" />

<path d="M433,93c0,0,88,0,152,76c0,0,64,77,64,228c0,0,0,155,-61,228c0,0,-62,74,-149,74c0,0,-89,0,-153,-76c0,0,-64,-77,-64,-221c0,0,0,-142,39,-206c0,0,63,-103,172,-103ZM444,-17c0,0,-140,0,-220,117V0H100V1093H234V703c0,0,85,107,217,107c0,0,73,0,139,-30c0,0,65,-29,107,-83c0,0,42,-53,66,-128c0,0,24,-75,24,-161c0,0,0,-204,-101,-315C686,93,585,-17,444,-17Z" 
id="f2_1y"
transform="scale(0.001,-0.001)" />

<path d="M404,111c0,0,93,0,155,72c0,0,63,71,63,223c0,0,0,145,-65,218c0,0,-64,74,-155,74c0,0,-89,0,-152,-72c0,0,-62,-73,-62,-216c0,0,0,-156,61,-227c0,0,62,-72,155,-72ZM390,-321c0,0,-142,0,-230,64c0,0,-87,64,-84,193L207,-84c0,0,8,-60,46,-88c0,0,49,-37,136,-37c0,0,93,0,144,37c0,0,50,37,68,104c0,0,11,41,10,172C611,104,523,0,392,0C392,0,229,0,139,118c0,0,-89,118,-89,282c0,0,0,114,41,209c0,0,41,96,119,148c0,0,77,53,183,53c0,0,140,0,231,-114v96H748V107c0,0,0,-184,-38,-261c0,0,-38,-77,-119,-122c0,0,-82,-45,-201,-45Z" 
id="f2_23"
transform="scale(0.001,-0.001)" />

<path d="M358,-321c0,0,-111,141,-188,328C170,7,93,195,93,396c0,0,0,178,57,341c0,0,68,188,208,376h96c0,0,-91,-156,-120,-222c0,0,-45,-103,-71,-215c0,0,-32,-139,-32,-281c0,0,0,-358,223,-716Z" 
id="f2_c"
transform="scale(0.001,-0.001)" />

<path d="M143,0V1093H287V0Z" 
id="f2_19"
transform="scale(0.001,-0.001)" />

<path d="M11,0L300,412L32,792H200L323,607c0,0,34,-53,55,-88c0,0,33,47,60,86L571,792H734L467,419L752,0H587L424,245l-38,59L175,0Z" 
id="f2_2k"
transform="scale(0.001,-0.001)" />

<path d="M164,-216l-37,58c0,0,42,18,63,55c0,0,20,36,22,103H136V153H288V0c0,0,0,-84,-29,-136c0,0,-30,-52,-95,-80Z" 
id="f2_g"
transform="scale(0.001,-0.001)" />

<path d="M93,-321c0,0,223,358,223,716c0,0,0,141,-32,279c0,0,-25,112,-71,215c0,0,-29,67,-120,224h96c0,0,140,-188,208,-376c0,0,57,-163,57,-341c0,0,0,-201,-77,-389c0,0,-77,-187,-188,-328Z" 
id="f2_d"
transform="scale(0.001,-0.001)" />

<path d="M412,-18c0,0,-144,0,-239,85c0,0,-95,86,-108,222l133,18c0,0,24,-114,79,-164c0,0,55,-50,135,-50c0,0,96,0,161,65c0,0,65,66,65,163c0,0,0,92,-61,152c0,0,-60,60,-153,60c0,0,-38,0,-95,-15l15,119c0,0,13,-2,21,-2c0,0,86,0,155,45c0,0,69,44,69,137c0,0,0,74,-50,122c0,0,-50,49,-129,49c0,0,-79,0,-131,-50c0,0,-52,-49,-67,-147L78,815c0,0,25,135,112,209c0,0,87,74,217,74c0,0,89,0,164,-38c0,0,76,-39,116,-105c0,0,40,-66,40,-141c0,0,0,-70,-39,-129c0,0,-38,-58,-112,-92c0,0,97,-22,151,-93c0,0,53,-70,53,-176c0,0,0,-143,-104,-243c0,0,-105,-99,-264,-99Z" 
id="f2_n"
transform="scale(0.001,-0.001)" />

<path d="M116,0V1093H265L839,235v858H978V0H830L255,858V0Z" 
id="f2_1e"
transform="scale(0.001,-0.001)" />

<path d="M138,0V153H290V0Zm0,639V792H290V639Z" 
id="f2_u"
transform="scale(0.001,-0.001)" />

<path d="M48,329V463H461V329Z" 
id="f2_h"
transform="scale(0.001,-0.001)" />

<path d="M121,0V1093H911V964H266V630H870V501H266V129H937V0Z" 
id="f2_15"
transform="scale(0.001,-0.001)" />

<path d="M590,-18c0,0,-177,0,-287,71c0,0,-111,72,-169,209c0,0,-58,137,-58,293c0,0,0,171,66,298c0,0,65,128,185,194c0,0,121,66,265,66c0,0,164,0,276,-84c0,0,112,-84,156,-235L881,760c0,0,-38,120,-110,174c0,0,-72,55,-182,55c0,0,-126,0,-210,-61c0,0,-85,-60,-119,-162c0,0,-34,-102,-34,-210c0,0,0,-139,40,-243c0,0,41,-104,127,-156c0,0,85,-51,185,-51c0,0,122,0,206,70c0,0,84,70,114,208l145,-37c0,0,-46,-178,-164,-272c0,0,-118,-93,-289,-93Z" 
id="f2_13"
transform="scale(0.001,-0.001)" />

<path d="M396,0V964H35v129H902V964H541V0Z" 
id="f2_1k"
transform="scale(0.001,-0.001)" />

<path d="M571,-18c0,0,-218,0,-358,148C213,130,72,279,72,537c0,0,0,273,141,425c0,0,141,151,371,151c0,0,201,0,326,-119c0,0,75,-70,112,-202L803,740c0,0,-19,85,-81,135c0,0,-61,49,-149,49c0,0,-122,0,-197,-87c0,0,-76,-88,-76,-283c0,0,0,-208,75,-296c0,0,74,-88,194,-88c0,0,88,0,151,56c0,0,63,56,91,177l214,-68c0,0,-49,-179,-164,-266c0,0,-114,-87,-290,-87Z" 
id="f3_13"
transform="scale(0.001,-0.001)" />

<path d="M109,0V1093H318V691c0,0,101,120,243,120c0,0,72,0,131,-27c0,0,58,-27,87,-69c0,0,30,-42,41,-93c0,0,11,-50,11,-157V0H621V419c0,0,0,124,-12,158c0,0,-12,34,-42,53c0,0,-30,20,-76,20c0,0,-53,0,-94,-25c0,0,-41,-26,-60,-77c0,0,-19,-51,-19,-151V0Z" 
id="f3_24"
transform="scale(0.001,-0.001)" />

<path d="M380,130c0,0,57,0,108,37c0,0,38,29,50,70c0,0,9,27,9,102v42c0,0,-41,-13,-128,-32c0,0,-87,-19,-114,-36c0,0,-41,-30,-41,-74c0,0,0,-45,33,-77c0,0,33,-32,83,-32ZM318,-17c0,0,-122,0,-193,66c0,0,-70,66,-70,168c0,0,0,67,32,120c0,0,32,53,90,81c0,0,57,28,166,49c0,0,147,27,204,51v21c0,0,0,60,-30,86c0,0,-30,25,-112,25c0,0,-56,0,-87,-22c0,0,-32,-22,-51,-77L76,586c0,0,32,114,111,169c0,0,78,56,232,56c0,0,141,0,209,-34c0,0,69,-33,97,-84c0,0,28,-51,28,-188L750,260c0,0,0,-104,10,-154c0,0,10,-49,38,-106H591c0,0,-9,21,-21,62c0,0,-5,19,-7,25C563,87,509,35,448,8c0,0,-61,-25,-130,-25Z" 
id="f3_1x"
transform="scale(0.001,-0.001)" />

<path d="M493,149c0,0,73,0,122,58c0,0,48,59,48,193c0,0,0,124,-50,185c0,0,-50,60,-124,60c0,0,-77,0,-128,-59c0,0,-51,-59,-51,-176c0,0,0,-134,53,-198c0,0,53,-63,130,-63ZM104,-300V792H299V676c0,0,38,59,103,97c0,0,65,38,144,38c0,0,138,0,234,-109c0,0,97,-108,97,-301c0,0,0,-199,-98,-309C779,92,682,-17,544,-17c0,0,-65,0,-119,26c0,0,-53,26,-112,89V-300Z" 
id="f3_2c"
transform="scale(0.001,-0.001)" />

<path d="M324,-17c0,0,-57,0,-102,18c0,0,-45,19,-67,50c0,0,-21,30,-29,81c0,0,-7,37,-7,148V625H23V792h96V949l210,124V792H471V625H329V306c0,0,0,-97,4,-113c0,0,4,-16,18,-26c0,0,15,-11,36,-11c0,0,29,0,84,21L489,14c0,0,-73,-31,-165,-31Z" 
id="f3_2g"
transform="scale(0.001,-0.001)" />

<path d="M580,464c0,0,-2,91,-47,139c0,0,-45,47,-108,47c0,0,-69,0,-113,-50c0,0,-45,-50,-44,-136ZM433,-17c0,0,-207,0,-306,134c0,0,-78,109,-78,274c0,0,0,196,103,308c0,0,103,112,260,112c0,0,176,0,278,-117c0,0,103,-117,98,-358H264c0,0,2,-93,51,-145c0,0,48,-52,120,-52c0,0,49,0,83,27c0,0,33,27,50,86L777,217C777,217,737,102,650,42c0,0,-87,-59,-217,-59Z" 
id="f3_21"
transform="scale(0.001,-0.001)" />

<path d="M101,0V792H295V679c0,0,50,80,90,106c0,0,40,26,91,26c0,0,72,0,138,-40L549,589c0,0,-53,34,-99,34c0,0,-44,0,-74,-24c0,0,-31,-25,-48,-88c0,0,-18,-64,-18,-266V0Z" 
id="f3_2e"
transform="scale(0.001,-0.001)" />

<path d="M49,291V501H460V291Z" 
id="f1_h"
transform="scale(0.001,-0.001)" />

<path d="M417,-18c0,0,-148,0,-246,85c0,0,-98,85,-113,223l203,25c0,0,10,-78,52,-119c0,0,43,-41,103,-41c0,0,65,0,109,50c0,0,44,49,44,132c0,0,0,79,-42,125c0,0,-43,46,-104,46c0,0,-40,0,-95,-15l23,171c0,0,1,0,2,0c15,0,87,2,127,37c0,0,45,39,45,104c0,0,0,55,-33,88c0,0,-33,33,-87,33c0,0,-54,0,-92,-37c0,0,-38,-38,-46,-110L73,812c0,0,20,99,61,159c0,0,41,59,114,93c0,0,72,34,163,34c0,0,154,0,247,-98c0,0,77,-81,77,-183c0,0,0,-144,-157,-229c0,0,94,-20,150,-91c0,0,56,-70,56,-169c0,0,0,-144,-105,-245C679,83,574,-18,417,-18Z" 
id="f1_n"
transform="scale(0.001,-0.001)" />

<path d="M29,0V27H63c0,0,44,0,71,16c0,0,19,11,30,36c0,0,8,18,8,94V839c0,0,0,69,-4,84c0,0,-7,27,-27,41c0,0,-29,21,-78,21H29v27H877V713H850c0,0,-22,109,-61,157c0,0,-39,48,-111,70c0,0,-42,13,-158,13H416V542h20c0,0,97,0,140,60c0,0,44,60,56,178h27V251H632c0,0,-9,87,-38,142c0,0,-29,55,-67,74c0,0,-39,19,-111,19V201c0,0,0,-84,7,-103c0,0,7,-18,26,-30c0,0,20,-12,63,-12h60c0,0,142,0,228,65c0,0,86,66,123,201h28L905,0Z" 
id="f4_15"
transform="scale(0.001,-0.001)" />

<path d="M32,0V26c0,0,46,2,69,27c0,0,14,18,14,92V867c0,0,0,74,-17,94c0,0,-17,21,-66,24v27H325V145c0,0,0,-74,17,-95c0,0,17,-21,68,-24V0Z" 
id="f4_28"
transform="scale(0.001,-0.001)" />

<path d="M458,424c0,0,0,120,-13,165c0,0,-13,44,-40,67c0,0,-16,14,-42,14c0,0,-39,0,-63,-38c0,0,-44,-66,-44,-182V424ZM358,-20c0,0,-155,0,-235,119c0,0,-64,96,-64,239c0,0,0,174,94,277c0,0,94,104,221,104c0,0,106,0,184,-87c0,0,78,-87,84,-257H259c0,0,7,-139,74,-220c0,0,51,-62,124,-62c0,0,45,0,81,25c0,0,37,25,79,90l25,-16C642,192,585,76,517,28c0,0,-69,-48,-159,-48Z" 
id="f4_21"
transform="scale(0.001,-0.001)" />

<path d="M365,-20c0,0,-139,0,-223,105c0,0,-83,105,-83,253c0,0,0,142,76,250c0,0,92,131,253,131c0,0,108,0,172,-55c0,0,63,-54,63,-121c0,0,0,-43,-25,-68c0,0,-26,-25,-68,-25c0,0,-44,0,-73,29c0,0,-28,29,-35,104c0,0,-5,47,-22,65c0,0,-17,19,-40,19c0,0,-36,0,-61,-38c0,0,-39,-58,-39,-176c0,0,0,-99,31,-188c0,0,32,-90,86,-134c0,0,41,-32,97,-32c0,0,36,0,69,17c0,0,33,17,78,65l23,-18C644,163,595,70,521,25c0,0,-73,-45,-156,-45Z" 
id="f4_1z"
transform="scale(0.001,-0.001)" />

<path d="M298,-9c0,0,-67,0,-113,36c0,0,-46,37,-58,83c0,0,-8,25,-8,137V624H28v26c0,0,94,66,161,139c0,0,66,73,115,163h25V697H494V624H329V193c0,0,0,-60,5,-78c0,0,6,-17,20,-28c0,0,14,-11,26,-11c0,0,48,0,92,75l22,-17C494,134,434,-9,298,-9Z" 
id="f4_2g"
transform="scale(0.001,-0.001)" />

<path d="M57,0V26c0,0,45,4,61,25c0,0,16,22,16,113V550c0,0,0,59,-6,76c0,0,-7,21,-22,30c0,0,-14,10,-49,14v27H342l1,-158c0,0,69,109,121,144c0,0,52,36,100,36c0,0,42,0,66,-26c0,0,25,-26,25,-73c0,0,0,-50,-24,-77c0,0,-25,-28,-59,-28c0,0,-39,0,-68,25c0,0,-28,26,-33,29c0,0,-8,4,-17,4c0,0,-22,0,-41,-16c0,0,-31,-26,-46,-73c0,0,-24,-72,-24,-159V122c0,0,0,-42,5,-54c0,0,9,-21,27,-30c0,0,17,-9,59,-12V0Z" 
id="f4_2e"
transform="scale(0.001,-0.001)" />

<path d="M381,31c0,0,33,0,56,19c0,0,29,25,38,71c0,0,15,71,15,286c0,0,0,127,-14,174c0,0,-14,48,-42,69c0,0,-19,16,-50,16c0,0,-38,0,-65,-29c0,0,-27,-29,-36,-113c0,0,-8,-85,-8,-235c0,0,0,-80,10,-150c0,0,8,-53,35,-80c0,0,27,-28,61,-28Zm2,-51c0,0,-157,0,-242,110c0,0,-85,110,-85,256c0,0,0,150,87,261c0,0,86,112,238,112c0,0,90,0,169,-47c0,0,78,-47,119,-134c0,0,40,-86,40,-189c0,0,0,-149,-75,-249c0,0,-91,-120,-251,-120Z" 
id="f4_2b"
transform="scale(0.001,-0.001)" />

<path d="M610,-21c0,0,-162,0,-287,63c0,0,-126,65,-194,187c0,0,-68,121,-68,258c0,0,0,145,75,275c0,0,76,129,205,201c0,0,128,71,273,71c0,0,107,0,225,-46c0,0,69,-27,88,-27c0,0,24,0,41,18c0,0,18,17,23,55h29V683H991c0,0,-33,138,-122,211c0,0,-90,73,-203,73c0,0,-95,0,-174,-54c0,0,-79,-55,-116,-143c0,0,-47,-112,-47,-250c0,0,0,-135,34,-247c0,0,35,-111,108,-168c0,0,73,-57,189,-57c0,0,96,0,175,42c0,0,80,41,168,144V146c0,0,-85,-89,-178,-129c0,0,-92,-38,-215,-38Z" 
id="f4_13"
transform="scale(0.001,-0.001)" />

<path d="M52,0V26c0,0,44,5,62,29c0,0,13,16,13,97V860c0,0,0,80,-14,99c0,0,-15,20,-61,26v27H336V608c0,0,58,61,106,86c0,0,47,25,99,25c0,0,65,0,112,-38c0,0,47,-37,62,-87c0,0,15,-51,15,-170V152c0,0,0,-81,15,-100c0,0,15,-20,61,-26V0H452V26c0,0,37,6,56,30c0,0,13,20,13,96V463c0,0,0,86,-7,108c0,0,-6,22,-22,35c0,0,-16,12,-36,12c0,0,-30,0,-59,-21c0,0,-28,-20,-61,-72V152c0,0,0,-75,12,-94c0,0,14,-26,58,-32V0Z" 
id="f4_24"
transform="scale(0.001,-0.001)" />

<path d="M56,0V26c0,0,44,5,63,29c0,0,13,16,13,97V546c0,0,0,79,-15,98c0,0,-14,20,-61,26v27H341V606c0,0,57,63,106,88c0,0,49,25,108,25c0,0,67,0,112,-32c0,0,46,-31,71,-95c0,0,59,67,114,97c0,0,55,30,115,30c0,0,72,0,115,-34c0,0,43,-33,60,-84c0,0,16,-51,16,-163V152c0,0,0,-81,15,-100c0,0,14,-20,61,-26V0H873V26c0,0,42,4,63,33c0,0,13,20,13,93V452c0,0,0,93,-7,119c0,0,-8,25,-24,38c0,0,-16,12,-37,12c0,0,-32,0,-65,-24c0,0,-33,-23,-66,-70V152c0,0,0,-76,12,-95c0,0,17,-28,66,-31V0H466V26c0,0,29,2,46,15c0,0,17,13,23,31c0,0,5,18,5,80V452c0,0,0,95,-7,119c0,0,-8,24,-25,37c0,0,-18,14,-38,14c0,0,-30,0,-54,-16c0,0,-35,-23,-75,-79V152c0,0,0,-74,14,-98c0,0,15,-23,61,-28V0Z" 
id="f4_29"
transform="scale(0.001,-0.001)" />

<path d="M32,0V26c0,0,46,2,69,27c0,0,14,18,14,92V551c0,0,0,75,-17,95c0,0,-17,21,-66,24v27H325V145c0,0,0,-74,17,-95c0,0,17,-21,68,-24V0ZM220,804c0,0,-48,0,-82,33c0,0,-33,34,-33,82c0,0,0,48,33,82c0,0,34,33,82,33c0,0,48,0,82,-33c0,0,33,-34,33,-82c0,0,0,-48,-34,-82c0,0,-34,-33,-81,-33Z" 
id="f4_25"
transform="scale(0.001,-0.001)" />

<path d="M312,-20c0,0,-50,0,-134,30c0,0,-22,9,-30,9c0,0,-25,0,-41,-37H82L70,232H97c0,0,33,-99,91,-148c0,0,59,-49,111,-49c0,0,35,0,58,22c0,0,22,22,22,54c0,0,0,35,-22,61c0,0,-22,27,-100,80c0,0,-114,79,-147,120c0,0,-49,62,-49,136c0,0,0,80,55,145c0,0,56,66,161,66c0,0,56,0,109,-28c0,0,20,-11,33,-11c0,0,13,0,21,5c0,0,9,6,27,32h26L504,479H477c0,0,-45,106,-94,145c0,0,-48,39,-96,39c0,0,-31,0,-52,-21c0,0,-22,-20,-22,-47c0,0,0,-20,15,-39c0,0,24,-30,133,-105c0,0,110,-74,144,-126c0,0,35,-52,35,-116c0,0,0,-58,-29,-114C511,95,482,39,429,9c0,0,-53,-29,-117,-29Z" 
id="f4_2f"
transform="scale(0.001,-0.001)" />

<path d="M182,-328c0,0,-62,0,-101,35c0,0,-38,35,-38,85c0,0,0,44,26,72c0,0,27,28,66,28c0,0,37,0,60,-23c0,0,22,-24,23,-74c0,0,1,-29,7,-37c0,0,6,-8,17,-8c0,0,18,0,38,21c0,0,30,32,70,144l22,57L146,488c0,0,-50,118,-74,144c0,0,-25,27,-59,38v27H384V670c0,0,-36,-2,-51,-14c0,0,-15,-13,-15,-31c0,0,0,-28,37,-112L475,239l81,212c0,0,44,113,44,157c0,0,0,27,-18,44c0,0,-18,16,-65,18v27H750V670c0,0,-34,-4,-56,-27c0,0,-22,-22,-72,-155L422,-27c0,0,-75,-194,-111,-239c0,0,-52,-62,-129,-62Z" 
id="f4_2l"
transform="scale(0.001,-0.001)" />

<path d="M545,573c0,0,140,0,199,52c0,0,59,52,59,147c0,0,0,69,-35,118c0,0,-34,49,-91,64c0,0,-36,10,-135,10H263V573ZM118,0V1093H531c0,0,108,0,166,-10c0,0,80,-14,135,-51c0,0,54,-38,87,-106c0,0,34,-68,34,-149c0,0,0,-140,-89,-236c0,0,-89,-97,-321,-97H263V0Z" 
id="f2_1g"
transform="scale(0.001,-0.001)" />

<path d="M494,385V878L152,385ZM494,0V262H20V385l498,708H628V385H775V262H628V0Z" 
id="f2_o"
transform="scale(0.001,-0.001)" />

<path d="M314,-321c0,0,-114,173,-174,358c0,0,-60,185,-60,359c0,0,0,216,74,408c0,0,64,168,163,309H460c0,0,-103,-226,-141,-385c0,0,-38,-159,-38,-336c0,0,0,-123,22,-251c0,0,23,-128,63,-243c0,0,26,-76,92,-219Z" 
id="f1_c"
transform="scale(0.001,-0.001)" />

<path d="M444,-17c0,0,-174,0,-277,109C167,92,64,202,64,396c0,0,0,196,103,305c0,0,104,110,280,110c0,0,145,0,230,-63c0,0,86,-62,123,-190L594,521c0,0,-11,62,-48,93c0,0,-37,31,-96,31c0,0,-78,0,-125,-54c0,0,-46,-54,-46,-180c0,0,0,-141,47,-199c0,0,47,-58,127,-58c0,0,60,0,98,33c0,0,38,34,53,117L811,269C811,269,779,127,688,55c0,0,-91,-72,-244,-72Z" 
id="f1_1z"
transform="scale(0.001,-0.001)" />

<path d="M94,0V792H287V684c0,0,104,127,247,127c0,0,75,0,131,-32c0,0,56,-31,92,-94c0,0,52,63,112,94c0,0,61,32,129,32c0,0,87,0,148,-36c0,0,60,-35,90,-104c0,0,21,-51,21,-164V0H1048V453c0,0,0,118,-21,152c0,0,-30,45,-90,45c0,0,-44,0,-83,-27c0,0,-38,-27,-56,-78c0,0,-17,-52,-17,-164V0H572V434c0,0,0,116,-11,150c0,0,-11,33,-35,50c0,0,-23,16,-64,16c0,0,-48,0,-87,-26c0,0,-38,-26,-55,-75c0,0,-17,-50,-17,-164V0Z" 
id="f1_29"
transform="scale(0.001,-0.001)" />

<path d="M38,0c0,0,12,110,72,209c0,0,59,99,235,262c0,0,142,132,174,179c0,0,43,65,43,129c0,0,0,70,-37,107c0,0,-38,38,-104,38c0,0,-66,0,-104,-40c0,0,-39,-39,-45,-131L63,774c0,0,18,173,117,249c0,0,98,75,246,75c0,0,162,0,254,-87c0,0,92,-88,92,-217c0,0,0,-74,-26,-141c0,0,-26,-67,-84,-140c0,0,-38,-48,-137,-139c0,0,-100,-91,-126,-121c0,0,-26,-30,-43,-58H772V0Z" 
id="f1_m"
transform="scale(0.001,-0.001)" />

<path d="M470,154c0,0,82,0,137,62c0,0,55,63,55,182c0,0,0,116,-55,179c0,0,-55,62,-137,62c0,0,-82,0,-138,-62c0,0,-55,-63,-55,-180c0,0,0,-118,55,-181c0,0,56,-62,138,-62Zm1,-171c0,0,-109,0,-208,49c0,0,-99,49,-150,144c0,0,-51,95,-51,232c0,0,0,104,51,202c0,0,51,98,146,149c0,0,94,52,210,52c0,0,180,0,295,-117c0,0,114,-117,114,-295c0,0,0,-180,-115,-298C763,101,647,-17,471,-17Z" 
id="f1_2b"
transform="scale(0.001,-0.001)" />

<path d="M109,0V1093H318V691c0,0,101,120,243,120c0,0,72,0,131,-27c0,0,58,-27,87,-69c0,0,30,-42,41,-93c0,0,11,-50,11,-157V0H621V419c0,0,0,124,-12,158c0,0,-12,34,-42,53c0,0,-30,20,-76,20c0,0,-53,0,-94,-25c0,0,-41,-26,-60,-77c0,0,-19,-51,-19,-151V0Z" 
id="f1_24"
transform="scale(0.001,-0.001)" />

<path d="M110,0V1093H319V0Z" 
id="f1_28"
transform="scale(0.001,-0.001)" />

<path d="M101,0V792H295V679c0,0,50,80,90,106c0,0,40,26,91,26c0,0,72,0,138,-40L549,589c0,0,-53,34,-99,34c0,0,-44,0,-74,-24c0,0,-31,-25,-48,-88c0,0,-18,-64,-18,-266V0Z" 
id="f1_2e"
transform="scale(0.001,-0.001)" />

<path d="M52,-321c0,0,62,133,87,204c0,0,25,71,47,162c0,0,21,93,32,176c0,0,10,83,10,171c0,0,0,177,-38,336c0,0,-38,159,-140,385H193c0,0,112,-161,174,-341c0,0,63,-179,63,-365c0,0,0,-156,-50,-334c0,0,-55,-199,-183,-394Z" 
id="f1_d"
transform="scale(0.001,-0.001)" />

<path d="M415,-18c0,0,-149,0,-244,83c0,0,-94,84,-107,222l140,11c0,0,16,-103,73,-154c0,0,56,-52,137,-52c0,0,98,0,165,73c0,0,66,73,66,194c0,0,0,115,-64,182c0,0,-64,66,-169,66c0,0,-65,0,-117,-29c0,0,-52,-30,-82,-77L87,517l106,562H736V951H300L241,657c0,0,99,69,207,69c0,0,143,0,242,-100c0,0,98,-99,98,-255c0,0,0,-149,-86,-257C702,114,597,-18,415,-18Z" 
id="f2_p"
transform="scale(0.001,-0.001)" />

<path d="M409,93c0,0,86,0,148,73c0,0,62,72,62,221c0,0,0,158,-65,237c0,0,-65,80,-154,80c0,0,-87,0,-148,-74c0,0,-61,-74,-61,-232c0,0,0,-152,64,-229c0,0,65,-76,154,-76ZM606,-303V85c0,0,-32,-44,-88,-73c0,0,-56,-29,-120,-29c0,0,-141,0,-243,112C155,95,53,207,53,403c0,0,0,120,42,214c0,0,41,95,120,144c0,0,79,49,173,49c0,0,147,0,231,-124V792H740V-303Z" 
id="f2_2d"
transform="scale(0.001,-0.001)" />

<path d="M-2,341V450H847V341Z" 
id="f2_4y"
transform="scale(0.001,-0.001)" />

<path d="M125,0V1093H863V964H270V626H783V497H270V0Z" 
id="f2_16"
transform="scale(0.001,-0.001)" />

<path d="M380,130c0,0,57,0,108,37c0,0,38,29,50,70c0,0,9,27,9,102v42c0,0,-41,-13,-128,-32c0,0,-87,-19,-114,-36c0,0,-41,-30,-41,-74c0,0,0,-45,33,-77c0,0,33,-32,83,-32ZM318,-17c0,0,-122,0,-193,66c0,0,-70,66,-70,168c0,0,0,67,32,120c0,0,32,53,90,81c0,0,57,28,166,49c0,0,147,27,204,51v21c0,0,0,60,-30,86c0,0,-30,25,-112,25c0,0,-56,0,-87,-22c0,0,-32,-22,-51,-77L76,586c0,0,32,114,111,169c0,0,78,56,232,56c0,0,141,0,209,-34c0,0,69,-33,97,-84c0,0,28,-51,28,-188L750,260c0,0,0,-104,10,-154c0,0,10,-49,38,-106H591c0,0,-9,21,-21,62c0,0,-5,19,-7,25C563,87,509,35,448,8c0,0,-61,-25,-130,-25Z" 
id="f1_1x"
transform="scale(0.001,-0.001)" />

<path d="M349,157V441H63V638H349V921H540V638H827V441H540V157Z" 
id="f1_f"
transform="scale(0.001,-0.001)" />

<path d="M492,148c0,0,70,0,119,59c0,0,48,59,48,187c0,0,0,136,-49,196c0,0,-49,60,-126,60c0,0,-76,0,-126,-58c0,0,-50,-59,-50,-178c0,0,0,-124,39,-183c0,0,54,-83,145,-83ZM543,-17c0,0,-68,0,-134,33c0,0,-66,34,-114,100V0H101V1093H310V700c0,0,97,111,230,111c0,0,145,0,240,-105c0,0,95,-105,95,-301c0,0,0,-203,-97,-313C778,92,681,-17,543,-17Z" 
id="f1_1y"
transform="scale(0.001,-0.001)" />

<path d="M537,185c0,0,120,0,152,6c0,0,49,9,80,44c0,0,31,35,31,93c0,0,0,49,-24,84c0,0,-24,34,-69,49c0,0,-45,16,-196,16H332V185ZM477,659c0,0,129,0,161,4c0,0,56,6,89,39c0,0,32,32,32,85c0,0,0,51,-28,82c0,0,-28,32,-83,39c0,0,-33,3,-189,3H332V659ZM111,0V1093H549c0,0,130,0,194,-11c0,0,63,-10,114,-45c0,0,50,-34,84,-91c0,0,33,-57,33,-128c0,0,0,-76,-41,-140c0,0,-41,-64,-112,-96c0,0,100,-30,153,-100c0,0,54,-70,54,-165c0,0,0,-74,-35,-145c0,0,-34,-70,-94,-113C899,59,838,17,750,7C750,7,695,1,484,0Z" 
id="f1_12"
transform="scale(0.001,-0.001)" />

<path d="M1102,117c0,0,70,150,147,231H59v75H1249c0,0,-57,72,-79,107c0,0,-23,35,-67,123h57c0,0,99,-108,172,-164c0,0,72,-56,136,-84V371c0,0,-74,-35,-143,-91c0,0,-70,-55,-166,-163Z" 
id="f5_8r"
transform="scale(0.001,-0.001)" />

<path d="M454,148c0,0,73,0,123,61c0,0,51,62,51,184c0,0,0,137,-49,197c0,0,-49,60,-126,60c0,0,-75,0,-125,-59c0,0,-50,-60,-50,-177c0,0,0,-127,35,-184c0,0,50,-82,141,-82ZM394,-17c0,0,-137,0,-234,109c0,0,-97,110,-97,307c0,0,0,202,94,307c0,0,95,105,240,105c0,0,133,0,230,-111v393H836V0H642V116C642,116,593,48,527,15c0,0,-66,-32,-133,-32Z" 
id="f1_20"
transform="scale(0.001,-0.001)" />

<path d="M496,185c0,0,93,0,134,10c0,0,54,14,89,46c0,0,35,32,58,105c0,0,22,74,22,200c0,0,0,127,-22,195c0,0,-23,68,-63,106c0,0,-40,38,-102,51c0,0,-46,10,-181,10H331V185ZM110,0V1093H514c0,0,136,0,208,-21c0,0,96,-28,165,-100c0,0,68,-73,104,-177c0,0,36,-105,36,-259c0,0,0,-135,-34,-233c0,0,-41,-119,-117,-193c0,0,-57,-56,-155,-87C721,23,648,0,526,0Z" 
id="f1_14"
transform="scale(0.001,-0.001)" />

<path d="M580,464c0,0,-2,91,-47,139c0,0,-45,47,-108,47c0,0,-69,0,-113,-50c0,0,-45,-50,-44,-136ZM433,-17c0,0,-207,0,-306,134c0,0,-78,109,-78,274c0,0,0,196,103,308c0,0,103,112,260,112c0,0,176,0,278,-117c0,0,103,-117,98,-358H264c0,0,2,-93,51,-145c0,0,48,-52,120,-52c0,0,49,0,83,27c0,0,33,27,50,86L777,217C777,217,737,102,650,42c0,0,-87,-59,-217,-59Z" 
id="f1_21"
transform="scale(0.001,-0.001)" />

<path d="M63,277V470H828V277Zm0,331V801H828V608Z" 
id="f1_x"
transform="scale(0.001,-0.001)" />

<path d="M419,155c0,0,39,0,68,25c0,0,30,24,47,87c0,0,21,80,21,272c0,0,0,193,-19,265c0,0,-19,72,-49,96c0,0,-29,24,-68,24c0,0,-38,0,-67,-24c0,0,-30,-24,-47,-87c0,0,-21,-81,-21,-274c0,0,0,-192,19,-264c0,0,19,-72,49,-96c0,0,29,-24,67,-24Zm0,-173c0,0,-159,0,-257,122c0,0,-97,123,-97,438c0,0,0,308,107,444c0,0,89,112,247,112c0,0,159,0,249,-113c0,0,106,-135,106,-446c0,0,0,-310,-107,-446C667,93,578,-18,419,-18Z" 
id="f1_k"
transform="scale(0.001,-0.001)" />

<path d="M108,0V792H302V676c0,0,104,135,262,135c0,0,69,0,127,-25c0,0,57,-25,87,-64c0,0,29,-39,41,-88c0,0,12,-50,12,-141V0H621V405c0,0,0,128,-13,166c0,0,-14,37,-44,58c0,0,-30,21,-73,21c0,0,-55,0,-98,-30c0,0,-44,-29,-60,-79c0,0,-16,-49,-16,-182V0Z" 
id="f1_2a"
transform="scale(0.001,-0.001)" />

<path d="M109,-307V1093H480V928H308V-142H480V-307Z" 
id="f1_1r"
transform="scale(0.001,-0.001)" />

<path d="M29,-307v165H201V930H29v163H400V-307Z" 
id="f1_1t"
transform="scale(0.001,-0.001)" />

<path d="M112,0V1093H863V908H333V649H791V464H333V0Z" 
id="f1_16"
transform="scale(0.001,-0.001)" />

<path d="M435,0V856c0,0,-48,-47,-127,-93c0,0,-79,-46,-142,-69V824c0,0,113,52,197,128c0,0,85,75,120,146h86V0Z" 
id="f6_l"
transform="scale(0.001,-0.001)" />

<path d="M125,0V1051H268V115H799V0Z" 
id="f0_1c"
transform="scale(0.001,-0.001)" />

<path d="M106,0V620c0,0,0,85,-5,188H228c0,0,6,-138,6,-165h3c0,0,32,103,74,141c0,0,42,38,118,38c0,0,27,0,54,-7V692c0,0,-26,7,-71,7c0,0,-84,0,-128,-72c0,0,-44,-72,-44,-206V0Z" 
id="f0_2e"
transform="scale(0.001,-0.001)" />

<path d="M606,-14c0,0,-164,0,-284,65c0,0,-119,66,-182,189c0,0,-63,123,-63,291c0,0,0,255,137,396c0,0,137,140,386,140c0,0,174,0,283,-59c0,0,109,-59,168,-189L915,779c0,0,-44,90,-123,131c0,0,-79,41,-196,41c0,0,-182,0,-278,-110c0,0,-96,-110,-96,-310c0,0,0,-200,102,-315c0,0,102,-115,282,-115c0,0,103,0,193,31c0,0,89,31,144,85V407H629V526h445V164c0,0,-83,-85,-205,-132c0,0,-121,-46,-263,-46Z" 
id="f0_17"
transform="scale(0.001,-0.001)" />

<path d="M355,-14c0,0,-133,0,-194,65c0,0,-62,66,-62,219V808H234V296c0,0,0,-80,16,-124c0,0,16,-44,50,-64c0,0,34,-19,101,-19c0,0,97,0,153,66c0,0,55,67,55,185V808H744V172c0,0,0,-141,4,-172H621c0,0,0,4,-1,20c0,0,-1,17,-2,38c0,0,-1,21,-3,80h-2C613,138,567,55,506,20c0,0,-61,-34,-151,-34Z" 
id="f0_2h"
transform="scale(0.001,-0.001)" />

<path d="M395,89c0,0,115,0,166,79c0,0,51,79,51,246c0,0,0,160,-51,235c0,0,-51,75,-164,75c0,0,-102,0,-147,-75c0,0,-45,-75,-45,-244c0,0,0,-170,45,-243c0,0,45,-73,145,-73ZM361,-14c0,0,-153,0,-225,102c0,0,-72,103,-72,312c0,0,0,422,297,422c0,0,92,0,153,-33c0,0,61,-34,98,-107h2l-2,90v335H747V166c0,0,0,-126,4,-166H623c0,0,-2,12,-5,55c0,0,-3,44,-3,75h-3c0,0,-37,-78,-98,-111c0,0,-62,-33,-153,-33Z" 
id="f0_20"
transform="scale(0.001,-0.001)" />

<path d="M140,0V163H285V0Z" 
id="f0_i"
transform="scale(0.001,-0.001)" />


</defs>
</svg>