<?xml version="1.0" encoding="UTF-8" standalone="no"?>
<!DOCTYPE svg PUBLIC "-//W3C//DTD SVG 1.1//EN"
"http://www.w3.org/Graphics/SVG/1.1/DTD/svg11.dtd">
<svg viewBox="0 0 739 1084" version="1.1" xmlns="http://www.w3.org/2000/svg" xmlns:xlink="http://www.w3.org/1999/xlink">
<defs>
<style type="text/css"><![CDATA[
.g0_96{
}
]]></style>
</defs>
<g fill="#D4D4D4" fill-opacity="0.36" >
<use xlink:href="#f0_1f" transform="matrix(50.9,-50.9,50.9,50.9,127.9,814.1)" />
<use xlink:href="#f0_2a" transform="matrix(50.9,-50.9,50.9,50.9,188.4,753.6)" />
<use xlink:href="#f0_28" transform="matrix(50.9,-50.9,50.9,50.9,231.7,710.3)" />
<use xlink:href="#f0_25" transform="matrix(50.9,-50.9,50.9,50.9,248.9,693.1)" />
<use xlink:href="#f0_2a" transform="matrix(50.9,-50.9,50.9,50.9,266.2,675.8)" />
<use xlink:href="#f0_21" transform="matrix(50.9,-50.9,50.9,50.9,309.4,632.5)" />
<use xlink:href="#f0_2k" transform="matrix(50.9,-50.9,50.9,50.9,352.7,589.3)" />
<use xlink:href="#f0_1x" transform="matrix(50.9,-50.9,50.9,50.9,391.6,550.4)" />
<use xlink:href="#f0_29" transform="matrix(50.9,-50.9,50.9,50.9,434.8,507.2)" />
<use xlink:href="#f0_2c" transform="matrix(50.9,-50.9,50.9,50.9,499.6,442.4)" />
<use xlink:href="#f0_2b" transform="matrix(50.9,-50.9,50.9,50.9,542.9,399.1)" />
<use xlink:href="#f0_25" transform="matrix(50.9,-50.9,50.9,50.9,586.1,355.9)" />
<use xlink:href="#f0_2a" transform="matrix(50.9,-50.9,50.9,50.9,603.4,338.6)" />
<use xlink:href="#f0_2g" transform="matrix(50.9,-50.9,50.9,50.9,646.6,295.4)" />
</g>
<g fill="#000000" >
<use xlink:href="#f1_13" transform="matrix(14,0,0,14,300.7,170.9)" />
<use xlink:href="#f1_24" transform="matrix(14,0,0,14,316.2,170.9)" />
<use xlink:href="#f1_1x" transform="matrix(14,0,0,14,329.3,170.9)" />
<use xlink:href="#f1_2c" transform="matrix(14,0,0,14,341.2,170.9)" />
<use xlink:href="#f1_2g" transform="matrix(14,0,0,14,354.3,170.9)" />
<use xlink:href="#f1_21" transform="matrix(14,0,0,14,361.4,170.9)" />
<use xlink:href="#f1_2e" transform="matrix(14,0,0,14,373.3,170.9)" />
<use xlink:href="#f2_h" transform="matrix(14,0,0,14,391.2,170.9)" />
<use xlink:href="#f2_l" transform="matrix(14,0,0,14,407.9,170.9)" />
<use xlink:href="#f2_n" transform="matrix(14,0,0,14,419.8,170.9)" />
</g>
<path fill-rule="evenodd" d="M56.9,231.1H636.2v1.5H56.9v-1.5Z" class="g0_96" />
<g fill="#000000" >
<use xlink:href="#f2_11" transform="matrix(16,0,0,16,301.2,223.4)" />
<use xlink:href="#f2_1d" transform="matrix(16,0,0,16,317.4,223.4)" />
<use xlink:href="#f2_19" transform="matrix(16,0,0,16,337,223.4)" />
<use xlink:href="#f2_1e" transform="matrix(16,0,0,16,343,223.4)" />
<use xlink:href="#f2_15" transform="matrix(16,0,0,16,359.9,223.4)" />
<use xlink:href="#f2_1j" transform="matrix(16,0,0,16,375.5,223.4)" />
<use xlink:href="#f3_l" transform="matrix(10.4,0,0,10.4,56.9,266.3)" />
<use xlink:href="#f3_i" transform="matrix(10.4,0,0,10.4,66.2,266.3)" />
<use xlink:href="#f3_1n" transform="matrix(10.4,0,0,10.4,100.1,266.3)" />
<use xlink:href="#f3_2e" transform="matrix(10.4,0,0,10.4,115.7,266.3)" />
<use xlink:href="#f3_25" transform="matrix(10.4,0,0,10.4,121,266.3)" />
<use xlink:href="#f3_2g" transform="matrix(10.4,0,0,10.4,124.5,266.3)" />
<use xlink:href="#f3_21" transform="matrix(10.4,0,0,10.4,128.9,266.3)" />
<use xlink:href="#f3_19" transform="matrix(10.4,0,0,10.4,144.5,266.3)" />
<use xlink:href="#f3_1l" transform="matrix(10.4,0,0,10.4,148.9,266.3)" />
<use xlink:href="#f3_1g" transform="matrix(10.4,0,0,10.4,160.4,266.3)" />
<use xlink:href="#f3_11" transform="matrix(10.4,0,0,10.4,170,266.3)" />
<use xlink:href="#f3_13" transform="matrix(10.4,0,0,10.4,180.6,266.3)" />
<use xlink:href="#f3_2a" transform="matrix(10.4,0,0,10.4,198.9,266.3)" />
<use xlink:href="#f3_1x" transform="matrix(10.4,0,0,10.4,207.7,266.3)" />
<use xlink:href="#f3_29" transform="matrix(10.4,0,0,10.4,216.5,266.3)" />
<use xlink:href="#f3_21" transform="matrix(10.4,0,0,10.4,230.1,266.3)" />
<use xlink:href="#f3_2f" transform="matrix(10.4,0,0,10.4,238.9,266.3)" />
<use xlink:href="#f3_2b" transform="matrix(10.4,0,0,10.4,253.5,266.3)" />
<use xlink:href="#f3_22" transform="matrix(10.4,0,0,10.4,262.3,266.3)" />
<use xlink:href="#f3_2g" transform="matrix(10.4,0,0,10.4,273.7,266.3)" />
<use xlink:href="#f3_24" transform="matrix(10.4,0,0,10.4,278.1,266.3)" />
<use xlink:href="#f3_21" transform="matrix(10.4,0,0,10.4,286.9,266.3)" />
<use xlink:href="#f3_22" transform="matrix(10.4,0,0,10.4,302.5,266.3)" />
<use xlink:href="#f3_2b" transform="matrix(10.4,0,0,10.4,307.1,266.3)" />
<use xlink:href="#f3_28" transform="matrix(10.4,0,0,10.4,315.9,266.3)" />
<use xlink:href="#f3_28" transform="matrix(10.4,0,0,10.4,319.4,266.3)" />
<use xlink:href="#f3_2b" transform="matrix(10.4,0,0,10.4,322.8,266.3)" />
<use xlink:href="#f3_2j" transform="matrix(10.4,0,0,10.4,331.6,266.3)" />
<use xlink:href="#f3_25" transform="matrix(10.4,0,0,10.4,342.8,266.3)" />
<use xlink:href="#f3_2a" transform="matrix(10.4,0,0,10.4,346.3,266.3)" />
<use xlink:href="#f3_23" transform="matrix(10.4,0,0,10.4,355.1,266.3)" />
<use xlink:href="#f3_u" transform="matrix(10.4,0,0,10.4,370.7,266.3)" />
</g>
<image preserveAspectRatio="none" x="100" y="297" width="528" height="16" xlink:href="img/1.png" />
<image preserveAspectRatio="none" x="100" y="313" width="528" height="16" xlink:href="img/2.png" />
<image preserveAspectRatio="none" x="100" y="329" width="528" height="16" xlink:href="img/3.png" />
<image preserveAspectRatio="none" x="100" y="345" width="528" height="16" xlink:href="img/4.png" />
<image preserveAspectRatio="none" x="100" y="361" width="528" height="16" xlink:href="img/5.png" />
<image preserveAspectRatio="none" x="100" y="376" width="528" height="17" xlink:href="img/6.png" />
<image preserveAspectRatio="none" x="100" y="392" width="528" height="16" xlink:href="img/7.png" />
<image preserveAspectRatio="none" x="100" y="408" width="528" height="16" xlink:href="img/8.png" />
<image preserveAspectRatio="none" x="100" y="424" width="528" height="16" xlink:href="img/9.png" />
<image preserveAspectRatio="none" x="100" y="440" width="528" height="16" xlink:href="img/10.png" />
<image preserveAspectRatio="none" x="100" y="455" width="528" height="17" xlink:href="img/11.png" />
<image preserveAspectRatio="none" x="100" y="471" width="528" height="16" xlink:href="img/12.png" />
<image preserveAspectRatio="none" x="100" y="487" width="528" height="16" xlink:href="img/13.png" />
<image preserveAspectRatio="none" x="100" y="503" width="528" height="16" xlink:href="img/14.png" />
<image preserveAspectRatio="none" x="100" y="519" width="528" height="16" xlink:href="img/15.png" />
<image preserveAspectRatio="none" x="100" y="534" width="528" height="17" xlink:href="img/16.png" />
<image preserveAspectRatio="none" x="100" y="550" width="528" height="16" xlink:href="img/17.png" />
<image preserveAspectRatio="none" x="100" y="566" width="528" height="16" xlink:href="img/18.png" />
<image preserveAspectRatio="none" x="100" y="582" width="528" height="16" xlink:href="img/19.png" />
<image preserveAspectRatio="none" x="100" y="598" width="528" height="16" xlink:href="img/20.png" />
<image preserveAspectRatio="none" x="100" y="614" width="528" height="16" xlink:href="img/21.png" />
<image preserveAspectRatio="none" x="100" y="629" width="528" height="16" xlink:href="img/22.png" />
<image preserveAspectRatio="none" x="100" y="645" width="528" height="16" xlink:href="img/23.png" />
<image preserveAspectRatio="none" x="100" y="661" width="528" height="16" xlink:href="img/24.png" />
<image preserveAspectRatio="none" x="100" y="677" width="528" height="12" xlink:href="img/25.png" />
<g fill="#000000" >
<use xlink:href="#f3_m" transform="matrix(10.4,0,0,10.4,56.9,748.6)" />
<use xlink:href="#f3_i" transform="matrix(10.4,0,0,10.4,66.2,748.6)" />
<use xlink:href="#f3_17" transform="matrix(10.4,0,0,10.4,100.1,748.6)" />
<use xlink:href="#f3_25" transform="matrix(10.4,0,0,10.4,112.6,748.6)" />
<use xlink:href="#f3_2i" transform="matrix(10.4,0,0,10.4,116.1,748.6)" />
<use xlink:href="#f3_25" transform="matrix(10.4,0,0,10.4,123.9,748.6)" />
<use xlink:href="#f3_2a" transform="matrix(10.4,0,0,10.4,127.4,748.6)" />
<use xlink:href="#f3_23" transform="matrix(10.4,0,0,10.4,136.2,748.6)" />
<use xlink:href="#f3_1x" transform="matrix(10.4,0,0,10.4,152.7,748.6)" />
<use xlink:href="#f3_2a" transform="matrix(10.4,0,0,10.4,161.5,748.6)" />
<use xlink:href="#f3_21" transform="matrix(10.4,0,0,10.4,178.2,748.6)" />
<use xlink:href="#f3_2k" transform="matrix(10.4,0,0,10.4,187,748.6)" />
<use xlink:href="#f3_1x" transform="matrix(10.4,0,0,10.4,194.9,748.6)" />
<use xlink:href="#f3_29" transform="matrix(10.4,0,0,10.4,203.7,748.6)" />
<use xlink:href="#f3_2c" transform="matrix(10.4,0,0,10.4,217.3,748.6)" />
<use xlink:href="#f3_28" transform="matrix(10.4,0,0,10.4,226.1,748.6)" />
<use xlink:href="#f3_21" transform="matrix(10.4,0,0,10.4,229.5,748.6)" />
<use xlink:href="#f3_2b" transform="matrix(10.4,0,0,10.4,246,748.6)" />
<use xlink:href="#f3_22" transform="matrix(10.4,0,0,10.4,254.8,748.6)" />
<use xlink:href="#f3_21" transform="matrix(10.4,0,0,10.4,267.1,748.6)" />
<use xlink:href="#f3_1x" transform="matrix(10.4,0,0,10.4,275.9,748.6)" />
<use xlink:href="#f3_1z" transform="matrix(10.4,0,0,10.4,284.7,748.6)" />
<use xlink:href="#f3_24" transform="matrix(10.4,0,0,10.4,292.8,748.6)" />
<use xlink:href="#f3_g" transform="matrix(10.4,0,0,10.4,301.6,748.6)" />
<use xlink:href="#f3_20" transform="matrix(10.4,0,0,10.4,313.9,748.6)" />
<use xlink:href="#f3_21" transform="matrix(10.4,0,0,10.4,322.7,748.6)" />
<use xlink:href="#f3_2f" transform="matrix(10.4,0,0,10.4,331.5,748.6)" />
<use xlink:href="#f3_1z" transform="matrix(10.4,0,0,10.4,339.5,748.6)" />
<use xlink:href="#f3_2e" transform="matrix(10.4,0,0,10.4,347.6,748.6)" />
<use xlink:href="#f3_25" transform="matrix(10.4,0,0,10.4,352.9,748.6)" />
<use xlink:href="#f3_1y" transform="matrix(10.4,0,0,10.4,356.4,748.6)" />
<use xlink:href="#f3_21" transform="matrix(10.4,0,0,10.4,365.2,748.6)" />
<use xlink:href="#f3_2g" transform="matrix(10.4,0,0,10.4,381.7,748.6)" />
<use xlink:href="#f3_24" transform="matrix(10.4,0,0,10.4,386.1,748.6)" />
<use xlink:href="#f3_21" transform="matrix(10.4,0,0,10.4,394.9,748.6)" />
<use xlink:href="#f3_22" transform="matrix(10.4,0,0,10.4,411.4,748.6)" />
<use xlink:href="#f3_2b" transform="matrix(10.4,0,0,10.4,416,748.6)" />
<use xlink:href="#f3_28" transform="matrix(10.4,0,0,10.4,424.8,748.6)" />
<use xlink:href="#f3_28" transform="matrix(10.4,0,0,10.4,428.2,748.6)" />
<use xlink:href="#f3_2b" transform="matrix(10.4,0,0,10.4,431.7,748.6)" />
<use xlink:href="#f3_2j" transform="matrix(10.4,0,0,10.4,440.5,748.6)" />
<use xlink:href="#f3_25" transform="matrix(10.4,0,0,10.4,451.7,748.6)" />
<use xlink:href="#f3_2a" transform="matrix(10.4,0,0,10.4,455.2,748.6)" />
<use xlink:href="#f3_23" transform="matrix(10.4,0,0,10.4,464,748.6)" />
<use xlink:href="#f3_2e" transform="matrix(10.4,0,0,10.4,480.7,748.6)" />
<use xlink:href="#f3_21" transform="matrix(10.4,0,0,10.4,486,748.6)" />
<use xlink:href="#f3_1x" transform="matrix(10.4,0,0,10.4,494.8,748.6)" />
<use xlink:href="#f3_1z" transform="matrix(10.4,0,0,10.4,503.6,748.6)" />
<use xlink:href="#f3_2g" transform="matrix(10.4,0,0,10.4,511.7,748.6)" />
<use xlink:href="#f3_25" transform="matrix(10.4,0,0,10.4,516.1,748.6)" />
<use xlink:href="#f3_2b" transform="matrix(10.4,0,0,10.4,519.5,748.6)" />
<use xlink:href="#f3_2a" transform="matrix(10.4,0,0,10.4,528.3,748.6)" />
<use xlink:href="#f3_2f" transform="matrix(10.4,0,0,10.4,537.1,748.6)" />
<use xlink:href="#f3_u" transform="matrix(10.4,0,0,10.4,552.9,748.6)" />
<use xlink:href="#f3_c" transform="matrix(10.4,0,0,10.4,100.1,778.5)" />
<use xlink:href="#f3_25" transform="matrix(10.4,0,0,10.4,105.8,778.5)" />
<use xlink:href="#f3_d" transform="matrix(10.4,0,0,10.4,109.6,778.5)" />
<use xlink:href="#f3_18" transform="matrix(10.4,0,0,10.4,143.4,778.5)" />
<use xlink:href="#f3_2b" transform="matrix(10.4,0,0,10.4,154.9,778.5)" />
<use xlink:href="#f3_22" transform="matrix(10.4,0,0,10.4,163.7,778.5)" />
<use xlink:href="#f3_22" transform="matrix(10.4,0,0,10.4,168.3,778.5)" />
<use xlink:href="#f3_29" transform="matrix(10.4,0,0,10.4,172.9,778.5)" />
<use xlink:href="#f3_1x" transform="matrix(10.4,0,0,10.4,186.5,778.5)" />
<use xlink:href="#f3_2a" transform="matrix(10.4,0,0,10.4,195.3,778.5)" />
<use xlink:href="#f3_1y" transform="matrix(10.4,0,0,10.4,211.4,778.5)" />
<use xlink:href="#f3_2e" transform="matrix(10.4,0,0,10.4,220.2,778.5)" />
<use xlink:href="#f3_2b" transform="matrix(10.4,0,0,10.4,225.5,778.5)" />
<use xlink:href="#f3_29" transform="matrix(10.4,0,0,10.4,234.3,778.5)" />
<use xlink:href="#f3_1x" transform="matrix(10.4,0,0,10.4,247.9,778.5)" />
<use xlink:href="#f3_29" transform="matrix(10.4,0,0,10.4,256.7,778.5)" />
<use xlink:href="#f3_25" transform="matrix(10.4,0,0,10.4,270.2,778.5)" />
<use xlink:href="#f3_20" transform="matrix(10.4,0,0,10.4,273.7,778.5)" />
<use xlink:href="#f3_21" transform="matrix(10.4,0,0,10.4,282.5,778.5)" />
<use xlink:href="#f3_2e" transform="matrix(10.4,0,0,10.4,298.8,778.5)" />
<use xlink:href="#f3_21" transform="matrix(10.4,0,0,10.4,304.1,778.5)" />
<use xlink:href="#f3_1x" transform="matrix(10.4,0,0,10.4,312.9,778.5)" />
<use xlink:href="#f3_1z" transform="matrix(10.4,0,0,10.4,321.7,778.5)" />
<use xlink:href="#f3_2g" transform="matrix(10.4,0,0,10.4,329.8,778.5)" />
<use xlink:href="#f3_25" transform="matrix(10.4,0,0,10.4,334.2,778.5)" />
<use xlink:href="#f3_2b" transform="matrix(10.4,0,0,10.4,337.7,778.5)" />
<use xlink:href="#f3_2a" transform="matrix(10.4,0,0,10.4,346.5,778.5)" />
<use xlink:href="#f3_c" transform="matrix(10.4,0,0,10.4,100.1,808.6)" />
<use xlink:href="#f3_25" transform="matrix(10.4,0,0,10.4,105.6,808.6)" />
<use xlink:href="#f3_25" transform="matrix(10.4,0,0,10.4,109.5,808.6)" />
<use xlink:href="#f3_d" transform="matrix(10.4,0,0,10.4,113.1,808.6)" />
<use xlink:href="#f3_17" transform="matrix(10.4,0,0,10.4,143.4,808.6)" />
<use xlink:href="#f3_1x" transform="matrix(10.4,0,0,10.4,155.8,808.6)" />
<use xlink:href="#f3_1y" transform="matrix(10.4,0,0,10.4,164.6,808.6)" />
<use xlink:href="#f3_2e" transform="matrix(10.4,0,0,10.4,173.6,808.6)" />
<use xlink:href="#f3_25" transform="matrix(10.4,0,0,10.4,178.9,808.6)" />
<use xlink:href="#f3_21" transform="matrix(10.4,0,0,10.4,182.4,808.6)" />
<use xlink:href="#f3_28" transform="matrix(10.4,0,0,10.4,191.2,808.6)" />
<use xlink:href="#f3_2c" transform="matrix(10.4,0,0,10.4,203.5,808.6)" />
<use xlink:href="#f3_24" transform="matrix(10.4,0,0,10.4,212.5,808.6)" />
<use xlink:href="#f3_2g" transform="matrix(10.4,0,0,10.4,221.3,808.6)" />
<use xlink:href="#f3_24" transform="matrix(10.4,0,0,10.4,225.7,808.6)" />
<use xlink:href="#f3_1x" transform="matrix(10.4,0,0,10.4,234.5,808.6)" />
<use xlink:href="#f3_2a" transform="matrix(10.4,0,0,10.4,243.3,808.6)" />
<use xlink:href="#f3_28" transform="matrix(10.4,0,0,10.4,252.1,808.6)" />
<use xlink:href="#f3_25" transform="matrix(10.4,0,0,10.4,255.8,808.6)" />
<use xlink:href="#f3_29" transform="matrix(10.4,0,0,10.4,259.2,808.6)" />
<use xlink:href="#f3_25" transform="matrix(10.4,0,0,10.4,272.8,808.6)" />
<use xlink:href="#f3_20" transform="matrix(10.4,0,0,10.4,276.3,808.6)" />
<use xlink:href="#f3_21" transform="matrix(10.4,0,0,10.4,285.1,808.6)" />
<use xlink:href="#f3_2f" transform="matrix(10.4,0,0,10.4,302.9,808.6)" />
<use xlink:href="#f3_2l" transform="matrix(10.4,0,0,10.4,310.9,808.6)" />
<use xlink:href="#f3_2a" transform="matrix(10.4,0,0,10.4,318.4,808.6)" />
<use xlink:href="#f3_2g" transform="matrix(10.4,0,0,10.4,327.2,808.6)" />
<use xlink:href="#f3_24" transform="matrix(10.4,0,0,10.4,331.6,808.6)" />
<use xlink:href="#f3_21" transform="matrix(10.4,0,0,10.4,340.4,808.6)" />
<use xlink:href="#f3_2f" transform="matrix(10.4,0,0,10.4,349.4,808.6)" />
<use xlink:href="#f3_25" transform="matrix(10.4,0,0,10.4,357.5,808.6)" />
<use xlink:href="#f3_2f" transform="matrix(10.4,0,0,10.4,361,808.6)" />
<use xlink:href="#f3_c" transform="matrix(10.4,0,0,10.4,100.1,838.6)" />
<use xlink:href="#f3_25" transform="matrix(10.4,0,0,10.4,105.6,838.6)" />
<use xlink:href="#f3_25" transform="matrix(10.4,0,0,10.4,109.3,838.6)" />
<use xlink:href="#f3_25" transform="matrix(10.4,0,0,10.4,112.9,838.6)" />
<use xlink:href="#f3_d" transform="matrix(10.4,0,0,10.4,116.6,838.6)" />
<use xlink:href="#f3_17" transform="matrix(10.4,0,0,10.4,143.4,838.6)" />
<use xlink:href="#f3_1x" transform="matrix(10.4,0,0,10.4,155.8,838.6)" />
<use xlink:href="#f3_2g" transform="matrix(10.4,0,0,10.4,164.8,838.6)" />
<use xlink:href="#f3_2g" transform="matrix(10.4,0,0,10.4,169.2,838.6)" />
<use xlink:href="#f3_21" transform="matrix(10.4,0,0,10.4,173.8,838.6)" />
<use xlink:href="#f3_2e" transform="matrix(10.4,0,0,10.4,182.6,838.6)" />
<use xlink:href="#f3_29" transform="matrix(10.4,0,0,10.4,188.1,838.6)" />
<use xlink:href="#f3_1x" transform="matrix(10.4,0,0,10.4,201.7,838.6)" />
<use xlink:href="#f3_2a" transform="matrix(10.4,0,0,10.4,210.7,838.6)" />
<use xlink:href="#f3_2e" transform="matrix(10.4,0,0,10.4,228.4,838.6)" />
<use xlink:href="#f3_21" transform="matrix(10.4,0,0,10.4,233.7,838.6)" />
<use xlink:href="#f3_1x" transform="matrix(10.4,0,0,10.4,242.7,838.6)" />
<use xlink:href="#f3_1z" transform="matrix(10.4,0,0,10.4,251.5,838.6)" />
<use xlink:href="#f3_2g" transform="matrix(10.4,0,0,10.4,259.8,838.6)" />
<use xlink:href="#f3_25" transform="matrix(10.4,0,0,10.4,264.2,838.6)" />
<use xlink:href="#f3_2b" transform="matrix(10.4,0,0,10.4,267.8,838.6)" />
<use xlink:href="#f3_2a" transform="matrix(10.4,0,0,10.4,276.6,838.6)" />
<use xlink:href="#f3_c" transform="matrix(10.4,0,0,10.4,100.1,868.7)" />
<use xlink:href="#f3_25" transform="matrix(10.4,0,0,10.4,105.8,868.7)" />
<use xlink:href="#f3_2i" transform="matrix(10.4,0,0,10.4,109.5,868.7)" />
<use xlink:href="#f3_d" transform="matrix(10.4,0,0,10.4,117.7,868.7)" />
<use xlink:href="#f3_13" transform="matrix(10.4,0,0,10.4,143.4,868.7)" />
<use xlink:href="#f3_2b" transform="matrix(10.4,0,0,10.4,155.1,868.7)" />
<use xlink:href="#f3_2h" transform="matrix(10.4,0,0,10.4,163.9,868.7)" />
<use xlink:href="#f3_2c" transform="matrix(10.4,0,0,10.4,172.9,868.7)" />
<use xlink:href="#f3_28" transform="matrix(10.4,0,0,10.4,181.7,868.7)" />
<use xlink:href="#f3_25" transform="matrix(10.4,0,0,10.4,185.4,868.7)" />
<use xlink:href="#f3_2a" transform="matrix(10.4,0,0,10.4,188.8,868.7)" />
<use xlink:href="#f3_23" transform="matrix(10.4,0,0,10.4,197.8,868.7)" />
<use xlink:href="#f3_2e" transform="matrix(10.4,0,0,10.4,215.6,868.7)" />
<use xlink:href="#f3_21" transform="matrix(10.4,0,0,10.4,221.1,868.7)" />
<use xlink:href="#f3_1x" transform="matrix(10.4,0,0,10.4,229.9,868.7)" />
<use xlink:href="#f3_1z" transform="matrix(10.4,0,0,10.4,238.9,868.7)" />
<use xlink:href="#f3_2g" transform="matrix(10.4,0,0,10.4,246.9,868.7)" />
<use xlink:href="#f3_25" transform="matrix(10.4,0,0,10.4,251.5,868.7)" />
<use xlink:href="#f3_2b" transform="matrix(10.4,0,0,10.4,255,868.7)" />
<use xlink:href="#f3_2a" transform="matrix(10.4,0,0,10.4,264,868.7)" />
<use xlink:href="#f3_c" transform="matrix(10.4,0,0,10.4,100.1,898.6)" />
<use xlink:href="#f3_2i" transform="matrix(10.4,0,0,10.4,105.8,898.6)" />
<use xlink:href="#f3_25" transform="matrix(10.4,0,0,10.4,113.9,898.6)" />
<use xlink:href="#f3_d" transform="matrix(10.4,0,0,10.4,117.7,898.6)" />
<use xlink:href="#f3_13" transform="matrix(10.4,0,0,10.4,143.4,898.6)" />
<use xlink:href="#f3_1x" transform="matrix(10.4,0,0,10.4,154.9,898.6)" />
<use xlink:href="#f3_2e" transform="matrix(10.4,0,0,10.4,163.9,898.6)" />
<use xlink:href="#f3_1y" transform="matrix(10.4,0,0,10.4,169.2,898.6)" />
<use xlink:href="#f3_2l" transform="matrix(10.4,0,0,10.4,178.2,898.6)" />
<use xlink:href="#f3_28" transform="matrix(10.4,0,0,10.4,185.7,898.6)" />
<use xlink:href="#f3_1x" transform="matrix(10.4,0,0,10.4,189.4,898.6)" />
<use xlink:href="#f3_29" transform="matrix(10.4,0,0,10.4,198.2,898.6)" />
<use xlink:href="#f3_25" transform="matrix(10.4,0,0,10.4,211.9,898.6)" />
<use xlink:href="#f3_2a" transform="matrix(10.4,0,0,10.4,215.4,898.6)" />
<use xlink:href="#f3_21" transform="matrix(10.4,0,0,10.4,224.4,898.6)" />
<use xlink:href="#f3_2e" transform="matrix(10.4,0,0,10.4,242.2,898.6)" />
<use xlink:href="#f3_21" transform="matrix(10.4,0,0,10.4,247.5,898.6)" />
<use xlink:href="#f3_1x" transform="matrix(10.4,0,0,10.4,256.5,898.6)" />
<use xlink:href="#f3_1z" transform="matrix(10.4,0,0,10.4,265.3,898.6)" />
<use xlink:href="#f3_2g" transform="matrix(10.4,0,0,10.4,273.5,898.6)" />
<use xlink:href="#f3_25" transform="matrix(10.4,0,0,10.4,277.9,898.6)" />
<use xlink:href="#f3_2b" transform="matrix(10.4,0,0,10.4,281.6,898.6)" />
<use xlink:href="#f3_2a" transform="matrix(10.4,0,0,10.4,290.4,898.6)" />
<use xlink:href="#f3_c" transform="matrix(10.4,0,0,10.4,100.1,928.7)" />
<use xlink:href="#f3_2i" transform="matrix(10.4,0,0,10.4,105.6,928.7)" />
<use xlink:href="#f3_25" transform="matrix(10.4,0,0,10.4,113.7,928.7)" />
<use xlink:href="#f3_25" transform="matrix(10.4,0,0,10.4,117.5,928.7)" />
<use xlink:href="#f3_d" transform="matrix(10.4,0,0,10.4,121.2,928.7)" />
<use xlink:href="#f3_11" transform="matrix(10.4,0,0,10.4,143.4,928.7)" />
<use xlink:href="#f3_1z" transform="matrix(10.4,0,0,10.4,154,928.7)" />
<use xlink:href="#f3_21" transform="matrix(10.4,0,0,10.4,162.1,928.7)" />
<use xlink:href="#f3_2g" transform="matrix(10.4,0,0,10.4,170.9,928.7)" />
<use xlink:href="#f3_2l" transform="matrix(10.4,0,0,10.4,175.3,928.7)" />
<use xlink:href="#f3_28" transform="matrix(10.4,0,0,10.4,182.8,928.7)" />
<use xlink:href="#f3_1x" transform="matrix(10.4,0,0,10.4,186.3,928.7)" />
<use xlink:href="#f3_2g" transform="matrix(10.4,0,0,10.4,195.1,928.7)" />
<use xlink:href="#f3_25" transform="matrix(10.4,0,0,10.4,199.5,928.7)" />
<use xlink:href="#f3_2b" transform="matrix(10.4,0,0,10.4,203,928.7)" />
<use xlink:href="#f3_2a" transform="matrix(10.4,0,0,10.4,211.8,928.7)" />
<use xlink:href="#f3_2b" transform="matrix(10.4,0,0,10.4,229.4,928.7)" />
<use xlink:href="#f3_22" transform="matrix(10.4,0,0,10.4,238.2,928.7)" />
<use xlink:href="#f3_1x" transform="matrix(10.4,0,0,10.4,251.5,928.7)" />
<use xlink:href="#f3_2a" transform="matrix(10.4,0,0,10.4,260.3,928.7)" />
<use xlink:href="#f3_25" transform="matrix(10.4,0,0,10.4,269.1,928.7)" />
<use xlink:href="#f3_28" transform="matrix(10.4,0,0,10.4,272.6,928.7)" />
<use xlink:href="#f3_25" transform="matrix(10.4,0,0,10.4,276.1,928.7)" />
<use xlink:href="#f3_2a" transform="matrix(10.4,0,0,10.4,279.6,928.7)" />
<use xlink:href="#f3_21" transform="matrix(10.4,0,0,10.4,288.4,928.7)" />
<use xlink:href="#f3_i" transform="matrix(10.4,0,0,10.4,297.2,928.7)" />
<use xlink:href="#f4_l" transform="matrix(12,0,0,12,680.7,1050.1)" />
</g>
<g fill="#0080FF" fill-opacity="0.5" >
<use xlink:href="#f0_1c" transform="matrix(38.5,0,0,38.5,184.9,1046.8)" />
<use xlink:href="#f0_21" transform="matrix(38.5,0,0,38.5,217.6,1046.8)" />
<use xlink:href="#f0_1x" transform="matrix(38.5,0,0,38.5,250.4,1046.8)" />
<use xlink:href="#f0_2e" transform="matrix(38.5,0,0,38.5,283.1,1046.8)" />
<use xlink:href="#f0_2a" transform="matrix(38.5,0,0,38.5,302.7,1046.8)" />
<use xlink:href="#f0_17" transform="matrix(38.5,0,0,38.5,335.4,1046.8)" />
<use xlink:href="#f0_2h" transform="matrix(38.5,0,0,38.5,381.3,1046.8)" />
<use xlink:href="#f0_25" transform="matrix(38.5,0,0,38.5,414,1046.8)" />
<use xlink:href="#f0_20" transform="matrix(38.5,0,0,38.5,427.1,1046.8)" />
<use xlink:href="#f0_21" transform="matrix(38.5,0,0,38.5,459.8,1046.8)" />
<use xlink:href="#f0_i" transform="matrix(38.5,0,0,38.5,492.6,1046.8)" />
<use xlink:href="#f0_25" transform="matrix(38.5,0,0,38.5,508.9,1046.8)" />
<use xlink:href="#f0_2a" transform="matrix(38.5,0,0,38.5,522,1046.8)" />
</g>
<defs>
<path d="M593,101c0,0,182,0,279,112c0,0,98,113,98,318c0,0,0,196,-98,308c0,0,-98,112,-277,112c0,0,-181,0,-279,-110c0,0,-99,-111,-99,-310c0,0,0,-198,100,-314c0,0,99,-116,276,-116Zm0,-115c0,0,-162,0,-279,65c0,0,-118,66,-180,190c0,0,-62,124,-62,290c0,0,0,252,138,394c0,0,138,142,385,142c0,0,160,0,278,-64c0,0,118,-64,180,-185c0,0,62,-122,62,-287c0,0,0,-165,-63,-289c0,0,-63,-124,-181,-190c0,0,-118,-66,-278,-66Z" 
id="f0_1f"
transform="scale(0.001,-0.001)" />

<path d="M106,0V635c0,0,0,141,-5,173H228c0,0,1,-4,2,-21c0,0,1,-16,2,-37c0,0,1,-22,2,-81h2c0,0,47,84,108,119c0,0,60,34,151,34c0,0,132,0,194,-66c0,0,61,-66,61,-218V0H615V512c0,0,0,80,-15,124c0,0,-16,44,-50,63c0,0,-35,20,-101,20c0,0,-97,0,-153,-67c0,0,-56,-66,-56,-184V0Z" 
id="f0_2a"
transform="scale(0.001,-0.001)" />

<path d="M103,0V1107H237V0Z" 
id="f0_28"
transform="scale(0.001,-0.001)" />

<path d="M102,0V808H236V0Zm0,979v128H236V979Z" 
id="f0_25"
transform="scale(0.001,-0.001)" />

<path d="M643,478c0,0,-11,128,-65,187c0,0,-54,59,-154,59c0,0,-98,0,-155,-66c0,0,-57,-65,-62,-180ZM431,-14c0,0,-179,0,-272,106c0,0,-94,107,-94,317c0,0,0,200,94,307c0,0,93,106,267,106c0,0,356,0,356,-429V375H206c0,0,0,-138,57,-213c0,0,58,-75,168,-75c0,0,87,0,140,35c0,0,53,35,71,88L760,177c0,0,-72,-191,-329,-191Z" 
id="f0_21"
transform="scale(0.001,-0.001)" />

<path d="M17,0L304,415L31,808H179L380,493L580,808H730L457,417L747,0H598L380,331L162,0Z" 
id="f0_2k"
transform="scale(0.001,-0.001)" />

<path d="M339,87c0,0,74,0,132,34c0,0,57,33,90,91c0,0,34,59,34,121v66L448,396c0,0,-95,-2,-144,-19c0,0,-49,-18,-75,-55c0,0,-26,-38,-26,-98c0,0,0,-65,35,-101c0,0,36,-36,101,-36ZM309,-14c0,0,-122,0,-183,64c0,0,-61,64,-61,176c0,0,0,125,82,192c0,0,83,67,266,72l182,3v44c0,0,0,98,-42,141c0,0,-42,43,-132,43c0,0,-90,0,-131,-31c0,0,-41,-31,-49,-98L101,604c0,0,34,218,323,218c0,0,153,0,229,-70c0,0,77,-69,77,-202V202c0,0,0,-59,16,-90c0,0,16,-30,60,-30c0,0,19,0,44,5V4C850,4,799,-7,746,-7c0,0,-75,0,-109,38c0,0,-33,40,-38,124h-4C595,155,543,62,475,24c0,0,-68,-38,-166,-38Z" 
id="f0_1x"
transform="scale(0.001,-0.001)" />

<path d="M106,0V635c0,0,0,141,-5,173H228c0,0,1,-4,2,-21c0,0,1,-16,2,-37c0,0,1,-22,2,-81h2c0,0,44,86,100,120c0,0,56,33,136,33c0,0,92,0,145,-36c0,0,54,-37,75,-117h2c0,0,42,82,101,117c0,0,59,36,143,36c0,0,123,0,178,-66c0,0,56,-67,56,-218V0H1039V512c0,0,0,117,-32,162c0,0,-32,45,-116,45c0,0,-88,0,-136,-66c0,0,-49,-65,-49,-185V0H573V512c0,0,0,117,-32,162c0,0,-32,45,-116,45c0,0,-86,0,-136,-66c0,0,-50,-66,-50,-185V0Z" 
id="f0_29"
transform="scale(0.001,-0.001)" />

<path d="M453,84c0,0,100,0,146,74c0,0,46,73,46,247c0,0,0,169,-46,241c0,0,-45,73,-145,73c0,0,-80,0,-125,-34c0,0,-45,-34,-68,-105c0,0,-24,-71,-24,-186c0,0,0,-159,51,-234c0,0,51,-76,165,-76ZM103,-316V643c0,0,0,124,-5,165H228c0,0,1,-3,3,-22c0,0,1,-18,3,-56c0,0,2,-38,2,-52h3c0,0,36,75,94,110c0,0,59,34,156,34c0,0,149,0,223,-100c0,0,74,-100,74,-314c0,0,0,-422,-297,-422c0,0,-187,0,-251,140h-4c0,0,3,-6,3,-126V-316Z" 
id="f0_2c"
transform="scale(0.001,-0.001)" />

<path d="M420,84c0,0,121,0,173,78c0,0,52,77,52,243c0,0,0,167,-50,243c0,0,-50,76,-167,76c0,0,-118,0,-170,-78c0,0,-53,-77,-53,-241c0,0,0,-160,52,-241c0,0,52,-80,163,-80Zm1,-98c0,0,-176,0,-267,107c0,0,-90,108,-90,312c0,0,0,417,362,417c0,0,185,0,272,-102c0,0,88,-101,88,-315c0,0,0,-212,-94,-316C692,89,599,-14,421,-14Z" 
id="f0_2b"
transform="scale(0.001,-0.001)" />

<path d="M278,-11c0,0,-162,0,-162,182V710H23v98h99l39,181h90V808H400V710H251V200c0,0,0,-58,19,-82c0,0,19,-23,66,-23c0,0,27,0,77,10V6c0,0,-66,-17,-135,-17Z" 
id="f0_2g"
transform="scale(0.001,-0.001)" />

<path d="M571,-18c0,0,-218,0,-358,148C213,130,72,279,72,537c0,0,0,273,141,425c0,0,141,151,371,151c0,0,201,0,326,-119c0,0,75,-70,112,-202L803,740c0,0,-19,85,-81,135c0,0,-61,49,-149,49c0,0,-122,0,-197,-87c0,0,-76,-88,-76,-283c0,0,0,-208,75,-296c0,0,74,-88,194,-88c0,0,88,0,151,56c0,0,63,56,91,177l214,-68c0,0,-49,-179,-164,-266c0,0,-114,-87,-290,-87Z" 
id="f1_13"
transform="scale(0.001,-0.001)" />

<path d="M109,0V1093H318V691c0,0,101,120,243,120c0,0,72,0,131,-27c0,0,58,-27,87,-69c0,0,30,-42,41,-93c0,0,11,-50,11,-157V0H621V419c0,0,0,124,-12,158c0,0,-12,34,-42,53c0,0,-30,20,-76,20c0,0,-53,0,-94,-25c0,0,-41,-26,-60,-77c0,0,-19,-51,-19,-151V0Z" 
id="f1_24"
transform="scale(0.001,-0.001)" />

<path d="M380,130c0,0,57,0,108,37c0,0,38,29,50,70c0,0,9,27,9,102v42c0,0,-41,-13,-128,-32c0,0,-87,-19,-114,-36c0,0,-41,-30,-41,-74c0,0,0,-45,33,-77c0,0,33,-32,83,-32ZM318,-17c0,0,-122,0,-193,66c0,0,-70,66,-70,168c0,0,0,67,32,120c0,0,32,53,90,81c0,0,57,28,166,49c0,0,147,27,204,51v21c0,0,0,60,-30,86c0,0,-30,25,-112,25c0,0,-56,0,-87,-22c0,0,-32,-22,-51,-77L76,586c0,0,32,114,111,169c0,0,78,56,232,56c0,0,141,0,209,-34c0,0,69,-33,97,-84c0,0,28,-51,28,-188L750,260c0,0,0,-104,10,-154c0,0,10,-49,38,-106H591c0,0,-9,21,-21,62c0,0,-5,19,-7,25C563,87,509,35,448,8c0,0,-61,-25,-130,-25Z" 
id="f1_1x"
transform="scale(0.001,-0.001)" />

<path d="M493,149c0,0,73,0,122,58c0,0,48,59,48,193c0,0,0,124,-50,185c0,0,-50,60,-124,60c0,0,-77,0,-128,-59c0,0,-51,-59,-51,-176c0,0,0,-134,53,-198c0,0,53,-63,130,-63ZM104,-300V792H299V676c0,0,38,59,103,97c0,0,65,38,144,38c0,0,138,0,234,-109c0,0,97,-108,97,-301c0,0,0,-199,-98,-309C779,92,682,-17,544,-17c0,0,-65,0,-119,26c0,0,-53,26,-112,89V-300Z" 
id="f1_2c"
transform="scale(0.001,-0.001)" />

<path d="M324,-17c0,0,-57,0,-102,18c0,0,-45,19,-67,50c0,0,-21,30,-29,81c0,0,-7,37,-7,148V625H23V792h96V949l210,124V792H471V625H329V306c0,0,0,-97,4,-113c0,0,4,-16,18,-26c0,0,15,-11,36,-11c0,0,29,0,84,21L489,14c0,0,-73,-31,-165,-31Z" 
id="f1_2g"
transform="scale(0.001,-0.001)" />

<path d="M580,464c0,0,-2,91,-47,139c0,0,-45,47,-108,47c0,0,-69,0,-113,-50c0,0,-45,-50,-44,-136ZM433,-17c0,0,-207,0,-306,134c0,0,-78,109,-78,274c0,0,0,196,103,308c0,0,103,112,260,112c0,0,176,0,278,-117c0,0,103,-117,98,-358H264c0,0,2,-93,51,-145c0,0,48,-52,120,-52c0,0,49,0,83,27c0,0,33,27,50,86L777,217C777,217,737,102,650,42c0,0,-87,-59,-217,-59Z" 
id="f1_21"
transform="scale(0.001,-0.001)" />

<path d="M101,0V792H295V679c0,0,50,80,90,106c0,0,40,26,91,26c0,0,72,0,138,-40L549,589c0,0,-53,34,-99,34c0,0,-44,0,-74,-24c0,0,-31,-25,-48,-88c0,0,-18,-64,-18,-266V0Z" 
id="f1_2e"
transform="scale(0.001,-0.001)" />

<path d="M60,305V487H448V305Z" 
id="f2_h"
transform="scale(0.001,-0.001)" />

<path d="M96,0V155H357V873L104,716V881l264,170H566V155H807V0Z" 
id="f2_l"
transform="scale(0.001,-0.001)" />

<path d="M421,-17c0,0,-169,0,-269,77C152,60,52,138,35,285l213,19c0,0,21,-151,173,-151c0,0,75,0,117,37c0,0,42,37,42,114c0,0,0,70,-51,107c0,0,-51,38,-151,38H305V618h69c0,0,90,0,135,37c0,0,46,37,46,106c0,0,0,65,-36,102c0,0,-36,38,-106,38c0,0,-65,0,-105,-36c0,0,-39,-36,-45,-102L53,778c0,0,16,135,113,212c0,0,96,77,251,77c0,0,165,0,258,-75c0,0,93,-74,93,-205c0,0,0,-99,-58,-162c0,0,-58,-64,-167,-85v-3c0,0,121,-14,186,-79c0,0,65,-65,65,-167c0,0,0,-147,-96,-228c0,0,-97,-80,-277,-80Z" 
id="f2_n"
transform="scale(0.001,-0.001)" />

<path d="M703,434L599,736L567,838l-16,51l-4,-16c0,0,-8,-27,-18,-61c0,0,-11,-35,-128,-378ZM38,0L421,1051H681L1063,0H845L752,269H351L258,0Z" 
id="f2_11"
transform="scale(0.001,-0.001)" />

<path d="M102,0V1051H397L585,463l16,-56L637,266l47,168l193,617h293V0H975V637c0,0,0,22,0,43c0,0,1,22,7,186c0,0,-52,-201,-78,-280L715,0H558L369,586L289,866c0,0,9,-173,9,-229V0Z" 
id="f2_1d"
transform="scale(0.001,-0.001)" />

<path d="M102,0V1051H322V0Z" 
id="f2_19"
transform="scale(0.001,-0.001)" />

<path d="M102,0V1051H354L818,235c0,0,-13,113,-13,205v611h195V0H742L284,809c0,0,14,-117,14,-189V0Z" 
id="f2_1e"
transform="scale(0.001,-0.001)" />

<path d="M102,0V1051H929V881H322V617H883V447H322V170H959V0Z" 
id="f2_15"
transform="scale(0.001,-0.001)" />

<path d="M509,-14c0,0,-202,0,-317,71C192,57,77,129,44,274l213,35c0,0,21,-83,84,-121c0,0,63,-37,174,-37c0,0,230,0,230,139c0,0,0,45,-26,74c0,0,-27,29,-75,49c0,0,-48,19,-184,47c0,0,-118,27,-165,44c0,0,-46,17,-83,40c0,0,-37,22,-64,54c0,0,-26,32,-40,76c0,0,-15,43,-15,99c0,0,0,142,107,218c0,0,107,76,312,76c0,0,195,0,293,-61c0,0,98,-62,127,-203L718,774c0,0,-16,68,-66,103c0,0,-51,34,-145,34c0,0,-200,0,-200,-125c0,0,0,-41,22,-68c0,0,21,-26,63,-44c0,0,41,-18,169,-46c0,0,151,-32,217,-59c0,0,65,-27,103,-63c0,0,38,-37,58,-87c0,0,20,-50,20,-116c0,0,0,-154,-114,-236c0,0,-115,-81,-336,-81Z" 
id="f2_1j"
transform="scale(0.001,-0.001)" />

<path d="M116,0V114H384V923L147,754V881l248,170H519V114H775V0Z" 
id="f3_l"
transform="scale(0.001,-0.001)" />

<path d="M140,0V163H285V0Z" 
id="f3_i"
transform="scale(0.001,-0.001)" />

<path d="M316,0L7,1051H155L344,383c0,0,33,-125,62,-258c0,0,18,82,41,179c0,0,24,97,207,747H791L974,397c0,0,41,-160,65,-272l7,26c0,0,20,86,33,140c0,0,12,54,209,760h149L1127,0H957L775,668c0,0,-18,62,-52,224c0,0,-20,-86,-33,-145C690,747,677,689,486,0Z" 
id="f3_1n"
transform="scale(0.001,-0.001)" />

<path d="M106,0V620c0,0,0,85,-5,188H228c0,0,6,-138,6,-165h3c0,0,32,103,74,141c0,0,42,38,118,38c0,0,27,0,54,-7V692c0,0,-26,7,-71,7c0,0,-84,0,-128,-72c0,0,-44,-72,-44,-206V0Z" 
id="f3_2e"
transform="scale(0.001,-0.001)" />

<path d="M102,0V808H236V0Zm0,979v128H236V979Z" 
id="f3_25"
transform="scale(0.001,-0.001)" />

<path d="M278,-11c0,0,-162,0,-162,182V710H23v98h99l39,181h90V808H400V710H251V200c0,0,0,-58,19,-82c0,0,19,-23,66,-23c0,0,27,0,77,10V6c0,0,-66,-17,-135,-17Z" 
id="f3_2g"
transform="scale(0.001,-0.001)" />

<path d="M643,478c0,0,-11,128,-65,187c0,0,-54,59,-154,59c0,0,-98,0,-155,-66c0,0,-57,-65,-62,-180ZM431,-14c0,0,-179,0,-272,106c0,0,-94,107,-94,317c0,0,0,200,94,307c0,0,93,106,267,106c0,0,356,0,356,-429V375H206c0,0,0,-138,57,-213c0,0,58,-75,168,-75c0,0,87,0,140,35c0,0,53,35,71,88L760,177c0,0,-72,-191,-329,-191Z" 
id="f3_21"
transform="scale(0.001,-0.001)" />

<path d="M141,0V1051H283V0Z" 
id="f3_19"
transform="scale(0.001,-0.001)" />

<path d="M545,-14c0,0,-129,0,-225,46c0,0,-96,47,-149,137c0,0,-53,89,-53,213v669H260V394c0,0,0,-144,73,-219c0,0,74,-74,212,-74c0,0,141,0,220,77c0,0,79,77,79,226v647H985V396c0,0,0,-128,-54,-220C931,176,877,83,778,34c0,0,-98,-48,-233,-48Z" 
id="f3_1l"
transform="scale(0.001,-0.001)" />

<path d="M557,522c0,0,238,0,238,211c0,0,0,204,-244,204H268V522ZM125,0V1051H568c0,0,176,0,273,-83c0,0,97,-82,97,-233c0,0,0,-149,-97,-237c0,0,-97,-88,-264,-88H268V0Z" 
id="f3_1g"
transform="scale(0.001,-0.001)" />

<path d="M708,418L573,765c0,0,-21,52,-42,117l-20,62l-7,-21c0,0,-18,-62,-55,-159L315,418ZM3,0L432,1051H594L1016,0H871L750,307H272L151,0Z" 
id="f3_11"
transform="scale(0.001,-0.001)" />

<path d="M590,-14c0,0,-159,0,-275,65c0,0,-116,66,-177,189c0,0,-60,123,-60,291c0,0,0,251,135,393c0,0,136,143,376,143c0,0,168,0,281,-66c0,0,112,-66,165,-195L900,762c0,0,-36,92,-117,141c0,0,-81,48,-192,48c0,0,-175,0,-272,-112c0,0,-97,-112,-97,-308c0,0,0,-193,101,-311c0,0,101,-117,274,-117c0,0,221,0,332,218l116,-58c0,0,-65,-136,-182,-207c0,0,-118,-70,-273,-70Z" 
id="f3_13"
transform="scale(0.001,-0.001)" />

<path d="M106,0V635c0,0,0,141,-5,173H228c0,0,1,-4,2,-21c0,0,1,-16,2,-37c0,0,1,-22,2,-81h2c0,0,47,84,108,119c0,0,60,34,151,34c0,0,132,0,194,-66c0,0,61,-66,61,-218V0H615V512c0,0,0,80,-15,124c0,0,-16,44,-50,63c0,0,-35,20,-101,20c0,0,-97,0,-153,-67c0,0,-56,-66,-56,-184V0Z" 
id="f3_2a"
transform="scale(0.001,-0.001)" />

<path d="M339,87c0,0,74,0,132,34c0,0,57,33,90,91c0,0,34,59,34,121v66L448,396c0,0,-95,-2,-144,-19c0,0,-49,-18,-75,-55c0,0,-26,-38,-26,-98c0,0,0,-65,35,-101c0,0,36,-36,101,-36ZM309,-14c0,0,-122,0,-183,64c0,0,-61,64,-61,176c0,0,0,125,82,192c0,0,83,67,266,72l182,3v44c0,0,0,98,-42,141c0,0,-42,43,-132,43c0,0,-90,0,-131,-31c0,0,-41,-31,-49,-98L101,604c0,0,34,218,323,218c0,0,153,0,229,-70c0,0,77,-69,77,-202V202c0,0,0,-59,16,-90c0,0,16,-30,60,-30c0,0,19,0,44,5V4C850,4,799,-7,746,-7c0,0,-75,0,-109,38c0,0,-33,40,-38,124h-4C595,155,543,62,475,24c0,0,-68,-38,-166,-38Z" 
id="f3_1x"
transform="scale(0.001,-0.001)" />

<path d="M106,0V635c0,0,0,141,-5,173H228c0,0,1,-4,2,-21c0,0,1,-16,2,-37c0,0,1,-22,2,-81h2c0,0,44,86,100,120c0,0,56,33,136,33c0,0,92,0,145,-36c0,0,54,-37,75,-117h2c0,0,42,82,101,117c0,0,59,36,143,36c0,0,123,0,178,-66c0,0,56,-67,56,-218V0H1039V512c0,0,0,117,-32,162c0,0,-32,45,-116,45c0,0,-88,0,-136,-66c0,0,-49,-65,-49,-185V0H573V512c0,0,0,117,-32,162c0,0,-32,45,-116,45c0,0,-86,0,-136,-66c0,0,-50,-66,-50,-185V0Z" 
id="f3_29"
transform="scale(0.001,-0.001)" />

<path d="M381,-14c0,0,-150,0,-232,49C149,35,67,85,43,190l118,23c0,0,17,-65,71,-96c0,0,54,-30,149,-30c0,0,102,0,150,31c0,0,47,32,47,95c0,0,0,47,-33,77c0,0,-33,30,-106,49l-96,26c0,0,-115,30,-164,58c0,0,-49,29,-77,70c0,0,-27,41,-27,101c0,0,0,110,78,168c0,0,79,57,230,57c0,0,133,0,212,-47c0,0,79,-47,100,-150L574,607c0,0,-12,53,-60,82c0,0,-49,29,-131,29c0,0,-91,0,-135,-28c0,0,-43,-27,-43,-83c0,0,0,-34,18,-57c0,0,18,-22,53,-38c0,0,35,-15,148,-43c0,0,106,-27,153,-50c0,0,47,-22,75,-50c0,0,27,-27,42,-64c0,0,15,-36,15,-82c0,0,0,-114,-86,-176c0,0,-87,-61,-242,-61Z" 
id="f3_2f"
transform="scale(0.001,-0.001)" />

<path d="M420,84c0,0,121,0,173,78c0,0,52,77,52,243c0,0,0,167,-50,243c0,0,-50,76,-167,76c0,0,-118,0,-170,-78c0,0,-53,-77,-53,-241c0,0,0,-160,52,-241c0,0,52,-80,163,-80Zm1,-98c0,0,-176,0,-267,107c0,0,-90,108,-90,312c0,0,0,417,362,417c0,0,185,0,272,-102c0,0,88,-101,88,-315c0,0,0,-212,-94,-316C692,89,599,-14,421,-14Z" 
id="f3_2b"
transform="scale(0.001,-0.001)" />

<path d="M135,0V710H22v98H135v91c0,0,0,110,49,158c0,0,48,49,148,49c0,0,56,0,95,-9V994c0,0,-34,6,-60,6c0,0,-51,0,-75,-26c0,0,-23,-26,-23,-94V808H427V710H269V0Z" 
id="f3_22"
transform="scale(0.001,-0.001)" />

<path d="M615,0V512c0,0,0,85,-15,126c0,0,-16,42,-52,61c0,0,-36,20,-99,20c0,0,-95,0,-152,-66c0,0,-57,-66,-57,-177V0H106V1107H240V819c0,0,0,-45,-2,-94c0,0,-3,-48,-4,-56h2c0,0,44,79,105,116c0,0,60,37,154,37c0,0,131,0,193,-65c0,0,62,-65,62,-219V0Z" 
id="f3_24"
transform="scale(0.001,-0.001)" />

<path d="M103,0V1107H237V0Z" 
id="f3_28"
transform="scale(0.001,-0.001)" />

<path d="M224,0L-1,808H131L267,259c0,0,5,-18,32,-147l13,55L480,808H624L765,253L800,112l23,103L976,808h131L876,0H720L579,571L552,697c0,0,-7,-33,-21,-96C531,601,517,537,379,0Z" 
id="f3_2j"
transform="scale(0.001,-0.001)" />

<path d="M398,93c0,0,63,0,112,37c0,0,49,38,76,107c0,0,27,70,27,166c0,0,0,99,-27,170c0,0,-27,71,-75,109c0,0,-49,38,-111,38c0,0,-103,0,-150,-75c0,0,-47,-75,-47,-242c0,0,0,-165,44,-238c0,0,44,-72,151,-72Zm11,-409c0,0,-132,0,-211,52c0,0,-78,52,-100,147l135,20c0,0,13,-56,59,-87c0,0,46,-30,121,-30c0,0,200,0,200,234V150h-1C612,150,574,72,507,33C507,33,441,-5,352,-5c0,0,-148,0,-218,98c0,0,-70,98,-70,309c0,0,0,214,75,316c0,0,75,101,228,101c0,0,86,0,149,-39c0,0,63,-39,97,-111h2c0,0,0,22,3,78c0,0,3,55,6,61H751c0,0,-4,-41,-4,-167V23c0,0,0,-339,-338,-339Z" 
id="f3_23"
transform="scale(0.001,-0.001)" />

<path d="M140,0V154H285V0Zm0,653V808H285V653Z" 
id="f3_u"
transform="scale(0.001,-0.001)" />

<path d="M77,0V95c0,0,38,87,93,154c0,0,55,67,115,121c0,0,60,54,120,100c0,0,59,46,107,93c0,0,47,46,77,97c0,0,29,50,29,114c0,0,0,87,-50,135c0,0,-51,47,-141,47c0,0,-86,0,-142,-46c0,0,-55,-47,-65,-131L83,791c0,0,15,126,107,201c0,0,92,75,237,75c0,0,159,0,244,-75c0,0,85,-75,85,-213c0,0,0,-61,-28,-122c0,0,-28,-60,-83,-120c0,0,-55,-61,-211,-188c0,0,-86,-70,-136,-126c0,0,-51,-56,-73,-109H773V0Z" 
id="f3_m"
transform="scale(0.001,-0.001)" />

<path d="M606,-14c0,0,-164,0,-284,65c0,0,-119,66,-182,189c0,0,-63,123,-63,291c0,0,0,255,137,396c0,0,137,140,386,140c0,0,174,0,283,-59c0,0,109,-59,168,-189L915,779c0,0,-44,90,-123,131c0,0,-79,41,-196,41c0,0,-182,0,-278,-110c0,0,-96,-110,-96,-310c0,0,0,-200,102,-315c0,0,102,-115,282,-115c0,0,103,0,193,31c0,0,89,31,144,85V407H629V526h445V164c0,0,-83,-85,-205,-132c0,0,-121,-46,-263,-46Z" 
id="f3_17"
transform="scale(0.001,-0.001)" />

<path d="M298,0L5,808H148L326,282c0,0,10,-29,51,-176l27,87l29,88L616,808H759L457,0Z" 
id="f3_2i"
transform="scale(0.001,-0.001)" />

<path d="M17,0L304,415L31,808H179L380,493L580,808H730L457,417L747,0H598L380,331L162,0Z" 
id="f3_2k"
transform="scale(0.001,-0.001)" />

<path d="M453,84c0,0,100,0,146,74c0,0,46,73,46,247c0,0,0,169,-46,241c0,0,-45,73,-145,73c0,0,-80,0,-125,-34c0,0,-45,-34,-68,-105c0,0,-24,-71,-24,-186c0,0,0,-159,51,-234c0,0,51,-76,165,-76ZM103,-316V643c0,0,0,124,-5,165H228c0,0,1,-3,3,-22c0,0,1,-18,3,-56c0,0,2,-38,2,-52h3c0,0,36,75,94,110c0,0,59,34,156,34c0,0,149,0,223,-100c0,0,74,-100,74,-314c0,0,0,-422,-297,-422c0,0,-187,0,-251,140h-4c0,0,3,-6,3,-126V-316Z" 
id="f3_2c"
transform="scale(0.001,-0.001)" />

<path d="M413,-14c0,0,-170,0,-259,106c0,0,-89,107,-89,313c0,0,0,203,89,310c0,0,90,107,257,107c0,0,124,0,206,-64c0,0,81,-64,102,-177L581,571c0,0,-10,67,-53,106c0,0,-42,40,-121,40c0,0,-106,0,-154,-71c0,0,-48,-71,-48,-239c0,0,0,-161,51,-238c0,0,51,-78,153,-78c0,0,71,0,120,39c0,0,48,39,59,119l136,-9C724,240,708,124,624,55c0,0,-83,-69,-211,-69Z" 
id="f3_1z"
transform="scale(0.001,-0.001)" />

<path d="M137,-195c0,0,70,102,70,195H142V163H287V38c0,0,0,-78,-14,-131c0,0,-14,-53,-44,-102Z" 
id="f3_g"
transform="scale(0.001,-0.001)" />

<path d="M395,89c0,0,115,0,166,79c0,0,51,79,51,246c0,0,0,160,-51,235c0,0,-51,75,-164,75c0,0,-102,0,-147,-75c0,0,-45,-75,-45,-244c0,0,0,-170,45,-243c0,0,45,-73,145,-73ZM361,-14c0,0,-153,0,-225,102c0,0,-72,103,-72,312c0,0,0,422,297,422c0,0,92,0,153,-33c0,0,61,-34,98,-107h2l-2,90v335H747V166c0,0,0,-126,4,-166H623c0,0,-2,12,-5,55c0,0,-3,44,-3,75h-3c0,0,-37,-78,-98,-111c0,0,-62,-33,-153,-33Z" 
id="f3_20"
transform="scale(0.001,-0.001)" />

<path d="M453,84c0,0,101,0,146,75c0,0,46,75,46,244c0,0,0,169,-45,243c0,0,-45,73,-146,73c0,0,-113,0,-165,-78c0,0,-52,-78,-52,-246c0,0,0,-159,51,-235c0,0,51,-76,165,-76Zm36,-98c0,0,-92,0,-153,33c0,0,-61,33,-99,107h-1c0,0,0,-24,-3,-71c0,0,-3,-48,-5,-55H98c0,0,5,40,5,166v941H237V792c0,0,0,-49,-3,-114h3c0,0,38,77,99,111c0,0,62,33,153,33c0,0,153,0,225,-103c0,0,72,-103,72,-311c0,0,0,-422,-297,-422Z" 
id="f3_1y"
transform="scale(0.001,-0.001)" />

<path d="M370,-316c0,0,-141,152,-208,323C162,7,95,179,95,394v3c0,0,0,215,67,387c0,0,68,171,208,323H500c0,0,-140,-155,-205,-330c0,0,-65,-175,-65,-382c0,0,0,-207,64,-381c0,0,65,-172,206,-330Z" 
id="f3_c"
transform="scale(0.001,-0.001)" />

<path d="M9,-316c0,0,140,157,205,329c0,0,65,174,65,382c0,0,0,208,-65,382c0,0,-66,174,-205,330H139c0,0,141,-152,208,-324c0,0,67,-172,67,-386v-3c0,0,0,-216,-67,-388c0,0,-68,-170,-208,-322Z" 
id="f3_d"
transform="scale(0.001,-0.001)" />

<path d="M125,0V1051H268V606H836v445H979V0H836V487H268V0Z" 
id="f3_18"
transform="scale(0.001,-0.001)" />

<path d="M142,-316c0,0,-55,0,-92,8v101c0,0,28,-4,63,-4c0,0,125,0,198,184L324,4L4,808H147L317,362c0,0,4,-11,9,-25c0,0,5,-15,34,-98c0,0,28,-83,30,-92l52,147L619,808H761L451,0c0,0,-50,-128,-94,-191c0,0,-43,-63,-96,-94c0,0,-52,-31,-119,-31Z" 
id="f3_2l"
transform="scale(0.001,-0.001)" />

<path d="M355,-14c0,0,-133,0,-194,65c0,0,-62,66,-62,219V808H234V296c0,0,0,-80,16,-124c0,0,16,-44,50,-64c0,0,34,-19,101,-19c0,0,97,0,153,66c0,0,55,67,55,185V808H744V172c0,0,0,-141,4,-172H621c0,0,0,4,-1,20c0,0,-1,17,-2,38c0,0,-1,21,-3,80h-2C613,138,567,55,506,20c0,0,-61,-34,-151,-34Z" 
id="f3_2h"
transform="scale(0.001,-0.001)" />

<path d="M435,0V856c0,0,-48,-47,-127,-93c0,0,-79,-46,-142,-69V824c0,0,113,52,197,128c0,0,85,75,120,146h86V0Z" 
id="f4_l"
transform="scale(0.001,-0.001)" />

<path d="M125,0V1051H268V115H799V0Z" 
id="f0_1c"
transform="scale(0.001,-0.001)" />

<path d="M106,0V620c0,0,0,85,-5,188H228c0,0,6,-138,6,-165h3c0,0,32,103,74,141c0,0,42,38,118,38c0,0,27,0,54,-7V692c0,0,-26,7,-71,7c0,0,-84,0,-128,-72c0,0,-44,-72,-44,-206V0Z" 
id="f0_2e"
transform="scale(0.001,-0.001)" />

<path d="M606,-14c0,0,-164,0,-284,65c0,0,-119,66,-182,189c0,0,-63,123,-63,291c0,0,0,255,137,396c0,0,137,140,386,140c0,0,174,0,283,-59c0,0,109,-59,168,-189L915,779c0,0,-44,90,-123,131c0,0,-79,41,-196,41c0,0,-182,0,-278,-110c0,0,-96,-110,-96,-310c0,0,0,-200,102,-315c0,0,102,-115,282,-115c0,0,103,0,193,31c0,0,89,31,144,85V407H629V526h445V164c0,0,-83,-85,-205,-132c0,0,-121,-46,-263,-46Z" 
id="f0_17"
transform="scale(0.001,-0.001)" />

<path d="M355,-14c0,0,-133,0,-194,65c0,0,-62,66,-62,219V808H234V296c0,0,0,-80,16,-124c0,0,16,-44,50,-64c0,0,34,-19,101,-19c0,0,97,0,153,66c0,0,55,67,55,185V808H744V172c0,0,0,-141,4,-172H621c0,0,0,4,-1,20c0,0,-1,17,-2,38c0,0,-1,21,-3,80h-2C613,138,567,55,506,20c0,0,-61,-34,-151,-34Z" 
id="f0_2h"
transform="scale(0.001,-0.001)" />

<path d="M395,89c0,0,115,0,166,79c0,0,51,79,51,246c0,0,0,160,-51,235c0,0,-51,75,-164,75c0,0,-102,0,-147,-75c0,0,-45,-75,-45,-244c0,0,0,-170,45,-243c0,0,45,-73,145,-73ZM361,-14c0,0,-153,0,-225,102c0,0,-72,103,-72,312c0,0,0,422,297,422c0,0,92,0,153,-33c0,0,61,-34,98,-107h2l-2,90v335H747V166c0,0,0,-126,4,-166H623c0,0,-2,12,-5,55c0,0,-3,44,-3,75h-3c0,0,-37,-78,-98,-111c0,0,-62,-33,-153,-33Z" 
id="f0_20"
transform="scale(0.001,-0.001)" />

<path d="M140,0V163H285V0Z" 
id="f0_i"
transform="scale(0.001,-0.001)" />


</defs>
</svg>