<?xml version="1.0" encoding="UTF-8" standalone="no"?>
<!DOCTYPE svg PUBLIC "-//W3C//DTD SVG 1.1//EN"
"http://www.w3.org/Graphics/SVG/1.1/DTD/svg11.dtd">
<svg viewBox="0 0 726 1074" version="1.1" xmlns="http://www.w3.org/2000/svg" xmlns:xlink="http://www.w3.org/1999/xlink">
<defs>
<clipPath id="c0_8"><path d="M326.2,148.1V135.4h12.5v12.7Z" /></clipPath>
<clipPath id="c1_8"><path d="M409.5,178.1V165.5h12.4v12.6Z" /></clipPath>
<clipPath id="c2_8"><path d="M382.5,250V237.4H395V250Z" /></clipPath>
<clipPath id="c3_8"><path d="M447.6,260.6V248h7.5v12.6Z" /></clipPath>
<clipPath id="c4_8"><path d="M597.6,250V237.4H610V250Z" /></clipPath>
<clipPath id="c5_8"><path d="M533.6,536.4V523.7h6.2v12.7Z" /></clipPath>
<clipPath id="c6_8"><path d="M440.1,557.3V544.6h6.2v12.7Z" /></clipPath>
<clipPath id="c7_8"><path d="M627.1,578.2V565.5h12.5v12.7Z" /></clipPath>
<clipPath id="c8_8"><path d="M457.5,599.1V586.4H470v12.7Z" /></clipPath>
<clipPath id="c9_8"><path d="M570.1,620V607.3h12.4V620Z" /></clipPath>
<clipPath id="c10_8"><path d="M619,640.9V628.2h12.5v12.7Z" /></clipPath>
<style type="text/css"><![CDATA[
.g0_8{
fill: none;
stroke: #000000;
stroke-width: 0.73333335;
stroke-linecap: round;
stroke-linejoin: round;
}
.g1_8{
fill: none;
stroke: #000000;
stroke-width: 0.36666667;
stroke-linecap: round;
stroke-linejoin: round;
}
]]></style>
</defs>
<g fill="#D4D4D4" fill-opacity="0.36" >
<use xlink:href="#f0_1f" transform="matrix(50.9,-50.9,50.9,50.9,114.6,814.1)" />
<use xlink:href="#f0_2a" transform="matrix(50.9,-50.9,50.9,50.9,175.1,753.6)" />
<use xlink:href="#f0_28" transform="matrix(50.9,-50.9,50.9,50.9,218.4,710.3)" />
<use xlink:href="#f0_25" transform="matrix(50.9,-50.9,50.9,50.9,235.6,693.1)" />
<use xlink:href="#f0_2a" transform="matrix(50.9,-50.9,50.9,50.9,252.9,675.8)" />
<use xlink:href="#f0_21" transform="matrix(50.9,-50.9,50.9,50.9,296.1,632.5)" />
<use xlink:href="#f0_2k" transform="matrix(50.9,-50.9,50.9,50.9,339.4,589.3)" />
<use xlink:href="#f0_1x" transform="matrix(50.9,-50.9,50.9,50.9,378.3,550.4)" />
<use xlink:href="#f0_29" transform="matrix(50.9,-50.9,50.9,50.9,421.5,507.2)" />
<use xlink:href="#f0_2c" transform="matrix(50.9,-50.9,50.9,50.9,486.3,442.4)" />
<use xlink:href="#f0_2b" transform="matrix(50.9,-50.9,50.9,50.9,529.6,399.1)" />
<use xlink:href="#f0_25" transform="matrix(50.9,-50.9,50.9,50.9,572.8,355.9)" />
<use xlink:href="#f0_2a" transform="matrix(50.9,-50.9,50.9,50.9,590.1,338.6)" />
<use xlink:href="#f0_2g" transform="matrix(50.9,-50.9,50.9,50.9,633.3,295.4)" />
</g>
<g fill="#000000" >
<use xlink:href="#f1_21" transform="matrix(10.4,0,0,10.4,103.3,100)" />
<use xlink:href="#f1_20" transform="matrix(10.4,0,0,10.4,112.1,100)" />
<use xlink:href="#f1_23" transform="matrix(10.4,0,0,10.4,120.9,100)" />
<use xlink:href="#f1_21" transform="matrix(10.4,0,0,10.4,129.7,100)" />
<use xlink:href="#f1_28" transform="matrix(10.4,0,0,10.4,147.3,100)" />
<use xlink:href="#f1_21" transform="matrix(10.4,0,0,10.4,150.8,100)" />
<use xlink:href="#f1_2a" transform="matrix(10.4,0,0,10.4,159.6,100)" />
<use xlink:href="#f1_23" transform="matrix(10.4,0,0,10.4,168.4,100)" />
<use xlink:href="#f1_2g" transform="matrix(10.4,0,0,10.4,177.4,100)" />
<use xlink:href="#f1_24" transform="matrix(10.4,0,0,10.4,181.8,100)" />
<use xlink:href="#f1_2b" transform="matrix(10.4,0,0,10.4,199.4,100)" />
<use xlink:href="#f1_22" transform="matrix(10.4,0,0,10.4,208.2,100)" />
<use xlink:href="#f1_2h" transform="matrix(10.4,0,0,10.4,221.6,100)" />
<use xlink:href="#f1_2a" transform="matrix(10.4,0,0,10.4,230.4,100)" />
<use xlink:href="#f1_25" transform="matrix(10.4,0,0,10.4,239.2,100)" />
<use xlink:href="#f1_2g" transform="matrix(10.4,0,0,10.4,242.6,100)" />
<use xlink:href="#f1_1z" transform="matrix(10.4,0,0,10.4,255.8,100)" />
<use xlink:href="#f1_21" transform="matrix(10.4,0,0,10.4,263.9,100)" />
<use xlink:href="#f1_28" transform="matrix(10.4,0,0,10.4,272.7,100)" />
<use xlink:href="#f1_28" transform="matrix(10.4,0,0,10.4,276.2,100)" />
<use xlink:href="#f1_25" transform="matrix(10.4,0,0,10.4,288.5,100)" />
<use xlink:href="#f1_2f" transform="matrix(10.4,0,0,10.4,291.9,100)" />
<use xlink:href="#f1_n" transform="matrix(10.4,0,0,10.4,309,100)" />
<use xlink:href="#f1_l" transform="matrix(10.4,0,0,10.4,317.8,100)" />
<use xlink:href="#f1_o" transform="matrix(10.4,0,0,10.4,326.6,100)" />
<use xlink:href="#f1_2c" transform="matrix(10.4,0,0,10.4,344.2,100)" />
<use xlink:href="#f1_29" transform="matrix(10.4,0,0,10.4,353,100)" />
<use xlink:href="#f1_i" transform="matrix(10.4,0,0,10.4,366.6,100)" />
<use xlink:href="#f1_14" transform="matrix(10.4,0,0,10.4,379.8,100)" />
<use xlink:href="#f1_21" transform="matrix(10.4,0,0,10.4,391.3,100)" />
<use xlink:href="#f1_2g" transform="matrix(10.4,0,0,10.4,400.1,100)" />
<use xlink:href="#f1_21" transform="matrix(10.4,0,0,10.4,404.5,100)" />
<use xlink:href="#f1_2e" transform="matrix(10.4,0,0,10.4,413.3,100)" />
<use xlink:href="#f1_29" transform="matrix(10.4,0,0,10.4,418.6,100)" />
<use xlink:href="#f1_25" transform="matrix(10.4,0,0,10.4,432.2,100)" />
<use xlink:href="#f1_2a" transform="matrix(10.4,0,0,10.4,435.7,100)" />
<use xlink:href="#f1_21" transform="matrix(10.4,0,0,10.4,444.6,100)" />
<use xlink:href="#f1_28" transform="matrix(10.4,0,0,10.4,462.2,100)" />
<use xlink:href="#f1_1x" transform="matrix(10.4,0,0,10.4,465.7,100)" />
<use xlink:href="#f1_2g" transform="matrix(10.4,0,0,10.4,474.5,100)" />
<use xlink:href="#f1_2g" transform="matrix(10.4,0,0,10.4,478.9,100)" />
<use xlink:href="#f1_25" transform="matrix(10.4,0,0,10.4,483.3,100)" />
<use xlink:href="#f1_1z" transform="matrix(10.4,0,0,10.4,486.8,100)" />
<use xlink:href="#f1_21" transform="matrix(10.4,0,0,10.4,494.9,100)" />
<use xlink:href="#f1_2f" transform="matrix(10.4,0,0,10.4,512.5,100)" />
<use xlink:href="#f1_2g" transform="matrix(10.4,0,0,10.4,520.5,100)" />
<use xlink:href="#f1_2e" transform="matrix(10.4,0,0,10.4,524.9,100)" />
<use xlink:href="#f1_2h" transform="matrix(10.4,0,0,10.4,530.2,100)" />
<use xlink:href="#f1_1z" transform="matrix(10.4,0,0,10.4,539.1,100)" />
<use xlink:href="#f1_2g" transform="matrix(10.4,0,0,10.4,547.1,100)" />
<use xlink:href="#f1_2h" transform="matrix(10.4,0,0,10.4,551.5,100)" />
<use xlink:href="#f1_2e" transform="matrix(10.4,0,0,10.4,560.3,100)" />
<use xlink:href="#f1_21" transform="matrix(10.4,0,0,10.4,565.8,100)" />
<use xlink:href="#f1_2j" transform="matrix(10.4,0,0,10.4,583.4,100)" />
<use xlink:href="#f1_24" transform="matrix(10.4,0,0,10.4,594.6,100)" />
<use xlink:href="#f1_21" transform="matrix(10.4,0,0,10.4,603.4,100)" />
<use xlink:href="#f1_2g" transform="matrix(10.4,0,0,10.4,612.2,100)" />
<use xlink:href="#f1_24" transform="matrix(10.4,0,0,10.4,616.6,100)" />
<use xlink:href="#f1_21" transform="matrix(10.4,0,0,10.4,625.4,100)" />
<use xlink:href="#f1_2e" transform="matrix(10.4,0,0,10.4,634.2,100)" />
<use xlink:href="#f1_2f" transform="matrix(10.4,0,0,10.4,103.3,120.9)" />
<use xlink:href="#f1_25" transform="matrix(10.4,0,0,10.4,111.4,120.9)" />
<use xlink:href="#f1_29" transform="matrix(10.4,0,0,10.4,114.9,120.9)" />
<use xlink:href="#f1_2c" transform="matrix(10.4,0,0,10.4,128.4,120.9)" />
<use xlink:href="#f1_28" transform="matrix(10.4,0,0,10.4,137.2,120.9)" />
<use xlink:href="#f1_21" transform="matrix(10.4,0,0,10.4,140.7,120.9)" />
<use xlink:href="#f1_1z" transform="matrix(10.4,0,0,10.4,156.8,120.9)" />
<use xlink:href="#f1_2h" transform="matrix(10.4,0,0,10.4,164.9,120.9)" />
<use xlink:href="#f1_1y" transform="matrix(10.4,0,0,10.4,173.7,120.9)" />
<use xlink:href="#f1_25" transform="matrix(10.4,0,0,10.4,182.5,120.9)" />
<use xlink:href="#f1_1z" transform="matrix(10.4,0,0,10.4,186,120.9)" />
<use xlink:href="#f1_g" transform="matrix(10.4,0,0,10.4,194.1,120.9)" />
<use xlink:href="#f1_1y" transform="matrix(10.4,0,0,10.4,205.6,120.9)" />
<use xlink:href="#f1_1z" transform="matrix(10.4,0,0,10.4,214.4,120.9)" />
<use xlink:href="#f1_1z" transform="matrix(10.4,0,0,10.4,222.5,120.9)" />
<use xlink:href="#f1_2b" transform="matrix(10.4,0,0,10.4,237.9,120.9)" />
<use xlink:href="#f1_2e" transform="matrix(10.4,0,0,10.4,246.7,120.9)" />
<use xlink:href="#f1_22" transform="matrix(10.4,0,0,10.4,259.3,120.9)" />
<use xlink:href="#f1_1z" transform="matrix(10.4,0,0,10.4,263.9,120.9)" />
<use xlink:href="#f1_1z" transform="matrix(10.4,0,0,10.4,272,120.9)" />
<use xlink:href="#f1_i" transform="matrix(10.4,0,0,10.4,280,120.9)" />
<use xlink:href="#f1_c" transform="matrix(10.4,0,0,10.4,103.3,151)" />
<use xlink:href="#f1_17" transform="matrix(10.4,0,0,10.4,108.6,151)" />
<use xlink:href="#f1_25" transform="matrix(10.4,0,0,10.4,121.1,151)" />
<use xlink:href="#f1_2i" transform="matrix(10.4,0,0,10.4,124.6,151)" />
<use xlink:href="#f1_21" transform="matrix(10.4,0,0,10.4,132.5,151)" />
<use xlink:href="#f1_2a" transform="matrix(10.4,0,0,10.4,141.3,151)" />
<use xlink:href="#f1_1e" transform="matrix(9,0,0,9,157.6,151)" />
<use xlink:href="#f1_11" transform="matrix(6.2,0,0,6.2,167.5,155.6)" />
<use xlink:href="#f1_x" transform="matrix(10.4,0,0,10.4,181.4,151)" />
<use xlink:href="#f1_q" transform="matrix(10.4,0,0,10.4,198.5,151)" />
<use xlink:href="#f1_i" transform="matrix(10.4,0,0,10.4,207.3,151)" />
<use xlink:href="#f1_k" transform="matrix(10.4,0,0,10.4,211.7,151)" />
<use xlink:href="#f1_m" transform="matrix(10.4,0,0,10.4,220.5,151)" />
<use xlink:href="#f1_m" transform="matrix(10.4,0,0,10.4,229.3,151)" />
<use xlink:href="#f1_4a" transform="matrix(10.4,0,0,10.4,245.6,151)" />
<use xlink:href="#f1_l" transform="matrix(10.4,0,0,10.4,262.6,151)" />
<use xlink:href="#f1_k" transform="matrix(10.4,0,0,10.4,271.4,151)" />
<use xlink:href="#f1_m" transform="matrix(7.4,0,0,7.4,280.2,145.7)" />
<use xlink:href="#f1_n" transform="matrix(7.4,0,0,7.4,286.5,145.7)" />
<use xlink:href="#f1_29" transform="matrix(10.4,0,0,10.4,300.4,151)" />
<use xlink:href="#f1_2b" transform="matrix(10.4,0,0,10.4,314,151)" />
<use xlink:href="#f1_28" transform="matrix(10.4,0,0,10.4,322.8,151)" />
</g>
<g clip-path="url(#c0_8)">
<g fill="#000000" >
<use xlink:href="#f1_1jz" transform="matrix(7.4,0,0,7.4,326.2,145.7)" />
<use xlink:href="#f1_l" transform="matrix(7.4,0,0,7.4,332.5,145.7)" />
</g>
</g>
<g fill="#000000" >
<use xlink:href="#f1_d" transform="matrix(10.4,0,0,10.4,338.7,151)" />
<use xlink:href="#f1_1r" transform="matrix(10.4,0,0,10.4,459.5,151)" />
<use xlink:href="#f2_11" transform="matrix(10.4,0,0,10.4,463.9,151)" />
<use xlink:href="#f2_2a" transform="matrix(10.4,0,0,10.4,474.7,151)" />
<use xlink:href="#f2_2f" transform="matrix(10.4,0,0,10.4,484.5,151)" />
<use xlink:href="#f2_i" transform="matrix(10.4,0,0,10.4,493.3,151)" />
<use xlink:href="#f2_u" transform="matrix(10.4,0,0,10.4,504.8,151)" />
<use xlink:href="#f1_1q" transform="matrix(9,0,0,9,517.5,151)" />
<use xlink:href="#f1_x" transform="matrix(10.4,0,0,10.4,533,151)" />
<use xlink:href="#f1_m" transform="matrix(10.4,0,0,10.4,549.5,151)" />
<use xlink:href="#f1_g" transform="matrix(10.4,0,0,10.4,558.3,151)" />
<use xlink:href="#f1_1y" transform="matrix(10.4,0,0,10.4,570.1,151)" />
<use xlink:href="#f1_1z" transform="matrix(10.4,0,0,10.4,578.9,151)" />
<use xlink:href="#f1_1z" transform="matrix(10.4,0,0,10.4,586.9,151)" />
<use xlink:href="#f1_2g" transform="matrix(10.4,0,0,10.4,602.2,151)" />
<use xlink:href="#f1_2l" transform="matrix(10.4,0,0,10.4,606.6,151)" />
<use xlink:href="#f1_2c" transform="matrix(10.4,0,0,10.4,614.1,151)" />
<use xlink:href="#f1_21" transform="matrix(10.4,0,0,10.4,622.9,151)" />
<use xlink:href="#f1_1t" transform="matrix(10.4,0,0,10.4,631.7,151)" />
<use xlink:href="#f1_e" transform="matrix(10.4,0,0,10.4,60,181.1)" />
<use xlink:href="#f1_l" transform="matrix(10.4,0,0,10.4,66.5,181.1)" />
<use xlink:href="#f1_n" transform="matrix(10.4,0,0,10.4,75.3,181.1)" />
<use xlink:href="#f1_i" transform="matrix(10.4,0,0,10.4,84.2,181.1)" />
<use xlink:href="#f1_1k" transform="matrix(10.4,0,0,10.4,103.3,181.1)" />
<use xlink:href="#f1_24" transform="matrix(10.4,0,0,10.4,113.2,181.1)" />
<use xlink:href="#f1_21" transform="matrix(10.4,0,0,10.4,122,181.1)" />
<use xlink:href="#f1_20" transform="matrix(10.4,0,0,10.4,137.6,181.1)" />
<use xlink:href="#f1_21" transform="matrix(10.4,0,0,10.4,146.4,181.1)" />
<use xlink:href="#f1_2a" transform="matrix(10.4,0,0,10.4,155.2,181.1)" />
<use xlink:href="#f1_2f" transform="matrix(10.4,0,0,10.4,164,181.1)" />
<use xlink:href="#f1_25" transform="matrix(10.4,0,0,10.4,172.1,181.1)" />
<use xlink:href="#f1_2g" transform="matrix(10.4,0,0,10.4,175.5,181.1)" />
<use xlink:href="#f1_2l" transform="matrix(10.4,0,0,10.4,179.9,181.1)" />
<use xlink:href="#f1_2b" transform="matrix(10.4,0,0,10.4,194.4,181.1)" />
<use xlink:href="#f1_22" transform="matrix(10.4,0,0,10.4,203.2,181.1)" />
<use xlink:href="#f1_1z" transform="matrix(10.4,0,0,10.4,214.6,181.1)" />
<use xlink:href="#f1_2b" transform="matrix(10.4,0,0,10.4,222.6,181.1)" />
<use xlink:href="#f1_2c" transform="matrix(10.4,0,0,10.4,231.4,181.1)" />
<use xlink:href="#f1_2c" transform="matrix(10.4,0,0,10.4,240.2,181.1)" />
<use xlink:href="#f1_21" transform="matrix(10.4,0,0,10.4,249,181.1)" />
<use xlink:href="#f1_2e" transform="matrix(10.4,0,0,10.4,257.8,181.1)" />
<use xlink:href="#f1_29" transform="matrix(10.4,0,0,10.4,270.1,181.1)" />
<use xlink:href="#f1_21" transform="matrix(10.4,0,0,10.4,283.7,181.1)" />
<use xlink:href="#f1_2g" transform="matrix(10.4,0,0,10.4,292.5,181.1)" />
<use xlink:href="#f1_1x" transform="matrix(10.4,0,0,10.4,296.9,181.1)" />
<use xlink:href="#f1_28" transform="matrix(10.4,0,0,10.4,305.7,181.1)" />
<use xlink:href="#f1_25" transform="matrix(10.4,0,0,10.4,316,181.1)" />
<use xlink:href="#f1_2f" transform="matrix(10.4,0,0,10.4,319.4,181.1)" />
<use xlink:href="#f1_s" transform="matrix(10.4,0,0,10.4,334.5,181.1)" />
<use xlink:href="#f1_i" transform="matrix(10.4,0,0,10.4,343.3,181.1)" />
<use xlink:href="#f1_t" transform="matrix(10.4,0,0,10.4,347.7,181.1)" />
<use xlink:href="#f1_p" transform="matrix(10.4,0,0,10.4,356.5,181.1)" />
<use xlink:href="#f1_23" transform="matrix(10.4,0,0,10.4,372.1,181.1)" />
<use xlink:href="#f1_1z" transform="matrix(10.4,0,0,10.4,387.8,181.1)" />
<use xlink:href="#f1_29" transform="matrix(10.4,0,0,10.4,395.9,181.1)" />
</g>
<g clip-path="url(#c1_8)">
<g fill="#000000" >
<use xlink:href="#f1_1jz" transform="matrix(7.4,0,0,7.4,409.5,175.7)" />
<use xlink:href="#f1_n" transform="matrix(7.4,0,0,7.4,415.7,175.7)" />
</g>
</g>
<g fill="#000000" >
<use xlink:href="#f1_i" transform="matrix(10.4,0,0,10.4,421.9,181.1)" />
<use xlink:href="#f1_19" transform="matrix(10.4,0,0,10.4,433.3,181.1)" />
<use xlink:href="#f1_22" transform="matrix(10.4,0,0,10.4,437.7,181.1)" />
<use xlink:href="#f1_2g" transform="matrix(10.4,0,0,10.4,449.1,181.1)" />
<use xlink:href="#f1_24" transform="matrix(10.4,0,0,10.4,453.5,181.1)" />
<use xlink:href="#f1_21" transform="matrix(10.4,0,0,10.4,462.3,181.1)" />
<use xlink:href="#f1_2e" transform="matrix(10.4,0,0,10.4,478,181.1)" />
<use xlink:href="#f1_1x" transform="matrix(10.4,0,0,10.4,483.4,181.1)" />
<use xlink:href="#f1_20" transform="matrix(10.4,0,0,10.4,492.2,181.1)" />
<use xlink:href="#f1_25" transform="matrix(10.4,0,0,10.4,501,181.1)" />
<use xlink:href="#f1_2h" transform="matrix(10.4,0,0,10.4,504.4,181.1)" />
<use xlink:href="#f1_2f" transform="matrix(10.4,0,0,10.4,513.2,181.1)" />
<use xlink:href="#f1_2b" transform="matrix(10.4,0,0,10.4,528.3,181.1)" />
<use xlink:href="#f1_22" transform="matrix(10.4,0,0,10.4,537.1,181.1)" />
<use xlink:href="#f1_1z" transform="matrix(10.4,0,0,10.4,548.4,181.1)" />
<use xlink:href="#f1_2b" transform="matrix(10.4,0,0,10.4,556.5,181.1)" />
<use xlink:href="#f1_2c" transform="matrix(10.4,0,0,10.4,565.3,181.1)" />
<use xlink:href="#f1_2c" transform="matrix(10.4,0,0,10.4,574.1,181.1)" />
<use xlink:href="#f1_21" transform="matrix(10.4,0,0,10.4,582.9,181.1)" />
<use xlink:href="#f1_2e" transform="matrix(10.4,0,0,10.4,591.7,181.1)" />
<use xlink:href="#f1_1x" transform="matrix(10.4,0,0,10.4,604,181.1)" />
<use xlink:href="#f1_2g" transform="matrix(10.4,0,0,10.4,612.8,181.1)" />
<use xlink:href="#f1_2b" transform="matrix(10.4,0,0,10.4,617.2,181.1)" />
<use xlink:href="#f1_29" transform="matrix(10.4,0,0,10.4,626,181.1)" />
<use xlink:href="#f1_25" transform="matrix(10.4,0,0,10.4,103.3,202)" />
<use xlink:href="#f1_2f" transform="matrix(10.4,0,0,10.4,106.8,202)" />
<use xlink:href="#f1_l" transform="matrix(10.4,0,0,10.4,121.3,202)" />
<use xlink:href="#f1_m" transform="matrix(10.4,0,0,10.4,130.1,202)" />
<use xlink:href="#f1_r" transform="matrix(10.4,0,0,10.4,138.9,202)" />
<use xlink:href="#f1_2c" transform="matrix(10.4,0,0,10.4,154.3,202)" />
<use xlink:href="#f1_29" transform="matrix(10.4,0,0,10.4,163.1,202)" />
<use xlink:href="#f1_g" transform="matrix(10.4,0,0,10.4,176.6,202)" />
<use xlink:href="#f1_25" transform="matrix(10.4,0,0,10.4,187.5,202)" />
<use xlink:href="#f1_2f" transform="matrix(10.4,0,0,10.4,190.9,202)" />
<use xlink:href="#f1_2g" transform="matrix(10.4,0,0,10.4,205.6,202)" />
<use xlink:href="#f1_24" transform="matrix(10.4,0,0,10.4,210,202)" />
<use xlink:href="#f1_21" transform="matrix(10.4,0,0,10.4,218.8,202)" />
<use xlink:href="#f1_1z" transform="matrix(10.4,0,0,10.4,234,202)" />
<use xlink:href="#f1_2b" transform="matrix(10.4,0,0,10.4,242.1,202)" />
<use xlink:href="#f1_2c" transform="matrix(10.4,0,0,10.4,250.9,202)" />
<use xlink:href="#f1_2c" transform="matrix(10.4,0,0,10.4,259.7,202)" />
<use xlink:href="#f1_21" transform="matrix(10.4,0,0,10.4,268.5,202)" />
<use xlink:href="#f1_2e" transform="matrix(10.4,0,0,10.4,277.3,202)" />
<use xlink:href="#f1_2h" transform="matrix(10.4,0,0,10.4,289.2,202)" />
<use xlink:href="#f1_2a" transform="matrix(10.4,0,0,10.4,298,202)" />
<use xlink:href="#f1_25" transform="matrix(10.4,0,0,10.4,306.8,202)" />
<use xlink:href="#f1_2g" transform="matrix(10.4,0,0,10.4,310.3,202)" />
<use xlink:href="#f1_1z" transform="matrix(10.4,0,0,10.4,321.1,202)" />
<use xlink:href="#f1_21" transform="matrix(10.4,0,0,10.4,329.2,202)" />
<use xlink:href="#f1_28" transform="matrix(10.4,0,0,10.4,338,202)" />
<use xlink:href="#f1_28" transform="matrix(10.4,0,0,10.4,341.4,202)" />
<use xlink:href="#f1_1x" transform="matrix(10.4,0,0,10.4,351.5,202)" />
<use xlink:href="#f1_2f" transform="matrix(10.4,0,0,10.4,366.7,202)" />
<use xlink:href="#f1_25" transform="matrix(10.4,0,0,10.4,374.8,202)" />
<use xlink:href="#f1_29" transform="matrix(10.4,0,0,10.4,378.3,202)" />
<use xlink:href="#f1_2c" transform="matrix(10.4,0,0,10.4,391.8,202)" />
<use xlink:href="#f1_28" transform="matrix(10.4,0,0,10.4,400.6,202)" />
<use xlink:href="#f1_21" transform="matrix(10.4,0,0,10.4,404.1,202)" />
<use xlink:href="#f1_1z" transform="matrix(10.4,0,0,10.4,419.5,202)" />
<use xlink:href="#f1_2h" transform="matrix(10.4,0,0,10.4,427.6,202)" />
<use xlink:href="#f1_1y" transform="matrix(10.4,0,0,10.4,436.4,202)" />
<use xlink:href="#f1_25" transform="matrix(10.4,0,0,10.4,445.2,202)" />
<use xlink:href="#f1_1z" transform="matrix(10.4,0,0,10.4,448.7,202)" />
<use xlink:href="#f1_g" transform="matrix(10.4,0,0,10.4,456.7,202)" />
<use xlink:href="#f1_1x" transform="matrix(10.4,0,0,10.4,467.5,202)" />
<use xlink:href="#f1_1y" transform="matrix(10.4,0,0,10.4,482.9,202)" />
<use xlink:href="#f1_2b" transform="matrix(10.4,0,0,10.4,491.7,202)" />
<use xlink:href="#f1_20" transform="matrix(10.4,0,0,10.4,500.5,202)" />
<use xlink:href="#f1_2l" transform="matrix(10.4,0,0,10.4,509.3,202)" />
<use xlink:href="#f1_h" transform="matrix(10.4,0,0,10.4,516.9,202)" />
<use xlink:href="#f1_1z" transform="matrix(10.4,0,0,10.4,522.2,202)" />
<use xlink:href="#f1_21" transform="matrix(10.4,0,0,10.4,530.2,202)" />
<use xlink:href="#f1_2a" transform="matrix(10.4,0,0,10.4,539,202)" />
<use xlink:href="#f1_2g" transform="matrix(10.4,0,0,10.4,547.8,202)" />
<use xlink:href="#f1_2e" transform="matrix(10.4,0,0,10.4,552.2,202)" />
<use xlink:href="#f1_21" transform="matrix(10.4,0,0,10.4,557.5,202)" />
<use xlink:href="#f1_20" transform="matrix(10.4,0,0,10.4,566.4,202)" />
<use xlink:href="#f1_1z" transform="matrix(10.4,0,0,10.4,581.6,202)" />
<use xlink:href="#f1_2h" transform="matrix(10.4,0,0,10.4,589.6,202)" />
<use xlink:href="#f1_1y" transform="matrix(10.4,0,0,10.4,598.4,202)" />
<use xlink:href="#f1_25" transform="matrix(10.4,0,0,10.4,607.2,202)" />
<use xlink:href="#f1_1z" transform="matrix(10.4,0,0,10.4,610.7,202)" />
<use xlink:href="#f1_2b" transform="matrix(10.4,0,0,10.4,625.4,202)" />
<use xlink:href="#f1_2e" transform="matrix(10.4,0,0,10.4,634.2,202)" />
<use xlink:href="#f1_1x" transform="matrix(10.4,0,0,10.4,103.3,222.9)" />
<use xlink:href="#f1_22" transform="matrix(10.4,0,0,10.4,120.5,222.9)" />
<use xlink:href="#f1_1x" transform="matrix(10.4,0,0,10.4,125.1,222.9)" />
<use xlink:href="#f1_1z" transform="matrix(10.4,0,0,10.4,133.9,222.9)" />
<use xlink:href="#f1_21" transform="matrix(10.4,0,0,10.4,142,222.9)" />
<use xlink:href="#f1_1z" transform="matrix(10.4,0,0,10.4,159.2,222.9)" />
<use xlink:href="#f1_21" transform="matrix(10.4,0,0,10.4,167.3,222.9)" />
<use xlink:href="#f1_2a" transform="matrix(10.4,0,0,10.4,176.1,222.9)" />
<use xlink:href="#f1_2g" transform="matrix(10.4,0,0,10.4,184.9,222.9)" />
<use xlink:href="#f1_2e" transform="matrix(10.4,0,0,10.4,189.3,222.9)" />
<use xlink:href="#f1_21" transform="matrix(10.4,0,0,10.4,194.6,222.9)" />
<use xlink:href="#f1_20" transform="matrix(10.4,0,0,10.4,203.4,222.9)" />
<use xlink:href="#f1_1z" transform="matrix(10.4,0,0,10.4,220.6,222.9)" />
<use xlink:href="#f1_2h" transform="matrix(10.4,0,0,10.4,228.7,222.9)" />
<use xlink:href="#f1_1y" transform="matrix(10.4,0,0,10.4,237.5,222.9)" />
<use xlink:href="#f1_25" transform="matrix(10.4,0,0,10.4,246.3,222.9)" />
<use xlink:href="#f1_1z" transform="matrix(10.4,0,0,10.4,249.8,222.9)" />
<use xlink:href="#f1_2f" transform="matrix(10.4,0,0,10.4,266.3,222.9)" />
<use xlink:href="#f1_2g" transform="matrix(10.4,0,0,10.4,274.3,222.9)" />
<use xlink:href="#f1_2e" transform="matrix(10.4,0,0,10.4,278.7,222.9)" />
<use xlink:href="#f1_2h" transform="matrix(10.4,0,0,10.4,284.1,222.9)" />
<use xlink:href="#f1_1z" transform="matrix(10.4,0,0,10.4,292.9,222.9)" />
<use xlink:href="#f1_2g" transform="matrix(10.4,0,0,10.4,300.9,222.9)" />
<use xlink:href="#f1_2h" transform="matrix(10.4,0,0,10.4,305.3,222.9)" />
<use xlink:href="#f1_2e" transform="matrix(10.4,0,0,10.4,314.1,222.9)" />
<use xlink:href="#f1_21" transform="matrix(10.4,0,0,10.4,319.4,222.9)" />
<use xlink:href="#f1_z" transform="matrix(10.4,0,0,10.4,328.2,222.9)" />
<use xlink:href="#f1_c" transform="matrix(10.4,0,0,10.4,103.3,252.9)" />
<use xlink:href="#f1_17" transform="matrix(10.4,0,0,10.4,108.6,252.9)" />
<use xlink:href="#f1_25" transform="matrix(10.4,0,0,10.4,121.1,252.9)" />
<use xlink:href="#f1_2i" transform="matrix(10.4,0,0,10.4,124.6,252.9)" />
<use xlink:href="#f1_21" transform="matrix(10.4,0,0,10.4,132.5,252.9)" />
<use xlink:href="#f1_2a" transform="matrix(10.4,0,0,10.4,141.3,252.9)" />
<use xlink:href="#f1_1x" transform="matrix(10.4,0,0,10.4,157.4,252.9)" />
<use xlink:href="#f1_2g" transform="matrix(10.4,0,0,10.4,166.2,252.9)" />
<use xlink:href="#f1_i" transform="matrix(10.4,0,0,10.4,170.6,252.9)" />
<use xlink:href="#f1_29" transform="matrix(10.4,0,0,10.4,182.3,252.9)" />
<use xlink:href="#f1_1x" transform="matrix(10.4,0,0,10.4,195.9,252.9)" />
<use xlink:href="#f1_2f" transform="matrix(10.4,0,0,10.4,204.7,252.9)" />
<use xlink:href="#f1_2f" transform="matrix(10.4,0,0,10.4,212.7,252.9)" />
<use xlink:href="#f1_2b" transform="matrix(10.4,0,0,10.4,228.3,252.9)" />
<use xlink:href="#f1_22" transform="matrix(10.4,0,0,10.4,237.1,252.9)" />
<use xlink:href="#f1_13" transform="matrix(10.4,0,0,10.4,249,252.9)" />
<use xlink:href="#f1_2h" transform="matrix(10.4,0,0,10.4,260.6,252.9)" />
<use xlink:href="#f1_x" transform="matrix(10.4,0,0,10.4,276.7,252.9)" />
<use xlink:href="#f1_q" transform="matrix(10.4,0,0,10.4,293.4,252.9)" />
<use xlink:href="#f1_n" transform="matrix(10.4,0,0,10.4,302.2,252.9)" />
<use xlink:href="#f1_i" transform="matrix(10.4,0,0,10.4,311,252.9)" />
<use xlink:href="#f1_p" transform="matrix(10.4,0,0,10.4,315.4,252.9)" />
<use xlink:href="#f1_o" transform="matrix(10.4,0,0,10.4,324.2,252.9)" />
<use xlink:href="#f1_23" transform="matrix(10.4,0,0,10.4,340.5,252.9)" />
<use xlink:href="#f1_29" transform="matrix(10.4,0,0,10.4,356.6,252.9)" />
<use xlink:href="#f1_2b" transform="matrix(10.4,0,0,10.4,370.2,252.9)" />
<use xlink:href="#f1_28" transform="matrix(10.4,0,0,10.4,379,252.9)" />
</g>
<g clip-path="url(#c2_8)">
<g fill="#000000" >
<use xlink:href="#f1_1jz" transform="matrix(7.4,0,0,7.4,382.5,247.6)" />
<use xlink:href="#f1_l" transform="matrix(7.4,0,0,7.4,388.8,247.6)" />
</g>
</g>
<g fill="#000000" >
<use xlink:href="#f1_1x" transform="matrix(10.4,0,0,10.4,402.3,252.9)" />
<use xlink:href="#f1_2a" transform="matrix(10.4,0,0,10.4,411.1,252.9)" />
<use xlink:href="#f1_20" transform="matrix(10.4,0,0,10.4,419.9,252.9)" />
<use xlink:href="#f1_1e" transform="matrix(10.4,0,0,10.4,436.1,252.9)" />
</g>
<g clip-path="url(#c3_8)">
<g fill="#000000" >
<use xlink:href="#f1_11" transform="matrix(7.4,0,0,7.4,447.6,258.2)" />
</g>
</g>
<g fill="#000000" >
<use xlink:href="#f1_x" transform="matrix(10.4,0,0,10.4,462.5,252.9)" />
<use xlink:href="#f1_q" transform="matrix(10.4,0,0,10.4,479.1,252.9)" />
<use xlink:href="#f1_i" transform="matrix(10.4,0,0,10.4,487.9,252.9)" />
<use xlink:href="#f1_k" transform="matrix(10.4,0,0,10.4,492.3,252.9)" />
<use xlink:href="#f1_m" transform="matrix(10.4,0,0,10.4,501.1,252.9)" />
<use xlink:href="#f1_4a" transform="matrix(10.4,0,0,10.4,517.5,252.9)" />
<use xlink:href="#f1_l" transform="matrix(10.4,0,0,10.4,534.1,252.9)" />
<use xlink:href="#f1_k" transform="matrix(10.4,0,0,10.4,542.9,252.9)" />
<use xlink:href="#f1_m" transform="matrix(7.4,0,0,7.4,551.7,247.6)" />
<use xlink:href="#f1_n" transform="matrix(7.4,0,0,7.4,558,247.6)" />
<use xlink:href="#f1_29" transform="matrix(10.4,0,0,10.4,571.7,252.9)" />
<use xlink:href="#f1_2b" transform="matrix(10.4,0,0,10.4,585.3,252.9)" />
<use xlink:href="#f1_28" transform="matrix(10.4,0,0,10.4,594.1,252.9)" />
</g>
<g clip-path="url(#c4_8)">
<g fill="#000000" >
<use xlink:href="#f1_1jz" transform="matrix(7.4,0,0,7.4,597.6,247.6)" />
<use xlink:href="#f1_l" transform="matrix(7.4,0,0,7.4,603.8,247.6)" />
</g>
</g>
<g fill="#000000" >
<use xlink:href="#f1_1t" transform="matrix(10.4,0,0,10.4,610,252.9)" />
<use xlink:href="#f1_1r" transform="matrix(10.4,0,0,10.4,463,283)" />
<use xlink:href="#f2_11" transform="matrix(10.4,0,0,10.4,467.4,283)" />
<use xlink:href="#f2_2a" transform="matrix(10.4,0,0,10.4,478.2,283)" />
<use xlink:href="#f2_2f" transform="matrix(10.4,0,0,10.4,487.9,283)" />
<use xlink:href="#f2_i" transform="matrix(10.4,0,0,10.4,496.7,283)" />
<use xlink:href="#f2_u" transform="matrix(10.4,0,0,10.4,508.1,283)" />
<use xlink:href="#f1_1q" transform="matrix(10.4,0,0,10.4,520.8,283)" />
<use xlink:href="#f1_x" transform="matrix(10.4,0,0,10.4,537.6,283)" />
<use xlink:href="#f1_o" transform="matrix(10.4,0,0,10.4,553.9,283)" />
<use xlink:href="#f1_g" transform="matrix(10.4,0,0,10.4,562.7,283)" />
<use xlink:href="#f1_22" transform="matrix(10.4,0,0,10.4,574.3,283)" />
<use xlink:href="#f1_1z" transform="matrix(10.4,0,0,10.4,578.9,283)" />
<use xlink:href="#f1_1z" transform="matrix(10.4,0,0,10.4,586.9,283)" />
<use xlink:href="#f1_2g" transform="matrix(10.4,0,0,10.4,602.1,283)" />
<use xlink:href="#f1_2l" transform="matrix(10.4,0,0,10.4,606.6,283)" />
<use xlink:href="#f1_2c" transform="matrix(10.4,0,0,10.4,614.1,283)" />
<use xlink:href="#f1_21" transform="matrix(10.4,0,0,10.4,622.9,283)" />
<use xlink:href="#f1_1t" transform="matrix(10.4,0,0,10.4,631.7,283)" />
<use xlink:href="#f1_1r" transform="matrix(10.4,0,0,10.4,103.3,335.6)" />
<use xlink:href="#f2_18" transform="matrix(10.4,0,0,10.4,107.7,335.6)" />
<use xlink:href="#f2_25" transform="matrix(10.4,0,0,10.4,119.3,335.6)" />
<use xlink:href="#f2_2a" transform="matrix(10.4,0,0,10.4,123.7,335.6)" />
<use xlink:href="#f2_2g" transform="matrix(10.4,0,0,10.4,133.4,335.6)" />
<use xlink:href="#f2_u" transform="matrix(10.4,0,0,10.4,146.9,335.6)" />
<use xlink:href="#f1_20" transform="matrix(10.4,0,0,10.4,160.7,335.6)" />
<use xlink:href="#f1_x" transform="matrix(10.4,0,0,10.4,177.9,335.6)" />
</g>
<path d="M215.1,326.6h50.6" class="g0_8" />
<g fill="#000000" >
<use xlink:href="#f1_n" transform="matrix(5.9,0,0,5.9,224.5,336)" />
<use xlink:href="#f1_11" transform="matrix(5.9,0,0,5.9,256.8,346.8)" />
<use xlink:href="#f1_1q" transform="matrix(10.2,0,0,10.2,229.8,320.8)" />
<use xlink:href="#f1_1d" transform="matrix(10.2,0,0,10.2,239.2,320.8)" />
<use xlink:href="#f1_1x" transform="matrix(10.2,0,0,10.2,215.7,342.9)" />
<use xlink:href="#f1_1e" transform="matrix(10.2,0,0,10.2,245.6,342.9)" />
<use xlink:href="#f3_4a" transform="matrix(10.2,0,0,10.2,234.6,342.9)" />
<use xlink:href="#f1_1z" transform="matrix(10.4,0,0,10.4,277.1,335.6)" />
<use xlink:href="#f1_1x" transform="matrix(10.4,0,0,10.4,285.2,335.6)" />
<use xlink:href="#f1_28" transform="matrix(10.4,0,0,10.4,294,335.6)" />
<use xlink:href="#f1_1z" transform="matrix(10.4,0,0,10.4,297.5,335.6)" />
<use xlink:href="#f1_2h" transform="matrix(10.4,0,0,10.4,305.5,335.6)" />
<use xlink:href="#f1_28" transform="matrix(10.4,0,0,10.4,314.3,335.6)" />
<use xlink:href="#f1_1x" transform="matrix(10.4,0,0,10.4,317.8,335.6)" />
<use xlink:href="#f1_2g" transform="matrix(10.4,0,0,10.4,326.6,335.6)" />
<use xlink:href="#f1_21" transform="matrix(10.4,0,0,10.4,331,335.6)" />
<use xlink:href="#f1_1q" transform="matrix(10.4,0,0,10.4,348.2,335.6)" />
<use xlink:href="#f1_j" transform="matrix(10.4,0,0,10.4,358,335.6)" />
<use xlink:href="#f1_1x" transform="matrix(10.4,0,0,10.4,362.4,335.6)" />
<use xlink:href="#f1_n" transform="matrix(7.4,0,0,7.4,371.2,330.3)" />
<use xlink:href="#f1_1y" transform="matrix(10.4,0,0,10.4,385.8,335.6)" />
<use xlink:href="#f1_2l" transform="matrix(10.4,0,0,10.4,394.6,335.6)" />
<use xlink:href="#f1_2c" transform="matrix(10.4,0,0,10.4,410.4,335.6)" />
<use xlink:href="#f1_2h" transform="matrix(10.4,0,0,10.4,419.2,335.6)" />
<use xlink:href="#f1_2g" transform="matrix(10.4,0,0,10.4,428,335.6)" />
<use xlink:href="#f1_2g" transform="matrix(10.4,0,0,10.4,432.4,335.6)" />
<use xlink:href="#f1_25" transform="matrix(10.4,0,0,10.4,436.8,335.6)" />
<use xlink:href="#f1_2a" transform="matrix(10.4,0,0,10.4,440.3,335.6)" />
<use xlink:href="#f1_23" transform="matrix(10.4,0,0,10.4,449.1,335.6)" />
<use xlink:href="#f1_2g" transform="matrix(10.4,0,0,10.4,466.3,335.6)" />
<use xlink:href="#f1_24" transform="matrix(10.4,0,0,10.4,470.7,335.6)" />
<use xlink:href="#f1_21" transform="matrix(10.4,0,0,10.4,479.5,335.6)" />
<use xlink:href="#f1_2i" transform="matrix(10.4,0,0,10.4,496.6,335.6)" />
<use xlink:href="#f1_1x" transform="matrix(10.4,0,0,10.4,504.4,335.6)" />
<use xlink:href="#f1_28" transform="matrix(10.4,0,0,10.4,513.2,335.6)" />
<use xlink:href="#f1_2h" transform="matrix(10.4,0,0,10.4,516.7,335.6)" />
<use xlink:href="#f1_21" transform="matrix(10.4,0,0,10.4,525.5,335.6)" />
<use xlink:href="#f1_2f" transform="matrix(10.4,0,0,10.4,534.3,335.6)" />
<use xlink:href="#f1_23" transform="matrix(10.4,0,0,10.4,550.8,335.6)" />
<use xlink:href="#f1_25" transform="matrix(10.4,0,0,10.4,559.6,335.6)" />
<use xlink:href="#f1_2i" transform="matrix(10.4,0,0,10.4,563.1,335.6)" />
<use xlink:href="#f1_21" transform="matrix(10.4,0,0,10.4,571,335.6)" />
<use xlink:href="#f1_2a" transform="matrix(10.4,0,0,10.4,579.8,335.6)" />
<use xlink:href="#f1_25" transform="matrix(10.4,0,0,10.4,596.8,335.6)" />
<use xlink:href="#f1_2a" transform="matrix(10.4,0,0,10.4,600.3,335.6)" />
<use xlink:href="#f1_2g" transform="matrix(10.4,0,0,10.4,617.5,335.6)" />
<use xlink:href="#f1_24" transform="matrix(10.4,0,0,10.4,621.9,335.6)" />
<use xlink:href="#f1_21" transform="matrix(10.4,0,0,10.4,630.7,335.6)" />
<use xlink:href="#f1_2d" transform="matrix(10.4,0,0,10.4,103.3,370.6)" />
<use xlink:href="#f1_2h" transform="matrix(10.4,0,0,10.4,112.3,370.6)" />
<use xlink:href="#f1_21" transform="matrix(10.4,0,0,10.4,121.5,370.6)" />
<use xlink:href="#f1_2f" transform="matrix(10.4,0,0,10.4,130.4,370.6)" />
<use xlink:href="#f1_2g" transform="matrix(10.4,0,0,10.4,138.9,370.6)" />
<use xlink:href="#f1_25" transform="matrix(10.4,0,0,10.4,143.5,370.6)" />
<use xlink:href="#f1_2b" transform="matrix(10.4,0,0,10.4,147.3,370.6)" />
<use xlink:href="#f1_2a" transform="matrix(10.4,0,0,10.4,156.3,370.6)" />
<use xlink:href="#f1_i" transform="matrix(10.4,0,0,10.4,165.5,370.6)" />
<use xlink:href="#f1_13" transform="matrix(10.4,0,0,10.4,103.3,442.3)" />
<use xlink:href="#f1_1x" transform="matrix(10.4,0,0,10.4,116,442.3)" />
<use xlink:href="#f1_28" transform="matrix(10.4,0,0,10.4,125.9,442.3)" />
<use xlink:href="#f1_1z" transform="matrix(10.4,0,0,10.4,130.4,442.3)" />
<use xlink:href="#f1_2h" transform="matrix(10.4,0,0,10.4,139.6,442.3)" />
<use xlink:href="#f1_28" transform="matrix(10.4,0,0,10.4,149.5,442.3)" />
<use xlink:href="#f1_1x" transform="matrix(10.4,0,0,10.4,154.1,442.3)" />
<use xlink:href="#f1_2g" transform="matrix(10.4,0,0,10.4,164,442.3)" />
<use xlink:href="#f1_21" transform="matrix(10.4,0,0,10.4,169.5,442.3)" />
<use xlink:href="#f1_2c" transform="matrix(10.4,0,0,10.4,190.2,442.3)" />
<use xlink:href="#f1_1x" transform="matrix(10.4,0,0,10.4,200.1,442.3)" />
<use xlink:href="#f1_1z" transform="matrix(10.4,0,0,10.4,210,442.3)" />
<use xlink:href="#f1_27" transform="matrix(10.4,0,0,10.4,219.2,442.3)" />
<use xlink:href="#f1_25" transform="matrix(10.4,0,0,10.4,228.3,442.3)" />
<use xlink:href="#f1_2a" transform="matrix(10.4,0,0,10.4,232.9,442.3)" />
<use xlink:href="#f1_23" transform="matrix(10.4,0,0,10.4,242.8,442.3)" />
<use xlink:href="#f1_21" transform="matrix(10.4,0,0,10.4,263.5,442.3)" />
<use xlink:href="#f1_22" transform="matrix(10.4,0,0,10.4,273.4,442.3)" />
<use xlink:href="#f1_22" transform="matrix(10.4,0,0,10.4,279.1,442.3)" />
<use xlink:href="#f1_25" transform="matrix(10.4,0,0,10.4,284.8,442.3)" />
<use xlink:href="#f1_1z" transform="matrix(10.4,0,0,10.4,289.4,442.3)" />
<use xlink:href="#f1_25" transform="matrix(10.4,0,0,10.4,298.5,442.3)" />
<use xlink:href="#f1_21" transform="matrix(10.4,0,0,10.4,303.1,442.3)" />
<use xlink:href="#f1_2a" transform="matrix(10.4,0,0,10.4,313,442.3)" />
<use xlink:href="#f1_1z" transform="matrix(10.4,0,0,10.4,322.9,442.3)" />
<use xlink:href="#f1_2l" transform="matrix(10.4,0,0,10.4,332.1,442.3)" />
<use xlink:href="#f1_1y" transform="matrix(10.4,0,0,10.4,351.7,442.3)" />
<use xlink:href="#f1_2l" transform="matrix(10.4,0,0,10.4,361.6,442.3)" />
</g>
<path d="M410.8,421.2h11.1" class="g1_8" />
<path d="M384.4,441.6H500.8" class="g0_8" />
<g fill="#000000" >
<use xlink:href="#f1_n" transform="matrix(6.5,0,0,6.5,442.8,418.1)" />
<use xlink:href="#f1_n" transform="matrix(6.5,0,0,6.5,443.6,451.7)" />
<use xlink:href="#f1_o" transform="matrix(11.3,0,0,11.3,411.7,415)" />
<use xlink:href="#f1_2m" transform="matrix(11.3,0,0,11.3,385.5,425.8)" />
<use xlink:href="#f1_2e" transform="matrix(11.3,0,0,11.3,436.2,425.8)" />
<use xlink:href="#f1_l" transform="matrix(11.3,0,0,11.3,471.4,425.8)" />
<use xlink:href="#f1_k" transform="matrix(11.3,0,0,11.3,481,425.8)" />
<use xlink:href="#f1_k" transform="matrix(11.3,0,0,11.3,490.7,425.8)" />
<use xlink:href="#f1_n" transform="matrix(11.3,0,0,11.3,411.5,438.8)" />
<use xlink:href="#f1_1x" transform="matrix(11.3,0,0,11.3,433.9,459.5)" />
<use xlink:href="#f3_oj" transform="matrix(11.3,0,-2.8,11.3,423.8,425.8)" />
<use xlink:href="#f3_4a" transform="matrix(11.3,0,0,11.3,397.4,425.8)" />
<use xlink:href="#f3_4a" transform="matrix(11.3,0,0,11.3,459.9,425.8)" />
<use xlink:href="#f1_2h" transform="matrix(10.4,0,0,10.4,516.5,442.3)" />
<use xlink:href="#f1_2f" transform="matrix(10.4,0,0,10.4,526.4,442.3)" />
<use xlink:href="#f1_25" transform="matrix(10.4,0,0,10.4,535.6,442.3)" />
<use xlink:href="#f1_2a" transform="matrix(10.4,0,0,10.4,540.2,442.3)" />
<use xlink:href="#f1_23" transform="matrix(10.4,0,0,10.4,550.1,442.3)" />
<use xlink:href="#f1_2i" transform="matrix(10.4,0,0,10.4,571,442.3)" />
<use xlink:href="#f1_1x" transform="matrix(10.4,0,0,10.4,580,442.3)" />
<use xlink:href="#f1_28" transform="matrix(10.4,0,0,10.4,589.9,442.3)" />
<use xlink:href="#f1_2h" transform="matrix(10.4,0,0,10.4,594.5,442.3)" />
<use xlink:href="#f1_21" transform="matrix(10.4,0,0,10.4,604.3,442.3)" />
<use xlink:href="#f1_2b" transform="matrix(10.4,0,0,10.4,625.1,442.3)" />
<use xlink:href="#f1_22" transform="matrix(10.4,0,0,10.4,635,442.3)" />
<use xlink:href="#f1_1q" transform="matrix(10.4,0,0,10.4,103.3,488.3)" />
<use xlink:href="#f1_j" transform="matrix(10.4,0,0,10.4,113,488.3)" />
<use xlink:href="#f1_1x" transform="matrix(10.4,0,0,10.4,117.4,488.3)" />
<use xlink:href="#f1_n" transform="matrix(7.4,0,0,7.4,126.2,483)" />
<use xlink:href="#f1_g" transform="matrix(10.4,0,0,10.4,132.5,488.3)" />
<use xlink:href="#f1_2j" transform="matrix(10.4,0,0,10.4,136.9,488.3)" />
<use xlink:href="#f1_24" transform="matrix(10.4,0,0,10.4,148,488.3)" />
<use xlink:href="#f1_25" transform="matrix(10.4,0,0,10.4,156.8,488.3)" />
<use xlink:href="#f1_1z" transform="matrix(10.4,0,0,10.4,160.3,488.3)" />
<use xlink:href="#f1_24" transform="matrix(10.4,0,0,10.4,168.4,488.3)" />
<use xlink:href="#f1_25" transform="matrix(10.4,0,0,10.4,184.3,488.3)" />
<use xlink:href="#f1_2f" transform="matrix(10.4,0,0,10.4,187.8,488.3)" />
<use xlink:href="#f1_r" transform="matrix(10.4,0,0,10.4,203,488.3)" />
<use xlink:href="#f1_o" transform="matrix(10.4,0,0,10.4,211.8,488.3)" />
<use xlink:href="#f1_9" transform="matrix(10.4,0,0,10.4,220.6,488.3)" />
<use xlink:href="#f1_i" transform="matrix(10.4,0,0,10.4,234.8,488.3)" />
<use xlink:href="#f1_1k" transform="matrix(10.4,0,0,10.4,246.3,488.3)" />
<use xlink:href="#f1_24" transform="matrix(10.4,0,0,10.4,256.2,488.3)" />
<use xlink:href="#f1_25" transform="matrix(10.4,0,0,10.4,265,488.3)" />
<use xlink:href="#f1_2f" transform="matrix(10.4,0,0,10.4,268.5,488.3)" />
<use xlink:href="#f1_2f" transform="matrix(10.4,0,0,10.4,283.7,488.3)" />
<use xlink:href="#f1_24" transform="matrix(10.4,0,0,10.4,291.8,488.3)" />
<use xlink:href="#f1_2b" transform="matrix(10.4,0,0,10.4,300.6,488.3)" />
<use xlink:href="#f1_2j" transform="matrix(10.4,0,0,10.4,309.4,488.3)" />
<use xlink:href="#f1_2f" transform="matrix(10.4,0,0,10.4,320.5,488.3)" />
<use xlink:href="#f1_2g" transform="matrix(10.4,0,0,10.4,335.8,488.3)" />
<use xlink:href="#f1_24" transform="matrix(10.4,0,0,10.4,340.2,488.3)" />
<use xlink:href="#f1_1x" transform="matrix(10.4,0,0,10.4,349,488.3)" />
<use xlink:href="#f1_2g" transform="matrix(10.4,0,0,10.4,357.8,488.3)" />
<use xlink:href="#f1_1q" transform="matrix(9,0,0,9,369.3,488.3)" />
<use xlink:href="#f1_x" transform="matrix(10.4,0,0,10.4,384.9,488.3)" />
<use xlink:href="#f1_o" transform="matrix(10.4,0,0,10.4,401.6,488.3)" />
<use xlink:href="#f1_l" transform="matrix(10.4,0,0,10.4,60,518.2)" />
<use xlink:href="#f1_o" transform="matrix(10.4,0,0,10.4,69.2,518.2)" />
<use xlink:href="#f1_i" transform="matrix(10.4,0,0,10.4,78.6,518.2)" />
<use xlink:href="#f1_1k" transform="matrix(10.4,0,0,10.4,103.3,518.2)" />
<use xlink:href="#f1_24" transform="matrix(10.4,0,0,10.4,113.2,518.2)" />
<use xlink:href="#f1_21" transform="matrix(10.4,0,0,10.4,122,518.2)" />
<use xlink:href="#f1_2j" transform="matrix(10.4,0,0,10.4,134.8,518.2)" />
<use xlink:href="#f1_21" transform="matrix(10.4,0,0,10.4,146,518.2)" />
<use xlink:href="#f1_28" transform="matrix(10.4,0,0,10.4,154.8,518.2)" />
<use xlink:href="#f1_28" transform="matrix(10.4,0,0,10.4,158.3,518.2)" />
<use xlink:href="#f1_27" transform="matrix(10.4,0,0,10.4,165.6,518.2)" />
<use xlink:href="#f1_2a" transform="matrix(10.4,0,0,10.4,173.7,518.2)" />
<use xlink:href="#f1_2b" transform="matrix(10.4,0,0,10.4,182.5,518.2)" />
<use xlink:href="#f1_2j" transform="matrix(10.4,0,0,10.4,191.3,518.2)" />
<use xlink:href="#f1_2a" transform="matrix(10.4,0,0,10.4,202.5,518.2)" />
<use xlink:href="#f1_29" transform="matrix(10.4,0,0,10.4,215.3,518.2)" />
<use xlink:href="#f1_25" transform="matrix(10.4,0,0,10.4,228.9,518.2)" />
<use xlink:href="#f1_2a" transform="matrix(10.4,0,0,10.4,232.4,518.2)" />
<use xlink:href="#f1_21" transform="matrix(10.4,0,0,10.4,241.2,518.2)" />
<use xlink:href="#f1_2e" transform="matrix(10.4,0,0,10.4,250,518.2)" />
<use xlink:href="#f1_1x" transform="matrix(10.4,0,0,10.4,255.3,518.2)" />
<use xlink:href="#f1_28" transform="matrix(10.4,0,0,10.4,264.1,518.2)" />
<use xlink:href="#f1_22" transform="matrix(10.4,0,0,10.4,271.4,518.2)" />
<use xlink:href="#f1_28" transform="matrix(10.4,0,0,10.4,276,518.2)" />
<use xlink:href="#f1_2h" transform="matrix(10.4,0,0,10.4,279.5,518.2)" />
<use xlink:href="#f1_2b" transform="matrix(10.4,0,0,10.4,288.3,518.2)" />
<use xlink:href="#f1_2e" transform="matrix(10.4,0,0,10.4,297.1,518.2)" />
<use xlink:href="#f1_25" transform="matrix(10.4,0,0,10.4,302.4,518.2)" />
<use xlink:href="#f1_2g" transform="matrix(10.4,0,0,10.4,305.9,518.2)" />
<use xlink:href="#f1_21" transform="matrix(10.4,0,0,10.4,310.3,518.2)" />
<use xlink:href="#f1_25" transform="matrix(10.4,0,0,10.4,323.1,518.2)" />
<use xlink:href="#f1_2f" transform="matrix(10.4,0,0,10.4,326.6,518.2)" />
<use xlink:href="#f1_1z" transform="matrix(10.4,0,0,10.4,338.5,518.2)" />
<use xlink:href="#f1_24" transform="matrix(10.4,0,0,10.4,346.6,518.2)" />
<use xlink:href="#f1_21" transform="matrix(10.4,0,0,10.4,355.4,518.2)" />
<use xlink:href="#f1_29" transform="matrix(10.4,0,0,10.4,364.2,518.2)" />
<use xlink:href="#f1_25" transform="matrix(10.4,0,0,10.4,377.7,518.2)" />
<use xlink:href="#f1_1z" transform="matrix(10.4,0,0,10.4,381.2,518.2)" />
<use xlink:href="#f1_1x" transform="matrix(10.4,0,0,10.4,389.3,518.2)" />
<use xlink:href="#f1_28" transform="matrix(10.4,0,0,10.4,398.1,518.2)" />
<use xlink:href="#f1_28" transform="matrix(10.4,0,0,10.4,401.6,518.2)" />
<use xlink:href="#f1_2l" transform="matrix(10.4,0,0,10.4,405,518.2)" />
<use xlink:href="#f1_1z" transform="matrix(10.4,0,0,10.4,416.6,518.2)" />
<use xlink:href="#f1_1x" transform="matrix(10.4,0,0,10.4,424.7,518.2)" />
<use xlink:href="#f1_28" transform="matrix(10.4,0,0,10.4,433.5,518.2)" />
<use xlink:href="#f1_1z" transform="matrix(10.4,0,0,10.4,436.9,518.2)" />
<use xlink:href="#f1_25" transform="matrix(10.4,0,0,10.4,445,518.2)" />
<use xlink:href="#f1_2h" transform="matrix(10.4,0,0,10.4,448.5,518.2)" />
<use xlink:href="#f1_29" transform="matrix(10.4,0,0,10.4,457.3,518.2)" />
<use xlink:href="#f1_22" transform="matrix(10.4,0,0,10.4,474.9,518.2)" />
<use xlink:href="#f1_28" transform="matrix(10.4,0,0,10.4,479.5,518.2)" />
<use xlink:href="#f1_2h" transform="matrix(10.4,0,0,10.4,483,518.2)" />
<use xlink:href="#f1_2b" transform="matrix(10.4,0,0,10.4,491.8,518.2)" />
<use xlink:href="#f1_2e" transform="matrix(10.4,0,0,10.4,500.6,518.2)" />
<use xlink:href="#f1_25" transform="matrix(10.4,0,0,10.4,505.9,518.2)" />
<use xlink:href="#f1_20" transform="matrix(10.4,0,0,10.4,509.4,518.2)" />
<use xlink:href="#f1_21" transform="matrix(10.4,0,0,10.4,518.2,518.2)" />
<use xlink:href="#f1_i" transform="matrix(10.4,0,0,10.4,527,518.2)" />
<use xlink:href="#f1_19" transform="matrix(10.4,0,0,10.4,535.2,518.2)" />
<use xlink:href="#f1_2g" transform="matrix(10.4,0,0,10.4,539.6,518.2)" />
<use xlink:href="#f1_25" transform="matrix(10.4,0,0,10.4,548,518.2)" />
<use xlink:href="#f1_2f" transform="matrix(10.4,0,0,10.4,551.5,518.2)" />
<use xlink:href="#f1_27" transform="matrix(10.4,0,0,10.4,563.4,518.2)" />
<use xlink:href="#f1_2a" transform="matrix(10.4,0,0,10.4,571.5,518.2)" />
<use xlink:href="#f1_2b" transform="matrix(10.4,0,0,10.4,580.3,518.2)" />
<use xlink:href="#f1_2j" transform="matrix(10.4,0,0,10.4,589.1,518.2)" />
<use xlink:href="#f1_2a" transform="matrix(10.4,0,0,10.4,600.3,518.2)" />
<use xlink:href="#f1_2g" transform="matrix(10.4,0,0,10.4,613.1,518.2)" />
<use xlink:href="#f1_24" transform="matrix(10.4,0,0,10.4,617.5,518.2)" />
<use xlink:href="#f1_1x" transform="matrix(10.4,0,0,10.4,626.3,518.2)" />
<use xlink:href="#f1_2g" transform="matrix(10.4,0,0,10.4,635.1,518.2)" />
<use xlink:href="#f1_25" transform="matrix(10.4,0,0,10.4,103.3,539.3)" />
<use xlink:href="#f1_2a" transform="matrix(10.4,0,0,10.4,106.8,539.3)" />
<use xlink:href="#f1_2b" transform="matrix(10.4,0,0,10.4,121.5,539.3)" />
<use xlink:href="#f1_2a" transform="matrix(10.4,0,0,10.4,130.3,539.3)" />
<use xlink:href="#f1_21" transform="matrix(10.4,0,0,10.4,139.1,539.3)" />
<use xlink:href="#f1_2h" transform="matrix(10.4,0,0,10.4,153.7,539.3)" />
<use xlink:href="#f1_2a" transform="matrix(10.4,0,0,10.4,162.5,539.3)" />
<use xlink:href="#f1_25" transform="matrix(10.4,0,0,10.4,171.3,539.3)" />
<use xlink:href="#f1_2g" transform="matrix(10.4,0,0,10.4,174.8,539.3)" />
<use xlink:href="#f1_1z" transform="matrix(10.4,0,0,10.4,185.3,539.3)" />
<use xlink:href="#f1_21" transform="matrix(10.4,0,0,10.4,193.3,539.3)" />
<use xlink:href="#f1_28" transform="matrix(10.4,0,0,10.4,202.1,539.3)" />
<use xlink:href="#f1_28" transform="matrix(10.4,0,0,10.4,205.6,539.3)" />
<use xlink:href="#f1_2b" transform="matrix(10.4,0,0,10.4,215,539.3)" />
<use xlink:href="#f1_22" transform="matrix(10.4,0,0,10.4,223.8,539.3)" />
<use xlink:href="#f1_2g" transform="matrix(10.4,0,0,10.4,234.2,539.3)" />
<use xlink:href="#f1_24" transform="matrix(10.4,0,0,10.4,238.6,539.3)" />
<use xlink:href="#f1_25" transform="matrix(10.4,0,0,10.4,247.4,539.3)" />
<use xlink:href="#f1_2f" transform="matrix(10.4,0,0,10.4,250.9,539.3)" />
<use xlink:href="#f1_29" transform="matrix(10.4,0,0,10.4,264.8,539.3)" />
<use xlink:href="#f1_25" transform="matrix(10.4,0,0,10.4,278.4,539.3)" />
<use xlink:href="#f1_2a" transform="matrix(10.4,0,0,10.4,281.9,539.3)" />
<use xlink:href="#f1_21" transform="matrix(10.4,0,0,10.4,290.7,539.3)" />
<use xlink:href="#f1_2e" transform="matrix(10.4,0,0,10.4,299.5,539.3)" />
<use xlink:href="#f1_1x" transform="matrix(10.4,0,0,10.4,304.8,539.3)" />
<use xlink:href="#f1_28" transform="matrix(10.4,0,0,10.4,313.6,539.3)" />
<use xlink:href="#f1_2g" transform="matrix(10.4,0,0,10.4,322.9,539.3)" />
<use xlink:href="#f1_24" transform="matrix(10.4,0,0,10.4,327.3,539.3)" />
<use xlink:href="#f1_21" transform="matrix(10.4,0,0,10.4,336.1,539.3)" />
<use xlink:href="#f1_2e" transform="matrix(10.4,0,0,10.4,344.9,539.3)" />
<use xlink:href="#f1_21" transform="matrix(10.4,0,0,10.4,350.2,539.3)" />
<use xlink:href="#f1_1x" transform="matrix(10.4,0,0,10.4,365.1,539.3)" />
<use xlink:href="#f1_2e" transform="matrix(10.4,0,0,10.4,373.9,539.3)" />
<use xlink:href="#f1_21" transform="matrix(10.4,0,0,10.4,379.2,539.3)" />
<use xlink:href="#f1_o" transform="matrix(10.4,0,0,10.4,393.9,539.3)" />
<use xlink:href="#f1_13" transform="matrix(10.4,0,0,10.4,408.5,539.3)" />
<use xlink:href="#f1_1x" transform="matrix(10.4,0,0,10.4,420.1,539.3)" />
<use xlink:href="#f1_m" transform="matrix(7.4,0,0,7.4,428.9,534)" />
<use xlink:href="#f1_f" transform="matrix(7.4,0,0,7.4,435.1,534)" />
<use xlink:href="#f1_25" transform="matrix(10.4,0,0,10.4,447.6,539.3)" />
<use xlink:href="#f1_2b" transform="matrix(10.4,0,0,10.4,451.1,539.3)" />
<use xlink:href="#f1_2a" transform="matrix(10.4,0,0,10.4,459.9,539.3)" />
<use xlink:href="#f1_2f" transform="matrix(10.4,0,0,10.4,468.7,539.3)" />
<use xlink:href="#f1_1x" transform="matrix(10.4,0,0,10.4,482.8,539.3)" />
<use xlink:href="#f1_2a" transform="matrix(10.4,0,0,10.4,491.6,539.3)" />
<use xlink:href="#f1_20" transform="matrix(10.4,0,0,10.4,500.4,539.3)" />
<use xlink:href="#f1_s" transform="matrix(10.4,0,0,10.4,515.1,539.3)" />
<use xlink:href="#f1_16" transform="matrix(10.4,0,0,10.4,523.9,539.3)" />
</g>
<g clip-path="url(#c5_8)">
<g fill="#000000" >
<use xlink:href="#f1_1jz" transform="matrix(7.4,0,0,7.4,533.6,534)" />
</g>
</g>
<g fill="#000000" >
<use xlink:href="#f1_25" transform="matrix(10.4,0,0,10.4,545.7,539.3)" />
<use xlink:href="#f1_2b" transform="matrix(10.4,0,0,10.4,549.2,539.3)" />
<use xlink:href="#f1_2a" transform="matrix(10.4,0,0,10.4,558,539.3)" />
<use xlink:href="#f1_2f" transform="matrix(10.4,0,0,10.4,566.8,539.3)" />
<use xlink:href="#f1_1x" transform="matrix(10.4,0,0,10.4,580.9,539.3)" />
<use xlink:href="#f1_2a" transform="matrix(10.4,0,0,10.4,589.7,539.3)" />
<use xlink:href="#f1_20" transform="matrix(10.4,0,0,10.4,598.5,539.3)" />
<use xlink:href="#f1_2g" transform="matrix(10.4,0,0,10.4,613.2,539.3)" />
<use xlink:href="#f1_24" transform="matrix(10.4,0,0,10.4,617.6,539.3)" />
<use xlink:href="#f1_1x" transform="matrix(10.4,0,0,10.4,626.4,539.3)" />
<use xlink:href="#f1_2g" transform="matrix(10.4,0,0,10.4,635.2,539.3)" />
<use xlink:href="#f1_13" transform="matrix(10.4,0,0,10.4,103.3,560.2)" />
<use xlink:href="#f1_1x" transform="matrix(10.4,0,0,10.4,114.9,560.2)" />
<use xlink:href="#f1_m" transform="matrix(7.4,0,0,7.4,123.7,554.9)" />
<use xlink:href="#f1_f" transform="matrix(7.4,0,0,7.4,129.9,554.9)" />
<use xlink:href="#f1_25" transform="matrix(10.4,0,0,10.4,143.3,560.2)" />
<use xlink:href="#f1_2b" transform="matrix(10.4,0,0,10.4,146.9,560.2)" />
<use xlink:href="#f1_2a" transform="matrix(10.4,0,0,10.4,155.7,560.2)" />
<use xlink:href="#f1_2f" transform="matrix(10.4,0,0,10.4,164.7,560.2)" />
<use xlink:href="#f1_1x" transform="matrix(10.4,0,0,10.4,179.6,560.2)" />
<use xlink:href="#f1_2e" transform="matrix(10.4,0,0,10.4,188.4,560.2)" />
<use xlink:href="#f1_21" transform="matrix(10.4,0,0,10.4,193.9,560.2)" />
<use xlink:href="#f1_1x" transform="matrix(10.4,0,0,10.4,209.5,560.2)" />
<use xlink:href="#f1_2e" transform="matrix(10.4,0,0,10.4,218.3,560.2)" />
<use xlink:href="#f1_2e" transform="matrix(10.4,0,0,10.4,223.8,560.2)" />
<use xlink:href="#f1_1x" transform="matrix(10.4,0,0,10.4,229.1,560.2)" />
<use xlink:href="#f1_2a" transform="matrix(10.4,0,0,10.4,238,560.2)" />
<use xlink:href="#f1_23" transform="matrix(10.4,0,0,10.4,246.8,560.2)" />
<use xlink:href="#f1_21" transform="matrix(10.4,0,0,10.4,255.8,560.2)" />
<use xlink:href="#f1_20" transform="matrix(10.4,0,0,10.4,264.6,560.2)" />
<use xlink:href="#f1_25" transform="matrix(10.4,0,0,10.4,280.2,560.2)" />
<use xlink:href="#f1_2a" transform="matrix(10.4,0,0,10.4,283.9,560.2)" />
<use xlink:href="#f1_1x" transform="matrix(10.4,0,0,10.4,299.3,560.2)" />
<use xlink:href="#f1_22" transform="matrix(10.4,0,0,10.4,314.9,560.2)" />
<use xlink:href="#f1_1z" transform="matrix(10.4,0,0,10.4,319.6,560.2)" />
<use xlink:href="#f1_1z" transform="matrix(10.4,0,0,10.4,327.7,560.2)" />
<use xlink:href="#f1_28" transform="matrix(10.4,0,0,10.4,342.5,560.2)" />
<use xlink:href="#f1_1x" transform="matrix(10.4,0,0,10.4,346.2,560.2)" />
<use xlink:href="#f1_2g" transform="matrix(10.4,0,0,10.4,355,560.2)" />
<use xlink:href="#f1_2g" transform="matrix(10.4,0,0,10.4,359.6,560.2)" />
<use xlink:href="#f1_25" transform="matrix(10.4,0,0,10.4,364,560.2)" />
<use xlink:href="#f1_1z" transform="matrix(10.4,0,0,10.4,367.6,560.2)" />
<use xlink:href="#f1_21" transform="matrix(10.4,0,0,10.4,375.7,560.2)" />
<use xlink:href="#f1_i" transform="matrix(10.4,0,0,10.4,384.7,560.2)" />
<use xlink:href="#f1_1k" transform="matrix(10.4,0,0,10.4,395.9,560.2)" />
<use xlink:href="#f1_24" transform="matrix(10.4,0,0,10.4,405.8,560.2)" />
<use xlink:href="#f1_21" transform="matrix(10.4,0,0,10.4,414.7,560.2)" />
<use xlink:href="#f1_16" transform="matrix(10.4,0,0,10.4,430.3,560.2)" />
</g>
<g clip-path="url(#c6_8)">
<g fill="#000000" >
<use xlink:href="#f1_1jz" transform="matrix(7.4,0,0,7.4,440.1,554.9)" />
</g>
</g>
<g fill="#000000" >
<use xlink:href="#f1_25" transform="matrix(10.4,0,0,10.4,452.9,560.2)" />
<use xlink:href="#f1_2b" transform="matrix(10.4,0,0,10.4,456.6,560.2)" />
<use xlink:href="#f1_2a" transform="matrix(10.4,0,0,10.4,465.4,560.2)" />
<use xlink:href="#f1_2f" transform="matrix(10.4,0,0,10.4,474.4,560.2)" />
<use xlink:href="#f1_22" transform="matrix(10.4,0,0,10.4,489.2,560.2)" />
<use xlink:href="#f1_25" transform="matrix(10.4,0,0,10.4,493.8,560.2)" />
<use xlink:href="#f1_28" transform="matrix(10.4,0,0,10.4,497.5,560.2)" />
<use xlink:href="#f1_28" transform="matrix(10.4,0,0,10.4,501,560.2)" />
<use xlink:href="#f1_1x" transform="matrix(10.4,0,0,10.4,511.2,560.2)" />
<use xlink:href="#f1_28" transform="matrix(10.4,0,0,10.4,520.2,560.2)" />
<use xlink:href="#f1_28" transform="matrix(10.4,0,0,10.4,523.7,560.2)" />
<use xlink:href="#f1_2g" transform="matrix(10.4,0,0,10.4,533.9,560.2)" />
<use xlink:href="#f1_24" transform="matrix(10.4,0,0,10.4,538.5,560.2)" />
<use xlink:href="#f1_21" transform="matrix(10.4,0,0,10.4,547.3,560.2)" />
<use xlink:href="#f1_2g" transform="matrix(10.4,0,0,10.4,562.9,560.2)" />
<use xlink:href="#f1_21" transform="matrix(10.4,0,0,10.4,567.5,560.2)" />
<use xlink:href="#f1_2g" transform="matrix(10.4,0,0,10.4,576.3,560.2)" />
<use xlink:href="#f1_2e" transform="matrix(10.4,0,0,10.4,580.9,560.2)" />
<use xlink:href="#f1_1x" transform="matrix(10.4,0,0,10.4,586.2,560.2)" />
<use xlink:href="#f1_24" transform="matrix(10.4,0,0,10.4,595.2,560.2)" />
<use xlink:href="#f1_21" transform="matrix(10.4,0,0,10.4,604,560.2)" />
<use xlink:href="#f1_20" transform="matrix(10.4,0,0,10.4,613,560.2)" />
<use xlink:href="#f1_2e" transform="matrix(10.4,0,0,10.4,621.8,560.2)" />
<use xlink:href="#f1_1x" transform="matrix(10.4,0,0,10.4,627.3,560.2)" />
<use xlink:href="#f1_28" transform="matrix(10.4,0,0,10.4,636.1,560.2)" />
<use xlink:href="#f1_24" transform="matrix(10.4,0,0,10.4,103.3,581.1)" />
<use xlink:href="#f1_2b" transform="matrix(10.4,0,0,10.4,112.1,581.1)" />
<use xlink:href="#f1_28" transform="matrix(10.4,0,0,10.4,120.9,581.1)" />
<use xlink:href="#f1_21" transform="matrix(10.4,0,0,10.4,124.4,581.1)" />
<use xlink:href="#f1_2f" transform="matrix(10.4,0,0,10.4,133.2,581.1)" />
<use xlink:href="#f1_25" transform="matrix(10.4,0,0,10.4,146.8,581.1)" />
<use xlink:href="#f1_2a" transform="matrix(10.4,0,0,10.4,150.2,581.1)" />
<use xlink:href="#f1_2g" transform="matrix(10.4,0,0,10.4,164.4,581.1)" />
<use xlink:href="#f1_24" transform="matrix(10.4,0,0,10.4,168.8,581.1)" />
<use xlink:href="#f1_21" transform="matrix(10.4,0,0,10.4,177.6,581.1)" />
<use xlink:href="#f1_22" transform="matrix(10.4,0,0,10.4,191.9,581.1)" />
<use xlink:href="#f1_1z" transform="matrix(10.4,0,0,10.4,196.4,581.1)" />
<use xlink:href="#f1_1z" transform="matrix(10.4,0,0,10.4,204.5,581.1)" />
<use xlink:href="#f1_28" transform="matrix(10.4,0,0,10.4,218.1,581.1)" />
<use xlink:href="#f1_1x" transform="matrix(10.4,0,0,10.4,221.6,581.1)" />
<use xlink:href="#f1_2g" transform="matrix(10.4,0,0,10.4,230.3,581.1)" />
<use xlink:href="#f1_2g" transform="matrix(10.4,0,0,10.4,234.8,581.1)" />
<use xlink:href="#f1_25" transform="matrix(10.4,0,0,10.4,239.2,581.1)" />
<use xlink:href="#f1_1z" transform="matrix(10.4,0,0,10.4,242.6,581.1)" />
<use xlink:href="#f1_21" transform="matrix(10.4,0,0,10.4,250.7,581.1)" />
<use xlink:href="#f1_2b" transform="matrix(10.4,0,0,10.4,264.8,581.1)" />
<use xlink:href="#f1_22" transform="matrix(10.4,0,0,10.4,273.6,581.1)" />
<use xlink:href="#f1_13" transform="matrix(10.4,0,0,10.4,283.7,581.1)" />
<use xlink:href="#f1_1x" transform="matrix(10.4,0,0,10.4,295.2,581.1)" />
<use xlink:href="#f1_m" transform="matrix(7.4,0,0,7.4,304.1,575.8)" />
<use xlink:href="#f1_f" transform="matrix(7.4,0,0,7.4,310.3,575.8)" />
<use xlink:href="#f1_25" transform="matrix(10.4,0,0,10.4,322.4,581.1)" />
<use xlink:href="#f1_2b" transform="matrix(10.4,0,0,10.4,325.9,581.1)" />
<use xlink:href="#f1_2a" transform="matrix(10.4,0,0,10.4,334.7,581.1)" />
<use xlink:href="#f1_2f" transform="matrix(10.4,0,0,10.4,343.5,581.1)" />
<use xlink:href="#f1_i" transform="matrix(10.4,0,0,10.4,351.5,581.1)" />
<use xlink:href="#f1_1k" transform="matrix(10.4,0,0,10.4,361.3,581.1)" />
<use xlink:href="#f1_24" transform="matrix(10.4,0,0,10.4,371.2,581.1)" />
<use xlink:href="#f1_21" transform="matrix(10.4,0,0,10.4,380,581.1)" />
<use xlink:href="#f1_21" transform="matrix(10.4,0,0,10.4,394.3,581.1)" />
<use xlink:href="#f1_20" transform="matrix(10.4,0,0,10.4,403.1,581.1)" />
<use xlink:href="#f1_23" transform="matrix(10.4,0,0,10.4,411.9,581.1)" />
<use xlink:href="#f1_21" transform="matrix(10.4,0,0,10.4,420.7,581.1)" />
<use xlink:href="#f1_2b" transform="matrix(10.4,0,0,10.4,435,581.1)" />
<use xlink:href="#f1_22" transform="matrix(10.4,0,0,10.4,443.8,581.1)" />
<use xlink:href="#f1_2g" transform="matrix(10.4,0,0,10.4,453.8,581.1)" />
<use xlink:href="#f1_24" transform="matrix(10.4,0,0,10.4,458.2,581.1)" />
<use xlink:href="#f1_21" transform="matrix(10.4,0,0,10.4,467,581.1)" />
<use xlink:href="#f1_2h" transform="matrix(10.4,0,0,10.4,481.1,581.1)" />
<use xlink:href="#f1_2a" transform="matrix(10.4,0,0,10.4,489.9,581.1)" />
<use xlink:href="#f1_25" transform="matrix(10.4,0,0,10.4,498.7,581.1)" />
<use xlink:href="#f1_2g" transform="matrix(10.4,0,0,10.4,502.2,581.1)" />
<use xlink:href="#f1_1z" transform="matrix(10.4,0,0,10.4,512.1,581.1)" />
<use xlink:href="#f1_21" transform="matrix(10.4,0,0,10.4,520.2,581.1)" />
<use xlink:href="#f1_28" transform="matrix(10.4,0,0,10.4,529,581.1)" />
<use xlink:href="#f1_28" transform="matrix(10.4,0,0,10.4,532.5,581.1)" />
<use xlink:href="#f1_25" transform="matrix(10.4,0,0,10.4,541.5,581.1)" />
<use xlink:href="#f1_2f" transform="matrix(10.4,0,0,10.4,544.9,581.1)" />
<use xlink:href="#f1_p" transform="matrix(10.4,0,0,10.4,558.5,581.1)" />
<use xlink:href="#f1_i" transform="matrix(10.4,0,0,10.4,567.3,581.1)" />
<use xlink:href="#f1_o" transform="matrix(10.4,0,0,10.4,571.7,581.1)" />
<use xlink:href="#f1_q" transform="matrix(10.4,0,0,10.4,580.5,581.1)" />
<use xlink:href="#f1_4a" transform="matrix(10.4,0,0,10.4,594.6,581.1)" />
<use xlink:href="#f1_l" transform="matrix(10.4,0,0,10.4,609.5,581.1)" />
<use xlink:href="#f1_k" transform="matrix(10.4,0,0,10.4,618.3,581.1)" />
</g>
<g clip-path="url(#c7_8)">
<g fill="#000000" >
<use xlink:href="#f1_1jz" transform="matrix(7.4,0,0,7.4,627.1,575.8)" />
<use xlink:href="#f1_s" transform="matrix(7.4,0,0,7.4,633.3,575.8)" />
</g>
</g>
<g fill="#000000" >
<use xlink:href="#f1_1z" transform="matrix(10.4,0,0,10.4,103.3,602)" />
<use xlink:href="#f1_29" transform="matrix(10.4,0,0,10.4,111.4,602)" />
<use xlink:href="#f1_25" transform="matrix(10.4,0,0,10.4,129.9,602)" />
<use xlink:href="#f1_2a" transform="matrix(10.4,0,0,10.4,133.4,602)" />
<use xlink:href="#f1_28" transform="matrix(10.4,0,0,10.4,147.1,602)" />
<use xlink:href="#f1_21" transform="matrix(10.4,0,0,10.4,150.6,602)" />
<use xlink:href="#f1_2a" transform="matrix(10.4,0,0,10.4,159.4,602)" />
<use xlink:href="#f1_23" transform="matrix(10.4,0,0,10.4,168.2,602)" />
<use xlink:href="#f1_2g" transform="matrix(10.4,0,0,10.4,177,602)" />
<use xlink:href="#f1_24" transform="matrix(10.4,0,0,10.4,181.4,602)" />
<use xlink:href="#f1_i" transform="matrix(10.4,0,0,10.4,190.2,602)" />
<use xlink:href="#f1_1k" transform="matrix(10.4,0,0,10.4,199.6,602)" />
<use xlink:href="#f1_24" transform="matrix(10.4,0,0,10.4,209.5,602)" />
<use xlink:href="#f1_21" transform="matrix(10.4,0,0,10.4,218.3,602)" />
<use xlink:href="#f1_20" transform="matrix(10.4,0,0,10.4,232,602)" />
<use xlink:href="#f1_21" transform="matrix(10.4,0,0,10.4,240.8,602)" />
<use xlink:href="#f1_2a" transform="matrix(10.4,0,0,10.4,249.6,602)" />
<use xlink:href="#f1_2f" transform="matrix(10.4,0,0,10.4,258.4,602)" />
<use xlink:href="#f1_25" transform="matrix(10.4,0,0,10.4,266.5,602)" />
<use xlink:href="#f1_2g" transform="matrix(10.4,0,0,10.4,269.9,602)" />
<use xlink:href="#f1_2l" transform="matrix(10.4,0,0,10.4,274.3,602)" />
<use xlink:href="#f1_2b" transform="matrix(10.4,0,0,10.4,286.8,602)" />
<use xlink:href="#f1_22" transform="matrix(10.4,0,0,10.4,295.6,602)" />
<use xlink:href="#f1_2g" transform="matrix(10.4,0,0,10.4,305.3,602)" />
<use xlink:href="#f1_24" transform="matrix(10.4,0,0,10.4,309.7,602)" />
<use xlink:href="#f1_21" transform="matrix(10.4,0,0,10.4,318.5,602)" />
<use xlink:href="#f1_2f" transform="matrix(10.4,0,0,10.4,332.3,602)" />
<use xlink:href="#f1_2b" transform="matrix(10.4,0,0,10.4,340.3,602)" />
<use xlink:href="#f1_28" transform="matrix(10.4,0,0,10.4,349.1,602)" />
<use xlink:href="#f1_25" transform="matrix(10.4,0,0,10.4,352.6,602)" />
<use xlink:href="#f1_20" transform="matrix(10.4,0,0,10.4,356.1,602)" />
<use xlink:href="#f1_25" transform="matrix(10.4,0,0,10.4,369.9,602)" />
<use xlink:href="#f1_2f" transform="matrix(10.4,0,0,10.4,373.3,602)" />
<use xlink:href="#f1_n" transform="matrix(10.4,0,0,10.4,386.3,602)" />
<use xlink:href="#f1_i" transform="matrix(10.4,0,0,10.4,395.1,602)" />
<use xlink:href="#f1_l" transform="matrix(10.4,0,0,10.4,399.5,602)" />
<use xlink:href="#f1_s" transform="matrix(10.4,0,0,10.4,408.3,602)" />
<use xlink:href="#f1_23" transform="matrix(10.4,0,0,10.4,422.1,602)" />
<use xlink:href="#f1_1z" transform="matrix(10.4,0,0,10.4,435.8,602)" />
<use xlink:href="#f1_29" transform="matrix(10.4,0,0,10.4,443.9,602)" />
</g>
<g clip-path="url(#c8_8)">
<g fill="#000000" >
<use xlink:href="#f1_1jz" transform="matrix(7.4,0,0,7.4,457.5,596.7)" />
<use xlink:href="#f1_n" transform="matrix(7.4,0,0,7.4,463.7,596.7)" />
</g>
</g>
<g fill="#000000" >
<use xlink:href="#f1_i" transform="matrix(10.4,0,0,10.4,470,602)" />
<use xlink:href="#f1_1l" transform="matrix(10.4,0,0,10.4,479.3,602)" />
<use xlink:href="#f1_2f" transform="matrix(10.4,0,0,10.4,490.9,602)" />
<use xlink:href="#f1_21" transform="matrix(10.4,0,0,10.4,498.9,602)" />
<use xlink:href="#f1_2g" transform="matrix(10.4,0,0,10.4,512.7,602)" />
<use xlink:href="#f1_24" transform="matrix(10.4,0,0,10.4,517.1,602)" />
<use xlink:href="#f1_25" transform="matrix(10.4,0,0,10.4,525.9,602)" />
<use xlink:href="#f1_2f" transform="matrix(10.4,0,0,10.4,529.4,602)" />
<use xlink:href="#f1_25" transform="matrix(10.4,0,0,10.4,542.6,602)" />
<use xlink:href="#f1_2a" transform="matrix(10.4,0,0,10.4,546.1,602)" />
<use xlink:href="#f1_22" transform="matrix(10.4,0,0,10.4,554.9,602)" />
<use xlink:href="#f1_2b" transform="matrix(10.4,0,0,10.4,559.4,602)" />
<use xlink:href="#f1_2e" transform="matrix(10.4,0,0,10.4,568.2,602)" />
<use xlink:href="#f1_29" transform="matrix(10.4,0,0,10.4,573.5,602)" />
<use xlink:href="#f1_1x" transform="matrix(10.4,0,0,10.4,587.1,602)" />
<use xlink:href="#f1_2g" transform="matrix(10.4,0,0,10.4,595.9,602)" />
<use xlink:href="#f1_25" transform="matrix(10.4,0,0,10.4,600.3,602)" />
<use xlink:href="#f1_2b" transform="matrix(10.4,0,0,10.4,603.8,602)" />
<use xlink:href="#f1_2a" transform="matrix(10.4,0,0,10.4,612.6,602)" />
<use xlink:href="#f1_2g" transform="matrix(10.4,0,0,10.4,626.3,602)" />
<use xlink:href="#f1_2b" transform="matrix(10.4,0,0,10.4,630.7,602)" />
<use xlink:href="#f1_1z" transform="matrix(10.4,0,0,10.4,103.3,622.9)" />
<use xlink:href="#f1_1x" transform="matrix(10.4,0,0,10.4,111.4,622.9)" />
<use xlink:href="#f1_28" transform="matrix(10.4,0,0,10.4,120.2,622.9)" />
<use xlink:href="#f1_1z" transform="matrix(10.4,0,0,10.4,123.7,622.9)" />
<use xlink:href="#f1_2h" transform="matrix(10.4,0,0,10.4,131.7,622.9)" />
<use xlink:href="#f1_28" transform="matrix(10.4,0,0,10.4,140.5,622.9)" />
<use xlink:href="#f1_1x" transform="matrix(10.4,0,0,10.4,144,622.9)" />
<use xlink:href="#f1_2g" transform="matrix(10.4,0,0,10.4,152.8,622.9)" />
<use xlink:href="#f1_21" transform="matrix(10.4,0,0,10.4,157.2,622.9)" />
<use xlink:href="#f1_11" transform="matrix(10.4,0,0,10.4,170.6,622.9)" />
<use xlink:href="#f1_2i" transform="matrix(10.4,0,0,10.4,180.9,622.9)" />
<use xlink:href="#f1_2b" transform="matrix(10.4,0,0,10.4,188.7,622.9)" />
<use xlink:href="#f1_23" transform="matrix(10.4,0,0,10.4,197.5,622.9)" />
<use xlink:href="#f1_1x" transform="matrix(10.4,0,0,10.4,206.3,622.9)" />
<use xlink:href="#f1_20" transform="matrix(10.4,0,0,10.4,215.1,622.9)" />
<use xlink:href="#f1_2e" transform="matrix(10.4,0,0,10.4,223.9,622.9)" />
<use xlink:href="#f1_2b" transform="matrix(10.4,0,0,10.4,229.2,622.9)" />
<use xlink:href="#f1_1k5" transform="matrix(10.4,0,0,10.4,238.1,622.9)" />
<use xlink:href="#f1_2f" transform="matrix(10.4,0,0,10.4,241.2,622.9)" />
<use xlink:href="#f1_2a" transform="matrix(10.4,0,0,10.4,254.9,622.9)" />
<use xlink:href="#f1_2h" transform="matrix(10.4,0,0,10.4,263.7,622.9)" />
<use xlink:href="#f1_29" transform="matrix(10.4,0,0,10.4,272.5,622.9)" />
<use xlink:href="#f1_1y" transform="matrix(10.4,0,0,10.4,286.1,622.9)" />
<use xlink:href="#f1_21" transform="matrix(10.4,0,0,10.4,294.9,622.9)" />
<use xlink:href="#f1_2e" transform="matrix(10.4,0,0,10.4,303.7,622.9)" />
<use xlink:href="#f1_c" transform="matrix(10.4,0,0,10.4,314.5,622.9)" />
<use xlink:href="#f1_1d" transform="matrix(10.4,0,0,10.4,319.8,622.9)" />
<use xlink:href="#f1_2b" transform="matrix(10.4,0,0,10.4,332.8,622.9)" />
<use xlink:href="#f1_28" transform="matrix(10.4,0,0,10.4,341.6,622.9)" />
<use xlink:href="#f1_1x" transform="matrix(10.4,0,0,10.4,345.1,622.9)" />
<use xlink:href="#f1_2e" transform="matrix(10.4,0,0,10.4,353.9,622.9)" />
<use xlink:href="#f1_29" transform="matrix(10.4,0,0,10.4,364.7,622.9)" />
<use xlink:href="#f1_1x" transform="matrix(10.4,0,0,10.4,378.3,622.9)" />
<use xlink:href="#f1_2f" transform="matrix(10.4,0,0,10.4,387.1,622.9)" />
<use xlink:href="#f1_2f" transform="matrix(10.4,0,0,10.4,395.1,622.9)" />
<use xlink:href="#f1_2b" transform="matrix(10.4,0,0,10.4,408.9,622.9)" />
<use xlink:href="#f1_22" transform="matrix(10.4,0,0,10.4,417.7,622.9)" />
<use xlink:href="#f1_13" transform="matrix(10.4,0,0,10.4,427.8,622.9)" />
<use xlink:href="#f1_1x" transform="matrix(10.4,0,0,10.4,439.3,622.9)" />
<use xlink:href="#f1_16" transform="matrix(10.4,0,0,10.4,448.1,622.9)" />
<use xlink:href="#f1_m" transform="matrix(7.4,0,0,7.4,457.9,628.2)" />
<use xlink:href="#f1_x" transform="matrix(10.4,0,0,10.4,469.6,622.9)" />
<use xlink:href="#f1_r" transform="matrix(10.4,0,0,10.4,484.6,622.9)" />
<use xlink:href="#f1_s" transform="matrix(10.4,0,0,10.4,493.4,622.9)" />
<use xlink:href="#f1_i" transform="matrix(10.4,0,0,10.4,502.2,622.9)" />
<use xlink:href="#f1_k" transform="matrix(10.4,0,0,10.4,506.6,622.9)" />
<use xlink:href="#f1_s" transform="matrix(10.4,0,0,10.4,515.4,622.9)" />
<use xlink:href="#f1_23" transform="matrix(10.4,0,0,10.4,529.7,622.9)" />
<use xlink:href="#f1_29" transform="matrix(10.4,0,0,10.4,544.2,622.9)" />
<use xlink:href="#f1_2b" transform="matrix(10.4,0,0,10.4,557.8,622.9)" />
<use xlink:href="#f1_28" transform="matrix(10.4,0,0,10.4,566.6,622.9)" />
</g>
<g clip-path="url(#c9_8)">
<g fill="#000000" >
<use xlink:href="#f1_1jz" transform="matrix(7.4,0,0,7.4,570.1,617.6)" />
<use xlink:href="#f1_l" transform="matrix(7.4,0,0,7.4,576.3,617.6)" />
</g>
</g>
<g fill="#000000" >
<use xlink:href="#f1_1t" transform="matrix(10.4,0,0,10.4,582.5,622.9)" />
<use xlink:href="#f1_1r" transform="matrix(10.4,0,0,10.4,452.6,643.8)" />
<use xlink:href="#f2_11" transform="matrix(10.4,0,0,10.4,457,643.8)" />
<use xlink:href="#f2_2a" transform="matrix(10.4,0,0,10.4,467.8,643.8)" />
<use xlink:href="#f2_2f" transform="matrix(10.4,0,0,10.4,477.5,643.8)" />
<use xlink:href="#f2_i" transform="matrix(10.4,0,0,10.4,486.3,643.8)" />
<use xlink:href="#f2_u" transform="matrix(10.4,0,0,10.4,496,643.8)" />
<use xlink:href="#f1_q" transform="matrix(10.4,0,0,10.4,506.8,643.8)" />
<use xlink:href="#f1_i" transform="matrix(10.4,0,0,10.4,515.6,643.8)" />
<use xlink:href="#f1_k" transform="matrix(10.4,0,0,10.4,520,643.8)" />
<use xlink:href="#f1_m" transform="matrix(10.4,0,0,10.4,528.8,643.8)" />
<use xlink:href="#f1_4a" transform="matrix(10.4,0,0,10.4,542.9,643.8)" />
<use xlink:href="#f1_l" transform="matrix(10.4,0,0,10.4,557.6,643.8)" />
<use xlink:href="#f1_k" transform="matrix(10.4,0,0,10.4,566.4,643.8)" />
<use xlink:href="#f1_m" transform="matrix(7.4,0,0,7.4,575.2,638.5)" />
<use xlink:href="#f1_n" transform="matrix(7.4,0,0,7.4,581.4,638.5)" />
<use xlink:href="#f1_29" transform="matrix(10.4,0,0,10.4,593.2,643.8)" />
<use xlink:href="#f1_2b" transform="matrix(10.4,0,0,10.4,606.7,643.8)" />
<use xlink:href="#f1_28" transform="matrix(10.4,0,0,10.4,615.5,643.8)" />
</g>
<g clip-path="url(#c10_8)">
<g fill="#000000" >
<use xlink:href="#f1_1jz" transform="matrix(7.4,0,0,7.4,619,638.5)" />
<use xlink:href="#f1_l" transform="matrix(7.4,0,0,7.4,625.3,638.5)" />
</g>
</g>
<g fill="#000000" >
<use xlink:href="#f1_1t" transform="matrix(10.4,0,0,10.4,631.5,643.8)" />
<use xlink:href="#f4_r" transform="matrix(12,0,0,12,683.9,1048)" />
</g>
<g fill="#0080FF" fill-opacity="0.5" >
<use xlink:href="#f0_1c" transform="matrix(37.9,0,0,37.9,181.6,1041.5)" />
<use xlink:href="#f0_21" transform="matrix(37.9,0,0,37.9,213.7,1041.5)" />
<use xlink:href="#f0_1x" transform="matrix(37.9,0,0,37.9,245.9,1041.5)" />
<use xlink:href="#f0_2e" transform="matrix(37.9,0,0,37.9,278,1041.5)" />
<use xlink:href="#f0_2a" transform="matrix(37.9,0,0,37.9,297.3,1041.5)" />
<use xlink:href="#f0_17" transform="matrix(37.9,0,0,37.9,329.4,1041.5)" />
<use xlink:href="#f0_2h" transform="matrix(37.9,0,0,37.9,374.4,1041.5)" />
<use xlink:href="#f0_25" transform="matrix(37.9,0,0,37.9,406.6,1041.5)" />
<use xlink:href="#f0_20" transform="matrix(37.9,0,0,37.9,419.4,1041.5)" />
<use xlink:href="#f0_21" transform="matrix(37.9,0,0,37.9,451.6,1041.5)" />
<use xlink:href="#f0_i" transform="matrix(37.9,0,0,37.9,483.7,1041.5)" />
<use xlink:href="#f0_25" transform="matrix(37.9,0,0,37.9,499.8,1041.5)" />
<use xlink:href="#f0_2a" transform="matrix(37.9,0,0,37.9,512.6,1041.5)" />
</g>
<defs>
<path d="M593,101c0,0,182,0,279,112c0,0,98,113,98,318c0,0,0,196,-98,308c0,0,-98,112,-277,112c0,0,-181,0,-279,-110c0,0,-99,-111,-99,-310c0,0,0,-198,100,-314c0,0,99,-116,276,-116Zm0,-115c0,0,-162,0,-279,65c0,0,-118,66,-180,190c0,0,-62,124,-62,290c0,0,0,252,138,394c0,0,138,142,385,142c0,0,160,0,278,-64c0,0,118,-64,180,-185c0,0,62,-122,62,-287c0,0,0,-165,-63,-289c0,0,-63,-124,-181,-190c0,0,-118,-66,-278,-66Z" 
id="f0_1f"
transform="scale(0.001,-0.001)" />

<path d="M106,0V635c0,0,0,141,-5,173H228c0,0,1,-4,2,-21c0,0,1,-16,2,-37c0,0,1,-22,2,-81h2c0,0,47,84,108,119c0,0,60,34,151,34c0,0,132,0,194,-66c0,0,61,-66,61,-218V0H615V512c0,0,0,80,-15,124c0,0,-16,44,-50,63c0,0,-35,20,-101,20c0,0,-97,0,-153,-67c0,0,-56,-66,-56,-184V0Z" 
id="f0_2a"
transform="scale(0.001,-0.001)" />

<path d="M103,0V1107H237V0Z" 
id="f0_28"
transform="scale(0.001,-0.001)" />

<path d="M102,0V808H236V0Zm0,979v128H236V979Z" 
id="f0_25"
transform="scale(0.001,-0.001)" />

<path d="M643,478c0,0,-11,128,-65,187c0,0,-54,59,-154,59c0,0,-98,0,-155,-66c0,0,-57,-65,-62,-180ZM431,-14c0,0,-179,0,-272,106c0,0,-94,107,-94,317c0,0,0,200,94,307c0,0,93,106,267,106c0,0,356,0,356,-429V375H206c0,0,0,-138,57,-213c0,0,58,-75,168,-75c0,0,87,0,140,35c0,0,53,35,71,88L760,177c0,0,-72,-191,-329,-191Z" 
id="f0_21"
transform="scale(0.001,-0.001)" />

<path d="M17,0L304,415L31,808H179L380,493L580,808H730L457,417L747,0H598L380,331L162,0Z" 
id="f0_2k"
transform="scale(0.001,-0.001)" />

<path d="M339,87c0,0,74,0,132,34c0,0,57,33,90,91c0,0,34,59,34,121v66L448,396c0,0,-95,-2,-144,-19c0,0,-49,-18,-75,-55c0,0,-26,-38,-26,-98c0,0,0,-65,35,-101c0,0,36,-36,101,-36ZM309,-14c0,0,-122,0,-183,64c0,0,-61,64,-61,176c0,0,0,125,82,192c0,0,83,67,266,72l182,3v44c0,0,0,98,-42,141c0,0,-42,43,-132,43c0,0,-90,0,-131,-31c0,0,-41,-31,-49,-98L101,604c0,0,34,218,323,218c0,0,153,0,229,-70c0,0,77,-69,77,-202V202c0,0,0,-59,16,-90c0,0,16,-30,60,-30c0,0,19,0,44,5V4C850,4,799,-7,746,-7c0,0,-75,0,-109,38c0,0,-33,40,-38,124h-4C595,155,543,62,475,24c0,0,-68,-38,-166,-38Z" 
id="f0_1x"
transform="scale(0.001,-0.001)" />

<path d="M106,0V635c0,0,0,141,-5,173H228c0,0,1,-4,2,-21c0,0,1,-16,2,-37c0,0,1,-22,2,-81h2c0,0,44,86,100,120c0,0,56,33,136,33c0,0,92,0,145,-36c0,0,54,-37,75,-117h2c0,0,42,82,101,117c0,0,59,36,143,36c0,0,123,0,178,-66c0,0,56,-67,56,-218V0H1039V512c0,0,0,117,-32,162c0,0,-32,45,-116,45c0,0,-88,0,-136,-66c0,0,-49,-65,-49,-185V0H573V512c0,0,0,117,-32,162c0,0,-32,45,-116,45c0,0,-86,0,-136,-66c0,0,-50,-66,-50,-185V0Z" 
id="f0_29"
transform="scale(0.001,-0.001)" />

<path d="M453,84c0,0,100,0,146,74c0,0,46,73,46,247c0,0,0,169,-46,241c0,0,-45,73,-145,73c0,0,-80,0,-125,-34c0,0,-45,-34,-68,-105c0,0,-24,-71,-24,-186c0,0,0,-159,51,-234c0,0,51,-76,165,-76ZM103,-316V643c0,0,0,124,-5,165H228c0,0,1,-3,3,-22c0,0,1,-18,3,-56c0,0,2,-38,2,-52h3c0,0,36,75,94,110c0,0,59,34,156,34c0,0,149,0,223,-100c0,0,74,-100,74,-314c0,0,0,-422,-297,-422c0,0,-187,0,-251,140h-4c0,0,3,-6,3,-126V-316Z" 
id="f0_2c"
transform="scale(0.001,-0.001)" />

<path d="M420,84c0,0,121,0,173,78c0,0,52,77,52,243c0,0,0,167,-50,243c0,0,-50,76,-167,76c0,0,-118,0,-170,-78c0,0,-53,-77,-53,-241c0,0,0,-160,52,-241c0,0,52,-80,163,-80Zm1,-98c0,0,-176,0,-267,107c0,0,-90,108,-90,312c0,0,0,417,362,417c0,0,185,0,272,-102c0,0,88,-101,88,-315c0,0,0,-212,-94,-316C692,89,599,-14,421,-14Z" 
id="f0_2b"
transform="scale(0.001,-0.001)" />

<path d="M278,-11c0,0,-162,0,-162,182V710H23v98h99l39,181h90V808H400V710H251V200c0,0,0,-58,19,-82c0,0,19,-23,66,-23c0,0,27,0,77,10V6c0,0,-66,-17,-135,-17Z" 
id="f0_2g"
transform="scale(0.001,-0.001)" />

<path d="M643,478c0,0,-11,128,-65,187c0,0,-54,59,-154,59c0,0,-98,0,-155,-66c0,0,-57,-65,-62,-180ZM431,-14c0,0,-179,0,-272,106c0,0,-94,107,-94,317c0,0,0,200,94,307c0,0,93,106,267,106c0,0,356,0,356,-429V375H206c0,0,0,-138,57,-213c0,0,58,-75,168,-75c0,0,87,0,140,35c0,0,53,35,71,88L760,177c0,0,-72,-191,-329,-191Z" 
id="f1_21"
transform="scale(0.001,-0.001)" />

<path d="M395,89c0,0,115,0,166,79c0,0,51,79,51,246c0,0,0,160,-51,235c0,0,-51,75,-164,75c0,0,-102,0,-147,-75c0,0,-45,-75,-45,-244c0,0,0,-170,45,-243c0,0,45,-73,145,-73ZM361,-14c0,0,-153,0,-225,102c0,0,-72,103,-72,312c0,0,0,422,297,422c0,0,92,0,153,-33c0,0,61,-34,98,-107h2l-2,90v335H747V166c0,0,0,-126,4,-166H623c0,0,-2,12,-5,55c0,0,-3,44,-3,75h-3c0,0,-37,-78,-98,-111c0,0,-62,-33,-153,-33Z" 
id="f1_20"
transform="scale(0.001,-0.001)" />

<path d="M398,93c0,0,63,0,112,37c0,0,49,38,76,107c0,0,27,70,27,166c0,0,0,99,-27,170c0,0,-27,71,-75,109c0,0,-49,38,-111,38c0,0,-103,0,-150,-75c0,0,-47,-75,-47,-242c0,0,0,-165,44,-238c0,0,44,-72,151,-72Zm11,-409c0,0,-132,0,-211,52c0,0,-78,52,-100,147l135,20c0,0,13,-56,59,-87c0,0,46,-30,121,-30c0,0,200,0,200,234V150h-1C612,150,574,72,507,33C507,33,441,-5,352,-5c0,0,-148,0,-218,98c0,0,-70,98,-70,309c0,0,0,214,75,316c0,0,75,101,228,101c0,0,86,0,149,-39c0,0,63,-39,97,-111h2c0,0,0,22,3,78c0,0,3,55,6,61H751c0,0,-4,-41,-4,-167V23c0,0,0,-339,-338,-339Z" 
id="f1_23"
transform="scale(0.001,-0.001)" />

<path d="M103,0V1107H237V0Z" 
id="f1_28"
transform="scale(0.001,-0.001)" />

<path d="M106,0V635c0,0,0,141,-5,173H228c0,0,1,-4,2,-21c0,0,1,-16,2,-37c0,0,1,-22,2,-81h2c0,0,47,84,108,119c0,0,60,34,151,34c0,0,132,0,194,-66c0,0,61,-66,61,-218V0H615V512c0,0,0,80,-15,124c0,0,-16,44,-50,63c0,0,-35,20,-101,20c0,0,-97,0,-153,-67c0,0,-56,-66,-56,-184V0Z" 
id="f1_2a"
transform="scale(0.001,-0.001)" />

<path d="M278,-11c0,0,-162,0,-162,182V710H23v98h99l39,181h90V808H400V710H251V200c0,0,0,-58,19,-82c0,0,19,-23,66,-23c0,0,27,0,77,10V6c0,0,-66,-17,-135,-17Z" 
id="f1_2g"
transform="scale(0.001,-0.001)" />

<path d="M615,0V512c0,0,0,85,-15,126c0,0,-16,42,-52,61c0,0,-36,20,-99,20c0,0,-95,0,-152,-66c0,0,-57,-66,-57,-177V0H106V1107H240V819c0,0,0,-45,-2,-94c0,0,-3,-48,-4,-56h2c0,0,44,79,105,116c0,0,60,37,154,37c0,0,131,0,193,-65c0,0,62,-65,62,-219V0Z" 
id="f1_24"
transform="scale(0.001,-0.001)" />

<path d="M420,84c0,0,121,0,173,78c0,0,52,77,52,243c0,0,0,167,-50,243c0,0,-50,76,-167,76c0,0,-118,0,-170,-78c0,0,-53,-77,-53,-241c0,0,0,-160,52,-241c0,0,52,-80,163,-80Zm1,-98c0,0,-176,0,-267,107c0,0,-90,108,-90,312c0,0,0,417,362,417c0,0,185,0,272,-102c0,0,88,-101,88,-315c0,0,0,-212,-94,-316C692,89,599,-14,421,-14Z" 
id="f1_2b"
transform="scale(0.001,-0.001)" />

<path d="M135,0V710H22v98H135v91c0,0,0,110,49,158c0,0,48,49,148,49c0,0,56,0,95,-9V994c0,0,-34,6,-60,6c0,0,-51,0,-75,-26c0,0,-23,-26,-23,-94V808H427V710H269V0Z" 
id="f1_22"
transform="scale(0.001,-0.001)" />

<path d="M355,-14c0,0,-133,0,-194,65c0,0,-62,66,-62,219V808H234V296c0,0,0,-80,16,-124c0,0,16,-44,50,-64c0,0,34,-19,101,-19c0,0,97,0,153,66c0,0,55,67,55,185V808H744V172c0,0,0,-141,4,-172H621c0,0,0,4,-1,20c0,0,-1,17,-2,38c0,0,-1,21,-3,80h-2C613,138,567,55,506,20c0,0,-61,-34,-151,-34Z" 
id="f1_2h"
transform="scale(0.001,-0.001)" />

<path d="M102,0V808H236V0Zm0,979v128H236V979Z" 
id="f1_25"
transform="scale(0.001,-0.001)" />

<path d="M413,-14c0,0,-170,0,-259,106c0,0,-89,107,-89,313c0,0,0,203,89,310c0,0,90,107,257,107c0,0,124,0,206,-64c0,0,81,-64,102,-177L581,571c0,0,-10,67,-53,106c0,0,-42,40,-121,40c0,0,-106,0,-154,-71c0,0,-48,-71,-48,-239c0,0,0,-161,51,-238c0,0,51,-78,153,-78c0,0,71,0,120,39c0,0,48,39,59,119l136,-9C724,240,708,124,624,55c0,0,-83,-69,-211,-69Z" 
id="f1_1z"
transform="scale(0.001,-0.001)" />

<path d="M381,-14c0,0,-150,0,-232,49C149,35,67,85,43,190l118,23c0,0,17,-65,71,-96c0,0,54,-30,149,-30c0,0,102,0,150,31c0,0,47,32,47,95c0,0,0,47,-33,77c0,0,-33,30,-106,49l-96,26c0,0,-115,30,-164,58c0,0,-49,29,-77,70c0,0,-27,41,-27,101c0,0,0,110,78,168c0,0,79,57,230,57c0,0,133,0,212,-47c0,0,79,-47,100,-150L574,607c0,0,-12,53,-60,82c0,0,-49,29,-131,29c0,0,-91,0,-135,-28c0,0,-43,-27,-43,-83c0,0,0,-34,18,-57c0,0,18,-22,53,-38c0,0,35,-15,148,-43c0,0,106,-27,153,-50c0,0,47,-22,75,-50c0,0,27,-27,42,-64c0,0,15,-36,15,-82c0,0,0,-114,-86,-176c0,0,-87,-61,-242,-61Z" 
id="f1_2f"
transform="scale(0.001,-0.001)" />

<path d="M426,-14c0,0,-160,0,-255,71c0,0,-95,72,-113,213l139,13c0,0,27,-187,229,-187c0,0,101,0,159,50c0,0,58,50,58,149c0,0,0,86,-66,134c0,0,-66,48,-191,48H310V594h73c0,0,111,0,172,48c0,0,60,48,60,133c0,0,0,84,-49,132c0,0,-50,49,-147,49c0,0,-89,0,-144,-45c0,0,-55,-46,-64,-129L76,793c0,0,15,129,107,201c0,0,92,73,237,73c0,0,158,0,246,-74c0,0,87,-73,87,-204c0,0,0,-101,-56,-164c0,0,-56,-63,-164,-85v-3c0,0,118,-13,184,-79c0,0,66,-67,66,-167c0,0,0,-146,-93,-226c0,0,-92,-79,-264,-79Z" 
id="f1_n"
transform="scale(0.001,-0.001)" />

<path d="M116,0V114H384V923L147,754V881l248,170H519V114H775V0Z" 
id="f1_l"
transform="scale(0.001,-0.001)" />

<path d="M530,344V900c0,0,-1,-5,-20,-40c0,0,-20,-35,-30,-49L211,414L171,359L159,344ZM530,0V239H35V343l481,708H657V344H805V239H657V0Z" 
id="f1_o"
transform="scale(0.001,-0.001)" />

<path d="M453,84c0,0,100,0,146,74c0,0,46,73,46,247c0,0,0,169,-46,241c0,0,-45,73,-145,73c0,0,-80,0,-125,-34c0,0,-45,-34,-68,-105c0,0,-24,-71,-24,-186c0,0,0,-159,51,-234c0,0,51,-76,165,-76ZM103,-316V643c0,0,0,124,-5,165H228c0,0,1,-3,3,-22c0,0,1,-18,3,-56c0,0,2,-38,2,-52h3c0,0,36,75,94,110c0,0,59,34,156,34c0,0,149,0,223,-100c0,0,74,-100,74,-314c0,0,0,-422,-297,-422c0,0,-187,0,-251,140h-4c0,0,3,-6,3,-126V-316Z" 
id="f1_2c"
transform="scale(0.001,-0.001)" />

<path d="M106,0V635c0,0,0,141,-5,173H228c0,0,1,-4,2,-21c0,0,1,-16,2,-37c0,0,1,-22,2,-81h2c0,0,44,86,100,120c0,0,56,33,136,33c0,0,92,0,145,-36c0,0,54,-37,75,-117h2c0,0,42,82,101,117c0,0,59,36,143,36c0,0,123,0,178,-66c0,0,56,-67,56,-218V0H1039V512c0,0,0,117,-32,162c0,0,-32,45,-116,45c0,0,-88,0,-136,-66c0,0,-49,-65,-49,-185V0H573V512c0,0,0,117,-32,162c0,0,-32,45,-116,45c0,0,-86,0,-136,-66c0,0,-50,-66,-50,-185V0Z" 
id="f1_29"
transform="scale(0.001,-0.001)" />

<path d="M140,0V163H285V0Z" 
id="f1_i"
transform="scale(0.001,-0.001)" />

<path d="M502,114c0,0,116,0,203,51c0,0,88,51,135,146c0,0,47,96,47,225c0,0,0,196,-107,298c0,0,-107,103,-310,103H268V114ZM125,0V1051H473c0,0,267,0,412,-134c0,0,145,-134,145,-381c0,0,0,-162,-63,-284C967,252,903,130,787,65C787,65,671,0,518,0Z" 
id="f1_14"
transform="scale(0.001,-0.001)" />

<path d="M106,0V620c0,0,0,85,-5,188H228c0,0,6,-138,6,-165h3c0,0,32,103,74,141c0,0,42,38,118,38c0,0,27,0,54,-7V692c0,0,-26,7,-71,7c0,0,-84,0,-128,-72c0,0,-44,-72,-44,-206V0Z" 
id="f1_2e"
transform="scale(0.001,-0.001)" />

<path d="M339,87c0,0,74,0,132,34c0,0,57,33,90,91c0,0,34,59,34,121v66L448,396c0,0,-95,-2,-144,-19c0,0,-49,-18,-75,-55c0,0,-26,-38,-26,-98c0,0,0,-65,35,-101c0,0,36,-36,101,-36ZM309,-14c0,0,-122,0,-183,64c0,0,-61,64,-61,176c0,0,0,125,82,192c0,0,83,67,266,72l182,3v44c0,0,0,98,-42,141c0,0,-42,43,-132,43c0,0,-90,0,-131,-31c0,0,-41,-31,-49,-98L101,604c0,0,34,218,323,218c0,0,153,0,229,-70c0,0,77,-69,77,-202V202c0,0,0,-59,16,-90c0,0,16,-30,60,-30c0,0,19,0,44,5V4C850,4,799,-7,746,-7c0,0,-75,0,-109,38c0,0,-33,40,-38,124h-4C595,155,543,62,475,24c0,0,-68,-38,-166,-38Z" 
id="f1_1x"
transform="scale(0.001,-0.001)" />

<path d="M224,0L-1,808H131L267,259c0,0,5,-18,32,-147l13,55L480,808H624L765,253L800,112l23,103L976,808h131L876,0H720L579,571L552,697c0,0,-7,-33,-21,-96C531,601,517,537,379,0Z" 
id="f1_2j"
transform="scale(0.001,-0.001)" />

<path d="M453,84c0,0,101,0,146,75c0,0,46,75,46,244c0,0,0,169,-45,243c0,0,-45,73,-146,73c0,0,-113,0,-165,-78c0,0,-52,-78,-52,-246c0,0,0,-159,51,-235c0,0,51,-76,165,-76Zm36,-98c0,0,-92,0,-153,33c0,0,-61,33,-99,107h-1c0,0,0,-24,-3,-71c0,0,-3,-48,-5,-55H98c0,0,5,40,5,166v941H237V792c0,0,0,-49,-3,-114h3c0,0,38,77,99,111c0,0,62,33,153,33c0,0,153,0,225,-103c0,0,72,-103,72,-311c0,0,0,-422,-297,-422Z" 
id="f1_1y"
transform="scale(0.001,-0.001)" />

<path d="M137,-195c0,0,70,102,70,195H142V163H287V38c0,0,0,-78,-14,-131c0,0,-14,-53,-44,-102Z" 
id="f1_g"
transform="scale(0.001,-0.001)" />

<path d="M370,-316c0,0,-141,152,-208,323C162,7,95,179,95,394v3c0,0,0,215,67,387c0,0,68,171,208,323H500c0,0,-140,-155,-205,-330c0,0,-65,-175,-65,-382c0,0,0,-207,64,-381c0,0,65,-172,206,-330Z" 
id="f1_c"
transform="scale(0.001,-0.001)" />

<path d="M606,-14c0,0,-164,0,-284,65c0,0,-119,66,-182,189c0,0,-63,123,-63,291c0,0,0,255,137,396c0,0,137,140,386,140c0,0,174,0,283,-59c0,0,109,-59,168,-189L915,779c0,0,-44,90,-123,131c0,0,-79,41,-196,41c0,0,-182,0,-278,-110c0,0,-96,-110,-96,-310c0,0,0,-200,102,-315c0,0,102,-115,282,-115c0,0,103,0,193,31c0,0,89,31,144,85V407H629V526h445V164c0,0,-83,-85,-205,-132c0,0,-121,-46,-263,-46Z" 
id="f1_17"
transform="scale(0.001,-0.001)" />

<path d="M298,0L5,808H148L326,282c0,0,10,-29,51,-176l27,87l29,88L616,808H759L457,0Z" 
id="f1_2i"
transform="scale(0.001,-0.001)" />

<path d="M125,0V1051H291L859,150c0,0,-9,146,-9,212v689H979V0H807L245,895l3,-72l4,-125V0Z" 
id="f1_1e"
transform="scale(0.001,-0.001)" />

<path d="M708,418L573,765c0,0,-21,52,-42,117l-20,62l-7,-21c0,0,-18,-62,-55,-159L315,418ZM3,0L432,1051H594L1016,0H871L750,307H272L151,0Z" 
id="f1_11"
transform="scale(0.001,-0.001)" />

<path d="M75,256V367H817V256Zm0,383V749H817V639Z" 
id="f1_x"
transform="scale(0.001,-0.001)" />

<path d="M439,94c0,0,97,0,152,65c0,0,55,65,55,179c0,0,0,114,-56,176c0,0,-56,62,-156,62c0,0,-94,0,-152,-55c0,0,-57,-55,-57,-151c0,0,0,-121,60,-199c0,0,60,-77,154,-77Zm4,-108c0,0,-177,0,-271,131c0,0,-94,132,-94,384c0,0,0,273,97,420c0,0,98,146,279,146c0,0,238,0,299,-214L625,830c0,0,-39,128,-173,128c0,0,-115,0,-178,-107c0,0,-63,-107,-63,-310c0,0,37,68,103,103c0,0,66,36,152,36c0,0,146,0,231,-91c0,0,86,-91,86,-245c0,0,0,-166,-91,-262c0,0,-90,-96,-249,-96Z" 
id="f1_q"
transform="scale(0.001,-0.001)" />

<path d="M424,96c0,0,119,0,174,106c0,0,55,106,55,325c0,0,0,227,-52,329c0,0,-53,102,-174,102c0,0,-123,0,-177,-100c0,0,-55,-101,-55,-331c0,0,0,-224,55,-328c0,0,55,-103,174,-103ZM423,-14c0,0,-181,0,-272,137c0,0,-91,138,-91,403c0,0,0,271,88,406c0,0,88,135,279,135c0,0,186,0,275,-137c0,0,88,-136,88,-404c0,0,0,-263,-93,-402c0,0,-93,-138,-274,-138Z" 
id="f1_k"
transform="scale(0.001,-0.001)" />

<path d="M77,0V95c0,0,38,87,93,154c0,0,55,67,115,121c0,0,60,54,120,100c0,0,59,46,107,93c0,0,47,46,77,97c0,0,29,50,29,114c0,0,0,87,-50,135c0,0,-51,47,-141,47c0,0,-86,0,-142,-46c0,0,-55,-47,-65,-131L83,791c0,0,15,126,107,201c0,0,92,75,237,75c0,0,159,0,244,-75c0,0,85,-75,85,-213c0,0,0,-61,-28,-122c0,0,-28,-60,-83,-120c0,0,-55,-61,-211,-188c0,0,-86,-70,-136,-126c0,0,-51,-56,-73,-109H773V0Z" 
id="f1_m"
transform="scale(0.001,-0.001)" />

<path d="M182,168l-76,78L370,510L107,773l78,76L446,586L707,848l79,-78L524,510L787,247L711,169L448,432L182,168Z" 
id="f1_4a"
transform="scale(0.001,-0.001)" />

<path d="M0,336V439H849V336Z" 
id="f1_1jz"
transform="scale(0.001,-0.001)" />

<path d="M9,-316c0,0,140,157,205,329c0,0,65,174,65,382c0,0,0,208,-65,382c0,0,-66,174,-205,330H139c0,0,141,-152,208,-324c0,0,67,-172,67,-386v-3c0,0,0,-216,-67,-388c0,0,-68,-170,-208,-322Z" 
id="f1_d"
transform="scale(0.001,-0.001)" />

<path d="M109,-316V1107H413v-96H239V-220H413v-96Z" 
id="f1_1r"
transform="scale(0.001,-0.001)" />

<path d="M703,434L599,736L567,838l-16,51l-4,-16c0,0,-8,-27,-18,-61c0,0,-11,-35,-128,-378ZM38,0L421,1051H681L1063,0H845L752,269H351L258,0Z" 
id="f2_11"
transform="scale(0.001,-0.001)" />

<path d="M107,0V627c0,0,0,65,-2,106c0,0,-2,42,-4,75H301c0,0,2,-15,6,-77c0,0,3,-61,3,-85h3c0,0,43,93,107,135c0,0,64,41,153,41c0,0,128,0,197,-79c0,0,68,-79,68,-231V0H630V452c0,0,0,213,-144,213c0,0,-76,0,-123,-65c0,0,-47,-66,-47,-168V0Z" 
id="f2_2a"
transform="scale(0.001,-0.001)" />

<path d="M426,-14c0,0,-166,0,-255,52C171,38,83,90,54,201l184,28c0,0,16,-57,54,-81c0,0,38,-24,134,-24c0,0,88,0,128,22c0,0,41,23,41,70c0,0,0,39,-33,62c0,0,-32,23,-110,38c0,0,-177,35,-239,65c0,0,-62,31,-95,79c0,0,-32,48,-32,118c0,0,0,115,89,180c0,0,89,64,252,64c0,0,144,0,232,-56c0,0,88,-56,109,-162L583,585c0,0,-9,49,-44,74c0,0,-35,24,-112,24c0,0,-74,0,-111,-19c0,0,-38,-19,-38,-64c0,0,0,-35,29,-55c0,0,29,-21,97,-34c0,0,94,-20,168,-40c0,0,73,-21,118,-49c0,0,44,-28,71,-73c0,0,26,-44,26,-113c0,0,0,-117,-96,-184c0,0,-96,-66,-265,-66Z" 
id="f2_2f"
transform="scale(0.001,-0.001)" />

<path d="M104,0V228H319V0Z" 
id="f2_i"
transform="scale(0.001,-0.001)" />

<path d="M147,0V209H362V0Zm0,562V771H362V562Z" 
id="f2_u"
transform="scale(0.001,-0.001)" />

<path d="M48,0V106L689,936H103v115H850V948L210,115H885V0Z" 
id="f1_1q"
transform="scale(0.001,-0.001)" />

<path d="M142,-316c0,0,-55,0,-92,8v101c0,0,28,-4,63,-4c0,0,125,0,198,184L324,4L4,808H147L317,362c0,0,4,-11,9,-25c0,0,5,-15,34,-98c0,0,28,-83,30,-92l52,147L619,808H761L451,0c0,0,-50,-128,-94,-191c0,0,-43,-63,-96,-94c0,0,-52,-31,-119,-31Z" 
id="f1_2l"
transform="scale(0.001,-0.001)" />

<path d="M12,-316v96H186V1011H12v96H316V-316Z" 
id="f1_1t"
transform="scale(0.001,-0.001)" />

<path d="M410,514L298,707L181,516L93,570L233,755L25,809L58,909L257,829l-9,222H350L340,831l197,77l34,-99L360,755L498,568L410,514Z" 
id="f1_e"
transform="scale(0.001,-0.001)" />

<path d="M395,0V936H34v115H898V936H537V0Z" 
id="f1_1k"
transform="scale(0.001,-0.001)" />

<path d="M427,86c0,0,109,0,163,53c0,0,54,52,54,167c0,0,0,97,-58,147c0,0,-59,50,-164,50c0,0,-102,0,-159,-54c0,0,-58,-53,-58,-146c0,0,0,-217,222,-217Zm-3,517c0,0,94,0,144,44c0,0,50,43,50,141c0,0,0,178,-196,178c0,0,-95,0,-144,-45c0,0,-50,-44,-50,-133c0,0,0,-90,51,-137c0,0,51,-48,145,-48Zm1,-617c0,0,-168,0,-263,79c0,0,-96,80,-96,227c0,0,0,103,59,173c0,0,59,70,151,85v3c0,0,-86,20,-135,87c0,0,-50,67,-50,157c0,0,0,121,90,195c0,0,90,75,241,75c0,0,155,0,245,-73c0,0,90,-74,90,-198c0,0,0,-90,-50,-158c0,0,-50,-67,-136,-84v-3c0,0,100,-16,156,-85c0,0,56,-69,56,-173c0,0,0,-145,-92,-226c0,0,-93,-81,-266,-81Z" 
id="f1_s"
transform="scale(0.001,-0.001)" />

<path d="M416,464c0,0,58,0,108,27c0,0,50,26,78,75c0,0,29,49,29,111c0,0,0,127,-58,204c0,0,-58,77,-156,77c0,0,-97,0,-153,-66c0,0,-56,-66,-56,-179c0,0,0,-115,56,-182c0,0,56,-67,152,-67ZM397,-14c0,0,-123,0,-197,51c0,0,-75,52,-107,168l129,20c0,0,40,-131,177,-131c0,0,116,0,179,107c0,0,64,107,67,306c0,0,-30,-67,-103,-108c0,0,-72,-40,-159,-40c0,0,-141,0,-226,97c0,0,-85,97,-85,257c0,0,0,165,92,259c0,0,93,95,257,95c0,0,176,0,266,-130c0,0,90,-130,90,-390c0,0,0,-271,-99,-416c0,0,-98,-145,-281,-145Z" 
id="f1_t"
transform="scale(0.001,-0.001)" />

<path d="M413,-14c0,0,-147,0,-238,64c0,0,-90,64,-114,185l136,16c0,0,42,-155,219,-155c0,0,108,0,169,65c0,0,61,65,61,179c0,0,0,98,-62,159c0,0,-61,61,-165,61c0,0,-55,0,-102,-17c0,0,-47,-17,-94,-58H92l35,566H724V937H249L229,604c0,0,87,67,217,67c0,0,155,0,247,-91c0,0,93,-91,93,-237c0,0,0,-167,-99,-262c0,0,-99,-95,-274,-95Z" 
id="f1_p"
transform="scale(0.001,-0.001)" />

<path d="M141,0V1051H283V0Z" 
id="f1_19"
transform="scale(0.001,-0.001)" />

<path d="M272,0c0,0,0,201,86,424c0,0,85,223,285,513H78v114H773V942C773,942,612,696,545,556c0,0,-66,-139,-99,-275C446,281,413,145,413,0Z" 
id="f1_r"
transform="scale(0.001,-0.001)" />

<path d="M68,346V465H441V346Z" 
id="f1_h"
transform="scale(0.001,-0.001)" />

<path d="M327,0V150H472V0Zm6,281c0,0,1,51,16,90c0,0,14,39,37,69c0,0,24,30,53,53c0,0,29,24,59,45c0,0,29,21,58,42c0,0,29,22,51,48c0,0,23,26,36,59c0,0,14,33,14,77c0,0,0,85,-58,134c0,0,-57,49,-162,49c0,0,-104,0,-165,-52c0,0,-62,-52,-72,-143L63,761c0,0,19,148,116,227c0,0,97,79,257,79c0,0,166,0,261,-79c0,0,96,-79,96,-218c0,0,0,-56,-16,-100c0,0,-17,-44,-47,-82c0,0,-31,-37,-100,-88L570,456c0,0,-54,-39,-80,-82c0,0,-26,-43,-27,-93Z" 
id="f1_z"
transform="scale(0.001,-0.001)" />

<path d="M590,-14c0,0,-159,0,-275,65c0,0,-116,66,-177,189c0,0,-60,123,-60,291c0,0,0,251,135,393c0,0,136,143,376,143c0,0,168,0,281,-66c0,0,112,-66,165,-195L900,762c0,0,-36,92,-117,141c0,0,-81,48,-192,48c0,0,-175,0,-272,-112c0,0,-97,-112,-97,-308c0,0,0,-193,101,-311c0,0,101,-117,274,-117c0,0,221,0,332,218l116,-58c0,0,-65,-136,-182,-207c0,0,-118,-70,-273,-70Z" 
id="f1_13"
transform="scale(0.001,-0.001)" />

<path d="M102,0V1051H322V633H780v418h220V0H780V451H322V0Z" 
id="f2_18"
transform="scale(0.001,-0.001)" />

<path d="M107,0V808H316V0Zm0,952v155H316V952Z" 
id="f2_25"
transform="scale(0.001,-0.001)" />

<path d="M313,-13c0,0,-92,0,-142,50c0,0,-50,50,-50,152V666H19V808H131l66,189H328V808H481V666H328V245c0,0,0,-59,23,-87c0,0,22,-28,69,-28c0,0,25,0,70,10V11c0,0,-77,-24,-177,-24Z" 
id="f2_2g"
transform="scale(0.001,-0.001)" />

<path d="M125,0V1051H313L592,322c0,0,15,-44,29,-94c0,0,14,-50,18,-73c0,0,6,30,25,91c0,0,19,61,26,76l275,729h182V0H1019V701c0,0,0,117,7,224c0,0,-37,-133,-66,-209L689,0H589L313,716L272,843l-25,82l2,-83l3,-141V0Z" 
id="f1_1d"
transform="scale(0.001,-0.001)" />

<path d="M182,168l-76,78L370,510L107,773l78,76L446,586L707,848l79,-78L524,510L787,247L711,169L448,432L182,168Z" 
id="f3_4a"
transform="scale(0.001,-0.001)" />

<path d="M0,-14L307,1107H424L121,-14Z" 
id="f1_j"
transform="scale(0.001,-0.001)" />

<path d="M395,89c0,0,115,0,166,81c0,0,51,82,51,244c0,0,0,157,-51,233c0,0,-51,77,-164,77c0,0,-102,0,-147,-77c0,0,-45,-76,-45,-242c0,0,0,-170,45,-243c0,0,45,-73,145,-73ZM612,-316V11l3,122h-1c0,0,-40,-80,-99,-114c0,0,-59,-33,-154,-33c0,0,-154,0,-225,103c0,0,-72,104,-72,311c0,0,0,422,297,422c0,0,92,0,151,-32c0,0,60,-33,100,-108h2c0,0,0,22,3,77c0,0,3,55,6,58H752c0,0,-5,-44,-5,-220V-316Z" 
id="f1_2d"
transform="scale(0.001,-0.001)" />

<path d="M103,0V1107H237V416L592,808H749L421,461L766,0H609L336,369L237,287V0Z" 
id="f1_27"
transform="scale(0.001,-0.001)" />

<path d="M62,0V102L513,704H87V808H672V706L220,104H688V0Z" 
id="f1_2m"
transform="scale(0.001,-0.001)" />

<path d="M840,-14c0,0,-86,0,-124,42c0,0,-38,42,-38,142V710H378V656c0,0,0,-171,-19,-346C359,310,339,135,305,0H165c0,0,39,154,60,327c0,0,22,172,22,323v60c0,0,-49,0,-109,-8c0,0,-60,-9,-79,-20V786c0,0,18,9,58,15c0,0,40,7,78,7H987V710H812V199c0,0,0,-57,16,-82c0,0,16,-26,55,-26l64,6V0c0,0,-58,-14,-107,-14Z" 
id="f3_oj"
transform="scale(0.001,-0.001)" />

<path d="M1067,73c0,0,65,0,96,63c0,0,31,62,31,188c0,0,0,134,-29,194c0,0,-29,60,-97,60c0,0,-68,0,-98,-59c0,0,-30,-59,-30,-195c0,0,0,-127,29,-189c0,0,30,-62,98,-62Zm-2,-81c0,0,-116,0,-175,83c0,0,-60,84,-60,249c0,0,0,170,57,253c0,0,57,83,181,83c0,0,123,0,179,-85c0,0,57,-86,57,-251c0,0,0,-161,-60,-247c0,0,-61,-85,-179,-85ZM292,475c0,0,65,0,96,63c0,0,30,63,30,189c0,0,0,132,-29,192c0,0,-28,61,-95,61c0,0,-70,0,-100,-60c0,0,-30,-59,-30,-193c0,0,0,-129,30,-190c0,0,30,-62,98,-62ZM278,0L965,1051h117L393,0Zm13,391c0,0,-118,0,-177,87c0,0,-60,86,-60,249c0,0,0,167,58,250c0,0,57,83,182,83c0,0,119,0,176,-84c0,0,57,-83,57,-249c0,0,0,-161,-59,-249c0,0,-59,-87,-177,-87Z" 
id="f1_9"
transform="scale(0.001,-0.001)" />

<path d="M391,134V454H75V562H391V882H501V562H817V454H501V134Z" 
id="f1_f"
transform="scale(0.001,-0.001)" />

<path d="M125,0V1051H872V936H268V544H854V425H268V0Z" 
id="f1_16"
transform="scale(0.001,-0.001)" />

<path d="M545,-14c0,0,-129,0,-225,46c0,0,-96,47,-149,137c0,0,-53,89,-53,213v669H260V394c0,0,0,-144,73,-219c0,0,74,-74,212,-74c0,0,141,0,220,77c0,0,79,77,79,226v647H985V396c0,0,0,-128,-54,-220C931,176,877,83,778,34c0,0,-98,-48,-233,-48Z" 
id="f1_1l"
transform="scale(0.001,-0.001)" />

<path d="M95,710c0,0,70,102,70,194H99v147H245V943c0,0,0,-79,-14,-132c0,0,-15,-53,-45,-101Z" 
id="f1_1k5"
transform="scale(0.001,-0.001)" />

<path d="M225,0c0,0,2,129,51,312c0,0,48,183,139,352c0,0,91,170,193,286H72v129H780V975C780,975,676,864,573,680C573,680,470,495,414,301C414,301,374,163,363,0Z" 
id="f4_r"
transform="scale(0.001,-0.001)" />

<path d="M125,0V1051H268V115H799V0Z" 
id="f0_1c"
transform="scale(0.001,-0.001)" />

<path d="M106,0V620c0,0,0,85,-5,188H228c0,0,6,-138,6,-165h3c0,0,32,103,74,141c0,0,42,38,118,38c0,0,27,0,54,-7V692c0,0,-26,7,-71,7c0,0,-84,0,-128,-72c0,0,-44,-72,-44,-206V0Z" 
id="f0_2e"
transform="scale(0.001,-0.001)" />

<path d="M606,-14c0,0,-164,0,-284,65c0,0,-119,66,-182,189c0,0,-63,123,-63,291c0,0,0,255,137,396c0,0,137,140,386,140c0,0,174,0,283,-59c0,0,109,-59,168,-189L915,779c0,0,-44,90,-123,131c0,0,-79,41,-196,41c0,0,-182,0,-278,-110c0,0,-96,-110,-96,-310c0,0,0,-200,102,-315c0,0,102,-115,282,-115c0,0,103,0,193,31c0,0,89,31,144,85V407H629V526h445V164c0,0,-83,-85,-205,-132c0,0,-121,-46,-263,-46Z" 
id="f0_17"
transform="scale(0.001,-0.001)" />

<path d="M355,-14c0,0,-133,0,-194,65c0,0,-62,66,-62,219V808H234V296c0,0,0,-80,16,-124c0,0,16,-44,50,-64c0,0,34,-19,101,-19c0,0,97,0,153,66c0,0,55,67,55,185V808H744V172c0,0,0,-141,4,-172H621c0,0,0,4,-1,20c0,0,-1,17,-2,38c0,0,-1,21,-3,80h-2C613,138,567,55,506,20c0,0,-61,-34,-151,-34Z" 
id="f0_2h"
transform="scale(0.001,-0.001)" />

<path d="M395,89c0,0,115,0,166,79c0,0,51,79,51,246c0,0,0,160,-51,235c0,0,-51,75,-164,75c0,0,-102,0,-147,-75c0,0,-45,-75,-45,-244c0,0,0,-170,45,-243c0,0,45,-73,145,-73ZM361,-14c0,0,-153,0,-225,102c0,0,-72,103,-72,312c0,0,0,422,297,422c0,0,92,0,153,-33c0,0,61,-34,98,-107h2l-2,90v335H747V166c0,0,0,-126,4,-166H623c0,0,-2,12,-5,55c0,0,-3,44,-3,75h-3c0,0,-37,-78,-98,-111c0,0,-62,-33,-153,-33Z" 
id="f0_20"
transform="scale(0.001,-0.001)" />

<path d="M140,0V163H285V0Z" 
id="f0_i"
transform="scale(0.001,-0.001)" />


</defs>
</svg>