<?xml version="1.0" encoding="UTF-8" standalone="no"?>
<!DOCTYPE svg PUBLIC "-//W3C//DTD SVG 1.1//EN"
"http://www.w3.org/Graphics/SVG/1.1/DTD/svg11.dtd">
<svg viewBox="0 0 734 1091" version="1.1" xmlns="http://www.w3.org/2000/svg" xmlns:xlink="http://www.w3.org/1999/xlink">
<defs>
</defs>
<g fill="#D4D4D4" fill-opacity="0.36" >
<use xlink:href="#f0_1f" transform="matrix(50.9,-50.9,50.9,50.9,123.1,814.1)" />
<use xlink:href="#f0_2a" transform="matrix(50.9,-50.9,50.9,50.9,183.6,753.6)" />
<use xlink:href="#f0_28" transform="matrix(50.9,-50.9,50.9,50.9,226.8,710.3)" />
<use xlink:href="#f0_25" transform="matrix(50.9,-50.9,50.9,50.9,244.1,693.1)" />
<use xlink:href="#f0_2a" transform="matrix(50.9,-50.9,50.9,50.9,261.4,675.8)" />
<use xlink:href="#f0_21" transform="matrix(50.9,-50.9,50.9,50.9,304.6,632.5)" />
<use xlink:href="#f0_2k" transform="matrix(50.9,-50.9,50.9,50.9,347.8,589.3)" />
<use xlink:href="#f0_1x" transform="matrix(50.9,-50.9,50.9,50.9,386.7,550.4)" />
<use xlink:href="#f0_29" transform="matrix(50.9,-50.9,50.9,50.9,430,507.2)" />
<use xlink:href="#f0_2c" transform="matrix(50.9,-50.9,50.9,50.9,494.8,442.4)" />
<use xlink:href="#f0_2b" transform="matrix(50.9,-50.9,50.9,50.9,538,399.1)" />
<use xlink:href="#f0_25" transform="matrix(50.9,-50.9,50.9,50.9,581.3,355.9)" />
<use xlink:href="#f0_2a" transform="matrix(50.9,-50.9,50.9,50.9,598.5,338.6)" />
<use xlink:href="#f0_2g" transform="matrix(50.9,-50.9,50.9,50.9,641.8,295.4)" />
</g>
<image preserveAspectRatio="none" x="73" y="87" width="321" height="26" xlink:href="img/1.png" />
<image preserveAspectRatio="none" x="73" y="112" width="321" height="26" xlink:href="img/2.png" />
<image preserveAspectRatio="none" x="73" y="137" width="321" height="25" xlink:href="img/3.png" />
<image preserveAspectRatio="none" x="73" y="162" width="321" height="25" xlink:href="img/4.png" />
<image preserveAspectRatio="none" x="73" y="187" width="321" height="25" xlink:href="img/5.png" />
<image preserveAspectRatio="none" x="73" y="212" width="321" height="25" xlink:href="img/6.png" />
<image preserveAspectRatio="none" x="73" y="237" width="321" height="25" xlink:href="img/7.png" />
<image preserveAspectRatio="none" x="73" y="261" width="321" height="26" xlink:href="img/8.png" />
<image preserveAspectRatio="none" x="73" y="286" width="321" height="25" xlink:href="img/9.png" />
<image preserveAspectRatio="none" x="73" y="311" width="321" height="25" xlink:href="img/10.png" />
<image preserveAspectRatio="none" x="73" y="336" width="321" height="25" xlink:href="img/11.png" />
<image preserveAspectRatio="none" x="73" y="361" width="321" height="25" xlink:href="img/12.png" />
<image preserveAspectRatio="none" x="73" y="385" width="321" height="26" xlink:href="img/13.png" />
<image preserveAspectRatio="none" x="73" y="410" width="321" height="25" xlink:href="img/14.png" />
<image preserveAspectRatio="none" x="73" y="435" width="321" height="25" xlink:href="img/15.png" />
<image preserveAspectRatio="none" x="73" y="460" width="321" height="25" xlink:href="img/16.png" />
<image preserveAspectRatio="none" x="73" y="485" width="321" height="25" xlink:href="img/17.png" />
<image preserveAspectRatio="none" x="73" y="510" width="321" height="25" xlink:href="img/18.png" />
<image preserveAspectRatio="none" x="73" y="534" width="321" height="26" xlink:href="img/19.png" />
<image preserveAspectRatio="none" x="73" y="559" width="321" height="25" xlink:href="img/20.png" />
<image preserveAspectRatio="none" x="73" y="584" width="321" height="25" xlink:href="img/21.png" />
<image preserveAspectRatio="none" x="73" y="609" width="321" height="25" xlink:href="img/22.png" />
<image preserveAspectRatio="none" x="73" y="634" width="321" height="25" xlink:href="img/23.png" />
<image preserveAspectRatio="none" x="73" y="659" width="321" height="25" xlink:href="img/24.png" />
<image preserveAspectRatio="none" x="73" y="683" width="321" height="26" xlink:href="img/25.png" />
<image preserveAspectRatio="none" x="73" y="708" width="321" height="26" xlink:href="img/26.png" />
<image preserveAspectRatio="none" x="73" y="733" width="321" height="25" xlink:href="img/27.png" />
<image preserveAspectRatio="none" x="73" y="758" width="321" height="25" xlink:href="img/28.png" />
<image preserveAspectRatio="none" x="73" y="783" width="321" height="25" xlink:href="img/29.png" />
<image preserveAspectRatio="none" x="73" y="808" width="321" height="25" xlink:href="img/30.png" />
<image preserveAspectRatio="none" x="73" y="833" width="321" height="25" xlink:href="img/31.png" />
<image preserveAspectRatio="none" x="73" y="857" width="321" height="21" xlink:href="img/32.png" />
<g fill="#000000" >
<use xlink:href="#f1_n" transform="matrix(12,0,0,12,656.3,1049.3)" />
</g>
<g fill="#0080FF" fill-opacity="0.5" >
<use xlink:href="#f0_1c" transform="matrix(38.3,0,0,38.3,183.7,1050)" />
<use xlink:href="#f0_21" transform="matrix(38.3,0,0,38.3,216.2,1050)" />
<use xlink:href="#f0_1x" transform="matrix(38.3,0,0,38.3,248.7,1050)" />
<use xlink:href="#f0_2e" transform="matrix(38.3,0,0,38.3,281.2,1050)" />
<use xlink:href="#f0_2a" transform="matrix(38.3,0,0,38.3,300.7,1050)" />
<use xlink:href="#f0_17" transform="matrix(38.3,0,0,38.3,333.3,1050)" />
<use xlink:href="#f0_2h" transform="matrix(38.3,0,0,38.3,378.8,1050)" />
<use xlink:href="#f0_25" transform="matrix(38.3,0,0,38.3,411.3,1050)" />
<use xlink:href="#f0_20" transform="matrix(38.3,0,0,38.3,424.3,1050)" />
<use xlink:href="#f0_21" transform="matrix(38.3,0,0,38.3,456.8,1050)" />
<use xlink:href="#f0_i" transform="matrix(38.3,0,0,38.3,489.3,1050)" />
<use xlink:href="#f0_25" transform="matrix(38.3,0,0,38.3,505.6,1050)" />
<use xlink:href="#f0_2a" transform="matrix(38.3,0,0,38.3,518.6,1050)" />
</g>
<defs>
<path d="M593,101c0,0,182,0,279,112c0,0,98,113,98,318c0,0,0,196,-98,308c0,0,-98,112,-277,112c0,0,-181,0,-279,-110c0,0,-99,-111,-99,-310c0,0,0,-198,100,-314c0,0,99,-116,276,-116Zm0,-115c0,0,-162,0,-279,65c0,0,-118,66,-180,190c0,0,-62,124,-62,290c0,0,0,252,138,394c0,0,138,142,385,142c0,0,160,0,278,-64c0,0,118,-64,180,-185c0,0,62,-122,62,-287c0,0,0,-165,-63,-289c0,0,-63,-124,-181,-190c0,0,-118,-66,-278,-66Z" 
id="f0_1f"
transform="scale(0.001,-0.001)" />

<path d="M106,0V635c0,0,0,141,-5,173H228c0,0,1,-4,2,-21c0,0,1,-16,2,-37c0,0,1,-22,2,-81h2c0,0,47,84,108,119c0,0,60,34,151,34c0,0,132,0,194,-66c0,0,61,-66,61,-218V0H615V512c0,0,0,80,-15,124c0,0,-16,44,-50,63c0,0,-35,20,-101,20c0,0,-97,0,-153,-67c0,0,-56,-66,-56,-184V0Z" 
id="f0_2a"
transform="scale(0.001,-0.001)" />

<path d="M103,0V1107H237V0Z" 
id="f0_28"
transform="scale(0.001,-0.001)" />

<path d="M102,0V808H236V0Zm0,979v128H236V979Z" 
id="f0_25"
transform="scale(0.001,-0.001)" />

<path d="M643,478c0,0,-11,128,-65,187c0,0,-54,59,-154,59c0,0,-98,0,-155,-66c0,0,-57,-65,-62,-180ZM431,-14c0,0,-179,0,-272,106c0,0,-94,107,-94,317c0,0,0,200,94,307c0,0,93,106,267,106c0,0,356,0,356,-429V375H206c0,0,0,-138,57,-213c0,0,58,-75,168,-75c0,0,87,0,140,35c0,0,53,35,71,88L760,177c0,0,-72,-191,-329,-191Z" 
id="f0_21"
transform="scale(0.001,-0.001)" />

<path d="M17,0L304,415L31,808H179L380,493L580,808H730L457,417L747,0H598L380,331L162,0Z" 
id="f0_2k"
transform="scale(0.001,-0.001)" />

<path d="M339,87c0,0,74,0,132,34c0,0,57,33,90,91c0,0,34,59,34,121v66L448,396c0,0,-95,-2,-144,-19c0,0,-49,-18,-75,-55c0,0,-26,-38,-26,-98c0,0,0,-65,35,-101c0,0,36,-36,101,-36ZM309,-14c0,0,-122,0,-183,64c0,0,-61,64,-61,176c0,0,0,125,82,192c0,0,83,67,266,72l182,3v44c0,0,0,98,-42,141c0,0,-42,43,-132,43c0,0,-90,0,-131,-31c0,0,-41,-31,-49,-98L101,604c0,0,34,218,323,218c0,0,153,0,229,-70c0,0,77,-69,77,-202V202c0,0,0,-59,16,-90c0,0,16,-30,60,-30c0,0,19,0,44,5V4C850,4,799,-7,746,-7c0,0,-75,0,-109,38c0,0,-33,40,-38,124h-4C595,155,543,62,475,24c0,0,-68,-38,-166,-38Z" 
id="f0_1x"
transform="scale(0.001,-0.001)" />

<path d="M106,0V635c0,0,0,141,-5,173H228c0,0,1,-4,2,-21c0,0,1,-16,2,-37c0,0,1,-22,2,-81h2c0,0,44,86,100,120c0,0,56,33,136,33c0,0,92,0,145,-36c0,0,54,-37,75,-117h2c0,0,42,82,101,117c0,0,59,36,143,36c0,0,123,0,178,-66c0,0,56,-67,56,-218V0H1039V512c0,0,0,117,-32,162c0,0,-32,45,-116,45c0,0,-88,0,-136,-66c0,0,-49,-65,-49,-185V0H573V512c0,0,0,117,-32,162c0,0,-32,45,-116,45c0,0,-86,0,-136,-66c0,0,-50,-66,-50,-185V0Z" 
id="f0_29"
transform="scale(0.001,-0.001)" />

<path d="M453,84c0,0,100,0,146,74c0,0,46,73,46,247c0,0,0,169,-46,241c0,0,-45,73,-145,73c0,0,-80,0,-125,-34c0,0,-45,-34,-68,-105c0,0,-24,-71,-24,-186c0,0,0,-159,51,-234c0,0,51,-76,165,-76ZM103,-316V643c0,0,0,124,-5,165H228c0,0,1,-3,3,-22c0,0,1,-18,3,-56c0,0,2,-38,2,-52h3c0,0,36,75,94,110c0,0,59,34,156,34c0,0,149,0,223,-100c0,0,74,-100,74,-314c0,0,0,-422,-297,-422c0,0,-187,0,-251,140h-4c0,0,3,-6,3,-126V-316Z" 
id="f0_2c"
transform="scale(0.001,-0.001)" />

<path d="M420,84c0,0,121,0,173,78c0,0,52,77,52,243c0,0,0,167,-50,243c0,0,-50,76,-167,76c0,0,-118,0,-170,-78c0,0,-53,-77,-53,-241c0,0,0,-160,52,-241c0,0,52,-80,163,-80Zm1,-98c0,0,-176,0,-267,107c0,0,-90,108,-90,312c0,0,0,417,362,417c0,0,185,0,272,-102c0,0,88,-101,88,-315c0,0,0,-212,-94,-316C692,89,599,-14,421,-14Z" 
id="f0_2b"
transform="scale(0.001,-0.001)" />

<path d="M278,-11c0,0,-162,0,-162,182V710H23v98h99l39,181h90V808H400V710H251V200c0,0,0,-58,19,-82c0,0,19,-23,66,-23c0,0,27,0,77,10V6c0,0,-66,-17,-135,-17Z" 
id="f0_2g"
transform="scale(0.001,-0.001)" />

<path d="M412,-18c0,0,-144,0,-239,85c0,0,-95,86,-108,222l133,18c0,0,24,-114,79,-164c0,0,55,-50,135,-50c0,0,96,0,161,65c0,0,65,66,65,163c0,0,0,92,-61,152c0,0,-60,60,-153,60c0,0,-38,0,-95,-15l15,119c0,0,13,-2,21,-2c0,0,86,0,155,45c0,0,69,44,69,137c0,0,0,74,-50,122c0,0,-50,49,-129,49c0,0,-79,0,-131,-50c0,0,-52,-49,-67,-147L78,815c0,0,25,135,112,209c0,0,87,74,217,74c0,0,89,0,164,-38c0,0,76,-39,116,-105c0,0,40,-66,40,-141c0,0,0,-70,-39,-129c0,0,-38,-58,-112,-92c0,0,97,-22,151,-93c0,0,53,-70,53,-176c0,0,0,-143,-104,-243c0,0,-105,-99,-264,-99Z" 
id="f1_n"
transform="scale(0.001,-0.001)" />

<path d="M125,0V1051H268V115H799V0Z" 
id="f0_1c"
transform="scale(0.001,-0.001)" />

<path d="M106,0V620c0,0,0,85,-5,188H228c0,0,6,-138,6,-165h3c0,0,32,103,74,141c0,0,42,38,118,38c0,0,27,0,54,-7V692c0,0,-26,7,-71,7c0,0,-84,0,-128,-72c0,0,-44,-72,-44,-206V0Z" 
id="f0_2e"
transform="scale(0.001,-0.001)" />

<path d="M606,-14c0,0,-164,0,-284,65c0,0,-119,66,-182,189c0,0,-63,123,-63,291c0,0,0,255,137,396c0,0,137,140,386,140c0,0,174,0,283,-59c0,0,109,-59,168,-189L915,779c0,0,-44,90,-123,131c0,0,-79,41,-196,41c0,0,-182,0,-278,-110c0,0,-96,-110,-96,-310c0,0,0,-200,102,-315c0,0,102,-115,282,-115c0,0,103,0,193,31c0,0,89,31,144,85V407H629V526h445V164c0,0,-83,-85,-205,-132c0,0,-121,-46,-263,-46Z" 
id="f0_17"
transform="scale(0.001,-0.001)" />

<path d="M355,-14c0,0,-133,0,-194,65c0,0,-62,66,-62,219V808H234V296c0,0,0,-80,16,-124c0,0,16,-44,50,-64c0,0,34,-19,101,-19c0,0,97,0,153,66c0,0,55,67,55,185V808H744V172c0,0,0,-141,4,-172H621c0,0,0,4,-1,20c0,0,-1,17,-2,38c0,0,-1,21,-3,80h-2C613,138,567,55,506,20c0,0,-61,-34,-151,-34Z" 
id="f0_2h"
transform="scale(0.001,-0.001)" />

<path d="M395,89c0,0,115,0,166,79c0,0,51,79,51,246c0,0,0,160,-51,235c0,0,-51,75,-164,75c0,0,-102,0,-147,-75c0,0,-45,-75,-45,-244c0,0,0,-170,45,-243c0,0,45,-73,145,-73ZM361,-14c0,0,-153,0,-225,102c0,0,-72,103,-72,312c0,0,0,422,297,422c0,0,92,0,153,-33c0,0,61,-34,98,-107h2l-2,90v335H747V166c0,0,0,-126,4,-166H623c0,0,-2,12,-5,55c0,0,-3,44,-3,75h-3c0,0,-37,-78,-98,-111c0,0,-62,-33,-153,-33Z" 
id="f0_20"
transform="scale(0.001,-0.001)" />

<path d="M140,0V163H285V0Z" 
id="f0_i"
transform="scale(0.001,-0.001)" />


</defs>
</svg>