<?xml version="1.0" encoding="UTF-8" standalone="no"?>
<!DOCTYPE svg PUBLIC "-//W3C//DTD SVG 1.1//EN"
"http://www.w3.org/Graphics/SVG/1.1/DTD/svg11.dtd">
<svg viewBox="0 0 726 1074" version="1.1" xmlns="http://www.w3.org/2000/svg" xmlns:xlink="http://www.w3.org/1999/xlink">
<defs>
<clipPath id="c0_2"><path d="M103.3,656.8V639H373.9v17.8Z" /></clipPath>
<style type="text/css"><![CDATA[
.g0_2{
}
]]></style>
</defs>
<g fill="#D4D4D4" fill-opacity="0.36" >
<use xlink:href="#f0_1f" transform="matrix(50.9,-50.9,50.9,50.9,114.6,814.1)" />
<use xlink:href="#f0_2a" transform="matrix(50.9,-50.9,50.9,50.9,175.1,753.6)" />
<use xlink:href="#f0_28" transform="matrix(50.9,-50.9,50.9,50.9,218.4,710.3)" />
<use xlink:href="#f0_25" transform="matrix(50.9,-50.9,50.9,50.9,235.6,693.1)" />
<use xlink:href="#f0_2a" transform="matrix(50.9,-50.9,50.9,50.9,252.9,675.8)" />
<use xlink:href="#f0_21" transform="matrix(50.9,-50.9,50.9,50.9,296.1,632.5)" />
<use xlink:href="#f0_2k" transform="matrix(50.9,-50.9,50.9,50.9,339.4,589.3)" />
<use xlink:href="#f0_1x" transform="matrix(50.9,-50.9,50.9,50.9,378.3,550.4)" />
<use xlink:href="#f0_29" transform="matrix(50.9,-50.9,50.9,50.9,421.5,507.2)" />
<use xlink:href="#f0_2c" transform="matrix(50.9,-50.9,50.9,50.9,486.3,442.4)" />
<use xlink:href="#f0_2b" transform="matrix(50.9,-50.9,50.9,50.9,529.6,399.1)" />
<use xlink:href="#f0_25" transform="matrix(50.9,-50.9,50.9,50.9,572.8,355.9)" />
<use xlink:href="#f0_2a" transform="matrix(50.9,-50.9,50.9,50.9,590.1,338.6)" />
<use xlink:href="#f0_2g" transform="matrix(50.9,-50.9,50.9,50.9,633.3,295.4)" />
</g>
<path fill-rule="evenodd" d="M60,228.9H639.4v1.5H60v-1.5Z" class="g0_2" />
<g fill="#000000" >
<use xlink:href="#f1_13" transform="matrix(14,0,0,14,293.8,168.8)" />
<use xlink:href="#f1_24" transform="matrix(14,0,0,14,309.3,168.8)" />
<use xlink:href="#f1_1x" transform="matrix(14,0,0,14,322.4,168.8)" />
<use xlink:href="#f1_2c" transform="matrix(14,0,0,14,334.3,168.8)" />
<use xlink:href="#f1_2g" transform="matrix(14,0,0,14,347.4,168.8)" />
<use xlink:href="#f1_21" transform="matrix(14,0,0,14,354.5,168.8)" />
<use xlink:href="#f1_2e" transform="matrix(14,0,0,14,366.4,168.8)" />
<use xlink:href="#f2_h" transform="matrix(14,0,0,14,380.7,168.8)" />
<use xlink:href="#f2_l" transform="matrix(14,0,0,14,393.8,168.8)" />
<use xlink:href="#f2_1k" transform="matrix(16,0,0,16,242.6,221.2)" />
<use xlink:href="#f2_18" transform="matrix(16,0,0,16,257.5,221.2)" />
<use xlink:href="#f2_15" transform="matrix(16,0,0,16,275.1,221.2)" />
<use xlink:href="#f2_1j" transform="matrix(16,0,0,16,299.1,221.2)" />
<use xlink:href="#f2_1f" transform="matrix(16,0,0,16,315.4,221.2)" />
<use xlink:href="#f2_1c" transform="matrix(16,0,0,16,334.3,221.2)" />
<use xlink:href="#f2_19" transform="matrix(16,0,0,16,349.1,221.2)" />
<use xlink:href="#f2_14" transform="matrix(16,0,0,16,355.9,221.2)" />
<use xlink:href="#f2_1j" transform="matrix(16,0,0,16,381.4,221.2)" />
<use xlink:href="#f2_1k" transform="matrix(16,0,0,16,397.7,221.2)" />
<use xlink:href="#f2_11" transform="matrix(16,0,0,16,410.8,221.2)" />
<use xlink:href="#f2_1k" transform="matrix(16,0,0,16,425.8,221.2)" />
<use xlink:href="#f2_15" transform="matrix(16,0,0,16,440.6,221.2)" />
<use xlink:href="#f2_1h" transform="matrix(11,0,0,11,298.2,273.1)" />
<use xlink:href="#f2_1l" transform="matrix(11,0,0,11,311.9,273.1)" />
<use xlink:href="#f2_15" transform="matrix(11,0,0,11,324.6,273.1)" />
<use xlink:href="#f2_1j" transform="matrix(11,0,0,11,336.3,273.1)" />
<use xlink:href="#f2_1k" transform="matrix(11,0,0,11,347.8,273.1)" />
<use xlink:href="#f2_19" transform="matrix(11,0,0,11,358.5,273.1)" />
<use xlink:href="#f2_1f" transform="matrix(11,0,0,11,363.8,273.1)" />
<use xlink:href="#f2_1e" transform="matrix(11,0,0,11,377.5,273.1)" />
<use xlink:href="#f2_1j" transform="matrix(11,0,0,11,390.1,273.1)" />
<use xlink:href="#f2_1m" transform="matrix(11,0,0,11,177.7,311.6)" />
<use xlink:href="#f2_1j" transform="matrix(11,0,0,11,188.9,311.6)" />
<use xlink:href="#f2_11" transform="matrix(11,0,0,11,200.1,311.6)" />
<use xlink:href="#f2_1h" transform="matrix(11,0,0,11,220.6,311.6)" />
<use xlink:href="#f2_1l" transform="matrix(11,0,0,11,233.8,311.6)" />
<use xlink:href="#f2_15" transform="matrix(11,0,0,11,245.9,311.6)" />
<use xlink:href="#f2_1j" transform="matrix(11,0,0,11,257.1,311.6)" />
<use xlink:href="#f2_1k" transform="matrix(11,0,0,11,268.2,311.6)" />
<use xlink:href="#f2_19" transform="matrix(11,0,0,11,278.3,311.6)" />
<use xlink:href="#f2_1f" transform="matrix(11,0,0,11,283.1,311.6)" />
<use xlink:href="#f2_1e" transform="matrix(11,0,0,11,296.3,311.6)" />
<use xlink:href="#f2_1j" transform="matrix(11,0,0,11,308.4,311.6)" />
<use xlink:href="#f2_c" transform="matrix(11,0,0,11,328.7,311.6)" />
<use xlink:href="#f2_l" transform="matrix(11,0,0,11,334.4,311.6)" />
<use xlink:href="#f2_h" transform="matrix(11,0,0,11,348.1,311.6)" />
<use xlink:href="#f2_1d" transform="matrix(11,0,0,11,358,311.6)" />
<use xlink:href="#f2_11" transform="matrix(11,0,0,11,372.1,311.6)" />
<use xlink:href="#f2_1i" transform="matrix(11,0,0,11,383.6,311.6)" />
<use xlink:href="#f2_1b" transform="matrix(11,0,0,11,395.7,311.6)" />
<use xlink:href="#f2_1h" transform="matrix(11,0,0,11,416.8,311.6)" />
<use xlink:href="#f2_1l" transform="matrix(11,0,0,11,430,311.6)" />
<use xlink:href="#f2_15" transform="matrix(11,0,0,11,442,311.6)" />
<use xlink:href="#f2_1j" transform="matrix(11,0,0,11,453.2,311.6)" />
<use xlink:href="#f2_1k" transform="matrix(11,0,0,11,464.4,311.6)" />
<use xlink:href="#f2_19" transform="matrix(11,0,0,11,474.5,311.6)" />
<use xlink:href="#f2_1f" transform="matrix(11,0,0,11,479.2,311.6)" />
<use xlink:href="#f2_1e" transform="matrix(11,0,0,11,492.4,311.6)" />
<use xlink:href="#f2_1j" transform="matrix(11,0,0,11,504.5,311.6)" />
<use xlink:href="#f2_d" transform="matrix(11,0,0,11,515.7,311.6)" />
<use xlink:href="#f3_l" transform="matrix(10.4,0,0,10.4,60,341.1)" />
<use xlink:href="#f3_i" transform="matrix(10.4,0,0,10.4,69.4,341.1)" />
<use xlink:href="#f3_1n" transform="matrix(10.4,0,0,10.4,103.3,341.1)" />
<use xlink:href="#f3_24" transform="matrix(10.4,0,0,10.4,119.3,341.1)" />
<use xlink:href="#f3_1x" transform="matrix(10.4,0,0,10.4,128.1,341.1)" />
<use xlink:href="#f3_2g" transform="matrix(10.4,0,0,10.4,136.9,341.1)" />
<use xlink:href="#f3_1x" transform="matrix(10.4,0,0,10.4,149.7,341.1)" />
<use xlink:href="#f3_2e" transform="matrix(10.4,0,0,10.4,158.5,341.1)" />
<use xlink:href="#f3_21" transform="matrix(10.4,0,0,10.4,163.8,341.1)" />
<use xlink:href="#f3_1x" transform="matrix(10.4,0,0,10.4,181.2,341.1)" />
<use xlink:href="#f3_2a" transform="matrix(10.4,0,0,10.4,190,341.1)" />
<use xlink:href="#f3_25" transform="matrix(10.4,0,0,10.4,198.8,341.1)" />
<use xlink:href="#f3_2f" transform="matrix(10.4,0,0,10.4,202.3,341.1)" />
<use xlink:href="#f3_2g" transform="matrix(10.4,0,0,10.4,210.4,341.1)" />
<use xlink:href="#f3_2e" transform="matrix(10.4,0,0,10.4,214.8,341.1)" />
<use xlink:href="#f3_2b" transform="matrix(10.4,0,0,10.4,220.1,341.1)" />
<use xlink:href="#f3_2c" transform="matrix(10.4,0,0,10.4,228.9,341.1)" />
<use xlink:href="#f3_25" transform="matrix(10.4,0,0,10.4,237.7,341.1)" />
<use xlink:href="#f3_1z" transform="matrix(10.4,0,0,10.4,241.2,341.1)" />
<use xlink:href="#f3_2f" transform="matrix(10.4,0,0,10.4,257.7,341.1)" />
<use xlink:href="#f3_2h" transform="matrix(10.4,0,0,10.4,265.7,341.1)" />
<use xlink:href="#f3_1y" transform="matrix(10.4,0,0,10.4,274.5,341.1)" />
<use xlink:href="#f3_2f" transform="matrix(10.4,0,0,10.4,283.3,341.1)" />
<use xlink:href="#f3_2g" transform="matrix(10.4,0,0,10.4,291.4,341.1)" />
<use xlink:href="#f3_1x" transform="matrix(10.4,0,0,10.4,295.8,341.1)" />
<use xlink:href="#f3_2a" transform="matrix(10.4,0,0,10.4,304.6,341.1)" />
<use xlink:href="#f3_1z" transform="matrix(10.4,0,0,10.4,313.4,341.1)" />
<use xlink:href="#f3_21" transform="matrix(10.4,0,0,10.4,321.5,341.1)" />
<use xlink:href="#f3_2f" transform="matrix(10.4,0,0,10.4,330.3,341.1)" />
<use xlink:href="#f3_i" transform="matrix(10.4,0,0,10.4,338.3,341.1)" />
<use xlink:href="#f3_m" transform="matrix(10.4,0,0,10.4,60,371.2)" />
<use xlink:href="#f3_i" transform="matrix(10.4,0,0,10.4,69.4,371.2)" />
<use xlink:href="#f3_1n" transform="matrix(10.4,0,0,10.4,103.3,371.2)" />
<use xlink:href="#f3_24" transform="matrix(10.4,0,0,10.4,119.3,371.2)" />
<use xlink:href="#f3_2l" transform="matrix(10.4,0,0,10.4,128.1,371.2)" />
<use xlink:href="#f3_1x" transform="matrix(10.4,0,0,10.4,143.6,371.2)" />
<use xlink:href="#f3_2e" transform="matrix(10.4,0,0,10.4,152.4,371.2)" />
<use xlink:href="#f3_21" transform="matrix(10.4,0,0,10.4,157.8,371.2)" />
<use xlink:href="#f3_1x" transform="matrix(10.4,0,0,10.4,174.6,371.2)" />
<use xlink:href="#f3_29" transform="matrix(10.4,0,0,10.4,183.4,371.2)" />
<use xlink:href="#f3_2b" transform="matrix(10.4,0,0,10.4,197,371.2)" />
<use xlink:href="#f3_2e" transform="matrix(10.4,0,0,10.4,205.8,371.2)" />
<use xlink:href="#f3_2c" transform="matrix(10.4,0,0,10.4,211.1,371.2)" />
<use xlink:href="#f3_24" transform="matrix(10.4,0,0,10.4,219.9,371.2)" />
<use xlink:href="#f3_2b" transform="matrix(10.4,0,0,10.4,228.7,371.2)" />
<use xlink:href="#f3_2h" transform="matrix(10.4,0,0,10.4,237.5,371.2)" />
<use xlink:href="#f3_2f" transform="matrix(10.4,0,0,10.4,246.3,371.2)" />
<use xlink:href="#f3_2f" transform="matrix(10.4,0,0,10.4,262.4,371.2)" />
<use xlink:href="#f3_2b" transform="matrix(10.4,0,0,10.4,270.5,371.2)" />
<use xlink:href="#f3_28" transform="matrix(10.4,0,0,10.4,279.3,371.2)" />
<use xlink:href="#f3_25" transform="matrix(10.4,0,0,10.4,282.8,371.2)" />
<use xlink:href="#f3_20" transform="matrix(10.4,0,0,10.4,286.3,371.2)" />
<use xlink:href="#f3_2f" transform="matrix(10.4,0,0,10.4,295.1,371.2)" />
<use xlink:href="#f3_25" transform="matrix(10.4,0,0,10.4,311.4,371.2)" />
<use xlink:href="#f3_2f" transform="matrix(10.4,0,0,10.4,314.9,371.2)" />
<use xlink:href="#f3_2b" transform="matrix(10.4,0,0,10.4,322.9,371.2)" />
<use xlink:href="#f3_2g" transform="matrix(10.4,0,0,10.4,331.7,371.2)" />
<use xlink:href="#f3_2e" transform="matrix(10.4,0,0,10.4,336.1,371.2)" />
<use xlink:href="#f3_2b" transform="matrix(10.4,0,0,10.4,341.4,371.2)" />
<use xlink:href="#f3_2c" transform="matrix(10.4,0,0,10.4,350.2,371.2)" />
<use xlink:href="#f3_25" transform="matrix(10.4,0,0,10.4,359,371.2)" />
<use xlink:href="#f3_1z" transform="matrix(10.4,0,0,10.4,362.5,371.2)" />
<use xlink:href="#f3_25" transform="matrix(10.4,0,0,10.4,378.6,371.2)" />
<use xlink:href="#f3_2a" transform="matrix(10.4,0,0,10.4,382.1,371.2)" />
<use xlink:href="#f3_2a" transform="matrix(10.4,0,0,10.4,399,371.2)" />
<use xlink:href="#f3_1x" transform="matrix(10.4,0,0,10.4,407.8,371.2)" />
<use xlink:href="#f3_2g" transform="matrix(10.4,0,0,10.4,416.6,371.2)" />
<use xlink:href="#f3_2h" transform="matrix(10.4,0,0,10.4,421,371.2)" />
<use xlink:href="#f3_2e" transform="matrix(10.4,0,0,10.4,429.8,371.2)" />
<use xlink:href="#f3_21" transform="matrix(10.4,0,0,10.4,435.1,371.2)" />
<use xlink:href="#f3_z" transform="matrix(10.4,0,0,10.4,443.9,371.2)" />
<use xlink:href="#f3_n" transform="matrix(10.4,0,0,10.4,60,401.2)" />
<use xlink:href="#f3_i" transform="matrix(10.4,0,0,10.4,69.4,401.2)" />
<use xlink:href="#f3_1n" transform="matrix(10.4,0,0,10.4,103.3,401.2)" />
<use xlink:href="#f3_24" transform="matrix(10.4,0,0,10.4,119.3,401.2)" />
<use xlink:href="#f3_2l" transform="matrix(10.4,0,0,10.4,128.1,401.2)" />
<use xlink:href="#f3_23" transform="matrix(10.4,0,0,10.4,143.5,401.2)" />
<use xlink:href="#f3_28" transform="matrix(10.4,0,0,10.4,152.3,401.2)" />
<use xlink:href="#f3_1x" transform="matrix(10.4,0,0,10.4,155.7,401.2)" />
<use xlink:href="#f3_2f" transform="matrix(10.4,0,0,10.4,164.5,401.2)" />
<use xlink:href="#f3_2f" transform="matrix(10.4,0,0,10.4,172.6,401.2)" />
<use xlink:href="#f3_25" transform="matrix(10.4,0,0,10.4,188.6,401.2)" />
<use xlink:href="#f3_2f" transform="matrix(10.4,0,0,10.4,192,401.2)" />
<use xlink:href="#f3_2e" transform="matrix(10.4,0,0,10.4,208,401.2)" />
<use xlink:href="#f3_21" transform="matrix(10.4,0,0,10.4,213.3,401.2)" />
<use xlink:href="#f3_23" transform="matrix(10.4,0,0,10.4,222.1,401.2)" />
<use xlink:href="#f3_1x" transform="matrix(10.4,0,0,10.4,230.9,401.2)" />
<use xlink:href="#f3_2e" transform="matrix(10.4,0,0,10.4,239.7,401.2)" />
<use xlink:href="#f3_20" transform="matrix(10.4,0,0,10.4,245,401.2)" />
<use xlink:href="#f3_21" transform="matrix(10.4,0,0,10.4,253.8,401.2)" />
<use xlink:href="#f3_20" transform="matrix(10.4,0,0,10.4,262.6,401.2)" />
<use xlink:href="#f3_1x" transform="matrix(10.4,0,0,10.4,279.3,401.2)" />
<use xlink:href="#f3_2f" transform="matrix(10.4,0,0,10.4,288.1,401.2)" />
<use xlink:href="#f3_1x" transform="matrix(10.4,0,0,10.4,304,401.2)" />
<use xlink:href="#f3_2a" transform="matrix(10.4,0,0,10.4,312.8,401.2)" />
<use xlink:href="#f3_1x" transform="matrix(10.4,0,0,10.4,329.5,401.2)" />
<use xlink:href="#f3_29" transform="matrix(10.4,0,0,10.4,338.3,401.2)" />
<use xlink:href="#f3_2b" transform="matrix(10.4,0,0,10.4,351.9,401.2)" />
<use xlink:href="#f3_2e" transform="matrix(10.4,0,0,10.4,360.7,401.2)" />
<use xlink:href="#f3_2c" transform="matrix(10.4,0,0,10.4,366,401.2)" />
<use xlink:href="#f3_24" transform="matrix(10.4,0,0,10.4,374.8,401.2)" />
<use xlink:href="#f3_2b" transform="matrix(10.4,0,0,10.4,383.6,401.2)" />
<use xlink:href="#f3_2h" transform="matrix(10.4,0,0,10.4,392.4,401.2)" />
<use xlink:href="#f3_2f" transform="matrix(10.4,0,0,10.4,401.2,401.2)" />
<use xlink:href="#f3_2f" transform="matrix(10.4,0,0,10.4,417.1,401.2)" />
<use xlink:href="#f3_2b" transform="matrix(10.4,0,0,10.4,425.2,401.2)" />
<use xlink:href="#f3_28" transform="matrix(10.4,0,0,10.4,434,401.2)" />
<use xlink:href="#f3_25" transform="matrix(10.4,0,0,10.4,437.5,401.2)" />
<use xlink:href="#f3_20" transform="matrix(10.4,0,0,10.4,441,401.2)" />
<use xlink:href="#f3_z" transform="matrix(10.4,0,0,10.4,449.8,401.2)" />
<use xlink:href="#f3_o" transform="matrix(10.4,0,0,10.4,60,431.3)" />
<use xlink:href="#f3_i" transform="matrix(10.4,0,0,10.4,69.4,431.3)" />
<use xlink:href="#f3_14" transform="matrix(10.4,0,0,10.4,103.3,431.3)" />
<use xlink:href="#f3_21" transform="matrix(10.4,0,0,10.4,114.9,431.3)" />
<use xlink:href="#f3_22" transform="matrix(10.4,0,0,10.4,123.7,431.3)" />
<use xlink:href="#f3_25" transform="matrix(10.4,0,0,10.4,128.2,431.3)" />
<use xlink:href="#f3_2a" transform="matrix(10.4,0,0,10.4,131.7,431.3)" />
<use xlink:href="#f3_21" transform="matrix(10.4,0,0,10.4,140.5,431.3)" />
<use xlink:href="#f3_2g" transform="matrix(10.4,0,0,10.4,157.4,431.3)" />
<use xlink:href="#f3_24" transform="matrix(10.4,0,0,10.4,161.8,431.3)" />
<use xlink:href="#f3_21" transform="matrix(10.4,0,0,10.4,170.6,431.3)" />
<use xlink:href="#f3_2g" transform="matrix(10.4,0,0,10.4,187.3,431.3)" />
<use xlink:href="#f3_21" transform="matrix(10.4,0,0,10.4,191.7,431.3)" />
<use xlink:href="#f3_2e" transform="matrix(10.4,0,0,10.4,200.5,431.3)" />
<use xlink:href="#f3_29" transform="matrix(10.4,0,0,10.4,205.8,431.3)" />
<use xlink:href="#f3_b" transform="matrix(10.4,0,0,10.4,227.4,431.3)" />
<use xlink:href="#f3_1z" transform="matrix(10.4,0,0,10.4,230.5,431.3)" />
<use xlink:href="#f3_2e" transform="matrix(10.4,0,0,10.4,238.6,431.3)" />
<use xlink:href="#f3_2l" transform="matrix(10.4,0,0,10.4,243.9,431.3)" />
<use xlink:href="#f3_2f" transform="matrix(10.4,0,0,10.4,251.4,431.3)" />
<use xlink:href="#f3_2g" transform="matrix(10.4,0,0,10.4,259.5,431.3)" />
<use xlink:href="#f3_1x" transform="matrix(10.4,0,0,10.4,263.9,431.3)" />
<use xlink:href="#f3_28" transform="matrix(10.4,0,0,10.4,272.7,431.3)" />
<use xlink:href="#f3_28" transform="matrix(10.4,0,0,10.4,284.2,431.3)" />
<use xlink:href="#f3_1x" transform="matrix(10.4,0,0,10.4,287.7,431.3)" />
<use xlink:href="#f3_2g" transform="matrix(10.4,0,0,10.4,296.5,431.3)" />
<use xlink:href="#f3_2g" transform="matrix(10.4,0,0,10.4,300.9,431.3)" />
<use xlink:href="#f3_25" transform="matrix(10.4,0,0,10.4,305.3,431.3)" />
<use xlink:href="#f3_1z" transform="matrix(10.4,0,0,10.4,308.8,431.3)" />
<use xlink:href="#f3_21" transform="matrix(10.4,0,0,10.4,316.9,431.3)" />
<use xlink:href="#f3_i" transform="matrix(10.4,0,0,10.4,325.7,431.3)" />
<use xlink:href="#f3_1k5" transform="matrix(10.4,0,0,10.4,330.1,431.3)" />
<use xlink:href="#f3_s" transform="matrix(10.4,0,0,10.4,60,461.2)" />
<use xlink:href="#f3_i" transform="matrix(10.4,0,0,10.4,69.4,461.2)" />
<use xlink:href="#f3_14" transform="matrix(10.4,0,0,10.4,103.3,461.2)" />
<use xlink:href="#f3_21" transform="matrix(10.4,0,0,10.4,114.9,461.2)" />
<use xlink:href="#f3_22" transform="matrix(10.4,0,0,10.4,123.7,461.2)" />
<use xlink:href="#f3_25" transform="matrix(10.4,0,0,10.4,128.2,461.2)" />
<use xlink:href="#f3_2a" transform="matrix(10.4,0,0,10.4,131.7,461.2)" />
<use xlink:href="#f3_21" transform="matrix(10.4,0,0,10.4,140.5,461.2)" />
<use xlink:href="#f3_2g" transform="matrix(10.4,0,0,10.4,157.2,461.2)" />
<use xlink:href="#f3_24" transform="matrix(10.4,0,0,10.4,161.6,461.2)" />
<use xlink:href="#f3_21" transform="matrix(10.4,0,0,10.4,170.4,461.2)" />
<use xlink:href="#f3_2g" transform="matrix(10.4,0,0,10.4,186.9,461.2)" />
<use xlink:href="#f3_21" transform="matrix(10.4,0,0,10.4,191.3,461.2)" />
<use xlink:href="#f3_2e" transform="matrix(10.4,0,0,10.4,200.1,461.2)" />
<use xlink:href="#f3_29" transform="matrix(10.4,0,0,10.4,205.4,461.2)" />
<use xlink:href="#f3_2i" transform="matrix(10.4,0,0,10.4,226.9,461.2)" />
<use xlink:href="#f3_2b" transform="matrix(10.4,0,0,10.4,234.8,461.2)" />
<use xlink:href="#f3_25" transform="matrix(10.4,0,0,10.4,243.5,461.2)" />
<use xlink:href="#f3_20" transform="matrix(10.4,0,0,10.4,247,461.2)" />
<use xlink:href="#f3_2f" transform="matrix(10.4,0,0,10.4,255.8,461.2)" />
<use xlink:href="#f3_i" transform="matrix(10.4,0,0,10.4,263.9,461.2)" />
<use xlink:href="#f3_t" transform="matrix(10.4,0,0,10.4,60,491.3)" />
<use xlink:href="#f3_i" transform="matrix(10.4,0,0,10.4,69.4,491.3)" />
<use xlink:href="#f3_1n" transform="matrix(10.4,0,0,10.4,103.3,491.3)" />
<use xlink:href="#f3_24" transform="matrix(10.4,0,0,10.4,119.3,491.3)" />
<use xlink:href="#f3_1x" transform="matrix(10.4,0,0,10.4,128.1,491.3)" />
<use xlink:href="#f3_2g" transform="matrix(10.4,0,0,10.4,136.9,491.3)" />
<use xlink:href="#f3_2g" transform="matrix(10.4,0,0,10.4,148.8,491.3)" />
<use xlink:href="#f3_2l" transform="matrix(10.4,0,0,10.4,153.2,491.3)" />
<use xlink:href="#f3_2c" transform="matrix(10.4,0,0,10.4,160.7,491.3)" />
<use xlink:href="#f3_21" transform="matrix(10.4,0,0,10.4,169.5,491.3)" />
<use xlink:href="#f3_2b" transform="matrix(10.4,0,0,10.4,185.6,491.3)" />
<use xlink:href="#f3_22" transform="matrix(10.4,0,0,10.4,194.4,491.3)" />
<use xlink:href="#f3_2f" transform="matrix(10.4,0,0,10.4,206.5,491.3)" />
<use xlink:href="#f3_2g" transform="matrix(10.4,0,0,10.4,214.6,491.3)" />
<use xlink:href="#f3_2b" transform="matrix(10.4,0,0,10.4,219,491.3)" />
<use xlink:href="#f3_1z" transform="matrix(10.4,0,0,10.4,227.8,491.3)" />
<use xlink:href="#f3_24" transform="matrix(10.4,0,0,10.4,235.8,491.3)" />
<use xlink:href="#f3_25" transform="matrix(10.4,0,0,10.4,244.6,491.3)" />
<use xlink:href="#f3_2b" transform="matrix(10.4,0,0,10.4,248.1,491.3)" />
<use xlink:href="#f3_29" transform="matrix(10.4,0,0,10.4,256.9,491.3)" />
<use xlink:href="#f3_21" transform="matrix(10.4,0,0,10.4,270.5,491.3)" />
<use xlink:href="#f3_2g" transform="matrix(10.4,0,0,10.4,279.3,491.3)" />
<use xlink:href="#f3_2e" transform="matrix(10.4,0,0,10.4,283.7,491.3)" />
<use xlink:href="#f3_25" transform="matrix(10.4,0,0,10.4,289,491.3)" />
<use xlink:href="#f3_1z" transform="matrix(10.4,0,0,10.4,292.5,491.3)" />
<use xlink:href="#f3_20" transform="matrix(10.4,0,0,10.4,308.1,491.3)" />
<use xlink:href="#f3_21" transform="matrix(10.4,0,0,10.4,316.9,491.3)" />
<use xlink:href="#f3_22" transform="matrix(10.4,0,0,10.4,325.7,491.3)" />
<use xlink:href="#f3_21" transform="matrix(10.4,0,0,10.4,330.3,491.3)" />
<use xlink:href="#f3_1z" transform="matrix(10.4,0,0,10.4,339.1,491.3)" />
<use xlink:href="#f3_2g" transform="matrix(10.4,0,0,10.4,347.1,491.3)" />
<use xlink:href="#f3_25" transform="matrix(10.4,0,0,10.4,359,491.3)" />
<use xlink:href="#f3_2f" transform="matrix(10.4,0,0,10.4,362.5,491.3)" />
<use xlink:href="#f3_2f" transform="matrix(10.4,0,0,10.4,377.9,491.3)" />
<use xlink:href="#f3_24" transform="matrix(10.4,0,0,10.4,386,491.3)" />
<use xlink:href="#f3_2b" transform="matrix(10.4,0,0,10.4,394.8,491.3)" />
<use xlink:href="#f3_2j" transform="matrix(10.4,0,0,10.4,403.6,491.3)" />
<use xlink:href="#f3_2a" transform="matrix(10.4,0,0,10.4,414.8,491.3)" />
<use xlink:href="#f3_1y" transform="matrix(10.4,0,0,10.4,431.1,491.3)" />
<use xlink:href="#f3_2l" transform="matrix(10.4,0,0,10.4,439.9,491.3)" />
<use xlink:href="#f3_c" transform="matrix(10.4,0,0,10.4,454.9,491.3)" />
<use xlink:href="#f3_25" transform="matrix(10.4,0,0,10.4,460.2,491.3)" />
<use xlink:href="#f3_d" transform="matrix(10.4,0,0,10.4,463.7,491.3)" />
<use xlink:href="#f3_1q" transform="matrix(10.4,0,0,10.4,476.5,491.3)" />
<use xlink:href="#f3_2a" transform="matrix(10.4,0,0,10.4,486.3,491.3)" />
<use xlink:href="#f3_1j" transform="matrix(10.4,0,0,10.4,495.1,491.3)" />
<use xlink:href="#f3_1x" transform="matrix(10.4,0,0,10.4,513,491.3)" />
<use xlink:href="#f3_2a" transform="matrix(10.4,0,0,10.4,521.8,491.3)" />
<use xlink:href="#f3_20" transform="matrix(10.4,0,0,10.4,530.6,491.3)" />
<use xlink:href="#f3_c" transform="matrix(10.4,0,0,10.4,546.9,491.3)" />
<use xlink:href="#f3_25" transform="matrix(10.4,0,0,10.4,552.2,491.3)" />
<use xlink:href="#f3_25" transform="matrix(10.4,0,0,10.4,555.7,491.3)" />
<use xlink:href="#f3_d" transform="matrix(10.4,0,0,10.4,559.2,491.3)" />
<use xlink:href="#f3_13" transform="matrix(10.4,0,0,10.4,572,491.3)" />
<use xlink:href="#f3_2f" transform="matrix(10.4,0,0,10.4,583.6,491.3)" />
<use xlink:href="#f3_13" transform="matrix(10.4,0,0,10.4,591.7,491.3)" />
<use xlink:href="#f3_28" transform="matrix(10.4,0,0,10.4,603.2,491.3)" />
<use xlink:href="#f3_z" transform="matrix(10.4,0,0,10.4,606.7,491.3)" />
<use xlink:href="#f3_1r" transform="matrix(10.4,0,0,10.4,103.3,521.3)" />
<use xlink:href="#f2_18" transform="matrix(10.4,0,0,10.4,107.7,521.3)" />
<use xlink:href="#f2_25" transform="matrix(10.4,0,0,10.4,119.3,521.3)" />
<use xlink:href="#f2_2a" transform="matrix(10.4,0,0,10.4,123.7,521.3)" />
<use xlink:href="#f2_2g" transform="matrix(10.4,0,0,10.4,133.4,521.3)" />
<use xlink:href="#f2_i" transform="matrix(10.4,0,0,10.4,138.7,521.3)" />
<use xlink:href="#f2_u" transform="matrix(10.4,0,0,10.4,151,521.3)" />
<use xlink:href="#f3_c" transform="matrix(10.4,0,0,10.4,164.5,521.3)" />
<use xlink:href="#f3_25" transform="matrix(10.4,0,0,10.4,169.9,521.3)" />
<use xlink:href="#f3_d" transform="matrix(10.4,0,0,10.4,173.3,521.3)" />
<use xlink:href="#f3_16" transform="matrix(10.4,0,0,10.4,186.7,521.3)" />
<use xlink:href="#f3_2e" transform="matrix(10.4,0,0,10.4,196.4,521.3)" />
<use xlink:href="#f3_21" transform="matrix(10.4,0,0,10.4,201.8,521.3)" />
<use xlink:href="#f3_2a" transform="matrix(10.4,0,0,10.4,210.6,521.3)" />
<use xlink:href="#f3_27" transform="matrix(10.4,0,0,10.4,219.4,521.3)" />
<use xlink:href="#f3_21" transform="matrix(10.4,0,0,10.4,227.4,521.3)" />
<use xlink:href="#f3_28" transform="matrix(10.4,0,0,10.4,236.2,521.3)" />
<use xlink:href="#f3_20" transform="matrix(10.4,0,0,10.4,247.6,521.3)" />
<use xlink:href="#f3_21" transform="matrix(10.4,0,0,10.4,256.4,521.3)" />
<use xlink:href="#f3_22" transform="matrix(10.4,0,0,10.4,265.2,521.3)" />
<use xlink:href="#f3_21" transform="matrix(10.4,0,0,10.4,269.8,521.3)" />
<use xlink:href="#f3_1z" transform="matrix(10.4,0,0,10.4,278.6,521.3)" />
<use xlink:href="#f3_2g" transform="matrix(10.4,0,0,10.4,286.6,521.3)" />
<use xlink:href="#f3_c" transform="matrix(10.4,0,0,10.4,299.1,521.3)" />
<use xlink:href="#f3_25" transform="matrix(10.4,0,0,10.4,304.4,521.3)" />
<use xlink:href="#f3_25" transform="matrix(10.4,0,0,10.4,307.9,521.3)" />
<use xlink:href="#f3_d" transform="matrix(10.4,0,0,10.4,311.4,521.3)" />
<use xlink:href="#f3_1j" transform="matrix(10.4,0,0,10.4,324.8,521.3)" />
<use xlink:href="#f3_1z" transform="matrix(10.4,0,0,10.4,335.4,521.3)" />
<use xlink:href="#f3_24" transform="matrix(10.4,0,0,10.4,343.5,521.3)" />
<use xlink:href="#f3_2b" transform="matrix(10.4,0,0,10.4,352.3,521.3)" />
<use xlink:href="#f3_2g" transform="matrix(10.4,0,0,10.4,361.1,521.3)" />
<use xlink:href="#f3_2g" transform="matrix(10.4,0,0,10.4,365.5,521.3)" />
<use xlink:href="#f3_27" transform="matrix(10.4,0,0,10.4,369.9,521.3)" />
<use xlink:href="#f3_2l" transform="matrix(10.4,0,0,10.4,377.9,521.3)" />
<use xlink:href="#f3_20" transform="matrix(10.4,0,0,10.4,393.5,521.3)" />
<use xlink:href="#f3_21" transform="matrix(10.4,0,0,10.4,402.3,521.3)" />
<use xlink:href="#f3_22" transform="matrix(10.4,0,0,10.4,411.1,521.3)" />
<use xlink:href="#f3_21" transform="matrix(10.4,0,0,10.4,415.7,521.3)" />
<use xlink:href="#f3_1z" transform="matrix(10.4,0,0,10.4,424.5,521.3)" />
<use xlink:href="#f3_2g" transform="matrix(10.4,0,0,10.4,432.5,521.3)" />
<use xlink:href="#f3_1t" transform="matrix(10.4,0,0,10.4,436.9,521.3)" />
<use xlink:href="#f3_e" transform="matrix(10.4,0,0,10.4,60,551.4)" />
<use xlink:href="#f3_l" transform="matrix(10.4,0,0,10.4,66.5,551.4)" />
<use xlink:href="#f3_k" transform="matrix(10.4,0,0,10.4,75.3,551.4)" />
<use xlink:href="#f3_i" transform="matrix(10.4,0,0,10.4,84.2,551.4)" />
<use xlink:href="#f3_19" transform="matrix(10.4,0,0,10.4,103.3,551.4)" />
<use xlink:href="#f3_22" transform="matrix(10.4,0,0,10.4,107.7,551.4)" />
<use xlink:href="#f3_2g" transform="matrix(10.4,0,0,10.4,118.9,551.4)" />
<use xlink:href="#f3_24" transform="matrix(10.4,0,0,10.4,123.3,551.4)" />
<use xlink:href="#f3_21" transform="matrix(10.4,0,0,10.4,132.1,551.4)" />
<use xlink:href="#f3_22" transform="matrix(10.4,0,0,10.4,147.3,551.4)" />
<use xlink:href="#f3_2b" transform="matrix(10.4,0,0,10.4,151.9,551.4)" />
<use xlink:href="#f3_2e" transform="matrix(10.4,0,0,10.4,160.7,551.4)" />
<use xlink:href="#f3_29" transform="matrix(10.4,0,0,10.4,166,551.4)" />
<use xlink:href="#f3_2h" transform="matrix(10.4,0,0,10.4,179.6,551.4)" />
<use xlink:href="#f3_28" transform="matrix(10.4,0,0,10.4,188.4,551.4)" />
<use xlink:href="#f3_1x" transform="matrix(10.4,0,0,10.4,191.9,551.4)" />
<use xlink:href="#f3_2b" transform="matrix(10.4,0,0,10.4,207.3,551.4)" />
<use xlink:href="#f3_22" transform="matrix(10.4,0,0,10.4,216.1,551.4)" />
<use xlink:href="#f3_1x" transform="matrix(10.4,0,0,10.4,227,551.4)" />
<use xlink:href="#f3_1z" transform="matrix(10.4,0,0,10.4,242.4,551.4)" />
<use xlink:href="#f3_2b" transform="matrix(10.4,0,0,10.4,250.5,551.4)" />
<use xlink:href="#f3_29" transform="matrix(10.4,0,0,10.4,259.3,551.4)" />
<use xlink:href="#f3_2c" transform="matrix(10.4,0,0,10.4,272.9,551.4)" />
<use xlink:href="#f3_2b" transform="matrix(10.4,0,0,10.4,281.7,551.4)" />
<use xlink:href="#f3_2h" transform="matrix(10.4,0,0,10.4,290.5,551.4)" />
<use xlink:href="#f3_2a" transform="matrix(10.4,0,0,10.4,299.3,551.4)" />
<use xlink:href="#f3_20" transform="matrix(10.4,0,0,10.4,308.1,551.4)" />
<use xlink:href="#f3_25" transform="matrix(10.4,0,0,10.4,323.3,551.4)" />
<use xlink:href="#f3_2f" transform="matrix(10.4,0,0,10.4,326.8,551.4)" />
<use xlink:href="#f3_11" transform="matrix(10.4,0,0,10.4,340.5,551.4)" />
<use xlink:href="#f3_m" transform="matrix(7.4,0,0,7.4,351.2,556.7)" />
<use xlink:href="#f3_12" transform="matrix(10.4,0,0,10.4,357.4,551.4)" />
<use xlink:href="#f3_g" transform="matrix(10.4,0,0,10.4,368.1,551.4)" />
<use xlink:href="#f3_2j" transform="matrix(10.4,0,0,10.4,379,551.4)" />
<use xlink:href="#f3_24" transform="matrix(10.4,0,0,10.4,390.2,551.4)" />
<use xlink:href="#f3_25" transform="matrix(10.4,0,0,10.4,399,551.4)" />
<use xlink:href="#f3_1z" transform="matrix(10.4,0,0,10.4,402.5,551.4)" />
<use xlink:href="#f3_24" transform="matrix(10.4,0,0,10.4,410.6,551.4)" />
<use xlink:href="#f3_2f" transform="matrix(10.4,0,0,10.4,425.8,551.4)" />
<use xlink:href="#f3_25" transform="matrix(10.4,0,0,10.4,433.9,551.4)" />
<use xlink:href="#f3_2g" transform="matrix(10.4,0,0,10.4,437.3,551.4)" />
<use xlink:href="#f3_21" transform="matrix(10.4,0,0,10.4,441.7,551.4)" />
<use xlink:href="#f3_2f" transform="matrix(10.4,0,0,10.4,450.5,551.4)" />
<use xlink:href="#f3_2j" transform="matrix(10.4,0,0,10.4,465.2,551.4)" />
<use xlink:href="#f3_2b" transform="matrix(10.4,0,0,10.4,476.4,551.4)" />
<use xlink:href="#f3_2h" transform="matrix(10.4,0,0,10.4,485.2,551.4)" />
<use xlink:href="#f3_28" transform="matrix(10.4,0,0,10.4,494,551.4)" />
<use xlink:href="#f3_20" transform="matrix(10.4,0,0,10.4,497.5,551.4)" />
<use xlink:href="#f3_1y" transform="matrix(10.4,0,0,10.4,512.7,551.4)" />
<use xlink:href="#f3_21" transform="matrix(10.4,0,0,10.4,521.5,551.4)" />
<use xlink:href="#f3_2b" transform="matrix(10.4,0,0,10.4,536.9,551.4)" />
<use xlink:href="#f3_1z" transform="matrix(10.4,0,0,10.4,545.7,551.4)" />
<use xlink:href="#f3_1z" transform="matrix(10.4,0,0,10.4,553.7,551.4)" />
<use xlink:href="#f3_2h" transform="matrix(10.4,0,0,10.4,561.8,551.4)" />
<use xlink:href="#f3_2c" transform="matrix(10.4,0,0,10.4,570.6,551.4)" />
<use xlink:href="#f3_25" transform="matrix(10.4,0,0,10.4,579.4,551.4)" />
<use xlink:href="#f3_21" transform="matrix(10.4,0,0,10.4,582.9,551.4)" />
<use xlink:href="#f3_20" transform="matrix(10.4,0,0,10.4,591.7,551.4)" />
<use xlink:href="#f3_1y" transform="matrix(10.4,0,0,10.4,606.9,551.4)" />
<use xlink:href="#f3_2l" transform="matrix(10.4,0,0,10.4,615.7,551.4)" />
<use xlink:href="#f3_11" transform="matrix(10.4,0,0,10.4,628.9,551.4)" />
<use xlink:href="#f3_25" transform="matrix(10.4,0,0,10.4,103.3,572.3)" />
<use xlink:href="#f3_2b" transform="matrix(10.4,0,0,10.4,107,572.3)" />
<use xlink:href="#f3_2a" transform="matrix(10.4,0,0,10.4,116.1,572.3)" />
<use xlink:href="#f3_2f" transform="matrix(10.4,0,0,10.4,125.1,572.3)" />
<use xlink:href="#f3_z" transform="matrix(10.4,0,0,10.4,133.6,572.3)" />
<use xlink:href="#f3_1r" transform="matrix(10.4,0,0,10.4,103.3,602.4)" />
<use xlink:href="#f2_18" transform="matrix(10.4,0,0,10.4,107.7,602.4)" />
<use xlink:href="#f2_25" transform="matrix(10.4,0,0,10.4,119.3,602.4)" />
<use xlink:href="#f2_2a" transform="matrix(10.4,0,0,10.4,123.7,602.4)" />
<use xlink:href="#f2_2g" transform="matrix(10.4,0,0,10.4,133.4,602.4)" />
<use xlink:href="#f2_i" transform="matrix(10.4,0,0,10.4,138.7,602.4)" />
<use xlink:href="#f2_u" transform="matrix(10.4,0,0,10.4,147.9,602.4)" />
<use xlink:href="#f3_1e" transform="matrix(10.4,0,0,10.4,158.3,602.4)" />
<use xlink:href="#f3_2h" transform="matrix(10.4,0,0,10.4,169.9,602.4)" />
<use xlink:href="#f3_29" transform="matrix(10.4,0,0,10.4,178.7,602.4)" />
<use xlink:href="#f3_1y" transform="matrix(10.4,0,0,10.4,192.2,602.4)" />
<use xlink:href="#f3_21" transform="matrix(10.4,0,0,10.4,201,602.4)" />
<use xlink:href="#f3_2e" transform="matrix(10.4,0,0,10.4,209.8,602.4)" />
<use xlink:href="#f3_2b" transform="matrix(10.4,0,0,10.4,219.9,602.4)" />
<use xlink:href="#f3_22" transform="matrix(10.4,0,0,10.4,228.7,602.4)" />
<use xlink:href="#f3_11" transform="matrix(10.4,0,0,10.4,237.3,602.4)" />
<use xlink:href="#f3_25" transform="matrix(10.4,0,0,10.4,251.8,602.4)" />
<use xlink:href="#f3_2b" transform="matrix(10.4,0,0,10.4,255.3,602.4)" />
<use xlink:href="#f3_2a" transform="matrix(10.4,0,0,10.4,264.1,602.4)" />
<use xlink:href="#f3_2f" transform="matrix(10.4,0,0,10.4,272.9,602.4)" />
<use xlink:href="#f3_25" transform="matrix(10.4,0,0,10.4,285.9,602.4)" />
<use xlink:href="#f3_2f" transform="matrix(10.4,0,0,10.4,289.4,602.4)" />
<use xlink:href="#f3_20" transform="matrix(10.4,0,0,10.4,302.2,602.4)" />
<use xlink:href="#f3_2b" transform="matrix(10.4,0,0,10.4,311,602.4)" />
<use xlink:href="#f3_2h" transform="matrix(10.4,0,0,10.4,319.8,602.4)" />
<use xlink:href="#f3_1y" transform="matrix(10.4,0,0,10.4,328.6,602.4)" />
<use xlink:href="#f3_28" transform="matrix(10.4,0,0,10.4,337.4,602.4)" />
<use xlink:href="#f3_21" transform="matrix(10.4,0,0,10.4,340.9,602.4)" />
<use xlink:href="#f3_2g" transform="matrix(10.4,0,0,10.4,354.6,602.4)" />
<use xlink:href="#f3_2b" transform="matrix(10.4,0,0,10.4,359,602.4)" />
<use xlink:href="#f3_12" transform="matrix(10.4,0,0,10.4,372.8,602.4)" />
<use xlink:href="#f3_25" transform="matrix(10.4,0,0,10.4,388.2,602.4)" />
<use xlink:href="#f3_2b" transform="matrix(10.4,0,0,10.4,391.7,602.4)" />
<use xlink:href="#f3_2a" transform="matrix(10.4,0,0,10.4,400.5,602.4)" />
<use xlink:href="#f3_2f" transform="matrix(10.4,0,0,10.4,409.3,602.4)" />
<use xlink:href="#f3_g" transform="matrix(10.4,0,0,10.4,417.3,602.4)" />
<use xlink:href="#f3_2f" transform="matrix(10.4,0,0,10.4,426.7,602.4)" />
<use xlink:href="#f3_2b" transform="matrix(10.4,0,0,10.4,434.7,602.4)" />
<use xlink:href="#f3_25" transform="matrix(10.4,0,0,10.4,448.3,602.4)" />
<use xlink:href="#f3_2b" transform="matrix(10.4,0,0,10.4,451.8,602.4)" />
<use xlink:href="#f3_2a" transform="matrix(10.4,0,0,10.4,460.6,602.4)" />
<use xlink:href="#f3_2f" transform="matrix(10.4,0,0,10.4,469.4,602.4)" />
<use xlink:href="#f3_2j" transform="matrix(10.4,0,0,10.4,482.4,602.4)" />
<use xlink:href="#f3_25" transform="matrix(10.4,0,0,10.4,493.6,602.4)" />
<use xlink:href="#f3_28" transform="matrix(10.4,0,0,10.4,497.1,602.4)" />
<use xlink:href="#f3_28" transform="matrix(10.4,0,0,10.4,500.6,602.4)" />
<use xlink:href="#f3_2b" transform="matrix(10.4,0,0,10.4,508.8,602.4)" />
<use xlink:href="#f3_1z" transform="matrix(10.4,0,0,10.4,517.6,602.4)" />
<use xlink:href="#f3_1z" transform="matrix(10.4,0,0,10.4,525.7,602.4)" />
<use xlink:href="#f3_2h" transform="matrix(10.4,0,0,10.4,533.7,602.4)" />
<use xlink:href="#f3_2c" transform="matrix(10.4,0,0,10.4,542.5,602.4)" />
<use xlink:href="#f3_2l" transform="matrix(10.4,0,0,10.4,551.3,602.4)" />
<use xlink:href="#f3_2g" transform="matrix(10.4,0,0,10.4,563.8,602.4)" />
<use xlink:href="#f3_21" transform="matrix(10.4,0,0,10.4,568.2,602.4)" />
<use xlink:href="#f3_2g" transform="matrix(10.4,0,0,10.4,577,602.4)" />
<use xlink:href="#f3_2e" transform="matrix(10.4,0,0,10.4,581.4,602.4)" />
<use xlink:href="#f3_1x" transform="matrix(10.4,0,0,10.4,586.7,602.4)" />
<use xlink:href="#f3_24" transform="matrix(10.4,0,0,10.4,595.5,602.4)" />
<use xlink:href="#f3_21" transform="matrix(10.4,0,0,10.4,604.3,602.4)" />
<use xlink:href="#f3_20" transform="matrix(10.4,0,0,10.4,613.1,602.4)" />
<use xlink:href="#f3_2e" transform="matrix(10.4,0,0,10.4,621.9,602.4)" />
<use xlink:href="#f3_1x" transform="matrix(10.4,0,0,10.4,627.2,602.4)" />
<use xlink:href="#f3_28" transform="matrix(10.4,0,0,10.4,636,602.4)" />
<use xlink:href="#f3_2i" transform="matrix(10.4,0,0,10.4,103.3,623.3)" />
<use xlink:href="#f3_2b" transform="matrix(10.4,0,0,10.4,111.4,623.3)" />
<use xlink:href="#f3_25" transform="matrix(10.4,0,0,10.4,120.4,623.3)" />
<use xlink:href="#f3_20" transform="matrix(10.4,0,0,10.4,124,623.3)" />
<use xlink:href="#f3_2f" transform="matrix(10.4,0,0,10.4,133,623.3)" />
<use xlink:href="#f3_1t" transform="matrix(10.4,0,0,10.4,141.3,623.3)" />
<use xlink:href="#f3_l" transform="matrix(10.4,0,0,10.4,60,653.3)" />
<use xlink:href="#f3_l" transform="matrix(10.4,0,0,10.4,68.1,653.3)" />
<use xlink:href="#f3_i" transform="matrix(10.4,0,0,10.4,77.5,653.3)" />
</g>
<g clip-path="url(#c0_2)">
<g fill="#000000" >
<use xlink:href="#f3_1n" transform="matrix(10.4,0,0,10.4,103.3,653.3)" />
<use xlink:href="#f3_24" transform="matrix(10.4,0,0,10.4,119.3,653.3)" />
<use xlink:href="#f3_1x" transform="matrix(10.4,0,0,10.4,128.1,653.3)" />
<use xlink:href="#f3_2g" transform="matrix(10.4,0,0,10.4,136.9,653.3)" />
<use xlink:href="#f3_25" transform="matrix(10.4,0,0,10.4,149.1,653.3)" />
<use xlink:href="#f3_2f" transform="matrix(10.4,0,0,10.4,152.6,653.3)" />
<use xlink:href="#f3_2g" transform="matrix(10.4,0,0,10.4,168.8,653.3)" />
<use xlink:href="#f3_24" transform="matrix(10.4,0,0,10.4,173.2,653.3)" />
<use xlink:href="#f3_21" transform="matrix(10.4,0,0,10.4,182,653.3)" />
<use xlink:href="#f3_1z" transform="matrix(10.4,0,0,10.4,198.6,653.3)" />
<use xlink:href="#f3_2b" transform="matrix(10.4,0,0,10.4,206.7,653.3)" />
<use xlink:href="#f3_2b" transform="matrix(10.4,0,0,10.4,215.5,653.3)" />
<use xlink:href="#f3_2e" transform="matrix(10.4,0,0,10.4,224.3,653.3)" />
<use xlink:href="#f3_20" transform="matrix(10.4,0,0,10.4,229.6,653.3)" />
<use xlink:href="#f3_25" transform="matrix(10.4,0,0,10.4,238.4,653.3)" />
<use xlink:href="#f3_2a" transform="matrix(10.4,0,0,10.4,241.9,653.3)" />
<use xlink:href="#f3_1x" transform="matrix(10.4,0,0,10.4,250.7,653.3)" />
<use xlink:href="#f3_2g" transform="matrix(10.4,0,0,10.4,259.5,653.3)" />
<use xlink:href="#f3_25" transform="matrix(10.4,0,0,10.4,263.9,653.3)" />
<use xlink:href="#f3_2b" transform="matrix(10.4,0,0,10.4,267.4,653.3)" />
<use xlink:href="#f3_2a" transform="matrix(10.4,0,0,10.4,276.2,653.3)" />
<use xlink:href="#f3_2a" transform="matrix(10.4,0,0,10.4,293,653.3)" />
<use xlink:href="#f3_2h" transform="matrix(10.4,0,0,10.4,301.8,653.3)" />
<use xlink:href="#f3_29" transform="matrix(10.4,0,0,10.4,310.6,653.3)" />
<use xlink:href="#f3_1y" transform="matrix(10.4,0,0,10.4,324.2,653.3)" />
<use xlink:href="#f3_21" transform="matrix(10.4,0,0,10.4,333,653.3)" />
<use xlink:href="#f3_2e" transform="matrix(10.4,0,0,10.4,341.8,653.3)" />
<use xlink:href="#f3_22" transform="matrix(10.4,0,0,10.4,355,653.3)" />
<use xlink:href="#f3_2b" transform="matrix(10.4,0,0,10.4,359.6,653.3)" />
<use xlink:href="#f3_2e" transform="matrix(10.4,0,0,10.4,368.4,653.3)" />
</g>
</g>
<g fill="#000000" >
<use xlink:href="#f3_c" transform="matrix(10.4,0,0,10.4,103.3,683.2)" />
<use xlink:href="#f3_1x" transform="matrix(10.4,0,0,10.4,109.2,683.2)" />
<use xlink:href="#f3_d" transform="matrix(10.4,0,0,10.4,118.7,683.2)" />
<use xlink:href="#f3_1x" transform="matrix(10.4,0,0,10.4,146.6,683.2)" />
<use xlink:href="#f3_2a" transform="matrix(10.4,0,0,10.4,155.4,683.2)" />
<use xlink:href="#f3_2b" transform="matrix(10.4,0,0,10.4,173,683.2)" />
<use xlink:href="#f3_1z" transform="matrix(10.4,0,0,10.4,181.8,683.2)" />
<use xlink:href="#f3_2g" transform="matrix(10.4,0,0,10.4,190,683.2)" />
<use xlink:href="#f3_1x" transform="matrix(10.4,0,0,10.4,194.4,683.2)" />
<use xlink:href="#f3_24" transform="matrix(10.4,0,0,10.4,203.2,683.2)" />
<use xlink:href="#f3_21" transform="matrix(10.4,0,0,10.4,212,683.2)" />
<use xlink:href="#f3_20" transform="matrix(10.4,0,0,10.4,220.8,683.2)" />
<use xlink:href="#f3_2e" transform="matrix(10.4,0,0,10.4,229.6,683.2)" />
<use xlink:href="#f3_1x" transform="matrix(10.4,0,0,10.4,234.9,683.2)" />
<use xlink:href="#f3_28" transform="matrix(10.4,0,0,10.4,243.7,683.2)" />
<use xlink:href="#f3_2i" transform="matrix(10.4,0,0,10.4,256.2,683.2)" />
<use xlink:href="#f3_2b" transform="matrix(10.4,0,0,10.4,264.1,683.2)" />
<use xlink:href="#f3_25" transform="matrix(10.4,0,0,10.4,272.9,683.2)" />
<use xlink:href="#f3_20" transform="matrix(10.4,0,0,10.4,276.4,683.2)" />
<use xlink:href="#f3_c" transform="matrix(10.4,0,0,10.4,103.3,713.3)" />
<use xlink:href="#f3_1y" transform="matrix(10.4,0,0,10.4,109.2,713.3)" />
<use xlink:href="#f3_d" transform="matrix(10.4,0,0,10.4,118.7,713.3)" />
<use xlink:href="#f3_1x" transform="matrix(10.4,0,0,10.4,146.6,713.3)" />
<use xlink:href="#f3_2g" transform="matrix(10.4,0,0,10.4,164.4,713.3)" />
<use xlink:href="#f3_21" transform="matrix(10.4,0,0,10.4,168.8,713.3)" />
<use xlink:href="#f3_2g" transform="matrix(10.4,0,0,10.4,177.6,713.3)" />
<use xlink:href="#f3_2e" transform="matrix(10.4,0,0,10.4,182,713.3)" />
<use xlink:href="#f3_1x" transform="matrix(10.4,0,0,10.4,187.5,713.3)" />
<use xlink:href="#f3_24" transform="matrix(10.4,0,0,10.4,196.3,713.3)" />
<use xlink:href="#f3_21" transform="matrix(10.4,0,0,10.4,205.1,713.3)" />
<use xlink:href="#f3_20" transform="matrix(10.4,0,0,10.4,213.9,713.3)" />
<use xlink:href="#f3_2e" transform="matrix(10.4,0,0,10.4,222.8,713.3)" />
<use xlink:href="#f3_1x" transform="matrix(10.4,0,0,10.4,228.2,713.3)" />
<use xlink:href="#f3_28" transform="matrix(10.4,0,0,10.4,237,713.3)" />
<use xlink:href="#f3_2i" transform="matrix(10.4,0,0,10.4,249.4,713.3)" />
<use xlink:href="#f3_2b" transform="matrix(10.4,0,0,10.4,257.3,713.3)" />
<use xlink:href="#f3_25" transform="matrix(10.4,0,0,10.4,266.1,713.3)" />
<use xlink:href="#f3_20" transform="matrix(10.4,0,0,10.4,269.8,713.3)" />
<use xlink:href="#f3_i" transform="matrix(10.4,0,0,10.4,278.6,713.3)" />
<use xlink:href="#f3_1r" transform="matrix(10.4,0,0,10.4,103.3,743.3)" />
<use xlink:href="#f2_18" transform="matrix(10.4,0,0,10.4,107.7,743.3)" />
<use xlink:href="#f2_25" transform="matrix(10.4,0,0,10.4,119.3,743.3)" />
<use xlink:href="#f2_2a" transform="matrix(10.4,0,0,10.4,123.7,743.3)" />
<use xlink:href="#f2_2g" transform="matrix(10.4,0,0,10.4,133.4,743.3)" />
<use xlink:href="#f2_i" transform="matrix(10.4,0,0,10.4,138.7,743.3)" />
<use xlink:href="#f2_u" transform="matrix(10.4,0,0,10.4,150.6,743.3)" />
<use xlink:href="#f3_c" transform="matrix(10.4,0,0,10.4,163.6,743.3)" />
<use xlink:href="#f3_1x" transform="matrix(10.4,0,0,10.4,168.9,743.3)" />
<use xlink:href="#f3_d" transform="matrix(10.4,0,0,10.4,177.7,743.3)" />
<use xlink:href="#f3_q" transform="matrix(10.4,0,0,10.4,190.6,743.3)" />
<use xlink:href="#f3_v" transform="matrix(10.4,0,0,10.4,199.4,743.3)" />
<use xlink:href="#f3_c" transform="matrix(10.4,0,0,10.4,211.3,743.3)" />
<use xlink:href="#f3_1y" transform="matrix(10.4,0,0,10.4,216.6,743.3)" />
<use xlink:href="#f3_d" transform="matrix(10.4,0,0,10.4,225.4,743.3)" />
<use xlink:href="#f3_o" transform="matrix(10.4,0,0,10.4,238.4,743.3)" />
<use xlink:href="#f3_1t" transform="matrix(10.4,0,0,10.4,254.7,743.3)" />
<use xlink:href="#f3_e" transform="matrix(10.4,0,0,10.4,60,773.4)" />
<use xlink:href="#f3_l" transform="matrix(10.4,0,0,10.4,66.5,773.4)" />
<use xlink:href="#f3_m" transform="matrix(10.4,0,0,10.4,75.3,773.4)" />
<use xlink:href="#f3_i" transform="matrix(10.4,0,0,10.4,84.2,773.4)" />
<use xlink:href="#f3_18" transform="matrix(10.4,0,0,10.4,103.3,773.4)" />
<use xlink:href="#f3_2b" transform="matrix(10.4,0,0,10.4,114.9,773.4)" />
<use xlink:href="#f3_2j" transform="matrix(10.4,0,0,10.4,123.7,773.4)" />
<use xlink:href="#f3_29" transform="matrix(10.4,0,0,10.4,142.9,773.4)" />
<use xlink:href="#f3_1x" transform="matrix(10.4,0,0,10.4,156.5,773.4)" />
<use xlink:href="#f3_2a" transform="matrix(10.4,0,0,10.4,165.3,773.4)" />
<use xlink:href="#f3_2l" transform="matrix(10.4,0,0,10.4,174.1,773.4)" />
<use xlink:href="#f3_2b" transform="matrix(10.4,0,0,10.4,189.7,773.4)" />
<use xlink:href="#f3_1z" transform="matrix(10.4,0,0,10.4,198.5,773.4)" />
<use xlink:href="#f3_2g" transform="matrix(10.4,0,0,10.4,206.5,773.4)" />
<use xlink:href="#f3_1x" transform="matrix(10.4,0,0,10.4,210.9,773.4)" />
<use xlink:href="#f3_24" transform="matrix(10.4,0,0,10.4,219.7,773.4)" />
<use xlink:href="#f3_21" transform="matrix(10.4,0,0,10.4,228.5,773.4)" />
<use xlink:href="#f3_20" transform="matrix(10.4,0,0,10.4,237.3,773.4)" />
<use xlink:href="#f3_2e" transform="matrix(10.4,0,0,10.4,246.1,773.4)" />
<use xlink:href="#f3_1x" transform="matrix(10.4,0,0,10.4,251.4,773.4)" />
<use xlink:href="#f3_28" transform="matrix(10.4,0,0,10.4,260.2,773.4)" />
<use xlink:href="#f3_2i" transform="matrix(10.4,0,0,10.4,271.8,773.4)" />
<use xlink:href="#f3_2b" transform="matrix(10.4,0,0,10.4,279.7,773.4)" />
<use xlink:href="#f3_25" transform="matrix(10.4,0,0,10.4,288.5,773.4)" />
<use xlink:href="#f3_20" transform="matrix(10.4,0,0,10.4,291.9,773.4)" />
<use xlink:href="#f3_2f" transform="matrix(10.4,0,0,10.4,300.7,773.4)" />
<use xlink:href="#f3_1x" transform="matrix(10.4,0,0,10.4,316.9,773.4)" />
<use xlink:href="#f3_2e" transform="matrix(10.4,0,0,10.4,325.7,773.4)" />
<use xlink:href="#f3_21" transform="matrix(10.4,0,0,10.4,331,773.4)" />
<use xlink:href="#f3_2g" transform="matrix(10.4,0,0,10.4,347.9,773.4)" />
<use xlink:href="#f3_24" transform="matrix(10.4,0,0,10.4,352.3,773.4)" />
<use xlink:href="#f3_21" transform="matrix(10.4,0,0,10.4,361.1,773.4)" />
<use xlink:href="#f3_2e" transform="matrix(10.4,0,0,10.4,369.9,773.4)" />
<use xlink:href="#f3_21" transform="matrix(10.4,0,0,10.4,375.2,773.4)" />
<use xlink:href="#f3_25" transform="matrix(10.4,0,0,10.4,392,773.4)" />
<use xlink:href="#f3_2a" transform="matrix(10.4,0,0,10.4,395.5,773.4)" />
<use xlink:href="#f3_l" transform="matrix(10.4,0,0,10.4,412.6,773.4)" />
<use xlink:href="#f3_29" transform="matrix(10.4,0,0,10.4,429.4,773.4)" />
<use xlink:href="#f3_2b" transform="matrix(10.4,0,0,10.4,443,773.4)" />
<use xlink:href="#f3_28" transform="matrix(10.4,0,0,10.4,451.8,773.4)" />
<use xlink:href="#f3_21" transform="matrix(10.4,0,0,10.4,455.3,773.4)" />
<use xlink:href="#f3_2b" transform="matrix(10.4,0,0,10.4,472.1,773.4)" />
<use xlink:href="#f3_22" transform="matrix(10.4,0,0,10.4,480.9,773.4)" />
<use xlink:href="#f3_1x" transform="matrix(10.4,0,0,10.4,493.6,773.4)" />
<use xlink:href="#f3_1z" transform="matrix(10.4,0,0,10.4,510.4,773.4)" />
<use xlink:href="#f3_2b" transform="matrix(10.4,0,0,10.4,518.5,773.4)" />
<use xlink:href="#f3_29" transform="matrix(10.4,0,0,10.4,527.3,773.4)" />
<use xlink:href="#f3_2c" transform="matrix(10.4,0,0,10.4,540.9,773.4)" />
<use xlink:href="#f3_2b" transform="matrix(10.4,0,0,10.4,549.7,773.4)" />
<use xlink:href="#f3_2h" transform="matrix(10.4,0,0,10.4,558.5,773.4)" />
<use xlink:href="#f3_2a" transform="matrix(10.4,0,0,10.4,567.3,773.4)" />
<use xlink:href="#f3_20" transform="matrix(10.4,0,0,10.4,576.1,773.4)" />
<use xlink:href="#f3_24" transform="matrix(10.4,0,0,10.4,592.9,773.4)" />
<use xlink:href="#f3_1x" transform="matrix(10.4,0,0,10.4,601.7,773.4)" />
<use xlink:href="#f3_2i" transform="matrix(10.4,0,0,10.4,610.5,773.4)" />
<use xlink:href="#f3_25" transform="matrix(10.4,0,0,10.4,618.4,773.4)" />
<use xlink:href="#f3_2a" transform="matrix(10.4,0,0,10.4,621.9,773.4)" />
<use xlink:href="#f3_23" transform="matrix(10.4,0,0,10.4,630.7,773.4)" />
<use xlink:href="#f3_1z" transform="matrix(10.4,0,0,10.4,103.3,794.3)" />
<use xlink:href="#f3_2h" transform="matrix(10.4,0,0,10.4,111.4,794.3)" />
<use xlink:href="#f3_1y" transform="matrix(10.4,0,0,10.4,120.2,794.3)" />
<use xlink:href="#f3_25" transform="matrix(10.4,0,0,10.4,129,794.3)" />
<use xlink:href="#f3_1z" transform="matrix(10.4,0,0,10.4,132.5,794.3)" />
<use xlink:href="#f3_1z" transform="matrix(10.4,0,0,10.4,149.3,794.3)" />
<use xlink:href="#f3_28" transform="matrix(10.4,0,0,10.4,157.4,794.3)" />
<use xlink:href="#f3_2b" transform="matrix(10.4,0,0,10.4,160.9,794.3)" />
<use xlink:href="#f3_2f" transform="matrix(10.4,0,0,10.4,169.7,794.3)" />
<use xlink:href="#f3_21" transform="matrix(10.4,0,0,10.4,177.7,794.3)" />
<use xlink:href="#f3_20" transform="matrix(10.4,0,0,10.4,186.5,794.3)" />
<use xlink:href="#f3_2c" transform="matrix(10.4,0,0,10.4,204,794.3)" />
<use xlink:href="#f3_1x" transform="matrix(10.4,0,0,10.4,212.8,794.3)" />
<use xlink:href="#f3_1z" transform="matrix(10.4,0,0,10.4,221.6,794.3)" />
<use xlink:href="#f3_27" transform="matrix(10.4,0,0,10.4,229.6,794.3)" />
<use xlink:href="#f3_21" transform="matrix(10.4,0,0,10.4,237.7,794.3)" />
<use xlink:href="#f3_20" transform="matrix(10.4,0,0,10.4,246.5,794.3)" />
<use xlink:href="#f3_2f" transform="matrix(10.4,0,0,10.4,264.1,794.3)" />
<use xlink:href="#f3_2g" transform="matrix(10.4,0,0,10.4,272.1,794.3)" />
<use xlink:href="#f3_2e" transform="matrix(10.4,0,0,10.4,276.5,794.3)" />
<use xlink:href="#f3_2h" transform="matrix(10.4,0,0,10.4,281.9,794.3)" />
<use xlink:href="#f3_1z" transform="matrix(10.4,0,0,10.4,290.7,794.3)" />
<use xlink:href="#f3_2g" transform="matrix(10.4,0,0,10.4,298.7,794.3)" />
<use xlink:href="#f3_2h" transform="matrix(10.4,0,0,10.4,303.1,794.3)" />
<use xlink:href="#f3_2e" transform="matrix(10.4,0,0,10.4,311.9,794.3)" />
<use xlink:href="#f3_21" transform="matrix(10.4,0,0,10.4,317.2,794.3)" />
<use xlink:href="#f3_z" transform="matrix(10.4,0,0,10.4,326,794.3)" />
<use xlink:href="#f3_1r" transform="matrix(10.4,0,0,10.4,523.7,794.3)" />
<use xlink:href="#f2_11" transform="matrix(10.4,0,0,10.4,528.1,794.3)" />
<use xlink:href="#f2_2a" transform="matrix(10.4,0,0,10.4,538.9,794.3)" />
<use xlink:href="#f2_2f" transform="matrix(10.4,0,0,10.4,548.6,794.3)" />
<use xlink:href="#f2_i" transform="matrix(10.4,0,0,10.4,557.4,794.3)" />
<use xlink:href="#f2_u" transform="matrix(10.4,0,0,10.4,568.8,794.3)" />
<use xlink:href="#f3_l" transform="matrix(10.4,0,0,10.4,581.3,794.3)" />
<use xlink:href="#f3_29" transform="matrix(10.4,0,0,10.4,597,794.3)" />
<use xlink:href="#f3_2b" transform="matrix(10.4,0,0,10.4,610.6,794.3)" />
<use xlink:href="#f3_28" transform="matrix(10.4,0,0,10.4,619.4,794.3)" />
<use xlink:href="#f3_21" transform="matrix(10.4,0,0,10.4,622.9,794.3)" />
<use xlink:href="#f3_1t" transform="matrix(10.4,0,0,10.4,631.7,794.3)" />
<use xlink:href="#f3_l" transform="matrix(10.4,0,0,10.4,60,824.4)" />
<use xlink:href="#f3_n" transform="matrix(10.4,0,0,10.4,69.2,824.4)" />
<use xlink:href="#f3_i" transform="matrix(10.4,0,0,10.4,78.6,824.4)" />
<use xlink:href="#f3_11" transform="matrix(10.4,0,0,10.4,103.3,824.4)" />
<use xlink:href="#f3_2e" transform="matrix(10.4,0,0,10.4,114,824.4)" />
<use xlink:href="#f3_2e" transform="matrix(10.4,0,0,10.4,119.3,824.4)" />
<use xlink:href="#f3_1x" transform="matrix(10.4,0,0,10.4,124.6,824.4)" />
<use xlink:href="#f3_2a" transform="matrix(10.4,0,0,10.4,133.4,824.4)" />
<use xlink:href="#f3_23" transform="matrix(10.4,0,0,10.4,142.2,824.4)" />
<use xlink:href="#f3_21" transform="matrix(10.4,0,0,10.4,151,824.4)" />
<use xlink:href="#f3_2f" transform="matrix(10.4,0,0,10.4,165.1,824.4)" />
<use xlink:href="#f3_25" transform="matrix(10.4,0,0,10.4,173.2,824.4)" />
<use xlink:href="#f3_29" transform="matrix(10.4,0,0,10.4,176.6,824.4)" />
<use xlink:href="#f3_2c" transform="matrix(10.4,0,0,10.4,190.2,824.4)" />
<use xlink:href="#f3_28" transform="matrix(10.4,0,0,10.4,199,824.4)" />
<use xlink:href="#f3_21" transform="matrix(10.4,0,0,10.4,202.5,824.4)" />
<use xlink:href="#f3_1z" transform="matrix(10.4,0,0,10.4,216.6,824.4)" />
<use xlink:href="#f3_2h" transform="matrix(10.4,0,0,10.4,224.7,824.4)" />
<use xlink:href="#f3_1y" transform="matrix(10.4,0,0,10.4,233.5,824.4)" />
<use xlink:href="#f3_25" transform="matrix(10.4,0,0,10.4,242.3,824.4)" />
<use xlink:href="#f3_1z" transform="matrix(10.4,0,0,10.4,245.7,824.4)" />
<use xlink:href="#f3_g" transform="matrix(10.4,0,0,10.4,253.8,824.4)" />
<use xlink:href="#f3_1y" transform="matrix(10.4,0,0,10.4,263.5,824.4)" />
<use xlink:href="#f3_1z" transform="matrix(10.4,0,0,10.4,272.3,824.4)" />
<use xlink:href="#f3_1z" transform="matrix(10.4,0,0,10.4,280.4,824.4)" />
<use xlink:href="#f3_1x" transform="matrix(10.4,0,0,10.4,293.8,824.4)" />
<use xlink:href="#f3_2a" transform="matrix(10.4,0,0,10.4,302.6,824.4)" />
<use xlink:href="#f3_20" transform="matrix(10.4,0,0,10.4,311.4,824.4)" />
<use xlink:href="#f3_22" transform="matrix(10.4,0,0,10.4,325.5,824.4)" />
<use xlink:href="#f3_1z" transform="matrix(10.4,0,0,10.4,330.1,824.4)" />
<use xlink:href="#f3_1z" transform="matrix(10.4,0,0,10.4,338.1,824.4)" />
<use xlink:href="#f3_28" transform="matrix(10.4,0,0,10.4,351.5,824.4)" />
<use xlink:href="#f3_1x" transform="matrix(10.4,0,0,10.4,355,824.4)" />
<use xlink:href="#f3_2g" transform="matrix(10.4,0,0,10.4,363.8,824.4)" />
<use xlink:href="#f3_2g" transform="matrix(10.4,0,0,10.4,368.2,824.4)" />
<use xlink:href="#f3_25" transform="matrix(10.4,0,0,10.4,372.6,824.4)" />
<use xlink:href="#f3_1z" transform="matrix(10.4,0,0,10.4,376.1,824.4)" />
<use xlink:href="#f3_21" transform="matrix(10.4,0,0,10.4,384.1,824.4)" />
<use xlink:href="#f3_25" transform="matrix(10.4,0,0,10.4,398.3,824.4)" />
<use xlink:href="#f3_2a" transform="matrix(10.4,0,0,10.4,401.7,824.4)" />
<use xlink:href="#f3_20" transform="matrix(10.4,0,0,10.4,415.9,824.4)" />
<use xlink:href="#f3_21" transform="matrix(10.4,0,0,10.4,424.7,824.4)" />
<use xlink:href="#f3_1z" transform="matrix(10.4,0,0,10.4,433.5,824.4)" />
<use xlink:href="#f3_2e" transform="matrix(10.4,0,0,10.4,441.5,824.4)" />
<use xlink:href="#f3_21" transform="matrix(10.4,0,0,10.4,446.8,824.4)" />
<use xlink:href="#f3_1x" transform="matrix(10.4,0,0,10.4,455.6,824.4)" />
<use xlink:href="#f3_2f" transform="matrix(10.4,0,0,10.4,464.4,824.4)" />
<use xlink:href="#f3_25" transform="matrix(10.4,0,0,10.4,472.5,824.4)" />
<use xlink:href="#f3_2a" transform="matrix(10.4,0,0,10.4,476,824.4)" />
<use xlink:href="#f3_23" transform="matrix(10.4,0,0,10.4,484.8,824.4)" />
<use xlink:href="#f3_2b" transform="matrix(10.4,0,0,10.4,498.9,824.4)" />
<use xlink:href="#f3_2e" transform="matrix(10.4,0,0,10.4,507.7,824.4)" />
<use xlink:href="#f3_20" transform="matrix(10.4,0,0,10.4,513,824.4)" />
<use xlink:href="#f3_21" transform="matrix(10.4,0,0,10.4,521.8,824.4)" />
<use xlink:href="#f3_2e" transform="matrix(10.4,0,0,10.4,530.6,824.4)" />
<use xlink:href="#f3_2b" transform="matrix(10.4,0,0,10.4,541.2,824.4)" />
<use xlink:href="#f3_22" transform="matrix(10.4,0,0,10.4,550,824.4)" />
<use xlink:href="#f3_2g" transform="matrix(10.4,0,0,10.4,559.9,824.4)" />
<use xlink:href="#f3_24" transform="matrix(10.4,0,0,10.4,564.3,824.4)" />
<use xlink:href="#f3_21" transform="matrix(10.4,0,0,10.4,573.1,824.4)" />
<use xlink:href="#f3_22" transform="matrix(10.4,0,0,10.4,587.3,824.4)" />
<use xlink:href="#f3_2e" transform="matrix(10.4,0,0,10.4,591.8,824.4)" />
<use xlink:href="#f3_1x" transform="matrix(10.4,0,0,10.4,597.1,824.4)" />
<use xlink:href="#f3_1z" transform="matrix(10.4,0,0,10.4,606,824.4)" />
<use xlink:href="#f3_2g" transform="matrix(10.4,0,0,10.4,614,824.4)" />
<use xlink:href="#f3_25" transform="matrix(10.4,0,0,10.4,618.4,824.4)" />
<use xlink:href="#f3_2b" transform="matrix(10.4,0,0,10.4,621.9,824.4)" />
<use xlink:href="#f3_2a" transform="matrix(10.4,0,0,10.4,630.7,824.4)" />
<use xlink:href="#f3_2b" transform="matrix(10.4,0,0,10.4,103.3,845.3)" />
<use xlink:href="#f3_22" transform="matrix(10.4,0,0,10.4,112.1,845.3)" />
<use xlink:href="#f3_2g" transform="matrix(10.4,0,0,10.4,125.1,845.3)" />
<use xlink:href="#f3_24" transform="matrix(10.4,0,0,10.4,129.5,845.3)" />
<use xlink:href="#f3_21" transform="matrix(10.4,0,0,10.4,138.3,845.3)" />
<use xlink:href="#f3_2h" transform="matrix(10.4,0,0,10.4,155.7,845.3)" />
<use xlink:href="#f3_2a" transform="matrix(10.4,0,0,10.4,164.5,845.3)" />
<use xlink:href="#f3_2b" transform="matrix(10.4,0,0,10.4,173.3,845.3)" />
<use xlink:href="#f3_1z" transform="matrix(10.4,0,0,10.4,182.1,845.3)" />
<use xlink:href="#f3_1z" transform="matrix(10.4,0,0,10.4,190.2,845.3)" />
<use xlink:href="#f3_2h" transform="matrix(10.4,0,0,10.4,198.3,845.3)" />
<use xlink:href="#f3_2c" transform="matrix(10.4,0,0,10.4,207.1,845.3)" />
<use xlink:href="#f3_25" transform="matrix(10.4,0,0,10.4,215.9,845.3)" />
<use xlink:href="#f3_21" transform="matrix(10.4,0,0,10.4,219.4,845.3)" />
<use xlink:href="#f3_20" transform="matrix(10.4,0,0,10.4,228.2,845.3)" />
<use xlink:href="#f3_2f" transform="matrix(10.4,0,0,10.4,245.4,845.3)" />
<use xlink:href="#f3_2c" transform="matrix(10.4,0,0,10.4,253.4,845.3)" />
<use xlink:href="#f3_1x" transform="matrix(10.4,0,0,10.4,262.2,845.3)" />
<use xlink:href="#f3_1z" transform="matrix(10.4,0,0,10.4,271,845.3)" />
<use xlink:href="#f3_21" transform="matrix(10.4,0,0,10.4,279.1,845.3)" />
<use xlink:href="#f3_i" transform="matrix(10.4,0,0,10.4,287.9,845.3)" />
<use xlink:href="#f3_1r" transform="matrix(10.4,0,0,10.4,103.3,875.2)" />
<use xlink:href="#f2_18" transform="matrix(10.4,0,0,10.4,107.7,875.2)" />
<use xlink:href="#f2_25" transform="matrix(10.4,0,0,10.4,119.3,875.2)" />
<use xlink:href="#f2_2a" transform="matrix(10.4,0,0,10.4,123.7,875.2)" />
<use xlink:href="#f2_2g" transform="matrix(10.4,0,0,10.4,133.4,875.2)" />
<use xlink:href="#f2_i" transform="matrix(10.4,0,0,10.4,138.7,875.2)" />
<use xlink:href="#f2_u" transform="matrix(10.4,0,0,10.4,150.1,875.2)" />
<use xlink:href="#f3_22" transform="matrix(10.4,0,0,10.4,162.5,875.2)" />
<use xlink:href="#f3_1z" transform="matrix(10.4,0,0,10.4,167.1,875.2)" />
<use xlink:href="#f3_1z" transform="matrix(10.4,0,0,10.4,175.2,875.2)" />
<use xlink:href="#f3_w" transform="matrix(10.4,0,0,10.4,190.2,875.2)" />
<use xlink:href="#f3_1y" transform="matrix(10.4,0,0,10.4,206.5,875.2)" />
<use xlink:href="#f3_1z" transform="matrix(10.4,0,0,10.4,215.3,875.2)" />
<use xlink:href="#f3_1z" transform="matrix(10.4,0,0,10.4,223.4,875.2)" />
<use xlink:href="#f3_w" transform="matrix(10.4,0,0,10.4,238.4,875.2)" />
<use xlink:href="#f3_2f" transform="matrix(10.4,0,0,10.4,254.7,875.2)" />
<use xlink:href="#f3_1z" transform="matrix(10.4,0,0,10.4,262.8,875.2)" />
<use xlink:href="#f3_1t" transform="matrix(10.4,0,0,10.4,270.9,875.2)" />
<use xlink:href="#f3_l" transform="matrix(10.4,0,0,10.4,60,905.2)" />
<use xlink:href="#f3_o" transform="matrix(10.4,0,0,10.4,69.2,905.2)" />
<use xlink:href="#f3_i" transform="matrix(10.4,0,0,10.4,78.6,905.2)" />
<use xlink:href="#f3_18" transform="matrix(10.4,0,0,10.4,103.3,905.2)" />
<use xlink:href="#f3_2b" transform="matrix(10.4,0,0,10.4,114.9,905.2)" />
<use xlink:href="#f3_2j" transform="matrix(10.4,0,0,10.4,123.7,905.2)" />
<use xlink:href="#f3_29" transform="matrix(10.4,0,0,10.4,142.2,905.2)" />
<use xlink:href="#f3_2h" transform="matrix(10.4,0,0,10.4,155.7,905.2)" />
<use xlink:href="#f3_1z" transform="matrix(10.4,0,0,10.4,164.5,905.2)" />
<use xlink:href="#f3_24" transform="matrix(10.4,0,0,10.4,172.6,905.2)" />
<use xlink:href="#f3_2f" transform="matrix(10.4,0,0,10.4,188.7,905.2)" />
<use xlink:href="#f3_2c" transform="matrix(10.4,0,0,10.4,196.8,905.2)" />
<use xlink:href="#f3_1x" transform="matrix(10.4,0,0,10.4,205.6,905.2)" />
<use xlink:href="#f3_1z" transform="matrix(10.4,0,0,10.4,214.4,905.2)" />
<use xlink:href="#f3_21" transform="matrix(10.4,0,0,10.4,222.5,905.2)" />
<use xlink:href="#f3_25" transform="matrix(10.4,0,0,10.4,238.8,905.2)" />
<use xlink:href="#f3_2f" transform="matrix(10.4,0,0,10.4,242.3,905.2)" />
<use xlink:href="#f3_21" transform="matrix(10.4,0,0,10.4,257.7,905.2)" />
<use xlink:href="#f3_29" transform="matrix(10.4,0,0,10.4,266.5,905.2)" />
<use xlink:href="#f3_2c" transform="matrix(10.4,0,0,10.4,280,905.2)" />
<use xlink:href="#f3_2g" transform="matrix(10.4,0,0,10.4,288.8,905.2)" />
<use xlink:href="#f3_2l" transform="matrix(10.4,0,0,10.4,293.2,905.2)" />
<use xlink:href="#f3_25" transform="matrix(10.4,0,0,10.4,308.1,905.2)" />
<use xlink:href="#f3_2a" transform="matrix(10.4,0,0,10.4,311.5,905.2)" />
<use xlink:href="#f3_1x" transform="matrix(10.4,0,0,10.4,327.7,905.2)" />
<use xlink:href="#f3_24" transform="matrix(10.4,0,0,10.4,343.8,905.2)" />
<use xlink:href="#f3_21" transform="matrix(10.4,0,0,10.4,352.6,905.2)" />
<use xlink:href="#f3_2k" transform="matrix(10.4,0,0,10.4,361.4,905.2)" />
<use xlink:href="#f3_1x" transform="matrix(10.4,0,0,10.4,369.3,905.2)" />
<use xlink:href="#f3_23" transform="matrix(10.4,0,0,10.4,378.1,905.2)" />
<use xlink:href="#f3_2b" transform="matrix(10.4,0,0,10.4,386.9,905.2)" />
<use xlink:href="#f3_2a" transform="matrix(10.4,0,0,10.4,395.7,905.2)" />
<use xlink:href="#f3_1x" transform="matrix(10.4,0,0,10.4,404.5,905.2)" />
<use xlink:href="#f3_28" transform="matrix(10.4,0,0,10.4,413.3,905.2)" />
<use xlink:href="#f3_1z" transform="matrix(10.4,0,0,10.4,424.3,905.2)" />
<use xlink:href="#f3_28" transform="matrix(10.4,0,0,10.4,432.4,905.2)" />
<use xlink:href="#f3_2b" transform="matrix(10.4,0,0,10.4,435.8,905.2)" />
<use xlink:href="#f3_2f" transform="matrix(10.4,0,0,10.4,444.6,905.2)" />
<use xlink:href="#f3_21" transform="matrix(10.4,0,0,10.4,452.7,905.2)" />
<use xlink:href="#f3_20" transform="matrix(10.4,0,0,10.4,461.5,905.2)" />
<use xlink:href="#f3_2c" transform="matrix(10.4,0,0,10.4,477.6,905.2)" />
<use xlink:href="#f3_1x" transform="matrix(10.4,0,0,10.4,486.4,905.2)" />
<use xlink:href="#f3_1z" transform="matrix(10.4,0,0,10.4,495.2,905.2)" />
<use xlink:href="#f3_27" transform="matrix(10.4,0,0,10.4,503.3,905.2)" />
<use xlink:href="#f3_21" transform="matrix(10.4,0,0,10.4,511.4,905.2)" />
<use xlink:href="#f3_20" transform="matrix(10.4,0,0,10.4,520.2,905.2)" />
<use xlink:href="#f3_2f" transform="matrix(10.4,0,0,10.4,536.3,905.2)" />
<use xlink:href="#f3_2b" transform="matrix(10.4,0,0,10.4,544.4,905.2)" />
<use xlink:href="#f3_28" transform="matrix(10.4,0,0,10.4,553.2,905.2)" />
<use xlink:href="#f3_25" transform="matrix(10.4,0,0,10.4,556.6,905.2)" />
<use xlink:href="#f3_20" transform="matrix(10.4,0,0,10.4,560.1,905.2)" />
<use xlink:href="#f3_z" transform="matrix(10.4,0,0,10.4,568.9,905.2)" />
<use xlink:href="#f4_l" transform="matrix(12,0,0,12,683.9,1048)" />
</g>
<g fill="#0080FF" fill-opacity="0.5" >
<use xlink:href="#f0_1c" transform="matrix(37.9,0,0,37.9,181.6,1041.5)" />
<use xlink:href="#f0_21" transform="matrix(37.9,0,0,37.9,213.7,1041.5)" />
<use xlink:href="#f0_1x" transform="matrix(37.9,0,0,37.9,245.9,1041.5)" />
<use xlink:href="#f0_2e" transform="matrix(37.9,0,0,37.9,278,1041.5)" />
<use xlink:href="#f0_2a" transform="matrix(37.9,0,0,37.9,297.3,1041.5)" />
<use xlink:href="#f0_17" transform="matrix(37.9,0,0,37.9,329.4,1041.5)" />
<use xlink:href="#f0_2h" transform="matrix(37.9,0,0,37.9,374.4,1041.5)" />
<use xlink:href="#f0_25" transform="matrix(37.9,0,0,37.9,406.6,1041.5)" />
<use xlink:href="#f0_20" transform="matrix(37.9,0,0,37.9,419.4,1041.5)" />
<use xlink:href="#f0_21" transform="matrix(37.9,0,0,37.9,451.6,1041.5)" />
<use xlink:href="#f0_i" transform="matrix(37.9,0,0,37.9,483.7,1041.5)" />
<use xlink:href="#f0_25" transform="matrix(37.9,0,0,37.9,499.8,1041.5)" />
<use xlink:href="#f0_2a" transform="matrix(37.9,0,0,37.9,512.6,1041.5)" />
</g>
<defs>
<path d="M593,101c0,0,182,0,279,112c0,0,98,113,98,318c0,0,0,196,-98,308c0,0,-98,112,-277,112c0,0,-181,0,-279,-110c0,0,-99,-111,-99,-310c0,0,0,-198,100,-314c0,0,99,-116,276,-116Zm0,-115c0,0,-162,0,-279,65c0,0,-118,66,-180,190c0,0,-62,124,-62,290c0,0,0,252,138,394c0,0,138,142,385,142c0,0,160,0,278,-64c0,0,118,-64,180,-185c0,0,62,-122,62,-287c0,0,0,-165,-63,-289c0,0,-63,-124,-181,-190c0,0,-118,-66,-278,-66Z" 
id="f0_1f"
transform="scale(0.001,-0.001)" />

<path d="M106,0V635c0,0,0,141,-5,173H228c0,0,1,-4,2,-21c0,0,1,-16,2,-37c0,0,1,-22,2,-81h2c0,0,47,84,108,119c0,0,60,34,151,34c0,0,132,0,194,-66c0,0,61,-66,61,-218V0H615V512c0,0,0,80,-15,124c0,0,-16,44,-50,63c0,0,-35,20,-101,20c0,0,-97,0,-153,-67c0,0,-56,-66,-56,-184V0Z" 
id="f0_2a"
transform="scale(0.001,-0.001)" />

<path d="M103,0V1107H237V0Z" 
id="f0_28"
transform="scale(0.001,-0.001)" />

<path d="M102,0V808H236V0Zm0,979v128H236V979Z" 
id="f0_25"
transform="scale(0.001,-0.001)" />

<path d="M643,478c0,0,-11,128,-65,187c0,0,-54,59,-154,59c0,0,-98,0,-155,-66c0,0,-57,-65,-62,-180ZM431,-14c0,0,-179,0,-272,106c0,0,-94,107,-94,317c0,0,0,200,94,307c0,0,93,106,267,106c0,0,356,0,356,-429V375H206c0,0,0,-138,57,-213c0,0,58,-75,168,-75c0,0,87,0,140,35c0,0,53,35,71,88L760,177c0,0,-72,-191,-329,-191Z" 
id="f0_21"
transform="scale(0.001,-0.001)" />

<path d="M17,0L304,415L31,808H179L380,493L580,808H730L457,417L747,0H598L380,331L162,0Z" 
id="f0_2k"
transform="scale(0.001,-0.001)" />

<path d="M339,87c0,0,74,0,132,34c0,0,57,33,90,91c0,0,34,59,34,121v66L448,396c0,0,-95,-2,-144,-19c0,0,-49,-18,-75,-55c0,0,-26,-38,-26,-98c0,0,0,-65,35,-101c0,0,36,-36,101,-36ZM309,-14c0,0,-122,0,-183,64c0,0,-61,64,-61,176c0,0,0,125,82,192c0,0,83,67,266,72l182,3v44c0,0,0,98,-42,141c0,0,-42,43,-132,43c0,0,-90,0,-131,-31c0,0,-41,-31,-49,-98L101,604c0,0,34,218,323,218c0,0,153,0,229,-70c0,0,77,-69,77,-202V202c0,0,0,-59,16,-90c0,0,16,-30,60,-30c0,0,19,0,44,5V4C850,4,799,-7,746,-7c0,0,-75,0,-109,38c0,0,-33,40,-38,124h-4C595,155,543,62,475,24c0,0,-68,-38,-166,-38Z" 
id="f0_1x"
transform="scale(0.001,-0.001)" />

<path d="M106,0V635c0,0,0,141,-5,173H228c0,0,1,-4,2,-21c0,0,1,-16,2,-37c0,0,1,-22,2,-81h2c0,0,44,86,100,120c0,0,56,33,136,33c0,0,92,0,145,-36c0,0,54,-37,75,-117h2c0,0,42,82,101,117c0,0,59,36,143,36c0,0,123,0,178,-66c0,0,56,-67,56,-218V0H1039V512c0,0,0,117,-32,162c0,0,-32,45,-116,45c0,0,-88,0,-136,-66c0,0,-49,-65,-49,-185V0H573V512c0,0,0,117,-32,162c0,0,-32,45,-116,45c0,0,-86,0,-136,-66c0,0,-50,-66,-50,-185V0Z" 
id="f0_29"
transform="scale(0.001,-0.001)" />

<path d="M453,84c0,0,100,0,146,74c0,0,46,73,46,247c0,0,0,169,-46,241c0,0,-45,73,-145,73c0,0,-80,0,-125,-34c0,0,-45,-34,-68,-105c0,0,-24,-71,-24,-186c0,0,0,-159,51,-234c0,0,51,-76,165,-76ZM103,-316V643c0,0,0,124,-5,165H228c0,0,1,-3,3,-22c0,0,1,-18,3,-56c0,0,2,-38,2,-52h3c0,0,36,75,94,110c0,0,59,34,156,34c0,0,149,0,223,-100c0,0,74,-100,74,-314c0,0,0,-422,-297,-422c0,0,-187,0,-251,140h-4c0,0,3,-6,3,-126V-316Z" 
id="f0_2c"
transform="scale(0.001,-0.001)" />

<path d="M420,84c0,0,121,0,173,78c0,0,52,77,52,243c0,0,0,167,-50,243c0,0,-50,76,-167,76c0,0,-118,0,-170,-78c0,0,-53,-77,-53,-241c0,0,0,-160,52,-241c0,0,52,-80,163,-80Zm1,-98c0,0,-176,0,-267,107c0,0,-90,108,-90,312c0,0,0,417,362,417c0,0,185,0,272,-102c0,0,88,-101,88,-315c0,0,0,-212,-94,-316C692,89,599,-14,421,-14Z" 
id="f0_2b"
transform="scale(0.001,-0.001)" />

<path d="M278,-11c0,0,-162,0,-162,182V710H23v98h99l39,181h90V808H400V710H251V200c0,0,0,-58,19,-82c0,0,19,-23,66,-23c0,0,27,0,77,10V6c0,0,-66,-17,-135,-17Z" 
id="f0_2g"
transform="scale(0.001,-0.001)" />

<path d="M571,-18c0,0,-218,0,-358,148C213,130,72,279,72,537c0,0,0,273,141,425c0,0,141,151,371,151c0,0,201,0,326,-119c0,0,75,-70,112,-202L803,740c0,0,-19,85,-81,135c0,0,-61,49,-149,49c0,0,-122,0,-197,-87c0,0,-76,-88,-76,-283c0,0,0,-208,75,-296c0,0,74,-88,194,-88c0,0,88,0,151,56c0,0,63,56,91,177l214,-68c0,0,-49,-179,-164,-266c0,0,-114,-87,-290,-87Z" 
id="f1_13"
transform="scale(0.001,-0.001)" />

<path d="M109,0V1093H318V691c0,0,101,120,243,120c0,0,72,0,131,-27c0,0,58,-27,87,-69c0,0,30,-42,41,-93c0,0,11,-50,11,-157V0H621V419c0,0,0,124,-12,158c0,0,-12,34,-42,53c0,0,-30,20,-76,20c0,0,-53,0,-94,-25c0,0,-41,-26,-60,-77c0,0,-19,-51,-19,-151V0Z" 
id="f1_24"
transform="scale(0.001,-0.001)" />

<path d="M380,130c0,0,57,0,108,37c0,0,38,29,50,70c0,0,9,27,9,102v42c0,0,-41,-13,-128,-32c0,0,-87,-19,-114,-36c0,0,-41,-30,-41,-74c0,0,0,-45,33,-77c0,0,33,-32,83,-32ZM318,-17c0,0,-122,0,-193,66c0,0,-70,66,-70,168c0,0,0,67,32,120c0,0,32,53,90,81c0,0,57,28,166,49c0,0,147,27,204,51v21c0,0,0,60,-30,86c0,0,-30,25,-112,25c0,0,-56,0,-87,-22c0,0,-32,-22,-51,-77L76,586c0,0,32,114,111,169c0,0,78,56,232,56c0,0,141,0,209,-34c0,0,69,-33,97,-84c0,0,28,-51,28,-188L750,260c0,0,0,-104,10,-154c0,0,10,-49,38,-106H591c0,0,-9,21,-21,62c0,0,-5,19,-7,25C563,87,509,35,448,8c0,0,-61,-25,-130,-25Z" 
id="f1_1x"
transform="scale(0.001,-0.001)" />

<path d="M493,149c0,0,73,0,122,58c0,0,48,59,48,193c0,0,0,124,-50,185c0,0,-50,60,-124,60c0,0,-77,0,-128,-59c0,0,-51,-59,-51,-176c0,0,0,-134,53,-198c0,0,53,-63,130,-63ZM104,-300V792H299V676c0,0,38,59,103,97c0,0,65,38,144,38c0,0,138,0,234,-109c0,0,97,-108,97,-301c0,0,0,-199,-98,-309C779,92,682,-17,544,-17c0,0,-65,0,-119,26c0,0,-53,26,-112,89V-300Z" 
id="f1_2c"
transform="scale(0.001,-0.001)" />

<path d="M324,-17c0,0,-57,0,-102,18c0,0,-45,19,-67,50c0,0,-21,30,-29,81c0,0,-7,37,-7,148V625H23V792h96V949l210,124V792H471V625H329V306c0,0,0,-97,4,-113c0,0,4,-16,18,-26c0,0,15,-11,36,-11c0,0,29,0,84,21L489,14c0,0,-73,-31,-165,-31Z" 
id="f1_2g"
transform="scale(0.001,-0.001)" />

<path d="M580,464c0,0,-2,91,-47,139c0,0,-45,47,-108,47c0,0,-69,0,-113,-50c0,0,-45,-50,-44,-136ZM433,-17c0,0,-207,0,-306,134c0,0,-78,109,-78,274c0,0,0,196,103,308c0,0,103,112,260,112c0,0,176,0,278,-117c0,0,103,-117,98,-358H264c0,0,2,-93,51,-145c0,0,48,-52,120,-52c0,0,49,0,83,27c0,0,33,27,50,86L777,217C777,217,737,102,650,42c0,0,-87,-59,-217,-59Z" 
id="f1_21"
transform="scale(0.001,-0.001)" />

<path d="M101,0V792H295V679c0,0,50,80,90,106c0,0,40,26,91,26c0,0,72,0,138,-40L549,589c0,0,-53,34,-99,34c0,0,-44,0,-74,-24c0,0,-31,-25,-48,-88c0,0,-18,-64,-18,-266V0Z" 
id="f1_2e"
transform="scale(0.001,-0.001)" />

<path d="M60,305V487H448V305Z" 
id="f2_h"
transform="scale(0.001,-0.001)" />

<path d="M96,0V155H357V873L104,716V881l264,170H566V155H807V0Z" 
id="f2_l"
transform="scale(0.001,-0.001)" />

<path d="M357,0V881H17v170H917V881H577V0Z" 
id="f2_1k"
transform="scale(0.001,-0.001)" />

<path d="M102,0V1051H322V633H780v418h220V0H780V451H322V0Z" 
id="f2_18"
transform="scale(0.001,-0.001)" />

<path d="M102,0V1051H929V881H322V617H883V447H322V170H959V0Z" 
id="f2_15"
transform="scale(0.001,-0.001)" />

<path d="M509,-14c0,0,-202,0,-317,71C192,57,77,129,44,274l213,35c0,0,21,-83,84,-121c0,0,63,-37,174,-37c0,0,230,0,230,139c0,0,0,45,-26,74c0,0,-27,29,-75,49c0,0,-48,19,-184,47c0,0,-118,27,-165,44c0,0,-46,17,-83,40c0,0,-37,22,-64,54c0,0,-26,32,-40,76c0,0,-15,43,-15,99c0,0,0,142,107,218c0,0,107,76,312,76c0,0,195,0,293,-61c0,0,98,-62,127,-203L718,774c0,0,-16,68,-66,103c0,0,-51,34,-145,34c0,0,-200,0,-200,-125c0,0,0,-41,22,-68c0,0,21,-26,63,-44c0,0,41,-18,169,-46c0,0,151,-32,217,-59c0,0,65,-27,103,-63c0,0,38,-37,58,-87c0,0,20,-50,20,-116c0,0,0,-154,-114,-236c0,0,-115,-81,-336,-81Z" 
id="f2_1j"
transform="scale(0.001,-0.001)" />

<path d="M592,158c0,0,147,0,227,97c0,0,81,97,81,276c0,0,0,170,-81,266c0,0,-80,97,-226,97c0,0,-148,0,-228,-96c0,0,-81,-96,-81,-267c0,0,0,-173,83,-273c0,0,82,-100,225,-100Zm0,-172c0,0,-248,0,-389,145C203,131,63,277,63,531c0,0,0,252,140,394c0,0,140,142,390,142c0,0,250,0,391,-143c0,0,140,-144,140,-393c0,0,0,-165,-65,-289c0,0,-65,-125,-185,-191c0,0,-121,-65,-282,-65Z" 
id="f2_1f"
transform="scale(0.001,-0.001)" />

<path d="M102,0V1051H322V170H886V0Z" 
id="f2_1c"
transform="scale(0.001,-0.001)" />

<path d="M102,0V1051H322V0Z" 
id="f2_19"
transform="scale(0.001,-0.001)" />

<path d="M509,170c0,0,141,0,225,98c0,0,84,98,84,265c0,0,0,170,-88,259c0,0,-88,89,-252,89H322V170ZM102,0V1051H483c0,0,265,0,411,-134c0,0,145,-134,145,-384c0,0,0,-162,-64,-283C975,250,912,128,795,64C795,64,678,0,527,0Z" 
id="f2_14"
transform="scale(0.001,-0.001)" />

<path d="M703,434L599,736L567,838l-16,51l-4,-16c0,0,-8,-27,-18,-61c0,0,-11,-35,-128,-378ZM38,0L421,1051H681L1063,0H845L752,269H351L258,0Z" 
id="f2_11"
transform="scale(0.001,-0.001)" />

<path d="M592,157c0,0,147,0,227,97c0,0,81,97,81,276c0,0,0,171,-81,267c0,0,-80,97,-226,97c0,0,-148,0,-228,-96c0,0,-81,-96,-81,-268c0,0,0,-173,82,-273c0,0,82,-100,226,-100ZM840,-300c0,0,-122,0,-201,68c0,0,-80,68,-129,225c0,0,-212,19,-330,161C180,154,63,297,63,530c0,0,0,253,140,395c0,0,140,142,390,142c0,0,250,0,391,-143c0,0,140,-144,140,-394c0,0,0,-210,-103,-350C1021,180,918,40,733,3c0,0,26,-73,72,-106c0,0,45,-33,128,-33c0,0,44,0,89,8l-1,-151c0,0,-94,-21,-181,-21Z" 
id="f2_1h"
transform="scale(0.001,-0.001)" />

<path d="M539,-14c0,0,-217,0,-332,105C207,91,92,197,92,394v657H312V411c0,0,0,-125,59,-189c0,0,59,-65,174,-65c0,0,118,0,182,68c0,0,63,67,63,194v632h220V405c0,0,0,-200,-123,-310C887,95,763,-14,539,-14Z" 
id="f2_1l"
transform="scale(0.001,-0.001)" />

<path d="M102,0V1051H354L818,235c0,0,-13,113,-13,205v611h195V0H742L284,809c0,0,14,-117,14,-189V0Z" 
id="f2_1e"
transform="scale(0.001,-0.001)" />

<path d="M399,0L10,1051H240L457,376c0,0,20,-66,55,-198l15,64l38,134l216,675h228L622,0Z" 
id="f2_1m"
transform="scale(0.001,-0.001)" />

<path d="M298,-316c0,0,-117,169,-170,336c0,0,-52,167,-52,376c0,0,0,208,52,376c0,0,53,167,170,335H507c0,0,-118,-170,-171,-339c0,0,-53,-168,-53,-373c0,0,0,-203,53,-371c0,0,53,-166,171,-340Z" 
id="f2_c"
transform="scale(0.001,-0.001)" />

<path d="M102,0V1051H397L585,463l16,-56L637,266l47,168l193,617h293V0H975V637c0,0,0,22,0,43c0,0,1,22,7,186c0,0,-52,-201,-78,-280L715,0H558L369,586L289,866c0,0,9,-173,9,-229V0Z" 
id="f2_1d"
transform="scale(0.001,-0.001)" />

<path d="M610,569c0,0,93,0,140,42c0,0,48,42,48,118c0,0,0,152,-194,152H322V569ZM102,0V1051H627c0,0,188,0,291,-81c0,0,102,-81,102,-232c0,0,0,-111,-63,-191c0,0,-63,-80,-169,-106L1072,0H824L580,399H322V0Z" 
id="f2_1i"
transform="scale(0.001,-0.001)" />

<path d="M102,0V1051H322V574l474,477h257L604,606L1089,0H830L452,483L322,383V0Z" 
id="f2_1b"
transform="scale(0.001,-0.001)" />

<path d="M1,-316c0,0,120,175,172,340c0,0,53,167,53,371c0,0,0,205,-54,374c0,0,-53,169,-171,338H211c0,0,118,-169,170,-337c0,0,52,-168,52,-374c0,0,0,-207,-52,-375c0,0,-52,-167,-170,-337Z" 
id="f2_d"
transform="scale(0.001,-0.001)" />

<path d="M116,0V114H384V923L147,754V881l248,170H519V114H775V0Z" 
id="f3_l"
transform="scale(0.001,-0.001)" />

<path d="M140,0V163H285V0Z" 
id="f3_i"
transform="scale(0.001,-0.001)" />

<path d="M316,0L7,1051H155L344,383c0,0,33,-125,62,-258c0,0,18,82,41,179c0,0,24,97,207,747H791L974,397c0,0,41,-160,65,-272l7,26c0,0,20,86,33,140c0,0,12,54,209,760h149L1127,0H957L775,668c0,0,-18,62,-52,224c0,0,-20,-86,-33,-145C690,747,677,689,486,0Z" 
id="f3_1n"
transform="scale(0.001,-0.001)" />

<path d="M615,0V512c0,0,0,85,-15,126c0,0,-16,42,-52,61c0,0,-36,20,-99,20c0,0,-95,0,-152,-66c0,0,-57,-66,-57,-177V0H106V1107H240V819c0,0,0,-45,-2,-94c0,0,-3,-48,-4,-56h2c0,0,44,79,105,116c0,0,60,37,154,37c0,0,131,0,193,-65c0,0,62,-65,62,-219V0Z" 
id="f3_24"
transform="scale(0.001,-0.001)" />

<path d="M339,87c0,0,74,0,132,34c0,0,57,33,90,91c0,0,34,59,34,121v66L448,396c0,0,-95,-2,-144,-19c0,0,-49,-18,-75,-55c0,0,-26,-38,-26,-98c0,0,0,-65,35,-101c0,0,36,-36,101,-36ZM309,-14c0,0,-122,0,-183,64c0,0,-61,64,-61,176c0,0,0,125,82,192c0,0,83,67,266,72l182,3v44c0,0,0,98,-42,141c0,0,-42,43,-132,43c0,0,-90,0,-131,-31c0,0,-41,-31,-49,-98L101,604c0,0,34,218,323,218c0,0,153,0,229,-70c0,0,77,-69,77,-202V202c0,0,0,-59,16,-90c0,0,16,-30,60,-30c0,0,19,0,44,5V4C850,4,799,-7,746,-7c0,0,-75,0,-109,38c0,0,-33,40,-38,124h-4C595,155,543,62,475,24c0,0,-68,-38,-166,-38Z" 
id="f3_1x"
transform="scale(0.001,-0.001)" />

<path d="M278,-11c0,0,-162,0,-162,182V710H23v98h99l39,181h90V808H400V710H251V200c0,0,0,-58,19,-82c0,0,19,-23,66,-23c0,0,27,0,77,10V6c0,0,-66,-17,-135,-17Z" 
id="f3_2g"
transform="scale(0.001,-0.001)" />

<path d="M106,0V620c0,0,0,85,-5,188H228c0,0,6,-138,6,-165h3c0,0,32,103,74,141c0,0,42,38,118,38c0,0,27,0,54,-7V692c0,0,-26,7,-71,7c0,0,-84,0,-128,-72c0,0,-44,-72,-44,-206V0Z" 
id="f3_2e"
transform="scale(0.001,-0.001)" />

<path d="M643,478c0,0,-11,128,-65,187c0,0,-54,59,-154,59c0,0,-98,0,-155,-66c0,0,-57,-65,-62,-180ZM431,-14c0,0,-179,0,-272,106c0,0,-94,107,-94,317c0,0,0,200,94,307c0,0,93,106,267,106c0,0,356,0,356,-429V375H206c0,0,0,-138,57,-213c0,0,58,-75,168,-75c0,0,87,0,140,35c0,0,53,35,71,88L760,177c0,0,-72,-191,-329,-191Z" 
id="f3_21"
transform="scale(0.001,-0.001)" />

<path d="M106,0V635c0,0,0,141,-5,173H228c0,0,1,-4,2,-21c0,0,1,-16,2,-37c0,0,1,-22,2,-81h2c0,0,47,84,108,119c0,0,60,34,151,34c0,0,132,0,194,-66c0,0,61,-66,61,-218V0H615V512c0,0,0,80,-15,124c0,0,-16,44,-50,63c0,0,-35,20,-101,20c0,0,-97,0,-153,-67c0,0,-56,-66,-56,-184V0Z" 
id="f3_2a"
transform="scale(0.001,-0.001)" />

<path d="M102,0V808H236V0Zm0,979v128H236V979Z" 
id="f3_25"
transform="scale(0.001,-0.001)" />

<path d="M381,-14c0,0,-150,0,-232,49C149,35,67,85,43,190l118,23c0,0,17,-65,71,-96c0,0,54,-30,149,-30c0,0,102,0,150,31c0,0,47,32,47,95c0,0,0,47,-33,77c0,0,-33,30,-106,49l-96,26c0,0,-115,30,-164,58c0,0,-49,29,-77,70c0,0,-27,41,-27,101c0,0,0,110,78,168c0,0,79,57,230,57c0,0,133,0,212,-47c0,0,79,-47,100,-150L574,607c0,0,-12,53,-60,82c0,0,-49,29,-131,29c0,0,-91,0,-135,-28c0,0,-43,-27,-43,-83c0,0,0,-34,18,-57c0,0,18,-22,53,-38c0,0,35,-15,148,-43c0,0,106,-27,153,-50c0,0,47,-22,75,-50c0,0,27,-27,42,-64c0,0,15,-36,15,-82c0,0,0,-114,-86,-176c0,0,-87,-61,-242,-61Z" 
id="f3_2f"
transform="scale(0.001,-0.001)" />

<path d="M420,84c0,0,121,0,173,78c0,0,52,77,52,243c0,0,0,167,-50,243c0,0,-50,76,-167,76c0,0,-118,0,-170,-78c0,0,-53,-77,-53,-241c0,0,0,-160,52,-241c0,0,52,-80,163,-80Zm1,-98c0,0,-176,0,-267,107c0,0,-90,108,-90,312c0,0,0,417,362,417c0,0,185,0,272,-102c0,0,88,-101,88,-315c0,0,0,-212,-94,-316C692,89,599,-14,421,-14Z" 
id="f3_2b"
transform="scale(0.001,-0.001)" />

<path d="M453,84c0,0,100,0,146,74c0,0,46,73,46,247c0,0,0,169,-46,241c0,0,-45,73,-145,73c0,0,-80,0,-125,-34c0,0,-45,-34,-68,-105c0,0,-24,-71,-24,-186c0,0,0,-159,51,-234c0,0,51,-76,165,-76ZM103,-316V643c0,0,0,124,-5,165H228c0,0,1,-3,3,-22c0,0,1,-18,3,-56c0,0,2,-38,2,-52h3c0,0,36,75,94,110c0,0,59,34,156,34c0,0,149,0,223,-100c0,0,74,-100,74,-314c0,0,0,-422,-297,-422c0,0,-187,0,-251,140h-4c0,0,3,-6,3,-126V-316Z" 
id="f3_2c"
transform="scale(0.001,-0.001)" />

<path d="M413,-14c0,0,-170,0,-259,106c0,0,-89,107,-89,313c0,0,0,203,89,310c0,0,90,107,257,107c0,0,124,0,206,-64c0,0,81,-64,102,-177L581,571c0,0,-10,67,-53,106c0,0,-42,40,-121,40c0,0,-106,0,-154,-71c0,0,-48,-71,-48,-239c0,0,0,-161,51,-238c0,0,51,-78,153,-78c0,0,71,0,120,39c0,0,48,39,59,119l136,-9C724,240,708,124,624,55c0,0,-83,-69,-211,-69Z" 
id="f3_1z"
transform="scale(0.001,-0.001)" />

<path d="M355,-14c0,0,-133,0,-194,65c0,0,-62,66,-62,219V808H234V296c0,0,0,-80,16,-124c0,0,16,-44,50,-64c0,0,34,-19,101,-19c0,0,97,0,153,66c0,0,55,67,55,185V808H744V172c0,0,0,-141,4,-172H621c0,0,0,4,-1,20c0,0,-1,17,-2,38c0,0,-1,21,-3,80h-2C613,138,567,55,506,20c0,0,-61,-34,-151,-34Z" 
id="f3_2h"
transform="scale(0.001,-0.001)" />

<path d="M453,84c0,0,101,0,146,75c0,0,46,75,46,244c0,0,0,169,-45,243c0,0,-45,73,-146,73c0,0,-113,0,-165,-78c0,0,-52,-78,-52,-246c0,0,0,-159,51,-235c0,0,51,-76,165,-76Zm36,-98c0,0,-92,0,-153,33c0,0,-61,33,-99,107h-1c0,0,0,-24,-3,-71c0,0,-3,-48,-5,-55H98c0,0,5,40,5,166v941H237V792c0,0,0,-49,-3,-114h3c0,0,38,77,99,111c0,0,62,33,153,33c0,0,153,0,225,-103c0,0,72,-103,72,-311c0,0,0,-422,-297,-422Z" 
id="f3_1y"
transform="scale(0.001,-0.001)" />

<path d="M77,0V95c0,0,38,87,93,154c0,0,55,67,115,121c0,0,60,54,120,100c0,0,59,46,107,93c0,0,47,46,77,97c0,0,29,50,29,114c0,0,0,87,-50,135c0,0,-51,47,-141,47c0,0,-86,0,-142,-46c0,0,-55,-47,-65,-131L83,791c0,0,15,126,107,201c0,0,92,75,237,75c0,0,159,0,244,-75c0,0,85,-75,85,-213c0,0,0,-61,-28,-122c0,0,-28,-60,-83,-120c0,0,-55,-61,-211,-188c0,0,-86,-70,-136,-126c0,0,-51,-56,-73,-109H773V0Z" 
id="f3_m"
transform="scale(0.001,-0.001)" />

<path d="M142,-316c0,0,-55,0,-92,8v101c0,0,28,-4,63,-4c0,0,125,0,198,184L324,4L4,808H147L317,362c0,0,4,-11,9,-25c0,0,5,-15,34,-98c0,0,28,-83,30,-92l52,147L619,808H761L451,0c0,0,-50,-128,-94,-191c0,0,-43,-63,-96,-94c0,0,-52,-31,-119,-31Z" 
id="f3_2l"
transform="scale(0.001,-0.001)" />

<path d="M106,0V635c0,0,0,141,-5,173H228c0,0,1,-4,2,-21c0,0,1,-16,2,-37c0,0,1,-22,2,-81h2c0,0,44,86,100,120c0,0,56,33,136,33c0,0,92,0,145,-36c0,0,54,-37,75,-117h2c0,0,42,82,101,117c0,0,59,36,143,36c0,0,123,0,178,-66c0,0,56,-67,56,-218V0H1039V512c0,0,0,117,-32,162c0,0,-32,45,-116,45c0,0,-88,0,-136,-66c0,0,-49,-65,-49,-185V0H573V512c0,0,0,117,-32,162c0,0,-32,45,-116,45c0,0,-86,0,-136,-66c0,0,-50,-66,-50,-185V0Z" 
id="f3_29"
transform="scale(0.001,-0.001)" />

<path d="M103,0V1107H237V0Z" 
id="f3_28"
transform="scale(0.001,-0.001)" />

<path d="M395,89c0,0,115,0,166,79c0,0,51,79,51,246c0,0,0,160,-51,235c0,0,-51,75,-164,75c0,0,-102,0,-147,-75c0,0,-45,-75,-45,-244c0,0,0,-170,45,-243c0,0,45,-73,145,-73ZM361,-14c0,0,-153,0,-225,102c0,0,-72,103,-72,312c0,0,0,422,297,422c0,0,92,0,153,-33c0,0,61,-34,98,-107h2l-2,90v335H747V166c0,0,0,-126,4,-166H623c0,0,-2,12,-5,55c0,0,-3,44,-3,75h-3c0,0,-37,-78,-98,-111c0,0,-62,-33,-153,-33Z" 
id="f3_20"
transform="scale(0.001,-0.001)" />

<path d="M327,0V150H472V0Zm6,281c0,0,1,51,16,90c0,0,14,39,37,69c0,0,24,30,53,53c0,0,29,24,59,45c0,0,29,21,58,42c0,0,29,22,51,48c0,0,23,26,36,59c0,0,14,33,14,77c0,0,0,85,-58,134c0,0,-57,49,-162,49c0,0,-104,0,-165,-52c0,0,-62,-52,-72,-143L63,761c0,0,19,148,116,227c0,0,97,79,257,79c0,0,166,0,261,-79c0,0,96,-79,96,-218c0,0,0,-56,-16,-100c0,0,-17,-44,-47,-82c0,0,-31,-37,-100,-88L570,456c0,0,-54,-39,-80,-82c0,0,-26,-43,-27,-93Z" 
id="f3_z"
transform="scale(0.001,-0.001)" />

<path d="M426,-14c0,0,-160,0,-255,71c0,0,-95,72,-113,213l139,13c0,0,27,-187,229,-187c0,0,101,0,159,50c0,0,58,50,58,149c0,0,0,86,-66,134c0,0,-66,48,-191,48H310V594h73c0,0,111,0,172,48c0,0,60,48,60,133c0,0,0,84,-49,132c0,0,-50,49,-147,49c0,0,-89,0,-144,-45c0,0,-55,-46,-64,-129L76,793c0,0,15,129,107,201c0,0,92,73,237,73c0,0,158,0,246,-74c0,0,87,-73,87,-204c0,0,0,-101,-56,-164c0,0,-56,-63,-164,-85v-3c0,0,118,-13,184,-79c0,0,66,-67,66,-167c0,0,0,-146,-93,-226c0,0,-92,-79,-264,-79Z" 
id="f3_n"
transform="scale(0.001,-0.001)" />

<path d="M398,93c0,0,63,0,112,37c0,0,49,38,76,107c0,0,27,70,27,166c0,0,0,99,-27,170c0,0,-27,71,-75,109c0,0,-49,38,-111,38c0,0,-103,0,-150,-75c0,0,-47,-75,-47,-242c0,0,0,-165,44,-238c0,0,44,-72,151,-72Zm11,-409c0,0,-132,0,-211,52c0,0,-78,52,-100,147l135,20c0,0,13,-56,59,-87c0,0,46,-30,121,-30c0,0,200,0,200,234V150h-1C612,150,574,72,507,33C507,33,441,-5,352,-5c0,0,-148,0,-218,98c0,0,-70,98,-70,309c0,0,0,214,75,316c0,0,75,101,228,101c0,0,86,0,149,-39c0,0,63,-39,97,-111h2c0,0,0,22,3,78c0,0,3,55,6,61H751c0,0,-4,-41,-4,-167V23c0,0,0,-339,-338,-339Z" 
id="f3_23"
transform="scale(0.001,-0.001)" />

<path d="M530,344V900c0,0,-1,-5,-20,-40c0,0,-20,-35,-30,-49L211,414L171,359L159,344ZM530,0V239H35V343l481,708H657V344H805V239H657V0Z" 
id="f3_o"
transform="scale(0.001,-0.001)" />

<path d="M502,114c0,0,116,0,203,51c0,0,88,51,135,146c0,0,47,96,47,225c0,0,0,196,-107,298c0,0,-107,103,-310,103H268V114ZM125,0V1051H473c0,0,267,0,412,-134c0,0,145,-134,145,-381c0,0,0,-162,-63,-284C967,252,903,130,787,65C787,65,671,0,518,0Z" 
id="f3_14"
transform="scale(0.001,-0.001)" />

<path d="M135,0V710H22v98H135v91c0,0,0,110,49,158c0,0,48,49,148,49c0,0,56,0,95,-9V994c0,0,-34,6,-60,6c0,0,-51,0,-75,-26c0,0,-23,-26,-23,-94V808H427V710H269V0Z" 
id="f3_22"
transform="scale(0.001,-0.001)" />

<path d="M93,721L78,1051H215L198,721Z" 
id="f3_b"
transform="scale(0.001,-0.001)" />

<path d="M95,710c0,0,70,102,70,194H99v147H245V943c0,0,0,-79,-14,-132c0,0,-15,-53,-45,-101Z" 
id="f3_1k5"
transform="scale(0.001,-0.001)" />

<path d="M427,86c0,0,109,0,163,53c0,0,54,52,54,167c0,0,0,97,-58,147c0,0,-59,50,-164,50c0,0,-102,0,-159,-54c0,0,-58,-53,-58,-146c0,0,0,-217,222,-217Zm-3,517c0,0,94,0,144,44c0,0,50,43,50,141c0,0,0,178,-196,178c0,0,-95,0,-144,-45c0,0,-50,-44,-50,-133c0,0,0,-90,51,-137c0,0,51,-48,145,-48Zm1,-617c0,0,-168,0,-263,79c0,0,-96,80,-96,227c0,0,0,103,59,173c0,0,59,70,151,85v3c0,0,-86,20,-135,87c0,0,-50,67,-50,157c0,0,0,121,90,195c0,0,90,75,241,75c0,0,155,0,245,-73c0,0,90,-74,90,-198c0,0,0,-90,-50,-158c0,0,-50,-67,-136,-84v-3c0,0,100,-16,156,-85c0,0,56,-69,56,-173c0,0,0,-145,-92,-226c0,0,-93,-81,-266,-81Z" 
id="f3_s"
transform="scale(0.001,-0.001)" />

<path d="M298,0L5,808H148L326,282c0,0,10,-29,51,-176l27,87l29,88L616,808H759L457,0Z" 
id="f3_2i"
transform="scale(0.001,-0.001)" />

<path d="M416,464c0,0,58,0,108,27c0,0,50,26,78,75c0,0,29,49,29,111c0,0,0,127,-58,204c0,0,-58,77,-156,77c0,0,-97,0,-153,-66c0,0,-56,-66,-56,-179c0,0,0,-115,56,-182c0,0,56,-67,152,-67ZM397,-14c0,0,-123,0,-197,51c0,0,-75,52,-107,168l129,20c0,0,40,-131,177,-131c0,0,116,0,179,107c0,0,64,107,67,306c0,0,-30,-67,-103,-108c0,0,-72,-40,-159,-40c0,0,-141,0,-226,97c0,0,-85,97,-85,257c0,0,0,165,92,259c0,0,93,95,257,95c0,0,176,0,266,-130c0,0,90,-130,90,-390c0,0,0,-271,-99,-416c0,0,-98,-145,-281,-145Z" 
id="f3_t"
transform="scale(0.001,-0.001)" />

<path d="M224,0L-1,808H131L267,259c0,0,5,-18,32,-147l13,55L480,808H624L765,253L800,112l23,103L976,808h131L876,0H720L579,571L552,697c0,0,-7,-33,-21,-96C531,601,517,537,379,0Z" 
id="f3_2j"
transform="scale(0.001,-0.001)" />

<path d="M370,-316c0,0,-141,152,-208,323C162,7,95,179,95,394v3c0,0,0,215,67,387c0,0,68,171,208,323H500c0,0,-140,-155,-205,-330c0,0,-65,-175,-65,-382c0,0,0,-207,64,-381c0,0,65,-172,206,-330Z" 
id="f3_c"
transform="scale(0.001,-0.001)" />

<path d="M9,-316c0,0,140,157,205,329c0,0,65,174,65,382c0,0,0,208,-65,382c0,0,-66,174,-205,330H139c0,0,141,-152,208,-324c0,0,67,-172,67,-386v-3c0,0,0,-216,-67,-388c0,0,-68,-170,-208,-322Z" 
id="f3_d"
transform="scale(0.001,-0.001)" />

<path d="M48,0V106L689,936H103v115H850V948L210,115H885V0Z" 
id="f3_1q"
transform="scale(0.001,-0.001)" />

<path d="M515,-14c0,0,-384,0,-446,266l138,28c0,0,24,-95,102,-139c0,0,77,-44,211,-44c0,0,138,0,213,47c0,0,75,47,75,139c0,0,0,51,-24,83c0,0,-23,33,-66,53c0,0,-42,21,-101,35c0,0,-59,15,-131,31c0,0,-124,28,-189,55c0,0,-64,28,-102,62c0,0,-37,34,-57,79c0,0,-19,46,-19,105c0,0,0,135,103,208c0,0,103,73,296,73c0,0,179,0,273,-55c0,0,95,-55,133,-187L784,800c0,0,-23,84,-88,122c0,0,-65,37,-180,37c0,0,-126,0,-192,-42c0,0,-67,-41,-67,-124c0,0,0,-48,26,-80c0,0,26,-32,74,-54c0,0,49,-22,194,-54c0,0,48,-11,96,-23c0,0,48,-11,92,-27c0,0,44,-16,83,-38c0,0,38,-22,66,-53c0,0,29,-31,45,-74c0,0,16,-42,16,-100c0,0,0,-145,-114,-225c0,0,-114,-79,-320,-79Z" 
id="f3_1j"
transform="scale(0.001,-0.001)" />

<path d="M590,-14c0,0,-159,0,-275,65c0,0,-116,66,-177,189c0,0,-60,123,-60,291c0,0,0,251,135,393c0,0,136,143,376,143c0,0,168,0,281,-66c0,0,112,-66,165,-195L900,762c0,0,-36,92,-117,141c0,0,-81,48,-192,48c0,0,-175,0,-272,-112c0,0,-97,-112,-97,-308c0,0,0,-193,101,-311c0,0,101,-117,274,-117c0,0,221,0,332,218l116,-58c0,0,-65,-136,-182,-207c0,0,-118,-70,-273,-70Z" 
id="f3_13"
transform="scale(0.001,-0.001)" />

<path d="M109,-316V1107H413v-96H239V-220H413v-96Z" 
id="f3_1r"
transform="scale(0.001,-0.001)" />

<path d="M107,0V808H316V0Zm0,952v155H316V952Z" 
id="f2_25"
transform="scale(0.001,-0.001)" />

<path d="M107,0V627c0,0,0,65,-2,106c0,0,-2,42,-4,75H301c0,0,2,-15,6,-77c0,0,3,-61,3,-85h3c0,0,43,93,107,135c0,0,64,41,153,41c0,0,128,0,197,-79c0,0,68,-79,68,-231V0H630V452c0,0,0,213,-144,213c0,0,-76,0,-123,-65c0,0,-47,-66,-47,-168V0Z" 
id="f2_2a"
transform="scale(0.001,-0.001)" />

<path d="M313,-13c0,0,-92,0,-142,50c0,0,-50,50,-50,152V666H19V808H131l66,189H328V808H481V666H328V245c0,0,0,-59,23,-87c0,0,22,-28,69,-28c0,0,25,0,70,10V11c0,0,-77,-24,-177,-24Z" 
id="f2_2g"
transform="scale(0.001,-0.001)" />

<path d="M104,0V228H319V0Z" 
id="f2_i"
transform="scale(0.001,-0.001)" />

<path d="M147,0V209H362V0Zm0,562V771H362V562Z" 
id="f2_u"
transform="scale(0.001,-0.001)" />

<path d="M125,0V1051H872V936H268V544H854V425H268V0Z" 
id="f3_16"
transform="scale(0.001,-0.001)" />

<path d="M103,0V1107H237V416L592,808H749L421,461L766,0H609L336,369L237,287V0Z" 
id="f3_27"
transform="scale(0.001,-0.001)" />

<path d="M12,-316v96H186V1011H12v96H316V-316Z" 
id="f3_1t"
transform="scale(0.001,-0.001)" />

<path d="M410,514L298,707L181,516L93,570L233,755L25,809L58,909L257,829l-9,222H350L340,831l197,77l34,-99L360,755L498,568L410,514Z" 
id="f3_e"
transform="scale(0.001,-0.001)" />

<path d="M424,96c0,0,119,0,174,106c0,0,55,106,55,325c0,0,0,227,-52,329c0,0,-53,102,-174,102c0,0,-123,0,-177,-100c0,0,-55,-101,-55,-331c0,0,0,-224,55,-328c0,0,55,-103,174,-103ZM423,-14c0,0,-181,0,-272,137c0,0,-91,138,-91,403c0,0,0,271,88,406c0,0,88,135,279,135c0,0,186,0,275,-137c0,0,88,-136,88,-404c0,0,0,-263,-93,-402c0,0,-93,-138,-274,-138Z" 
id="f3_k"
transform="scale(0.001,-0.001)" />

<path d="M141,0V1051H283V0Z" 
id="f3_19"
transform="scale(0.001,-0.001)" />

<path d="M708,418L573,765c0,0,-21,52,-42,117l-20,62l-7,-21c0,0,-18,-62,-55,-159L315,418ZM3,0L432,1051H594L1016,0H871L750,307H272L151,0Z" 
id="f3_11"
transform="scale(0.001,-0.001)" />

<path d="M545,114c0,0,130,0,190,49c0,0,59,48,59,144c0,0,0,186,-261,186H268V114ZM507,604c0,0,114,0,171,43c0,0,56,43,56,132c0,0,0,85,-58,121c0,0,-58,37,-169,37H268V604ZM125,0V1051H507c0,0,370,0,370,-255c0,0,0,-93,-52,-157c0,0,-52,-63,-148,-85c0,0,126,-15,194,-84c0,0,67,-69,67,-174c0,0,0,-140,-102,-218C836,78,734,0,552,0Z" 
id="f3_12"
transform="scale(0.001,-0.001)" />

<path d="M137,-195c0,0,70,102,70,195H142V163H287V38c0,0,0,-78,-14,-131c0,0,-14,-53,-44,-102Z" 
id="f3_g"
transform="scale(0.001,-0.001)" />

<path d="M125,0V1051H291L859,150c0,0,-9,146,-9,212v689H979V0H807L245,895l3,-72l4,-125V0Z" 
id="f3_1e"
transform="scale(0.001,-0.001)" />

<path d="M439,94c0,0,97,0,152,65c0,0,55,65,55,179c0,0,0,114,-56,176c0,0,-56,62,-156,62c0,0,-94,0,-152,-55c0,0,-57,-55,-57,-151c0,0,0,-121,60,-199c0,0,60,-77,154,-77Zm4,-108c0,0,-177,0,-271,131c0,0,-94,132,-94,384c0,0,0,273,97,420c0,0,98,146,279,146c0,0,238,0,299,-214L625,830c0,0,-39,128,-173,128c0,0,-115,0,-178,-107c0,0,-63,-107,-63,-310c0,0,37,68,103,103c0,0,66,36,152,36c0,0,146,0,231,-91c0,0,86,-91,86,-245c0,0,0,-166,-91,-262c0,0,-90,-96,-249,-96Z" 
id="f3_q"
transform="scale(0.001,-0.001)" />

<path d="M137,-195c0,0,70,102,70,195H142V154H287V38c0,0,0,-78,-14,-131c0,0,-14,-53,-44,-102Zm5,848V808H287V653Z" 
id="f3_v"
transform="scale(0.001,-0.001)" />

<path d="M125,0V1051H268V606H836v445H979V0H836V487H268V0Z" 
id="f3_18"
transform="scale(0.001,-0.001)" />

<path d="M426,-14c0,0,-166,0,-255,52C171,38,83,90,54,201l184,28c0,0,16,-57,54,-81c0,0,38,-24,134,-24c0,0,88,0,128,22c0,0,41,23,41,70c0,0,0,39,-33,62c0,0,-32,23,-110,38c0,0,-177,35,-239,65c0,0,-62,31,-95,79c0,0,-32,48,-32,118c0,0,0,115,89,180c0,0,89,64,252,64c0,0,144,0,232,-56c0,0,88,-56,109,-162L583,585c0,0,-9,49,-44,74c0,0,-35,24,-112,24c0,0,-74,0,-111,-19c0,0,-38,-19,-38,-64c0,0,0,-35,29,-55c0,0,29,-21,97,-34c0,0,94,-20,168,-40c0,0,73,-21,118,-49c0,0,44,-28,71,-73c0,0,26,-44,26,-113c0,0,0,-117,-96,-184c0,0,-96,-66,-265,-66Z" 
id="f2_2f"
transform="scale(0.001,-0.001)" />

<path d="M818,115L75,426V579L818,891V776L178,503L818,230V115Z" 
id="f3_w"
transform="scale(0.001,-0.001)" />

<path d="M17,0L304,415L31,808H179L380,493L580,808H730L457,417L747,0H598L380,331L162,0Z" 
id="f3_2k"
transform="scale(0.001,-0.001)" />

<path d="M435,0V856c0,0,-48,-47,-127,-93c0,0,-79,-46,-142,-69V824c0,0,113,52,197,128c0,0,85,75,120,146h86V0Z" 
id="f4_l"
transform="scale(0.001,-0.001)" />

<path d="M125,0V1051H268V115H799V0Z" 
id="f0_1c"
transform="scale(0.001,-0.001)" />

<path d="M106,0V620c0,0,0,85,-5,188H228c0,0,6,-138,6,-165h3c0,0,32,103,74,141c0,0,42,38,118,38c0,0,27,0,54,-7V692c0,0,-26,7,-71,7c0,0,-84,0,-128,-72c0,0,-44,-72,-44,-206V0Z" 
id="f0_2e"
transform="scale(0.001,-0.001)" />

<path d="M606,-14c0,0,-164,0,-284,65c0,0,-119,66,-182,189c0,0,-63,123,-63,291c0,0,0,255,137,396c0,0,137,140,386,140c0,0,174,0,283,-59c0,0,109,-59,168,-189L915,779c0,0,-44,90,-123,131c0,0,-79,41,-196,41c0,0,-182,0,-278,-110c0,0,-96,-110,-96,-310c0,0,0,-200,102,-315c0,0,102,-115,282,-115c0,0,103,0,193,31c0,0,89,31,144,85V407H629V526h445V164c0,0,-83,-85,-205,-132c0,0,-121,-46,-263,-46Z" 
id="f0_17"
transform="scale(0.001,-0.001)" />

<path d="M355,-14c0,0,-133,0,-194,65c0,0,-62,66,-62,219V808H234V296c0,0,0,-80,16,-124c0,0,16,-44,50,-64c0,0,34,-19,101,-19c0,0,97,0,153,66c0,0,55,67,55,185V808H744V172c0,0,0,-141,4,-172H621c0,0,0,4,-1,20c0,0,-1,17,-2,38c0,0,-1,21,-3,80h-2C613,138,567,55,506,20c0,0,-61,-34,-151,-34Z" 
id="f0_2h"
transform="scale(0.001,-0.001)" />

<path d="M395,89c0,0,115,0,166,79c0,0,51,79,51,246c0,0,0,160,-51,235c0,0,-51,75,-164,75c0,0,-102,0,-147,-75c0,0,-45,-75,-45,-244c0,0,0,-170,45,-243c0,0,45,-73,145,-73ZM361,-14c0,0,-153,0,-225,102c0,0,-72,103,-72,312c0,0,0,422,297,422c0,0,92,0,153,-33c0,0,61,-34,98,-107h2l-2,90v335H747V166c0,0,0,-126,4,-166H623c0,0,-2,12,-5,55c0,0,-3,44,-3,75h-3c0,0,-37,-78,-98,-111c0,0,-62,-33,-153,-33Z" 
id="f0_20"
transform="scale(0.001,-0.001)" />

<path d="M140,0V163H285V0Z" 
id="f0_i"
transform="scale(0.001,-0.001)" />


</defs>
</svg>