<?xml version="1.0" encoding="UTF-8" standalone="no"?>
<!DOCTYPE svg PUBLIC "-//W3C//DTD SVG 1.1//EN"
"http://www.w3.org/Graphics/SVG/1.1/DTD/svg11.dtd">
<svg viewBox="0 0 734 1091" version="1.1" xmlns="http://www.w3.org/2000/svg" xmlns:xlink="http://www.w3.org/1999/xlink">
<defs>
</defs>
<g fill="#D4D4D4" fill-opacity="0.36" >
<use xlink:href="#f0_1f" transform="matrix(50.9,-50.9,50.9,50.9,123.1,814.1)" />
<use xlink:href="#f0_2a" transform="matrix(50.9,-50.9,50.9,50.9,183.6,753.6)" />
<use xlink:href="#f0_28" transform="matrix(50.9,-50.9,50.9,50.9,226.8,710.3)" />
<use xlink:href="#f0_25" transform="matrix(50.9,-50.9,50.9,50.9,244.1,693.1)" />
<use xlink:href="#f0_2a" transform="matrix(50.9,-50.9,50.9,50.9,261.4,675.8)" />
<use xlink:href="#f0_21" transform="matrix(50.9,-50.9,50.9,50.9,304.6,632.5)" />
<use xlink:href="#f0_2k" transform="matrix(50.9,-50.9,50.9,50.9,347.8,589.3)" />
<use xlink:href="#f0_1x" transform="matrix(50.9,-50.9,50.9,50.9,386.7,550.4)" />
<use xlink:href="#f0_29" transform="matrix(50.9,-50.9,50.9,50.9,430,507.2)" />
<use xlink:href="#f0_2c" transform="matrix(50.9,-50.9,50.9,50.9,494.8,442.4)" />
<use xlink:href="#f0_2b" transform="matrix(50.9,-50.9,50.9,50.9,538,399.1)" />
<use xlink:href="#f0_25" transform="matrix(50.9,-50.9,50.9,50.9,581.3,355.9)" />
<use xlink:href="#f0_2a" transform="matrix(50.9,-50.9,50.9,50.9,598.5,338.6)" />
<use xlink:href="#f0_2g" transform="matrix(50.9,-50.9,50.9,50.9,641.8,295.4)" />
</g>
<g fill="#000000" >
<use xlink:href="#f1_r" transform="matrix(10.4,0,0,10.4,32.5,101.4)" />
<use xlink:href="#f1_i" transform="matrix(10.4,0,0,10.4,41.8,101.4)" />
<use xlink:href="#f1_19" transform="matrix(10.4,0,0,10.4,75.7,101.4)" />
<use xlink:href="#f1_20" transform="matrix(10.4,0,0,10.4,80.1,101.4)" />
<use xlink:href="#f1_21" transform="matrix(10.4,0,0,10.4,88.9,101.4)" />
<use xlink:href="#f1_2a" transform="matrix(10.4,0,0,10.4,97.7,101.4)" />
<use xlink:href="#f1_2g" transform="matrix(10.4,0,0,10.4,106.5,101.4)" />
<use xlink:href="#f1_25" transform="matrix(10.4,0,0,10.4,110.9,101.4)" />
<use xlink:href="#f1_22" transform="matrix(10.4,0,0,10.4,114.4,101.4)" />
<use xlink:href="#f1_2l" transform="matrix(10.4,0,0,10.4,119,101.4)" />
<use xlink:href="#f1_2g" transform="matrix(10.4,0,0,10.4,133.3,101.4)" />
<use xlink:href="#f1_24" transform="matrix(10.4,0,0,10.4,137.7,101.4)" />
<use xlink:href="#f1_21" transform="matrix(10.4,0,0,10.4,146.5,101.4)" />
<use xlink:href="#f1_29" transform="matrix(10.4,0,0,10.4,162.3,101.4)" />
<use xlink:href="#f1_25" transform="matrix(10.4,0,0,10.4,175.8,101.4)" />
<use xlink:href="#f1_2f" transform="matrix(10.4,0,0,10.4,179.3,101.4)" />
<use xlink:href="#f1_2f" transform="matrix(10.4,0,0,10.4,187.4,101.4)" />
<use xlink:href="#f1_25" transform="matrix(10.4,0,0,10.4,195.5,101.4)" />
<use xlink:href="#f1_2a" transform="matrix(10.4,0,0,10.4,198.9,101.4)" />
<use xlink:href="#f1_23" transform="matrix(10.4,0,0,10.4,207.7,101.4)" />
<use xlink:href="#f1_2e" transform="matrix(10.4,0,0,10.4,223.3,101.4)" />
<use xlink:href="#f1_21" transform="matrix(10.4,0,0,10.4,228.6,101.4)" />
<use xlink:href="#f1_1x" transform="matrix(10.4,0,0,10.4,237.4,101.4)" />
<use xlink:href="#f1_1z" transform="matrix(10.4,0,0,10.4,246.2,101.4)" />
<use xlink:href="#f1_2g" transform="matrix(10.4,0,0,10.4,254.3,101.4)" />
<use xlink:href="#f1_1x" transform="matrix(10.4,0,0,10.4,258.5,101.4)" />
<use xlink:href="#f1_2a" transform="matrix(10.4,0,0,10.4,267.3,101.4)" />
<use xlink:href="#f1_2g" transform="matrix(10.4,0,0,10.4,276.1,101.4)" />
<use xlink:href="#f1_2b" transform="matrix(10.4,0,0,10.4,287.5,101.4)" />
<use xlink:href="#f1_2e" transform="matrix(10.4,0,0,10.4,296.3,101.4)" />
<use xlink:href="#f1_2c" transform="matrix(10.4,0,0,10.4,308.4,101.4)" />
<use xlink:href="#f1_2e" transform="matrix(10.4,0,0,10.4,317.2,101.4)" />
<use xlink:href="#f1_2b" transform="matrix(10.4,0,0,10.4,322.5,101.4)" />
<use xlink:href="#f1_20" transform="matrix(10.4,0,0,10.4,331.3,101.4)" />
<use xlink:href="#f1_2h" transform="matrix(10.4,0,0,10.4,340.1,101.4)" />
<use xlink:href="#f1_1z" transform="matrix(10.4,0,0,10.4,348.9,101.4)" />
<use xlink:href="#f1_2g" transform="matrix(10.4,0,0,10.4,357,101.4)" />
<use xlink:href="#f1_11" transform="matrix(10.4,0,0,10.4,367.4,101.4)" />
<use xlink:href="#f1_2g" transform="matrix(10.4,0,0,10.4,383.9,101.4)" />
<use xlink:href="#f1_2b" transform="matrix(10.4,0,0,10.4,388.3,101.4)" />
<use xlink:href="#f1_14" transform="matrix(10.4,0,0,10.4,404.1,101.4)" />
<use xlink:href="#f1_25" transform="matrix(10.4,0,0,10.4,422.4,101.4)" />
<use xlink:href="#f1_2a" transform="matrix(10.4,0,0,10.4,425.9,101.4)" />
<use xlink:href="#f1_2g" transform="matrix(10.4,0,0,10.4,441.6,101.4)" />
<use xlink:href="#f1_24" transform="matrix(10.4,0,0,10.4,446,101.4)" />
<use xlink:href="#f1_21" transform="matrix(10.4,0,0,10.4,454.8,101.4)" />
<use xlink:href="#f1_22" transform="matrix(10.4,0,0,10.4,470.4,101.4)" />
<use xlink:href="#f1_2b" transform="matrix(10.4,0,0,10.4,475,101.4)" />
<use xlink:href="#f1_28" transform="matrix(10.4,0,0,10.4,483.8,101.4)" />
<use xlink:href="#f1_28" transform="matrix(10.4,0,0,10.4,487.3,101.4)" />
<use xlink:href="#f1_2b" transform="matrix(10.4,0,0,10.4,490.8,101.4)" />
<use xlink:href="#f1_2j" transform="matrix(10.4,0,0,10.4,499.6,101.4)" />
<use xlink:href="#f1_25" transform="matrix(10.4,0,0,10.4,510.7,101.4)" />
<use xlink:href="#f1_2a" transform="matrix(10.4,0,0,10.4,514.2,101.4)" />
<use xlink:href="#f1_23" transform="matrix(10.4,0,0,10.4,523,101.4)" />
<use xlink:href="#f1_21" transform="matrix(10.4,0,0,10.4,538.8,101.4)" />
<use xlink:href="#f1_2d" transform="matrix(10.4,0,0,10.4,547.6,101.4)" />
<use xlink:href="#f1_2h" transform="matrix(10.4,0,0,10.4,556.4,101.4)" />
<use xlink:href="#f1_1x" transform="matrix(10.4,0,0,10.4,565.2,101.4)" />
<use xlink:href="#f1_2g" transform="matrix(10.4,0,0,10.4,574,101.4)" />
<use xlink:href="#f1_25" transform="matrix(10.4,0,0,10.4,578.4,101.4)" />
<use xlink:href="#f1_2b" transform="matrix(10.4,0,0,10.4,581.9,101.4)" />
<use xlink:href="#f1_2a" transform="matrix(10.4,0,0,10.4,590.7,101.4)" />
<use xlink:href="#f1_2f" transform="matrix(10.4,0,0,10.4,599.5,101.4)" />
<use xlink:href="#f1_u" transform="matrix(10.4,0,0,10.4,607.5,101.4)" />
</g>
<image preserveAspectRatio="none" x="76" y="143" width="423" height="18" xlink:href="img/1.png" />
<image preserveAspectRatio="none" x="76" y="161" width="423" height="18" xlink:href="img/2.png" />
<image preserveAspectRatio="none" x="76" y="179" width="423" height="18" xlink:href="img/3.png" />
<image preserveAspectRatio="none" x="76" y="197" width="423" height="18" xlink:href="img/4.png" />
<image preserveAspectRatio="none" x="76" y="215" width="423" height="18" xlink:href="img/5.png" />
<image preserveAspectRatio="none" x="76" y="233" width="423" height="18" xlink:href="img/6.png" />
<image preserveAspectRatio="none" x="76" y="251" width="423" height="18" xlink:href="img/7.png" />
<image preserveAspectRatio="none" x="76" y="269" width="423" height="18" xlink:href="img/8.png" />
<image preserveAspectRatio="none" x="76" y="287" width="423" height="18" xlink:href="img/9.png" />
<image preserveAspectRatio="none" x="76" y="305" width="423" height="18" xlink:href="img/10.png" />
<image preserveAspectRatio="none" x="76" y="323" width="423" height="18" xlink:href="img/11.png" />
<image preserveAspectRatio="none" x="76" y="341" width="423" height="18" xlink:href="img/12.png" />
<image preserveAspectRatio="none" x="76" y="359" width="423" height="18" xlink:href="img/13.png" />
<image preserveAspectRatio="none" x="76" y="377" width="423" height="18" xlink:href="img/14.png" />
<image preserveAspectRatio="none" x="76" y="395" width="423" height="15" xlink:href="img/15.png" />
<g fill="#000000" >
<use xlink:href="#f1_s" transform="matrix(10.4,0,0,10.4,32.5,446.1)" />
<use xlink:href="#f1_i" transform="matrix(10.4,0,0,10.4,41.8,446.1)" />
<use xlink:href="#f1_19" transform="matrix(10.4,0,0,10.4,75.7,446.1)" />
<use xlink:href="#f1_20" transform="matrix(10.4,0,0,10.4,80.1,446.1)" />
<use xlink:href="#f1_21" transform="matrix(10.4,0,0,10.4,88.9,446.1)" />
<use xlink:href="#f1_2a" transform="matrix(10.4,0,0,10.4,97.7,446.1)" />
<use xlink:href="#f1_2g" transform="matrix(10.4,0,0,10.4,106.5,446.1)" />
<use xlink:href="#f1_25" transform="matrix(10.4,0,0,10.4,110.9,446.1)" />
<use xlink:href="#f1_22" transform="matrix(10.4,0,0,10.4,114.4,446.1)" />
<use xlink:href="#f1_2l" transform="matrix(10.4,0,0,10.4,119,446.1)" />
<use xlink:href="#f1_1o" transform="matrix(10.4,0,0,10.4,134,446.1)" />
<use xlink:href="#f1_g" transform="matrix(10.4,0,0,10.4,144.7,446.1)" />
<use xlink:href="#f1_1p" transform="matrix(10.4,0,0,10.4,156.4,446.1)" />
<use xlink:href="#f1_1x" transform="matrix(10.4,0,0,10.4,174.2,446.1)" />
<use xlink:href="#f1_2a" transform="matrix(10.4,0,0,10.4,183,446.1)" />
<use xlink:href="#f1_20" transform="matrix(10.4,0,0,10.4,191.8,446.1)" />
<use xlink:href="#f1_1q" transform="matrix(10.4,0,0,10.4,208.1,446.1)" />
<use xlink:href="#f1_25" transform="matrix(10.4,0,0,10.4,225.1,446.1)" />
<use xlink:href="#f1_2a" transform="matrix(10.4,0,0,10.4,228.6,446.1)" />
<use xlink:href="#f1_2g" transform="matrix(10.4,0,0,10.4,244.9,446.1)" />
<use xlink:href="#f1_24" transform="matrix(10.4,0,0,10.4,249.3,446.1)" />
<use xlink:href="#f1_21" transform="matrix(10.4,0,0,10.4,258.1,446.1)" />
<use xlink:href="#f1_22" transform="matrix(10.4,0,0,10.4,274.3,446.1)" />
<use xlink:href="#f1_2b" transform="matrix(10.4,0,0,10.4,278.9,446.1)" />
<use xlink:href="#f1_28" transform="matrix(10.4,0,0,10.4,287.7,446.1)" />
<use xlink:href="#f1_28" transform="matrix(10.4,0,0,10.4,291.1,446.1)" />
<use xlink:href="#f1_2b" transform="matrix(10.4,0,0,10.4,294.6,446.1)" />
<use xlink:href="#f1_2j" transform="matrix(10.4,0,0,10.4,303.4,446.1)" />
<use xlink:href="#f1_25" transform="matrix(10.4,0,0,10.4,314.6,446.1)" />
<use xlink:href="#f1_2a" transform="matrix(10.4,0,0,10.4,318.1,446.1)" />
<use xlink:href="#f1_23" transform="matrix(10.4,0,0,10.4,326.9,446.1)" />
<use xlink:href="#f1_2f" transform="matrix(10.4,0,0,10.4,343.2,446.1)" />
<use xlink:href="#f1_21" transform="matrix(10.4,0,0,10.4,351.3,446.1)" />
<use xlink:href="#f1_2d" transform="matrix(10.4,0,0,10.4,360.1,446.1)" />
<use xlink:href="#f1_2h" transform="matrix(10.4,0,0,10.4,368.9,446.1)" />
<use xlink:href="#f1_21" transform="matrix(10.4,0,0,10.4,377.7,446.1)" />
<use xlink:href="#f1_2a" transform="matrix(10.4,0,0,10.4,386.5,446.1)" />
<use xlink:href="#f1_1z" transform="matrix(10.4,0,0,10.4,395.3,446.1)" />
<use xlink:href="#f1_21" transform="matrix(10.4,0,0,10.4,403.3,446.1)" />
<use xlink:href="#f1_2b" transform="matrix(10.4,0,0,10.4,419.6,446.1)" />
<use xlink:href="#f1_22" transform="matrix(10.4,0,0,10.4,428.4,446.1)" />
<use xlink:href="#f1_2e" transform="matrix(10.4,0,0,10.4,440.4,446.1)" />
<use xlink:href="#f1_21" transform="matrix(10.4,0,0,10.4,445.7,446.1)" />
<use xlink:href="#f1_1x" transform="matrix(10.4,0,0,10.4,454.5,446.1)" />
<use xlink:href="#f1_1z" transform="matrix(10.4,0,0,10.4,463.3,446.1)" />
<use xlink:href="#f1_2g" transform="matrix(10.4,0,0,10.4,471.3,446.1)" />
<use xlink:href="#f1_25" transform="matrix(10.4,0,0,10.4,475.7,446.1)" />
<use xlink:href="#f1_2b" transform="matrix(10.4,0,0,10.4,479.2,446.1)" />
<use xlink:href="#f1_2a" transform="matrix(10.4,0,0,10.4,488,446.1)" />
<use xlink:href="#f1_2f" transform="matrix(10.4,0,0,10.4,496.8,446.1)" />
<use xlink:href="#f1_u" transform="matrix(10.4,0,0,10.4,512.4,446.1)" />
</g>
<image preserveAspectRatio="none" x="76" y="474" width="497" height="14" xlink:href="img/16.png" />
<image preserveAspectRatio="none" x="76" y="487" width="497" height="14" xlink:href="img/17.png" />
<image preserveAspectRatio="none" x="76" y="500" width="497" height="14" xlink:href="img/18.png" />
<image preserveAspectRatio="none" x="76" y="514" width="497" height="13" xlink:href="img/19.png" />
<image preserveAspectRatio="none" x="76" y="527" width="497" height="13" xlink:href="img/20.png" />
<image preserveAspectRatio="none" x="76" y="540" width="497" height="13" xlink:href="img/21.png" />
<image preserveAspectRatio="none" x="76" y="579" width="389" height="20" xlink:href="img/22.png" />
<image preserveAspectRatio="none" x="76" y="599" width="389" height="20" xlink:href="img/23.png" />
<image preserveAspectRatio="none" x="76" y="619" width="389" height="20" xlink:href="img/24.png" />
<image preserveAspectRatio="none" x="76" y="638" width="389" height="21" xlink:href="img/25.png" />
<image preserveAspectRatio="none" x="76" y="658" width="389" height="20" xlink:href="img/26.png" />
<image preserveAspectRatio="none" x="76" y="678" width="389" height="20" xlink:href="img/27.png" />
<image preserveAspectRatio="none" x="76" y="698" width="389" height="20" xlink:href="img/28.png" />
<image preserveAspectRatio="none" x="76" y="718" width="389" height="20" xlink:href="img/29.png" />
<image preserveAspectRatio="none" x="76" y="737" width="389" height="18" xlink:href="img/30.png" />
<g fill="#000000" >
<use xlink:href="#f1_l" transform="matrix(10.4,0,0,10.4,32.5,780.1)" />
<use xlink:href="#f1_k" transform="matrix(10.4,0,0,10.4,41.6,780.1)" />
<use xlink:href="#f1_i" transform="matrix(10.4,0,0,10.4,51,780.1)" />
<use xlink:href="#f1_1n" transform="matrix(10.4,0,0,10.4,75.7,780.1)" />
<use xlink:href="#f1_2e" transform="matrix(10.4,0,0,10.4,91.7,780.1)" />
<use xlink:href="#f1_25" transform="matrix(10.4,0,0,10.4,97,780.1)" />
<use xlink:href="#f1_2g" transform="matrix(10.4,0,0,10.4,100.5,780.1)" />
<use xlink:href="#f1_21" transform="matrix(10.4,0,0,10.4,104.9,780.1)" />
<use xlink:href="#f1_2g" transform="matrix(10.4,0,0,10.4,121.2,780.1)" />
<use xlink:href="#f1_24" transform="matrix(10.4,0,0,10.4,125.6,780.1)" />
<use xlink:href="#f1_21" transform="matrix(10.4,0,0,10.4,134.4,780.1)" />
<use xlink:href="#f1_29" transform="matrix(10.4,0,0,10.4,150.5,780.1)" />
<use xlink:href="#f1_21" transform="matrix(10.4,0,0,10.4,164.1,780.1)" />
<use xlink:href="#f1_1z" transform="matrix(10.4,0,0,10.4,172.9,780.1)" />
<use xlink:href="#f1_24" transform="matrix(10.4,0,0,10.4,181,780.1)" />
<use xlink:href="#f1_1x" transform="matrix(10.4,0,0,10.4,189.8,780.1)" />
<use xlink:href="#f1_2a" transform="matrix(10.4,0,0,10.4,198.6,780.1)" />
<use xlink:href="#f1_25" transform="matrix(10.4,0,0,10.4,207.4,780.1)" />
<use xlink:href="#f1_2f" transform="matrix(10.4,0,0,10.4,210.9,780.1)" />
<use xlink:href="#f1_29" transform="matrix(10.4,0,0,10.4,218.9,780.1)" />
<use xlink:href="#f1_22" transform="matrix(10.4,0,0,10.4,240,780.1)" />
<use xlink:href="#f1_2b" transform="matrix(10.4,0,0,10.4,244.6,780.1)" />
<use xlink:href="#f1_2e" transform="matrix(10.4,0,0,10.4,253.4,780.1)" />
<use xlink:href="#f1_22" transform="matrix(10.4,0,0,10.4,266.2,780.1)" />
<use xlink:href="#f1_2b" transform="matrix(10.4,0,0,10.4,270.8,780.1)" />
<use xlink:href="#f1_28" transform="matrix(10.4,0,0,10.4,279.6,780.1)" />
<use xlink:href="#f1_28" transform="matrix(10.4,0,0,10.4,283.1,780.1)" />
<use xlink:href="#f1_2b" transform="matrix(10.4,0,0,10.4,286.6,780.1)" />
<use xlink:href="#f1_2j" transform="matrix(10.4,0,0,10.4,295.4,780.1)" />
<use xlink:href="#f1_25" transform="matrix(10.4,0,0,10.4,306.5,780.1)" />
<use xlink:href="#f1_2a" transform="matrix(10.4,0,0,10.4,310,780.1)" />
<use xlink:href="#f1_23" transform="matrix(10.4,0,0,10.4,318.8,780.1)" />
<use xlink:href="#f1_2e" transform="matrix(10.4,0,0,10.4,335,780.1)" />
<use xlink:href="#f1_21" transform="matrix(10.4,0,0,10.4,340.3,780.1)" />
<use xlink:href="#f1_1x" transform="matrix(10.4,0,0,10.4,349.1,780.1)" />
<use xlink:href="#f1_1z" transform="matrix(10.4,0,0,10.4,357.9,780.1)" />
<use xlink:href="#f1_2g" transform="matrix(10.4,0,0,10.4,365.9,780.1)" />
<use xlink:href="#f1_25" transform="matrix(10.4,0,0,10.4,370.3,780.1)" />
<use xlink:href="#f1_2b" transform="matrix(10.4,0,0,10.4,373.8,780.1)" />
<use xlink:href="#f1_2a" transform="matrix(10.4,0,0,10.4,382.6,780.1)" />
<use xlink:href="#f1_2f" transform="matrix(10.4,0,0,10.4,391.4,780.1)" />
<use xlink:href="#f1_u" transform="matrix(10.4,0,0,10.4,407,780.1)" />
</g>
<image preserveAspectRatio="none" x="76" y="806" width="328" height="22" xlink:href="img/31.png" />
<image preserveAspectRatio="none" x="76" y="828" width="328" height="22" xlink:href="img/32.png" />
<image preserveAspectRatio="none" x="76" y="849" width="328" height="22" xlink:href="img/33.png" />
<g fill="#000000" >
<use xlink:href="#f1_c" transform="matrix(10.4,0,0,10.4,75.7,903.7)" />
<use xlink:href="#f1_1x" transform="matrix(10.4,0,0,10.4,81.1,903.7)" />
<use xlink:href="#f1_1z" transform="matrix(10.4,0,0,10.4,89.9,903.7)" />
<use xlink:href="#f1_25" transform="matrix(10.4,0,0,10.4,97.9,903.7)" />
<use xlink:href="#f1_20" transform="matrix(10.4,0,0,10.4,101.4,903.7)" />
<use xlink:href="#f1_1z" transform="matrix(10.4,0,0,10.4,119,903.7)" />
<use xlink:href="#f1_1x" transform="matrix(10.4,0,0,10.4,127.1,903.7)" />
<use xlink:href="#f1_2g" transform="matrix(10.4,0,0,10.4,135.9,903.7)" />
<use xlink:href="#f1_1x" transform="matrix(10.4,0,0,10.4,140.3,903.7)" />
<use xlink:href="#f1_28" transform="matrix(10.4,0,0,10.4,149.3,903.7)" />
<use xlink:href="#f1_2l" transform="matrix(10.4,0,0,10.4,152.7,903.7)" />
<use xlink:href="#f1_2f" transform="matrix(10.4,0,0,10.4,160.3,903.7)" />
<use xlink:href="#f1_21" transform="matrix(10.4,0,0,10.4,168.3,903.7)" />
<use xlink:href="#f1_20" transform="matrix(10.4,0,0,10.4,177.1,903.7)" />
<use xlink:href="#f1_24" transform="matrix(10.4,0,0,10.4,194.7,903.7)" />
<use xlink:href="#f1_2l" transform="matrix(10.4,0,0,10.4,203.5,903.7)" />
<use xlink:href="#f1_20" transform="matrix(10.4,0,0,10.4,211,903.7)" />
<use xlink:href="#f1_2e" transform="matrix(10.4,0,0,10.4,219.8,903.7)" />
<use xlink:href="#f1_1x" transform="matrix(10.4,0,0,10.4,225.1,903.7)" />
<use xlink:href="#f1_2g" transform="matrix(10.4,0,0,10.4,234,903.7)" />
<use xlink:href="#f1_25" transform="matrix(10.4,0,0,10.4,238.4,903.7)" />
<use xlink:href="#f1_2b" transform="matrix(10.4,0,0,10.4,241.8,903.7)" />
<use xlink:href="#f1_2a" transform="matrix(10.4,0,0,10.4,250.6,903.7)" />
<use xlink:href="#f1_2b" transform="matrix(10.4,0,0,10.4,268.2,903.7)" />
<use xlink:href="#f1_22" transform="matrix(10.4,0,0,10.4,277,903.7)" />
<use xlink:href="#f1_1x" transform="matrix(10.4,0,0,10.4,290.6,903.7)" />
<use xlink:href="#f1_28" transform="matrix(10.4,0,0,10.4,299.4,903.7)" />
<use xlink:href="#f1_27" transform="matrix(10.4,0,0,10.4,302.9,903.7)" />
<use xlink:href="#f1_21" transform="matrix(10.4,0,0,10.4,310.9,903.7)" />
<use xlink:href="#f1_2a" transform="matrix(10.4,0,0,10.4,319.7,903.7)" />
<use xlink:href="#f1_21" transform="matrix(10.4,0,0,10.4,328.5,903.7)" />
<use xlink:href="#f1_2f" transform="matrix(10.4,0,0,10.4,337.3,903.7)" />
<use xlink:href="#f1_d" transform="matrix(10.4,0,0,10.4,345.4,903.7)" />
<use xlink:href="#f2_p" transform="matrix(12,0,0,12,656.3,1049.3)" />
</g>
<g fill="#0080FF" fill-opacity="0.5" >
<use xlink:href="#f0_1c" transform="matrix(38.3,0,0,38.3,183.7,1050)" />
<use xlink:href="#f0_21" transform="matrix(38.3,0,0,38.3,216.2,1050)" />
<use xlink:href="#f0_1x" transform="matrix(38.3,0,0,38.3,248.7,1050)" />
<use xlink:href="#f0_2e" transform="matrix(38.3,0,0,38.3,281.2,1050)" />
<use xlink:href="#f0_2a" transform="matrix(38.3,0,0,38.3,300.7,1050)" />
<use xlink:href="#f0_17" transform="matrix(38.3,0,0,38.3,333.3,1050)" />
<use xlink:href="#f0_2h" transform="matrix(38.3,0,0,38.3,378.8,1050)" />
<use xlink:href="#f0_25" transform="matrix(38.3,0,0,38.3,411.3,1050)" />
<use xlink:href="#f0_20" transform="matrix(38.3,0,0,38.3,424.3,1050)" />
<use xlink:href="#f0_21" transform="matrix(38.3,0,0,38.3,456.8,1050)" />
<use xlink:href="#f0_i" transform="matrix(38.3,0,0,38.3,489.3,1050)" />
<use xlink:href="#f0_25" transform="matrix(38.3,0,0,38.3,505.6,1050)" />
<use xlink:href="#f0_2a" transform="matrix(38.3,0,0,38.3,518.6,1050)" />
</g>
<defs>
<path d="M593,101c0,0,182,0,279,112c0,0,98,113,98,318c0,0,0,196,-98,308c0,0,-98,112,-277,112c0,0,-181,0,-279,-110c0,0,-99,-111,-99,-310c0,0,0,-198,100,-314c0,0,99,-116,276,-116Zm0,-115c0,0,-162,0,-279,65c0,0,-118,66,-180,190c0,0,-62,124,-62,290c0,0,0,252,138,394c0,0,138,142,385,142c0,0,160,0,278,-64c0,0,118,-64,180,-185c0,0,62,-122,62,-287c0,0,0,-165,-63,-289c0,0,-63,-124,-181,-190c0,0,-118,-66,-278,-66Z" 
id="f0_1f"
transform="scale(0.001,-0.001)" />

<path d="M106,0V635c0,0,0,141,-5,173H228c0,0,1,-4,2,-21c0,0,1,-16,2,-37c0,0,1,-22,2,-81h2c0,0,47,84,108,119c0,0,60,34,151,34c0,0,132,0,194,-66c0,0,61,-66,61,-218V0H615V512c0,0,0,80,-15,124c0,0,-16,44,-50,63c0,0,-35,20,-101,20c0,0,-97,0,-153,-67c0,0,-56,-66,-56,-184V0Z" 
id="f0_2a"
transform="scale(0.001,-0.001)" />

<path d="M103,0V1107H237V0Z" 
id="f0_28"
transform="scale(0.001,-0.001)" />

<path d="M102,0V808H236V0Zm0,979v128H236V979Z" 
id="f0_25"
transform="scale(0.001,-0.001)" />

<path d="M643,478c0,0,-11,128,-65,187c0,0,-54,59,-154,59c0,0,-98,0,-155,-66c0,0,-57,-65,-62,-180ZM431,-14c0,0,-179,0,-272,106c0,0,-94,107,-94,317c0,0,0,200,94,307c0,0,93,106,267,106c0,0,356,0,356,-429V375H206c0,0,0,-138,57,-213c0,0,58,-75,168,-75c0,0,87,0,140,35c0,0,53,35,71,88L760,177c0,0,-72,-191,-329,-191Z" 
id="f0_21"
transform="scale(0.001,-0.001)" />

<path d="M17,0L304,415L31,808H179L380,493L580,808H730L457,417L747,0H598L380,331L162,0Z" 
id="f0_2k"
transform="scale(0.001,-0.001)" />

<path d="M339,87c0,0,74,0,132,34c0,0,57,33,90,91c0,0,34,59,34,121v66L448,396c0,0,-95,-2,-144,-19c0,0,-49,-18,-75,-55c0,0,-26,-38,-26,-98c0,0,0,-65,35,-101c0,0,36,-36,101,-36ZM309,-14c0,0,-122,0,-183,64c0,0,-61,64,-61,176c0,0,0,125,82,192c0,0,83,67,266,72l182,3v44c0,0,0,98,-42,141c0,0,-42,43,-132,43c0,0,-90,0,-131,-31c0,0,-41,-31,-49,-98L101,604c0,0,34,218,323,218c0,0,153,0,229,-70c0,0,77,-69,77,-202V202c0,0,0,-59,16,-90c0,0,16,-30,60,-30c0,0,19,0,44,5V4C850,4,799,-7,746,-7c0,0,-75,0,-109,38c0,0,-33,40,-38,124h-4C595,155,543,62,475,24c0,0,-68,-38,-166,-38Z" 
id="f0_1x"
transform="scale(0.001,-0.001)" />

<path d="M106,0V635c0,0,0,141,-5,173H228c0,0,1,-4,2,-21c0,0,1,-16,2,-37c0,0,1,-22,2,-81h2c0,0,44,86,100,120c0,0,56,33,136,33c0,0,92,0,145,-36c0,0,54,-37,75,-117h2c0,0,42,82,101,117c0,0,59,36,143,36c0,0,123,0,178,-66c0,0,56,-67,56,-218V0H1039V512c0,0,0,117,-32,162c0,0,-32,45,-116,45c0,0,-88,0,-136,-66c0,0,-49,-65,-49,-185V0H573V512c0,0,0,117,-32,162c0,0,-32,45,-116,45c0,0,-86,0,-136,-66c0,0,-50,-66,-50,-185V0Z" 
id="f0_29"
transform="scale(0.001,-0.001)" />

<path d="M453,84c0,0,100,0,146,74c0,0,46,73,46,247c0,0,0,169,-46,241c0,0,-45,73,-145,73c0,0,-80,0,-125,-34c0,0,-45,-34,-68,-105c0,0,-24,-71,-24,-186c0,0,0,-159,51,-234c0,0,51,-76,165,-76ZM103,-316V643c0,0,0,124,-5,165H228c0,0,1,-3,3,-22c0,0,1,-18,3,-56c0,0,2,-38,2,-52h3c0,0,36,75,94,110c0,0,59,34,156,34c0,0,149,0,223,-100c0,0,74,-100,74,-314c0,0,0,-422,-297,-422c0,0,-187,0,-251,140h-4c0,0,3,-6,3,-126V-316Z" 
id="f0_2c"
transform="scale(0.001,-0.001)" />

<path d="M420,84c0,0,121,0,173,78c0,0,52,77,52,243c0,0,0,167,-50,243c0,0,-50,76,-167,76c0,0,-118,0,-170,-78c0,0,-53,-77,-53,-241c0,0,0,-160,52,-241c0,0,52,-80,163,-80Zm1,-98c0,0,-176,0,-267,107c0,0,-90,108,-90,312c0,0,0,417,362,417c0,0,185,0,272,-102c0,0,88,-101,88,-315c0,0,0,-212,-94,-316C692,89,599,-14,421,-14Z" 
id="f0_2b"
transform="scale(0.001,-0.001)" />

<path d="M278,-11c0,0,-162,0,-162,182V710H23v98h99l39,181h90V808H400V710H251V200c0,0,0,-58,19,-82c0,0,19,-23,66,-23c0,0,27,0,77,10V6c0,0,-66,-17,-135,-17Z" 
id="f0_2g"
transform="scale(0.001,-0.001)" />

<path d="M272,0c0,0,0,201,86,424c0,0,85,223,285,513H78v114H773V942C773,942,612,696,545,556c0,0,-66,-139,-99,-275C446,281,413,145,413,0Z" 
id="f1_r"
transform="scale(0.001,-0.001)" />

<path d="M140,0V163H285V0Z" 
id="f1_i"
transform="scale(0.001,-0.001)" />

<path d="M141,0V1051H283V0Z" 
id="f1_19"
transform="scale(0.001,-0.001)" />

<path d="M395,89c0,0,115,0,166,79c0,0,51,79,51,246c0,0,0,160,-51,235c0,0,-51,75,-164,75c0,0,-102,0,-147,-75c0,0,-45,-75,-45,-244c0,0,0,-170,45,-243c0,0,45,-73,145,-73ZM361,-14c0,0,-153,0,-225,102c0,0,-72,103,-72,312c0,0,0,422,297,422c0,0,92,0,153,-33c0,0,61,-34,98,-107h2l-2,90v335H747V166c0,0,0,-126,4,-166H623c0,0,-2,12,-5,55c0,0,-3,44,-3,75h-3c0,0,-37,-78,-98,-111c0,0,-62,-33,-153,-33Z" 
id="f1_20"
transform="scale(0.001,-0.001)" />

<path d="M643,478c0,0,-11,128,-65,187c0,0,-54,59,-154,59c0,0,-98,0,-155,-66c0,0,-57,-65,-62,-180ZM431,-14c0,0,-179,0,-272,106c0,0,-94,107,-94,317c0,0,0,200,94,307c0,0,93,106,267,106c0,0,356,0,356,-429V375H206c0,0,0,-138,57,-213c0,0,58,-75,168,-75c0,0,87,0,140,35c0,0,53,35,71,88L760,177c0,0,-72,-191,-329,-191Z" 
id="f1_21"
transform="scale(0.001,-0.001)" />

<path d="M106,0V635c0,0,0,141,-5,173H228c0,0,1,-4,2,-21c0,0,1,-16,2,-37c0,0,1,-22,2,-81h2c0,0,47,84,108,119c0,0,60,34,151,34c0,0,132,0,194,-66c0,0,61,-66,61,-218V0H615V512c0,0,0,80,-15,124c0,0,-16,44,-50,63c0,0,-35,20,-101,20c0,0,-97,0,-153,-67c0,0,-56,-66,-56,-184V0Z" 
id="f1_2a"
transform="scale(0.001,-0.001)" />

<path d="M278,-11c0,0,-162,0,-162,182V710H23v98h99l39,181h90V808H400V710H251V200c0,0,0,-58,19,-82c0,0,19,-23,66,-23c0,0,27,0,77,10V6c0,0,-66,-17,-135,-17Z" 
id="f1_2g"
transform="scale(0.001,-0.001)" />

<path d="M102,0V808H236V0Zm0,979v128H236V979Z" 
id="f1_25"
transform="scale(0.001,-0.001)" />

<path d="M135,0V710H22v98H135v91c0,0,0,110,49,158c0,0,48,49,148,49c0,0,56,0,95,-9V994c0,0,-34,6,-60,6c0,0,-51,0,-75,-26c0,0,-23,-26,-23,-94V808H427V710H269V0Z" 
id="f1_22"
transform="scale(0.001,-0.001)" />

<path d="M142,-316c0,0,-55,0,-92,8v101c0,0,28,-4,63,-4c0,0,125,0,198,184L324,4L4,808H147L317,362c0,0,4,-11,9,-25c0,0,5,-15,34,-98c0,0,28,-83,30,-92l52,147L619,808H761L451,0c0,0,-50,-128,-94,-191c0,0,-43,-63,-96,-94c0,0,-52,-31,-119,-31Z" 
id="f1_2l"
transform="scale(0.001,-0.001)" />

<path d="M615,0V512c0,0,0,85,-15,126c0,0,-16,42,-52,61c0,0,-36,20,-99,20c0,0,-95,0,-152,-66c0,0,-57,-66,-57,-177V0H106V1107H240V819c0,0,0,-45,-2,-94c0,0,-3,-48,-4,-56h2c0,0,44,79,105,116c0,0,60,37,154,37c0,0,131,0,193,-65c0,0,62,-65,62,-219V0Z" 
id="f1_24"
transform="scale(0.001,-0.001)" />

<path d="M106,0V635c0,0,0,141,-5,173H228c0,0,1,-4,2,-21c0,0,1,-16,2,-37c0,0,1,-22,2,-81h2c0,0,44,86,100,120c0,0,56,33,136,33c0,0,92,0,145,-36c0,0,54,-37,75,-117h2c0,0,42,82,101,117c0,0,59,36,143,36c0,0,123,0,178,-66c0,0,56,-67,56,-218V0H1039V512c0,0,0,117,-32,162c0,0,-32,45,-116,45c0,0,-88,0,-136,-66c0,0,-49,-65,-49,-185V0H573V512c0,0,0,117,-32,162c0,0,-32,45,-116,45c0,0,-86,0,-136,-66c0,0,-50,-66,-50,-185V0Z" 
id="f1_29"
transform="scale(0.001,-0.001)" />

<path d="M381,-14c0,0,-150,0,-232,49C149,35,67,85,43,190l118,23c0,0,17,-65,71,-96c0,0,54,-30,149,-30c0,0,102,0,150,31c0,0,47,32,47,95c0,0,0,47,-33,77c0,0,-33,30,-106,49l-96,26c0,0,-115,30,-164,58c0,0,-49,29,-77,70c0,0,-27,41,-27,101c0,0,0,110,78,168c0,0,79,57,230,57c0,0,133,0,212,-47c0,0,79,-47,100,-150L574,607c0,0,-12,53,-60,82c0,0,-49,29,-131,29c0,0,-91,0,-135,-28c0,0,-43,-27,-43,-83c0,0,0,-34,18,-57c0,0,18,-22,53,-38c0,0,35,-15,148,-43c0,0,106,-27,153,-50c0,0,47,-22,75,-50c0,0,27,-27,42,-64c0,0,15,-36,15,-82c0,0,0,-114,-86,-176c0,0,-87,-61,-242,-61Z" 
id="f1_2f"
transform="scale(0.001,-0.001)" />

<path d="M398,93c0,0,63,0,112,37c0,0,49,38,76,107c0,0,27,70,27,166c0,0,0,99,-27,170c0,0,-27,71,-75,109c0,0,-49,38,-111,38c0,0,-103,0,-150,-75c0,0,-47,-75,-47,-242c0,0,0,-165,44,-238c0,0,44,-72,151,-72Zm11,-409c0,0,-132,0,-211,52c0,0,-78,52,-100,147l135,20c0,0,13,-56,59,-87c0,0,46,-30,121,-30c0,0,200,0,200,234V150h-1C612,150,574,72,507,33C507,33,441,-5,352,-5c0,0,-148,0,-218,98c0,0,-70,98,-70,309c0,0,0,214,75,316c0,0,75,101,228,101c0,0,86,0,149,-39c0,0,63,-39,97,-111h2c0,0,0,22,3,78c0,0,3,55,6,61H751c0,0,-4,-41,-4,-167V23c0,0,0,-339,-338,-339Z" 
id="f1_23"
transform="scale(0.001,-0.001)" />

<path d="M106,0V620c0,0,0,85,-5,188H228c0,0,6,-138,6,-165h3c0,0,32,103,74,141c0,0,42,38,118,38c0,0,27,0,54,-7V692c0,0,-26,7,-71,7c0,0,-84,0,-128,-72c0,0,-44,-72,-44,-206V0Z" 
id="f1_2e"
transform="scale(0.001,-0.001)" />

<path d="M339,87c0,0,74,0,132,34c0,0,57,33,90,91c0,0,34,59,34,121v66L448,396c0,0,-95,-2,-144,-19c0,0,-49,-18,-75,-55c0,0,-26,-38,-26,-98c0,0,0,-65,35,-101c0,0,36,-36,101,-36ZM309,-14c0,0,-122,0,-183,64c0,0,-61,64,-61,176c0,0,0,125,82,192c0,0,83,67,266,72l182,3v44c0,0,0,98,-42,141c0,0,-42,43,-132,43c0,0,-90,0,-131,-31c0,0,-41,-31,-49,-98L101,604c0,0,34,218,323,218c0,0,153,0,229,-70c0,0,77,-69,77,-202V202c0,0,0,-59,16,-90c0,0,16,-30,60,-30c0,0,19,0,44,5V4C850,4,799,-7,746,-7c0,0,-75,0,-109,38c0,0,-33,40,-38,124h-4C595,155,543,62,475,24c0,0,-68,-38,-166,-38Z" 
id="f1_1x"
transform="scale(0.001,-0.001)" />

<path d="M413,-14c0,0,-170,0,-259,106c0,0,-89,107,-89,313c0,0,0,203,89,310c0,0,90,107,257,107c0,0,124,0,206,-64c0,0,81,-64,102,-177L581,571c0,0,-10,67,-53,106c0,0,-42,40,-121,40c0,0,-106,0,-154,-71c0,0,-48,-71,-48,-239c0,0,0,-161,51,-238c0,0,51,-78,153,-78c0,0,71,0,120,39c0,0,48,39,59,119l136,-9C724,240,708,124,624,55c0,0,-83,-69,-211,-69Z" 
id="f1_1z"
transform="scale(0.001,-0.001)" />

<path d="M420,84c0,0,121,0,173,78c0,0,52,77,52,243c0,0,0,167,-50,243c0,0,-50,76,-167,76c0,0,-118,0,-170,-78c0,0,-53,-77,-53,-241c0,0,0,-160,52,-241c0,0,52,-80,163,-80Zm1,-98c0,0,-176,0,-267,107c0,0,-90,108,-90,312c0,0,0,417,362,417c0,0,185,0,272,-102c0,0,88,-101,88,-315c0,0,0,-212,-94,-316C692,89,599,-14,421,-14Z" 
id="f1_2b"
transform="scale(0.001,-0.001)" />

<path d="M453,84c0,0,100,0,146,74c0,0,46,73,46,247c0,0,0,169,-46,241c0,0,-45,73,-145,73c0,0,-80,0,-125,-34c0,0,-45,-34,-68,-105c0,0,-24,-71,-24,-186c0,0,0,-159,51,-234c0,0,51,-76,165,-76ZM103,-316V643c0,0,0,124,-5,165H228c0,0,1,-3,3,-22c0,0,1,-18,3,-56c0,0,2,-38,2,-52h3c0,0,36,75,94,110c0,0,59,34,156,34c0,0,149,0,223,-100c0,0,74,-100,74,-314c0,0,0,-422,-297,-422c0,0,-187,0,-251,140h-4c0,0,3,-6,3,-126V-316Z" 
id="f1_2c"
transform="scale(0.001,-0.001)" />

<path d="M355,-14c0,0,-133,0,-194,65c0,0,-62,66,-62,219V808H234V296c0,0,0,-80,16,-124c0,0,16,-44,50,-64c0,0,34,-19,101,-19c0,0,97,0,153,66c0,0,55,67,55,185V808H744V172c0,0,0,-141,4,-172H621c0,0,0,4,-1,20c0,0,-1,17,-2,38c0,0,-1,21,-3,80h-2C613,138,567,55,506,20c0,0,-61,-34,-151,-34Z" 
id="f1_2h"
transform="scale(0.001,-0.001)" />

<path d="M708,418L573,765c0,0,-21,52,-42,117l-20,62l-7,-21c0,0,-18,-62,-55,-159L315,418ZM3,0L432,1051H594L1016,0H871L750,307H272L151,0Z" 
id="f1_11"
transform="scale(0.001,-0.001)" />

<path d="M502,114c0,0,116,0,203,51c0,0,88,51,135,146c0,0,47,96,47,225c0,0,0,196,-107,298c0,0,-107,103,-310,103H268V114ZM125,0V1051H473c0,0,267,0,412,-134c0,0,145,-134,145,-381c0,0,0,-162,-63,-284C967,252,903,130,787,65C787,65,671,0,518,0Z" 
id="f1_14"
transform="scale(0.001,-0.001)" />

<path d="M103,0V1107H237V0Z" 
id="f1_28"
transform="scale(0.001,-0.001)" />

<path d="M224,0L-1,808H131L267,259c0,0,5,-18,32,-147l13,55L480,808H624L765,253L800,112l23,103L976,808h131L876,0H720L579,571L552,697c0,0,-7,-33,-21,-96C531,601,517,537,379,0Z" 
id="f1_2j"
transform="scale(0.001,-0.001)" />

<path d="M395,89c0,0,115,0,166,81c0,0,51,82,51,244c0,0,0,157,-51,233c0,0,-51,77,-164,77c0,0,-102,0,-147,-77c0,0,-45,-76,-45,-242c0,0,0,-170,45,-243c0,0,45,-73,145,-73ZM612,-316V11l3,122h-1c0,0,-40,-80,-99,-114c0,0,-59,-33,-154,-33c0,0,-154,0,-225,103c0,0,-72,104,-72,311c0,0,0,422,297,422c0,0,92,0,151,-32c0,0,60,-33,100,-108h2c0,0,0,22,3,77c0,0,3,55,6,58H752c0,0,-5,-44,-5,-220V-316Z" 
id="f1_2d"
transform="scale(0.001,-0.001)" />

<path d="M140,0V154H285V0Zm0,653V808H285V653Z" 
id="f1_u"
transform="scale(0.001,-0.001)" />

<path d="M427,86c0,0,109,0,163,53c0,0,54,52,54,167c0,0,0,97,-58,147c0,0,-59,50,-164,50c0,0,-102,0,-159,-54c0,0,-58,-53,-58,-146c0,0,0,-217,222,-217Zm-3,517c0,0,94,0,144,44c0,0,50,43,50,141c0,0,0,178,-196,178c0,0,-95,0,-144,-45c0,0,-50,-44,-50,-133c0,0,0,-90,51,-137c0,0,51,-48,145,-48Zm1,-617c0,0,-168,0,-263,79c0,0,-96,80,-96,227c0,0,0,103,59,173c0,0,59,70,151,85v3c0,0,-86,20,-135,87c0,0,-50,67,-50,157c0,0,0,121,90,195c0,0,90,75,241,75c0,0,155,0,245,-73c0,0,90,-74,90,-198c0,0,0,-90,-50,-158c0,0,-50,-67,-136,-84v-3c0,0,100,-16,156,-85c0,0,56,-69,56,-173c0,0,0,-145,-92,-226c0,0,-93,-81,-266,-81Z" 
id="f1_s"
transform="scale(0.001,-0.001)" />

<path d="M34,0L434,546L65,1051H222L515,639l284,412H956L597,551L987,0H830L514,460L192,0Z" 
id="f1_1o"
transform="scale(0.001,-0.001)" />

<path d="M137,-195c0,0,70,102,70,195H142V163H287V38c0,0,0,-78,-14,-131c0,0,-14,-53,-44,-102Z" 
id="f1_g"
transform="scale(0.001,-0.001)" />

<path d="M438,0V436L34,1051H190L510,551l319,500H985L580,436V0Z" 
id="f1_1p"
transform="scale(0.001,-0.001)" />

<path d="M48,0V106L689,936H103v115H850V948L210,115H885V0Z" 
id="f1_1q"
transform="scale(0.001,-0.001)" />

<path d="M116,0V114H384V923L147,754V881l248,170H519V114H775V0Z" 
id="f1_l"
transform="scale(0.001,-0.001)" />

<path d="M424,96c0,0,119,0,174,106c0,0,55,106,55,325c0,0,0,227,-52,329c0,0,-53,102,-174,102c0,0,-123,0,-177,-100c0,0,-55,-101,-55,-331c0,0,0,-224,55,-328c0,0,55,-103,174,-103ZM423,-14c0,0,-181,0,-272,137c0,0,-91,138,-91,403c0,0,0,271,88,406c0,0,88,135,279,135c0,0,186,0,275,-137c0,0,88,-136,88,-404c0,0,0,-263,-93,-402c0,0,-93,-138,-274,-138Z" 
id="f1_k"
transform="scale(0.001,-0.001)" />

<path d="M316,0L7,1051H155L344,383c0,0,33,-125,62,-258c0,0,18,82,41,179c0,0,24,97,207,747H791L974,397c0,0,41,-160,65,-272l7,26c0,0,20,86,33,140c0,0,12,54,209,760h149L1127,0H957L775,668c0,0,-18,62,-52,224c0,0,-20,-86,-33,-145C690,747,677,689,486,0Z" 
id="f1_1n"
transform="scale(0.001,-0.001)" />

<path d="M370,-316c0,0,-141,152,-208,323C162,7,95,179,95,394v3c0,0,0,215,67,387c0,0,68,171,208,323H500c0,0,-140,-155,-205,-330c0,0,-65,-175,-65,-382c0,0,0,-207,64,-381c0,0,65,-172,206,-330Z" 
id="f1_c"
transform="scale(0.001,-0.001)" />

<path d="M103,0V1107H237V416L592,808H749L421,461L766,0H609L336,369L237,287V0Z" 
id="f1_27"
transform="scale(0.001,-0.001)" />

<path d="M9,-316c0,0,140,157,205,329c0,0,65,174,65,382c0,0,0,208,-65,382c0,0,-66,174,-205,330H139c0,0,141,-152,208,-324c0,0,67,-172,67,-386v-3c0,0,0,-216,-67,-388c0,0,-68,-170,-208,-322Z" 
id="f1_d"
transform="scale(0.001,-0.001)" />

<path d="M415,-18c0,0,-149,0,-244,83c0,0,-94,84,-107,222l140,11c0,0,16,-103,73,-154c0,0,56,-52,137,-52c0,0,98,0,165,73c0,0,66,73,66,194c0,0,0,115,-64,182c0,0,-64,66,-169,66c0,0,-65,0,-117,-29c0,0,-52,-30,-82,-77L87,517l106,562H736V951H300L241,657c0,0,99,69,207,69c0,0,143,0,242,-100c0,0,98,-99,98,-255c0,0,0,-149,-86,-257C702,114,597,-18,415,-18Z" 
id="f2_p"
transform="scale(0.001,-0.001)" />

<path d="M125,0V1051H268V115H799V0Z" 
id="f0_1c"
transform="scale(0.001,-0.001)" />

<path d="M106,0V620c0,0,0,85,-5,188H228c0,0,6,-138,6,-165h3c0,0,32,103,74,141c0,0,42,38,118,38c0,0,27,0,54,-7V692c0,0,-26,7,-71,7c0,0,-84,0,-128,-72c0,0,-44,-72,-44,-206V0Z" 
id="f0_2e"
transform="scale(0.001,-0.001)" />

<path d="M606,-14c0,0,-164,0,-284,65c0,0,-119,66,-182,189c0,0,-63,123,-63,291c0,0,0,255,137,396c0,0,137,140,386,140c0,0,174,0,283,-59c0,0,109,-59,168,-189L915,779c0,0,-44,90,-123,131c0,0,-79,41,-196,41c0,0,-182,0,-278,-110c0,0,-96,-110,-96,-310c0,0,0,-200,102,-315c0,0,102,-115,282,-115c0,0,103,0,193,31c0,0,89,31,144,85V407H629V526h445V164c0,0,-83,-85,-205,-132c0,0,-121,-46,-263,-46Z" 
id="f0_17"
transform="scale(0.001,-0.001)" />

<path d="M355,-14c0,0,-133,0,-194,65c0,0,-62,66,-62,219V808H234V296c0,0,0,-80,16,-124c0,0,16,-44,50,-64c0,0,34,-19,101,-19c0,0,97,0,153,66c0,0,55,67,55,185V808H744V172c0,0,0,-141,4,-172H621c0,0,0,4,-1,20c0,0,-1,17,-2,38c0,0,-1,21,-3,80h-2C613,138,567,55,506,20c0,0,-61,-34,-151,-34Z" 
id="f0_2h"
transform="scale(0.001,-0.001)" />

<path d="M395,89c0,0,115,0,166,79c0,0,51,79,51,246c0,0,0,160,-51,235c0,0,-51,75,-164,75c0,0,-102,0,-147,-75c0,0,-45,-75,-45,-244c0,0,0,-170,45,-243c0,0,45,-73,145,-73ZM361,-14c0,0,-153,0,-225,102c0,0,-72,103,-72,312c0,0,0,422,297,422c0,0,92,0,153,-33c0,0,61,-34,98,-107h2l-2,90v335H747V166c0,0,0,-126,4,-166H623c0,0,-2,12,-5,55c0,0,-3,44,-3,75h-3c0,0,-37,-78,-98,-111c0,0,-62,-33,-153,-33Z" 
id="f0_20"
transform="scale(0.001,-0.001)" />

<path d="M140,0V163H285V0Z" 
id="f0_i"
transform="scale(0.001,-0.001)" />


</defs>
</svg>